<!-- Generated by IcoMoon.io -->
<svg version="1.1" xmlns="http://www.w3.org/2000/svg" width="32" height="32" viewBox="0 0 32 32">
<title>accordion</title>
<path d="M0.736 10.075c-0.53 0.142-0.844 0.687-0.701 1.217l3.31 12.357c0.142 0.529 0.688 0.844 1.217 0.703l2.376-0.637-3.825-14.277-2.377 0.636zM1.21 11.482c0.204-0.351 0.653-0.472 1.005-0.27s0.473 0.654 0.269 1.005c-0.203 0.352-0.653 0.473-1.004 0.27s-0.472-0.653-0.27-1.005zM5.273 22.626c-0.202 0.352-0.653 0.473-1.005 0.27-0.35-0.203-0.472-0.654-0.269-1.006s0.654-0.473 1.006-0.27c0.351 0.203 0.472 0.654 0.268 1.006zM4.716 20.544c-0.203 0.352-0.653 0.473-1.006 0.27-0.35-0.203-0.473-0.654-0.268-1.006 0.202-0.352 0.655-0.472 1.006-0.269s0.472 0.654 0.269 1.005zM4.157 18.462c-0.203 0.352-0.652 0.473-1.006 0.27-0.352-0.203-0.473-0.654-0.268-1.006 0.202-0.352 0.654-0.471 1.006-0.269 0.35 0.204 0.472 0.654 0.268 1.005zM3.6 16.381c-0.204 0.352-0.652 0.472-1.006 0.269-0.352-0.203-0.472-0.653-0.269-1.005s0.654-0.472 1.005-0.27c0.352 0.204 0.473 0.654 0.27 1.006zM3.042 14.3c-0.204 0.351-0.653 0.473-1.005 0.27s-0.472-0.655-0.27-1.005c0.204-0.352 0.654-0.473 1.005-0.27 0.353 0.204 0.473 0.653 0.27 1.005zM31.264 10.075l-2.375-0.636-3.826 14.277 2.376 0.637c0.53 0.142 1.075-0.173 1.216-0.703l0.171-0.632-2.047-0.549c-0.153-0.041-0.242-0.198-0.202-0.351s0.198-0.242 0.35-0.202l2.046 0.548 0.416-1.555-2.047-0.548c-0.152-0.041-0.243-0.198-0.201-0.351s0.198-0.242 0.35-0.202l2.047 0.549 0.416-1.555-2.046-0.549c-0.152-0.041-0.242-0.198-0.201-0.351 0.040-0.152 0.197-0.242 0.35-0.202l2.047 0.549 0.416-1.555-2.046-0.549c-0.152-0.041-0.243-0.198-0.203-0.351s0.198-0.242 0.351-0.202l2.047 0.548 0.415-1.555-2.046-0.548c-0.152-0.041-0.243-0.198-0.203-0.351 0.041-0.153 0.198-0.243 0.351-0.203l2.046 0.549 0.417-1.556-2.046-0.549c-0.153-0.041-0.244-0.198-0.203-0.35s0.198-0.243 0.351-0.202l2.046 0.548 0.168-0.633c0.142-0.532-0.172-1.076-0.702-1.219zM27.866 8.854c-0.151-0.040-0.307 0.050-0.348 0.2-1.017-0.261-2.049-0.488-3.093-0.679l-2.564 14.539c0.619 0.116 1.23 0.247 1.836 0.399l-0.046 0.169c-0.041 0.153 0.049 0.309 0.203 0.351s0.309-0.050 0.351-0.203l3.865-14.425c0.041-0.152-0.049-0.309-0.203-0.351zM13.651 22.457c0.646-0.047 1.296-0.078 1.952-0.087v-14.757c-1.088 0.010-2.168 0.053-3.239 0.136l1.287 14.707zM16.398 7.614v14.757c0.656 0.009 1.305 0.039 1.951 0.087l1.287-14.707c-1.070-0.083-2.151-0.127-3.238-0.136zM8.358 8.241l2.563 14.534c0.639-0.104 1.284-0.193 1.937-0.258l-1.286-14.697c-1.083 0.104-2.155 0.244-3.214 0.421zM20.427 7.821l-1.285 14.697c0.654 0.065 1.297 0.154 1.938 0.258l2.563-14.534c-1.060-0.177-2.13-0.317-3.215-0.42zM7.575 8.376c-1.051 0.194-2.088 0.421-3.114 0.684v-0.002c-0.040-0.153-0.197-0.243-0.35-0.203-0.154 0.041-0.243 0.198-0.202 0.351l3.865 14.425c0.041 0.153 0.198 0.244 0.35 0.203s0.242-0.198 0.201-0.351l-0.043-0.165c0.61-0.154 1.23-0.286 1.855-0.404l-2.563-14.539z"></path>
</svg>
