<!-- Generated by IcoMoon.io -->
<svg version="1.1" xmlns="http://www.w3.org/2000/svg" width="32" height="32" viewBox="0 0 32 32">
<title>acoustic-guitar</title>
<path d="M14.591 14.523c-0.771 0-1.495 0.3-2.039 0.844-0.547 0.547-0.848 1.274-0.848 2.047 0.001 0.77 0.302 1.494 0.848 2.036 0.544 0.545 1.268 0.844 2.040 0.844s1.495-0.299 2.039-0.843c0.546-0.544 0.847-1.267 0.848-2.038 0-0.772-0.3-1.499-0.847-2.046-0.544-0.543-1.268-0.844-2.040-0.844zM16.052 18.87c-0.806 0.806-2.116 0.806-2.921 0-0.809-0.806-0.809-2.116 0-2.925 0.806-0.806 2.116-0.806 2.922 0 0.809 0.809 0.809 2.119-0 2.925zM31.784 3.406l-3.19-3.191c-0.289-0.288-0.758-0.288-1.047 0l-0.384 0.462-0.183-0.182c-0.212-0.213-0.558-0.212-0.77 0s-0.212 0.557 0 0.77l0.253 0.254-0.285 0.342-0.282-0.282c-0.213-0.213-0.558-0.213-0.771 0-0.212 0.212-0.212 0.558 0 0.77l0.353 0.353-0.285 0.341-0.381-0.381c-0.212-0.213-0.558-0.213-0.77 0s-0.212 0.558 0 0.77l0.453 0.452-0.604 0.725c-0.282 0.282-0.285 0.732-0.016 1.022l-6.635 6.636c-2.172-1.214-4.831-1.015-6.514 0.674-0.409 0.409-0.74 0.879-0.982 1.407-0.118 0.256-0.252 0.568-0.386 0.922-0.123 0.326-0.548 0.613-0.913 0.617-0.376 0.009-0.726 0.005-1.037 0-2.058-0.050-3.954 0.686-5.337 2.073-2.977 2.977-2.715 8.086 0.583 11.384 3.297 3.297 8.406 3.559 11.383 0.582 1.382-1.383 2.123-3.279 2.073-5.337-0.005-0.311-0.010-0.662-0.005-1.041 0.005-0.36 0.297-0.791 0.622-0.914 0.356-0.134 0.667-0.261 0.923-0.381 0.529-0.241 1.003-0.572 1.407-0.982 1.683-1.684 1.882-4.342 0.673-6.514l6.636-6.636c0.29 0.268 0.74 0.266 1.023-0.016l0.726-0.604 0.452 0.452c0.212 0.213 0.558 0.213 0.77 0s0.213-0.558 0-0.771l-0.381-0.381 0.342-0.284 0.353 0.353c0.212 0.213 0.558 0.213 0.77 0s0.212-0.558 0-0.771l-0.282-0.282 0.341-0.284 0.253 0.253c0.212 0.213 0.558 0.213 0.77 0 0.212-0.212 0.212-0.558 0-0.77l-0.183-0.183 0.462-0.383c0.288-0.288 0.288-0.757-0.001-1.046zM9.866 27.483c-0.344 0.343-0.899 0.343-1.243 0l-4.106-4.106c-0.343-0.343-0.343-0.898 0-1.242 0.343-0.343 0.899-0.343 1.242 0l4.107 4.106c0.343 0.343 0.343 0.9 0 1.242zM16.971 19.791c-0.634 0.635-1.479 0.985-2.378 0.985s-1.745-0.349-2.38-0.985c-0.636-0.634-0.988-1.478-0.989-2.376-0.001-0.901 0.35-1.749 0.988-2.387 0.635-0.635 1.48-0.985 2.379-0.985s1.745 0.35 2.38 0.985c0.638 0.639 0.989 1.486 0.988 2.387-0 0.898-0.352 1.742-0.988 2.377z"></path>
</svg>
