<!-- Generated by IcoMoon.io -->
<svg version="1.1" xmlns="http://www.w3.org/2000/svg" width="32" height="32" viewBox="0 0 32 32">
<title>add-location</title>
<path d="M16 0.254c-5.835 0-10.566 4.731-10.566 10.566 0 0.901 0.125 1.771 0.337 2.604l0.086 0.333c0.343 1.188 7.983 16.273 7.983 16.273s0.442 1.718 2.159 1.718 2.159-1.718 2.159-1.718 7.64-15.084 7.983-16.273l0.086-0.333c0.212-0.834 0.337-1.704 0.337-2.604 0-5.835-4.73-10.566-10.566-10.566zM22 10.75c0 0.552-0.448 1.25-1 1.25h-3.5v3.25c0 0.552-0.448 1.25-1 1.25h-1c-0.552 0-1-0.698-1-1.25v-3.25h-3.5c-0.552 0-1-0.698-1-1.25v-1c0-0.552 0.448-0.75 1-0.75h3.5v-3.75c0-0.552 0.448-0.75 1-0.75h1c0.552 0 1 0.198 1 0.75v3.75h3.5c0.552 0 1 0.198 1 0.75v1z"></path>
</svg>
