<!-- Generated by IcoMoon.io -->
<svg version="1.1" xmlns="http://www.w3.org/2000/svg" width="32" height="32" viewBox="0 0 32 32">
<title>address-book</title>
<path d="M18.633 10.784c0 2.191-1.776 3.967-3.967 3.967s-3.967-1.776-3.967-3.967c0-2.191 1.776-3.967 3.967-3.967s3.967 1.776 3.967 3.967zM14.665 15.361c-4.297 0-7.782 3.485-7.782 7.782 0 2.686 0.191 2.177 7.973 2.177 7.82 0 7.591 0.509 7.591-2.177 0-4.297-3.484-7.782-7.782-7.782zM29.75 7.5c0.552 0 0.75-0.448 0.75-1v-3c0-0.552-0.198-1-0.75-1h-1.75v-0.5c0-1.105-0.645-2-1.75-2h-23c-1.104 0-2.25 0.895-2.25 2v28c0 1.105 1.146 2 2.25 2h23c1.105 0 1.75-0.895 1.75-2v-9.5h1.75c0.552 0 0.75-0.448 0.75-1v-3c0-0.552-0.198-1-0.75-1h-1.75v-1.5h1.75c0.552 0 0.75-0.448 0.75-1v-3c0-0.552-0.198-1-0.75-1h-1.75v-1.5h1.75zM25.5 28.5c0 0.552-0.448 1-1 1h-20c-0.552 0-1-0.448-1-1v-25c0-0.552 0.448-1 1-1h20c0.552 0 1 0.448 1 1v25z"></path>
</svg>
