<!-- Generated by IcoMoon.io -->
<svg version="1.1" xmlns="http://www.w3.org/2000/svg" width="32" height="32" viewBox="0 0 32 32">
<title>air-condition</title>
<path d="M28.25 21.8l-4.2-2.45 2.45-0.7c0.55-0.15 0.9-0.75 0.75-1.3s-0.75-0.85-1.3-0.7l-4.45 1.25-3.2-1.85 3.2-1.85 4.4 1.2c0.55 0.15 1.15-0.15 1.3-0.7s-0.2-1.15-0.75-1.3l-2.45-0.7 4.2-2.45c0.75-0.45 1-1.4 0.6-2.15-0.45-0.75-1.4-1-2.15-0.55l-4.2 2.45 0.6-2.45c0.15-0.55-0.2-1.15-0.75-1.3s-1.1 0.2-1.25 0.75l-1.050 4.5-2.5 1.5v-4.050l3.2-3.2c0.4-0.4 0.4-1.050 0-1.45s-1.050-0.4-1.45 0l-1.75 1.75v-3.45c0-0.9-0.4-1.6-1.25-1.6s-1.25 0.7-1.25 1.6v3.45l-2.2-1.75c-0.4-0.4-1.25-0.4-1.65 0s-0.1 1.050 0.3 1.45l3.55 3.2v4.75l-4-2.1-0.4-0.1-1.25-4.4c-0.15-0.55-0.75-0.9-1.3-0.75s-0.9 0.75-0.75 1.3l0.6 2.45-3-1.7c-0.75-0.45-1.7-0.2-2.15 0.55s-0.15 1.7 0.6 2.15l3 1.7-2.4 0.7c-0.55 0.15-0.9 0.75-0.75 1.3s0.75 0.85 1.3 0.7l4.4-1.2 0.2 0.1 3 1.75-3 1.75-0.2 0.1-4.4-1.2c-0.55-0.15-1.15 0.15-1.3 0.7s0.2 1.15 0.75 1.3l2.4 0.7-3 1.7c-0.75 0.45-1 1.4-0.6 2.15 0.45 0.75 1.4 1 2.15 0.55l3-1.7-0.6 2.45c-0.15 0.55 0.2 1.15 0.75 1.3s1.1-0.2 1.25-0.75l1.15-4.4 0.55-0.1 4-2.1v3.3l-3.65 3.1c-0.4 0.4-0.65 1.050-0.25 1.45s1.35 0.4 1.8 0l2.1-1.75v4.85c0 0.85 0.4 1.55 1.25 1.55s1.25-0.7 1.25-1.55v-4.85l1.75 1.75c0.4 0.4 1.050 0.4 1.45 0s0.4-1.050 0-1.45l-3.2-3.25v-2.6l2.5 1.5 1.15 4.45c0.15 0.55 0.7 0.9 1.25 0.75s0.9-0.75 0.75-1.3l-0.6-2.45 4.2 2.45c0.75 0.45 1.7 0.2 2.15-0.55 0.35-0.8 0.1-1.75-0.65-2.2z"></path>
</svg>
