<!-- Generated by IcoMoon.io -->
<svg version="1.1" xmlns="http://www.w3.org/2000/svg" width="32" height="32" viewBox="0 0 32 32">
<title>airbag</title>
<path d="M26.3 8.25c0 2.071-1.679 3.75-3.75 3.75s-3.75-1.679-3.75-3.75c0-2.071 1.679-3.75 3.75-3.75s3.75 1.679 3.75 3.75zM17.45 9.85c0 4.694-3.806 8.5-8.5 8.5s-8.5-3.806-8.5-8.5c0-4.694 3.806-8.5 8.5-8.5s8.5 3.806 8.5 8.5zM14.050 18.85l4.8 9.65h3.2l-5.45-10.9zM23.45 13.75l-0.25-0.15c-1.4-0.75-3.15-0.25-3.9 1.15l-1.4 2.55 3.25 6.55 3.4-6.2c0.8-1.4 0.3-3.15-1.1-3.9zM11.25 19.55c-0.2-0.050-0.45-0.1-0.65-0.1-0.65 0-1.3 0.25-1.75 0.85l-4.5 5.8c-0.7 0.95-0.55 2.3 0.4 3v0c0.95 0.7 2.3 0.55 3-0.4l3.55-4.65 4.55 1.45-2.65-5.35-1.95-0.6zM31.4 12l-1.65-2.3-4.85 3.5c0.9 0.55 1.4 1.55 1.35 2.55l5.15-3.75z"></path>
</svg>
