<!-- Generated by IcoMoon.io -->
<svg version="1.1" xmlns="http://www.w3.org/2000/svg" width="32" height="32" viewBox="0 0 32 32">
<title>airport</title>
<path d="M17.65 15.546l12.653-4.911c0.726-0.347 1.969-0.783 1.643-1.357-0.305-0.537-1.802-1.505-4.937-0.218l-1.524 0.706c-1.39-0.736-4.389-2.3-6.237-3.092 0 0-1.073-0.617-1.832-0.212-1.058 0.564-1.959 1.042-1.959 1.042l5.686 4.272-4.249 1.969c-0.672-0.348-1.285-0.66-1.896-0.922 0 0-0.476-0.274-0.813-0.094-0.469 0.25-0.744 0.524-0.744 0.524s1.669 1.434 2.794 2.175c0.376 0.246 1.413 0.116 1.413 0.116zM30.441 20h-21.441v-7.704c0.5-0.753 1.368-3.7 1.368-4.37l0.026 0.074h0.442c0.313 0 0.568-0.391 0.568-0.758l-0.405-1.946c0.001-0.367-0.254-0.796-0.568-0.796h-1.431v-1.316c0-0.392-0.217-0.684-0.758-0.684h-0.742v-2.021c0-0.265-0.282-0.479-0.547-0.479h-0.686c-0.265 0-0.268 0.214-0.268 0.479v2.021h-1.021c-0.541 0-0.979 0.293-0.979 0.684v1.316h-1.21c-0.313 0-0.567 0.383-0.567 0.75l-0.405 1.949c-0 0.368 0.254 0.801 0.568 0.801h0.615v-0.167c0 0.67 1 3.708 1 4.461v7.705h-2.441c-0.861 0-1.559 0.773-1.559 1.634v10.366h3.5v-6.654c0-0.202 0.31-0.346 0.511-0.346h4.94c0.202 0 0.549 0.145 0.549 0.346v6.654h22.5v-10.367c0-0.861-0.698-1.634-1.559-1.634zM6 8.777c0 0.123-0.139 0.223-0.312 0.223h-1.376c-0.173 0-0.312-0.1-0.312-0.223v-1.054c0-0.123 0.14-0.223 0.312-0.223h1.377c0.172 0 0.311 0.1 0.311 0.223v1.054zM8.688 9h-1.377c-0.172 0-0.311-0.1-0.311-0.223v-1.054c0-0.123 0.139-0.223 0.312-0.223h1.377c0.172 0 0.312 0.1 0.312 0.223v1.054c0 0.123-0.139 0.223-0.312 0.223zM17.5 28.573c0 0.235-0.227 0.427-0.506 0.427h-2.488c-0.28 0-0.506-0.192-0.506-0.427v-3.645c0-0.236 0.226-0.427 0.506-0.427h2.488c0.279 0 0.506 0.192 0.506 0.427v3.646zM23.5 28.573c0 0.235-0.227 0.427-0.506 0.427h-2.488c-0.279 0-0.506-0.192-0.506-0.427v-3.645c0-0.236 0.227-0.427 0.506-0.427h2.488c0.279 0 0.506 0.192 0.506 0.427v3.646zM29 28.573c0 0.235-0.227 0.427-0.506 0.427h-2.488c-0.279 0-0.506-0.192-0.506-0.427v-3.645c0-0.236 0.227-0.427 0.506-0.427h2.488c0.279 0 0.506 0.192 0.506 0.427v3.646z"></path>
</svg>
