<!-- Generated by IcoMoon.io -->
<svg version="1.1" xmlns="http://www.w3.org/2000/svg" width="32" height="32" viewBox="0 0 32 32">
<title>alarm-clock</title>
<path d="M10.074 3.679c-0.804-1.869-2.66-3.179-4.824-3.179-2.9 0-5.25 2.35-5.25 5.25 0 2.076 1.209 3.867 2.958 4.718 1.488-3.023 4.014-5.441 7.115-6.79zM32.025 5.42c-0.192-2.893-2.692-5.083-5.586-4.891-2.072 0.137-3.778 1.462-4.511 3.264 3.114 1.284 5.694 3.646 7.245 6.651 1.812-0.925 2.995-2.864 2.853-5.024zM26.006 25.41c1.598-2.136 2.544-4.787 2.544-7.66 0-7.069-5.73-12.8-12.8-12.8s-12.8 5.731-12.8 12.8c0 3 1.035 5.758 2.764 7.939l-2.822 2.823c-0.683 0.683-0.683 1.791 0 2.475s1.791 0.683 2.474 0l2.875-2.875c2.11 1.532 4.703 2.438 7.51 2.438 2.934 0 5.637-0.99 7.796-2.651l3.088 3.088c0.683 0.683 1.791 0.683 2.474 0s0.683-1.791 0-2.475l-3.102-3.103zM15.75 27.35c-5.302 0-9.6-4.299-9.6-9.6s4.298-9.6 9.6-9.6 9.6 4.298 9.6 9.6-4.298 9.6-9.6 9.6zM17 17.636v-6.386c0-0.691-0.559-1.25-1.25-1.25s-1.25 0.559-1.25 1.25v6.5c0 0.331 0.089 0.63 0.299 0.853 0.027 0.302 0.139 0.595 0.382 0.814l3.326 3.020c0.512 0.463 1.319 0.424 1.782-0.088s0.44-1.302-0.073-1.765l-3.215-2.948z"></path>
</svg>
