<!-- Generated by IcoMoon.io -->
<svg version="1.1" xmlns="http://www.w3.org/2000/svg" width="32" height="32" viewBox="0 0 32 32">
<title>along-stacked-chart</title>
<path d="M1 7h5.5c0.552 0 1-0.448 1-1v-5c0-0.552-0.448-1-1-1h-5.5c-0.552 0-1 0.448-1 1v5c0 0.552 0.448 1 1 1zM10.5 12.5h-9.5c-0.552 0-1 0.448-1 1v5c0 0.552 0.448 1 1 1h9.5c0.552 0 1-0.448 1-1v-5c0-0.552-0.448-1-1-1zM9 25h-8c-0.552 0-1 0.448-1 1v5c0 0.552 0.448 1 1 1h8c0.552 0 1-0.448 1-1v-5c0-0.552-0.448-1-1-1zM17.5 25h-4.5c-0.552 0-1 0.448-1 1v5c0 0.552 0.448 1 1 1h4.5c0.552 0 1-0.448 1-1v-5c0-0.552-0.448-1-1-1zM31 25h-9.5c-0.552 0-1 0.448-1 1v5c0 0.552 0.448 1 1 1h9.5c0.552 0 1-0.448 1-1v-5c0-0.552-0.448-1-1-1zM13.5 18.5c0 0.552 0.448 1 1 1h6.5c0.552 0 1-0.448 1-1v-5c0-0.552-0.448-1-1-1h-6.5c-0.552 0-1 0.448-1 1v5zM24 18.5c0 0.552 0.448 1 1 1h3.5c0.552 0 1-0.448 1-1v-5c0-0.552-0.448-1-1-1h-3.5c-0.552 0-1 0.448-1 1v5zM10.5 7h2c0.552 0 1-0.448 1-1v-5c0-0.552-0.448-1-1-1h-2c-0.552 0-1 0.448-1 1v5c0 0.552 0.448 1 1 1zM16 7h7c0.552 0 1-0.448 1-1v-5c0-0.552-0.448-1-1-1h-7c-0.552 0-1 0.448-1 1v5c0 0.552 0.448 1 1 1z"></path>
</svg>
