<!-- Generated by IcoMoon.io -->
<svg version="1.1" xmlns="http://www.w3.org/2000/svg" width="32" height="32" viewBox="0 0 32 32">
<title>Ambulance</title>
<path d="M10.056 4.925c0.101 0 0.19-0.034 0.262-0.103 0.068-0.072 0.102-0.16 0.102-0.263v-2.176c0-0.103-0.034-0.188-0.102-0.256-0.073-0.074-0.161-0.11-0.262-0.11-0.103 0-0.188 0.036-0.256 0.11-0.073 0.068-0.11 0.152-0.11 0.256v2.176c0 0.103 0.037 0.191 0.11 0.263 0.068 0.068 0.153 0.103 0.256 0.103zM8.187 5.473c0.063 0.077 0.149 0.124 0.255 0.138 0.093 0.005 0.177-0.027 0.256-0.095 0.082-0.064 0.129-0.144 0.138-0.241 0.005-0.103-0.024-0.192-0.087-0.27l-1.402-1.665c-0.069-0.078-0.151-0.122-0.248-0.131-0.097-0.006-0.187 0.024-0.271 0.087-0.077 0.068-0.119 0.151-0.123 0.248-0.014 0.097 0.011 0.184 0.080 0.263l1.402 1.665zM11.743 5.612c0.101-0.014 0.185-0.061 0.248-0.138l1.402-1.665c0.063-0.078 0.090-0.166 0.081-0.263-0.005-0.103-0.046-0.185-0.125-0.248-0.078-0.069-0.168-0.098-0.27-0.088s-0.185 0.053-0.248 0.131l-1.402 1.665c-0.063 0.077-0.090 0.168-0.080 0.27 0.010 0.097 0.053 0.18 0.132 0.248 0.079 0.064 0.165 0.092 0.263 0.088zM31.112 22.774v-10.68c0-1.558-0.779-2.337-2.337-2.337h-15.461v-0.295c0-0.572-0.286-0.857-0.858-0.857h-0.335v-0.96c0-0.559-0.201-1.039-0.601-1.439-0.396-0.396-0.873-0.593-1.431-0.593s-1.039 0.197-1.44 0.593c-0.396 0.401-0.593 0.88-0.593 1.439v0.961h-0.336c-0.572 0-0.858 0.285-0.858 0.857v0.295h-0.76c-0.691 0.034-1.227 0.3-1.606 0.796-0.2 0.263-0.444 0.777-0.731 1.54-0.277 0.779-0.791 2.167-1.541 4.162-0.711 1.884-1.127 2.977-1.248 3.279-0.049 0.121-0.078 0.564-0.088 1.329v1.91c-0.49 0.004-0.887 0.402-0.887 0.895v1.498c0 0.494 0.402 0.896 0.896 0.896h2.682c0 0.009-0.001 0.017-0.001 0.026 0 2.149 1.742 3.892 3.892 3.892s3.892-1.742 3.892-3.892c0-0.009-0.001-0.017-0.001-0.026h9.569c0 0.009-0.002 0.017-0.002 0.026 0 2.149 1.743 3.892 3.892 3.892s3.892-1.742 3.892-3.892c0-0.009-0.001-0.017-0.001-0.026h2.394c0.494 0 0.896-0.402 0.896-0.896v-1.498c0-0.492-0.397-0.891-0.887-0.895zM7.469 27.552c-0.808 0-1.462-0.655-1.462-1.462 0-0.808 0.655-1.463 1.463-1.463s1.463 0.655 1.463 1.463c-0.001 0.807-0.655 1.462-1.463 1.462zM10.742 19.477c0 0.114-0.040 0.212-0.121 0.293s-0.179 0.122-0.293 0.122h-5.718c-0.114 0-0.213-0.041-0.294-0.122s-0.12-0.178-0.12-0.293v-0.285c0-0.050 0.008-0.098 0.026-0.145l2.163-6.367c0.031-0.082 0.082-0.146 0.154-0.195 0.072-0.050 0.149-0.074 0.234-0.074h3.557c0.114 0 0.213 0.040 0.293 0.121s0.121 0.178 0.121 0.293v6.654zM23.341 20.229h-2.758v-2.531h-2.532v-2.759h2.532v-2.53h2.758v2.53h2.531v2.759h-2.531v2.531zM24.819 27.552c-0.808 0-1.462-0.655-1.462-1.462 0-0.808 0.654-1.463 1.462-1.463s1.462 0.655 1.462 1.463c0 0.807-0.655 1.462-1.462 1.462z"></path>
</svg>
