<!-- Generated by IcoMoon.io -->
<svg version="1.1" xmlns="http://www.w3.org/2000/svg" width="32" height="32" viewBox="0 0 32 32">
<title>american-football-helmet</title>
<path d="M11.872 21.045l-2.284-0.396 2.627-4.777c0.133-0.242 0.045-0.546-0.197-0.678-0.241-0.134-0.546-0.045-0.678 0.197l-2.792 5.075-4.684-0.826c-0.2-0.035-0.402 0.055-0.51 0.227l-2.492 3.988c-0.779 1.169-1.031 2.224-0.748 3.135 0.356 1.146 1.433 1.589 1.478 1.608 0.037 0.015 0.075 0.024 0.115 0.030 0.293 0.041 0.572 0.061 0.836 0.061 2.511 0 3.663-1.759 4.049-2.535l4.324 0.793c0.031 0.006 0.063 0.009 0.094 0.009 0.236 0 0.445-0.166 0.491-0.407 0.052-0.271-0.127-0.533-0.398-0.585l-4.032-0.738 2.008-3.651 2.62 0.456c0.274 0.049 0.531-0.134 0.579-0.406s-0.133-0.53-0.405-0.579zM1.918 27.645c-0.159-0.080-0.677-0.38-0.854-0.964-0.131-0.433-0.057-0.949 0.216-1.541l4.288 0.817c-0.422 0.725-1.474 1.97-3.651 1.688zM6.037 25.029l-4.229-0.805 2.213-3.541 4.016 0.709-2.001 3.638zM18.25 3c-5.547 0-10.323 3.287-12.497 8.017-0.143 0.991 0.213 1.854 1.747 2.046 0 0 5 0.969 6 1.469 0 0 2.5 1.484 1 4.484 0 0-2 3.742-2 6.242 0 0-0.5 2.742 3.5 3.242h8.5c0 0 0.479 0.024 1.142-0.158 3.822-2.442 6.358-6.72 6.358-11.592 0-7.593-6.156-13.75-13.75-13.75zM19 26.5c-1.933 0-3.5-1.567-3.5-3.5s1.567-3.5 3.5-3.5 3.5 1.567 3.5 3.5-1.567 3.5-3.5 3.5z"></path>
</svg>
