<!-- Generated by IcoMoon.io -->
<svg version="1.1" xmlns="http://www.w3.org/2000/svg" width="32" height="32" viewBox="0 0 32 32">
<title>american-football-ball</title>
<path d="M18.828 6.375l1.47 1.469c0.21 0.21 0.21 0.552 0 0.762s-0.552 0.211-0.762 0l-1.637-1.636c-0.61 0.396-1.218 0.809-1.817 1.235l1.165 1.165c0.211 0.211 0.211 0.552 0 0.763s-0.552 0.21-0.762 0l-1.284-1.284c-0.584 0.437-1.152 0.887-1.698 1.351l1.076 1.076c0.211 0.211 0.211 0.552 0 0.762s-0.552 0.211-0.762 0l-1.125-1.125c-0.268 0.245-0.53 0.492-0.781 0.744-0.252 0.252-0.504 0.509-0.756 0.769l1.137 1.137c0.211 0.211 0.21 0.552 0 0.762s-0.552 0.211-0.762 0l-1.12-1.12c-0.49 0.521-0.977 1.053-1.457 1.594l1.432 1.433c0.211 0.211 0.211 0.552 0 0.762s-0.552 0.211-0.762 0l-1.383-1.383c-0.474 0.55-0.939 1.105-1.39 1.66l1.628 1.628c0.211 0.211 0.21 0.552 0 0.762s-0.551 0.21-0.763 0l-1.542-1.542c-0.82 1.048-1.577 2.089-2.245 3.093l9.723 9.723c3.95-0.936 8.128-2.973 11.348-6.193 3.389-3.39 5.47-7.841 6.332-11.971l-8.677-8.675c-1.197 0.684-2.502 1.444-3.826 2.276zM29.841 2.135c-1.422-1.422-4.165-2.14-7.402-2.064l9.329 9.329c0.151-3.162-0.505-5.843-1.927-7.266zM5.646 17.599l-1.365-1.365c-0.211-0.21-0.21-0.552 0-0.762s0.552-0.21 0.763 0l1.219 1.219c0.393-0.562 0.824-1.148 1.297-1.754l-1.372-1.373c-0.211-0.21-0.211-0.552 0-0.762s0.552-0.211 0.762 0l1.29 1.29c0.44-0.534 0.911-1.079 1.416-1.634l-1.563-1.563c-0.21-0.21-0.21-0.552 0-0.762s0.552-0.211 0.763 0l1.535 1.536c0.244-0.257 0.493-0.514 0.752-0.773 0.255-0.255 0.517-0.502 0.782-0.743l-1.545-1.544c-0.21-0.21-0.21-0.552 0-0.763s0.552-0.211 0.762 0l1.595 1.595c0.564-0.472 1.142-0.914 1.722-1.329l-1.411-1.41c-0.211-0.21-0.21-0.552 0-0.763s0.552-0.21 0.762 0l1.552 1.552c0.636-0.42 1.269-0.807 1.889-1.162l-1.153-1.153c-0.211-0.211-0.211-0.552 0-0.763s0.552-0.21 0.762 0l1.372 1.373c1.64-0.873 3.119-1.505 4.183-1.918l-3.434-3.437c-4.226 0.767-8.768 2.756-12.158 6.146-3.22 3.22-5.175 7.48-6.021 11.521l2.879 2.879c0.453-0.904 1.091-2.057 1.96-3.378zM2.385 29.591c1.528 1.529 4.511 2.172 7.981 1.88l-10.014-10.014c-0.21 3.553 0.505 6.606 2.034 8.134z"></path>
</svg>
