<!-- Generated by IcoMoon.io -->
<svg version="1.1" xmlns="http://www.w3.org/2000/svg" width="32" height="32" viewBox="0 0 32 32">
<title>antilock-brake-system</title>
<path d="M3.35 16.1c0-3.45 1.5-6.75 4.15-9l0.25-0.2-2.15-2.15-0.2 0.2c-0.25 0.2-0.45 0.4-0.65 0.6-1.4 1.4-2.5 3-3.25 4.75-0.8 1.85-1.2 3.8-1.2 5.85s0.4 4 1.2 5.85c0.75 1.8 1.85 3.4 3.25 4.75 0.2 0.2 0.35 0.35 0.6 0.55l0.2 0.2 2.15-2.15-0.25-0.2c-2.65-2.35-4.1-5.65-4.1-9.050zM28.6 16.1c0-3.45-1.5-6.75-4.15-9l-0.25-0.2 2.15-2.15 0.2 0.2c0.25 0.2 0.45 0.4 0.65 0.6 1.4 1.4 2.5 3 3.25 4.75 0.8 1.85 1.2 3.8 1.2 5.85s-0.4 4-1.2 5.85c-0.75 1.8-1.85 3.4-3.25 4.75-0.2 0.2-0.35 0.35-0.6 0.55l-0.2 0.2-2.15-2.15 0.25-0.2c2.6-2.35 4.1-5.65 4.1-9.050zM17.1 14c0-0.4-0.2-0.5-0.75-0.5h-0.85v1h0.85c0.6 0 0.75-0.1 0.75-0.5zM9.7 16.5h1.65l-0.8-2.5zM16.75 16h-1.25v2h1.25c0.55 0 0.8-0.5 0.8-1s-0.25-1-0.8-1zM16 5.35c-5.95 0-10.75 4.8-10.75 10.75s4.8 10.7 10.75 10.7c5.95 0 10.75-4.8 10.75-10.75s-4.85-10.7-10.75-10.7zM12.25 19l-0.4-1h-2.55l-0.4 1h-1.4l2.3-7h1.65l2.3 7h-1.5zM16.8 19h-2.8v-7h2.55c1.2 0 2 0.8 2 1.95 0 0.55-0.25 1.050-0.65 1.4 0.65 0.25 1.1 0.85 1.1 1.7 0 1.2-0.8 1.95-2.2 1.95zM21.7 19.1c-1.45 0-2.2-0.8-2.65-1.5l0.9-1c0.35 0.55 0.9 1.1 1.8 1.1 0.6 0 0.95-0.3 0.95-0.75 0-0.3-0.15-0.6-0.85-0.7l-0.5-0.1c-1.1-0.2-1.85-0.9-1.85-1.95 0-1.2 0.85-2.15 2.25-2.15 0.95 0 1.7 0.45 2.2 1.050l-0.85 1c-0.35-0.45-0.85-0.75-1.35-0.75s-0.8 0.3-0.8 0.6c0 0.3 0.2 0.55 0.65 0.65l0.5 0.1c1.25 0.2 2 0.9 2 2.1 0 1.45-1 2.3-2.4 2.3z"></path>
</svg>
