<!-- Generated by IcoMoon.io -->
<svg version="1.1" xmlns="http://www.w3.org/2000/svg" width="32" height="32" viewBox="0 0 32 32">
<title>apartment</title>
<path d="M13.451 0h-10.114c-0.876 0-1.337 0.711-1.337 1.587v30.413h4.5v-3.613c0-0.395 0.205-0.887 0.599-0.887h2.588c0.395 0 0.813 0.493 0.813 0.887v3.613h4.5v-30.413c0-0.876-0.673-1.587-1.549-1.587zM7.5 22.944c0 0.308-0.249 0.556-0.556 0.556h-1.886c-0.308 0-0.557-0.249-0.557-0.556v-1.887c0-0.308 0.249-0.557 0.556-0.557h1.886c0.308 0 0.557 0.249 0.557 0.556v1.887zM7.5 17.443c0 0.308-0.249 0.557-0.556 0.557h-1.886c-0.308 0-0.557-0.25-0.557-0.557v-1.886c0-0.308 0.249-0.557 0.556-0.557h1.886c0.308 0 0.557 0.249 0.557 0.557v1.886zM7.5 11.944c0 0.307-0.249 0.556-0.556 0.556h-1.886c-0.308 0-0.557-0.249-0.557-0.556v-1.886c0-0.308 0.249-0.557 0.556-0.557h1.886c0.308 0 0.557 0.249 0.557 0.556v1.887zM7.5 6.444c0 0.308-0.249 0.556-0.556 0.556h-1.886c-0.308 0-0.557-0.249-0.557-0.556v-1.887c0-0.308 0.249-0.556 0.556-0.556h1.886c0.308 0 0.557 0.249 0.557 0.556v1.887zM12.5 22.944c0 0.308-0.249 0.556-0.556 0.556h-1.886c-0.308 0-0.557-0.249-0.557-0.556v-1.887c0-0.308 0.249-0.557 0.556-0.557h1.886c0.308 0 0.557 0.249 0.557 0.556v1.887zM12.5 17.443c0 0.308-0.249 0.557-0.556 0.557h-1.886c-0.308 0-0.557-0.25-0.557-0.557v-1.886c0-0.308 0.249-0.557 0.556-0.557h1.886c0.308 0 0.557 0.249 0.557 0.557v1.886zM12.5 11.944c0 0.307-0.249 0.556-0.556 0.556h-1.886c-0.308 0-0.557-0.249-0.557-0.556v-1.886c0-0.308 0.249-0.557 0.556-0.557h1.886c0.308 0 0.557 0.249 0.557 0.556v1.887zM12.5 6.444c0 0.308-0.249 0.556-0.556 0.556h-1.886c-0.308 0-0.557-0.249-0.557-0.556v-1.887c0-0.308 0.249-0.556 0.556-0.556h1.886c0.308 0 0.557 0.249 0.557 0.556v1.887zM28.576 0h-10.114c-0.876 0-1.462 0.711-1.462 1.587v30.413h4.5v-3.613c0-0.395 0.33-0.887 0.724-0.887h2.588c0.395 0 0.688 0.493 0.688 0.887v3.613h4.5v-30.413c0-0.876-0.548-1.587-1.424-1.587zM22.5 22.944c0 0.308-0.249 0.556-0.556 0.556h-1.887c-0.308 0-0.557-0.249-0.557-0.556v-1.887c0-0.308 0.249-0.557 0.556-0.557h1.887c0.308 0 0.557 0.249 0.557 0.556v1.887zM22.5 17.443c0 0.308-0.249 0.557-0.556 0.557h-1.887c-0.308 0-0.557-0.25-0.557-0.557v-1.886c0-0.308 0.249-0.557 0.556-0.557h1.887c0.308 0 0.557 0.249 0.557 0.557v1.886zM22.5 11.944c0 0.307-0.249 0.556-0.556 0.556h-1.887c-0.308 0-0.557-0.249-0.557-0.556v-1.886c0-0.308 0.249-0.557 0.556-0.557h1.887c0.308 0 0.557 0.249 0.557 0.556v1.887zM22.5 6.444c0 0.308-0.249 0.556-0.556 0.556h-1.887c-0.308 0-0.557-0.249-0.557-0.556v-1.887c0-0.308 0.249-0.556 0.556-0.556h1.887c0.308 0 0.557 0.249 0.557 0.556v1.887zM27.5 22.944c0 0.308-0.249 0.556-0.556 0.556h-1.887c-0.308 0-0.557-0.249-0.557-0.556v-1.887c0-0.308 0.249-0.557 0.556-0.557h1.887c0.308 0 0.557 0.249 0.557 0.556v1.887zM27.5 17.443c0 0.308-0.249 0.557-0.556 0.557h-1.887c-0.308 0-0.557-0.25-0.557-0.557v-1.886c0-0.308 0.249-0.557 0.556-0.557h1.887c0.308 0 0.557 0.249 0.557 0.557v1.886zM27.5 11.944c0 0.307-0.249 0.556-0.556 0.556h-1.887c-0.308 0-0.557-0.249-0.557-0.556v-1.886c0-0.308 0.249-0.557 0.556-0.557h1.887c0.308 0 0.557 0.249 0.557 0.556v1.887zM27.5 6.444c0 0.308-0.249 0.556-0.556 0.556h-1.887c-0.308 0-0.557-0.249-0.557-0.556v-1.887c0-0.308 0.249-0.556 0.556-0.556h1.887c0.308 0 0.557 0.249 0.557 0.556v1.887z"></path>
</svg>
