<!-- Generated by IcoMoon.io -->
<svg version="1.1" xmlns="http://www.w3.org/2000/svg" width="32" height="32" viewBox="0 0 32 32">
<title>apple</title>
<path d="M27.95 14.8c-0.7-3.5-3.75-6.1-7.4-6.1-0.9 0-1.7 0.2-2.5 0.55-0.2 0.050-0.45 0.1-0.65 0.15-0.2-0.95-0.5-1.85-0.95-2.7 1.75 0.55 6.3 1.35 7.5-4.55-5.65-2.35-7.5 2-8.050 3.7-0.75-1.050-1.7-2-2.85-2.7-0.2-0.15-0.5-0.25-0.75-0.25-0.65 0-1.2 0.55-1.2 1.2 0 0.5 0.3 0.9 0.7 1.1 1.6 1 2.7 2.55 3.1 4.3-0.3-0.050-0.6-0.1-0.85-0.2-0.75-0.35-1.6-0.55-2.5-0.55-3.65 0-6.7 2.6-7.4 6.1-0.55 2.25-0.25 5.15 0.9 8.050 2 5.050 6.1 8.15 9.4 7.55v0c0 0 1.5-0.9 3.3-0.050 0.050 0 0.15 0.050 0.15 0.050 3.15 0.6 7.3-2.55 9.3-7.55 1.1-2.9 1.3-5.8 0.75-8.1zM11.75 13.4c-1.65 0.45-2.9 1.8-3.15 3.5 0 0 0 0 0 0-0.1 0.45-0.45 0.75-0.9 0.75-0.5 0-0.95-0.4-0.95-0.95 0-0.050 0-0.1 0-0.1s0 0 0 0c0.35-2.45 2.15-4.4 4.5-5.050 0 0 0 0 0 0 0.1-0.050 0.2-0.050 0.3-0.050 0.5 0 0.95 0.4 0.95 0.95 0.050 0.5-0.3 0.9-0.75 0.95z"></path>
</svg>
