<!-- Generated by IcoMoon.io -->
<svg version="1.1" xmlns="http://www.w3.org/2000/svg" width="32" height="32" viewBox="0 0 32 32">
<title>ar-glasses</title>
<path d="M26.968 9.67l-0.844-0.844c0 0-5.486-1.688-10.129-1.688-4.641 0-10.128 1.688-10.128 1.688l-0.844 0.844c0 0-1.266 2.954-2.031 6.33s-0.501 6.752-0.501 6.752c0 0.466 0.377 0.844 0.844 0.844 0 0 2.266 1.266 3.954 1.266s4.486-2.688 8.706-2.688c4.22 0 7.018 2.688 8.707 2.688s3.954-1.266 3.954-1.266c0.466 0 0.844-0.378 0.844-0.844 0 0 0-3.024-0.501-6.752s-2.030-6.33-2.030-6.33zM1.5 9c-0.276 0-1.5 0.406-1.5 1v10c0 0.276 0.224 0.5 0.5 0.5s0.5-0.224 0.5-0.5c0 0 0.5-3 1-5.5s1-3.5 1-4.5-1.224-1-1.5-1zM30.5 9c-0.276 0-1.5 0-1.5 1s0.5 2 1 4.5 1 5.5 1 5.5c0 0.276 0.224 0.5 0.5 0.5s0.5-0.224 0.5-0.5v-10c0-0.594-1.224-1-1.5-1z"></path>
</svg>
