<!-- Generated by IcoMoon.io -->
<svg version="1.1" xmlns="http://www.w3.org/2000/svg" width="32" height="32" viewBox="0 0 32 32">
<title>archery-target</title>
<path d="M31.658 29.503l-3.006-3.716c2.096-2.706 3.348-6.099 3.348-9.787 0-8.836-7.163-16-16-16-2.967 0-5.744 0.81-8.126 2.218 0.521 0.563 0.698 1.286 0.921 2.061 0.079 0.277 0.181 0.658 0.281 1.077 1.992-1.298 4.368-2.055 6.923-2.055 7.014 0 12.7 5.686 12.7 12.7s-5.686 12.7-12.7 12.7c-7.014 0-12.7-5.686-12.7-12.7 0-2.55 0.755-4.923 2.049-6.913-0.59-0.121-1.147-0.267-1.516-0.372-0.628-0.178-1.22-0.325-1.714-0.666-1.345 2.343-2.119 5.056-2.119 7.951 0 3.688 1.251 7.082 3.347 9.787l-3.006 3.716c-0.535 0.535-0.493 1.443 0.093 2.029s1.494 0.627 2.029 0.093l2.943-3.639c2.822 2.495 6.53 4.014 10.594 4.014s7.771-1.518 10.594-4.014l2.944 3.639c0.535 0.535 1.443 0.493 2.029-0.093s0.627-1.494 0.091-2.029zM16.488 16.767c-0.43 0.43-1.126 0.43-1.556 0l-1.992-1.992c-0.152 0.379-0.238 0.791-0.238 1.225 0 1.822 1.476 3.297 3.297 3.297 1.822 0 3.298-1.476 3.298-3.297 0-1.82-1.477-3.297-3.298-3.297-0.582 0-1.128 0.152-1.602 0.417l2.091 2.091c0.511 0.789 0.113 1.443-0 1.556zM8.35 10.184c-1.231 1.617-1.97 3.627-1.97 5.816 0 5.313 4.307 9.62 9.62 9.62s9.62-4.307 9.62-9.62c0-5.313-4.307-9.62-9.62-9.62-2.331 0-4.469 0.83-6.133 2.21l2.158 2.158c1.106-0.838 2.48-1.342 3.975-1.342 3.642 0 6.595 2.953 6.595 6.594 0 3.643-2.952 6.595-6.595 6.595s-6.594-2.952-6.594-6.595c0-1.351 0.408-2.607 1.106-3.653l-2.162-2.162zM2.189 7.399c0.392 0.389 0.905 0.509 1.455 0.664 0.551 0.156 1.679 0.44 2.397 0.427s0.075-0.71-0.316-1.099l-1.544-1.528c-0.392-0.389-1.455-0.665-1.455-0.665s-2.727-1.199-2.727-0.699c0 0-0.1 0.628 0.291 1.018l1.898 1.881zM5.677 4.529l1.72 1.702c0.41 0.409 1.145 1.082 1.155 0.327 0.010-0.753-0.294-1.937-0.46-2.513-0.167-0.577-0.293-1.115-0.705-1.524l-2.091-2.073c-0.411-0.408-0.95-0.533-1.155-0.327s0.831 2.884 0.831 2.884 0.294 1.115 0.705 1.524zM15.389 16.375c0.196 0.195 0.511 0.195 0.707 0s0.195-0.512 0-0.707l-12.445-12.445c-0.196-0.196-0.511-0.196-0.707 0s-0.196 0.512 0 0.707l12.445 12.445z"></path>
</svg>
