<!-- Generated by IcoMoon.io -->
<svg version="1.1" xmlns="http://www.w3.org/2000/svg" width="32" height="32" viewBox="0 0 32 32">
<title>Archery</title>
<path d="M17.666 5.5c0 2.025-1.642 3.666-3.666 3.666s-3.666-1.642-3.666-3.667c0-2.025 1.642-3.667 3.666-3.667s3.666 1.642 3.666 3.667zM28.184 11.3c0.181-1.62 0.066-3.13-0.37-4.521-1.546-4.929-6.393-6.435-6.599-6.497-0.393-0.119-0.814 0.105-0.933 0.502s0.106 0.815 0.503 0.934c0.043 0.013 4.287 1.331 5.598 5.509 0.271 0.865 0.39 1.802 0.373 2.799-0.084-0.012-0.169-0.026-0.256-0.026h-15.532c-1.357 0-2.381 0.002-3.155-0.045 0.426-0.204 0.88-0.403 1.319-0.573 0.901-0.349 1.349-1.363 1.001-2.264s-1.361-1.349-2.263-1.001c-5.817 2.248-5.443 4.156-5.303 4.875 0.397 2.027 2.93 2.52 7.172 2.52 0.405 0 0.825-0.005 1.261-0.012h1.285c0.11 0.106 0.227 0.203 0.36 0.277 0.156 0.345 0.448 1.246 0.645 3.399l-7.763 12.13c-0.345 0.538-0.368 1.223-0.061 1.784s0.896 0.91 1.535 0.91h2.5c0.966 0 1.75-0.784 1.75-1.75 0-0.747-0.467-1.384-1.126-1.636l3.358-5.247c-0.017 1.885-0.086 4.123-0.23 6.788-0.026 0.48 0.146 0.949 0.477 1.298s0.79 0.547 1.271 0.547h3c0.966 0 1.75-0.784 1.75-1.75s-0.784-1.75-1.75-1.75h-1.162c0.381-8.55-0.041-12.803-0.611-15h9.965c-0.941 3.247-3.044 6.964-6.279 11.033-0.258 0.325-0.204 0.796 0.12 1.054 0.138 0.11 0.302 0.163 0.466 0.163 0.221 0 0.439-0.097 0.587-0.283 3.788-4.765 6.081-9.030 6.872-12.754 0.183-0.277 0.291-0.607 0.291-0.963 0-0.156-0.027-0.306-0.066-0.45z"></path>
</svg>
