<!-- Generated by IcoMoon.io -->
<svg version="1.1" xmlns="http://www.w3.org/2000/svg" width="32" height="32" viewBox="0 0 32 32">
<title>area-chart</title>
<path d="M21.5 15.5l10-8.5v-6.5l-10 12.995-8.5-1.505-9 8.489 9-6.479zM21.5 19.994l10-5.495v-6l-10 8.5-8.5-1.5-9 6.479 9-4.489zM18.5 28h13v-12l-10 5.495-8.5-2.505-9 4.489v4.521h5zM31 30h-29v-29.125c0-0.483-0.392-0.875-0.875-0.875h-0.25c-0.483 0-0.875 0.392-0.875 0.875v30.25c0 0.483 0.392 0.875 0.875 0.875h30.125c0.552 0 1-0.448 1-1s-0.448-1-1-1z"></path>
</svg>
