<!-- Generated by IcoMoon.io -->
<svg version="1.1" xmlns="http://www.w3.org/2000/svg" width="32" height="32" viewBox="0 0 32 32">
<title>arrow-dualline-left</title>
<path d="M7.205 16l10.918-10.917c0.433-0.434 0.433-1.135 0-1.569l-1.96-1.96c-0.433-0.433-1.135-0.433-1.568 0l-11.405 11.404c-0.13 0.054-0.251 0.133-0.356 0.239l-1.96 1.96c-0.232 0.232-0.335 0.54-0.319 0.843-0.016 0.303 0.088 0.611 0.319 0.843l0.125 0.156 13.596 13.445c0.433 0.433 1.135 0.433 1.568 0l1.96-1.96c0.433-0.433 0.433-1.135 0-1.569l-10.917-10.917zM20.205 16l10.918-10.917c0.433-0.434 0.433-1.135 0-1.569l-1.96-1.96c-0.433-0.433-1.135-0.433-1.568 0l-11.405 11.404c-0.13 0.054-0.251 0.133-0.356 0.239l-1.96 1.96c-0.232 0.232-0.335 0.54-0.319 0.843-0.016 0.303 0.088 0.611 0.319 0.843l0.124 0.156 13.596 13.445c0.433 0.433 1.135 0.433 1.568 0l1.96-1.96c0.433-0.433 0.433-1.135 0-1.569l-10.917-10.917z"></path>
</svg>
