<!-- Generated by IcoMoon.io -->
<svg version="1.1" xmlns="http://www.w3.org/2000/svg" width="32" height="32" viewBox="0 0 32 32">
<title>arrows</title>
<path d="M31.356 15.293l-5.335-5.303c-0.39-0.39-1.521-0.739-1.521 0.261v3.25h-6v-6h3.25c1 0 0.651-1.090 0.261-1.479l-5.303-5.326c-0.39-0.391-1.024-0.384-1.414 0.006l-5.303 5.316c-0.39 0.391-0.739 1.483 0.261 1.483h3.25v6h-6v-3.25c0-1-1.066-0.651-1.457-0.261l-5.303 5.303c-0.391 0.39-0.391 1.023 0 1.414l5.303 5.303c0.391 0.39 1.457 0.739 1.457-0.261v-3.25h6v6h-3.25c-1 0-0.651 1.099-0.261 1.49l5.303 5.337c0.39 0.39 1.024 0.381 1.414-0.009l5.303-5.322c0.39-0.39 0.739-1.495-0.261-1.495h-3.25v-6h6v3.25c0 1 1.122 0.651 1.512 0.261l5.36-5.303c0.39-0.39 0.375-1.024-0.016-1.414z"></path>
</svg>
