<!-- Generated by IcoMoon.io -->
<svg version="1.1" xmlns="http://www.w3.org/2000/svg" width="32" height="32" viewBox="0 0 32 32">
<title>arrow-singleline-right</title>
<path d="M30.679 15.156l-1.96-1.96c-0.105-0.105-0.227-0.184-0.356-0.239l-11.404-11.404c-0.433-0.433-1.136-0.433-1.569 0l-1.96 1.96c-0.433 0.433-0.433 1.135 0 1.569l10.917 10.917-10.917 10.917c-0.433 0.433-0.433 1.136 0 1.569l1.96 1.96c0.433 0.433 1.135 0.433 1.569 0l13.596-13.445 0.125-0.157c0.232-0.232 0.335-0.54 0.319-0.843 0.017-0.303-0.087-0.611-0.319-0.844z"></path>
</svg>
