<!-- Generated by IcoMoon.io -->
<svg version="1.1" xmlns="http://www.w3.org/2000/svg" width="32" height="32" viewBox="0 0 32 32">
<title>arrow-singleline-up-70</title>
<path d="M30.445 15.041l-13.445-13.595-0.157-0.125c-0.232-0.232-0.541-0.336-0.844-0.319-0.303-0.016-0.611 0.087-0.844 0.319l-1.96 1.96c-0.105 0.105-0.184 0.227-0.239 0.356l-11.404 11.404c-0.433 0.434-0.433 1.136 0 1.569l1.96 1.96c0.433 0.433 1.135 0.433 1.569 0l10.917-10.917 10.917 10.917c0.433 0.433 1.136 0.433 1.569 0l1.96-1.96c0.433-0.433 0.433-1.135 0-1.569z"></path>
</svg>
