<!-- Generated by IcoMoon.io -->
<svg version="1.1" xmlns="http://www.w3.org/2000/svg" width="32" height="32" viewBox="0 0 32 32">
<title>arrow-dualline-down</title>
<path d="M28.485 13.877c-0.433-0.433-1.135-0.433-1.569 0l-10.917 10.918-10.917-10.918c-0.434-0.433-1.135-0.433-1.569 0l-1.96 1.96c-0.433 0.433-0.433 1.135 0 1.568l11.405 11.404c0.054 0.13 0.133 0.251 0.239 0.356l1.96 1.96c0.232 0.232 0.54 0.335 0.843 0.32 0.303 0.016 0.611-0.087 0.843-0.32l0.156-0.124 13.445-13.596c0.433-0.433 0.433-1.136 0-1.568l-1.96-1.96zM12.959 15.81c0.054 0.13 0.133 0.251 0.239 0.356l1.96 1.96c0.232 0.232 0.54 0.335 0.843 0.32 0.303 0.016 0.611-0.087 0.843-0.32l0.156-0.124 13.445-13.596c0.433-0.433 0.433-1.135 0-1.568l-1.96-1.96c-0.433-0.433-1.135-0.433-1.569 0l-10.917 10.918-10.917-10.918c-0.434-0.433-1.135-0.433-1.569 0l-1.96 1.96c-0.433 0.433-0.433 1.135 0 1.568l11.405 11.404z"></path>
</svg>
