<!-- Generated by IcoMoon.io -->
<svg version="1.1" xmlns="http://www.w3.org/2000/svg" width="32" height="32" viewBox="0 0 32 32">
<title>asparagus</title>
<path d="M7.65 10.15c0.15 0.15 0.35 0.15 0.45 0l1.65-1.8c0.2-0.25 0.55-0.25 0.8 0l1.6 1.8c0.15 0.15 0.35 0.15 0.45 0l1.55-1.75c0.050-0.050 0.15-0.1 0.2-0.15-0.2-1.6-0.75-3-1.35-4.2-0.050 0.050-0.050 0.050-0.1 0.1l-2.45 2.25c-0.1 0.1-0.2 0.15-0.35 0.15s-0.25-0.050-0.35-0.15l-2.35-2.2c-0.6 1.2-1.15 2.6-1.4 4.1 0.050 0.050 0.1 0.050 0.15 0.15l1.5 1.7zM10.3 4.65l1.9-1.75c0.050-0.050 0.050-0.050 0.1-0.050-1.050-1.7-2.1-2.65-2.1-2.65s-1.050 1.1-2.1 2.8l1.8 1.7c0.1 0.050 0.3 0.050 0.4-0.050zM16.95 6.55c-0.15 0-0.25-0.050-0.35-0.15l-1.35-1.3c0.45 1.15 0.75 2.4 0.8 3.8l0.55-0.6c0.2-0.25 0.55-0.25 0.8 0l1.6 1.8c0.15 0.15 0.35 0.15 0.45 0l1.55-1.75c0.050-0.050 0.15-0.1 0.2-0.15-0.2-1.6-0.75-3-1.35-4.2-0.050 0.050-0.050 0.050-0.1 0.1l-2.45 2.25c-0.1 0.15-0.25 0.2-0.35 0.2zM17.15 4.65l1.9-1.75c0.050-0.050 0.050-0.050 0.1-0.050-1.050-1.7-2.1-2.65-2.1-2.65s-1.050 1.050-2.1 2.75l1.8 1.7c0.1 0.1 0.3 0.1 0.4 0zM23.7 6.55c-0.15 0-0.25-0.050-0.35-0.15l-1.35-1.3c0.45 1.15 0.75 2.4 0.8 3.8l0.55-0.6c0.2-0.25 0.55-0.25 0.8 0l1.6 1.8c0.15 0.15 0.35 0.15 0.45 0l1.55-1.75c0.050-0.050 0.15-0.1 0.2-0.15-0.2-1.6-0.75-3-1.35-4.2-0.050 0.050-0.050 0.050-0.1 0.1l-2.45 2.25c-0.1 0.15-0.25 0.2-0.35 0.2zM23.9 4.65l1.9-1.75c0.050-0.050 0.050-0.050 0.1-0.050-1.050-1.7-2.1-2.65-2.1-2.65s-1.050 1.1-2.1 2.8l1.8 1.65c0.1 0.1 0.3 0.1 0.4 0zM26.5 21.6h-0.65v-6.35c1.2-0.9 2.1-2.6 2.2-5.15l-1.75 1.9c-0.1 0.1-0.25 0.2-0.4 0.2v0c-0.15 0-0.3-0.050-0.4-0.2l-1.6-1.8c-0.15-0.15-0.35-0.15-0.45 0l-0.75 0.85c-0.2 1.6-0.7 2.85-1.45 3.8 0.1 0.1 0.25 0.25 0.4 0.35v6.4h-2.6v-6.35c1.2-0.9 2.1-2.6 2.2-5.15l-1.65 1.9c-0.1 0.1-0.25 0.2-0.4 0.2v0c-0.15 0-0.3-0.050-0.4-0.2l-1.6-1.8c-0.15-0.15-0.35-0.15-0.45 0l-0.75 0.85c-0.2 1.6-0.7 2.85-1.45 3.8 0.1 0.1 0.25 0.25 0.4 0.35v6.4h-2.7v-6.35c1.2-0.9 2.1-2.6 2.2-5.15l-1.7 1.9c-0.1 0.1-0.25 0.2-0.4 0.2v0c-0.15 0-0.3-0.050-0.4-0.2l-1.6-1.8c-0.15-0.15-0.35-0.15-0.45 0l-1.65 1.8c-0.2 0.25-0.6 0.25-0.8 0l-1.55-1.8c0.1 2.4 1.050 4.1 2.2 5v6.45c-0.050 0-0.1 0-0.15 0.050l-2.1-1.7c-0.5-0.4-1.2-0.3-1.6 0.2s-0.3 1.2 0.2 1.6l1.3 1-1.35 1.050c-0.5 0.4-0.6 1.1-0.2 1.6s1.1 0.6 1.6 0.2l2.15-1.65c0.050 0 0.1 0.050 0.15 0.050v6.45c0 0.8 0.65 1.4 1.4 1.4h1.35c0.8 0 1.4-0.65 1.4-1.4v-6.5h2.7v6.4c0 0.8 0.65 1.4 1.4 1.4h1.35c0.8 0 1.4-0.65 1.4-1.4v-6.4h2.6v6.4c0 0.8 0.65 1.4 1.4 1.4h1.35c0.8 0 1.4-0.65 1.4-1.4v-6.4h0.65c0.65 0 1.2-0.55 1.2-1.2v0c0-0.65-0.55-1.2-1.2-1.2z"></path>
</svg>
