<!-- Generated by IcoMoon.io -->
<svg version="1.1" xmlns="http://www.w3.org/2000/svg" width="32" height="32" viewBox="0 0 32 32">
<title>asterisk</title>
<path d="M28.608 20.463l-6.819-4.407 7.015-4.521c0.378-0.217 0.506-0.7 0.288-1.076l-2.168-3.755c-0.218-0.377-0.567-0.506-0.944-0.289l-6.981 4.577v-9.041c0-0.435-0.619-0.953-1.055-0.953h-4.336c-0.435 0-1.109 0.517-1.109 0.953v8.927l-6.757-4.463c-0.377-0.218-0.779-0.088-0.997 0.288l-2.128 3.755c-0.217 0.377-0.069 0.86 0.308 1.077l7.026 4.521-6.814 4.406c-0.378 0.218-0.504 0.7-0.286 1.077l2.169 3.755c0.218 0.377 0.54 0.506 0.918 0.289l6.56-4.35v8.813c0 0.436 0.674 0.953 1.109 0.953h4.336c0.436 0 1.055-0.517 1.055-0.953v-8.927l6.784 4.463c0.378 0.218 0.793 0.088 1.011-0.289l2.135-3.755c0.218-0.377 0.055-0.859-0.322-1.076z"></path>
</svg>
