<!-- Generated by IcoMoon.io -->
<svg version="1.1" xmlns="http://www.w3.org/2000/svg" width="32" height="32" viewBox="0 0 32 32">
<title>at</title>
<path d="M22.722 18.561l2.323-10.56h-3.542l-0.533 2.296c-0.584-0.964-1.308-1.633-2.171-2.089-0.787-0.406-1.689-0.588-2.704-0.588-2.514 0-4.608 1.078-6.284 3.21-1.549 1.98-2.323 4.322-2.323 7.013 0 1.956 0.634 3.646 1.905 5.068 1.27 1.448 2.793 2.172 4.571 2.172 0.736 0 1.498-0.228 2.285-0.685 0.686-0.381 1.333-0.901 1.942-1.561l0.038 0.038c0.051 0.711 0.305 1.27 0.762 1.676 0.431 0.356 0.965 0.533 1.599 0.533 0.762 0 1.676-0.215 2.742-0.648 1.244-0.482 2.386-1.168 3.427-2.056 1.244-1.041 2.209-2.272 2.895-3.695 0.838-1.676 1.257-3.542 1.257-5.598 0-3.783-1.473-6.894-4.418-9.331-2.742-2.26-6.031-3.389-9.864-3.389-4.317 0-7.973 1.473-10.969 4.418-3.046 2.997-4.57 6.704-4.57 11.122 0 4.469 1.536 8.214 4.609 11.236 3.047 2.997 6.766 4.494 11.159 4.494 2.514 0 4.849-0.544 7.008-1.736 2.157-1.168 3.948-2.898 5.37-4.898h-3.58c-1.142 1-2.425 1.813-3.846 2.422-1.523 0.635-3.098 0.925-4.723 0.925-3.504 0-6.373-1.156-8.607-3.441-2.285-2.31-3.428-5.287-3.428-8.919 0-3.58 1.053-6.516 3.161-8.801 2.133-2.335 4.913-3.506 8.341-3.506 3.25 0 5.865 0.888 7.846 2.665 2.133 1.88 3.199 4.469 3.199 7.77 0 2.056-0.495 3.796-1.486 5.218-0.889 1.295-1.904 1.942-3.047 1.942-0.229 0-0.394-0.076-0.495-0.229-0.076-0.152-0.114-0.367-0.114-0.648 0-0.229 0.025-0.563 0.076-0.919 0.051-0.253 0.114-0.59 0.191-0.919zM18.456 19.066c-0.965 1.27-2.12 1.904-3.466 1.904-0.99 0-1.777-0.355-2.361-1.067-0.559-0.71-0.838-1.599-0.838-2.666 0-1.345 0.431-2.576 1.295-3.694 0.939-1.193 2.082-1.79 3.428-1.79 0.939 0 1.714 0.318 2.323 0.952 0.634 0.635 0.952 1.46 0.952 2.476 0.001 1.423-0.444 2.717-1.332 3.885z"></path>
</svg>
