<!-- Generated by IcoMoon.io -->
<svg version="1.1" xmlns="http://www.w3.org/2000/svg" width="32" height="32" viewBox="0 0 32 32">
<title>aubergine</title>
<path d="M28.6 4.35v0c-0.8-0.7 0.2-2.25 0.2-2.25v0l0.15-0.3c0.2-0.3 0.1-0.8-0.25-1s-0.8-0.1-1.050 0.25l-0.15 0.3c-0.050 0.1-1 1.55-1.95 1.1v0c-4.050-2.25-6.65 1.35-6.7 1.35l-0.25 0.35 0.3 0.35c0 0 0.45 0.5 1.2 1 0.6 0.4 1.55 0.8 2.6 0.8-0.75 1.8-0.1 3.55-0.050 3.65l0.15 0.4 0.45-0.050c0.1 0 1.95-0.2 3.25-1.65 0.5 1 1.25 1.65 1.85 2 0.75 0.45 1.35 0.6 1.4 0.65l0.4 0.1 0.2-0.4c-0.050-0.050 2.050-3.95-1.75-6.65zM26.55 10.8c-1.5 1-4.95 1.5-4.95 1.5s-1.1-2.8-0.9-5c-1-0.050-1.45-0.65-2-1-3.75 4.4-9.5 7.4-11.7 8.35-3.45 1.15-5.9 4.4-5.9 8.2 0 4.75 3.85 8.65 8.65 8.65 11.75 0 17.050-12 19.1-19.2-0.15-0.1-1.6-0.55-2.3-1.5zM9 18.7c-1.25 0.55-2.2 1.45-2.95 2.6-0.4 0.65-1.050 0.35-1.050 0.35-0.6-0.2-0.8-1-0.55-1.45 0.8-1.4 2.15-2.65 3.7-3.15 1-0.3 1.25 0.6 1.25 0.6 0.2 0.5 0 0.9-0.4 1.050z"></path>
</svg>
