<!-- Generated by IcoMoon.io -->
<svg version="1.1" xmlns="http://www.w3.org/2000/svg" width="32" height="32" viewBox="0 0 32 32">
<title>audio-description</title>
<path d="M0.489 22h3.445l0.965-2h2.601v2h2.5v-12h-2.4l-7.111 12zM7.5 17.5h-1.531l1.531-2.948v2.948zM17.943 10.629c-0.668-0.412-1.683-0.629-3.047-0.629h-3.896v12h4.322c1.625 0 2.899-0.587 3.825-1.733 0.924-1.148 1.387-2.582 1.387-4.293 0-1.36-0.265-2.494-0.794-3.384-0.529-0.89-1.128-1.55-1.797-1.96zM16.767 18.789c-0.454 0.762-0.703 0.711-1.639 0.711h-1.129v-7h1.153c0.54 0 1.647 0.77 1.907 1.385 0.259 0.616 0.388 1.391 0.388 2.115 0 1.027-0.227 2.027-0.68 2.789zM22.753 10h-1.478c1.038 2.5 1.56 3.668 1.56 6.015 0 2.308-0.532 3.485-1.594 5.985h1.478c1.321-2.5 1.982-3.716 1.982-6.030-0-2.179-0.649-3.47-1.948-5.97zM26.157 10h-1.477c1.038 2.5 1.559 3.668 1.559 6.015 0 2.308-0.532 3.485-1.594 5.985h1.479c1.322-2.5 1.983-3.716 1.983-6.030 0-2.179-0.651-3.47-1.949-5.97zM29.563 10h-1.478c1.040 2.5 1.559 3.668 1.559 6.015 0 2.308-0.531 3.485-1.593 5.985h1.478c1.32-2.5 1.982-3.716 1.982-6.030 0-2.179-0.648-3.47-1.948-5.97z"></path>
</svg>
