<!-- Generated by IcoMoon.io -->
<svg version="1.1" xmlns="http://www.w3.org/2000/svg" width="32" height="32" viewBox="0 0 32 32">
<title>audit</title>
<path d="M29.742 24.16l-3.461-5.12c0.809-0.878 1.367-1.96 1.6-3.162 0.329-1.704-0.024-3.436-0.997-4.874-1.21-1.791-3.226-2.861-5.39-2.861-1.299 0-2.555 0.386-3.636 1.115-1.439 0.973-2.412 2.447-2.742 4.151s0.024 3.435 0.996 4.874c1.21 1.791 3.226 2.861 5.39 2.861 0.79 0 1.564-0.145 2.294-0.421l3.458 5.116c0.464 0.686 1.396 0.867 2.083 0.403s0.867-1.396 0.403-2.082zM25.918 15.498c-0.228 1.18-0.902 2.201-1.898 2.874-0.747 0.506-1.617 0.773-2.515 0.773-1.5 0-2.895-0.741-3.733-1.98-0.674-0.996-0.919-2.194-0.69-3.374s0.902-2.2 1.898-2.873c0.747-0.505 1.617-0.772 2.515-0.772 1.5 0 2.895 0.741 3.733 1.98 0.674 0.995 0.919 2.194 0.69 3.374zM26.258 7.5h1.609c0.073 0 0.143-0.008 0.212-0.021l-7.558-7.558c-0.013 0.069-0.021 0.14-0.021 0.212v5.934c0.313-0.040 0.628-0.068 0.947-0.068 1.747 0 3.418 0.537 4.811 1.5zM21.348 12.299c-0.355 0-0.701 0.073-1.029 0.201h2.079c-0.329-0.13-0.684-0.201-1.050-0.201zM18.749 14c-0.085 0.194-0.155 0.396-0.197 0.608-0.145 0.748 0.011 1.506 0.437 2.137 0.061 0.090 0.127 0.174 0.196 0.255h4.319c0.32-0.372 0.549-0.814 0.645-1.309 0.113-0.579 0.040-1.163-0.195-1.691h-5.206zM7.75 23.5c-0.414 0-0.75-0.335-0.75-0.75s0.336-0.75 0.75-0.75h9.729c-1.198-0.639-2.242-1.566-3.027-2.726-0.169-0.251-0.322-0.51-0.463-0.774h-6.239c-0.414 0-0.75-0.335-0.75-0.75s0.336-0.75 0.75-0.75h5.615c-0.295-0.966-0.406-1.979-0.338-3h-5.277c-0.414 0-0.75-0.335-0.75-0.75s0.336-0.75 0.75-0.75h5.513c0.504-2.029 1.713-3.78 3.457-4.959 0.709-0.479 1.476-0.866 2.28-1.133v-6.408h-13c-1.104 0-2 0.895-2 2v28c0 1.105 0.896 2 2 2h20c1.077 0 1.95-0.854 1.992-1.921l-4.229-6.579h-16.012zM25 27.25c0 0.415-0.336 0.75-0.75 0.75h-16.5c-0.414 0-0.75-0.335-0.75-0.75s0.336-0.75 0.75-0.75h16.5c0.414 0 0.75 0.335 0.75 0.75z"></path>
</svg>
