<!-- Generated by IcoMoon.io -->
<svg version="1.1" xmlns="http://www.w3.org/2000/svg" width="32" height="32" viewBox="0 0 32 32">
<title>auditor</title>
<path d="M30.244 19.517l-3.461-5.12c0.809-0.877 1.367-1.96 1.6-3.162 0.329-1.704-0.024-3.436-0.997-4.874-1.21-1.792-3.226-2.861-5.39-2.861-0.077 0-0.154 0.006-0.23 0.009-1.083-2.083-3.256-3.509-5.767-3.509-3.59 0-6.5 2.91-6.5 6.5s2.91 6.5 6.5 6.5c0.078 0 0.155-0.009 0.233-0.011 0.116 0.223 0.241 0.441 0.384 0.652 1.21 1.791 3.226 2.861 5.39 2.861 0.79 0 1.564-0.145 2.294-0.421l3.458 5.117c0.464 0.686 1.396 0.867 2.083 0.403s0.866-1.397 0.402-2.083zM26.42 10.855c-0.228 1.18-0.902 2.201-1.898 2.874-0.747 0.505-1.617 0.772-2.515 0.772-1.479 0-2.854-0.723-3.695-1.932-0.012-0.017-0.026-0.031-0.038-0.049-0.674-0.996-0.919-2.194-0.69-3.374s0.902-2.2 1.898-2.873c0.747-0.505 1.617-0.772 2.515-0.772 0.142 0 0.282 0.013 0.422 0.026 1.335 0.125 2.552 0.833 3.311 1.955 0.674 0.996 0.919 2.194 0.69 3.374zM28.467 24.119c-0.011-0.014-0.023-0.025-0.033-0.040l-4.495-6.652c-0.948 0.36-1.955 0.547-2.982 0.547-1.282 0-2.524-0.291-3.645-0.827l1.189 7.588v1.622l-1.459 2.376c-0.448 0.448-1.289 0.448-1.738 0l-1.286-2.376-0.030-1.622 1.038-7.909-2.133-2.444c-5.539 1.387-9.642 6.397-9.642 12.366 0 5.75 0.313 5.25 13.062 5.25 12.813 0 12.438 0.5 12.438-5.25 0-0.904-0.105-1.781-0.283-2.631z"></path>
</svg>
