<!-- Generated by IcoMoon.io -->
<svg version="1.1" xmlns="http://www.w3.org/2000/svg" width="32" height="32" viewBox="0 0 32 32">
<title>automatic</title>
<path d="M22.95 6.65v-3c0-1.9-1.55-3.45-3.45-3.45h-6.75c-1.9 0-3.45 1.55-3.45 3.45v3c2.1-1.6 4-2.25 6.85-2.25s4.7 0.65 6.8 2.25zM9.25 25.5v3c0 1.9 1.55 3.45 3.45 3.45h6.8c1.9 0 3.45-1.55 3.45-3.45v-3c-2.1 1.6-4 2.25-6.85 2.25s-4.7-0.7-6.85-2.25zM14.1 17.1h3.75l-1.9-5.8zM16 5.9c-5.55 0-10.1 4.5-10.1 10.1s4.5 10.1 10.1 10.1c5.55 0 10.1-4.5 10.1-10.1s-4.55-10.1-10.1-10.1zM19.35 22.25l-1.35-4.2c-0.15 0.15-0.35 0.3-0.6 0.4s-0.55 0.2-0.85 0.2h-2.75l-1.15 3.65h-2.050l4.25-12.65h1.55c0.25 0 0.45 0.050 0.6 0.2 0.2 0.15 0.3 0.3 0.35 0.5l4.050 12h-2.050z"></path>
</svg>
