<!-- Generated by IcoMoon.io -->
<svg version="1.1" xmlns="http://www.w3.org/2000/svg" width="32" height="32" viewBox="0 0 32 32">
<title>avocado</title>
<path d="M28.15 3.35c-0.25-0.050-0.5-0.050-0.75 0.050-0.55 0.15-1.15 0.45-1.75 0.75-1.95-6.4-7.75-3.15-7.75-3.15s1.5 5.7 6.7 3.85c-0.8 0.55-1.5 1.25-2.050 1.95-2.35-1.3-5.3-0.8-7.1 1.3-0.1 0.1-0.65 0.65-1.45 1.2-0.6 0.4-1.3 0.65-2.050 0.75-2.6 0.25-4.95 1.5-6.6 3.5-3.6 4.3-2.95 10.75 1.45 14.45 0.45 0.35 0.9 0.7 1.35 0.95 0.35 0.35 0.75 0.65 1.15 0.95 4.7 3.3 11.15 2.25 14.3-2.3 1.45-2.1 2.050-4.65 1.65-7.25-0.1-0.6-0.050-1.25 0.15-1.9s0.85-2.050 1.050-2.4c1.55-2.5 0.75-5.95-1.75-7.7l-0.2-0.15c0.95-1.050 2.4-2.35 3.5-2.7 0.45-0.050 0.8-0.4 0.9-0.8 0.2-0.6-0.15-1.2-0.75-1.35zM7.15 15.1c1.3-1.55 3.1-2.45 5.050-2.65 1.1-0.1 2.2-0.5 3.15-1.15 1.15-0.8 1.9-1.65 1.9-1.65 1.2-1.45 3.35-1.65 4.75-0.45l0.6 0.5c1.35 1.15 1.7 3.2 0.65 4.6-0.15 0.2-1.2 1.85-1.55 2.85-0.35 0.9-0.55 1.9-0.45 2.9 0.1 1.9-0.45 3.85-1.75 5.4-2.75 3.25-7.7 3.6-11.1 0.75-3.5-2.85-4-7.85-1.25-11.1zM24.5 8.3c0 0-0.050 0 0 0-0.050-0.050-0.050-0.050-0.050-0.050 0.050 0 0.050 0.050 0.050 0.050zM10.55 23.5c1.85 1.55 4.65 1.3 6.2-0.55s1.85-5.25-0.050-6.8c-1.85-1.55-5.15-0.7-6.7 1.15s-1.3 4.65 0.55 6.2zM11.75 17.55c0.75-0.3 1.6-0.5 2.45-0.35 1 0.15 0.8 0.9 0.8 0.9-0.1 0.45-0.55 0.55-0.95 0.5-0.6-0.050-1.15 0-1.7 0.25-0.7 0.3-1.1-0.2-1.1-0.2-0.25-0.3-0.050-0.85 0.5-1.1z"></path>
</svg>
