<!-- Generated by IcoMoon.io -->
<svg version="1.1" xmlns="http://www.w3.org/2000/svg" width="32" height="32" viewBox="0 0 32 32">
<title>axe</title>
<path d="M28.502 10.605c-0.53 1.047-1.394 2.384-2.785 3.776-1.59 1.591-2.957 2.518-3.992 3.057 0.252 1.631 0.3 3.163 0.3 3.163s2.47-0.165 6.11-3.804c3.073-3.073 3.579-5.885 3.579-5.885s-1.561-0.049-3.21-0.307zM27.277 10.313c-1.168-0.184-2.386-0.488-2.952-0.991-0.857-0.761-1.55-1.684-2.192-2.615l0.25-0.251c0.617-0.617 0.617-1.618 0-2.236-0.586-0.586-1.517-0.615-2.138-0.088-0.5-0.558-0.874-0.88-0.874-0.88l-5.008 5.008c0 0 0.357 0.415 0.97 0.954-1.476 1.587-4.302 4.364-8.68 7.63-6.871 5.126-6.652 9.706-6.652 9.706l2.998 2.998c0 0 0.866 0.427 0.989-0.216 0.402-2.119 1.617-6.976 4.63-9.652 3.050-2.712 6.889-6.345 9.065-8.751 0.976 0.669 1.953 1.387 2.752 2.286 0.509 0.572 0.814 1.813 0.996 2.992 0.893-0.466 2.073-1.265 3.445-2.637 1.199-1.2 1.945-2.354 2.402-3.256z"></path>
</svg>
