<!-- Generated by IcoMoon.io -->
<svg version="1.1" xmlns="http://www.w3.org/2000/svg" width="32" height="32" viewBox="0 0 32 32">
<title>baby</title>
<path d="M29.078 13.697c-0.007-2.813-0.835-5.761-1.666-8.091-0.832-2.324-1.681-4.016-1.779-4.208-0.192-0.377-0.5-0.686-0.881-0.875l-0.636-0.316 0.005 0.004c-0.145-0.075-0.299-0.125-0.453-0.16-0.004-0.003-0.006-0.003-0.009-0.004l-0 0.002c-0.141-0.030-0.282-0.049-0.422-0.049-0.082 0-0.164 0.006-0.244 0.016h-0.008c-0.276 0.037-3.145 0.421-6.372 1.536-1.614 0.56-3.32 1.3-4.848 2.304-1.524 1.002-2.893 2.278-3.724 3.94l-3.936 7.903c-0.799 1.608-1.181 3.322-1.181 5.009 0 4.143 2.293 8.139 6.252 10.112 1.607 0.8 3.322 1.18 5.008 1.18 4.144 0.002 8.139-2.291 10.111-6.249l3.936-7.906c0.628-1.277 0.847-2.704 0.849-4.148zM25.021 16.535c0.433 0.102 0.703 0.538 0.605 0.972-0.091 0.371-0.416 0.627-0.791 0.627-0.062 0-0.124-0.008-0.184-0.021-0.081-0.017-0.334-0.070-0.734-0.133-0.593-0.092-1.207-0.162-1.825-0.208-1.995-0.145-3.989-0.041-5.783 0.311-0.328 0.066-0.662 0.139-0.996 0.224l-0.104 0.026h-0.001c-0.541 0.141-1.082 0.313-1.606 0.512-2.584 0.976-4.662 2.57-6.174 4.736-0.151 0.217-0.399 0.346-0.664 0.346-0.167 0-0.327-0.050-0.463-0.146-0.176-0.122-0.295-0.308-0.333-0.521s0.009-0.428 0.133-0.605c1.601-2.297 3.766-4.023 6.432-5.128 0.477-0.197 0.983-0.378 1.502-0.538 0.175-0.053 0.349-0.105 0.524-0.154-0.602-1.746-1.504-3.284-2.683-4.576-0.354-0.389-0.752-0.77-1.22-1.163l-0.091-0.081c-0.047-0.043-0.094-0.085-0.146-0.126-0.351-0.284-0.405-0.794-0.125-1.142 0.229-0.288 0.664-0.376 1.001-0.2l0.019 0.011c0.059-0.145 0.117-0.29 0.188-0.432 1.88-3.775 6.48-5.319 10.257-3.438 3.774 1.88 5.317 6.481 3.438 10.255-0.096 0.197-0.209 0.381-0.322 0.564 0.087 0.017 0.139 0.029 0.145 0.030zM21.564 12.123c-0.418-0.283-0.988-0.173-1.27 0.245-0.282 0.419-0.174 0.987 0.246 1.271 0.42 0.285 0.988 0.175 1.27-0.245 0.285-0.419 0.174-0.986-0.246-1.27zM22.234 7.49c0.058-0.231-0.163-0.388-0.369-0.3-0.771 0.331-0.75 1.936 0.153 2.058 0.149 0.019 0.305-0.14 0.293-0.284-0.017-0.255-0.184-0.456-0.211-0.704-0.032-0.272 0.068-0.513 0.134-0.769zM16.392 10.836c0.416 0.281 0.985 0.171 1.269-0.247s0.171-0.989-0.248-1.271c-0.418-0.284-0.985-0.174-1.268 0.245-0.282 0.421-0.172 0.988 0.247 1.272zM20.293 8.553c0.070-0.743 0.52-1.125 1.104-1.521 0.225-0.154 0.108-0.514-0.177-0.454-0.995 0.209-1.802 0.961-1.516 2.040 0.089 0.339 0.556 0.265 0.588-0.066zM19.235 14.091c-0.134-0.091-0.316-0.055-0.407 0.081-0.375 0.553-1.192 0.655-1.825 0.229-0.631-0.427-0.841-1.225-0.467-1.777 0.090-0.134 0.055-0.319-0.078-0.409-0.135-0.091-0.32-0.056-0.41 0.079-0.555 0.823-0.275 1.986 0.625 2.595 0.904 0.61 2.087 0.434 2.643-0.388 0.090-0.136 0.058-0.317-0.081-0.409z"></path>
</svg>
