<!-- Generated by IcoMoon.io -->
<svg version="1.1" xmlns="http://www.w3.org/2000/svg" width="32" height="32" viewBox="0 0 32 32">
<title>bacon</title>
<path d="M28.45 7.4c-0.050 0-0.050 0-0.1 0-0.65 0-1.15-0.15-1.65-0.3-0.75-0.25-1.6-0.45-3.050-0.25-1.45 0.25-2.15 0.7-2.8 1.2-0.65 0.45-1.25 0.85-2.6 1.1s-2.050 0-2.8-0.2c-0.75-0.25-1.6-0.45-3.050-0.25-1.45 0.25-2.15 0.7-2.8 1.2-0.65 0.45-1.25 0.85-2.6 1.1-1.35 0.2-2.050 0-2.8-0.2-0.6-0.2-1.25-0.35-2.25-0.3l-0.9 0.1c-0.3 0.050-0.55 0.35-0.5 0.65l2.1 13.1c0.050 0.3 0.35 0.5 0.65 0.45l0.85-0.15c0.85-0.050 1.45 0.1 2.050 0.3 0.75 0.25 1.6 0.45 3.050 0.25 1.45-0.25 2.15-0.7 2.8-1.2 0.65-0.45 1.25-0.85 2.6-1.1 1.35-0.2 2.050 0 2.8 0.2 0.75 0.25 1.6 0.45 3.050 0.25 1.45-0.25 2.15-0.7 2.8-1.2 0.65-0.45 1.25-0.85 2.6-1.1 1.35-0.2 2.050 0 2.8 0.2 0.5 0.15 1.050 0.3 1.8 0.35 0.050 0 0.050 0 0.1 0l0.9-0.1c0.3-0.050 0.55-0.35 0.5-0.65l-2.1-13.1c-0.050-0.3-0.35-0.5-0.65-0.45l-0.8 0.1zM22.25 16.85c-0.65 0.45-1.25 0.85-2.6 1.1-1.35 0.2-2.050 0-2.8-0.2-0.75-0.25-1.6-0.45-3.050-0.25-1.45 0.25-2.15 0.7-2.8 1.2-0.65 0.45-1.25 0.85-2.6 1.1-1.4 0.25-2.1 0.050-2.85-0.15-0.45-0.1-0.9-0.25-1.45-0.3-0.25 0-0.45-0.2-0.5-0.45l-0.1-0.5c-0.050-0.35 0.25-0.7 0.65-0.65 0.35 0.050 0.7 0.15 1.050 0.25 0.8 0.25 1.6 0.5 3 0.25 1.45-0.25 2.15-0.7 2.8-1.2 0.65-0.45 1.25-0.85 2.6-1.1 1.35-0.2 2.050 0 2.8 0.2 0.75 0.25 1.6 0.45 3.050 0.25 1.45-0.25 2.15-0.7 2.8-1.2 0.65-0.45 1.25-0.85 2.6-1.1 1.4-0.25 2.1-0.050 2.85 0.15 0.35 0.1 0.7 0.2 1.15 0.25 0.25 0.050 0.45 0.2 0.5 0.45l0.050 0.35c0.050 0.4-0.3 0.75-0.7 0.65-0.2-0.050-0.4-0.1-0.6-0.2-0.8-0.25-1.6-0.5-3-0.25-1.5 0.4-2.2 0.9-2.85 1.35zM21.35 11.35c-0.65 0.45-1.25 0.85-2.6 1.1-1.35 0.2-2.050 0-2.8-0.2-0.75-0.25-1.6-0.45-3.050-0.25-1.45 0.25-2.15 0.7-2.8 1.2-0.65 0.45-1.25 0.85-2.6 1.1-1.4 0.25-2.1 0.050-2.9-0.15-0.45-0.1-0.9-0.25-1.45-0.3-0.25 0-0.45-0.2-0.5-0.45l-0.1-0.6c-0.050-0.35 0.25-0.7 0.65-0.65 0.35 0.050 0.7 0.15 1.050 0.25 0.8 0.25 1.6 0.5 3 0.3 1.45-0.25 2.15-0.7 2.8-1.2 0.65-0.45 1.25-0.85 2.6-1.1 1.35-0.2 2.050 0 2.8 0.2 0.75 0.25 1.6 0.45 3.050 0.25 1.45-0.25 2.15-0.7 2.8-1.2 0.65-0.45 1.25-0.85 2.6-1.1 1.4-0.25 2.15-0.050 2.9 0.15 0.35 0.1 0.7 0.2 1.15 0.25 0.25 0.050 0.45 0.2 0.45 0.45l0.1 0.6c0.050 0.4-0.3 0.75-0.7 0.65-0.2-0.050-0.4-0.1-0.6-0.2-0.8-0.25-1.6-0.5-3-0.3-1.5 0.3-2.15 0.75-2.85 1.2zM4.15 22.45c-0.050-0.35 0.25-0.7 0.65-0.65 0.35 0.050 0.7 0.15 1 0.25 0.8 0.25 1.6 0.5 3 0.25 1.45-0.25 2.15-0.7 2.8-1.2 0.65-0.45 1.25-0.85 2.6-1.1 1.35-0.2 2.050 0 2.8 0.2 0.75 0.25 1.6 0.45 3.050 0.25 1.45-0.25 2.15-0.7 2.8-1.2 0.65-0.45 1.25-0.85 2.6-1.1 1.4-0.25 2.1-0.050 2.85 0.15 0.35 0.1 0.7 0.2 1.15 0.25 0.25 0.050 0.45 0.2 0.5 0.45v0c0.050 0.4-0.3 0.75-0.7 0.65-0.2-0.050-0.4-0.1-0.6-0.2-0.8-0.25-1.6-0.5-3-0.25-1.45 0.25-2.15 0.7-2.8 1.2-0.65 0.45-1.25 0.85-2.6 1.1-1.35 0.2-2.050 0-2.8-0.2-0.75-0.25-1.6-0.45-3.050-0.25-1.45 0.25-2.15 0.7-2.8 1.2-0.65 0.45-1.25 0.85-2.6 1.1-1.4 0.25-2.1 0.050-2.85-0.2-0.45-0.1-0.9-0.25-1.5-0.3-0.25 0.1-0.45-0.1-0.5-0.4v0z"></path>
</svg>
