<!-- Generated by IcoMoon.io -->
<svg version="1.1" xmlns="http://www.w3.org/2000/svg" width="32" height="32" viewBox="0 0 32 32">
<title>badminton-racket</title>
<path d="M6.329 7.87c0.816 0.609 2.151 0.838 2.151 0.838l2.552 1.216c0.002 0.039 0.011 0.076 0.034 0.101l0.661 0.675c0.405 0.414 1.063 0.414 1.469 0s0.405-1.086 0-1.499l-0.661-0.675c-0.024-0.025-0.060-0.034-0.1-0.036l-1.191-2.606c0 0-0.225-1.364-0.821-2.196l-0.512-0.053-0.239 0.451c-0.028-0.034-0.056-0.069-0.085-0.1l-0.514 0.006-0.188 0.473c-0.046-0.048-0.092-0.094-0.139-0.138l-0.511 0.058-0.145 0.505c0.004 0.006 0.008 0.012 0.011 0.019l-0.488 0.097-0.085 0.457-0.493 0.146-0.056 0.523c0.063 0.072 0.131 0.141 0.202 0.208-0.027-0.015-0.053-0.032-0.080-0.045l-0.479 0.196-0.006 0.526c0.032 0.030 0.066 0.059 0.099 0.089l-0.441 0.242 0.052 0.522zM12.756 9.313c0 0 0.118-0.066 0.183 0l0.059 0.059c0.324 0.332 0.361 0.831 0.036 1.162s-0.813 0.294-1.137-0.037l-0.059-0.060c-0.065-0.066 0-0.187 0-0.187s0.073-0.262 0.367-0.562c0.293-0.3 0.551-0.375 0.551-0.375zM10.992 6.021l1.166 2.553c-0.008 0.005-0.014 0.010-0.024 0.015l-1.495-2.512c0 0-0.095-0.341-0.278-0.777 0.329 0.428 0.63 0.721 0.63 0.721zM10.404 6.242l1.499 2.517c-0.005 0.003-0.008 0.007-0.012 0.010l-1.895-2.466c0 0-0.138-0.356-0.378-0.793 0.402 0.436 0.785 0.734 0.785 0.734zM9.778 6.489l1.896 2.47-2.149-2.194c0 0-0.184-0.382-0.487-0.827 0.398 0.337 0.739 0.551 0.739 0.551zM9.342 6.952l2.072 2.213-2.316-1.981c0 0-0.177-0.293-0.46-0.654 0.389 0.265 0.704 0.423 0.704 0.423zM8.913 7.407l2.373 1.983-2.462-1.536c0 0-0.351-0.472-0.846-0.927 0.497 0.303 0.935 0.479 0.935 0.479zM8.664 8.095l2.458 1.534c-0.002 0.004-0.005 0.009-0.008 0.012l-2.5-1.191c0 0-0.283-0.302-0.694-0.633 0.418 0.183 0.744 0.278 0.744 0.278zM30.396 2.009c-2.483-2.483-7.111-1.883-9.892 0.898-2.647 2.647-2.663 6.311-0.52 8.8-0.006 0.006-0.014 0.008-0.020 0.014l-10.432 10.432c-0.032 0.032-0.806 0.087-1.079 0.36l-6.835 6.835c-0.199-0.198-0.521-0.198-0.72 0l-0.36 0.36c-0.198 0.198-0.198 0.521 0 0.72l1.439 1.439c0.199 0.199 0.521 0.199 0.72 0l0.36-0.36c0.199-0.198 0.199-0.52 0-0.72l6.835-6.835c0.273-0.273 0.328-1.047 0.36-1.079l10.432-10.432c0.006-0.007 0.008-0.014 0.014-0.021 2.489 2.143 6.153 2.127 8.8-0.52 2.781-2.782 3.382-7.41 0.899-9.893zM28.918 11.221c-2.392 2.392-5.753 2.29-7.889 0.155s-2.238-5.497 0.155-7.888c2.392-2.392 6.372-2.909 8.508-0.773s1.617 6.115-0.774 8.508z"></path>
</svg>
