<!-- Generated by IcoMoon.io -->
<svg version="1.1" xmlns="http://www.w3.org/2000/svg" width="32" height="32" viewBox="0 0 32 32">
<title>Badminton</title>
<path d="M21.666 5.5c0 2.025-1.642 3.666-3.666 3.666s-3.666-1.642-3.666-3.667c0-2.025 1.642-3.667 3.666-3.667s3.666 1.642 3.666 3.667zM31.761 7.176c-0.359-0.897-1.378-1.335-2.274-0.976l-11.254 4.499c-1.756 0.591-3.254 0.582-4.451-0.025-1.877-0.953-2.588-3.122-2.607-3.184-0.262-0.864-1.133-1.369-2.002-1.201l-0.998-1.748c0.296-0.304 0.514-0.692 0.609-1.144 0.133-0.64 0.031-1.339-0.289-1.967-0.497-0.977-1.439-1.607-2.399-1.607-0.335 0-0.654 0.075-0.947 0.225-0.58 0.295-0.996 0.861-1.14 1.552-0.133 0.641-0.030 1.339 0.289 1.968 0.497 0.977 1.438 1.608 2.399 1.608 0.036 0 0.069-0.011 0.105-0.012l1.154 2.019c-0.207 0.391-0.268 0.86-0.132 1.318 0.044 0.146 1.108 3.61 4.331 5.272 1.124 0.579 2.348 0.87 3.663 0.87 0.477 0 0.97-0.047 1.471-0.123-0.202 2.93-1.646 8.784-9.517 12.391-0.879 0.402-1.264 1.442-0.862 2.32 0.295 0.642 0.928 1.021 1.592 1.021 0.244 0 0.492-0.052 0.728-0.16 5.572-2.553 8.48-6.16 9.989-9.463 0.695 0.482 1.909 1.517 2.26 3.055 0.361 1.585-0.265 3.434-1.861 5.495-0.409 0.528-0.482 1.242-0.188 1.842s0.904 0.979 1.571 0.979h3c0.966 0 1.75-0.784 1.75-1.75 0-0.919-0.709-1.674-1.611-1.744 0.907-1.931 1.159-3.806 0.75-5.6-0.809-3.551-3.971-5.381-4.526-5.678 0.352-1.559 0.433-2.892 0.43-3.783l9.992-3.995c0.898-0.358 1.334-1.377 0.976-2.274zM5.635 2.888c-0.162-0.32-0.22-0.678-0.157-0.981 0.030-0.143 0.114-0.401 0.351-0.521 0.080-0.041 0.17-0.062 0.266-0.062 0.329 0 0.784 0.244 1.061 0.788 0.163 0.32 0.22 0.677 0.157 0.98-0.030 0.143-0.114 0.401-0.351 0.521-0.080 0.041-0.17 0.062-0.266 0.062-0.329 0-0.785-0.244-1.062-0.788zM28.366 0.134l-1.732 1.732 2.366 0.634z"></path>
</svg>
