<!-- Generated by IcoMoon.io -->
<svg version="1.1" xmlns="http://www.w3.org/2000/svg" width="32" height="32" viewBox="0 0 32 32">
<title>bagpipes</title>
<path d="M29.386 16.36c0 0-0.877 0-2.292 0v-2.511c0.536-0.272 0.906-0.822 0.906-1.463s-0.369-1.191-0.906-1.464v-0.789c0.536-0.272 0.906-0.822 0.906-1.463s-0.369-1.191-0.906-1.464v-2.527h0.25c0.233 0 0.421-0.19 0.421-0.423l0.299-3.253c0-0.234-0.189-0.423-0.423-0.423h-2.578c-0.234 0-0.424 0.19-0.424 0.423l0.299 3.253c0 0.234 0.189 0.423 0.422 0.423h0.248v2.528c-0.535 0.272-0.905 0.822-0.905 1.464s0.369 1.191 0.905 1.463v0.789c-0.535 0.272-0.905 0.822-0.905 1.464s0.369 1.191 0.905 1.463v2.512c-1.255 0-2.74 0-4.327 0v-2.511c0.535-0.272 0.906-0.822 0.906-1.463s-0.371-1.191-0.906-1.464v-0.789c0.535-0.272 0.906-0.822 0.906-1.463s-0.371-1.191-0.906-1.464v-2.528h0.248c0.233 0 0.422-0.19 0.422-0.423l0.299-3.253c0-0.234-0.189-0.423-0.423-0.423h-2.579c-0.233 0-0.423 0.19-0.423 0.423l0.299 3.253c0 0.234 0.189 0.423 0.422 0.423h0.248v2.528c-0.535 0.272-0.906 0.822-0.906 1.464s0.371 1.191 0.906 1.463v0.789c-0.535 0.272-0.906 0.822-0.906 1.464s0.371 1.191 0.906 1.463v2.511c-1.425 0-2.896 0-4.327 0v-2.511c0.536-0.272 0.906-0.822 0.906-1.463s-0.369-1.191-0.905-1.464v-0.789c0.535-0.272 0.905-0.822 0.905-1.463s-0.369-1.191-0.905-1.464v-2.528h0.249c0.233 0 0.422-0.19 0.422-0.423l0.299-3.253c0-0.234-0.189-0.423-0.424-0.423h-2.578c-0.233 0-0.423 0.19-0.423 0.423l0.299 3.253c0 0.234 0.188 0.423 0.423 0.423h0.248v2.528c-0.536 0.272-0.905 0.822-0.905 1.464s0.369 1.191 0.905 1.463v0.789c-0.536 0.272-0.905 0.822-0.905 1.464s0.369 1.191 0.905 1.463v2.511c-4.103 0-7.592 0-8.259 0-1.78 0-1.59-1.876-1.59-1.876v-2.1h-1.168v-7.419h0.55c0.409 0 0.741-0.335 0.741-0.744s-0.333-0.742-0.742-0.742h-2.585c-0.407 0-0.742 0.333-0.742 0.742s0.335 0.744 0.742 0.744h0.55v7.419h-1.484c0 0 0 5.12 0 7.282 0 2.476 2.098 2.492 2.098 2.492s1.111 0 1.844 0c1.66 0 2.609 1.578 3.244 2.468s3.832 6.794 12.239 6.794c8.696 0 11.929-7.557 12.503-11.373 0.572-3.816-2.544-3.689-2.544-3.689z"></path>
</svg>
