<!-- Generated by IcoMoon.io -->
<svg version="1.1" xmlns="http://www.w3.org/2000/svg" width="32" height="32" viewBox="0 0 32 32">
<title>baguette</title>
<path d="M31.25 10.1c0 0 0 0 0 0-1.25-2.4-4.45-3.65-8.55-3.7 1.2 1.1 2.15 2.45 2.8 3.95 0.3 0.7-0.1 1.45-0.8 1.65-0.6 0.15-1.15-0.2-1.45-0.75-1-1.85-2.25-3.7-4.3-4.55-1.75 0.3-3.85 0.8-5.7 1.5 2.050 1.2 3.4 3.1 4 5.25 0.2 0.7-0.1 1.55-0.8 1.75-0.6 0.15-1.45-0.15-1.7-0.7-1.6-3.4-4.3-5.15-4.35-5.15-1.7 0.85-3.55 2.1-4.85 3.15 1.6 0.95 2.8 2.35 3.4 4.1 0.25 0.65-0.050 1.4-0.7 1.7-0.55 0.2-1.2 0-1.45-0.55-0.7-1.45-1.85-2.65-3.3-3.35-2.45 2.55-3.6 5.3-3 7.6 0 0 0 0 0 0 0.050 0.15 0.1 0.35 0.15 0.5v0c0 0 0 0 0 0 0.25 0.6 0.6 1.2 1.1 1.65h0.050c1.45 1.35 3.85 1.8 6.1 0.95l20.050-7.7c2.25-0.85 3.7-2.8 3.9-4.8h0.050c0.050-0.7-0.050-1.35-0.3-1.95-0.2-0.2-0.25-0.4-0.35-0.55z"></path>
</svg>
