<!-- Generated by IcoMoon.io -->
<svg version="1.1" xmlns="http://www.w3.org/2000/svg" width="32" height="32" viewBox="0 0 32 32">
<title>balalaika</title>
<path d="M31.844 3.224l-3.067-3.067c-0.209-0.209-0.549-0.209-0.76 0l-0.476 0.573-0.418-0.419c-0.203-0.203-0.532-0.203-0.736 0s-0.202 0.533 0 0.736l0.487 0.486-0.271 0.326-0.514-0.513c-0.203-0.203-0.532-0.203-0.736 0s-0.202 0.533-0.001 0.735l0.582 0.582-0.564 0.676c-0.205 0.204-0.206 0.531-0.012 0.74l-7.19 7.192-18.169 4.562 16.168 16.168 4.561-18.168 7.192-7.191c0.21 0.194 0.537 0.192 0.739-0.012l3.183-2.647c0.208-0.21 0.208-0.549 0-0.758zM12.882 22.739c-0.23 0.233-0.607 0.234-0.841 0.002l-2.781-2.782c-0.232-0.233-0.23-0.609 0.002-0.841 0.233-0.232 0.609-0.233 0.841-0l2.782 2.782c0.234 0.233 0.233 0.608-0.001 0.841zM15.933 19.233c-0.873 0.872-2.289 0.872-3.161-0-0.877-0.873-0.877-2.291-0.001-3.168 0.871-0.873 2.289-0.872 3.162 0.001 0.875 0.875 0.876 2.293 0 3.167z"></path>
</svg>
