<!-- Generated by IcoMoon.io -->
<svg version="1.1" xmlns="http://www.w3.org/2000/svg" width="32" height="32" viewBox="0 0 32 32">
<title>balance-scale</title>
<path d="M31.25 29.5h-14.25v-27h8.25c0.414 0 0.75-0.336 0.75-0.75s-0.336-0.75-0.75-0.75h-18.5c-0.414 0-0.75 0.336-0.75 0.75s0.336 0.75 0.75 0.75h8.25v27h-14.25c-0.414 0-0.75 0.335-0.75 0.75s0.336 0.75 0.75 0.75h30.5c0.414 0 0.75-0.335 0.75-0.75s-0.336-0.75-0.75-0.75zM6.75 23.726c5.75 0 6.654-3.567 6.654-5.226h-0.106l-6.354-14.698c-0.079-0.183-0.26-0.301-0.459-0.301-0.003 0-0.005 0-0.008 0-0.202 0.003-0.383 0.127-0.457 0.316l-5.819 14.684h-0.103c0 1.659 0.903 5.226 6.654 5.226zM6.504 5.306l5.704 13.194h-10.932l5.229-13.194zM24.984 3.5c-0.003 0-0.005 0-0.008 0-0.202 0.003-0.383 0.127-0.457 0.316l-5.82 14.684h-0.103c0 1.659 0.904 5.226 6.654 5.226s6.654-3.567 6.654-5.226h-0.106l-6.355-14.698c-0.079-0.183-0.26-0.301-0.459-0.301zM25.25 18.5h-5.474l5.229-13.194 5.704 13.194h-5.458z"></path>
</svg>
