<!-- Generated by IcoMoon.io -->
<svg version="1.1" xmlns="http://www.w3.org/2000/svg" width="32" height="32" viewBox="0 0 32 32">
<title>banana</title>
<path d="M8.050 20.35c5.6-0.15 12.7-0.6 16.8-9.85 0 0-8.35 7.7-22.8 1.9 0 0-0.25-0.1-0.35-0.15-0.75-0.15-1.55 0.35-1.65 1.1-0.2 1.5 3 6.4 8 7zM29.75 9.25v-6.15c0-0.45-0.4-0.85-0.85-0.85h-1.15c-0.45 0-0.85 0.4-0.85 0.85v7c-5.35 14.4-21.050 12.1-24.050 11.55-0.45-0.050-0.8-0.050-0.9-0.050-1 0.25-1.3 1-1.3 1.75s0.75 1.7 0.9 1.75c11.95 9.5 23.85 1.35 23.85 1.35 10.65-6.75 5.35-15.7 4.35-17.2zM24.55 24.3c-3.6 2.9-8.35 3.65-13.65 3-1.15-0.15-1.15-1.75 0.2-1.5 4.75 0.8 9.1-0.15 12.4-2.75 0.35-0.3 0.85-0.25 1.15 0.1 0.3 0.3 0.25 0.85-0.1 1.15zM27.050 22.5c-0.3 0.3-0.75 0.25-1.050-0.050l-0.1-0.1c-0.25-0.3-0.25-0.75 0.050-1 1.050-0.95 1.95-2.15 2.7-3.5 0.25-0.4 0.8-0.5 1.15-0.15 0.25 0.25 0.3 0.6 0.15 0.85-0.8 1.55-1.75 2.9-2.9 3.95z"></path>
</svg>
