<!-- Generated by IcoMoon.io -->
<svg version="1.1" xmlns="http://www.w3.org/2000/svg" width="32" height="32" viewBox="0 0 32 32">
<title>band-saw</title>
<path d="M28.352 3.651l1.567 1.181-0.175-2.107-2.725-2.725-18.535 18.535 7.034 7.034-0.247-2.971 1.567 1.18-0.256-3.066 1.568 1.18-0.256-3.067 1.567 1.181-0.255-3.067 1.567 1.18-0.261-3.129 1.532 1.153-0.255-3.066 1.567 1.181-0.255-3.066 1.567 1.181-0.255-3.066 1.567 1.181-0.256-3.066 1.567 1.181-0.255-3.066 1.567 1.181zM3.129 23.735c-0.993 0.991-0.993 2.607 0 3.599l3.615 3.616c0.992 0.992 2.607 0.992 3.599 0l3.991-3.991-7.214-7.215-3.991 3.991zM8.694 29.3c-0.083 0.083-0.218 0.083-0.3 0l-3.615-3.615c-0.083-0.083-0.083-0.218 0-0.301l1.415-1.415 3.917 3.916-1.415 1.414z"></path>
</svg>
