<!-- Generated by IcoMoon.io -->
<svg version="1.1" xmlns="http://www.w3.org/2000/svg" width="32" height="32" viewBox="0 0 32 32">
<title>Bandage-cross</title>
<path d="M31.515 7.378l-6.896-6.896c-0.642-0.642-1.683-0.642-2.325 0l-21.813 21.813c-0.642 0.642-0.642 1.683 0 2.324l6.896 6.896c0.643 0.642 1.683 0.642 2.325 0l21.813-21.813c0.642-0.642 0.642-1.683 0-2.324zM11.001 17.805c-0.368 0.368-0.966 0.368-1.334 0s-0.368-0.965 0-1.334 0.966-0.368 1.333 0c0.368 0.369 0.368 0.965 0.001 1.334zM13.263 20.067c-0.368 0.368-0.966 0.367-1.334 0-0.368-0.369-0.368-0.966 0-1.334s0.966-0.368 1.333 0 0.369 0.965 0.001 1.334zM13.269 15.537c-0.369 0.368-0.966 0.368-1.335 0s-0.367-0.965 0.001-1.334c0.368-0.367 0.965-0.368 1.334 0s0.367 0.966 0 1.334zM15.525 22.329c-0.368 0.368-0.966 0.368-1.334 0s-0.368-0.966 0-1.334 0.966-0.368 1.333 0c0.368 0.369 0.368 0.966 0.001 1.334zM15.531 17.799c-0.368 0.368-0.966 0.368-1.334 0s-0.368-0.965 0-1.334 0.966-0.369 1.334 0c0.368 0.367 0.368 0.965 0 1.334zM15.537 13.269c-0.368 0.368-0.966 0.368-1.335 0s-0.367-0.966 0.001-1.334 0.966-0.368 1.334 0c0.368 0.368 0.368 0.966 0 1.334zM17.793 20.061c-0.367 0.368-0.965 0.369-1.334 0-0.367-0.368-0.367-0.965 0-1.334s0.965-0.368 1.333 0c0.368 0.368 0.368 0.965 0 1.334zM17.799 15.531c-0.368 0.368-0.966 0.368-1.334 0s-0.367-0.966 0-1.333c0.369-0.368 0.966-0.368 1.334 0s0.368 0.965 0 1.334zM17.805 11.001c-0.368 0.368-0.965 0.368-1.334 0s-0.368-0.966 0-1.333 0.965-0.368 1.334 0 0.369 0.966 0 1.334zM20.061 17.793c-0.368 0.368-0.965 0.369-1.334 0-0.367-0.367-0.367-0.965 0-1.333s0.965-0.368 1.334 0 0.368 0.965 0 1.333zM20.067 13.263c-0.368 0.368-0.965 0.367-1.334-0.001s-0.368-0.966 0-1.334 0.965-0.368 1.334 0 0.368 0.966 0 1.334zM22.329 15.525c-0.368 0.368-0.965 0.368-1.334 0s-0.368-0.966 0-1.333c0.368-0.368 0.965-0.368 1.334-0.001s0.369 0.966 0 1.334zM31.518 22.298l-5.369-5.37-9.221 9.221 5.37 5.369c0.642 0.642 1.683 0.642 2.325 0l6.895-6.895c0.642-0.642 0.642-1.683 0-2.325zM5.847 15.069l9.221-9.221-5.362-5.362c-0.642-0.642-1.683-0.642-2.325 0l-6.896 6.896c-0.642 0.641-0.642 1.683 0 2.324l5.362 5.363z"></path>
</svg>
