<!-- Generated by IcoMoon.io -->
<svg version="1.1" xmlns="http://www.w3.org/2000/svg" width="32" height="32" viewBox="0 0 32 32">
<title>banjo</title>
<path d="M19.666 14.873l7.724-7.722 0.068 0.068c0.226 0.226 0.585 0.231 0.811 0.005l0.724-0.601 0.689 0.689c0.218 0.218 0.532 0.26 0.752 0.040 0.218-0.218 0.177-0.533-0.041-0.751l-0.616-0.617 0.759-0.662 0.568 0.568c0.219 0.219 0.533 0.26 0.752 0.041s0.178-0.533-0.040-0.752l-0.496-0.495 0.361-0.295c0.226-0.226 0.2-0.565-0.026-0.79l-3.2-3.2c-0.224-0.225-0.566-0.252-0.791-0.027l-0.297 0.362-0.494-0.495c-0.219-0.218-0.532-0.26-0.751-0.040-0.218 0.218-0.178 0.532 0.041 0.75l0.568 0.568-0.662 0.759-0.618-0.616c-0.218-0.218-0.534-0.259-0.75-0.041-0.22 0.22-0.179 0.533 0.039 0.752l0.689 0.69-0.601 0.724c-0.226 0.226-0.221 0.585 0.004 0.811l-0.108-0.109-7.749 7.749c-4.147-2.957-10.040-2.572-13.835 1.223-4.219 4.219-4.173 11.104 0.043 15.32 4.219 4.219 11.094 4.229 15.313 0.010 3.794-3.794 4.198-9.694 1.168-13.914zM11.444 23.89c0.274 0.274 0.238 0.755-0.037 1.028-0.275 0.274-0.755 0.312-1.028 0.038l-3.281-3.281c-0.274-0.274-0.237-0.755 0.038-1.029s0.753-0.311 1.027-0.037l3.281 3.282zM17.026 28.052l-1.152-1.152c-0.041-0.041-0.011-0.147-0.034-0.197-0.77 0.712-1.584 1.181-2.511 1.522 0.012 0.025 0.030 0.046 0.037 0.074l0.421 1.573c0.068 0.247-0.079 0.5-0.326 0.566s-0.502-0.080-0.566-0.326l-0.422-1.574c-0.005-0.017-0.001-0.034-0.003-0.051-1 0.238-2.034 0.274-3.038 0.092l-0.411 1.534c-0.066 0.247-0.318 0.395-0.563 0.328s-0.391-0.317-0.324-0.563l0.416-1.517c-0.955-0.303-1.888-0.84-2.639-1.509l-1.111 1.11c-0.181 0.18-0.502 0.151-0.681-0.029-0.18-0.181-0.209-0.502-0.029-0.682l1.112-1.113c-0.66-0.76-1.184-1.682-1.497-2.64l-1.525 0.427c-0.247 0.068-0.5-0.079-0.565-0.325-0.067-0.249 0.077-0.501 0.327-0.567l1.537-0.413c-0.2-1.005-0.195-2.041 0.011-3.044l-1.553-0.414c-0.248-0.065-0.396-0.315-0.33-0.561 0.066-0.249 0.31-0.388 0.558-0.322l1.54 0.431c0.32-0.948 0.802-1.811 1.511-2.587-0.003-0.002-0.063 0.056-0.065 0.055l-1.152-1.152c-0.18-0.181-0.152-0.5 0.028-0.68 0.181-0.182 0.501-0.212 0.684-0.030l1.151 1.152c0.004 0.004 0.036-0.021 0.040-0.017 0.795-0.678 1.735-1.186 2.686-1.479-0.012-0.027-0.031-0.050-0.039-0.079l-0.422-1.575c-0.068-0.245 0.079-0.498 0.325-0.564 0.248-0.068 0.501 0.077 0.568 0.326l0.422 1.573c0.009 0.036 0.005 0.069 0.007 0.104 1.010-0.189 2.041-0.18 3.017 0.019 0-0.040-0.004-0.081 0.008-0.123l0.422-1.574c0.065-0.247 0.319-0.392 0.563-0.326 0.249 0.066 0.396 0.318 0.329 0.566l-0.421 1.573c-0.011 0.041-0.034 0.076-0.056 0.111 0.46 0.152 0.902 0.344 1.313 0.583l-0.73 0.73c-0.921-0.5-1.94-0.721-3.082-0.721-1.745 0-3.263 0.802-4.496 2.035-2.547 2.547-2.582 6.657-0.035 9.203s6.621 2.477 9.169-0.070c2.114-2.115 2.517-5.281 0.929-7.957l0.733-0.733c0.357 0.564 0.631 1.155 0.829 1.759 0.058-0.065 0.13-0.12 0.221-0.145l1.573-0.422c0.247-0.066 0.5 0.081 0.566 0.326 0.066 0.247-0.079 0.502-0.326 0.567l-1.574 0.421c-0.090 0.024-0.177 0.012-0.261-0.015 0.224 1.015 0.238 2.049 0.041 3.046 0.072-0.015 0.145-0.020 0.22 0l1.573 0.422c0.247 0.066 0.391 0.321 0.326 0.567-0.067 0.247-0.323 0.396-0.569 0.329l-1.578-0.418c-0.073-0.019-0.14-0.050-0.193-0.098-0.299 0.948-0.806 1.859-1.491 2.648 0.052 0.023 0.073 0.084 0.116 0.128l1.151 1.151c0.18 0.181 0.151 0.502-0.029 0.681s-0.502 0.209-0.681 0.029z"></path>
</svg>
