<!-- Generated by IcoMoon.io -->
<svg version="1.1" xmlns="http://www.w3.org/2000/svg" width="32" height="32" viewBox="0 0 32 32">
<title>bank</title>
<path d="M31.218 25h-1.218v-0.861c0-0.383-0.169-0.639-0.553-0.639h-0.447v-9.5h-0.078c1.939 0 1.904-1.479 1.152-1.926 0 0-11.691-6.635-13.042-7.348-0.234-0.124-0.623-0.226-1.016-0.226-0.006 0-0.011 0-0.016 0s-0.011 0-0.016 0c-0.393 0-0.781 0.099-1.015 0.223-1.352 0.715-13.043 7.33-13.043 7.33-0.751 0.447-0.786 1.947 1.152 1.947h-0.079v9.5h-0.447c-0.384 0-0.553 0.256-0.553 0.639v0.861h-1.218c-0.431 0-0.781 0.192-0.781 0.623v1.377h32v-1.377c0-0.431-0.35-0.623-0.782-0.623zM7 23.5h-1.5v-9.5h1.5v9.5zM15 20.966c0 0.294-0.332 0.534-0.743 0.534h-3.014c-0.411 0-0.743-0.239-0.743-0.534v-4.931c0-0.295 0.332-0.534 0.743-0.534h3.014c0.411 0 0.743 0.239 0.743 0.534v4.932zM16.5 13.5h-1v-0.63c-1-0.116-1.316-0.537-1.522-1.267l1.186-0.219c0.102 0.344 0.35 0.515 0.774 0.515 0.328 0 0.486-0.088 0.486-0.262 0-0.092-0.042-0.163-0.117-0.214-0.077-0.052-0.215-0.096-0.411-0.136-0.748-0.143-1.229-0.331-1.443-0.562-0.212-0.232-0.319-0.504-0.319-0.817 0-0.402 0.212-0.737 0.517-1.004 0.204-0.178 0.349-0.294 0.849-0.354v-1.051h1v1.031c0.5 0.090 1.003 0.43 1.24 1.022l-1.139 0.328c-0.113-0.286-0.367-0.428-0.712-0.428-0.285 0-0.443 0.088-0.443 0.265 0 0.079 0.026 0.14 0.091 0.185 0.065 0.043 0.187 0.085 0.372 0.124 0.511 0.108 0.872 0.204 1.086 0.286 0.215 0.084 0.393 0.226 0.538 0.427 0.143 0.2 0.215 0.438 0.215 0.711 0 0.432-0.070 0.782-0.42 1.050-0.254 0.195-0.829 0.318-0.829 0.371v0.627zM21.5 20.966c0 0.294-0.332 0.534-0.742 0.534h-3.014c-0.41 0-0.743-0.239-0.743-0.534v-4.931c0-0.295 0.332-0.534 0.742-0.534h3.015c0.41 0 0.743 0.239 0.743 0.534v4.932zM26.5 23.5h-1.5v-9.5h1.5v9.5z"></path>
</svg>
