<!-- Generated by IcoMoon.io -->
<svg version="1.1" xmlns="http://www.w3.org/2000/svg" width="32" height="32" viewBox="0 0 32 32">
<title>bar-chart</title>
<path d="M5 20.5h-4c-0.552 0-1 0.448-1 1v9.5c0 0.552 0.448 1 1 1h4c0.552 0 1-0.448 1-1v-9.5c0-0.552-0.448-1-1-1zM13.5 10.5h-4c-0.552 0-1 0.448-1 1v19.5c0 0.552 0.448 1 1 1h4c0.552 0 1-0.448 1-1v-19.5c0-0.552-0.448-1-1-1zM22.5 15.5h-4c-0.552 0-1 0.448-1 1v14.5c0 0.552 0.448 1 1 1h4c0.552 0 1-0.448 1-1v-14.5c0-0.552-0.448-1-1-1zM31 0h-4c-0.552 0-1 0.448-1 1v30c0 0.552 0.448 1 1 1h4c0.552 0 1-0.448 1-1v-30c0-0.552-0.448-1-1-1z"></path>
</svg>
