<!-- Generated by IcoMoon.io -->
<svg version="1.1" xmlns="http://www.w3.org/2000/svg" width="32" height="32" viewBox="0 0 32 32">
<title>Barbell</title>
<path d="M30.75 0.25c-0.415 0-0.75 0.336-0.75 0.75v1h-2.611c-0.262-0.155-0.563-0.25-0.889-0.25s-0.627 0.095-0.889 0.25h-17.709c-0.288-0.175-0.63-0.268-0.99-0.248-0.293 0.015-0.562 0.108-0.798 0.248h-3.614v-1c0-0.414-0.336-0.75-0.75-0.75s-0.75 0.336-0.75 0.75v4c0 0.415 0.336 0.75 0.75 0.75s0.75-0.335 0.75-0.75v-1.5h2.756c0 0.030-0.006 0.058-0.005 0.087 0.184 3.683 2.466 10.358 9.581 11.493l-0.183 1.835c-0.047 0.107-0.085 0.22-0.11 0.338l-1.598 7.36-6.398 4.17c-0.649 0.423-0.942 1.221-0.722 1.965 0.221 0.742 0.903 1.251 1.678 1.251h3.5c0.966 0 1.75-0.783 1.75-1.75 0-0.41-0.142-0.788-0.378-1.087l3.084-2.011c0.386-0.251 0.657-0.645 0.755-1.095l1.113-5.125 4.614 2.158-1.63 6.214c-0.137 0.525-0.024 1.084 0.307 1.514 0.332 0.43 0.843 0.681 1.386 0.681h3c0.966 0 1.75-0.783 1.75-1.75s-0.784-1.75-1.75-1.75h-0.732l1.424-5.43c0.215-0.817-0.186-1.672-0.951-2.029l-6.627-3.099 0.226-2.256c7.793-0.733 9.909-7.833 9.909-11.684h1.75v1.5c0 0.415 0.335 0.75 0.75 0.75s0.75-0.335 0.75-0.75v-4c0-0.414-0.335-0.75-0.75-0.75zM17 11.75c-7.337 0-8.16-7.053-8.246-8.25h7.152c-1.49 0.466-2.572 1.856-2.572 3.5 0 2.026 1.641 3.666 3.666 3.666s3.666-1.641 3.666-3.667c0-1.644-1.081-3.034-2.572-3.5h6.655c0 0.337-0.088 8.25-7.75 8.25z"></path>
</svg>
