<!-- Generated by IcoMoon.io -->
<svg version="1.1" xmlns="http://www.w3.org/2000/svg" width="32" height="32" viewBox="0 0 32 32">
<title>barrier</title>
<path d="M29.568 10h-2.155l-0.531-2.772c0.939-0.433 1.592-1.387 1.592-2.49 0-1.511-1.225-2.739-2.735-2.739-1.512 0-2.736 1.223-2.736 2.734 0 1.047 0.589 1.967 1.452 2.426l-0.434 2.84h-15.95l-0.532-2.772c0.939-0.433 1.593-1.387 1.593-2.49 0-1.51-1.224-2.738-2.736-2.738-1.511 0-2.736 1.223-2.736 2.734 0 1.047 0.589 1.967 1.453 2.427l-0.434 2.839h-2.111c-1.415 0-2.566 1.095-2.566 2.472v4.356c0 1.377 1.151 2.672 2.566 2.672h0.934v10.072c0 0.185 0.059 0.427 0.284 0.427h2.979c0.225 0 0.237-0.242 0.237-0.427v-4.572h18v4.572c0 0.185 0.145 0.427 0.369 0.427h2.98c0.224 0 0.651-0.242 0.651-0.427v-10.072h0.568c1.415 0 2.432-1.296 2.432-2.672v-4.355c0-1.377-1.017-2.472-2.432-2.472zM2.463 11.909c0.034-0.004 0.068-0.409 0.103-0.409h6.608l5.699 6.5h-6.719l-5.691-6.090zM25 23h-18v-3.5h18v3.5zM22.288 18l-5.699-6.5h6.719l5.699 6.5h-6.719z"></path>
</svg>
