<!-- Generated by IcoMoon.io -->
<svg version="1.1" xmlns="http://www.w3.org/2000/svg" width="32" height="32" viewBox="0 0 32 32">
<title>bars</title>
<path d="M29.5 2c0-0.552-0.448-1-1-1h-25.5c-0.552 0-1 0.448-1 1v2.5c0 0.552 0.448 1 1 1h25.5c0.552 0 1-0.448 1-1v-2.5zM29.5 11c0-0.552-0.448-1-1-1h-25.5c-0.552 0-1 0.448-1 1v2.5c0 0.552 0.448 1 1 1h25.5c0.552 0 1-0.448 1-1v-2.5zM29.5 19.5c0-0.552-0.448-1-1-1h-25.5c-0.552 0-1 0.448-1 1v2.5c0 0.552 0.448 1 1 1h25.5c0.552 0 1-0.448 1-1v-2.5zM29.5 28c0-0.552-0.448-1-1-1h-25.5c-0.552 0-1 0.448-1 1v2.5c0 0.552 0.448 1 1 1h25.5c0.552 0 1-0.448 1-1v-2.5z"></path>
</svg>
