<!-- Generated by IcoMoon.io -->
<svg version="1.1" xmlns="http://www.w3.org/2000/svg" width="32" height="32" viewBox="0 0 32 32">
<title>baseball-ball</title>
<path d="M28.559 7.349c-0.276 0.005-0.479-0.215-0.484-0.491l-0.011-1.321c-0.423 0.461-0.809 0.95-1.174 1.459l0.395 2.018c0.053 0.271-0.122 0.534-0.393 0.587s-0.533-0.124-0.585-0.396l-0.195-1.001c-0.364 0.624-0.688 1.276-0.964 1.951l0.77 2.004c0.1 0.258-0.029 0.547-0.287 0.646-0.259 0.1-0.548-0.030-0.646-0.287l-0.349-0.909c-0.195 0.657-0.345 1.333-0.451 2.024 0.003 0.005 0.009 0.008 0.012 0.013l1.288 2.143c0.142 0.237 0.066 0.544-0.171 0.686s-0.544 0.066-0.686-0.171l-0.61-1.014c-0.010 0.235-0.017 0.472-0.017 0.71 0 0.321 0.013 0.638 0.032 0.954 0.001 0.001 0.003 0.001 0.004 0.002l1.977 1.529c0.218 0.169 0.259 0.483 0.090 0.702-0.169 0.218-0.483 0.258-0.701 0.090l-1.226-0.948c0.119 0.787 0.3 1.553 0.532 2.297l2.186 0.588c0.267 0.072 0.425 0.346 0.352 0.614-0.073 0.266-0.346 0.424-0.612 0.352l-1.52-0.409c0.34 0.843 0.752 1.648 1.227 2.41l2.103 0.332c0.273 0.043 0.459 0.299 0.416 0.573-0.044 0.273-0.3 0.459-0.572 0.415l-1.166-0.184c0.303 0.401 0.623 0.788 0.963 1.158 2.436-2.808 3.863-6.468 3.863-10.477 0-3.416-0.95-6.577-2.95-9.175v0.015c0 0.277-0.164 0.505-0.441 0.51zM5.37 25.317l-1.168 0.184c-0.272 0.044-0.528-0.142-0.572-0.415-0.043-0.274 0.143-0.53 0.416-0.573l2.106-0.332c0.476-0.762 0.89-1.569 1.231-2.412l-1.526 0.41c-0.265 0.073-0.54-0.085-0.612-0.352-0.073-0.268 0.086-0.542 0.353-0.614l2.195-0.591c0.234-0.745 0.415-1.514 0.534-2.302l-1.236 0.956c-0.218 0.169-0.532 0.128-0.701-0.090-0.17-0.219-0.129-0.533 0.090-0.702l1.978-1.529c0.004-0.003 0.008-0.003 0.012-0.006 0.020-0.314 0.033-0.63 0.033-0.949 0-0.242-0.007-0.482-0.018-0.722l-0.616 1.025c-0.142 0.236-0.449 0.313-0.686 0.171s-0.314-0.45-0.171-0.687l1.288-2.143c0.005-0.008 0.014-0.013 0.020-0.021-0.107-0.691-0.261-1.367-0.455-2.024l-0.353 0.918c-0.098 0.258-0.388 0.386-0.646 0.287s-0.386-0.387-0.287-0.646l0.774-2.015c-0.277-0.675-0.601-1.326-0.966-1.95l-0.197 1.011c-0.052 0.271-0.314 0.448-0.586 0.396s-0.448-0.315-0.394-0.586l0.394-2.026c-0.364-0.508-0.76-0.99-1.183-1.45l-0.024 1.32c-0.005 0.276-0.232 0.496-0.509 0.491s-0.496-0.232-0.49-0.509l0.012-0.701c-2.131 2.718-3.404 6.141-3.404 9.862 0 4.11 1.551 7.857 4.098 10.69l0.127-0.020c0.407-0.428 0.788-0.881 1.146-1.352zM26.223 25.773l-0.221 1.392c-0.044 0.273-0.299 0.459-0.573 0.416-0.273-0.044-0.459-0.299-0.416-0.572l0.389-2.456c-0.363-0.596-0.691-1.215-0.978-1.858l-0.241 0.896c-0.073 0.267-0.346 0.424-0.613 0.353-0.267-0.073-0.425-0.346-0.353-0.613l0.598-2.22c-0.245-0.748-0.437-1.52-0.573-2.311l-0.646 0.835c-0.17 0.218-0.483 0.259-0.701 0.090s-0.259-0.483-0.090-0.701l1.258-1.625c-0.039-0.462-0.063-0.927-0.063-1.398 0-0.362 0.016-0.72 0.039-1.076l-1.157 0.696c-0.238 0.142-0.544 0.066-0.686-0.171-0.142-0.238-0.066-0.544 0.171-0.687l1.798-1.081c0.14-0.986 0.369-1.944 0.676-2.867l-1.439 0.553c-0.259 0.099-0.547-0.030-0.646-0.287s0.030-0.547 0.288-0.646l2.273-0.873c0.331-0.776 0.718-1.521 1.159-2.232l-1.512 0.294c-0.271 0.053-0.533-0.124-0.586-0.395s0.124-0.534 0.395-0.587l2.454-0.478c0.015-0.003 0.029 0.002 0.044 0 0.334-0.449 0.69-0.881 1.067-1.293l-1.27 0.022c-0.276 0.005-0.504-0.215-0.509-0.491s0.215-0.504 0.491-0.509l0.395-0.007c-2.803-2.418-6.451-3.886-10.444-3.886-3.989 0-7.63 1.464-10.432 3.878l0.877 0.015c0.277 0.005 0.496 0.233 0.491 0.509s-0.232 0.495-0.509 0.491l-1.267-0.022c0.378 0.413 0.737 0.844 1.072 1.293 0.012 0.002 0.024-0.003 0.036 0l2.454 0.478c0.271 0.053 0.448 0.316 0.395 0.587s-0.315 0.448-0.586 0.395l-1.506-0.293c0.442 0.711 0.832 1.458 1.163 2.234l2.263 0.87c0.258 0.099 0.386 0.388 0.288 0.646s-0.387 0.386-0.646 0.287l-1.432-0.55c0.307 0.923 0.536 1.881 0.675 2.868l1.791 1.076c0.237 0.143 0.313 0.449 0.171 0.687-0.143 0.236-0.449 0.313-0.687 0.171l-1.149-0.691c0.024 0.354 0.039 0.711 0.039 1.072 0 0.474-0.024 0.942-0.064 1.407l1.251 1.617c0.169 0.218 0.129 0.532-0.090 0.701s-0.531 0.128-0.701-0.090l-0.64-0.828c-0.136 0.793-0.329 1.566-0.575 2.316l0.595 2.209c0.072 0.267-0.086 0.541-0.353 0.613s-0.54-0.087-0.613-0.353l-0.239-0.888c-0.287 0.642-0.614 1.264-0.978 1.861l0.387 2.446c0.043 0.273-0.144 0.529-0.416 0.572-0.274 0.043-0.529-0.143-0.572-0.416l-0.219-1.381c-0.362 0.488-0.75 0.954-1.162 1.399l0.098 0.619c2.847 2.603 6.632 4.197 10.793 4.197 4.449 0 8.472-1.819 11.371-4.75l0.011-0.069c-0.413-0.447-0.797-0.919-1.16-1.409z"></path>
</svg>
