<!-- Generated by IcoMoon.io -->
<svg version="1.1" xmlns="http://www.w3.org/2000/svg" width="32" height="32" viewBox="0 0 32 32">
<title>baseball-bat</title>
<path d="M13.336 6.891c-0.034-0.032 0.030-0.022 0.062-0.056l0.188-0.129c-0.106 0.005-0.195 0.032-0.3 0.050l-0.187 0.296c-0.025 0.039-0.074 0.053-0.114 0.027s-0.047-0.077-0.021-0.115l0.098-0.143c-0.118 0.032-0.236 0.071-0.349 0.119l-0.148 0.333c-0.018 0.043-0.069 0.063-0.111 0.043s-0.062-0.069-0.043-0.112l-0.024-0.151c-0.101 0.056 0.114 0.119-0.386 0.189 0 0.001 0 0.002 0 0.003l-0.012 0.411c-0.011 0.045-0.012 0.073-0.057 0.061s-0.051-0.057-0.039-0.103l0.059-0.194c-0.030 0.027 0.004-0.006-0.024 0.022-0.039 0.038-0.050 0.057-0.048 0.057 0 0 0.001 0 0.001 0l-0.004 0.481c0.006 0.046-0.056 0.12-0.102 0.126s-0.103-0.011-0.109-0.058l-0.041-0.253c-0.079 0.109-0.153 0.226-0.215 0.343l0.19 0.334c0.024 0.040 0.008 0.094-0.032 0.117s-0.092 0.010-0.116-0.031l-0.133-0.23c-0.060 0.142-0.108 0.288-0.142 0.436l0.212 0.291c0.027 0.037 0.020 0.091-0.018 0.118s-0.091 0.019-0.118-0.019l-0.117-0.162c-0.011 0.085-0.020 0.169-0.024 0.254 0.629-0.044 1.116-0.434 1.595-0.915 0.409-0.409 0.666-0.91 0.624-1.575l-0.002 0.002c-0.034 0.034 0.041 0.163 0.008 0.13zM7.564 5.426l-0.162-0.118c-0.037-0.027-0.046-0.080-0.019-0.118s0.080-0.046 0.118-0.019l0.292 0.212c0.148-0.034 0.294-0.081 0.436-0.141l-0.231-0.133c-0.041-0.023-0.054-0.075-0.032-0.115s0.075-0.054 0.115-0.032l0.334 0.192c0.117-0.061 0.231-0.131 0.34-0.212l-0.262-0.034c-0.046-0.006-0.079-0.048-0.073-0.095s0.049-0.080 0.095-0.074l0.42 0.053c0.001 0 0.002 0 0.002 0 0.040-0.035 0.080-0.072 0.118-0.11 0.029-0.029 0.056-0.059 0.084-0.088l-0.197 0.049c-0.046 0.011-0.092-0.016-0.102-0.062-0.011-0.045 0.016-0.030 0.062-0.042l0.412-0.040c0.002 0 0.003 0 0.005 0 0.070 0 0.133-0.256 0.188-0.358l-0.152 0.037c-0.042 0.019-0.093-0.016-0.111-0.059s0-0.101 0.043-0.12l0.334-0.152c0.048-0.114 0.087-0.232 0.118-0.352l-0.146 0.096c-0.038 0.026-0.091 0.015-0.117-0.023s-0.015-0.092 0.024-0.118l0.289-0.196c0.018-0.104 0.028-0.209 0.032-0.316l-0.161 0.155c-0.034 0.033-0.088 0.031-0.12-0.002s-0.031-0.087 0.002-0.12l0.085-0.083c-0.581 0.071-1.143 0.328-1.589 0.773-0.492 0.492-0.755 1.127-0.79 1.771l0.018 0.013c0.1-0.003 0.2-0.011 0.3-0.024zM10.493 8.886l-0.228 0.165c-0.045 0.033-0.107 0.023-0.139-0.021s-0.023-0.107 0.022-0.14l0.402-0.292c0.033-0.136 0.074-0.27 0.124-0.401l-0.161 0.092c-0.048 0.027-0.109 0.011-0.136-0.037s-0.011-0.109 0.037-0.136l0.399-0.229c0.072-0.141 0.153-0.277 0.245-0.408l-0.21 0.027c-0.055 0.007-0.104-0.032-0.111-0.087s0.031-0.105 0.086-0.112l0.408-0.052c0.059-0.071 0.122-0.139 0.188-0.207 0.052-0.051 0.104-0.099 0.158-0.146l-0.262-0.066c-0.053-0.013-0.086-0.067-0.073-0.121s0.068-0.087 0.121-0.073l0.406 0.101c0.159-0.12 0.327-0.223 0.501-0.31l-0.281-0.125c-0.051-0.023-0.073-0.082-0.051-0.133s0.082-0.073 0.132-0.051l0.445 0.198c0.156-0.063 0.316-0.114 0.479-0.152l-0.256-0.172c-0.046-0.031-0.057-0.093-0.027-0.138s0.105-0.069 0.15-0.038l0.427 0.268c0.002 0.002 0.004 0.004 0.007 0.006 0.047 0.048 0.21-0.016 0.322-0.021l-0.188-0.17c-0.040-0.038-0.044-0.098-0.005-0.138s0.1-0.040 0.139-0.001l0.056 0.056c-0.053-0.739-0.363-1.462-0.927-2.026s-1.287-0.872-2.024-0.927l0.122 0.127c0.038 0.039 0.037 0.103-0.003 0.142s-0.102 0.037-0.141-0.003l-0.165-0.194c-0.005 0.112-0.067 0.276-0.020 0.322 0.002 0.002 0.004 0.003 0.005 0.005l0.268 0.426c0.031 0.046 0.013 0.114-0.033 0.145s-0.111 0.022-0.142-0.024l-0.173-0.252c-0.039 0.163-0.089 0.324-0.152 0.481l0.197 0.443c0.023 0.051 0 0.11-0.051 0.133s-0.11 0-0.132-0.051l-0.125-0.28c-0.088 0.174-0.191 0.342-0.31 0.501l0.101 0.405c0.013 0.053-0.020 0.108-0.073 0.122s-0.107-0.019-0.121-0.073l-0.065-0.261c-0.047 0.053-0.095 0.106-0.146 0.157-0.066 0.067-0.136 0.13-0.208 0.189l-0.052 0.405c-0.007 0.054-0.056 0.093-0.111 0.087s-0.094-0.058-0.087-0.112l0.027-0.207c-0.132 0.093-0.268 0.175-0.409 0.246l-0.227 0.396c-0.027 0.048-0.089 0.064-0.136 0.037s-0.064-0.088-0.037-0.136l0.092-0.159c-0.132 0.050-0.266 0.091-0.402 0.125l-0.292 0.401c-0.032 0.045-0.095 0.054-0.139 0.022s-0.053-0.095-0.021-0.139l0.164-0.226c-0.12 0.018-0.241 0.029-0.362 0.034l-0.073 0.101c0.034 0.771 0.344 1.531 0.932 2.12 0.629 0.629 1.455 0.941 2.28 0.937l0.011-0.008c0.004-0.121 0.017-0.242 0.034-0.363zM3.761 30.861c-0.070-0.163-0.072-0.358-0.023-0.579-0.433-0.089-0.891-0.336-1.288-0.733s-0.643-0.855-0.732-1.288c-0.22 0.049-0.416 0.046-0.579-0.023 0 0-0.626-0.123-0.936 0.187-0.272 0.271-0.305 0.688-0.104 0.996-0.051 0.396 0.273 1.046 0.854 1.627s1.23 0.905 1.626 0.854c0.308 0.201 0.725 0.167 0.995-0.104 0.311-0.311 0.188-0.937 0.188-0.937zM17.956 17.332c0 0 13.434-13.434 13.488-13.486 0.413-0.414 0.035-1.462-0.895-2.393s-1.98-1.309-2.393-0.895c-0.053 0.053-13.486 13.486-13.486 13.486-0.078 0.078-0.348 0.261-0.396 0.354-1.24 1.73-8.524 11.859-11.937 13.642 0.035 0.319 0.213 0.709 0.57 1.066s0.749 0.537 1.068 0.572c1.782-3.412 11.899-10.708 13.63-11.948 0.092-0.048 0.275-0.32 0.352-0.397z"></path>
</svg>
