<!-- Generated by IcoMoon.io -->
<svg version="1.1" xmlns="http://www.w3.org/2000/svg" width="32" height="32" viewBox="0 0 32 32">
<title>baseball-glove</title>
<path d="M9.5 9.75c0 0.414-0.336 0.75-0.75 0.75s-0.75-0.336-0.75-0.75c0-0.414 0.336-0.75 0.75-0.75s0.75 0.336 0.75 0.75zM9.5 13.25c0 0.414-0.336 0.75-0.75 0.75s-0.75-0.336-0.75-0.75c0-0.414 0.336-0.75 0.75-0.75s0.75 0.336 0.75 0.75zM9.5 16.75c0 0.414-0.336 0.75-0.75 0.75s-0.75-0.336-0.75-0.75c0-0.414 0.336-0.75 0.75-0.75s0.75 0.336 0.75 0.75zM6.5 11.25c0 0.414-0.336 0.75-0.75 0.75s-0.75-0.336-0.75-0.75c0-0.414 0.336-0.75 0.75-0.75s0.75 0.336 0.75 0.75zM28.731 3.664c-1.739-0.167-2.066 2.151-2.571 4.306 0.311-2.958 0.414-6.645-2.316-7.063-2.131-0.326-2.615 1.673-3.006 3.706 0.139-4.917-2.59-4.5-2.59-4.5-3.367 0.417-2.853 4.407-2.52 6.546-0.818-3.322-2.142-5.878-4.62-4.793-1.684 0.738-1.687 2.113-1.377 3.558-3.732 1.573-5.231 2.573-7.058 6.107-0.041 0.024-0.088 0.035-0.126 0.063-5.162 3.819-1.196 11.627 2.62 16.174 2.769 3.299 5.216 4.229 5.216 4.229h11.549c7.050-1.5 9.096-15.003 9.096-15.003 2.923-13.28-2.297-13.333-2.297-13.333zM7.75 28.5c-0.414 0-0.75-0.336-0.75-0.75s0.336-0.75 0.75-0.75 0.75 0.336 0.75 0.75-0.336 0.75-0.75 0.75zM10.75 27.5c-0.414 0-0.75-0.336-0.75-0.75s0.336-0.75 0.75-0.75 0.75 0.336 0.75 0.75-0.336 0.75-0.75 0.75zM7.866 18.531c-0.541-0.305-1.229-1.605-1.716-3.149 0.21-0.133 0.35-0.366 0.35-0.632 0-0.402-0.317-0.726-0.713-0.746-0.031-0.148-0.059-0.295-0.085-0.443-0.191-1.095-0.854-1.782-1.569-2.069 0.803-1.709 2.474-3.807 5.929-4.769 0.102 0.373 0.207 0.752 0.293 1.134 0.136 0.595 0.427 1.762 0.694 3.129-0.031 0.082-0.050 0.17-0.050 0.264 0 0.191 0.073 0.364 0.191 0.496 0.133 0.747 0.249 1.528 0.326 2.295-0.3 0.098-0.518 0.377-0.518 0.71 0 0.366 0.262 0.669 0.608 0.736 0.052 2.746-0.725 4.745-3.742 3.045zM14.25 27c-0.414 0-0.75-0.336-0.75-0.75s0.336-0.75 0.75-0.75 0.75 0.336 0.75 0.75-0.336 0.75-0.75 0.75zM16.767 10.060c0.196 0.196 0.195 0.511 0 0.707s-0.512 0.196-0.707 0l-1.060-1.060-1.060 1.060c-0.195 0.196-0.512 0.196-0.707 0s-0.196-0.511 0-0.707l1.060-1.060-1.060-1.061c-0.196-0.196-0.195-0.511 0-0.707s0.511-0.196 0.707 0l1.060 1.060 1.060-1.061c0.195-0.196 0.512-0.196 0.707 0s0.196 0.511 0 0.707l-1.060 1.060 1.060 1.060zM17.75 27c-0.414 0-0.75-0.336-0.75-0.75s0.336-0.75 0.75-0.75 0.75 0.336 0.75 0.75-0.336 0.75-0.75 0.75zM21.25 27.5c-0.414 0-0.75-0.336-0.75-0.75s0.336-0.75 0.75-0.75 0.75 0.336 0.75 0.75-0.336 0.75-0.75 0.75zM22.267 9.060c0.196 0.196 0.195 0.511 0 0.707s-0.512 0.196-0.707 0l-1.061-1.060-1.061 1.060c-0.195 0.196-0.512 0.196-0.707 0s-0.196-0.511 0-0.707l1.061-1.061-1.061-1.061c-0.196-0.196-0.195-0.511 0-0.707s0.512-0.196 0.707 0l1.061 1.061 1.061-1.061c0.195-0.196 0.512-0.196 0.707 0s0.196 0.511 0 0.707l-1.061 1.061 1.061 1.061zM24.25 28.5c-0.414 0-0.75-0.336-0.75-0.75s0.336-0.75 0.75-0.75 0.75 0.336 0.75 0.75-0.336 0.75-0.75 0.75zM27.267 12.56c0.196 0.196 0.195 0.511 0 0.707s-0.512 0.196-0.707 0l-1.061-1.060-1.061 1.060c-0.195 0.196-0.512 0.196-0.707 0s-0.196-0.511 0-0.707l1.061-1.060-1.061-1.060c-0.196-0.196-0.195-0.511 0-0.707s0.512-0.196 0.707 0l1.061 1.060 1.061-1.060c0.195-0.196 0.512-0.196 0.707 0s0.196 0.511 0 0.707l-1.061 1.060 1.061 1.060z"></path>
</svg>
