<!-- Generated by IcoMoon.io -->
<svg version="1.1" xmlns="http://www.w3.org/2000/svg" width="32" height="32" viewBox="0 0 32 32">
<title>basketball-ring</title>
<path d="M8.912 25.117c-0.017-0.123-0.034-0.242-0.052-0.363l-0.155 0.155 0.207 0.207zM25.618 17.087l-0.053-0.053c-0.023 0.058-0.047 0.119-0.073 0.178l0.125-0.125zM7.846 24.428c-0.024-0.154-0.051-0.303-0.076-0.454zM23.588 24.333l0.093-0.093-0.067-0.067c-0.009 0.054-0.018 0.105-0.026 0.16zM26.312 17.78c0.011-0.026 0.020-0.050 0.029-0.075l-0.052 0.052 0.023 0.023zM8.361 30.47c-0.009-0.442-0.022-0.877-0.041-1.3zM8.014 25.602c-0.003-0.017-0.005-0.032-0.007-0.049zM8.008 25.553c0.002 0.016 0.004 0.032 0.007 0.049l0.021-0.021-0.027-0.027zM8.008 25.553c-0.050-0.386-0.103-0.761-0.161-1.125zM7.185 21.215c-0.094-0.365-0.189-0.718-0.288-1.053zM7.926 20.256c0.016 0.057 0.033 0.112 0.049 0.171l0.060-0.061-0.109-0.11zM5.47 16.374l-0.043 0.043 0.122 0.122c-0.027-0.058-0.052-0.11-0.079-0.165zM29.389 12h-26.811c-0.466 0-1.077 0.378-1.077 0.845v0.31c0 0.467 0.611 0.845 1.077 0.845h1.545c0.016 0.066 0.045 0.13 0.090 0.187 0.015 0.020 0.565 0.73 1.26 2.187 0.027 0.055 0.052 0.108 0.079 0.165 0.109 0.235 0.222 0.489 0.337 0.761 0.189 0.445 0.38 0.941 0.57 1.486 0.149 0.428 0.298 0.887 0.441 1.377 0.099 0.335 0.195 0.688 0.288 1.053 0.215 0.84 0.413 1.759 0.585 2.759 0.026 0.151 0.052 0.3 0.076 0.454 0.058 0.364 0.112 0.739 0.161 1.125l0.027 0.027-0.021 0.021c0.142 1.104 0.248 2.291 0.306 3.567 0.019 0.424 0.032 0.858 0.041 1.3 0.005 0.305 0.010 0.613 0.010 0.927 0 0.268 0.213 0.486 0.474 0.486s0.475-0.218 0.475-0.486c0-0.637-0.014-1.25-0.037-1.85l1.361-1.359 1.937 1.937-0.598 0.598c-0.23 0.23-0.267 0.567-0.082 0.752 0.185 0.186 0.522 0.149 0.752-0.082l0.598-0.598 0.598 0.598c0.23 0.23 0.567 0.267 0.752 0.082s0.149-0.521-0.082-0.752l-0.598-0.598 1.937-1.937 1.938 1.937-0.598 0.598c-0.232 0.23-0.267 0.567-0.082 0.752 0.184 0.186 0.521 0.149 0.752-0.082l0.598-0.598 0.599 0.598c0.231 0.23 0.567 0.267 0.753 0.082s0.148-0.521-0.082-0.752l-0.598-0.598 1.938-1.937 2.009 2.009c-0.009 0.393-0.014 0.791-0.014 1.2 0 0.268 0.212 0.486 0.474 0.486s0.474-0.218 0.474-0.486c0-0.090 0.003-0.174 0.003-0.263 0.002-0.448 0.011-0.886 0.024-1.316 0.042-1.289 0.131-2.495 0.258-3.616 0.047-0.407 0.099-0.802 0.154-1.188 0.011-0.081 0.023-0.164 0.035-0.245 0.084-0.564 0.178-1.104 0.279-1.62 0.096-0.485 0.196-0.948 0.302-1.392 0.087-0.369 0.178-0.727 0.272-1.069 0.308-1.119 0.639-2.086 0.966-2.909l-0.023-0.023 0.052-0.052c0.124-0.311 0.247-0.601 0.367-0.869 0.318-0.712 0.614-1.274 0.857-1.697 0.36-0.626 0.602-0.941 0.613-0.954 0.043-0.056 0.071-0.12 0.087-0.186h1.122c0.466 0 0.611-0.378 0.611-0.845v-0.31c0-0.467-0.145-0.845-0.611-0.845zM23.011 14.479l-1.936 1.938-1.938-1.938 0.48-0.479h2.916l0.48 0.479zM9.185 14h2.915l0.48 0.479-1.937 1.938-1.938-1.938 0.479-0.479zM17.317 14l0.48 0.479-1.938 1.938-1.937-1.938 0.479-0.479h2.916zM18.465 15.15l1.938 1.937-1.938 1.938-1.936-1.938 1.936-1.937zM15.188 17.087l-1.937 1.938-1.938-1.938 1.938-1.937 1.937 1.937zM12.58 19.695l-1.937 1.938-1.938-1.938 1.938-1.938 1.937 1.938zM13.251 20.365l1.937 1.937-1.937 1.938-1.938-1.938 1.938-1.937zM13.921 19.695l1.937-1.938 1.938 1.938-1.938 1.938-1.937-1.938zM18.465 20.365l1.938 1.937-1.938 1.938-1.936-1.938 1.936-1.937zM19.136 19.695l1.938-1.938 1.936 1.938-1.936 1.938-1.938-1.938zM6.193 15.652c-0.383-0.768-0.716-1.31-0.944-1.652h1.636l0.48 0.479-1.172 1.172zM7.307 18.296c-0.231-0.645-0.462-1.224-0.686-1.733l1.414-1.413 1.938 1.937-1.938 1.938-0.728-0.729zM7.974 20.427c-0.016-0.058-0.032-0.113-0.049-0.171l2.048 2.047-1.296 1.296c-0.204-1.164-0.444-2.221-0.703-3.171zM9.222 28.268c-0.036-0.563-0.080-1.105-0.133-1.634l0.884 0.884-0.751 0.75zM8.912 25.117l-0.207-0.207 1.938-1.938 1.937 1.938-1.937 1.938-1.73-1.73zM13.251 29.454l-1.938-1.937 1.938-1.937 1.937 1.937-1.937 1.937zM13.921 24.91l1.937-1.938 1.938 1.938-1.938 1.938-1.937-1.938zM18.465 29.454l-1.936-1.937 1.936-1.937 1.938 1.937-1.938 1.937zM19.136 24.91l1.938-1.938 1.936 1.938-1.936 1.938-1.938-1.938zM23.131 28.905l-1.387-1.387 1.636-1.636c-0.111 0.948-0.195 1.955-0.248 3.023zM23.614 24.173l0.067 0.067-0.093 0.093c0.009-0.055 0.017-0.106 0.026-0.16l-1.871-1.871 1.938-1.937 0.593 0.593c-0.247 0.97-0.473 2.040-0.66 3.215zM24.562 19.905l-0.21-0.21 0.392-0.392c-0.061 0.195-0.122 0.396-0.182 0.602zM25.492 17.213l-1.811 1.811-1.938-1.938 1.938-1.937 1.936 1.937-0.125 0.126zM25.977 16.104l-1.625-1.624 0.48-0.479h2.305c-0.27 0.406-0.689 1.099-1.161 2.104zM25.456 10.54c-0.11-0.002-0.22-0.044-0.303-0.128l-1.438-1.438c-1.108-0.623-2.078-0.806-2.895-0.559 0.613 0.9 1.139 1.928 1.547 3.086h2.991c0.047-0.316 0.084-0.636 0.099-0.961zM19.515 8.095c-0.515-0.641-1.099-1.237-1.753-1.788-2.398 1.537-4.157 3.436-5.416 5.193h5.069c0.413-1.296 1.065-2.627 2.1-3.405zM20.27 7.663c1.132-0.469 2.453-0.28 3.936 0.567 0.034 0.020 0.067 0.043 0.094 0.072l1.142 1.142c-0.145-2.126-0.99-4.059-2.308-5.571-0.055 0.063-0.128 0.111-0.215 0.135-1.643 0.457-3.098 1.090-4.386 1.83 0.608 0.535 1.195 1.14 1.736 1.825zM20.044 8.809c-0.794 0.594-1.331 1.627-1.695 2.691h3.096c-0.36-0.963-0.828-1.861-1.401-2.691zM15.675 3.848c0.703 0.386 1.426 0.845 2.133 1.392 1.369-0.819 2.924-1.522 4.688-2.030-1.517-1.434-3.506-2.371-5.71-2.554 0.122 0.34 0.246 0.973-0.078 1.761-0.204 0.497-0.552 0.974-1.032 1.431zM17.028 5.731c-0.215-0.159-0.436-0.314-0.664-0.465-0.472-0.311-0.945-0.583-1.408-0.823-1.665 1.221-4.379 2.285-8.118 3.18-0.213 0.789-0.327 1.618-0.327 2.474 0 0.478 0.045 0.944 0.113 1.403h4.655c1.291-1.91 3.149-4.041 5.75-5.769zM10.297 2.836c-0.098-0.014-0.182-0.060-0.247-0.124-1.274 1.024-2.275 2.372-2.883 3.917 3.459-0.867 5.572-1.798 6.858-2.631-2.059-0.91-3.706-1.159-3.728-1.162zM15.886 2.078c0.303-0.74 0.025-1.219 0.022-1.223-0.046-0.073-0.066-0.153-0.067-0.232-1.79 0.027-3.46 0.55-4.879 1.438 0.752 0.166 2.207 0.554 3.861 1.349 0.617-0.522 0.918-0.982 1.062-1.333z"></path>
</svg>
