<!-- Generated by IcoMoon.io -->
<svg version="1.1" xmlns="http://www.w3.org/2000/svg" width="32" height="32" viewBox="0 0 32 32">
<title>Basketball</title>
<path d="M27.166 4c0 2.025-1.642 3.667-3.666 3.667s-3.666-1.642-3.666-3.667c0-2.025 1.642-3.667 3.666-3.667s3.666 1.642 3.666 3.667zM32 22.25c0 1.519-1.231 2.75-2.75 2.75s-2.75-1.231-2.75-2.75c0-1.519 1.231-2.75 2.75-2.75s2.75 1.231 2.75 2.75zM29.481 18.683c0.929-0.265 1.468-1.234 1.201-2.163s-1.235-1.467-2.163-1.202c-0.018 0.005-1.924 0.487-3.334-0.518-1.151-0.819-1.802-2.466-1.938-4.897-0.044-0.803-0.63-1.472-1.419-1.622-0.265-0.050-6.529-1.141-11.097 6.85-0.057 0.101-0.105 0.209-0.142 0.321-0.008 0.025-0.011 0.051-0.018 0.076-0.024 0.085-0.047 0.172-0.057 0.262-0.007 0.050-0.002 0.101-0.004 0.152-0.002 0.062-0.010 0.124-0.005 0.187l0.442 5.91-1.53 1.596c-0.136 0.108-0.258 0.23-0.354 0.369l-4.825 5.035c-0.486 0.506-0.622 1.253-0.347 1.898s0.909 1.063 1.61 1.063h4c0.966 0 1.75-0.784 1.75-1.75 0-0.933-0.73-1.696-1.651-1.747l1.94-2.023 7.575-2.841c0.313-0.117 0.585-0.322 0.785-0.588 0.489-0.651 0.654-1.459 0.468-2.276-0.465-2.026-3.401-4.093-5.63-5.401 1.925-2.613 3.938-3.39 5.189-3.604 0.425 2.684 1.507 4.657 3.228 5.882 2.814 2.003 6.184 1.072 6.326 1.031zM16.437 20.904l-2.009 0.753-0.183-2.448c0.919 0.614 1.703 1.216 2.192 1.695z"></path>
</svg>
