<!-- Generated by IcoMoon.io -->
<svg version="1.1" xmlns="http://www.w3.org/2000/svg" width="32" height="32" viewBox="0 0 32 32">
<title>basketball-ball</title>
<path d="M31.47 16.53l-2.428-2.428c-1.871-1.051-3.508-1.361-4.886-0.944 2.259 3.319 3.869 7.614 4.070 13.158 2.203-2.608 3.587-5.929 3.755-9.569-0.185-0.005-0.369-0.075-0.511-0.216zM5.22 27.212c-0.045 0.153-0.137 0.277-0.253 0.37 2.703 2.576 6.303 4.216 10.287 4.399 0.003-0.13 0.037-0.261 0.111-0.378 0.024-0.038 2.348-3.816 1.894-6.997-0.007-0.049-0.009-0.1-0.006-0.15 0.022-0.374 0.564-8.726 4.703-11.834-0.869-1.082-1.856-2.090-2.959-3.020-10.438 6.689-13.736 17.476-13.775 17.61zM27.701 5.723c-2.773 0.771-5.229 1.838-7.404 3.088 1.027 0.903 2.018 1.925 2.93 3.081 1.911-0.791 4.142-0.473 6.645 0.957 0.058 0.033 0.111 0.073 0.158 0.121l1.927 1.928c-0.244-3.589-1.671-6.851-3.896-9.403-0.093 0.106-0.215 0.188-0.361 0.228zM26.75 27.5c0-5.347-1.311-9.919-3.903-13.675-3.397 2.539-4.035 9.855-4.093 10.649 0.401 3.064-1.232 6.353-1.872 7.5 3.82-0.207 7.283-1.755 9.928-4.181-0.038-0.090-0.060-0.189-0.060-0.294zM26.985 4.373c-2.561-2.42-5.918-4.003-9.64-4.313 0.206 0.574 0.416 1.641-0.131 2.973-0.345 0.839-0.933 1.644-1.742 2.417 1.188 0.651 2.407 1.427 3.6 2.349 2.311-1.383 4.936-2.569 7.913-3.426zM17.756 8.63c-0.364-0.268-0.736-0.531-1.121-0.784-0.796-0.524-1.595-0.984-2.376-1.389-2.812 2.060-7.393 3.857-13.705 5.367-0.359 1.332-0.554 2.731-0.554 4.177 0 3.997 1.469 7.648 3.891 10.452 0.644-1.884 4.31-11.473 13.865-17.823zM12.687 5.704c-3.475-1.537-6.255-1.956-6.293-1.962-0.165-0.024-0.308-0.101-0.417-0.209-2.149 1.73-3.84 4.004-4.866 6.613 5.838-1.464 9.404-3.034 11.576-4.441zM14.036 4.713c1.039-0.88 1.549-1.657 1.792-2.249 0.513-1.249 0.043-2.057 0.037-2.064-0.076-0.122-0.111-0.258-0.113-0.393-3.022 0.046-5.841 0.929-8.234 2.429 1.268 0.28 3.723 0.936 6.518 2.277z"></path>
</svg>
