<!-- Generated by IcoMoon.io -->
<svg version="1.1" xmlns="http://www.w3.org/2000/svg" width="32" height="32" viewBox="0 0 32 32">
<title>beans</title>
<path d="M2 21.3c-0.15 4.45 4.050 8.45 9.6 9s10.45-2.5 11.25-6.85c0 0 0 0 0 0 0.050-0.15 0.050-0.3 0.050-0.5 0.050-0.65 0.050-1.3-0.050-1.9h-0.050c-0.4-1.8-1.55-3.15-3.050-3.3l-0.95-0.1c-0.55-0.050-1.1 0-1.65 0.1-1.25 0.3-2.7 0.45-4.25 0.25-1.55-0.15-3-0.55-4.15-1.1-0.5-0.25-1.050-0.4-1.6-0.45l-0.95-0.1c-1.5-0.15-2.95 0.95-3.65 2.6h-0.050c-0.25 0.6-0.4 1.2-0.45 1.85-0.050 0.15-0.050 0.35-0.050 0.5 0 0 0 0 0 0zM12.1 19.9c1.55 0.15 2.7 0.8 2.65 1.45s-1.35 1.050-2.9 0.9-2.7-0.8-2.65-1.45c0.1-0.6 1.35-1.050 2.9-0.9zM28.050 6.65c-3.8-2.8-8.8-2.6-11.35 0.4 0 0 0 0 0 0-0.1 0.1-0.2 0.2-0.25 0.35-0.35 0.45-0.6 0.95-0.8 1.5v0c-0.55 1.55-0.3 3.050 0.75 3.85l0.65 0.5c0.4 0.3 0.8 0.5 1.3 0.6 1.050 0.3 2.15 0.85 3.25 1.65s1.9 1.7 2.5 2.65c0.25 0.4 0.6 0.75 0.95 1.050l0.65 0.5c1.050 0.75 2.6 0.55 3.9-0.4v0c0.45-0.35 0.85-0.75 1.2-1.2 0.1-0.1 0.15-0.25 0.25-0.35 0 0 0 0 0 0 2.050-3.45 0.8-8.25-3-11.1zM25.050 14.55c-0.35 0.45-1.45 0.25-2.45-0.5s-1.5-1.7-1.15-2.2 1.45-0.25 2.45 0.5c0.95 0.75 1.5 1.75 1.15 2.2zM10.050 12.35c2.55-2.85 2.95-6.7 0.95-8.75 0 0 0 0 0 0-0.050-0.1-0.15-0.15-0.25-0.2-0.3-0.3-0.65-0.5-1.050-0.7v0c-1.1-0.45-2.3-0.35-3 0.45l-0.45 0.5c-0.25 0.3-0.45 0.6-0.6 0.95-0.35 0.8-0.85 1.65-1.6 2.45-0.7 0.8-1.5 1.45-2.25 1.85-0.35 0.2-0.65 0.45-0.9 0.7l-0.45 0.5c-0.7 0.75-0.7 1.95-0.1 3v0c0.2 0.35 0.5 0.65 0.8 0.95 0.1 0.050 0.15 0.15 0.25 0.2 0 0 0 0 0 0 2.35 1.75 6.15 0.95 8.65-1.9zM5.050 7.9c0.65-0.75 1.45-1.1 1.8-0.85 0.3 0.3 0.050 1.1-0.65 1.85-0.65 0.75-1.45 1.1-1.8 0.85-0.3-0.3 0-1.15 0.65-1.85z"></path>
</svg>
