<!-- Generated by IcoMoon.io -->
<svg version="1.1" xmlns="http://www.w3.org/2000/svg" width="32" height="32" viewBox="0 0 32 32">
<title>beenhere</title>
<path d="M26.816 0h-21.559c-0.78 0-1.256 0.62-1.256 1.385v20.509c0 0.677 0.322 1.282 1.077 1.96l9.998 7.683c0.552 0.541 1.427 0.541 1.98 0l9.914-7.684c0.994-0.677 1.031-1.282 1.031-1.96v-20.509c0-0.765-0.404-1.385-1.184-1.385zM24.267 10.668l-8.467 8.291c-0.001 0-0.001 0.001-0.002 0.002-0.31 0.303-0.716 0.456-1.123 0.456-0.204 0-0.406-0.038-0.598-0.114s-0.37-0.19-0.525-0.341l-5.748-5.628c-0.62-0.607-0.62-1.591 0-2.198s1.625-0.607 2.244 0l4.626 4.529 7.346-7.194c0.62-0.607 1.625-0.607 2.245 0s0.619 1.591 0 2.197z"></path>
</svg>
