<!-- Generated by IcoMoon.io -->
<svg version="1.1" xmlns="http://www.w3.org/2000/svg" width="32" height="32" viewBox="0 0 32 32">
<title>bell2</title>
<path d="M26.023 22.392c-0.282-1.799-0.4-2.613-0.349-5.759 0.169-5.306-3.367-10.681-8.806-11.277v-1.345c0.727-0.33 1.236-1.059 1.236-1.909-0-1.161-0.942-2.102-2.103-2.102-1.159 0-2.101 0.941-2.101 2.101 0 0.85 0.508 1.578 1.233 1.909v1.346c-5.438 0.599-8.971 5.973-8.805 11.277 0.051 3.145-0.067 3.96-0.348 5.758-1.157 0.421-1.99 1.52-1.99 2.822 0 1.663 1.347 3.011 3.010 3.011h5.223c0 2.086 1.693 3.776 3.777 3.776 2.086 0 3.777-1.69 3.777-3.776h5.22c1.665 0 3.012-1.349 3.012-3.011 0-1.3-0.831-2.4-1.987-2.82zM14.466 10.677c-0.14 0.018-2.716 0.389-3.296 4.674-0.080 0.588-0.614 1.002-1.198 0.938-0.009-0.002-0.019-0.002-0.028-0.003-0.597-0.081-1.015-0.63-0.935-1.227 0.829-6.114 5.083-6.538 5.263-6.554 0.594-0.053 1.128 0.396 1.178 0.996 0.050 0.596-0.39 1.12-0.982 1.176z"></path>
</svg>
