<!-- Generated by IcoMoon.io -->
<svg version="1.1" xmlns="http://www.w3.org/2000/svg" width="32" height="32" viewBox="0 0 32 32">
<title>bell</title>
<path d="M15 6.497v0.702c0 0.442 0.358 0.8 0.8 0.8h0.4c0.442 0 0.8-0.358 0.8-0.8v-0.702c1.387-0.012 1.142-0.085 1.146-0.539 0.010-1.128-1.019-2.042-2.146-2.042s-2.156 0.914-2.146 2.042c0.004 0.454-0.24 0.527 1.146 0.539zM3.664 23h24.672c0.642 0 1.163-0.334 1.163-1 0-0.516-0.314-0.83-0.754-0.947 0.003-0.018 0.007-0.035 0.010-0.053h-25.51c0.003 0.018 0.007 0.035 0.010 0.052-0.442 0.116-0.756 0.431-0.756 0.948 0 0.666 0.521 1 1.164 1zM30 25h-28c-0.552 0-2 1.847-2 2.334s0.448 1.166 1 1.166h30c0.552 0 1-0.68 1-1.166s-1.448-2.334-2-2.334zM28.807 20.5c0.017 0 0.020-0.442 0.023-0.747 0.058-6.076-6.090-10.966-12.83-10.966s-12.887 4.872-12.83 10.949c0.003 0.303 0.007 0.764 0.023 0.764h25.613z"></path>
</svg>
