<!-- Generated by IcoMoon.io -->
<svg version="1.1" xmlns="http://www.w3.org/2000/svg" width="32" height="32" viewBox="0 0 32 32">
<title>belt</title>
<path d="M31.825 15.576l-3.388-3.389c-0.117-0.117-0.27-0.175-0.424-0.175v-0.001h-3.42v-1.634c0-1.427-1.157-2.583-2.583-2.583h-14.064c-1.426 0-2.583 1.156-2.583 2.583v1.634h-4.366c-0.55 0-0.997 0.447-0.997 0.997v5.982c0 0.55 0.447 0.996 0.997 0.996h4.367v1.635c0 1.425 1.157 2.582 2.583 2.582h14.063c1.426 0 2.583-1.157 2.583-2.582v-1.635h3.42c0.154 0 0.306-0.058 0.424-0.175l3.388-3.388c0.234-0.235 0.234-0.614 0-0.848zM22.010 20.33c0 0.713-0.578 1.291-1.291 1.291h-11.481c-0.713 0-1.292-0.578-1.292-1.291v-8.66c0-0.713 0.579-1.291 1.292-1.291h11.481c0.713 0 1.291 0.578 1.291 1.291v0.343h-10.069c-0.55 0-0.997 0.447-0.997 0.996v2.053h3.108c0.518 0 0.938 0.419 0.938 0.937s-0.419 0.937-0.938 0.937h-3.108v2.054c0 0.55 0.447 0.996 0.997 0.996h10.069v0.343zM18.887 16c0 0.642-0.52 1.163-1.163 1.163s-1.162-0.52-1.162-1.163c0-0.642 0.52-1.162 1.162-1.162s1.163 0.52 1.163 1.162zM21.785 17.163c-0.642 0-1.162-0.52-1.162-1.163s0.52-1.162 1.162-1.162c0.642 0 1.162 0.521 1.162 1.162s-0.52 1.163-1.162 1.163z"></path>
</svg>
