<!-- Generated by IcoMoon.io -->
<svg version="1.1" xmlns="http://www.w3.org/2000/svg" width="32" height="32" viewBox="0 0 32 32">
<title>Biathlon</title>
<path d="M20.666 6.5c0 2.025-1.642 3.666-3.666 3.666s-3.666-1.642-3.666-3.667c0-2.025 1.642-3.667 3.666-3.667s3.666 1.642 3.666 3.667zM6.070 12.614c0.131 0.091 0.281 0.136 0.429 0.136 0.237 0 0.469-0.111 0.615-0.32l7-10c0.238-0.34 0.155-0.807-0.184-1.044s-0.807-0.155-1.044 0.185l-7 10c-0.237 0.339-0.155 0.807 0.184 1.044zM5.99 19.93c0.306 0.216 0.659 0.32 1.008 0.32 0.55 0 1.091-0.258 1.431-0.741l3-4.25c0.377-0.534 0.425-1.234 0.124-1.815-0.113-0.218-0.268-0.405-0.452-0.554l1.328-1.881c0.557-0.79 0.369-1.881-0.421-2.439s-1.882-0.369-2.439 0.421l-3 4.25c-0.377 0.534-0.425 1.234-0.124 1.815 0.113 0.218 0.268 0.405 0.452 0.554l-1.328 1.881c-0.557 0.79-0.369 1.882 0.42 2.439zM31.671 24.665c-0.185-0.37-0.636-0.52-1.006-0.335-0.37 0.186-0.52 0.636-0.335 1.006 0.1 0.2-0.287 0.509-0.53 0.665h-9.223c0.109-0.228 0.175-0.48 0.175-0.75 0-0.966-0.784-1.75-1.75-1.75h-0.586l2.007-2.791c0.318-0.442 0.412-1.008 0.254-1.529s-0.55-0.939-1.061-1.131l-4.253-1.595c0.114-0.339 0.217-0.668 0.303-0.978 0.844 0.398 1.635 0.492 2.268 0.46 1.832-0.084 3.409-1.204 4.562-2.36l5.364 8.813c0.141 0.232 0.388 0.36 0.641 0.36 0.134 0 0.267-0.035 0.39-0.11 0.354-0.215 0.466-0.677 0.25-1.030l-5.605-9.207c0.535-0.677 0.875-1.226 0.968-1.383 0.494-0.829 0.221-1.899-0.607-2.395s-1.902-0.224-2.399 0.602c-0.119 0.198-0.28 0.438-0.471 0.695-0.094 0.076-0.166 0.171-0.212 0.277-0.808 1.022-2.014 2.197-3.045 2.242-0.598 0.021-1.216-0.405-1.854-1.283-0.435-0.598-1.2-0.854-1.911-0.646-0.71 0.21-1.211 0.846-1.252 1.585-0.021 0.386-0.644 9.514-10.89 13.523-0.784 0.306-1.238 1.128-1.082 1.954 0.069 0.365 0.253 0.681 0.504 0.925h-0.284c-0.414 0-0.75 0.335-0.75 0.75s0.336 0.751 0.75 0.751h22.5c0.116 0 0.232-0.027 0.335-0.079 0.049-0.025 0.495-0.253 0.883-0.64 0.54-0.54 0.738-1.172 0.576-1.78h4.706c0.116 0 0.232-0.027 0.335-0.079 0.049-0.025 0.495-0.253 0.883-0.64 0.64-0.64 0.805-1.412 0.453-2.116zM13.954 19.665l2.29 0.858-2.665 3.706c-0.373 0.518-0.43 1.198-0.156 1.771h-5.016c2.636-1.948 4.386-4.212 5.548-6.335zM23.829 27.835c0.1 0.2-0.287 0.509-0.53 0.665h-16.076c0.268-0.262 0.447-0.611 0.502-1h16.029c0 0.113 0.023 0.227 0.076 0.335z"></path>
</svg>
