<!-- Generated by IcoMoon.io -->
<svg version="1.1" xmlns="http://www.w3.org/2000/svg" width="32" height="32" viewBox="0 0 32 32">
<title>bicycle</title>
<path d="M25 12.501c-0.886 0-1.729 0.171-2.509 0.471l-1.527-3.309c-0.020-0.062-0.047-0.121-0.081-0.175l-1.359-2.944c-0.013-0.032-0.023-0.057-0.032-0.083 0.003-0.029 0.009-0.118 0.009-0.147 0-0.415-0.336-0.813-0.75-0.813h-2c-0.414 0-0.75 0.335-0.75 0.75s0.336 0.75 0.75 0.75h1.393c0.002 0 0.003 0.008 0.004 0.011l0.918 1.989h-7.275c-0.025 0-0.049 0.065-0.073 0.065l-0.742-1.577c0.903-0.164 1.526-0.487 1.526-0.878 0-0.552-1-0.492-2.75-0.992-1.46-0.417-1.75 0.452-1.75 1.004 0 0.502 0.194 0.918 1.367 0.989l0.993 2.153-1.212 3.075c-0.678-0.218-1.398-0.339-2.148-0.339-3.866 0-7 3.134-7 7s3.134 6.937 7 6.937c3.482 0 6.363-2.438 6.902-5.938h0.739c0.238 0.5 0.755 0.938 1.36 0.938 0.828 0 1.5-0.64 1.5-1.468 0-0.3-0.090-0.563-0.242-0.797l2.971-7.531 0.926 2.010c-1.9 1.252-3.156 3.403-3.156 5.848 0 3.866 3.134 7.001 7 7.001s7-3.134 7-7-3.134-7-7-7zM19.021 10.5l-3.046 7.727-3.567-7.727h6.613zM11.229 11.586l3.451 7.414h-0.7c-0.129-2.5-1.486-4.485-3.464-5.639l0.713-1.776zM11.881 19h-3.598l1.454-3.69c1.207 0.815 2.027 2.19 2.144 3.69zM7 24.338c-2.706 0-4.901-2.163-4.901-4.869s2.195-4.884 4.901-4.884c0.478 0 0.939 0.080 1.376 0.207l-1.69 4.292c-0.052 0.119-0.066 0.247-0.055 0.367-0.082 0.12-0.13 0.204-0.13 0.36 0 0.414 0.336 0.688 0.75 0.688h4.515c-0.509 2.5-2.447 3.838-4.765 3.838zM25 24.401c-2.706 0-4.9-2.194-4.9-4.9 0-1.598 0.767-3.011 1.95-3.906l1.887 4.088c0.164 0.381 0.605 0.556 0.985 0.392 0.381-0.164 0.555-0.605 0.392-0.986l-1.941-4.205c0.51-0.179 1.055-0.282 1.627-0.282 2.706 0 4.901 2.194 4.901 4.9s-2.194 4.9-4.9 4.9z"></path>
</svg>
