<!-- Generated by IcoMoon.io -->
<svg version="1.1" xmlns="http://www.w3.org/2000/svg" width="32" height="32" viewBox="0 0 32 32">
<title>Bicycle-Race</title>
<path d="M27.166 6c0 2.025-1.642 3.666-3.666 3.666s-3.666-1.642-3.666-3.667c0-2.025 1.642-3.667 3.666-3.667s3.666 1.642 3.666 3.667zM17.841 17.675c0.569-0.311 0.918-0.91 0.909-1.558s-0.374-1.238-0.95-1.533l-5.257-2.7c1.371-0.264 3.239-0.32 4.981-0.166 0.673 0.842 1.966 2.091 4.002 2.62 2.407 0.626 5.067 0.044 7.902-1.729 0.82-0.512 1.069-1.592 0.556-2.412s-1.591-1.069-2.412-0.556c-1.966 1.229-3.691 1.675-5.123 1.319-1.616-0.399-2.395-1.706-2.417-1.743-0.27-0.489-0.756-0.819-1.308-0.89-1.542-0.2-9.332-0.992-11.289 2.921-0.428 0.858-0.087 1.901 0.765 2.339l5.067 2.602-1.107 0.607c-1.258-1.028-2.863-1.646-4.611-1.646-4.026 0-7.3 3.274-7.3 7.3s3.275 7.3 7.3 7.3 7.3-3.274 7.3-7.3c0-1-0.203-1.955-0.569-2.824l3.56-1.951zM12.951 20.355c0.073 0.188 0.136 0.38 0.189 0.576-0.017-0.015-0.030-0.032-0.047-0.047l-0.45-0.36 0.309-0.169zM7.55 28.25c-3.198 0-5.8-2.602-5.8-5.8s2.601-5.8 5.8-5.8c1.165 0 2.249 0.349 3.159 0.942l-2.050 1.123c-0.513 0.281-0.851 0.8-0.902 1.383s0.194 1.152 0.65 1.518l2.5 2c0.323 0.259 0.709 0.384 1.092 0.384 0.464 0 0.918-0.194 1.258-0.548-0.476 2.721-2.851 4.798-5.707 4.798zM24.68 15.15c-4.025 0-7.3 3.275-7.3 7.3s3.275 7.3 7.3 7.3 7.3-3.274 7.3-7.3-3.275-7.3-7.3-7.3zM24.68 28.25c-3.198 0-5.8-2.602-5.8-5.8s2.602-5.8 5.8-5.8 5.8 2.602 5.8 5.8-2.602 5.8-5.8 5.8z"></path>
</svg>
