<!-- Generated by IcoMoon.io -->
<svg version="1.1" xmlns="http://www.w3.org/2000/svg" width="32" height="32" viewBox="0 0 32 32">
<title>bikini</title>
<path d="M7.405 16.245c3.453 2.804 6.928 0.244 8.149-0.86h0.89c1.222 1.104 4.697 3.665 8.149 0.86 0 0 3.741-3.202 0.176-9.358l-1.53-6.327c-0.095-0.392-0.489-0.633-0.882-0.539s-0.634 0.49-0.539 0.882l1.529 6.332c-1.469 0.771-4.327 2.626-6.541 6.219h-1.616c-2.215-3.593-5.073-5.447-6.542-6.219l1.53-6.332c0.095-0.393-0.146-0.787-0.54-0.882-0.392-0.095-0.787 0.147-0.882 0.539l-1.53 6.329c-3.566 6.155 0.176 9.357 0.176 9.357zM16 23.448c-3.741 0-7.162-1.076-9.799-2.855-0.218 0.741-0.335 1.518-0.335 2.321 0 0.29 0.016 0.576 0.046 0.859 4.045 1.057 7.267 4.148 8.506 8.117 0.515 0.073 1.043 0.11 1.581 0.11s1.066-0.038 1.581-0.111c1.239-3.968 4.461-7.060 8.506-8.117 0.029-0.282 0.047-0.569 0.047-0.859 0-0.802-0.116-1.58-0.335-2.321-2.637 1.779-6.057 2.855-9.799 2.855z"></path>
</svg>
