<!-- Generated by IcoMoon.io -->
<svg version="1.1" xmlns="http://www.w3.org/2000/svg" width="32" height="32" viewBox="0 0 32 32">
<title>Biohazard</title>
<path d="M12.036 11.807c1.063-0.857 2.412-1.376 3.883-1.386s2.828 0.489 3.902 1.33c0.639-0.569 1.151-1.277 1.494-2.072-1.5-1.148-3.38-1.825-5.415-1.811-2.035 0.016-3.902 0.72-5.386 1.889 0.354 0.792 0.876 1.491 1.521 2.051zM19.010 23.701c0.174 0.837 0.528 1.634 1.046 2.331 1.744-0.725 3.273-2.010 4.281-3.779 1.006-1.768 1.332-3.738 1.064-5.607-0.863-0.091-1.729 0.011-2.537 0.29 0.208 1.349-0.018 2.775-0.745 4.055-0.729 1.279-1.84 2.203-3.109 2.712zM6.532 16.783c-0.24 1.873 0.114 3.837 1.147 5.592 1.034 1.753 2.581 3.017 4.335 3.715 0.508-0.703 0.85-1.505 1.010-2.345-1.274-0.491-2.399-1.398-3.146-2.666s-0.995-2.692-0.805-4.044c-0.813-0.267-1.681-0.355-2.541-0.253zM8.698 15.927c0.001 0.001 0.001 0.001 0.002 0.001 1.634 0.391 3.047 1.353 4.014 2.666l1.464-0.834c-0.017-0.099-0.027-0.198-0.028-0.302-0.007-0.786 0.479-1.46 1.169-1.734l-0.011-1.576c-3.573-0.299-6.394-3.278-6.421-6.934-0.018-2.48 1.256-4.667 3.191-5.928-3.309 1.479-5.604 4.808-5.574 8.664 0.006 0.813 0.115 1.601 0.314 2.352-0.746 0.215-1.477 0.527-2.178 0.938-3.313 1.95-4.989 5.609-4.577 9.194 0.161-3.706 3.203-6.672 6.954-6.7 0.456-0.003 1.162 0.049 1.683 0.191zM17.951 22.665c-0.007-1.052 0.221-2.052 0.631-2.951l-1.459-0.8c-0.308 0.236-0.691 0.378-1.109 0.382-0.454 0.003-0.869-0.157-1.191-0.425l-1.448 0.822c0.441 0.907 0.695 1.924 0.703 3.002 0.028 3.87-3.088 7.032-6.958 7.061-1.131 0.009-2.199-0.253-3.149-0.721 2.933 2.077 6.927 2.375 10.223 0.433 0.692-0.407 1.313-0.89 1.857-1.43 0.555 0.532 1.18 1.005 1.878 1.402 3.319 1.889 7.299 1.539 10.199-0.57-0.936 0.475-1.993 0.746-3.114 0.755-3.87 0.029-7.032-3.087-7.061-6.958zM27.244 13.075c-0.707-0.402-1.443-0.703-2.193-0.906 0.189-0.753 0.285-1.543 0.279-2.357-0.029-3.856-2.372-7.15-5.701-8.582 1.953 1.232 3.259 3.401 3.277 5.881 0.026 3.655-2.75 6.677-6.317 7.027l0.011 1.556c0.723 0.248 1.246 0.929 1.251 1.736 0.001 0.137-0.014 0.27-0.040 0.398l1.404 0.771c0.945-1.352 2.356-2.355 4.003-2.776 0-0.002 0.001-0.002 0.002-0.004 0.755-0.195 1.27-0.224 1.689-0.216 3.739-0.028 6.814 2.875 7.047 6.56 0.346-3.579-1.384-7.194-4.712-9.089z"></path>
</svg>
