<!-- Generated by IcoMoon.io -->
<svg version="1.1" xmlns="http://www.w3.org/2000/svg" width="32" height="32" viewBox="0 0 32 32">
<title>bitcoin-</title>
<path d="M26.678 17.544c-0.803-1.049-1.953-1.79-3.448-2.226 1.060-0.479 1.899-1.2 2.518-2.159s0.929-2.014 0.929-3.163c0-1.060-0.251-2.017-0.753-2.87s-1.13-1.537-1.883-2.050c-0.753-0.513-1.512-0.851-2.466-1.012-0.75-0.127-1.575-0.204-3.075-0.231v-2.833h-3.5v2.5h-3v-2.5h-3v2.5h-5v4.5h3.5v16h-3.5v4.5h5v2.5h3v-2.5h3v2.5h3.5v-2.675c1.5-0.029 2.685-0.075 3.252-0.136 1.317-0.145 2.377-0.532 3.275-1.163s1.584-1.473 2.102-2.527 0.767-2.14 0.767-3.255c-0-1.417-0.414-2.65-1.218-3.699zM15.13 8c2.332 0 3.743-0.020 4.234 0.036 0.826 0.101 1.448 0.364 1.866 0.838 0.419 0.475 0.628 1.079 0.628 1.838 0 0.791-0.242 1.424-0.729 1.909-0.485 0.486-1.152 0.736-2 0.837-0.468 0.056-1.668 0.042-3.598 0.042h-3.532v-5.5h3.13zM22.067 23.093c-0.463 0.519-1.063 0.734-1.799 0.868-0.48 0.101-1.613 0.040-3.398 0.040h-4.87v-6.5h4.285c2.254 0 3.718 0.198 4.393 0.432s1.191 0.648 1.549 1.162c0.357 0.513 0.535 1.158 0.535 1.895 0 0.87-0.232 1.585-0.695 2.104z"></path>
</svg>
