<!-- Generated by IcoMoon.io -->
<svg version="1.1" xmlns="http://www.w3.org/2000/svg" width="32" height="32" viewBox="0 0 32 32">
<title>blender</title>
<path d="M10.512 2.5h10.909c0.39 0 0.579-0.18 0.579-0.569v-0.127c0-0.387-0.189-0.804-0.579-0.804h-2.375c0-0.5-0.459-1-1.027-1h-4.107c-0.567 0-1.027 0.5-1.027 1h-2.374c-0.389 0-0.511 0.417-0.511 0.804v0.127c0 0.388 0.123 0.569 0.512 0.569zM24.951 5h-2.89l0.066-1c0-0.563-0.459-1-1.026-1h-10.268c-0.567 0-1.027 0.529-1.027 1.091l1.027 15.85c0 0.564 0.46 1.058 1.027 1.058h8.214c0.567 0 1.027-0.459 1.027-1.023l0.198-3.062c0 0 2.738-0.009 2.792-0.020 0.381-0.020 0.697-0.316 0.727-0.703 0 0 0.903-10.162 0.903-10.335 0-0.423-0.345-0.857-0.77-0.857zM14.94 5h2.054c0.567 0 1.006 0.64 1.006 1.203v2.297h-4v-2.297c0-0.563 0.373-1.203 0.94-1.203zM14 12v-3h4v3h-4zM18 12.5v3h-4v-3h4zM16.994 19h-2.053c-0.567 0-0.94-0.503-0.94-1.066v-1.934h4v1.934c0 0.563-0.439 1.066-1.006 1.066zM23.334 15.5h-1.936l0.563-8.5h2.034l-0.66 8.5zM20.587 22.5c0.284 0 0.514-0.218 0.514-0.5s-0.23-0.5-0.514-0.5h-9.241c-0.284 0-0.514 0.219-0.514 0.5 0 0.282 0.229 0.5 0.514 0.5h9.241zM20.587 23h-9.241c-1.701 0-2.567 1.545-2.567 3.235l0.308 4.765h0.733c-0.007 0-0.015-0.060-0.015-0.009 0 0.574 0.469 0.962 1.049 0.962s1.048-0.349 1.048-0.924c0-0.051-0.008-0.030-0.015-0.030h8.201c-0.007 0-0.015-0.060-0.015-0.009 0 0.574 0.469 0.962 1.049 0.962s1.048-0.349 1.048-0.924c0-0.051-0.008-0.030-0.015-0.030h0.691l0.308-4.765c0-1.689-0.866-3.234-2.567-3.234zM16.116 29.494c-1.524 0-2.759-1.227-2.759-2.741s1.236-2.741 2.759-2.741c1.524 0 2.759 1.227 2.759 2.741s-1.236 2.741-2.759 2.741zM14.232 26.753c0 1.035 0.845 1.875 1.887 1.875 0.459 0 0.875-0.169 1.201-0.44l-2.645-2.628c-0.272 0.326-0.443 0.738-0.443 1.194zM16.119 24.88c-0.327 0-0.63 0.090-0.898 0.235l2.547 2.531c0.146-0.266 0.237-0.567 0.237-0.892 0-1.035-0.845-1.875-1.887-1.875z"></path>
</svg>
