<!-- Generated by IcoMoon.io -->
<svg version="1.1" xmlns="http://www.w3.org/2000/svg" width="32" height="32" viewBox="0 0 32 32">
<title>blind</title>
<path d="M15.75 3.5c0 1.933-1.567 3.5-3.5 3.5s-3.5-1.567-3.5-3.5c0-1.933 1.567-3.5 3.5-3.5s3.5 1.567 3.5 3.5zM28.859 30.062l-8.348-11.594c0.424-0.634 0.402-1.493-0.116-2.102l-6.813-8c-0.002-0.002-0.004-0.003-0.005-0.005-0.030-0.034-0.065-0.063-0.097-0.095-0.046-0.046-0.091-0.095-0.142-0.135-0.033-0.026-0.070-0.046-0.104-0.070-0.056-0.038-0.111-0.077-0.169-0.108-0.040-0.021-0.084-0.036-0.125-0.054-0.059-0.026-0.117-0.051-0.179-0.070-0.043-0.013-0.089-0.021-0.134-0.032-0.065-0.014-0.13-0.027-0.196-0.034-0.019-0.002-0.036-0.008-0.055-0.010-0.028-0.002-0.055 0.003-0.082 0.003-0.069-0.002-0.136 0-0.206 0.006-0.044 0.004-0.087 0.010-0.13 0.016-0.066 0.011-0.132 0.027-0.197 0.046-0.043 0.013-0.085 0.025-0.126 0.040-0.060 0.022-0.117 0.050-0.175 0.080-0.043 0.021-0.085 0.043-0.126 0.068-0.018 0.011-0.037 0.018-0.055 0.030l-6 4c-0.306 0.204-0.539 0.498-0.668 0.841l-1.5 4c-0.34 0.905 0.119 1.914 1.024 2.253 0.202 0.076 0.41 0.112 0.614 0.112 0.708 0 1.375-0.433 1.639-1.136l1.176-3.471 1.934-1.642v3.5c0 0.101 0-0.1 0 0l-3.949 12.937c-0.311 0.915 0.242 1.909 1.157 2.22 0.186 0.064 0.407 0.093 0.595 0.093 0.729 0 1.425-0.459 1.672-1.188l3.252-9.547 5.403 9.828c0.319 0.579 0.919 0.907 1.537 0.907 0.285 0 0.575-0.070 0.843-0.216 0.847-0.465 1.032-1.529 0.566-2.377l-7.075-12.658v-2.5l4.105 4.634c0.382 0.449 1.005 0.654 1.55 0.605l8.454 11.698c0.146 0.203 0.392 0.312 0.625 0.312 0.151 0 0.313-0.046 0.445-0.142 0.336-0.242 0.42-0.71 0.178-1.047z"></path>
</svg>
