<!-- Generated by IcoMoon.io -->
<svg version="1.1" xmlns="http://www.w3.org/2000/svg" width="32" height="32" viewBox="0 0 32 32">
<title>Blood-cell</title>
<path d="M15.852 11.289c-0.374-3.225-4.219-5.429-8.589-4.922s-7.609 3.533-7.234 6.759c0.375 3.226 4.22 5.429 8.589 4.922 4.37-0.508 7.609-3.534 7.234-6.759zM9.486 14.941c-2.215 0.732-4.463 0.13-5.591-1.325 1.48 0.697 3.361 0.841 5.228 0.225s3.291-1.853 4.065-3.295c-0.037 1.84-1.488 3.665-3.702 4.395zM15.053 18.144c-2.829 0-5.122 1.693-5.122 3.782s2.293 3.781 5.122 3.781c2.828 0 5.122-1.692 5.122-3.781s-2.293-3.782-5.122-3.782zM15.838 23.785c-1.469 0.303-2.861-0.248-3.473-1.261 0.893 0.555 2.084 0.787 3.323 0.532 1.238-0.256 2.239-0.941 2.84-1.803-0.16 1.172-1.223 2.23-2.691 2.532zM22.939 16.212c0.596-1.347-0.399-3.092-2.223-3.9s-3.785-0.371-4.381 0.976c-0.597 1.346 0.399 3.092 2.223 3.9 1.824 0.807 3.785 0.37 4.381-0.976zM19.612 16.174c-1.034-0.223-1.773-0.976-1.879-1.805 0.418 0.613 1.119 1.103 1.99 1.291s1.713 0.033 2.346-0.351c-0.438 0.709-1.424 1.088-2.457 0.864zM25.203 17.321c-2.001 0.576-3.279 2.24-2.854 3.718s2.392 2.208 4.393 1.633c2.001-0.576 3.279-2.24 2.854-3.718s-2.392-2.209-4.393-1.633zM26.907 21.153c-0.977 0.514-2.075 0.407-2.714-0.186 0.745 0.21 1.635 0.133 2.459-0.3s1.393-1.121 1.642-1.854c0.126 0.861-0.41 1.825-1.387 2.34zM31.91 11.937c-0.468-1.624-2.628-2.427-4.828-1.794s-3.604 2.461-3.136 4.085c0.467 1.623 2.628 2.426 4.827 1.794s3.603-2.462 3.136-4.085zM28.954 14.352c-1.074 0.565-2.28 0.447-2.982-0.204 0.818 0.232 1.796 0.146 2.701-0.329s1.532-1.232 1.805-2.037c0.138 0.947-0.451 2.006-1.525 2.57z"></path>
</svg>
