<!-- Generated by IcoMoon.io -->
<svg version="1.1" xmlns="http://www.w3.org/2000/svg" width="32" height="32" viewBox="0 0 32 32">
<title>Blood-sample</title>
<path d="M30.409 16.171l-5.421-11.018-6.018 11.594c-0.139 0.309-0.262 0.6-0.381 0.889-0.318-0.886-0.712-1.756-1.172-2.627l-7.384-15.009-8.197 15.794c-0.938 2.081-1.554 3.755-1.714 5.702l-0.012 0.22c-0.010 0.188-0.024 0.372-0.024 0.561 0 5.372 4.407 9.723 9.849 9.723 4.343 0 7.823-2.624 9.052-6.415 1.306 1.848 3.473 3.059 5.93 3.059 3.991 0 6.999-3.015 6.999-6.958 0-1.982-0.57-3.748-1.506-5.515zM8.239 27.257c-0.177 0.241-0.45 0.37-0.728 0.37-0.185 0-0.372-0.058-0.532-0.175-1.641-1.203-2.603-2.697-2.862-4.438-0.466-3.131 1.568-5.886 1.655-6.001 0.297-0.398 0.862-0.48 1.26-0.18 0.397 0.298 0.479 0.862 0.181 1.261-0.027 0.037-1.671 2.296-1.313 4.668 0.187 1.242 0.909 2.334 2.143 3.239 0.402 0.293 0.488 0.857 0.194 1.258zM23.672 25.162c-0.131 0.177-0.331 0.271-0.534 0.271-0.136 0-0.273-0.043-0.39-0.128-1.204-0.884-1.912-1.98-2.101-3.258-0.341-2.299 1.151-4.321 1.215-4.405 0.218-0.293 0.633-0.353 0.926-0.133 0.291 0.218 0.351 0.633 0.133 0.925-0.020 0.027-1.227 1.685-0.964 3.427 0.137 0.912 0.668 1.713 1.573 2.378 0.294 0.215 0.357 0.63 0.142 0.924z"></path>
</svg>
