<!-- Generated by IcoMoon.io -->
<svg version="1.1" xmlns="http://www.w3.org/2000/svg" width="32" height="32" viewBox="0 0 32 32">
<title>Blood-drop</title>
<path d="M21.599 12.95c-1.956-3.159-4.173-6.739-5.458-12.359l-0.135-0.591-0.148 0.588c-1.46 5.822-3.642 9.363-5.567 12.488-1.982 3.219-3.549 5.761-3.593 9.623 0 5.13 4.173 9.302 9.302 9.302s9.302-4.173 9.302-9.304c-0.043-3.84-1.739-6.576-3.703-9.746zM15.999 28.948c-2.72 0-4.932-2.212-4.932-4.931s2.213-4.933 4.932-4.933 4.932 2.212 4.932 4.933c0 2.72-2.212 4.931-4.932 4.931zM17.177 20.306h-2.354v2.532h-2.533v2.354h2.533v2.532h2.354v-2.532h2.532v-2.355h-2.532z"></path>
</svg>
