<!-- Generated by IcoMoon.io -->
<svg version="1.1" xmlns="http://www.w3.org/2000/svg" width="32" height="32" viewBox="0 0 32 32">
<title>Blood-pressure-control-tool</title>
<path d="M11.368 2.646c-3.47 0-6.293 2.823-6.293 6.293s2.823 6.293 6.293 6.293c3.47 0 6.293-2.823 6.293-6.293s-2.823-6.293-6.293-6.293zM11.368 14.19c-2.896 0-5.252-2.356-5.252-5.252s2.356-5.252 5.252-5.252c2.896 0 5.251 2.356 5.251 5.252s-2.356 5.252-5.252 5.252zM14.916 8.648h0.603c-0.064-0.929-0.434-1.774-1.010-2.438l-0.427 0.426c-0.114 0.114-0.298 0.114-0.412 0s-0.114-0.298 0-0.412l0.427-0.426c-0.732-0.637-1.685-1.026-2.729-1.026s-1.997 0.388-2.729 1.026l0.427 0.426c0.114 0.114 0.114 0.298 0 0.412s-0.298 0.114-0.412-0l-0.427-0.426c-0.577 0.663-0.947 1.508-1.011 2.438h0.604c0.16 0 0.291 0.13 0.291 0.291s-0.13 0.291-0.291 0.291h-0.604c0.064 0.93 0.434 1.774 1.011 2.438l0.427-0.427c0.114-0.114 0.298-0.114 0.412 0s0.114 0.298 0 0.412l-0.427 0.426c0.663 0.577 1.508 0.947 2.438 1.011v-0.604c0-0.16 0.13-0.29 0.29-0.29s0.291 0.13 0.291 0.29v0.604c0.93-0.065 1.774-0.434 2.438-1.011l-0.426-0.426c-0.114-0.114-0.114-0.298 0-0.412s0.298-0.114 0.412 0l0.426 0.426c0.577-0.663 0.946-1.508 1.011-2.438h-0.603c-0.161 0-0.291-0.13-0.291-0.291s0.131-0.291 0.292-0.291zM11.368 8.938c-0.326 0-0.591-0.264-0.591-0.589l0.591-3.244 0.589 3.244c0 0.326-0.264 0.589-0.589 0.589zM29.071 14.434h-7.041v-13.371c0-0.587-0.477-1.063-1.063-1.063h-19.329c-0.587 0-1.063 0.476-1.063 1.063v18.743c0 0.587 0.476 1.063 1.063 1.063h19.329c0.586 0 1.063-0.476 1.063-1.063v-3.743h7.041c0.399 0 0.725 0.325 0.725 0.724v9.57c0 0.399-0.325 0.724-0.725 0.724h-2.582c0.038-0.026 0.081-0.048 0.114-0.081 0.137-0.137 0.212-0.317 0.212-0.505l0.008-0.62c-0.001-0.394-0.3-0.721-0.72-0.727l-1.316-0.006c-0.398-0.004-0.725 0.316-0.73 0.716l-0.003 0.616c-0.003 0.256 0.131 0.479 0.335 0.608h-0.759c-0.596-1.876-3.207-3.29-6.34-3.29-2.975 0-5.474 1.276-6.229 3.011-0.012-0-0.024-0.005-0.037-0.005h-0.537c-0.606 0-1.099 0.494-1.099 1.099s0.493 1.098 1.099 1.098h0.538c0.012 0 0.024-0.005 0.037-0.006 0.755 1.735 3.254 3.012 6.229 3.012 3.133 0 5.744-1.413 6.34-3.29h0.931l0.003 0.303c-0.002 0.321 0.235 0.604 0.55 0.656 0.037 0.007 0.077 0.010 0.111 0.009l0.543 0.002c0.369-0.003 0.665-0.304 0.662-0.666l-0.003-0.303h2.646c1.297 0 2.354-1.056 2.354-2.354v-9.57c-0-1.297-1.057-2.353-2.354-2.353zM8.041 19.171h-2.186c-0.298 0-0.538-0.241-0.538-0.538s0.24-0.538 0.538-0.538h2.186c0.297 0 0.54 0.241 0.54 0.538s-0.242 0.538-0.54 0.538zM12.396 19.171h-2.187c-0.297 0-0.539-0.241-0.539-0.538s0.242-0.538 0.539-0.538h2.187c0.297 0 0.539 0.241 0.539 0.538s-0.241 0.538-0.538 0.538zM16.749 19.171h-2.187c-0.297 0-0.539-0.241-0.539-0.538s0.242-0.538 0.539-0.538h2.187c0.298 0 0.538 0.241 0.538 0.538s-0.241 0.538-0.538 0.538zM11.368 15.774c-3.769 0-6.836-3.067-6.836-6.836s3.066-6.835 6.836-6.835c3.769 0 6.836 3.066 6.836 6.835s-3.067 6.836-6.835 6.836z"></path>
</svg>
