<!-- Generated by IcoMoon.io -->
<svg version="1.1" xmlns="http://www.w3.org/2000/svg" width="32" height="32" viewBox="0 0 32 32">
<title>Blood-analysis</title>
<path d="M11.211 18.843c0-2.041 0.795-3.96 2.239-5.404 0.655-0.655 1.412-1.168 2.229-1.543-0.032-0.063-0.062-0.126-0.095-0.188l-6.641-11.695-7.37 12.402c-0.843 1.871-1.399 3.377-1.541 5.128l-0.011 0.197c-0.009 0.169-0.022 0.335-0.022 0.505 0 4.829 3.963 8.742 8.857 8.742 2.156 0 4.076-0.719 5.551-1.936-0.335-0.241-0.659-0.506-0.957-0.803-1.444-1.443-2.239-3.362-2.239-5.404zM6.167 22.716c-0.159 0.216-0.405 0.332-0.654 0.332-0.167 0-0.333-0.052-0.479-0.157-1.476-1.082-2.341-2.425-2.574-3.991-0.418-2.816 1.41-5.292 1.489-5.396 0.268-0.359 0.776-0.432 1.134-0.162 0.358 0.268 0.431 0.775 0.163 1.134-0.024 0.033-1.502 2.064-1.181 4.197 0.168 1.117 0.817 2.098 1.928 2.912 0.361 0.262 0.439 0.77 0.174 1.131zM31.854 28.259l-4.942-4.942c-0.196-0.196-0.517-0.196-0.713 0l-0.072 0.072-1.46-1.46c1.322-2.487 0.936-5.642-1.159-7.737-1.285-1.284-2.968-1.927-4.651-1.927-0.927 0-1.852 0.202-2.712 0.591-0.703 0.318-1.363 0.758-1.941 1.335-2.569 2.569-2.569 6.736 0 9.303 0.307 0.307 0.639 0.575 0.986 0.809 1.105 0.744 2.385 1.117 3.666 1.117 1.061 0 2.123-0.256 3.084-0.768l1.46 1.461-0.072 0.072c-0.197 0.196-0.197 0.517 0 0.713l4.942 4.942c0.197 0.196 0.517 0.196 0.713 0l2.869-2.869c0.195-0.196 0.195-0.518 0-0.713zM21.788 21.776c-0.809 0.81-1.872 1.215-2.933 1.215-0.802 0-1.602-0.232-2.295-0.693-0.225-0.149-0.439-0.323-0.638-0.522-1.62-1.619-1.62-4.246 0-5.866 0.318-0.319 0.676-0.572 1.056-0.764 0.588-0.299 1.233-0.45 1.878-0.45 1.061 0 2.123 0.405 2.933 1.215 1.619 1.619 1.619 4.245-0 5.865zM24.361 25.152l-0.524-0.523-0.642-0.642 0.804-0.804 1.165 1.165-0.803 0.803zM18.855 15.518c-0.62 0-1.189 0.194-1.669 0.512-0.601 0.399-1.058 0.998-1.262 1.71 0.377-0.44 0.849-0.794 1.383-1.032 0.474-0.212 0.995-0.334 1.549-0.334 1.178 0 2.221 0.537 2.931 1.367-0.367-1.28-1.535-2.223-2.932-2.223z"></path>
</svg>
