<!-- Generated by IcoMoon.io -->
<svg version="1.1" xmlns="http://www.w3.org/2000/svg" width="32" height="32" viewBox="0 0 32 32">
<title>blouse</title>
<path d="M22.788 4.644c0.049-0.030 1.494-0.904 2.602-3.413l-4.797-1.171c0.081 0.335 0.171 0.685 0.129 1.042-0.235 1.954-1.413 3.075-3.175 3.466 1.134 0.673 3.236 1.508 5.24 0.077zM9.171 4.619c2.005 1.429 4.124 0.61 5.269-0.053-1.756-0.393-2.928-1.514-3.163-3.463-0.042-0.357 0.047-0.707 0.129-1.042l-4.799 1.172c1.111 2.528 2.548 3.376 2.565 3.386zM25.409 14.436l6.445-2.040c0.201-0.726 0.202-1.514-0.041-2.284l-2.030-6.070c-0.491-1.551-1.835-2.592-3.351-2.78-1.25 3.094-3.032 4.152-3.119 4.2-0.965 0.691-1.951 0.939-2.875 0.939-2.317 0-4.225-1.567-4.354-1.675-0.029 0.001-0.055 0.003-0.084 0.003s-0.055-0.002-0.082-0.003c-0.129 0.108-2.026 1.665-4.348 1.665-0.935 0-1.938-0.253-2.921-0.956-0.053-0.027-1.83-1.080-3.080-4.173-1.516 0.187-2.859 1.228-3.35 2.779l-2.030 6.070c-0.243 0.771-0.241 1.559-0.041 2.284l6.445 2.040c0.297-0.244 0.559-0.534 0.781-0.86 0.196 2.718 0.269 5.316 0.061 7.088-0.258 2.18-1.514 6.351-2.696 8.855-0.573 1.216-0.276 2.419 0.897 2.419 1.456 0 9.167 0 9.167 0h2.396c0 0 7.711 0 9.167 0 1.173 0 1.471-1.204 0.898-2.419-1.18-2.505-2.438-6.675-2.695-8.855-0.209-1.773-0.136-4.37 0.061-7.088 0.221 0.326 0.484 0.616 0.78 0.86zM15.999 21.88c-0.671 0-1.216-0.543-1.216-1.215 0-0.671 0.545-1.215 1.216-1.215s1.215 0.544 1.215 1.215c0 0.671-0.544 1.215-1.215 1.215zM15.999 15.97c-0.671 0-1.216-0.544-1.216-1.216s0.545-1.214 1.216-1.214 1.215 0.544 1.215 1.214c0 0.671-0.544 1.216-1.215 1.216zM15.999 10.063c-0.671 0-1.216-0.544-1.216-1.216s0.545-1.215 1.216-1.215 1.215 0.542 1.215 1.215c0 0.671-0.544 1.216-1.215 1.216z"></path>
</svg>
