<!-- Generated by IcoMoon.io -->
<svg version="1.1" xmlns="http://www.w3.org/2000/svg" width="32" height="32" viewBox="0 0 32 32">
<title>bluetooth</title>
<path d="M25.306 23.652c-0.003-0.048-0.009-0.096-0.016-0.143s-0.018-0.094-0.030-0.141c-0.012-0.047-0.026-0.091-0.043-0.137-0.017-0.047-0.038-0.093-0.059-0.137-0.021-0.043-0.043-0.084-0.068-0.125-0.027-0.044-0.058-0.087-0.090-0.13-0.017-0.021-0.028-0.045-0.046-0.066-0.015-0.018-0.034-0.031-0.050-0.047s-0.028-0.038-0.046-0.054l-6.727-6.514 6.847-6.578c0.016-0.015 0.027-0.034 0.041-0.049 0.015-0.016 0.034-0.028 0.048-0.045 0.020-0.022 0.032-0.047 0.050-0.071 0.032-0.041 0.062-0.082 0.089-0.125 0.026-0.041 0.049-0.085 0.070-0.128s0.042-0.088 0.059-0.134 0.032-0.092 0.044-0.139c0.012-0.046 0.023-0.092 0.032-0.139 0.009-0.048 0.014-0.095 0.017-0.145 0.003-0.047 0.005-0.095 0.004-0.143s-0.005-0.095-0.011-0.143c-0.006-0.048-0.013-0.095-0.023-0.143s-0.023-0.092-0.038-0.138-0.031-0.091-0.050-0.136c-0.020-0.045-0.042-0.090-0.067-0.133-0.023-0.042-0.047-0.082-0.075-0.122-0.029-0.043-0.062-0.083-0.096-0.123-0.018-0.021-0.032-0.046-0.052-0.067-0.015-0.016-0.033-0.027-0.049-0.042s-0.028-0.033-0.045-0.048l-8-7c-0.442-0.387-1.041-0.48-1.578-0.237s-0.851 0.777-0.851 1.365v11.084l-5.361-5.162c-0.595-0.577-1.56-0.561-2.136 0.034s-0.569 1.545 0.027 2.121l6.785 6.573-6.786 6.517c-0.598 0.574-0.617 1.523-0.043 2.121 0.295 0.306 0.688 0.461 1.082 0.461 0.374 0 0.778-0.139 1.069-0.418l5.365-5.126v10.794c0 0.027-0.024 0.053-0.022 0.081 0.003 0.053-0.008 0.106 0.001 0.159 0.008 0.047 0.011 0.093 0.022 0.137 0.012 0.048 0.023 0.095 0.040 0.142s0.036 0.092 0.057 0.137c0.021 0.042 0.041 0.083 0.066 0.123 0.028 0.046 0.059 0.089 0.091 0.131 0.017 0.021 0.028 0.045 0.046 0.066 0.011 0.013 0.025 0.022 0.037 0.035 0.045 0.049 0.094 0.093 0.145 0.136 0.030 0.026 0.059 0.052 0.091 0.075 0.055 0.039 0.114 0.071 0.174 0.102 0.031 0.017 0.060 0.036 0.092 0.050 0.073 0.032 0.151 0.055 0.229 0.075 0.021 0.006 0.041 0.015 0.062 0.019 0.1 0.021 0.203 0.033 0.309 0.033h0.001c0 0 0 0 0 0 0.094 0 0.188-0.011 0.282-0.029 0.033-0.006 0.064-0.017 0.096-0.026 0.058-0.015 0.116-0.031 0.172-0.053 0.037-0.015 0.070-0.032 0.105-0.049 0.048-0.023 0.095-0.047 0.141-0.076 0.037-0.023 0.070-0.049 0.105-0.075 0.024-0.018 0.051-0.033 0.075-0.053l7.875-6.75c0.018-0.015 0.032-0.035 0.049-0.051s0.037-0.027 0.053-0.044c0.020-0.020 0.032-0.043 0.050-0.064 0.035-0.040 0.067-0.079 0.096-0.122 0.028-0.040 0.053-0.080 0.076-0.122 0.024-0.044 0.047-0.087 0.067-0.133 0.020-0.044 0.037-0.090 0.052-0.136s0.028-0.091 0.038-0.138c0.011-0.047 0.018-0.094 0.024-0.142s0.010-0.095 0.011-0.142 0.002-0.095-0.002-0.142zM21.649 23.683l-4.149 3.556v-7.573l4.149 4.017zM21.781 8.552l-4.281 4.112v-7.859l4.281 3.747z"></path>
</svg>
