<!-- Generated by IcoMoon.io -->
<svg version="1.1" xmlns="http://www.w3.org/2000/svg" width="32" height="32" viewBox="0 0 32 32">
<title>blueberries</title>
<path d="M11.95 9.9c2.55 0.85 4.55 2.65 5.7 4.95 2.25-1.6 5.1-2.2 7.95-1.45 0.2 0.050 0.4 0.1 0.6 0.2 0.7-1.55 0.85-3.4 0.3-5.15-0.75-2.45-2.65-4.25-4.9-4.95v0c-0.7-0.25-0.9-0.95-0.95-1.2 0-0.050 0-0.050 0-0.1 0 0 0 0 0 0v0c-0.050-0.2-0.15-0.35-0.35-0.45 0 0-0.55-0.3-0.95 0.2l-0.5 0.75c-0.050 0.050-0.2 0.15-0.2 0.15-0.3-0.050-0.5-0.35-0.5-0.35v0l-0.3-0.45c-0.4-0.6-1.65-0.95-1.95 0.6v0.55c0 0 0 0.3-0.2 0.4 0 0-0.25 0.050-0.3 0.050l-0.85-0.35c-0.6-0.15-0.9 0.35-0.9 0.35-0.1 0.15-0.1 0.35-0.050 0.5v0c0 0 0 0 0 0s0 0.050 0 0.050v0c0 0 0 0 0 0s0 0.050 0 0.050c0.1 0.3 0.25 1.1-0.1 1.6v0c-0.85 1.15-1.4 2.55-1.55 4.050zM14.6 7.7c0.65-0.8 1.55-1.45 2.55-1.8 1.2-0.4 1.45 0.55 1.45 0.55 0.15 0.55-0.3 0.95-0.8 1.15-0.7 0.25-1.3 0.7-1.8 1.3-0.65 0.75-1.35 0.4-1.35 0.4-0.45-0.25-0.55-1-0.050-1.6zM11 11.1c-4.4-1.15-8.85 1.5-10 5.9s1.5 8.85 5.9 10c4.4 1.15 8.85-1.5 10-5.9s-1.5-8.9-5.9-10zM9.85 19.65l-0.2 0.1c-0.35 0.2-0.6 0.55-0.6 0.95v0.2c-0.1 1-1.3 1.5-2.050 0.85l-0.15-0.15c-0.3-0.25-0.7-0.4-1.1-0.3l-0.25 0.1c-1 0.25-1.85-0.75-1.4-1.7l0.1-0.2c0.15-0.35 0.15-0.8-0.1-1.15l-0.1-0.15c-0.55-0.85 0.15-2 1.2-1.9h0.2c0.4 0.050 0.8-0.1 1.050-0.45l0.15-0.15c0.65-0.8 1.95-0.45 2.15 0.55l0.050 0.2c0.1 0.4 0.35 0.75 0.75 0.9l0.2 0.1c0.9 0.4 1 1.7 0.1 2.2zM7.443 16.951c1.016 0.261 1.629 1.297 1.368 2.313s-1.297 1.629-2.313 1.368c-1.016-0.261-1.629-1.297-1.368-2.313s1.297-1.629 2.313-1.368zM25.1 14.7c-2.5-0.65-5-0.050-6.9 1.35 0.6 1.7 0.7 3.55 0.25 5.45-0.5 1.85-1.5 3.45-2.85 4.65 1 2.15 2.9 3.85 5.4 4.5 4.4 1.15 8.85-1.5 10-5.9 1.15-4.45-1.5-8.9-5.9-10.050zM27.5 25.8l-0.2 0.1c-0.35 0.2-0.6 0.55-0.6 0.95v0.2c-0.1 1-1.3 1.5-2.050 0.85l-0.15-0.15c-0.3-0.25-0.7-0.4-1.1-0.3l-0.2 0.050c-1 0.25-1.85-0.75-1.4-1.7l0.1-0.2c0.15-0.35 0.15-0.8-0.1-1.15l-0.1-0.15c-0.55-0.85 0.15-2 1.2-1.9h0.2c0.4 0.050 0.8-0.1 1.050-0.45l0.15-0.15c0.65-0.8 1.95-0.45 2.15 0.55l0.050 0.2c0.1 0.4 0.35 0.75 0.75 0.9l0.2 0.1c0.85 0.4 0.95 1.75 0.050 2.25zM25.057 23.076c1.016 0.261 1.629 1.297 1.368 2.313s-1.297 1.629-2.313 1.368c-1.016-0.261-1.629-1.297-1.368-2.313s1.297-1.629 2.313-1.368z"></path>
</svg>
