<!-- Generated by IcoMoon.io -->
<svg version="1.1" xmlns="http://www.w3.org/2000/svg" width="32" height="32" viewBox="0 0 32 32">
<title>Bobsled</title>
<path d="M9.836 3.349c0 1.796-1.456 3.252-3.252 3.252s-3.252-1.456-3.252-3.252c0-1.796 1.456-3.252 3.252-3.252s3.252 1.456 3.252 3.252zM16.337 7.349c0 1.796-1.456 3.252-3.252 3.252s-3.252-1.456-3.252-3.252c0-1.796 1.456-3.252 3.252-3.252s3.252 1.456 3.252 3.252zM23.169 11.349c0 1.796-1.456 3.252-3.252 3.252s-3.252-1.456-3.252-3.252c0-1.796 1.456-3.252 3.252-3.252s3.252 1.456 3.252 3.252zM29.837 15.349c0 1.796-1.456 3.252-3.252 3.252s-3.252-1.456-3.252-3.252c0-1.796 1.456-3.252 3.252-3.252s3.252 1.456 3.252 3.252zM26.505 20.731c-0.015-0.011-0.030-0.020-0.046-0.030l-22.044-13.716c-0.821-0.511-1.9-0.26-2.41 0.561s-0.259 1.9 0.562 2.41l21.99 13.683c0.235 0.181 0.95 0.852 0.879 2.236l-21.049-12.54c-0.83-0.495-1.905-0.223-2.4 0.608-0.494 0.83-0.222 1.905 0.608 2.399l23.024 13.716c0.274 0.163 0.584 0.247 0.895 0.247 0.178 0 0.357-0.027 0.53-0.082 0.477-0.152 0.866-0.5 1.070-0.957 2.023-4.555-0.167-7.575-1.608-8.535zM12.209 23.016l-8.818-5.389c-0.353-0.215-0.815-0.105-1.031 0.249s-0.105 0.815 0.248 1.032l8.818 5.389c0.122 0.074 0.257 0.11 0.39 0.11 0.252 0 0.499-0.128 0.64-0.359 0.217-0.354 0.105-0.815-0.248-1.032zM25.42 30.37c-0.356 0.226-0.896 0.015-1.002-0.029l-8.78-5.366c-0.353-0.215-0.815-0.105-1.031 0.249s-0.105 0.815 0.248 1.032l8.818 5.389c0.018 0.011 0.037 0.021 0.055 0.031 0.088 0.044 0.628 0.299 1.292 0.299 0.38 0 0.799-0.083 1.2-0.335 0.35-0.221 0.455-0.684 0.234-1.035s-0.683-0.456-1.034-0.235z"></path>
</svg>
