<!-- Generated by IcoMoon.io -->
<svg version="1.1" xmlns="http://www.w3.org/2000/svg" width="32" height="32" viewBox="0 0 32 32">
<title>Bobsled-dubble</title>
<path d="M17.921 4.966c0 1.86-1.508 3.368-3.368 3.368s-3.368-1.508-3.368-3.368c0-1.86 1.508-3.368 3.368-3.368s3.368 1.508 3.368 3.368zM28.107 11.181c0 1.86-1.508 3.368-3.368 3.368s-3.368-1.508-3.368-3.368c0-1.86 1.508-3.368 3.368-3.368s3.368 1.508 3.368 3.368zM27.418 18.828c-0.015-0.011-0.032-0.020-0.048-0.031l-22.835-14.209c-0.851-0.529-1.968-0.269-2.497 0.582s-0.268 1.968 0.582 2.497l22.779 14.175c0.244 0.188 0.985 0.882 0.911 2.317l-21.805-12.99c-0.86-0.513-1.973-0.231-2.485 0.63s-0.231 1.973 0.629 2.486l23.849 14.208c0.284 0.169 0.605 0.256 0.928 0.256 0.184 0 0.369-0.029 0.549-0.085 0.494-0.157 0.896-0.517 1.107-0.991 2.096-4.718-0.174-7.846-1.666-8.842zM12.609 21.195l-9.134-5.582c-0.366-0.222-0.844-0.108-1.067 0.258s-0.109 0.844 0.257 1.069l9.134 5.582c0.126 0.076 0.266 0.114 0.405 0.114 0.261 0 0.517-0.132 0.663-0.372 0.224-0.367 0.108-0.845-0.258-1.069zM26.294 28.813c-0.368 0.235-0.928 0.016-1.038-0.030l-9.095-5.558c-0.366-0.223-0.845-0.108-1.069 0.258s-0.108 0.844 0.258 1.069l9.134 5.582c0.019 0.011 0.038 0.021 0.058 0.032 0.092 0.046 0.65 0.309 1.338 0.309 0.392 0 0.828-0.086 1.242-0.348 0.363-0.229 0.471-0.709 0.242-1.072-0.229-0.362-0.709-0.472-1.072-0.242z"></path>
</svg>
