<!-- Generated by IcoMoon.io -->
<svg version="1.1" xmlns="http://www.w3.org/2000/svg" width="32" height="32" viewBox="0 0 32 32">
<title>body-suit</title>
<path d="M30.51 6.105l-5.969-5.981c-0.099-0.081-0.223-0.124-0.35-0.124l-4.981-0.001c0 1.773-1.437 3.21-3.21 3.21s-3.21-1.437-3.21-3.21l-4.981 0.001c-0.128 0-0.251 0.043-0.35 0.124l-5.969 5.981c-0.23 0.187-0.272 0.521-0.095 0.76l4.414 4.259c0.090 0.121 0.226 0.201 0.377 0.22 0.152 0.020 0.302-0.024 0.42-0.12l1.49-1.505 0.001 12.722v2.289c0 0.147 0.059 0.288 0.162 0.392 0.029 0.029 0.066 0.046 0.101 0.067 0.052 0.021 0.102 0.046 0.155 0.068 2.87 1.214 5.101 3.643 6.039 6.646 0.454 0.064 0.918 0.098 1.392 0.098s0.938-0.034 1.392-0.098c0.93-2.982 3.136-5.397 5.977-6.62h0.038c0.147 0 0.288-0.058 0.392-0.163 0.005-0.004 0.006-0.011 0.010-0.015 0.096-0.102 0.153-0.235 0.153-0.377v-2.358l0.001-12.652 1.489 1.505c0.117 0.095 0.268 0.139 0.419 0.12 0.15-0.019 0.286-0.098 0.377-0.22l4.414-4.259c0.177-0.238 0.134-0.572-0.095-0.76z"></path>
</svg>
