<!-- Generated by IcoMoon.io -->
<svg version="1.1" xmlns="http://www.w3.org/2000/svg" width="32" height="32" viewBox="0 0 32 32">
<title>boiled-egg</title>
<path d="M10.9 11.75v0c0.45 0.050 0.85-0.25 0.85-0.7 0.050-2.65 1.7-5.2 4.4-6.5 0.35-0.15 0.5-0.6 0.4-0.95v0c-0.15-0.45-0.65-0.6-1.050-0.4-3.15 1.55-5.1 4.6-5.2 7.8 0 0.35 0.25 0.7 0.6 0.75zM25.85 16.5c0.15-0.65-0.1-1.3-0.55-1.65 0.3-2.1 0.050-3.75 0-3.9-0.65-4.3-2.25-7.35-4.75-9.2-2-1.45-3.95-1.55-4.5-1.55-0.050 0-0.050 0-0.1 0-0.35 0-2.2 0.1-4.25 1.45-1.9 1.25-4.25 3.9-5.050 9.35-0.050 0.2-0.25 1.8 0 3.8-0.45 0.4-0.7 1-0.55 1.65 0.85 3.4 3 6.95 8.050 7.9v0.35c0 0 0 1.7-1.75 2.1v0c-1.75 0.55-3.15 1.85-3.8 3.55-0.25 0.7 0.25 1.45 1 1.45h12.65c0.75 0 1.25-0.75 1-1.45-0.65-1.7-2.050-3-3.8-3.55v0c-1.7-0.4-1.75-2.1-1.75-2.1v0-0.25c2.85-0.4 6.8-2 8.15-7.95zM8.45 11.25c1.25-9.3 7.55-9.3 7.55-9.3s0 0 0.050 0c0.55 0 6.2 0.2 7.55 9.3 0 0 0.2 1.4 0 3.2-5.9 0-10.8-0.1-15.15-0.1-0.25-1.75 0-3.1 0-3.1zM11.3 20.25c-0.15 0.15-0.35 0.3-0.6 0.3-0.2 0-0.35-0.050-0.5-0.2-0.95-0.8-1.6-1.85-1.85-3.1-0.050-0.2 0-0.45 0.15-0.6 0.1-0.15 0.3-0.3 0.5-0.3 0.050 0 0.1 0 0.15 0 0 0 0 0 0 0h10.8c0.35 0 0.7 0.3 0.7 0.7 0 0.35-0.3 0.7-0.7 0.7h-9.95c0.25 0.65 0.65 1.2 1.2 1.65 0.3 0.1 0.3 0.55 0.1 0.85z"></path>
</svg>
