<!-- Generated by IcoMoon.io -->
<svg version="1.1" xmlns="http://www.w3.org/2000/svg" width="32" height="32" viewBox="0 0 32 32">
<title>bolt</title>
<path d="M23.68 9.5h-4.098l4.862-6.881c0.303-0.443 0.212-0.913-0.038-1.389-0.251-0.475-0.907-0.692-1.407-0.692v-0.038h-8.731c-0.58 0-1.104 0.377-1.331 0.91l-5.989 14.049c-0.191 0.447-0.144 0.973 0.123 1.378s0.721 0.663 1.208 0.663h3.058l-4.416 11.995c-0.243 0.662 0.026 1.4 0.637 1.752 0.226 0.13 0.474 0.191 0.72 0.191 0.421 0 0.833-0.183 1.117-0.526l15.373-18.596c0.223-0.255 0.358-0.796 0.358-1.161 0-0.8-0.646-1.656-1.446-1.656z"></path>
</svg>
