<!-- Generated by IcoMoon.io -->
<svg version="1.1" xmlns="http://www.w3.org/2000/svg" width="32" height="32" viewBox="0 0 32 32">
<title>book</title>
<path d="M30.657 3.329c-0.401-0.084-0.803 0.171-0.89 0.576l-5.491 25.019c-0.31 1.164-1.462 1.102-1.682 1.078-0.032-0.004-0.062-0.002-0.093-0.002h-19.711c-0.58-0.5-0.641-1-0.617-1.5h19.691c0.552 0 1.1-0.451 1.224-1.004l5.828-25.463c0.123-0.552-0.224-1.033-0.776-1.033h-19c-0.552 0-1.1 0.479-1.223 1.031l-7.125 25.709c0 0-0.64 2.015 1.232 3.575 0.135 0.113 0.304 0.186 0.48 0.186h19.957c0.093 0 0.194 0.011 0.302 0.011 0.979 0 2.499-0.448 2.974-2.235l5.5-25.056c0.087-0.405-0.171-0.804-0.576-0.891zM10.534 10.501l0.966-4.401c0.146-0.54 0.723-0.978 1.287-0.976l10.19 0.019c0.564 0.001 0.904 0.44 0.757 0.98l-1.235 4.401c-0.146 0.54-0.723 0.977-1.287 0.976l-9.922-0.020c-0.565-0.001-0.903-0.439-0.757-0.979z"></path>
</svg>
