<!-- Generated by IcoMoon.io -->
<svg version="1.1" xmlns="http://www.w3.org/2000/svg" width="32" height="32" viewBox="0 0 32 32">
<title>boomerang-stick</title>
<path d="M1.97 8.902c0 0-0.672 0.348-1.226 0.845-0.745 0.733-0.745 1.754-0.492 2.486 0.295 0.579 0.829 1.031 1.514 1.18 0.115 0.025 1.253-0.053 1.599-0.254 0.994-0.241 1.971-0.417 2.929-0.551-0.25-2.038-0.717-3.767-1.306-5.099-1.884 0.798-3.019 1.393-3.019 1.393zM31.922 25.36c0 0-0.104-1.23-0.427-3.183-1.027 0.166-2.079 0.398-3.134 0.698-0.691 0.197-1.343 0.414-1.971 0.642 0.433 0.936 0.838 1.916 1.192 2.95 0.015 0.399 0.56 1.402 0.643 1.486 0.871 0.881 2.291 0.887 3.169 0.017 0.697-0.691 0.529-2.61 0.529-2.61zM31.324 21.192c-0.084-0.459-0.178-0.947-0.285-1.458-1.099 0.167-2.229 0.413-3.361 0.736-0.86 0.244-1.67 0.517-2.432 0.81 0.241 0.43 0.477 0.873 0.707 1.33 0.684-0.253 1.396-0.488 2.136-0.698 1.087-0.309 2.173-0.548 3.236-0.72zM30.828 18.756c-0.886-3.941-2.435-9.014-5.087-13.4-0.395-0.652-0.926-1.106-1.533-1.389-0.575-0.38-1.258-0.6-2.041-0.583-5.174 0.117-10.336 1.558-14.148 2.938 0.819 1.531 1.433 3.6 1.746 5.991 3.986-0.124 7.319 0.478 9.21 0.935 0.020 0.008 0.043 0.017 0.070 0.027 0.030 0.024 0.063 0.052 0.085 0.067 1.372 1.323 3.604 3.74 5.607 7.065 0.843-0.331 1.733-0.634 2.666-0.899 1.151-0.328 2.302-0.578 3.424-0.752zM5.91 7.13c0.641 1.46 1.119 3.291 1.376 5.354 0.502-0.054 0.995-0.094 1.481-0.123-0.318-2.386-0.937-4.327-1.693-5.688-0.409 0.155-0.796 0.308-1.164 0.457z"></path>
</svg>
