<!-- Generated by IcoMoon.io -->
<svg version="1.1" xmlns="http://www.w3.org/2000/svg" width="32" height="32" viewBox="0 0 32 32">
<title>boots</title>
<path d="M21.879 2.368c0.018 0 0.035 0.004 0.053 0.006l0.459-2.223h-12.23c0 0 0.169 0.909 0.363 2.217h11.355zM16.861 16.762c0.311 0.819 0.581 2.305 0.723 3.734 0.922-1.040 1.63-2.079 1.784-2.921 0.43-2.355-0.455-8.546-0.832-10.733-0.055-0.323 0.034-0.655 0.245-0.906s0.523-0.395 0.85-0.395h1.647l0.33-1.598h-10.867c0.285 2.257 0.512 4.978 0.224 6.553-0.556 3.038-6.192 7.353-7.612 8.185-2.167 1.267-3.24 2.48-3.349 3.948l-0.003 0.067c0 0.532 0.362 0.908 1.075 1.116 0.294 0.087 1.841 0.5 3.28 0.583 3.654 0.212 5.836-0.381 6.841-1.247l5.665-6.387zM31.172 10.969h-1.846c-0.282 0.772-1.017 1.326-1.887 1.326s-1.605-0.554-1.887-1.326h-5.308c0.283 2.418 0.5 5.254 0.216 6.807-0.561 3.067-6.253 7.424-7.686 8.264-2.189 1.28-3.273 2.505-3.383 3.989l-0.002 0.067c0 0.537 0.366 0.916 1.085 1.126 0.297 0.088 1.86 0.506 3.313 0.59 3.688 0.213 6.808-0.497 7.823-1.372l4.734-5.409c0.462 1.219 0.908 2.971 0.908 4.771v0.919h2.792v-0.919c0-2.523 0.708-4.459 1.075-5.523 0.363-0.988 1.965-4.469-0.936-8.162l0.988-5.148zM20.046 9.396c0.009-0.001 0.017-0.004 0.026-0.004h5.565c0.329-0.665 1.009-1.128 1.802-1.128s1.473 0.463 1.802 1.128h2.234l0.524-2.738h-12.369c0 0 0.198 1.148 0.415 2.742z"></path>
</svg>
