<!-- Generated by IcoMoon.io -->
<svg version="1.1" xmlns="http://www.w3.org/2000/svg" width="32" height="32" viewBox="0 0 32 32">
<title>bowling-ball</title>
<path d="M16 0c-8.836 0-16 7.163-16 16s7.163 16 16 16 16-7.163 16-16c0-8.836-7.163-16-16-16zM7.668 10.686c-0.764 0.591-1.795 0.54-2.302-0.114s-0.298-1.666 0.466-2.258c0.764-0.591 1.795-0.54 2.302 0.114s0.298 1.666-0.466 2.258zM9.866 6.072c-0.508-0.655-0.299-1.666 0.466-2.257s1.795-0.541 2.302 0.115 0.299 1.666-0.466 2.257c-0.764 0.591-1.794 0.54-2.302-0.114zM13.75 13.5c-0.966 0-1.75-0.784-1.75-1.75s0.784-1.75 1.75-1.75 1.75 0.784 1.75 1.75-0.784 1.75-1.75 1.75z"></path>
</svg>
