<!-- Generated by IcoMoon.io -->
<svg version="1.1" xmlns="http://www.w3.org/2000/svg" width="32" height="32" viewBox="0 0 32 32">
<title>bowling-pins</title>
<path d="M13.994 8.5c-0.020 0.5-0.062 1-0.129 1.5h4.575c-0.067-0.5-0.11-1-0.128-1.5h-4.318zM20.538 16.405c-0.374-1.401-0.881-2.593-1.482-3.521-0.14-0.473-0.256-0.883-0.352-1.383h-5.1c-0.088 0.5-0.192 0.828-0.316 1.258-0.659 0.978-1.209 2.495-1.602 4.025-0.002 0.003-0.003 0.217-0.005 0.217h0.002c-0.422 1.5-0.665 3.241-0.665 5.27 0 4.366 1.119 8.23 2.756 9.73h4.715c1.637-1.5 2.757-5.58 2.757-9.947 0-2.028-0.242-3.884-0.665-5.53-0 0-0.013-0.063-0.043-0.118zM13.688 4.171c0.13 0.694 0.255 1.829 0.302 2.829h4.328c0.047-1 0.172-2.135 0.302-2.829 0.223-0.388 0.346-1.477 0.344-1.523 0.005-0.014 0.007-0.062 0.007-0.062l-0.008-0.018c-0.086-1.421-1.308-2.559-2.808-2.559s-2.721 1.123-2.808 2.545l-0.008-0.003c0 0 0.002 0.083 0.008 0.098-0.003 0.046 0.12 1.134 0.344 1.522zM10.793 16.569h-0.004c0.001 0 0.001 0.005 0.002 0.009 0-0.003 0.001-0.006 0.002-0.009zM5.649 10.5c-0.016 0.5-0.053 1-0.112 1.5h3.97c-0.058-0.5-0.095-1-0.112-1.5h-3.747zM10.695 16.017c-0.2-0.443-0.418-0.925-0.655-1.29-0.121-0.41-0.222-0.727-0.306-1.227h-4.426c-0.077 0.5-0.167 0.745-0.274 1.118-0.572 0.848-1.049 2.014-1.391 3.343-0.002 0.002-0.003 0.039-0.004 0.039h0.002c-0.367 1.5-0.577 3.054-0.577 4.815 0 3.788 0.97 7.049 2.392 8.685h4.092c0.497-0.573 0.937-1.35 1.302-2.277-0.543-2.035-0.857-4.408-0.857-6.932-0.001-2.269 0.255-4.213 0.701-6.273zM5.383 7.12c0.112 0.601 0.221 1.38 0.261 2.38h3.755c0.040-1 0.149-1.777 0.261-2.38 0.194-0.336 0.3-1.139 0.298-1.178 0.004-0.013 0.007 0.058 0.007 0.058h-0.008c-0.074-2-1.135-2.319-2.437-2.319s-2.362 0.926-2.437 2.16l-0.007-0.027c0 0 0.002 0.023 0.006 0.035-0.002 0.040 0.104 0.936 0.299 1.272zM22.878 10.5c-0.017 0.5-0.053 1-0.112 1.5h3.971c-0.058-0.5-0.095-1-0.113-1.5h-3.746zM28.592 17.952c0 0-0.011-0.095-0.037-0.142-0.324-1.216-0.764-2.277-1.285-3.083-0.122-0.41-0.223-0.728-0.306-1.228h-4.425c-0.077 0.5-0.166 0.745-0.273 1.118-0.257 0.381-0.493 0.871-0.708 1.37 0.451 1.888 0.711 4.044 0.711 6.331 0 2.54-0.318 4.927-0.867 6.959 0.362 0.895 0.796 1.658 1.285 2.221h4.092c1.421-1.636 2.392-4.921 2.392-8.709 0-1.759-0.21-3.41-0.577-4.838zM22.611 7.12c0.113 0.601 0.221 1.38 0.262 2.38h3.755c0.041-1 0.149-1.777 0.262-2.38 0.194-0.336 0.3-1.139 0.299-1.178 0.003-0.013 0.006 0.058 0.006 0.058h-0.008c-0.075-2-1.136-2.319-2.436-2.319s-2.362 0.926-2.437 2.16l-0.007-0.027c0 0 0.003 0.023 0.006 0.035-0.002 0.040 0.105 0.936 0.299 1.272z"></path>
</svg>
