<!-- Generated by IcoMoon.io -->
<svg version="1.1" xmlns="http://www.w3.org/2000/svg" width="32" height="32" viewBox="0 0 32 32">
<title>boxing-helmet</title>
<path d="M2.5 21c0.103 0 0.203-0.015 0.302-0.030-0.991-3.963-1.383-8.318-1.149-11.775-0.679 0.319-1.153 1.005-1.153 1.806v8c0 1.105 0.895 2 2 2zM29.5 21c1.105 0 2-0.895 2-2v-8c0-0.8-0.474-1.486-1.153-1.806 0.233 3.457-0.158 7.812-1.149 11.775 0.1 0.015 0.199 0.030 0.302 0.030zM8.466 2c0.229 0 3.534 0 7.534 0s7.305 0 7.534 0c1.409 0 2.524-0.003 3.369 0.517 0.060-0.162 0.098-0.334 0.098-0.517 0-0.829-0.672-1.5-1.5-1.5h-19c-0.829 0-1.5 0.671-1.5 1.5 0 0.183 0.037 0.355 0.097 0.517 0.845-0.52 1.96-0.517 3.369-0.517zM28.849 9.194c-0.064-0.979-0.174-1.889-0.334-2.694-0.33-1.657-0.866-2.523-1.613-2.983-0.845-0.52-1.96-0.517-3.369-0.517-0.229 0-3.534 0-7.534 0s-7.305 0-7.534 0c-1.409 0-2.524-0.003-3.369 0.517-0.748 0.459-1.283 1.326-1.613 2.983-0.16 0.806-0.271 1.715-0.334 2.694-0.224 3.457 0.152 7.812 1.107 11.775 0.755 3.139 1.872 6.030 3.34 8.030 2.237 2.366 5.903 2.494 8.403 2.5 2.5-0.006 6.165-0.133 8.403-2.5 1.468-2 2.584-4.892 3.34-8.030 0.955-3.963 1.331-8.318 1.107-11.775zM11.5 5.818c0-0.452 0.366-0.818 0.819-0.818h7.364c0.452 0 0.818 0.366 0.818 0.818v2.364c0 0.452-0.366 0.818-0.819 0.818h-7.363c-0.453 0-0.819-0.366-0.819-0.818v-2.364zM25 17c0 0.123-0.019 0.241-0.047 0.355-0.035 0.406-0.672 1.145-0.953 1.145-2.209 0-4 1.791-4 4 0 1.595 0.936 2.968 2.285 3.61-0.131 0.191-0.264 0.373-0.404 0.544-1.566 1.489-4.131 1.57-5.881 1.574-1.75-0.003-4.316-0.081-5.882-1.57-0.14-0.172-0.275-0.356-0.406-0.547 1.352-0.642 2.288-2.015 2.288-3.611 0-2.209-1.79-4-4-4-0.282 0-0.92-0.741-0.954-1.148-0.027-0.113-0.046-0.23-0.046-0.352 0-0.048 0.010-0.093 0.014-0.14-0.059-0.93-0.068-1.827-0.009-2.643 0.045-0.616 0.122-1.163 0.234-1.669 0.231-1.042 0.606-1.029 1.129-1.318 0.591-0.327 1.372-0.231 2.358-0.231 0.16 0 2.473 0 5.274 0s5.114 0 5.273 0c0.986 0 1.767-0.096 2.358 0.231 0.523 0.289 0.898 0.22 1.129 1.262 0.113 0.506 0.189 1.081 0.235 1.697 0.059 0.82 0.051 1.726-0.010 2.664 0.005 0.049 0.015 0.096 0.015 0.145z"></path>
</svg>
