<!-- Generated by IcoMoon.io -->
<svg version="1.1" xmlns="http://www.w3.org/2000/svg" width="32" height="32" viewBox="0 0 32 32">
<title>boxing-glove</title>
<path d="M5.189 7.045c-3.804 1.343-5.689 4.955-5.087 7.68 0.084 0.382 0.305 0.709 0.521 1.022 0.316-0.277 0.68-0.484 1.091-0.591 1.655-0.429 3.43 0.854 4.163 2.915 0.942-0.015 1.928-0.185 2.91-0.532 3.146-1.112 5.242-3.656 5.31-6.144-0.127-0.594-0.243-1.205-0.341-1.819-1.145-2.692-4.892-3.829-8.567-2.53zM13.992 10.289c-0.034-0.145-0.068-0.289-0.117-0.431-0.034-0.098-0.079-0.188-0.118-0.283 0.098 0.614 0.214 1.225 0.341 1.819 0.009-0.372-0.023-0.742-0.107-1.106zM3.606 22.665c1.232-0.32 1.946-1.793 1.715-3.404-0.021-0.149-0.048-0.3-0.086-0.451-0.035-0.137-0.077-0.268-0.123-0.397-0.55-1.55-1.885-2.514-3.13-2.192-0.309 0.081-0.583 0.236-0.821 0.445-0.798 0.703-1.154 2.040-0.808 3.412 0.334 1.322 1.221 2.299 2.208 2.572 0.342 0.095 0.696 0.107 1.044 0.017zM14.501 13.118c-0.99 2.698-2.287 4.332-5.489 5.464-0.988 0.349-1.95 0.556-2.857 0.618 0.306 2.143-0.642 4.102-2.282 4.528-0.462 0.12-0.932 0.105-1.387-0.021 2.983 2.189 6.271 3.8 6.436 3.881 0.078 0.913 0.078 3.413 1.9 4.306 1.602 0.785 8.207-3.428 8.813-4.7 0.209-0.438 0.006-1.168-0.357-1.917-2.493-0.546-5.139-1.502-5.287-2.518-0.261-1.783 0.491-4.758 1.27-4.758 0.492 0 0.492-0.5 0.492-0.5s-0.985-2-1.252-4.382zM15.53 27.117c0.177 0.134 0.213 0.39 0.081 0.57l-0.537 0.73 0.893-0.088c0.22-0.021 0.417 0.142 0.438 0.366s-0.14 0.424-0.36 0.445l-1.622 0.16-0.976 1.325c-0.133 0.18-0.383 0.218-0.562 0.082-0.177-0.135-0.213-0.39-0.081-0.571l0.537-0.73-0.893 0.088c-0.22 0.021-0.417-0.142-0.438-0.366s0.14-0.423 0.361-0.445l1.622-0.16 0.976-1.326c0.133-0.18 0.384-0.217 0.563-0.081zM14.172 24.227c0.177 0.135 0.214 0.39 0.081 0.57l-0.537 0.73 0.893-0.088c0.22-0.022 0.417 0.142 0.438 0.366s-0.14 0.424-0.361 0.445l-1.621 0.161-0.976 1.325c-0.133 0.18-0.384 0.218-0.562 0.082s-0.213-0.39-0.081-0.572l0.537-0.729-0.893 0.088c-0.22 0.021-0.417-0.142-0.438-0.366s0.139-0.424 0.361-0.446l1.621-0.16 0.976-1.325c0.133-0.18 0.384-0.217 0.563-0.081zM27.608 1.158c-3.643-1.708-7.857-0.43-9.409 2.853-0.182 0.386-0.316 0.782-0.41 1.183 0 0-0.090 0.245-0.072 0.379-0.14 0.827-0.107 1.67 0.087 2.488-0.215 1.388-1.052 0.735-1.052 0.735-0.938-1.024 0.107-4.825 0.107-4.825-2.481 0.377-2.333 3.78-2.333 3.78 0.052 0.543 0.127 1.095 0.216 1.644 0.040 0.092 0.085 0.181 0.118 0.277 0.049 0.139 0.084 0.281 0.117 0.422 0.084 0.357 0.116 0.72 0.106 1.084 0.127 0.585 0.264 1.153 0.403 1.69 0.6 2.311 1.236 4.039 1.236 4.039 0.189 0.125 0.38 0.242 0.57 0.356 4.597 2.746 9.175 2.049 9.175 2.049 0.046-0.979 0.738-2.188 0.738-2.188 3.646-4.247 4.553-7.885 4.553-7.885l-0.015-0.005c0.853-3.076-0.838-6.532-4.134-8.075zM25.826 20.247c-0.52 0.16-4.123 0.164-8.401-1.907-0.225-0.108-0.45-0.219-0.678-0.34-0.688-0.363-2.031 2.569-1.771 4.316 0.149 0.995 2.794 1.931 5.287 2.468 1.886 0.405 3.683 0.582 4.247 0.38 1.311-0.468 1.863-5.084 1.316-4.917z"></path>
</svg>
