<!-- Generated by IcoMoon.io -->
<svg version="1.1" xmlns="http://www.w3.org/2000/svg" width="32" height="32" viewBox="0 0 32 32">
<title>Boxing</title>
<path d="M23.166 4c0 2.025-1.642 3.667-3.666 3.667s-3.666-1.642-3.666-3.667c0-2.025 1.642-3.667 3.666-3.667s3.666 1.642 3.666 3.667zM27.72 8.072c0.768-0.488 1.28-1.344 1.28-2.322 0-1.519-1.232-2.75-2.75-2.75s-2.75 1.231-2.75 2.75c0 0.675 0.244 1.292 0.647 1.77-0.377 0.75-0.953 1.537-1.81 1.932-1.671 0.768-3.962-0.156-5.733-1.181-0.127-0.104-0.265-0.181-0.41-0.244-0.009-0.005-0.017-0.011-0.026-0.016-0.822-0.506-1.902-0.25-2.407 0.573-0.075 0.122-0.129 0.25-0.171 0.38-0.075 0.102-0.136 0.213-0.186 0.328-1.197 1.434-2.964 4.316-2.112 8.15 0.018 0.081 0.045 0.159 0.073 0.235l-1.438 6.517-6.002 4.675c-0.59 0.459-0.823 1.242-0.58 1.949s0.907 1.181 1.655 1.181h3.5c0.966 0 1.75-0.784 1.75-1.75 0-0.551-0.255-1.042-0.652-1.363l2.977-2.319c0.322-0.25 0.546-0.605 0.634-1.003l1.137-5.154 4.094 3.326-2.090 5.931c-0.189 0.535-0.106 1.13 0.222 1.593s0.86 0.739 1.428 0.739h3.5c0.966 0 1.75-0.784 1.75-1.75s-0.784-1.75-1.75-1.75h-1.028l1.678-4.762c0.245-0.698 0.027-1.474-0.547-1.94l-6.412-5.21 0.018-0.085c0.146-0.659-0.107-1.308-0.591-1.713 0.052-0.415 0.143-0.806 0.266-1.163 1.042 1.617 2.624 3.401 4.812 4.090 0.514 0.162 1.136 0.283 1.846 0.283 0.834 0 1.794-0.174 2.84-0.64 0.273 0.091 0.564 0.142 0.867 0.142 1.518 0 2.75-1.231 2.75-2.75s-1.232-2.75-2.75-2.75c-0.15 0-0.296 0.015-0.439 0.039 1.558-1.098 2.437-2.718 2.909-3.967zM20.753 14.379c-0.745-0.233-1.419-0.775-2.002-1.428 0.761 0.19 1.492 0.29 2.191 0.29 0.823 0 1.599-0.139 2.333-0.402-0.387 0.399-0.652 0.916-0.741 1.492-0.629 0.205-1.22 0.225-1.782 0.049z"></path>
</svg>
