<!-- Generated by IcoMoon.io -->
<svg version="1.1" xmlns="http://www.w3.org/2000/svg" width="32" height="32" viewBox="0 0 32 32">
<title>Brain</title>
<path d="M24.927 22.802c0.659-3.538 4.169-5.56 4.080-11.331-0.189-12.363-17.218-14.986-22.55-6.631-2.024 3.172-1.181 6.971-1.245 8.152-0.094 1.717-1.242 3.238-1.854 4.312-1.378 2.416 1.598 1.745 1.325 2.38-0.638 1.485-0.332 1.815 0.372 1.806-0.686 0.442-0.335 1.265 0.482 1.265-1.030 4.619 2.029 4.193 5.611 3.651 1.846-0.279 2.503 3.407 2.636 5.594h12.67c-1.389-3.198-2.043-6.433-1.527-9.199zM16.305 2.163c0.986-0.119 1.886 0.479 2.176 1.409l0.313 1.004 0.739-0.748c0.33-0.335 0.741-0.54 1.188-0.595 1.122-0.135 2.125 0.671 2.259 1.769 0.023 0.193 0.011 0.405-0.038 0.646l-0.149 0.739 0.753 0.018c1.015 0.025 1.841 0.77 1.963 1.772 0.027 0.22 0.015 0.447-0.036 0.674-0.142-0.023-0.286-0.034-0.432-0.034-1.134 0-2.052 0.652-2.499 1.040-0.296 0.257-0.748 0.274-1.549 0.065-0.323-0.084-0.555-0.384-0.541-0.698 0.004-0.099 0.051-0.183 0.166-0.365 0.142-0.225 0.318-0.504 0.351-0.909 0.062-0.774-0.456-1.623-1.179-1.933-0.312-0.134-0.63-0.202-0.946-0.202-0.928 0-1.698 0.581-2.261 1.006l-0.239 0.178c-0.090 0.066-0.204 0.1-0.338 0.1-0.182 0-0.394-0.066-0.566-0.176-0.112-0.071-0.472-0.334-0.391-0.729l0.049-0.234c0.253-1.215 0.282-1.704-0.375-2.647 0.299-0.628 0.897-1.066 1.581-1.149zM13.729 11.114l-0.114 0.011c-0.922 0.101-1.793-0.452-2.11-1.31l-0.309-0.836-0.686 0.569c-0.336 0.278-0.738 0.439-1.161 0.466-1.129 0.077-2.081-0.79-2.15-1.898-0.069-1.116 0.782-2.080 1.898-2.151 0.259-0.017 0.52 0.019 0.773 0.105l0.758 0.256 0.072-0.796c0.085-0.945 0.831-1.713 1.772-1.828 0.38-0.046 0.762 0.022 1.123 0.199 0.502 0.669 0.482 0.765 0.266 1.802l-0.050 0.237c-0.161 0.785 0.201 1.569 0.946 2.045 0.026 0.017 0.053 0.032 0.079 0.046l-0.009 0.034 0.127 0.034c0.1 0.027 0.201 0.142 0.286 0.324 0.217 0.465 0.226 1.192 0.089 1.486-0.265 0.569-0.768 0.944-1.604 1.207zM20.21 16.461v0c-1.008 0-1.87-0.748-2.006-1.742l-0.128-0.942-0.818 0.485c-0.246 0.146-0.511 0.236-0.788 0.271-0.541 0.068-1.069-0.082-1.495-0.416-0.427-0.335-0.698-0.816-0.763-1.353-0.018-0.145-0.014-0.305 0.011-0.487 1.114-0.37 1.85-0.972 2.253-1.837 0.258-0.553 0.277-1.422 0.055-2.16 0.21-0.057 0.398-0.147 0.56-0.267l0.25-0.187c0.777-0.585 1.311-0.928 1.95-0.651 0.227 0.096 0.438 0.435 0.419 0.673-0.007 0.088-0.060 0.176-0.161 0.338-0.143 0.227-0.339 0.538-0.358 0.982-0.021 0.49 0.152 0.975 0.48 1.352-0.072 0.050-0.134 0.098-0.19 0.149-0.512 0.454-0.735 1.041-0.627 1.653 0.181 1.028 0.97 1.781 2.222 2.122 0.556 0.152 0.79 0.475 0.692 0.96-0.080 0.399-0.368 0.785-0.755 1.012l-0.677 0.043c-0.042 0.002-0.084 0.003-0.126 0.003zM23.049 20.16c-1.124 0.133-2.125-0.671-2.259-1.768-0.021-0.178-0.015-0.365 0.018-0.556 1.085-0.222 1.982-1.108 2.198-2.186 0.23-1.146-0.397-2.098-1.598-2.425-0.533-0.146-1.194-0.458-1.311-1.123-0.030-0.169 0.044-0.334 0.221-0.49 0.326-0.289 0.813-0.382 1.011-0.322l0.133 0.025 0.006-0.020c0.791 0.095 1.419-0.070 1.901-0.489 0.25-0.219 0.912-0.726 1.662-0.726 0.194 0 0.381 0.035 0.566 0.108 0.637 0.302 1.067 0.893 1.151 1.584 0.087 0.71-0.221 1.423-0.805 1.861l-0.471 0.354 0.32 0.495c0.175 0.269 0.282 0.555 0.317 0.85 0.098 0.801-0.289 1.583-0.987 1.991l-0.35 0.206 0.042 0.404c0.114 1.094-0.679 2.092-1.768 2.225z"></path>
</svg>
