<!-- Generated by IcoMoon.io -->
<svg version="1.1" xmlns="http://www.w3.org/2000/svg" width="32" height="32" viewBox="0 0 32 32">
<title>Brazil-real</title>
<path d="M12.726 19.099c-0.546-0.669-1.239-1.282-2.079-1.841 1.688-0.279 2.954-0.955 3.803-2.028s1.272-2.432 1.272-4.079c0-1.297-0.28-2.45-0.839-3.458s-1.304-1.709-2.236-2.104c-0.931-0.394-2.424-0.591-4.478-0.591h-8.169v21.944h3.881v-9.161h0.787c0.892 0 1.543 0.082 1.954 0.247s0.8 0.469 1.167 0.913c0.367 0.444 1.050 1.519 2.046 3.226l2.806 4.775h4.642l-2.348-4.282c-0.927-1.706-1.663-2.893-2.21-3.562zM6.753 14.279h-2.872v-5.568h3.029c1.573 0 2.518 0.025 2.832 0.074 0.63 0.12 1.117 0.407 1.462 0.861s0.518 1.050 0.518 1.789c0 0.659-0.131 1.207-0.393 1.646s-0.626 0.748-1.089 0.928c-0.463 0.18-1.626 0.27-3.488 0.27zM31.236 17.073c-0.51-0.939-1.215-1.678-2.117-2.219s-2.294-1.065-4.177-1.571c-1.882-0.506-3.067-0.992-3.555-1.459-0.384-0.367-0.575-0.809-0.575-1.325 0-0.566 0.204-1.018 0.614-1.354 0.636-0.525 1.517-0.789 2.64-0.789 1.089 0 1.906 0.245 2.451 0.736s0.899 1.299 1.065 2.42l3.869-0.194c-0.061-2.005-0.699-3.608-1.915-4.81-0.853-0.843-2.006-1.383-3.445-1.635v-3.116h-3.762v3.1c-0.732 0.124-1.402 0.321-1.994 0.609-1.041 0.506-1.838 1.243-2.393 2.211-0.552 0.968-0.829 2.008-0.829 3.12 0 1.726 0.588 3.191 1.765 4.392 0.837 0.854 2.291 1.573 4.365 2.16 1.612 0.456 2.645 0.774 3.098 0.953 0.662 0.268 1.126 0.584 1.392 0.945s0.398 0.802 0.398 1.317c0 0.804-0.316 1.507-0.948 2.108s-1.57 0.901-2.817 0.901c-1.176 0-2.11-0.338-2.803-1.013s-1.152-1.732-1.38-3.172l-3.764 0.417c0.252 2.442 1.028 4.301 2.326 5.576 0.913 0.898 2.112 1.473 3.582 1.739v3.124h3.762v-3.076c0.904-0.125 1.715-0.34 2.407-0.669 1.115-0.531 1.977-1.343 2.588-2.435 0.61-1.091 0.914-2.262 0.914-3.513 0-1.38-0.255-2.539-0.764-3.477z"></path>
</svg>
