<!-- Generated by IcoMoon.io -->
<svg version="1.1" xmlns="http://www.w3.org/2000/svg" width="32" height="32" viewBox="0 0 32 32">
<title>bread</title>
<path d="M31.9 11.25c0 0 0 0 0 0-0.35-4.1-5.15-7.35-11.050-7.35-0.35 0-5.9 0-6.4 0-0.85 0-2-0.050-3.050 0 0 0 0 0 0 0-0.1 0-0.2 0-0.3 0-5.9 0-10.7 3.25-11.050 7.35 0 0 0 0 0 0 0 1.45 0.3 2.2 0.3 2.2 0.25 0.7 0.7 1.35 1.2 1.8 0.95 0.85 1.5 2.15 1.5 3.45v6.9c0 1.45 1.15 2.6 2.55 2.6h20.75c1.4 0 2.55-1.15 2.55-2.6v-6.5c0.15-1.45 0.55-1.5 1.5-2.85 0.3-0.5 1.9-2.7 1.5-5zM20.3 12.45c-0.1 0.45-0.7 1.4-0.8 1.5-1.3 1.2-2.050 2.9-2.050 4.7v6.9c0 0.5-0.4 0.9-0.85 0.9h-11c-0.45 0-0.85-0.4-0.85-0.9v-6.9c0-1.8-0.75-3.55-2.050-4.7-0.3-0.3-0.6-0.65-0.75-1.1v0c-0.050-0.1-0.15-0.6-0.15-1.5 0.3-3.15 4.45-5.7 9.35-5.7 4.85 0 9.050 2.55 9.35 5.75-0.050 0.2-0.1 0.6-0.2 1.050zM11.45 9.75l0.15-0.2c0.15-0.2 0.050-0.5-0.15-0.65l-1.5-0.9c-0.2-0.15-0.5-0.050-0.65 0.15l-0.15 0.2c-0.15 0.2-0.050 0.5 0.15 0.65l1.45 0.85c0.25 0.15 0.55 0.1 0.7-0.1zM16 17.4c-0.15-0.2-0.4-0.3-0.65-0.15l-1.45 0.85c-0.2 0.15-0.3 0.4-0.15 0.65l0.1 0.2c0.15 0.2 0.4 0.3 0.65 0.15l1.45-0.85c0.2-0.15 0.3-0.4 0.15-0.65l-0.1-0.2zM6.85 11.050l-0.15-0.2c-0.15-0.2-0.45-0.25-0.65-0.1l-1.4 0.95c-0.2 0.15-0.25 0.45-0.1 0.65l0.15 0.15c0.15 0.2 0.45 0.25 0.65 0.1l1.4-0.95c0.2-0.1 0.25-0.4 0.1-0.6zM8.9 21.25l-0.2-0.1c-0.2-0.15-0.5-0.050-0.65 0.15l-0.85 1.45c-0.15 0.2-0.050 0.5 0.15 0.65l0.2 0.1c0.2 0.15 0.5 0.050 0.65-0.15l0.85-1.45c0.15-0.2 0.1-0.5-0.15-0.65zM8.8 17.3l-0.050-0.25c-0.050-0.25-0.3-0.4-0.55-0.35l-1.6 0.3c-0.25 0.050-0.4 0.3-0.35 0.55l0.050 0.25c0.050 0.25 0.3 0.4 0.55 0.35l1.65-0.3c0.2-0.1 0.35-0.3 0.3-0.55zM17.65 10.45l-1.7 0.050c-0.25 0-0.45 0.25-0.45 0.5v0.25c0 0.25 0.25 0.45 0.5 0.45l1.65-0.050c0.25 0 0.45-0.25 0.45-0.5v-0.25c0-0.25-0.2-0.45-0.45-0.45zM13.9 14.6l0.050-0.25c0.050-0.25-0.1-0.5-0.35-0.55l-1.65-0.3c-0.25-0.050-0.5 0.1-0.55 0.35l-0.050 0.25c-0.050 0.25 0.1 0.5 0.35 0.55l1.65 0.35c0.25 0.050 0.5-0.15 0.55-0.4zM14.55 21.95l-1.65-0.35c-0.25-0.050-0.5 0.1-0.55 0.35l-0.050 0.25c-0.050 0.25 0.1 0.5 0.35 0.55l1.65 0.35c0.25 0.050 0.5-0.1 0.55-0.35l0.050-0.25c0.1-0.3-0.1-0.5-0.35-0.55z"></path>
</svg>
