<!-- Generated by IcoMoon.io -->
<svg version="1.1" xmlns="http://www.w3.org/2000/svg" width="32" height="32" viewBox="0 0 32 32">
<title>brick-wall</title>
<path d="M15 13.906c0-0.5-0.405-0.906-0.906-0.906h-7.688c-0.5 0-0.906 0.406-0.906 0.906v3.688c0 0.5 0.405 0.906 0.906 0.906h7.688c0.501 0 0.906-0.406 0.906-0.906v-3.688zM26.5 13.906c0-0.5-0.405-0.906-0.905-0.906h-7.689c-0.5 0-0.905 0.406-0.905 0.906v3.688c0 0.5 0.405 0.906 0.905 0.906h7.689c0.5 0 0.905-0.406 0.905-0.906v-3.688zM9.5 6.406c0-0.5-0.405-0.906-0.906-0.906h-7.688c-0.5 0-0.906 0.406-0.906 0.906v3.688c0 0.5 0.406 0.906 0.906 0.906h7.689c0.5 0 0.906-0.406 0.906-0.906v-3.688zM20.5 6.406c0-0.5-0.405-0.906-0.906-0.906h-7.688c-0.501 0-0.906 0.406-0.906 0.906v3.688c0 0.5 0.405 0.906 0.906 0.906h7.688c0.5 0 0.906-0.406 0.906-0.906v-3.688zM32 6.406c0-0.5-0.405-0.906-0.906-0.906h-7.688c-0.5 0-0.906 0.405-0.906 0.906v3.689c0 0.5 0.405 0.906 0.906 0.906h7.689c0.5 0 0.906-0.405 0.906-0.906v-3.688zM9.5 21.406c0-0.5-0.405-0.906-0.906-0.906h-7.688c-0.5 0-0.906 0.405-0.906 0.906v3.689c0 0.5 0.406 0.905 0.906 0.905h7.689c0.5 0 0.906-0.405 0.906-0.906v-3.688zM20.5 21.406c0-0.5-0.406-0.906-0.907-0.906h-7.687c-0.501 0-0.906 0.405-0.906 0.906v3.689c0 0.5 0.406 0.906 0.906 0.906h7.688c0.5-0 0.906-0.406 0.906-0.907v-3.688zM32 21.406c0-0.5-0.405-0.906-0.906-0.906h-7.688c-0.5 0-0.906 0.405-0.906 0.906v3.689c0 0.5 0.405 0.906 0.906 0.906h7.689c0.5 0 0.906-0.405 0.906-0.906v-3.689z"></path>
</svg>
