<!-- Generated by IcoMoon.io -->
<svg version="1.1" xmlns="http://www.w3.org/2000/svg" width="32" height="32" viewBox="0 0 32 32">
<title>bridge</title>
<path d="M32 20v-2.5h-3v-8.886c0-0.615-0.442-1.114-1.055-1.114h-1.206c-0.615 0-1.238 0.498-1.238 1.114v0.769c-3 1.395-6.056 2.178-9.5 2.178s-6.5-0.784-9.5-2.178v-0.769c0-0.615-0.623-1.114-1.238-1.114h-1.206c-0.615 0-1.056 0.498-1.056 1.114v8.886h-3v2.5h3v2h-0.5v2.5h4.5v-2.5h-0.5v-2h19v2h-0.5v2.5h4.5v-2.5h-0.5v-2h3zM9.5 17.5h-3v-7.213c1 0.48 2 0.885 3 1.206v6.007zM13.5 17.5h-3v-5.819c1 0.27 2 0.464 3 0.579v5.24zM17.5 17.5h-3v-5.179c0.5 0.039 0.944 0.059 1.5 0.059 0.555 0 1-0.021 1.5-0.059v5.179zM21.5 17.5h-3v-5.24c1-0.114 2-0.309 3-0.579v5.819zM25.5 17.5h-3v-6.008c1-0.321 2-0.726 3-1.206v7.213z"></path>
</svg>
