<!-- Generated by IcoMoon.io -->
<svg version="1.1" xmlns="http://www.w3.org/2000/svg" width="32" height="32" viewBox="0 0 32 32">
<title>briefcase</title>
<path d="M29 8h-7v-3.5c0-0.827-0.673-1-1.5-1h-9c-0.827 0-1.5 0.173-1.5 1v3.5h-7c-1.657 0-3 0.844-3 2.5v6h32v-6c0-1.656-1.343-2.5-3-2.5zM12 5.5c0-0.276 0.223 0 0.5 0h7c0.276 0 0.5-0.276 0.5 0v2.5h-8v-2.5zM18.5 20c0.276 0 0.5-0.75 0.5-0.75v-1.25h-6v1.25c0 0 0.223 0.75 0.5 0.75h5zM20.5 19.75c0 0.827-1.141 1.75-1.968 1.75h-5c-0.827 0-2.031-0.923-2.031-1.75v-1.75h-11.5v9.25c0 1.657 1.343 2.25 3 2.25h26c1.657 0 3-0.593 3-2.25v-9.25h-11.5v1.75z"></path>
</svg>
