<!-- Generated by IcoMoon.io -->
<svg version="1.1" xmlns="http://www.w3.org/2000/svg" width="32" height="32" viewBox="0 0 32 32">
<title>broccoli</title>
<path d="M29.7 11.7c0 0 0 0 0 0 0-0.050 0-0.050 0 0-0.65-0.85-1.6-1.35-2.55-1.5-0.7-0.1-1.25-0.75-1.3-1.45-0.050-0.8-0.35-1.55-0.85-2.25 0 0 0 0 0 0s0 0 0 0c-1-1.3-2.65-1.75-4.15-1.35-0.7 0.2-1.45-0.15-1.8-0.85-0.2-0.35-0.4-0.7-0.65-1.050 0 0 0 0 0 0s0 0 0 0c-1.95-2.45-5.55-2.85-8.050-0.9-1.25 1-2 2.45-2.1 4-0.050 0.75-0.7 1.35-1.45 1.4-1.15 0.050-2.3 0.45-3.25 1.25-2.5 1.95-2.9 5.5-0.9 8 0 0 0 0 0 0s0 0 0 0c1.5 1.9 3.95 2.55 6.15 1.9 0.050 0.050 0.050 0.1 0.1 0.1 2.050 2.1 4.45 5.6 4.4 10.5 0 0.8 0.6 1.4 1.4 1.4h3.4c0.8 0 1.4-0.65 1.4-1.4-0.15-4.95 3.25-9.1 5.4-11.25 0.050-0.050 0.1-0.1 0.15-0.2 0.1 0 0.25 0.050 0.35 0.050 1.25 0.4 2.65 0.15 3.75-0.7 1.7-1.4 1.95-3.95 0.55-5.7zM6.2 12c-0.55 0.4-1.050 0.9-1.35 1.5-0.4 0.8-1.15 0.6-1.15 0.6-0.45-0.1-0.7-0.75-0.35-1.35 0.45-0.85 1.1-1.65 1.9-2.15 1-0.6 1.4 0.2 1.4 0.2 0.25 0.45-0.050 0.95-0.45 1.2zM14.6 10.9c1.25-0.8 1.75 0.25 1.75 0.25 0.3 0.55-0.1 1.15-0.6 1.5-0.7 0.5-1.3 1.15-1.7 1.9-0.5 1-1.4 0.75-1.4 0.75-0.55-0.1-0.85-0.95-0.45-1.7 0.6-1.15 1.4-2.1 2.4-2.7zM10.45 5.15c0.4-0.85 1.050-1.6 1.9-2.15 1-0.6 1.4 0.2 1.4 0.2 0.25 0.45-0.1 0.95-0.45 1.2-0.55 0.4-1.050 0.9-1.35 1.5-0.4 0.8-1.15 0.6-1.15 0.6-0.45-0.050-0.7-0.7-0.35-1.35zM16.050 25.95l-1-2.9c0.95 0.3 1.9 0.4 2.9 0.3l-1 2.6c-0.2 0.4-0.75 0.4-0.9 0z"></path>
</svg>
