<!-- Generated by IcoMoon.io -->
<svg version="1.1" xmlns="http://www.w3.org/2000/svg" width="32" height="32" viewBox="0 0 32 32">
<title>Broken-bone</title>
<path d="M16.419 15.572l0.007-0.001h-0.003zM15.463 18.224l-0.498-1.903c-0.067-0.253-0.22-0.46-0.412-0.605s-0.428-0.235-0.685-0.235l-0.121 0.007-0.015 0.002-0.7 0.082-0.023 0.001-0.164-0.060-0.094-0.138-0.793-3.351-6.766 7.512c-0.417-0.146-0.853-0.223-1.288-0.223-1.066 0-2.131 0.436-2.901 1.291-0.672 0.747-1.004 1.684-1.004 2.615-0.001 1.067 0.437 2.134 1.294 2.905 0.477 0.424 1.104 0.637 1.618 0.771 0.51 0.131 0.91 0.17 0.93 0.172l0.002 0 0.014 0.005 0.052 0.043 0.015 0.023 0.003 0.006c0.002 0.015 0.083 0.413 0.267 0.91 0.188 0.497 0.464 1.099 0.936 1.53 0.745 0.672 1.683 1.005 2.615 1.003 1.066 0.002 2.134-0.436 2.905-1.293 0.672-0.744 1.005-1.682 1.005-2.614 0-0.7-0.198-1.395-0.571-2.011l4.698-5.215-0.32-1.23zM31.343 7.635c-0.359-0.529-0.913-0.889-1.379-1.147-0.466-0.254-0.849-0.39-0.863-0.396l-0.013-0.009-0.040-0.053-0.009-0.027-0.002-0.008c0.001-0.014 0.020-0.42-0.035-0.947-0.059-0.529-0.178-1.178-0.529-1.712-0.698-1.047-1.82-1.651-2.985-1.73-0.831-0.058-1.691 0.151-2.437 0.649-1.046 0.698-1.648 1.817-1.727 2.982-0.023 0.333 0.011 0.67 0.073 1.003l-6.237 4.163-0.040 2.408c-0.004 0.282 0.104 0.54 0.273 0.737 0.168 0.196 0.406 0.341 0.687 0.38l0.714 0.096 0.163 0.095 0.073 0.174 0.029 4.048 0.002 0.189 8.563-5.716c0.635 0.521 1.402 0.833 2.2 0.889 0.831 0.057 1.69-0.152 2.436-0.649 1.047-0.698 1.651-1.819 1.73-2.985 0.058-0.831-0.149-1.69-0.648-2.436zM12.572 7.803c0.065 0.428 0.463 0.724 0.891 0.661 0.427-0.064 0.724-0.463 0.66-0.891l-0.787-5.49c-0.063-0.427-0.462-0.723-0.89-0.659s-0.723 0.462-0.661 0.89l0.787 5.49zM10.377 8.922c0.296 0.318 0.791 0.335 1.109 0.040 0.316-0.296 0.335-0.79 0.040-1.109l-3.756-4.080c-0.295-0.317-0.79-0.336-1.107-0.040s-0.335 0.79-0.040 1.108l3.756 4.081zM4.125 10.302l5.443 1.067c0.427 0.081 0.835-0.198 0.918-0.624 0.080-0.425-0.198-0.835-0.623-0.917l-5.444-1.066c-0.425-0.081-0.836 0.198-0.916 0.623s0.198 0.835 0.623 0.918z"></path>
</svg>
