<!-- Generated by IcoMoon.io -->
<svg version="1.1" xmlns="http://www.w3.org/2000/svg" width="32" height="32" viewBox="0 0 32 32">
<title>Broken-feet-with-bandage</title>
<path d="M31.521 20.607v-17.491c0-0.607-0.494-1.101-1.1-1.101h-12.258c-0.607 0-1.101 0.493-1.101 1.101v11.37l-6.552 3.003-0.085 0.049c-0.204 0.137-0.346 0.34-0.421 0.567l-5.845 2.554c-2.317 0.137-4.16 2.066-4.16 4.416 0 2.441 1.985 4.427 4.425 4.427h5.708c0.198 0.291 0.532 0.483 0.91 0.483l15.957-0.002c1.271-0.068 3.886-0.933 4.684-3.705 0.033-0.099 0.789-2.451-0.163-5.672zM9.943 27.142h-5.518c-1.138 0-2.064-0.927-2.064-2.067 0-1.138 0.926-2.064 2.064-2.064h0.247l5.271-2.303v6.435zM19.265 4.216h10.055v0.745l-10.056 0.924v-1.67zM19.265 7.663l10.055-0.924v5.078l-10.056-3.098v-1.056zM19.265 10.572l10.055 3.099v0.398l-10.056 0.419v-3.916zM29.32 15.84v3.873l-9.344-2.555-0.591-0.904 9.934-0.413zM17.52 16.635l4.183 6.395-6.258-2.367-0.804-2.707 2.879-1.32zM12.143 27.784v-8.684l0.873-0.401 2.697 9.085h-3.57zM17.56 27.784l-1.482-4.991 7.271 2.752 1.465 2.239h-7.255zM29.582 25.63c-0.558 1.937-2.466 2.139-2.653 2.154l-5.489-8.39 8.072 2.209c0.579 2.297 0.096 3.947 0.070 4.028z"></path>
</svg>
