<!-- Generated by IcoMoon.io -->
<svg version="1.1" xmlns="http://www.w3.org/2000/svg" width="32" height="32" viewBox="0 0 32 32">
<title>Brush-with-tooth</title>
<path d="M6.718 15.864c0.015 0.008 0.030 0.014 0.046 0.020 0.019 0.007 0.191 0.062 0.394 0.062 0.356 0 0.552-0.16 0.655-0.293 0.189-0.25 0.217-0.609 0.087-1.074-0.005-0.026-0.505-2.212 1.268-3.65 0.095-0.055 0.633-0.342 1.299-0.342 0.511 0 0.98 0.169 1.373 0.484 0.059 0.057 1.441 1.021 0.805 3.65-0.004 0.014-0.007 0.030-0.008 0.044-0.008 0.069-0.061 0.688 0.281 1.068 0.166 0.184 0.396 0.282 0.662 0.282 0.037 0 0.074-0.002 0.114-0.006 0.017-0.002 0.034-0.005 0.050-0.009 0.248-0.063 2.43-0.809 2.889-7.66 0.53-0.709 0.81-1.547 0.81-2.43 0-2.241-1.824-4.065-4.066-4.065-1.198 0-2.324 0.526-3.093 1.427-0.768-0.88-1.883-1.395-3.063-1.395-2.242 0-4.065 1.823-4.065 4.066 0 0.942 0.33 1.856 0.932 2.585 0.071 1.252 0.486 6.146 2.63 7.239zM30.425 26.463h-9.817c-1.285-0.618-1-2.55-1-2.55h-0.662v-5.303c0-0.482-0.391-0.873-0.873-0.873s-0.873 0.391-0.873 0.873v5.304h-1.024v-5.303c0-0.482-0.391-0.873-0.873-0.873s-0.873 0.392-0.873 0.873v5.303h-0.904v-5.304c0-0.482-0.391-0.873-0.873-0.873s-0.873 0.391-0.873 0.873v5.304h-1.024v-5.303c0-0.482-0.392-0.873-0.873-0.873s-0.873 0.392-0.873 0.873v5.303h-0.904v-5.304c0-0.482-0.391-0.873-0.873-0.873s-0.873 0.391-0.873 0.873v5.304h-1.024v-5.303c0-0.482-0.391-0.873-0.873-0.873s-0.873 0.392-0.873 0.873v5.303h-0.903v-5.304c0-0.482-0.391-0.873-0.873-0.873s-0.873 0.391-0.873 0.873v5.304h-0.904c-0.421 5.239 3.373 6.143 3.373 6.143h27.019c0.87 0 1.575-0.706 1.575-1.575v-0.443c0-0.87-0.706-1.575-1.575-1.575z"></path>
</svg>
