<!-- Generated by IcoMoon.io -->
<svg version="1.1" xmlns="http://www.w3.org/2000/svg" width="32" height="32" viewBox="0 0 32 32">
<title>bubble-chart</title>
<path d="M31 30h-29v-29.125c0-0.483-0.391-0.875-0.875-0.875h-0.25c-0.483 0-0.875 0.392-0.875 0.875v30.25c0 0.483 0.392 0.875 0.875 0.875h30.125c0.552 0 1-0.448 1-1s-0.448-1-1-1zM31.5 7.75c0 4.004-3.246 7.25-7.25 7.25s-7.25-3.246-7.25-7.25c0-4.004 3.246-7.25 7.25-7.25s7.25 3.246 7.25 7.25zM18.5 18.75c0 2.899-2.351 5.25-5.25 5.25s-5.25-2.351-5.25-5.25c0-2.899 2.351-5.25 5.25-5.25s5.25 2.351 5.25 5.25zM30 23.75c0 2.347-1.903 4.25-4.25 4.25s-4.25-1.903-4.25-4.25c0-2.347 1.903-4.25 4.25-4.25s4.25 1.903 4.25 4.25zM11 8c0 1.933-1.567 3.5-3.5 3.5s-3.5-1.567-3.5-3.5c0-1.933 1.567-3.5 3.5-3.5s3.5 1.567 3.5 3.5zM8.5 25.75c0 1.243-1.007 2.25-2.25 2.25s-2.25-1.007-2.25-2.25c0-1.243 1.007-2.25 2.25-2.25s2.25 1.007 2.25 2.25z"></path>
</svg>
