<!-- Generated by IcoMoon.io -->
<svg version="1.1" xmlns="http://www.w3.org/2000/svg" width="32" height="32" viewBox="0 0 32 32">
<title>bucket</title>
<path d="M28.89 11.204c-0.038-0.31-0.931-6.984-6.823-9.841-0.146-0.804-0.91-1.363-1.831-1.363h-7.806c-0.903 0-1.655 0.534-1.823 1.315-5.908 2.828-6.824 9.603-6.862 9.914-0.184 1.464-0.237 2.941 0.625 3.918 0.55 0.623 1.401 0.945 2.587 1l1.697 15.853h15.357l1.698-15.861c1.206-0.059 2.069-0.395 2.624-1.028 0.93-1.061 0.722-2.643 0.556-3.906zM27.25 14.161c-0.255 0.29-0.722 0.245-1.386 0.305l0.241-2.466h-19.544l0.24 2.469c-0.652-0.055-1.098-0.111-1.351-0.398-0.386-0.437-0.468-1.22-0.276-2.746 0.008-0.067 0.817-6.231 5.826-8.822 0.341 0.374 0.855 0.497 1.43 0.497h7.806c0.561 0 1.061-0.083 1.402-0.442 5.002 2.573 5.788 8.479 5.823 8.755 0.159 1.207 0.253 2.32-0.21 2.848z"></path>
</svg>
