<!-- Generated by IcoMoon.io -->
<svg version="1.1" xmlns="http://www.w3.org/2000/svg" width="32" height="32" viewBox="0 0 32 32">
<title>bug</title>
<path d="M10.714 7.5h10.572c0.486 0 0.881-0.383 0.881-0.869-0-3.516-2.651-6.16-6.167-6.16s-6.166 2.642-6.166 6.157c0 0.487 0.395 0.872 0.881 0.872zM31.25 17.5h-5.21c0.028-0.495 0.044-0.996 0.044-1.504 0-1.563-1.060-4.481-1.12-4.649l4.35-4.351c0.293-0.293 0.293-0.768 0-1.061s-0.767-0.293-1.061 0l-3.793 3.793c-0.121-0.428-0.511-0.729-0.96-0.729h-15c-0.449 0-0.839 0.3-0.96 0.729l-3.793-3.793c-0.293-0.293-0.768-0.293-1.061 0s-0.293 0.768 0 1.061l4.366 4.366c-0.044 0.131-1.011 2.994-1.011 4.583 0 0.525 0.016 1.043 0.046 1.554h-5.338c-0.414 0-0.75 0.336-0.75 0.75s0.336 0.75 0.75 0.75h5.468c0.304 2.625 0.997 5.004 1.982 6.989l-4.514 4.515c-0.293 0.293-0.293 0.767 0 1.061s0.768 0.293 1.061 0l4.213-4.213c1.68 2.676 3.967 2.878 6.54 3.096v-19.697c0-0.415 0.336-0.75 0.75-0.75s0.75 0.335 0.75 0.75v19.653c2.398-0.34 4.529-0.471 6.122-2.971l4.131 4.131c0.293 0.293 0.767 0.293 1.061 0s0.293-0.767 0-1.061l-4.424-4.424c1.009-2.002 1.716-4.415 2.022-7.078h5.338c0.414 0 0.75-0.335 0.75-0.75s-0.336-0.75-0.75-0.75z"></path>
</svg>
