<!-- Generated by IcoMoon.io -->
<svg version="1.1" xmlns="http://www.w3.org/2000/svg" width="32" height="32" viewBox="0 0 32 32">
<title>building</title>
<path d="M28.932 17h-1.084c-0.139-2.5-2.177-4.41-4.671-4.41s-4.53 1.909-4.67 4.41h-1.508v-14.835c0-1.069-0.873-2.165-1.942-2.165h-12.1c-1.069 0-1.958 1.096-1.958 2.165v29.835h5v-4.776c0-0.168 0.372-0.224 0.625-0.224h4.811c0.253 0 0.565 0.057 0.565 0.224v4.776h8v-4.776c0-0.168 0.399-0.224 0.653-0.224h4.811c0.253 0 0.537 0.057 0.537 0.224v4.776h5v-13.016c0-1.069-1-1.984-2.068-1.984zM8 23.011c0 0.27-0.219 0.489-0.489 0.489h-2.521c-0.271 0-0.489-0.219-0.489-0.489v-2.521c0-0.27 0.219-0.489 0.489-0.489h2.521c0.271 0 0.489 0.219 0.489 0.489v2.521zM8 14.511c0 0.271-0.219 0.489-0.489 0.489h-2.521c-0.271 0-0.489-0.219-0.489-0.489v-2.521c0-0.271 0.219-0.489 0.489-0.489h2.521c0.271 0 0.489 0.219 0.489 0.489v2.521zM8 8.511c0 0.271-0.219 0.489-0.489 0.489h-2.521c-0.271 0-0.489-0.219-0.489-0.489v-2.521c0-0.27 0.219-0.489 0.489-0.489h2.521c0.271 0 0.489 0.219 0.489 0.489v2.521zM13.5 23.011c0 0.27-0.219 0.489-0.489 0.489h-2.521c-0.271 0-0.489-0.219-0.489-0.489v-2.521c0-0.27 0.219-0.489 0.489-0.489h2.521c0.271 0 0.489 0.219 0.489 0.489v2.521zM13.5 14.511c0 0.271-0.219 0.489-0.489 0.489h-2.521c-0.271 0-0.489-0.219-0.489-0.489v-2.521c0-0.271 0.219-0.489 0.489-0.489h2.521c0.271 0 0.489 0.219 0.489 0.489v2.521zM13.5 8.511c0 0.271-0.219 0.489-0.489 0.489h-2.521c-0.271 0-0.489-0.219-0.489-0.489v-2.521c0-0.27 0.219-0.489 0.489-0.489h2.521c0.271 0 0.489 0.219 0.489 0.489v2.521zM22 23.011c0 0.27-0.22 0.489-0.49 0.489h-2.52c-0.27 0-0.49-0.219-0.49-0.489v-2.521c0-0.27 0.22-0.489 0.49-0.489h2.52c0.27 0 0.49 0.219 0.49 0.489v2.521zM28 23.011c0 0.27-0.22 0.489-0.49 0.489h-2.52c-0.27 0-0.49-0.219-0.49-0.489v-2.521c0-0.27 0.22-0.489 0.49-0.489h2.52c0.271 0 0.49 0.219 0.49 0.489v2.521z"></path>
</svg>
