<!-- Generated by IcoMoon.io -->
<svg version="1.1" xmlns="http://www.w3.org/2000/svg" width="32" height="32" viewBox="0 0 32 32">
<title>bulldozer</title>
<path d="M4.162 17.079c-2.152 0-3.896 1.744-3.896 3.896s1.744 3.895 3.896 3.895c2.151 0 3.894-1.744 3.894-3.895s-1.744-3.895-3.894-3.895zM4.162 22.349c-0.76 0-1.375-0.616-1.375-1.375s0.616-1.375 1.375-1.375 1.375 0.616 1.375 1.375c0 0.759-0.615 1.375-1.375 1.375zM17.509 19.782c-1.418 0-2.567 1.149-2.567 2.567s1.15 2.567 2.567 2.567c1.418 0 2.567-1.15 2.567-2.567s-1.149-2.567-2.567-2.567zM17.509 23.256c-0.501 0-0.907-0.406-0.907-0.907s0.405-0.907 0.907-0.907c0.5 0 0.906 0.406 0.906 0.907s-0.405 0.907-0.906 0.907zM31.512 22.224c-0.34-0.375-5.957-5.989-6.668-6.753-0.645-0.691-0.843-0.254-0.843 0.142v5.886h-1.709l-1.102-6.14c0-0.457-0.372-0.86-0.828-0.86h-3.014l-2.359-6.802c0-0.29-0.235-0.698-0.525-0.698h-6.511c-0.29 0-0.452 0.232-0.452 0.522v6.978h-1.5v-3.902c0-0.69-0.206-1.556-1.422-1.759l-0.044 0.162h-1.034v1.5h0.915c0.117 0 0.208-0.138 0.168 0.169l-0.084-0.178v4.008h-0.149c-0.457 0-1.036 0.197-1.036 0.655l0.001 0.939c0.275-0.047 0.558-0.115 0.846-0.115 2.784 0 5.040 2.466 5.040 5.251 0 0.735-0.159 1.771-0.441 2.271h5.321c-0.044 0-0.069-0.683-0.069-0.919 0-1.929 1.565-3.61 3.494-3.61s3.494 1.738 3.494 3.668c0 0.235-0.024 0.861-0.069 0.861h10.192c0.396 0 0.895-0.715 0.386-1.276zM14.389 13.5h-4.643c-0.164 0-0.246-0.222-0.246-0.386v-3.816c0-0.164 0.082-0.299 0.246-0.299h3.44c0.164 0 0.296 0.133 0.296 0.297l1.203 3.861c0 0.164-0.133 0.341-0.296 0.341z"></path>
</svg>
