<!-- Generated by IcoMoon.io -->
<svg version="1.1" xmlns="http://www.w3.org/2000/svg" width="32" height="32" viewBox="0 0 32 32">
<title>bus-stop</title>
<path d="M11.107 29h-8.107v-22.5h20.365c0.71 0-0.66-6-4.96-6h-18.404v31h11.5v-2.008c0-0.498 0.008-0.492-0.393-0.492zM29.672 11.5h-2.172v-0.577c0-0.646-0.16-1.423-0.805-1.423h-7.741c-0.645 0-1.454 0.777-1.454 1.423v0.577h-1.524c-1.142 0-1.976 0.902-1.976 2.044v13.694c0 0.817 0.5 1.521 1 1.857v1.439c0 0.368 0.281 0.965 0.539 0.965h2.683c0.258 0 0.278-0.598 0.278-0.966v-1.034h8.5v1.034c0 0.369 0.168 0.966 0.425 0.966h2.683c0.258 0 0.391-0.598 0.391-0.966v-1.439c1-0.335 1.5-1.040 1.5-1.857v-13.694c0-1.142-1.187-2.045-2.328-2.045zM29 20.299c0 0.663-0.538 1.201-1.201 1.201h-10.098c-0.663 0-1.201-0.538-1.201-1.201v-4.598c0-0.664 0.538-1.201 1.201-1.201h10.098c0.664 0 1.201 0.537 1.201 1.201v4.598zM19.5 25.975c0 0.29-0.235 0.525-0.524 0.525h-1.951c-0.29 0-0.524-0.235-0.524-0.525v-1.95c0-0.29 0.235-0.525 0.524-0.525h1.951c0.29 0 0.524 0.235 0.524 0.525v1.95zM29 25.975c0 0.29-0.235 0.525-0.524 0.525h-1.951c-0.29 0-0.524-0.235-0.524-0.525v-1.95c0-0.29 0.235-0.525 0.524-0.525h1.951c0.29 0 0.524 0.235 0.524 0.525v1.95z"></path>
</svg>
