<!-- Generated by IcoMoon.io -->
<svg version="1.1" xmlns="http://www.w3.org/2000/svg" width="32" height="32" viewBox="0 0 32 32">
<title>bus</title>
<path d="M28.2 16.2c0-1.2-0.15-1.95-0.15-1.95l-1.85-8.45c0 0 0-0.050 0-0.050v0 0c-0.55-2.3-4.85-4.050-10.1-4.050s-9.5 1.75-10.1 4.050v0 0c0 0 0 0.050 0 0.050l-1.9 8.45c0 0-0.15 0.75-0.15 1.95v9.95h1.95v2.050c0 1.15 0.95 2.1 2.1 2.1s2.1-0.95 2.1-2.1v-2.050h12v2.050c0 1.15 0.95 2.1 2.1 2.1v0c1.15 0 2.1-0.95 2.1-2.1v-2.050h2v-9.95zM11 4.35h10.15c0.45 0 0.8 0.35 0.8 0.8s-0.35 0.8-0.8 0.8h-10.15c-0.45 0-0.8-0.35-0.8-0.8s0.35-0.8 0.8-0.8zM6.55 15l1.1-6c0.1-0.55 0.6-0.95 1.15-0.95h14.65c0.55 0 1.050 0.45 1.15 0.95l1 6c0.1 0.55-0.35 0.95-0.95 0.95h-17.15c-0.6 0-1.050-0.4-0.95-0.95zM8 23.2c-1.15 0-2.1-0.95-2.1-2.1s0.95-2.1 2.1-2.1 2.1 0.95 2.1 2.1c0 1.15-0.95 2.1-2.1 2.1zM24.15 23.2c-1.15 0-2.1-0.95-2.1-2.1s0.95-2.1 2.1-2.1 2.1 0.95 2.1 2.1c-0.050 1.15-0.95 2.1-2.1 2.1z"></path>
</svg>
