<!-- Generated by IcoMoon.io -->
<svg version="1.1" xmlns="http://www.w3.org/2000/svg" width="32" height="32" viewBox="0 0 32 32">
<title>business-suit</title>
<path d="M14.594 5.097h2.813c0.235 0 0.37-0.217 0.425-0.425l1.101-4.016c0-0.235-0.191-0.425-0.425-0.425h-5.016c-0.235 0-0.425 0.19-0.425 0.425l1.101 4.016c0.076 0.242 0.191 0.425 0.426 0.425zM25.526 8.837l2.629-1.664-1.102-6.044-2.354-0.898-5.146 21.871-1.744-15.366c0-0.234-0.191-0.425-0.425-0.425h-2.765c-0.235 0-0.425 0.19-0.425 0.425l-1.745 15.366-5.145-21.871-2.354 0.898-1.103 6.044 2.629 1.664-1.688 3.197 10.341 19.735h1.747l10.34-19.735-1.689-3.197zM28.199 1.567l1.116 6.114-2.407 1.524 1.493 2.826-10.341 19.737h11.663l2.278-28.751zM5.093 9.205l-2.408-1.524 1.115-6.114-3.801 1.45 2.278 28.751h11.664l-10.341-19.738z"></path>
</svg>
