<!-- Generated by IcoMoon.io -->
<svg version="1.1" xmlns="http://www.w3.org/2000/svg" width="32" height="32" viewBox="0 0 32 32">
<title>cabasa</title>
<path d="M20.557 26.596l-15.153-15.153c-0.355-0.357-0.935-0.357-1.289-0.002-0.357 0.356-0.357 0.934 0 1.29l5.454 5.454-8.69 8.689c-1.171 1.172-1.175 3.074 0.002 4.243 1.168 1.175 3.071 1.176 4.239-0.002l8.691-8.687 5.457 5.455c0.355 0.356 0.933 0.357 1.288-0 0.357-0.354 0.357-0.932 0-1.287zM15.29 1.558l15.154 15.152c0.357 0.356 0.934 0.357 1.289 0 0.356-0.355 0.357-0.933-0.001-1.287l-15.152-15.155c-0.356-0.357-0.934-0.357-1.289-0.001s-0.357 0.933 0 1.29zM5.561 10.952l15.486 15.485 9.236-9.236-15.486-15.485-9.238 9.236zM13.879 15.881c-0.379-0.377-0.379-0.992 0.001-1.37 0.378-0.378 0.992-0.378 1.37 0s0.379 0.993 0.001 1.371c-0.379 0.379-0.992 0.379-1.371-0.001zM26.448 16.75c0.378 0.378 0.378 0.991 0 1.37s-0.992 0.378-1.371-0c-0.378-0.378-0.378-0.991 0-1.369 0.379-0.379 0.992-0.379 1.371-0zM24.207 18.991c0.378 0.378 0.379 0.991 0 1.37-0.378 0.378-0.992 0.378-1.37-0-0.379-0.379-0.378-0.992 0-1.37s0.991-0.378 1.369 0zM21.968 21.229c0.378 0.378 0.378 0.992 0 1.37-0.379 0.379-0.994 0.378-1.37 0-0.378-0.378-0.378-0.991 0-1.37 0.378-0.378 0.991-0.378 1.37 0zM24.207 14.511c0.378 0.379 0.378 0.992-0 1.37s-0.991 0.378-1.369 0c-0.379-0.379-0.379-0.992 0-1.37s0.991-0.379 1.37-0.001zM21.968 16.751c0.378 0.378 0.378 0.991 0 1.369s-0.991 0.378-1.37 0c-0.379-0.379-0.378-0.992 0-1.37s0.991-0.378 1.37 0zM19.728 18.99c0.378 0.378 0.378 0.991 0 1.37-0.379 0.378-0.991 0.378-1.371 0-0.379-0.38-0.378-0.992 0-1.371s0.991-0.378 1.37 0zM21.968 12.271c0.378 0.378 0.379 0.992 0 1.37s-0.992 0.377-1.37-0.001c-0.379-0.38-0.378-0.992 0-1.37s0.991-0.379 1.37 0zM19.728 15.882c-0.378 0.379-0.992 0.378-1.37 0-0.379-0.379-0.378-0.992 0-1.37s0.991-0.38 1.369 0c0.379 0.377 0.379 0.992 0 1.37zM17.489 16.75c0.378 0.378 0.379 0.992 0 1.37-0.379 0.38-0.992 0.378-1.372 0-0.379-0.38-0.377-0.992 0-1.371s0.992-0.378 1.37 0zM19.728 10.031c0.379 0.379 0.38 0.992 0 1.371s-0.991 0.378-1.37-0.001c-0.378-0.378-0.378-0.992 0-1.37s0.992-0.378 1.37-0.001zM17.488 12.271c0.38 0.379 0.38 0.992 0.001 1.371s-0.992 0.378-1.371-0.001c-0.378-0.378-0.378-0.992 0-1.37s0.992-0.377 1.37 0zM17.489 7.793c0.378 0.378 0.378 0.992-0 1.37s-0.992 0.379-1.37 0c-0.378-0.378-0.378-0.992 0-1.37s0.992-0.379 1.371-0zM15.249 10.033c0.378 0.378 0.378 0.992 0 1.37s-0.992 0.378-1.37 0c-0.379-0.378-0.379-0.992 0-1.37s0.992-0.379 1.37 0zM13.009 12.271c0.379 0.378 0.379 0.992 0 1.37s-0.992 0.379-1.37 0.001c-0.379-0.379-0.379-0.992 0-1.37 0.378-0.377 0.992-0.378 1.37 0zM15.249 5.553c0.379 0.378 0.379 0.99 0 1.369s-0.992 0.38-1.37 0c-0.379-0.378-0.379-0.992-0.001-1.37s0.992-0.378 1.37 0zM13.009 9.162c-0.378 0.379-0.991 0.379-1.37 0.001s-0.379-0.992 0-1.37c0.379-0.378 0.991-0.378 1.37 0 0.379 0.378 0.379 0.991 0 1.369zM10.77 10.032c0.379 0.379 0.379 0.992 0 1.37s-0.992 0.378-1.371 0.001c-0.379-0.379-0.379-0.992 0.001-1.371 0.378-0.377 0.991-0.378 1.37 0.001z"></path>
</svg>
