<!-- Generated by IcoMoon.io -->
<svg version="1.1" xmlns="http://www.w3.org/2000/svg" width="32" height="32" viewBox="0 0 32 32">
<title>cabbage</title>
<path d="M6.55 5.45c1.7 0.35 3.1 1.55 3.65 3.15 0.050 0.15 0.2 0.25 0.35 0.3 2.6 0.35 4.6 2.6 4.6 5.25 0 0.15 0 0.35 0 0.5 0 0.25 0.15 0.45 0.35 0.5 0 0 0 0 0 0 0.050 0 0.15 0 0.2 0 0 0 0 0 0 0 0.2-0.050 0.4-0.25 0.35-0.5 0-0.15 0-0.35 0-0.5 0-2.7 2.2-4.7 4.8-5.050 0.15 0 0.3-0.15 0.35-0.3 0.1-0.25 0.2-0.55 0.35-0.8 0.1-0.2 0.050-0.45-0.15-0.6-1.1-0.75-2.6-1.45-4.050-1.45-0.35 0-0.7 0.050-1.050 0.1-0.2 0.050-0.4-0.1-0.5-0.3-0.8-2-2.75-3.45-5.050-3.45-1.85 0-3.5 0.95-4.5 2.4-0.15 0.35 0 0.7 0.3 0.75zM29.1 8.2c-0.75-0.8-1.8-1.3-3-1.3-1.95 0-3.6 1.4-4 3.3-0.050 0.2-0.25 0.4-0.45 0.4 0 0 0 0 0 0-2.45 0-4.45 2-4.45 4.45 0 0.7 0.15 1.35 0.45 1.95 0.25 0.4 0.75 0.9 0.35 1.25 0 0-0.3 0.25-0.85-0.15-0.45-0.35-1-0.5-1.6-0.45-1.15 0.1-2.050 1-2.2 2.15-0.050 0.65 0.1 1.3 0.5 1.75 0.15 0.2 0.2 0.5 0 0.75-0.25 0.3-0.7 0.35-0.95 0.050-0.55-0.7-0.85-1.6-0.75-2.55 0.1-1.050 1.4-2.55 1.35-2.55 0.35-0.65 0.55-1.4 0.55-2.15 0-2.45-2-4.45-4.45-4.45 0 0 0 0 0 0-0.25 0-0.45-0.15-0.45-0.4-0.35-1.85-2-3.3-4-3.3-1.2 0-2.25 0.5-3 1.3 0 0 2.6 1.25 0.55 7.65-0.15 0.75-0.2 1.6-0.2 2.45 0 6.9 5.050 11.65 12 11.65 0.4 0 1.85 0 2.25 0 6.95 0 12-4.75 12-11.7 0-0.85-0.1-1.65-0.25-2.45-2.050-6.35 0.6-7.65 0.6-7.65zM17.2 4.75c0.050 0.1 0.15 0.2 0.25 0.2 0.65-0.050 2.7-0.050 4.95 1.75 0.1 0.050 0.2 0.1 0.3 0 0.25-0.15 0.75-0.5 1.45-0.7 0.2-0.050 0.25-0.3 0.1-0.4-2.15-1.95-4.95-2.9-8.050-2.75-0.2 0-0.3 0.3-0.15 0.45 0.45 0.4 1 0.95 1.15 1.45z"></path>
</svg>
