<!-- Generated by IcoMoon.io -->
<svg version="1.1" xmlns="http://www.w3.org/2000/svg" width="32" height="32" viewBox="0 0 32 32">
<title>cake</title>
<path d="M4.75 20.9c2.050 0 3.75-1.7 3.75-3.75 0 2.050 1.7 3.75 3.75 3.75s3.75-1.7 3.75-3.75c0 2.050 1.7 3.75 3.75 3.75s3.75-1.7 3.75-3.75c0 2.050 1.7 3.75 3.75 3.75s3.75-1.7 3.75-3.75-1.7-3.75-3.75-3.75h-8.85c0 0 0-0.050 0-0.050v-4.050c0-0.6-0.5-1.050-1.050-1.050h-2.5c-0.6 0-1.050 0.5-1.050 1.050v4.050c0 0 0 0.050 0 0.050h-9c-2.050 0-3.75 1.7-3.75 3.75s1.65 3.75 3.7 3.75zM16.050 7.6c1.45 0 2.6-1.3 2.6-2.7 0.050-1.5-1.45-3.65-2.2-4.65-0.15-0.2-0.45-0.15-0.55 0.1-0.15 0.4-0.45 1-1.050 1.75v0c-0.1 0.1-0.2 0.2-0.3 0.35-0.3 0.4-0.8 1.1-1 1.6-0.1 0.3-0.15 0.6-0.1 0.9 0 1.35 1.1 2.65 2.6 2.65zM29.55 28.85v-6.25c-0.6 0.2-1.2 0.35-1.85 0.35-1.45 0-3.1-0.6-4.050-1.55-0.95 0.95-2.3 1.55-3.75 1.55s-2.8-0.6-3.75-1.55c-0.95 0.95-2.3 1.55-3.75 1.55s-2.8-0.6-3.75-1.55c-0.95 0.95-2.6 1.55-4.050 1.55-0.65 0-1.25-0.1-1.85-0.35v6.25c-0.7 0.6-1.3 1.5-1.3 2.35 0 0.25 0.050 0.5 0.1 0.7h29.2c0.050-0.25 0.1-0.45 0.1-0.7-0.050-0.85-0.6-1.75-1.3-2.35z"></path>
</svg>
