<!-- Generated by IcoMoon.io -->
<svg version="1.1" xmlns="http://www.w3.org/2000/svg" width="32" height="32" viewBox="0 0 32 32">
<title>calculator</title>
<path d="M28.5 0h-24.5c-1.104 0-2 0.895-2 2v28c0 1.105 0.896 2 2 2h24.5c1.105 0 2-0.895 2-2v-28c0-1.105-0.895-2-2-2zM8.5 28.5c0 0.552-0.448 1-1 1h-2c-0.552 0-1-0.448-1-1v-2c0-0.552 0.448-1 1-1h2c0.552 0 1 0.448 1 1v2zM8.5 22c0 0.552-0.448 1-1 1h-2c-0.552 0-1-0.448-1-1v-2c0-0.552 0.448-1 1-1h2c0.552 0 1 0.448 1 1v2zM8.5 15.5c0 0.552-0.448 1-1 1h-2c-0.552 0-1-0.448-1-1v-2c0-0.552 0.448-1 1-1h2c0.552 0 1 0.448 1 1v2zM15 28.5c0 0.552-0.448 1-1 1h-2c-0.552 0-1-0.448-1-1v-2c0-0.552 0.448-1 1-1h2c0.552 0 1 0.448 1 1v2zM15 22c0 0.552-0.448 1-1 1h-2c-0.552 0-1-0.448-1-1v-2c0-0.552 0.448-1 1-1h2c0.552 0 1 0.448 1 1v2zM15 15.5c0 0.552-0.448 1-1 1h-2c-0.552 0-1-0.448-1-1v-2c0-0.552 0.448-1 1-1h2c0.552 0 1 0.448 1 1v2zM21.5 28.5c0 0.552-0.448 1-1 1h-2c-0.552 0-1-0.448-1-1v-2c0-0.552 0.448-1 1-1h2c0.552 0 1 0.448 1 1v2zM21.5 22c0 0.552-0.448 1-1 1h-2c-0.552 0-1-0.448-1-1v-2c0-0.552 0.448-1 1-1h2c0.552 0 1 0.448 1 1v2zM21.5 15.5c0 0.552-0.448 1-1 1h-2c-0.552 0-1-0.448-1-1v-2c0-0.552 0.448-1 1-1h2c0.552 0 1 0.448 1 1v2zM28 26.5v2c0 0.552-0.448 1-1 1h-2c-0.552 0-1-0.448-1-1v-8.5c0-0.552 0.448-1 1-1h2c0.552 0 1 0.448 1 1v6.5zM28 15.5c0 0.552-0.448 1-1 1h-2c-0.552 0-1-0.448-1-1v-2c0-0.552 0.448-1 1-1h2c0.552 0 1 0.448 1 1v2zM28 9c0 0.552-0.448 1-1 1h-21.5c-0.552 0-1-0.448-1-1v-6c0-0.552 0.448-1 1-1h21.5c0.552 0 1 0.448 1 1v6z"></path>
</svg>
