<!-- Generated by IcoMoon.io -->
<svg version="1.1" xmlns="http://www.w3.org/2000/svg" width="32" height="32" viewBox="0 0 32 32">
<title>calendar</title>
<path d="M30 5h-1v-3.313c0-0.552-0.552-1.188-1.104-1.188h-4c-0.552 0-0.896 0.635-0.896 1.188v3.313h-14v-3.313c0-0.552-0.448-1.188-1-1.188h-4c-0.552 0-1 0.635-1 1.188v3.313h-1c-1.105 0-2 0.479-2 2.083v23c0 0.605 0.895 1.416 2 1.416h27.5c1.605 0 2.5-0.812 2.5-1.416v-23c0-1.604-0.895-2.083-2-2.083zM8 29.5h-5c-0.552 0-1-0.364-1-0.916v-4.584h6v5.5zM8 23h-6v-5.5h6v5.5zM8 16.5h-6v-5.5h6v5.5zM7 7.104c0 0.495-0.401 0.896-0.896 0.896h-0.208c-0.495 0-0.896-0.401-0.896-0.896v-4.208c0-0.495 0.401-0.896 0.896-0.896h0.208c0.495 0 0.896 0.401 0.896 0.896v4.208zM15.5 29.5h-6.5v-5.5h6.5v5.5zM15.5 23h-6.5v-5.5h6.5v5.5zM15.5 16.5h-6.5v-5.5h6.5v5.5zM23 29.5h-6.5v-5.5h6.5v5.5zM23 23h-6.5v-5.5h6.5v5.5zM23 16.5h-6.5v-5.5h6.5v5.5zM27 7.104c0 0.495-0.401 0.896-0.896 0.896h-0.208c-0.495 0-0.896-0.401-0.896-0.896v-4.208c0-0.495 0.401-0.896 0.896-0.896h0.208c0.495 0 0.896 0.401 0.896 0.896v4.208zM30 28.584c0 0.552-0.552 0.916-1.104 0.916h-4.896v-5.5h6v4.584zM30 23h-6v-5.5h6v5.5zM30 16.5h-6v-5.5h6v5.5z"></path>
</svg>
