<!-- Generated by IcoMoon.io -->
<svg version="1.1" xmlns="http://www.w3.org/2000/svg" width="32" height="32" viewBox="0 0 32 32">
<title>calendar-check</title>
<path d="M13.089 27.965c0.251 0.252 0.636 0.274 0.91 0l0.155-0.155c0.075-0.033 0.146-0.081 0.209-0.144l11.677-11.677c0.251-0.251 0.273-0.636 0-0.909l-2.047-2.046c-0.274-0.274-0.658-0.252-0.91 0l-9.507 9.506-4.659-4.659c-0.251-0.251-0.636-0.274-0.909 0l-2.047 2.047c-0.274 0.274-0.252 0.659 0 0.91l7.128 7.128zM30 5h-1v-3.313c0-0.552-0.552-1.188-1.104-1.188h-4c-0.552 0-0.896 0.635-0.896 1.188v3.313h-14v-3.313c0-0.552-0.448-1.188-1-1.188h-4c-0.552 0-1 0.635-1 1.188v3.313h-1c-1.105 0-2 0.479-2 2.083v23c0 0.605 0.895 1.416 2 1.416h27.5c1.605 0 2.5-0.812 2.5-1.416v-23c0-1.604-0.895-2.083-2-2.083zM25 2.896c0-0.495 0.401-0.896 0.896-0.896h0.208c0.495 0 0.896 0.401 0.896 0.896v4.208c0 0.495-0.401 0.896-0.896 0.896h-0.208c-0.495 0-0.896-0.401-0.896-0.896v-4.208zM5 2.896c0-0.495 0.401-0.896 0.896-0.896h0.208c0.495 0 0.896 0.401 0.896 0.896v4.208c0 0.495-0.401 0.896-0.896 0.896h-0.208c-0.495 0-0.896-0.401-0.896-0.896v-4.208zM30 28.584c0 0.552-0.552 0.916-1.104 0.916h-25.896c-0.552 0-1-0.364-1-0.916v-17.584h28v17.584z"></path>
</svg>
