<!-- Generated by IcoMoon.io -->
<svg version="1.1" xmlns="http://www.w3.org/2000/svg" width="32" height="32" viewBox="0 0 32 32">
<title>camcorder</title>
<path d="M7.5 12.381c1.277 0 2.311-1.035 2.311-2.312s-1.034-2.311-2.311-2.311-2.311 1.034-2.311 2.311 1.034 2.312 2.311 2.312zM7.5 8.607c0.807 0 1.463 0.655 1.463 1.463s-0.655 1.463-1.463 1.463c-0.808 0-1.463-0.655-1.463-1.463s0.655-1.463 1.463-1.463zM7.5 17.346c2.639 0 4.954-1.351 6.292-3.389 0.762-1.162 1.209-2.545 1.209-4.033 0-4.099-3.358-7.423-7.5-7.423-4.141 0-7.5 3.324-7.5 7.423 0 1.489 0.447 2.871 1.208 4.033 1.338 2.038 3.653 3.389 6.291 3.389zM7.5 3.505c0.506 0 0.917 0.406 0.917 0.907s-0.411 0.907-0.917 0.907-0.916-0.407-0.916-0.907c0-0.502 0.41-0.907 0.916-0.907zM7.5 6.094c2.136 0 3.87 1.715 3.87 3.829s-1.733 3.829-3.87 3.829c-2.137 0-3.869-1.714-3.869-3.829s1.732-3.829 3.869-3.829zM14.168 16.271c-1.457 2.242-3.738 3.139-6.612 3.139s-5.212-0.897-6.668-3.139c-0.449 0-0.389 0.291-0.389 0.696v9.822c0 1.127 0.794 3.212 1.922 3.212h10.27c1.127 0 1.809-2.084 1.809-3.212v-9.821c0-0.405 0.117-0.696-0.332-0.696zM8.5 25.103c0 0.495-0.402 0.897-0.897 0.897h-0.206c-0.495 0-0.897-0.401-0.897-0.897v-3.706c0-0.495 0.402-0.897 0.897-0.897h0.206c0.495 0 0.897 0.401 0.897 0.897v3.706zM32 13.13c0-1.177-0.953-2.13-2.13-2.13h-11.74c-1.177 0-2.13 0.954-2.13 2.13v9.24c0 1.177 0.954 2.13 2.13 2.13h11.74c1.177 0 2.13-0.954 2.13-2.13v-9.24zM30 21c0 1.020-0.48 1.5-1.5 1.5h-9c-1.020 0-1.5-0.48-1.5-1.5v-6.5c0-1.020 0.48-1.5 1.5-1.5h9c1.020 0 1.5 0.48 1.5 1.5v6.5z"></path>
</svg>
