<!-- Generated by IcoMoon.io -->
<svg version="1.1" xmlns="http://www.w3.org/2000/svg" width="32" height="32" viewBox="0 0 32 32">
<title>camera</title>
<path d="M20.518 18.113c0 2.496-2.023 4.519-4.519 4.519s-4.519-2.023-4.519-4.519c0-2.496 2.023-4.519 4.519-4.519s4.519 2.023 4.519 4.519zM29.495 7h-6.844l-0.921-2.47c0 0-0.425-1.53-1.579-1.53h-8.303c-1.204 0-1.579 1.53-1.579 1.53l-0.921 2.47h-6.844c-1.385 0-2.505 1.348-2.505 2.732v16.762c0 1.385 1.121 2.507 2.505 2.507h26.99c1.384 0 2.505-1.122 2.505-2.506v-16.762c0-1.384-1.12-2.732-2.505-2.732zM15.999 25.252c-3.944 0-7.14-3.197-7.14-7.14s3.197-7.14 7.14-7.14 7.141 3.197 7.141 7.14c0 3.942-3.197 7.139-7.141 7.139z"></path>
</svg>
