<!-- Generated by IcoMoon.io -->
<svg version="1.1" xmlns="http://www.w3.org/2000/svg" width="32" height="32" viewBox="0 0 32 32">
<title>can-food</title>
<path d="M26.45 29v-22.75c0.65-0.050 1.2-0.6 1.2-1.25v-0.3c0-0.7-0.55-1.25-1.25-1.25h-13.7c-0.050-0.050-0.1-0.1-0.15-0.1l-4.25-2.95c-0.6-0.4-1.45-0.25-1.9 0.35-0.4 0.6-0.25 1.45 0.35 1.9l1.15 0.8h-2.65c-0.65 0-1.25 0.55-1.25 1.25v0.3c0 0.6 0.4 1.050 0.95 1.2v22.8c-0.5 0.15-0.9 0.65-0.9 1.2v0.35c0 0.55 0.4 1.050 0.9 1.2v0.1h21.5v-0.050c0.7 0 1.25-0.55 1.25-1.25v-0.35c0-0.65-0.55-1.2-1.25-1.2zM7.25 18.8v-9.85c0-0.55 0.5-1.050 1.1-0.9 0.5 0.1 0.75 0.6 0.75 1.15v9.6h2.6c0-2.25 1.85-4.1 4.1-4.1s4.1 1.85 4.1 4.1h4.35v10.2h-17v-10.2zM18.6 18.8c0 1.574-1.276 2.85-2.85 2.85s-2.85-1.276-2.85-2.85c0-1.574 1.276-2.85 2.85-2.85s2.85 1.276 2.85 2.85zM9.25 27.1c0.15 0 0.25-0.050 0.35-0.15s0.15-0.2 0.15-0.35v-0.95h0.95c0.15 0 0.25-0.050 0.35-0.15s0.15-0.2 0.15-0.35c0-0.15-0.050-0.25-0.15-0.35s-0.2-0.15-0.35-0.15h-0.95v-0.45h1.4c0.15 0 0.25-0.050 0.35-0.15s0.15-0.2 0.15-0.35c0-0.15-0.050-0.25-0.15-0.35s-0.2-0.15-0.35-0.15h-1.9c-0.15 0-0.25 0.050-0.35 0.15s-0.15 0.2-0.15 0.35v2.8c0 0.15 0.050 0.25 0.15 0.35 0.1 0.2 0.2 0.25 0.35 0.25zM13.65 27c0.5 0 0.9-0.15 1.25-0.5s0.5-0.75 0.5-1.25c0-0.5-0.15-0.9-0.5-1.25s-0.75-0.5-1.25-0.5c-0.5 0-0.9 0.15-1.25 0.5s-0.5 0.75-0.5 1.25c0 0.5 0.15 0.9 0.5 1.25 0.35 0.3 0.75 0.5 1.25 0.5zM13.050 24.55c0.15-0.15 0.4-0.25 0.6-0.25 0.25 0 0.45 0.1 0.6 0.25s0.25 0.4 0.25 0.65c0 0.25-0.1 0.45-0.25 0.65-0.15 0.15-0.4 0.25-0.6 0.25-0.25 0-0.45-0.1-0.6-0.25s-0.25-0.4-0.25-0.65c-0.050-0.25 0.050-0.45 0.25-0.65zM16.35 23.95c-0.35 0.35-0.5 0.75-0.5 1.25s0.15 0.9 0.5 1.25c0.35 0.35 0.75 0.5 1.25 0.5s0.9-0.15 1.25-0.5c0.35-0.35 0.5-0.75 0.5-1.25s-0.15-0.9-0.5-1.25c-0.35-0.35-0.75-0.5-1.25-0.5-0.5-0.050-0.9 0.15-1.25 0.5zM18.45 25.2c0 0.25-0.1 0.45-0.25 0.65-0.15 0.15-0.4 0.25-0.6 0.25-0.25 0-0.45-0.1-0.6-0.25s-0.25-0.4-0.25-0.65c0-0.25 0.1-0.45 0.25-0.65 0.15-0.15 0.4-0.25 0.6-0.25 0.25 0 0.45 0.1 0.6 0.25 0.2 0.2 0.25 0.4 0.25 0.65zM20.3 27.1h0.8c0.5 0 0.95-0.2 1.35-0.55 0.35-0.35 0.55-0.8 0.55-1.35 0-0.5-0.2-0.95-0.55-1.35-0.35-0.35-0.8-0.55-1.35-0.55h-0.8c-0.15 0-0.25 0.050-0.35 0.15s-0.15 0.2-0.15 0.35v2.8c0 0.15 0.050 0.25 0.15 0.35s0.2 0.15 0.35 0.15zM20.75 24.25h0.45c0.5 0 0.95 0.4 0.95 0.95 0 0.5-0.4 0.95-0.95 0.95 0 0 0 0 0 0h-0.45v-1.9z"></path>
</svg>
