<!-- Generated by IcoMoon.io -->
<svg version="1.1" xmlns="http://www.w3.org/2000/svg" width="32" height="32" viewBox="0 0 32 32">
<title>can</title>
<path d="M24.55 10.5l-2.15-2.15c-0.050-0.050-0.1-0.050-0.15-0.1 0.55-0.1 1-0.6 1-1.2 0-0.65-0.55-1.2-1.2-1.2h-0.6l0.5-2.15c0.4-1.6-0.6-3.2-2.2-3.55-1.6-0.4-3.2 0.6-3.55 2.2l-0.55 2.25c-0.15 0.4-0.15 0.85-0.050 1.25h-5.6c-0.65 0-1.2 0.55-1.2 1.2 0 0.6 0.4 1.1 1 1.2-0.050 0.050-0.1 0.050-0.15 0.1l-2.2 2.15c-0.35 0.35-0.5 0.8-0.5 1.25v16.25c0 0.45 0.2 0.9 0.5 1.25l2.15 2.15c0.35 0.35 0.8 0.5 1.25 0.5h10.25c0.45 0 0.9-0.2 1.25-0.5l2.15-2.15c0.35-0.35 0.5-0.8 0.5-1.25v-16.25c0.050-0.45-0.15-0.9-0.45-1.25zM17.8 2.65c0.15-0.65 0.85-1.1 1.5-0.95s1.1 0.85 0.95 1.5l-0.050 0.3-2.45-0.6 0.050-0.25zM17.25 5l0.050-0.25 2.45 0.6-0.050 0.25c0 0.1-0.050 0.15-0.1 0.25h-2.25c-0.1-0.25-0.15-0.55-0.1-0.85zM10 12.75c0 0 0-0.050 0-0.050 0-0.050 0-0.1 0-0.15 0 0 0 0 0-0.050 0.050-0.2 0.15-0.4 0.3-0.55l1.7-1.75c0.45-0.45 1.15-0.45 1.6 0s0.45 1.15 0 1.6l-1.35 1.4v2c0 0.6-0.5 1.1-1.1 1.1s-1.1-0.5-1.1-1.1v-2.45zM23.45 19.85l-14.85 4.5v-4.5l14.85-4.5v4.5z"></path>
</svg>
