<!-- Generated by IcoMoon.io -->
<svg version="1.1" xmlns="http://www.w3.org/2000/svg" width="32" height="32" viewBox="0 0 32 32">
<title>candy</title>
<path d="M19.15 0.4c-7.050 0-12.85 5.75-12.85 12.85 0 2.65 0.8 5.1 2.2 7.15-0.050 0.050-0.1 0.1-0.15 0.15l-7.7 7.7c-0.75 0.75-0.75 2 0 2.75v0c0.75 0.75 2 0.75 2.75 0l7.75-7.75c0 0 0.050-0.050 0.050-0.050 2.2 1.75 4.95 2.8 8 2.8 7.050 0.050 12.8-5.7 12.8-12.8s-5.75-12.8-12.85-12.8zM25.75 22.75c-1.4 0.6-2.9 0.9-4.4 0.9-2.6 0-5.2-0.9-7.3-2.7-3.85-3.3-4.25-9.050-1-12.9 2.95-3.4 8.3-3.55 11.35 0 0.25 0.3 0.6 0.8 0.75 1.15 1.1 2.35 0.7 5.1-0.85 6.95-2.050 2.4-5.85 2.4-7.9-0.2-0.1-0.15-0.2-0.25-0.25-0.4-0.85-1.7-0.65-3.75 0.5-5.050 1.3-1.5 3.55-1.7 5.050-0.4 1.3 1.1 1.4 3 0.35 4.3-0.45 0.55-1.35 0.95-2.4 0.8-0.45-0.050-0.95-0.75-0.6-1.35 0 0 0.25-0.4 0.8-0.3 0.15 0.050 0.3 0 0.45 0 0.15-0.050 0.25-0.15 0.35-0.25 0.45-0.55 0.4-1.35-0.15-1.85-0.75-0.65-1.9-0.55-2.6 0.2-0.7 0.8-1 2.1-0.4 3.1 0.65 1.050 1.8 1.55 2.95 1.4 0.9-0.1 1.8-0.65 2.4-1.35 1.15-1.3 1.4-3.2 0.6-4.9-0.1-0.25-0.4-0.65-0.55-0.85-2.35-2.55-6.4-2.45-8.6 0.15-2.65 3.1-2.3 7.75 0.8 10.4 1.9 1.65 4.35 2.45 6.9 2.25 2.5-0.2 4.8-1.35 6.45-3.25 0.9-1.050 1.6-2.2 2.050-3.45-0.45 3.15-2.25 5.85-4.75 7.6z"></path>
</svg>
