<!-- Generated by IcoMoon.io -->
<svg version="1.1" xmlns="http://www.w3.org/2000/svg" width="32" height="32" viewBox="0 0 32 32">
<title>Canoeing</title>
<path d="M15.666 5c0 2.025-1.642 3.666-3.666 3.666s-3.666-1.642-3.666-3.667c0-2.025 1.642-3.667 3.666-3.667s3.666 1.642 3.666 3.667zM31.5 27.5h-0.069c0.478-0.683 0.416-1.628-0.194-2.238l-14.014-14.014c-0.038-0.258-0.127-0.511-0.284-0.741-0.287-0.417-0.724-0.665-1.19-0.733l-0.012-0.012c-0.44-0.44-1.082-0.614-1.681-0.455-0.184 0.048-0.355 0.121-0.509 0.216-6.942 1.13-9.274-6.207-9.37-6.524-0.276-0.926-1.253-1.454-2.177-1.177-0.926 0.276-1.453 1.251-1.177 2.177 0.244 0.819 0.634 1.768 1.177 2.74v5.583c-0.541 0.162-0.994 0.582-1.173 1.162-0.284 0.924 0.234 1.903 1.158 2.188 0.005 0.002 0.010 0.002 0.015 0.004v11.824h-1c-0.414 0-0.75 0.336-0.75 0.75s0.336 0.75 0.75 0.75h1v2c0 0.414 0.336 0.75 0.75 0.75s0.75-0.336 0.75-0.75v-2h28c0.414 0 0.75-0.336 0.75-0.75s-0.336-0.75-0.75-0.75zM16.849 25.886c-2.526-3.058-3.019-4.882-2.639-5.569 0.594-1.073 3.723-1.338 5.989-1.142l8.326 8.325h-11.349c0.16-0.54 0.058-1.148-0.328-1.614zM8.427 12.517c-1.54 0.297-3.236 0.367-4.927-0.056v-3.526c1.234 1.494 2.867 2.832 4.927 3.582zM3.5 16.032c0.85 0.154 1.691 0.232 2.511 0.232 3.732 0 7.031-1.399 8.893-2.385l1.823 1.822c-2.174 0.241-4.502 0.98-5.576 2.916-1.242 2.239-0.419 5.151 2.508 8.883h-10.159v-11.468z"></path>
</svg>
