<!-- Generated by IcoMoon.io -->
<svg version="1.1" xmlns="http://www.w3.org/2000/svg" width="32" height="32" viewBox="0 0 32 32">
<title>Canoe</title>
<path d="M22.166 9c0 2.025-1.642 3.666-3.666 3.666s-3.666-1.642-3.666-3.666c0-2.025 1.642-3.667 3.666-3.667s3.666 1.642 3.666 3.667zM31 23.5h-5.069c0.064-0.093 0.125-0.191 0.172-0.299 0.387-0.886-0.017-1.917-0.902-2.305l-0.247-0.108 2.363-1.289 0.742 0.194c0.933 0.244 1.89-0.317 2.135-1.252s-0.317-1.891-1.252-2.135l-11.5-3c-0.108-0.028-0.22-0.046-0.332-0.053-3.261-0.203-9.945 1.377-11.807 8.823-0.125 0.497-0.020 1.014 0.266 1.425h-4.568c-0.414 0-0.75 0.335-0.75 0.75s0.336 0.749 0.75 0.749h13.101l-2.46 1.341c-0.364 0.198-0.497 0.654-0.299 1.017 0.136 0.25 0.393 0.391 0.659 0.391 0.121 0 0.244-0.029 0.358-0.092l4.874-2.658h13.767c0.414 0 0.75-0.335 0.75-0.75s-0.336-0.75-0.75-0.75zM16.747 16.742l8.45 2.204-1.982 1.081-6.014-2.631c-0.414-0.181-0.882-0.195-1.306-0.039l-5.362 1.976c2.24-2.489 5.482-2.593 6.214-2.59zM9.348 23.5l7.096-2.614 2.886 1.262-2.479 1.352h-7.503zM21.067 22.909l1.352 0.591h-2.437l1.084-0.591z"></path>
</svg>
