<!-- Generated by IcoMoon.io -->
<svg version="1.1" xmlns="http://www.w3.org/2000/svg" width="32" height="32" viewBox="0 0 32 32">
<title>cap</title>
<path d="M8.364 17.165l-8.118 3.197c-0.243 0.096-0.322 0.351-0.166 0.561 4.573 6.215 10.352 4.474 10.352 4.474 1.397-0.14 7.994-2.844 9.969-3.663-0.501-0.137-1.006-0.28-1.514-0.43-4.123-1.221-7.787-2.691-10.523-4.138zM25.102 7.648c0 0.701-0.568 1.269-1.269 1.269s-1.269-0.568-1.269-1.269c0-0.701 0.568-1.269 1.269-1.269s1.269 0.568 1.269 1.269zM31.788 16.402c-0.662-3.386-2.848-6.367-6.023-7.979-0.308 0.765-1.056 1.309-1.931 1.309-1.149 0-2.084-0.935-2.084-2.084 0-0.138 0.015-0.271 0.041-0.401-3.541-0.375-6.997 0.936-9.394 3.415-1.236 1.277-2.193 2.861-2.732 4.683l-0.329 1.115c0.021 0.012 0.044 0.023 0.066 0.035 2.742 1.456 6.43 2.939 10.581 4.168 4.061 1.202 7.883 1.96 10.944 2.246 0.093 0.009 0.183 0.016 0.275 0.023l0.331-1.115c0.539-1.822 0.599-3.671 0.257-5.415z"></path>
</svg>
