<!-- Generated by IcoMoon.io -->
<svg version="1.1" xmlns="http://www.w3.org/2000/svg" width="32" height="32" viewBox="0 0 32 32">
<title>car-verification</title>
<path d="M31.008 26.027l-3.523-3.934c1.395-2.276 2.148-4.892 2.136-7.628-0.017-3.881-1.545-7.523-4.302-10.255-3.433-3.402-8.315-4.872-13.061-3.933-2.848 0.565-5.436 1.956-7.487 4.024-2.732 2.757-4.226 6.412-4.208 10.292s1.546 7.522 4.301 10.255c3.431 3.402 8.315 4.872 13.062 3.933 1.732-0.343 3.367-0.997 4.847-1.92l3.514 3.928c1.314 1.303 3.437 1.295 4.742-0.021 1.303-1.314 1.294-3.438-0.020-4.741zM6.912 22.783c-2.206-2.184-3.428-5.098-3.441-8.201-0.014-3.104 1.18-6.027 3.365-8.231 1.64-1.655 3.709-2.768 5.984-3.219 3.799-0.752 7.704 0.424 10.449 3.144 2.205 2.185 3.428 5.098 3.44 8.202 0.015 3.104-1.179 6.027-3.366 8.232-1.639 1.655-3.707 2.768-5.983 3.219-3.799 0.752-7.704-0.424-10.448-3.146zM24.665 14.762c-0.184-1.079-1.128-1.907-2.258-1.907h-0.14l-0.933-3.739c-0.227-1.287-1.357-2.273-2.706-2.273h-7.271c-1.229 0-2.277 0.817-2.626 1.935v0.001c-0.030 0.095-0.054 0.194-0.073 0.293l-0.945 3.782h-0.141c-1.129 0-2.074 0.828-2.258 1.907-0.020 0.034-0.033 0.073-0.033 0.117v3.86c0 0.125 0.104 0.229 0.229 0.229h0.969v1.22c0 0.996 0.815 1.811 1.811 1.811s1.812-0.816 1.812-1.811v-1.22h9.716v1.22c0 0.996 0.815 1.811 1.811 1.811s1.811-0.816 1.811-1.811v-1.22h1.028c0.125 0 0.229-0.103 0.229-0.229v-3.861c0-0.042-0.013-0.082-0.033-0.116zM11.049 9.5c0-0.126 0.103-0.229 0.229-0.229h7.484c0.126 0 0.229 0.103 0.229 0.229h0.002l0.843 3.355h-9.628l0.842-3.355zM8.265 17.502c-0.854 0-1.547-0.694-1.547-1.548s0.692-1.546 1.547-1.546c0.854 0 1.547 0.693 1.547 1.546 0 0.854-0.693 1.548-1.547 1.548zM21.645 17.502c-0.855 0-1.547-0.694-1.547-1.548s0.692-1.546 1.547-1.546c0.854 0 1.546 0.693 1.546 1.546 0 0.854-0.692 1.548-1.547 1.548z"></path>
</svg>
