<!-- Generated by IcoMoon.io -->
<svg version="1.1" xmlns="http://www.w3.org/2000/svg" width="32" height="32" viewBox="0 0 32 32">
<title>carrot</title>
<path d="M18.9 8.5c1.3 1.1 3.1 2.7 4.45 4.35h6.55c1 0 1.75-0.8 1.75-1.8 0-0.9-0.65-1.6-1.5-1.75v0l-3.65-0.65 1.35-2.4c0.35-0.65 0.35-1.55-0.2-2.1s-1.5-0.65-2-0.3v0l-2.5 1.35-0.7-3.7c-0.15-0.85-0.9-1.45-1.75-1.45v0c-1 0-1.8 0.8-1.8 1.75v6.7zM23.25 21.4c1.25-1.65 1.35-3.85 0.35-5.6v-0.050c-0.75-1.4-2.1-2.9-3.4-4.1-1.25-1.3-2.7-2.6-4.1-3.35v0.050c-1.75-1-3.9-0.95-5.55 0.3-0.1 0.1-0.55 0.5-0.8 0.95l4.5 4.5c0.4 0.4 0.4 1.050 0 1.45s-1.050 0.4-1.45 0l-4.15-4.15-2.2 3.6 3.45 3.45c0.4 0.4 0.4 1.050 0 1.45s-1.050 0.4-1.45 0l-3.1-3.1-2.5 4 2.35 2.35c0.4 0.4 0.4 1.050 0 1.45s-1.050 0.4-1.45 0l-2-2-0.45 0.7c-1.9 2.6-1.65 5.55 0.050 7.2v0l0.1 0.1c1.65 1.65 4.55 1.95 7.15 0.1l13.6-8.4c0.6-0.4 0.95-0.75 1.050-0.9z"></path>
</svg>
