<!-- Generated by IcoMoon.io -->
<svg version="1.1" xmlns="http://www.w3.org/2000/svg" width="32" height="32" viewBox="0 0 32 32">
<title>cart</title>
<path d="M30.985 5h-22.98l-0.394-3.724c-0.107-0.75-0.75-1.276-1.508-1.276h-4.572c-0.841 0-1.524 0.658-1.524 1.5s0.682 1.5 1.524 1.5h3.25l3.369 23.636c0.107 0.75 0.75 1.364 1.508 1.364h17.77c0.841 0 1.523-0.659 1.523-1.5s-0.682-1.5-1.523-1.5h-16.448l-0.48-2.5 18.452-2.646c0.561 0 1.016-0.469 1.016-1.030l2.032-12.769c0-0.561-0.455-1.054-1.015-1.054zM11.691 30.477c0 0.842-0.682 1.524-1.524 1.524s-1.524-0.682-1.524-1.524c0-0.842 0.682-1.524 1.524-1.524s1.524 0.682 1.524 1.524zM27.936 30.477c0 0.842-0.682 1.524-1.524 1.524s-1.524-0.682-1.524-1.524c0-0.842 0.682-1.524 1.524-1.524s1.524 0.682 1.524 1.524z"></path>
</svg>
