<!-- Generated by IcoMoon.io -->
<svg version="1.1" xmlns="http://www.w3.org/2000/svg" width="32" height="32" viewBox="0 0 32 32">
<title>casino</title>
<path d="M30.965 22.5h-0.465v-10.429c0-1.208-0.904-2.071-2.111-2.071h-2.678c-1.104-3-3.405-5.136-6.285-6.155-0.385-0.152-0.776-0.296-1.169-0.366-0.136-0.031-0.272-0.074-0.41-0.099-0.34-0.802-1.133-1.373-2.059-1.373-0.947 0-1.755 0.587-2.082 1.418-0.079 0.017-0.156 0.034-0.234 0.053-0.537 0.089-1.069 0.325-1.586 0.571-2.632 1.097-4.719 2.952-5.755 5.952h-2.768c-1.208 0-2.362 0.863-2.362 2.071v10.429h-0.125c-0.483 0-0.875 0.555-0.875 1.25s0.392 1.25 0.875 1.25h0.125v5h10.5v-3.393c0-0.736 0.028-1.107 1.075-1.107h5.925c1.047 0 1 0.37 1 1.107v3.393h11v-5h0.465c0.483 0 0.875-0.555 0.875-1.25s-0.392-1.25-0.875-1.25zM7.5 21.729c0 0.149-0.199 0.271-0.444 0.271h-1.612c-0.245 0-0.444-0.122-0.444-0.271v-5.458c0-0.149 0.199-0.271 0.444-0.271h1.612c0.245 0 0.444 0.122 0.444 0.271v5.458zM14 21.729c0 0.149-0.198 0.271-0.444 0.271h-1.611c-0.245 0-0.444-0.122-0.444-0.271v-5.458c0-0.149 0.198-0.271 0.444-0.271h1.611c0.245 0 0.444 0.122 0.444 0.271v5.458zM17 13.794v0.206h-2v-0.214c0.5-0.712 0.825-1.712 0.825-1.966 0-0.076-0.053-0.127-0.104-0.127-0.043 0-0.112 0.043-0.171 0.145-0.297 0.653-0.726 0.881-1.26 0.881-0.508 0-1.256-0.382-1.256-1.373 0-1.102 1.389-3.059 2.939-4.686 1.72 1.703 3.051 3.577 3.051 4.661 0 0.771-0.569 1.407-1.306 1.407-0.407 0-0.991-0.237-1.245-0.899-0.043-0.094-0.102-0.136-0.145-0.136-0.059 0-0.105 0.059-0.105 0.136 0 0.152 0.276 1.118 0.776 1.966zM21 21.729c0 0.149-0.198 0.271-0.444 0.271h-1.613c-0.245 0-0.444-0.122-0.444-0.271v-5.458c0-0.149 0.198-0.271 0.444-0.271h1.613c0.245 0 0.444 0.122 0.444 0.271v5.458zM27.5 21.729c0 0.149-0.198 0.271-0.445 0.271h-1.611c-0.245 0-0.444-0.122-0.444-0.271v-5.458c0-0.149 0.198-0.271 0.445-0.271h1.611c0.245 0 0.444 0.122 0.444 0.271v5.458z"></path>
</svg>
