<!-- Generated by IcoMoon.io -->
<svg version="1.1" xmlns="http://www.w3.org/2000/svg" width="32" height="32" viewBox="0 0 32 32">
<title>castle</title>
<path d="M29.802 17.5h-3.087c-0.338 0-0.715 0.372-0.715 0.711v0.789h-2.5v-0.789c0-0.338-0.219-0.711-0.558-0.711h-2.801c-0.093 0-0.14 0.119-0.64 0.157v-2.869c0 0 1-5.209 1-5.186v-0.102h0.485c0.746 0 1.113-0.223 0.824-0.758 0 0-4.879-7.872-5.399-8.728-0.167-0.275-0.538-0.301-0.742 0.010-0.406 0.622-5.399 8.713-5.399 8.713-0.288 0.534-0.094 0.764 0.825 0.764h0.405v0.102c0-0.023 1 5.186 1 5.186v2.869c-0.5-0.038-0.469-0.158-0.563-0.158h-2.8c-0.339 0-0.637 0.372-0.637 0.711v0.789h-2.5v-0.789c0-0.338-0.298-0.711-0.636-0.711h-3.249c-0.339 0-0.615 0.372-0.615 0.711v13.789h11.5v-4.319c0-1.805 1.444-3.27 3.25-3.27s3.25 1.465 3.25 3.27v4.319h11v-13.789c0-0.338-0.358-0.711-0.698-0.711zM18 14h-3.5v-2.334c0-0.98 0.77-1.775 1.75-1.775s1.75 0.795 1.75 1.775v2.334z"></path>
</svg>
