<!-- Generated by IcoMoon.io -->
<svg version="1.1" xmlns="http://www.w3.org/2000/svg" width="32" height="32" viewBox="0 0 32 32">
<title>casual-t-shirt</title>
<path d="M31.778 8.893l-6.491-6.503c-0.108-0.087-0.242-0.135-0.381-0.135l-5.416-0.001c0 1.927-1.563 3.491-3.491 3.491s-3.491-1.563-3.491-3.49l-5.417 0.001c-0.138 0-0.272 0.047-0.38 0.135l-6.49 6.503c-0.249 0.204-0.295 0.567-0.104 0.826l4.801 4.631c0.098 0.132 0.246 0.219 0.409 0.239s0.328-0.027 0.456-0.131l1.62-1.636 0.001 16.323c0 0.16 0.064 0.313 0.176 0.426s0.266 0.177 0.426 0.177h15.985c0.16 0 0.313-0.064 0.426-0.177s0.177-0.266 0.177-0.426l0.001-16.323 1.62 1.636c0.128 0.104 0.291 0.152 0.456 0.131 0.163-0.021 0.311-0.107 0.41-0.239l4.8-4.632c0.192-0.259 0.146-0.623-0.104-0.826z"></path>
</svg>
