<!-- Generated by IcoMoon.io -->
<svg version="1.1" xmlns="http://www.w3.org/2000/svg" width="32" height="32" viewBox="0 0 32 32">
<title>category</title>
<path d="M20.375 20h7.25c0.759 0 1.375-0.616 1.375-1.375v-7.25c0-0.759-0.616-1.375-1.375-1.375h-7.25c-0.759 0-1.375 0.616-1.375 1.375v2.625h-10v-4h2.625c0.759 0 1.375-0.616 1.375-1.375v-7.25c0-0.759-0.616-1.375-1.375-1.375h-7.25c-0.76 0-1.375 0.616-1.375 1.375v7.25c0 0.759 0.615 1.375 1.375 1.375h2.625v17c0 0.552 0.448 1 1 1h11v2.625c0 0.759 0.616 1.375 1.375 1.375h7.25c0.759 0 1.375-0.616 1.375-1.375v-7.25c0-0.759-0.616-1.375-1.375-1.375h-7.25c-0.759 0-1.375 0.616-1.375 1.375v2.625h-10v-10h10v2.625c0 0.759 0.616 1.375 1.375 1.375z"></path>
</svg>
