<!-- Generated by IcoMoon.io -->
<svg version="1.1" xmlns="http://www.w3.org/2000/svg" width="32" height="32" viewBox="0 0 32 32">
<title>cctv</title>
<path d="M30.453 2.5h-28.907c-0.9 0-1.629 0.602-1.635 1.5 0.006 0.898 0.735 1.5 1.635 1.5h28.907c0.9 0 1.629-0.601 1.635-1.5-0.006-0.898-0.735-1.5-1.634-1.5zM18.648 23.974c0 1.462-1.186 2.648-2.648 2.648s-2.648-1.186-2.648-2.648c0-1.462 1.186-2.648 2.648-2.648s2.648 1.186 2.648 2.648zM27.77 7h-23.541c-1.208 0-2.229 0.793-2.229 2v7.63c0 1.207 1.022 2.37 2.229 2.37h0.271v-0.092c0 6.302 5.197 11.365 11.499 11.365 6.303 0 11.501-5.041 11.501-11.342v0.069h0.27c1.207 0 2.23-1.163 2.23-2.37v-7.63c0-1.207-1.022-2-2.23-2zM17.5 9c0-0.276 0.224-0.5 0.5-0.5s0.5 0.224 0.5 0.5v5c0 0.276-0.224 0.5-0.5 0.5s-0.5-0.224-0.5-0.5v-5zM15.5 9c0-0.276 0.223-0.5 0.5-0.5s0.5 0.224 0.5 0.5v5c0 0.276-0.224 0.5-0.5 0.5s-0.5-0.224-0.5-0.5v-5zM13.5 9c0-0.276 0.223-0.5 0.5-0.5s0.5 0.224 0.5 0.5v5c0 0.276-0.223 0.5-0.5 0.5s-0.5-0.224-0.5-0.5v-5zM16 28.159c-2.311 0-4.184-1.874-4.184-4.184s1.873-4.184 4.184-4.184 4.184 1.874 4.184 4.184c0 2.311-1.873 4.184-4.184 4.184z"></path>
</svg>
