<!-- Generated by IcoMoon.io -->
<svg version="1.1" xmlns="http://www.w3.org/2000/svg" width="32" height="32" viewBox="0 0 32 32">
<title>Cells-in-a-circle</title>
<path d="M26.683 20.066c-0.248-0.898-0.85-1.678-1.654-2.148-0.233-0.137-0.482-0.243-0.738-0.323-0.784-0.386-1.698-0.479-2.544-0.245-0.285 0.12-0.573 0.241-0.859 0.362-0.54 0.32-0.969 0.75-1.288 1.29-0.183 0.369-0.35 0.749-0.482 1.14-0.125 0.372-0.139 0.794-0.177 1.174-0.036 0.366 0.026 0.756 0.142 1.103 0.104 0.306 0.191 0.64 0.387 0.901 0.468 0.625 0.628 0.916 1.323 1.317 0.732 0.424 1.020 0.401 1.845 0.501 0.008 0.001 0.015 0.002 0.023 0.002 0.003 0 0.009-0.001 0.012-0.001 0.323-0.041 0.646-0.085 0.968-0.13 0.354-0.073 0.715-0.224 1.011-0.437 0.283-0.203 0.645-0.439 0.895-0.723 0.28-0.314 0.545-0.655 0.772-1.014 0.509-0.8 0.611-1.87 0.364-2.771zM24.035 21.77c-0.073 0.114-0.157 0.224-0.247 0.325-0.081 0.090-0.196 0.165-0.286 0.23-0.094 0.069-0.21 0.116-0.323 0.14-0.104 0.014-0.207 0.029-0.31 0.041-0 0-0.003 0-0.004 0-0.003 0-0.005 0-0.009 0-0.262-0.032-0.354-0.026-0.588-0.16-0.224-0.128-0.274-0.221-0.424-0.422-0.063-0.083-0.091-0.189-0.123-0.288-0.038-0.111-0.058-0.236-0.047-0.352 0.012-0.122 0.017-0.257 0.055-0.377 0.044-0.125 0.096-0.246 0.154-0.364 0.102-0.172 0.241-0.31 0.413-0.412 0.091-0.038 0.181-0.078 0.274-0.116 0.27-0.073 0.563-0.044 0.814 0.078 0.082 0.026 0.162 0.059 0.236 0.104 0.258 0.151 0.449 0.4 0.529 0.688 0.078 0.287 0.047 0.629-0.116 0.885zM11.825 22.005c-0.115-0.067-0.238-0.119-0.364-0.159-0.386-0.19-0.838-0.235-1.255-0.121-0.141 0.059-0.283 0.119-0.424 0.178-0.267 0.158-0.478 0.37-0.636 0.637-0.090 0.182-0.172 0.369-0.238 0.563-0.061 0.183-0.068 0.392-0.087 0.579-0.018 0.18 0.013 0.373 0.070 0.544 0.051 0.151 0.094 0.317 0.191 0.445 0.23 0.308 0.309 0.451 0.652 0.649 0.361 0.208 0.503 0.198 0.909 0.247 0.005 0 0.008 0 0.011 0 0.002 0 0.005 0 0.006 0 0.159-0.020 0.319-0.043 0.477-0.064 0.175-0.035 0.353-0.11 0.498-0.215 0.139-0.099 0.318-0.216 0.441-0.356 0.138-0.155 0.269-0.323 0.381-0.5 0.25-0.393 0.301-0.922 0.178-1.365s-0.418-0.828-0.815-1.059zM11.335 23.904c-0.036 0.057-0.078 0.11-0.122 0.16-0.040 0.044-0.097 0.081-0.141 0.114-0.046 0.033-0.104 0.057-0.159 0.069-0.051 0.007-0.101 0.014-0.153 0.020 0 0-0.001 0-0.002 0s-0.002 0-0.004 0c-0.13-0.016-0.175-0.013-0.29-0.079-0.111-0.064-0.136-0.11-0.209-0.208-0.031-0.041-0.045-0.094-0.061-0.142-0.018-0.055-0.028-0.116-0.023-0.174 0.007-0.061 0.008-0.127 0.027-0.186 0.021-0.061 0.047-0.12 0.076-0.18 0.051-0.085 0.118-0.154 0.204-0.203 0.044-0.019 0.089-0.038 0.135-0.057 0.133-0.036 0.277-0.023 0.402 0.038 0.040 0.012 0.079 0.029 0.116 0.052 0.127 0.073 0.222 0.196 0.261 0.338 0.039 0.14 0.023 0.309-0.057 0.435zM11.445 13.453c-0.239-0.14-0.495-0.248-0.758-0.331-0.805-0.396-1.743-0.49-2.611-0.251-0.294 0.123-0.588 0.248-0.881 0.371-0.553 0.328-0.995 0.769-1.323 1.323-0.186 0.38-0.357 0.77-0.492 1.171-0.129 0.382-0.142 0.814-0.181 1.203-0.037 0.375 0.026 0.776 0.146 1.133 0.106 0.313 0.195 0.657 0.396 0.924 0.481 0.64 0.644 0.939 1.357 1.35 0.752 0.434 1.046 0.412 1.893 0.514 0.009 0.001 0.017 0.002 0.024 0.002 0.005 0 0.008-0.001 0.012-0.001 0.332-0.043 0.662-0.087 0.993-0.134 0.364-0.073 0.733-0.229 1.038-0.448 0.29-0.207 0.661-0.45 0.918-0.74 0.287-0.323 0.557-0.674 0.791-1.041 0.52-0.82 0.626-1.919 0.371-2.842-0.254-0.922-0.87-1.722-1.694-2.204zM16.819 18.887c-0.131-0.076-0.272-0.136-0.416-0.181-0.442-0.218-0.957-0.27-1.434-0.138-0.162 0.068-0.323 0.136-0.484 0.204-0.304 0.18-0.547 0.423-0.728 0.727-0.102 0.207-0.197 0.422-0.271 0.642-0.071 0.21-0.078 0.448-0.1 0.662-0.021 0.206 0.014 0.426 0.081 0.622 0.059 0.173 0.107 0.361 0.218 0.508 0.264 0.352 0.354 0.516 0.746 0.742 0.412 0.239 0.574 0.226 1.040 0.282 0.005 0.001 0.009 0.001 0.013 0.001 0.002 0 0.005 0 0.007 0 0.183-0.024 0.364-0.049 0.546-0.074 0.2-0.040 0.403-0.125 0.57-0.245 0.16-0.114 0.363-0.247 0.505-0.407 0.157-0.177 0.305-0.37 0.434-0.572 0.285-0.451 0.344-1.054 0.204-1.562-0.139-0.506-0.479-0.946-0.931-1.212zM9.893 10.534c0.002 0.002 0.005 0.004 0.008 0.005 0.001 0.001 0.002 0.002 0.004 0.002 0.114 0.052 0.227 0.104 0.341 0.154 0.13 0.050 0.278 0.073 0.417 0.063 0.133-0.008 0.299-0.011 0.438-0.053 0.155-0.046 0.309-0.103 0.456-0.173 0.326-0.158 0.577-0.485 0.678-0.827s0.065-0.717-0.101-1.033c-0.049-0.091-0.108-0.177-0.175-0.255-0.176-0.284-0.454-0.5-0.777-0.596-0.117-0.019-0.235-0.037-0.352-0.056-0.24-0.006-0.467 0.048-0.681 0.157-0.134 0.083-0.265 0.173-0.387 0.273-0.116 0.095-0.206 0.229-0.295 0.345-0.086 0.111-0.145 0.251-0.177 0.387-0.028 0.12-0.069 0.246-0.057 0.37 0.025 0.298 0.018 0.425 0.164 0.697 0.151 0.286 0.249 0.337 0.497 0.536zM21.445 16.79c0.397-0.285 0.907-0.619 1.262-1.017 0.393-0.445 0.765-0.926 1.085-1.43 0.715-1.126 0.86-2.634 0.511-3.904-0.346-1.265-1.195-2.364-2.326-3.027-0.33-0.193-0.68-0.341-1.041-0.454-1.106-0.545-2.395-0.675-3.587-0.346-0.404 0.17-0.806 0.34-1.209 0.511-0.762 0.45-1.367 1.055-1.818 1.816-0.255 0.522-0.492 1.057-0.677 1.607-0.175 0.525-0.194 1.119-0.248 1.653-0.051 0.517 0.037 1.066 0.201 1.554 0.146 0.433 0.269 0.903 0.544 1.27 0.659 0.879 0.885 1.29 1.864 1.855 1.032 0.596 1.436 0.565 2.6 0.706 0.011 0.002 0.023 0.003 0.033 0.003 0.006-0.001 0.012-0.001 0.017-0.001 0.454-0.058 0.91-0.119 1.365-0.183 0.499-0.1 1.006-0.315 1.425-0.614zM19.136 13.695c-0.157 0.022-0.314 0.043-0.47 0.063-0.003 0.001-0.004 0.001-0.006 0.001-0.005 0-0.009 0-0.012-0.001-0.401-0.049-0.54-0.039-0.895-0.243-0.337-0.194-0.415-0.336-0.64-0.637-0.095-0.127-0.137-0.288-0.188-0.438-0.056-0.168-0.087-0.357-0.069-0.535 0.018-0.183 0.024-0.388 0.087-0.568 0.063-0.191 0.144-0.374 0.232-0.553 0.155-0.262 0.363-0.47 0.625-0.624 0.139-0.059 0.279-0.117 0.416-0.177 0.411-0.113 0.854-0.069 1.235 0.118 0.125 0.040 0.244 0.091 0.358 0.156 0.389 0.229 0.68 0.607 0.801 1.042 0.119 0.437 0.070 0.955-0.175 1.342-0.11 0.174-0.238 0.339-0.373 0.492-0.121 0.136-0.298 0.252-0.434 0.35-0.145 0.102-0.32 0.177-0.491 0.211zM16 0c-8.823 0-16 7.178-16 16s7.177 16 16 16 16-7.177 16-16c0-8.822-7.177-16-16-16zM16 30.37c-7.925 0-14.37-6.446-14.37-14.37s6.446-14.37 14.37-14.37 14.37 6.446 14.37 14.37-6.446 14.37-14.37 14.37z"></path>
</svg>
