<!-- Generated by IcoMoon.io -->
<svg version="1.1" xmlns="http://www.w3.org/2000/svg" width="32" height="32" viewBox="0 0 32 32">
<title>celsius</title>
<path d="M25.432 25.777c-5.168 0-8.209-3.23-8.209-8.361 0-5.7 3.573-8.475 8.171-8.475 2.052 0 3.686 0.456 4.864 0.95l1.177-4.598c-1.026-0.532-3.306-1.14-6.308-1.14-7.753 0-13.985 4.864-13.985 13.605 0 7.297 4.56 12.806 13.415 12.806 3.116 0 5.511-0.57 6.575-1.102l-0.874-4.523c-1.14 0.456-3.078 0.837-4.826 0.837zM4.564 1.435c-2.205 0-4 1.794-4 4s1.795 4 4 4 4-1.795 4-4-1.795-4-4-4zM4.564 6.935c-0.827 0-1.5-0.673-1.5-1.5s0.673-1.5 1.5-1.5 1.5 0.673 1.5 1.5-0.673 1.5-1.5 1.5z"></path>
</svg>
