<!-- Generated by IcoMoon.io -->
<svg version="1.1" xmlns="http://www.w3.org/2000/svg" width="32" height="32" viewBox="0 0 32 32">
<title>cereals</title>
<path d="M8.45 10c0 1.45 1.15 2.6 2.6 2.6s2.6-1.15 2.6-2.6-1.15-2.6-2.6-2.6-2.6 1.2-2.6 2.6zM11.85 10c0 0.45-0.35 0.8-0.8 0.8s-0.8-0.35-0.8-0.8c0-0.45 0.35-0.8 0.8-0.8s0.8 0.35 0.8 0.8zM8.45 6.55c1.45 0 2.6-1.15 2.6-2.6s-1.15-2.6-2.6-2.6-2.6 1.15-2.6 2.6 1.2 2.6 2.6 2.6zM8.45 3.15c0.45 0 0.8 0.35 0.8 0.8s-0.35 0.8-0.8 0.8c-0.45 0-0.8-0.35-0.8-0.8s0.35-0.8 0.8-0.8zM19.2 10.65c1.45 0 2.6-1.15 2.6-2.6s-1.15-2.6-2.6-2.6c-1.45 0-2.6 1.15-2.6 2.6s1.2 2.6 2.6 2.6zM19.2 7.25c0.45 0 0.8 0.35 0.8 0.8s-0.35 0.8-0.8 0.8-0.8-0.35-0.8-0.8c0-0.45 0.4-0.8 0.8-0.8zM30.35 15.65h-5.1l6.050-8.55c0.3-0.45 0.2-1.1-0.25-1.4s-1.1-0.2-1.4 0.25l-6.9 9.7h-3.6c0.050-0.15 0.050-0.35 0.050-0.5 0-1.45-1.15-2.6-2.6-2.6s-2.6 1.15-2.6 2.6c0 0.2 0 0.35 0.050 0.5h-7c0-0.050 0-0.15 0-0.2 0-1.45-1.15-2.6-2.6-2.6s-2.6 1.15-2.6 2.55c0 0.050 0 0.15 0 0.2h-0.4c-0.65 0-1.15 0.7-1.15 1.45s0.5 1.45 1.15 1.45h0.35c0.2 1.55 1.050 5.55 5.1 9.1h-0.050v0.75c0 0.55 0.45 1.2 0.95 1.2h15.95c0.5 0 1.050-0.65 1.050-1.2v-0.65c3.85-3.85 4.75-7.65 4.95-9.2h0.6c0.65 0 1.15-0.7 1.15-1.45 0-0.7-0.55-1.4-1.15-1.4zM3.65 15.4c0-0.45 0.35-0.8 0.8-0.8s0.8 0.35 0.8 0.8c0 0.1 0 0.15-0.050 0.2h-1.55c0-0.050 0-0.1 0-0.2zM7.45 23.55c-0.1 0.4-0.55 0.65-0.95 0.5-0.1-0.050-0.2-0.050-0.25-0.15 0 0 0 0 0 0s0 0 0 0c-0.050-0.050-0.1-0.1-0.1-0.15-1.15-1.15-1.9-2.65-2.15-4.3-0.050-0.15-0.050-0.3 0-0.4 0.1-0.4 0.55-0.65 0.95-0.5 0.3 0.1 0.55 0.4 0.55 0.7 0.2 1.3 0.8 2.55 1.75 3.55 0.050 0.050 0.1 0.050 0.1 0.1v0 0c0.1 0.15 0.15 0.4 0.1 0.65zM15.8 15.1c0-0.45 0.35-0.8 0.8-0.8s0.8 0.35 0.8 0.8c0 0.2-0.050 0.4-0.2 0.5h-1.2c-0.1-0.1-0.2-0.3-0.2-0.5zM12.75 25.95v0c-0.5 0-1-0.15-1.4-0.55s-0.55-0.9-0.55-1.4v0-1.8h1.8c0.5 0 1 0.15 1.4 0.55s0.55 0.9 0.55 1.4v1.8h-1.8zM17.8 22.8l-1.25 1.3-1.25-1.3c-0.35-0.35-0.6-0.85-0.6-1.4s0.25-1.050 0.6-1.4v0l1.25-1.3 1.25 1.3c0.35 0.35 0.6 0.85 0.6 1.4s-0.2 1.050-0.6 1.4zM22.2 24v0c0 0.5-0.15 1-0.55 1.4s-0.9 0.55-1.4 0.55v0h-1.8v-1.8c0-0.5 0.15-1 0.55-1.4s0.9-0.55 1.4-0.55v0h1.8v1.8z"></path>
</svg>
