<!-- Generated by IcoMoon.io -->
<svg version="1.1" xmlns="http://www.w3.org/2000/svg" width="32" height="32" viewBox="0 0 32 32">
<title>chainsaw</title>
<path d="M13.996 11.068c0.328-0.337 0.56-0.589 0.582-0.612 0.52-0.572 0.905-1.813-0.172-2.889-0.678-0.678-3.217-3.292-3.242-3.319-0.313-0.323-0.831-0.331-1.155-0.017-0.325 0.315-0.331 0.83-0.017 1.155 0.104 0.107 2.572 2.649 3.259 3.336 0.104 0.104 0.347 0.346 0.111 0.645-0.068 0.072-0.419 0.449-0.845 0.875-0.485-0.024-0.977 0.148-1.348 0.518l-4.828 3.359c-0.135 0.134-0.353 0.466-0.612 0.916l-0.971-0.37c-0.247-0.095-0.524 0.028-0.617 0.276l-0.614 1.601c-0.094 0.247 0.030 0.524 0.276 0.617l0.709 0.271c-0.76 1.664-1.398 3.425-1.167 3.946l-2.436 5.571-0.012 0.030c-0.189 0.483-0.312 1.519 0.427 2.337 0.723 0.8 1.701 1.706 1.747 1.747 0.572 0.52 1.813 0.904 2.889-0.172 0.452-0.453 2.358-2.324 3.595-3.539 0.619 0.206 1.329 0.064 1.823-0.429l7.976-7.977c0.695-0.695 0.695-1.822 0-2.518l-5.36-5.36zM4.806 29.735c-0.104 0.104-0.347 0.347-0.644 0.11-0.115-0.108-0.994-0.927-1.625-1.627-0.229-0.253-0.136-0.588-0.119-0.642l1.212-2.774 2.529-0.583 2.11 2.109c-1.239 1.215-3.017 2.962-3.462 3.407zM14.842 20.309l-2.623-2.623 0.777-0.779 2.624 2.624-0.778 0.777zM16.584 18.569l-2.623-2.624 0.777-0.777 2.623 2.624-0.777 0.778zM30.51 1.133c-1.214-1.214-2.97-0.948-4.18 0.263l-0.046 0.103h-2.284v1.5h-1.5v1.5h-1.5v2h-1v1h-1.5v1.5h-1.5v1.815l-0.744 0.671 3.939 4.079 0.634-0.565h1.671v-1.5h1.5v-1.5h1.5v-1.5h2v-1.5h1.5v-1.5h1.5v-2.139l-0.075-0.046c1.21-1.212 1.299-2.967 0.085-4.181z"></path>
</svg>
