<!-- Generated by IcoMoon.io -->
<svg version="1.1" xmlns="http://www.w3.org/2000/svg" width="32" height="32" viewBox="0 0 32 32">
<title>chart-table-view</title>
<path d="M1 0c-0.552 0-1 0.448-1 1v12c0 0.552 0.448 1 1 1s1-0.448 1-1v-12c0-0.552-0.448-1-1-1zM1 16c-0.552 0-1 0.448-1 1v5c0 0.552 0.448 1 1 1s1-0.448 1-1v-5c0-0.552-0.448-1-1-1zM1 25c-0.552 0-1 0.448-1 1v5c0 0.552 0.448 1 1 1s1-0.448 1-1v-5c0-0.552-0.448-1-1-1zM5 2h18c0.552 0 1-0.448 1-1s-0.448-1-1-1h-18c-0.552 0-1 0.448-1 1s0.448 1 1 1zM31.094 4h-26.188c-0.5 0-0.907 0.406-0.907 0.907v0.188c0 0.5 0.406 0.906 0.907 0.906h26.188c0.5 0 0.906-0.406 0.906-0.906v-0.188c0-0.5-0.406-0.907-0.906-0.907zM31.094 16h-26.188c-0.5 0-0.907 0.406-0.907 0.907v0.188c0 0.161 0.046 0.311 0.12 0.442-0.074 0.14-0.12 0.296-0.12 0.465v5c0 0.169 0.046 0.325 0.12 0.465-0.074 0.131-0.12 0.28-0.12 0.442v0.188c0 0.161 0.046 0.311 0.12 0.442-0.074 0.14-0.12 0.296-0.12 0.465v5c0 0.169 0.046 0.325 0.12 0.465-0.074 0.131-0.12 0.28-0.12 0.442v0.188c0 0.5 0.406 0.906 0.907 0.906h26.188c0.5 0 0.906-0.406 0.906-0.906v-0.188c0-0.161-0.046-0.311-0.119-0.442 0.073-0.14 0.119-0.296 0.119-0.465v-5c0-0.169-0.046-0.325-0.119-0.465 0.073-0.131 0.119-0.28 0.119-0.442v-0.188c0-0.161-0.046-0.311-0.119-0.442 0.073-0.14 0.119-0.297 0.119-0.465v-5c0-0.169-0.046-0.325-0.119-0.465 0.073-0.131 0.119-0.28 0.119-0.442v-0.188c0-0.5-0.406-0.907-0.906-0.907zM30 18v5h-4.5v-5h4.5zM23.5 18v5h-4.5v-5h4.5zM17 18v5h-4.5v-5h4.5zM10.5 18v5h-4.5v-5h4.5zM6 30v-5h4.5v5h-4.5zM12.5 30v-5h4.5v5h-4.5zM19 30v-5h4.5v5h-4.5zM25.5 30v-5h4.5v5h-4.5zM5 10h14c0.552 0 1-0.448 1-1s-0.448-1-1-1h-14c-0.552 0-1 0.448-1 1s0.448 1 1 1zM5 14h8.5c0.552 0 1-0.448 1-1s-0.448-1-1-1h-8.5c-0.552 0-1 0.448-1 1s0.448 1 1 1z"></path>
</svg>
