<!-- Generated by IcoMoon.io -->
<svg version="1.1" xmlns="http://www.w3.org/2000/svg" width="32" height="32" viewBox="0 0 32 32">
<title>chart-axis</title>
<path d="M31.609 27.617l-4.628-3.312c-0.183-0.183-0.48-0.166-0.48 0.166 0 0.131 0 1.226 0 2.529h-20.229l18.381-18.381c0.105-0.105 0.183-0.225 0.238-0.349 0.988 0.988 1.861 1.861 2.007 2.007 0.352 0.351 0.457 0.035 0.457-0.223 0 0 0.692-5.28 0.692-5.846s-0.206-0.471-0.466-0.472l-5.615 0.93c-0.259 0-0.457 0.223-0.223 0.457 0.091 0.091 0.841 0.841 1.741 1.741-0.125 0.054-0.244 0.132-0.349 0.237l-18.135 18.135v-19.735c1.303 0 2.421 0 2.616 0 0.497 0 0.348-0.236 0.165-0.419 0 0-3.244-4.16-3.644-4.561s-0.479-0.205-0.663-0.022l-3.312 4.593c-0.182 0.184-0.166 0.409 0.165 0.409 0.136 0 1.306 0 2.672 0v22.7c0 0.208 0.102 0.395 0.264 0.538 0.143 0.161 0.329 0.262 0.536 0.262h22.7c0 1.364 0 2.556 0 2.759 0 0.497 0.299 0.348 0.482 0.166 0 0 4.223-3.244 4.622-3.645 0.401-0.401 0.188-0.479 0.005-0.663z"></path>
</svg>
