<!-- Generated by IcoMoon.io -->
<svg version="1.1" xmlns="http://www.w3.org/2000/svg" width="32" height="32" viewBox="0 0 32 32">
<title>Chart-Tree-Map</title>
<path d="M13 0h-12c-0.552 0-1 0.448-1 1v30c0 0.552 0.448 1 1 1h12c0.552 0 1-0.448 1-1v-30c0-0.552-0.448-1-1-1zM31 0h-14c-0.552 0-1 0.448-1 1v12c0 0.552 0.448 1 1 1h14c0.552 0 1-0.448 1-1v-12c0-0.552-0.448-1-1-1zM22 16h-5c-0.552 0-1 0.448-1 1v14c0 0.552 0.448 1 1 1h5c0.552 0 1-0.448 1-1v-14c0-0.552-0.448-1-1-1zM31 16h-5c-0.552 0-1 0.448-1 1v5c0 0.552 0.448 1 1 1h5c0.552 0 1-0.448 1-1v-5c0-0.552-0.448-1-1-1zM31 25h-5c-0.552 0-1 0.448-1 1v5c0 0.552 0.448 1 1 1h5c0.552 0 1-0.448 1-1v-5c0-0.552-0.448-1-1-1z"></path>
</svg>
