<!-- Generated by IcoMoon.io -->
<svg version="1.1" xmlns="http://www.w3.org/2000/svg" width="32" height="32" viewBox="0 0 32 32">
<title>charger</title>
<path d="M26 5v-4c0-0.552-0.448-1-1-1s-1 0.448-1 1v4h-3.5v-4c0-0.552-0.448-1-1-1s-1 0.448-1 1v4c-1.105 0-2 0.896-2 2v12c0 1.105 0.895 2 2 2h3v2.5c0 3.5-3 6.5-6.5 6.5s-6-3-6-6.5v-4h2.126c0.483 0 0.874-0.392 0.874-0.875v-6.251c0-0.483-0.392-0.874-0.874-0.874h-0.626v-3.441c0-0.309-0.25-0.559-0.559-0.559h-3.881c-0.309 0-0.559 0.25-0.559 0.559v3.441h-0.625c-0.483 0-0.875 0.392-0.875 0.874v6.251c0 0.483 0.391 0.875 0.875 0.875h2.125v4c0 4.5 3.444 8.5 8 8.5s8.5-4 8.5-8.5v-2.5h2.5c1.105 0 2-0.895 2-2v-12c0-1.104-0.895-2-2-2zM24.735 13.764l-5.735 3.824 3.058-3.823-1.912-1.53 5.353-3.823-2.677 3.824 1.913 1.529z"></path>
</svg>
