<!-- Generated by IcoMoon.io -->
<svg version="1.1" xmlns="http://www.w3.org/2000/svg" width="32" height="32" viewBox="0 0 32 32">
<title>checklist</title>
<path d="M25 3.5h-1c0-0.552-0.448-1-1-1h-4.416c0-1.381-1.119-2.5-2.5-2.5s-2.5 1.119-2.5 2.5h-4.584c-0.552 0-1 0.448-1 1h-1c-1.657 0-3 1.343-3 3v22.5c0 1.657 1.343 3 3 3h18c1.657 0 3-1.343 3-3v-22.5c0-1.657-1.343-3-3-3zM15 2.5c0-0.552 0.448-1 1-1s1 0.448 1 1-0.448 1-1 1-1-0.448-1-1zM26 29c0 0.552-0.448 1-1 1h-18c-0.551 0-1-0.448-1-1v-22.5c0-0.551 0.449-1 1-1h1c0 0.552 0.448 1 1 1h14c0.552 0 1-0.448 1-1h1c0.552 0 1 0.449 1 1v22.5zM12.56 8.818l-0.759 0.759c-0.222-0.347-0.608-0.578-1.051-0.578h-2.5c-0.691 0-1.25 0.559-1.25 1.25v2.5c0 0.691 0.559 1.25 1.25 1.25h2.5c0.691 0 1.25-0.559 1.25-1.25v-1.957l1.268-1.268c0.195-0.196 0.195-0.512 0-0.707s-0.512-0.194-0.707 0.001zM11 12.75c0 0.138-0.112 0.25-0.25 0.25h-2.5c-0.138 0-0.25-0.112-0.25-0.25v-2.5c0-0.138 0.112-0.25 0.25-0.25h2.375c0.138 0 0.375 0.112 0.375 0.25v0.129l-0.854 0.854-1-1c-0.195-0.196-0.512-0.196-0.707 0s-0.195 0.511 0 0.707l1.167 1.167c0 0 0.393 0.4 0.54 0.382 0.148 0.018 0.54-0.382 0.54-0.382l0.313-0.314v0.957zM12.56 15.318l-0.759 0.76c-0.222-0.347-0.608-0.578-1.051-0.578h-2.5c-0.691 0-1.25 0.559-1.25 1.25v2.5c0 0.691 0.559 1.25 1.25 1.25h2.5c0.691 0 1.25-0.559 1.25-1.25v-1.957l1.268-1.268c0.195-0.195 0.195-0.512 0-0.707s-0.512-0.194-0.707 0.001zM11 19.25c0 0.138-0.112 0.25-0.25 0.25h-2.5c-0.138 0-0.25-0.112-0.25-0.25v-2.5c0-0.138 0.112-0.25 0.25-0.25h2.375c0.138 0 0.375 0.112 0.375 0.25v0.129l-0.854 0.854-1-1c-0.195-0.195-0.512-0.195-0.707 0s-0.195 0.512 0 0.707l1.167 1.167c0 0 0.393 0.4 0.54 0.382 0.148 0.018 0.54-0.381 0.54-0.381l0.313-0.314v0.957zM10.75 22h-2.5c-0.691 0-1.25 0.559-1.25 1.25v2.5c0 0.691 0.559 1.25 1.25 1.25h2.5c0.691 0 1.25-0.559 1.25-1.25v-2.5c0-0.691-0.559-1.25-1.25-1.25zM11 25.75c0 0.138-0.112 0.25-0.25 0.25h-2.5c-0.138 0-0.25-0.112-0.25-0.25v-2.5c0-0.138 0.112-0.25 0.25-0.25h2.375c0.138 0 0.375 0.112 0.375 0.25v2.5zM23.5 10h-8.5c-0.276 0-0.5 0.224-0.5 0.5s0.224 0.5 0.5 0.5h8.5c0.276 0 0.5-0.224 0.5-0.5s-0.224-0.5-0.5-0.5zM15 13h5c0.276 0 0.5-0.224 0.5-0.5s-0.224-0.5-0.5-0.5h-5c-0.276 0-0.5 0.224-0.5 0.5s0.224 0.5 0.5 0.5zM23.5 16.5h-8.5c-0.276 0-0.5 0.224-0.5 0.5s0.224 0.5 0.5 0.5h8.5c0.276 0 0.5-0.224 0.5-0.5s-0.224-0.5-0.5-0.5zM15 19.5h5c0.276 0 0.5-0.224 0.5-0.5s-0.224-0.5-0.5-0.5h-5c-0.276 0-0.5 0.224-0.5 0.5s0.224 0.5 0.5 0.5zM23.5 23h-8.5c-0.276 0-0.5 0.224-0.5 0.5s0.224 0.5 0.5 0.5h8.5c0.276 0 0.5-0.224 0.5-0.5s-0.224-0.5-0.5-0.5zM20 25h-5c-0.276 0-0.5 0.224-0.5 0.5s0.224 0.5 0.5 0.5h5c0.276 0 0.5-0.224 0.5-0.5s-0.224-0.5-0.5-0.5z"></path>
</svg>
