<!-- Generated by IcoMoon.io -->
<svg version="1.1" xmlns="http://www.w3.org/2000/svg" width="32" height="32" viewBox="0 0 32 32">
<title>check-square</title>
<path d="M27.5 1h-23.5c-1.657 0-3 1.343-3 3v24c0 1.657 1.343 3 3 3h24c1.657 0 3-1.343 3-3v-24c0-1.657-1.843-3-3.5-3zM28.192 10.531l-14.16 14.16c-0.075 0.076-0.162 0.134-0.252 0.174l-0.188 0.188c-0.332 0.332-0.799 0.305-1.103 0l-8.645-8.645c-0.304-0.305-0.332-0.771 0-1.104l2.482-2.482c0.332-0.332 0.798-0.305 1.103 0l5.651 5.65 11.527-11.528c0.305-0.304 0.771-0.332 1.104 0l2.482 2.482c0.331 0.332 0.303 0.799-0 1.103z"></path>
</svg>
