<!-- Generated by IcoMoon.io -->
<svg version="1.1" xmlns="http://www.w3.org/2000/svg" width="32" height="32" viewBox="0 0 32 32">
<title>check-circle</title>
<path d="M16 0.834c-8.377 0-15.166 6.79-15.166 15.166s6.79 15.166 15.166 15.166 15.166-6.791 15.166-15.166-6.79-15.166-15.166-15.166zM14.134 25.186c-0.072 0.072-0.153 0.127-0.239 0.166l-0.178 0.178c-0.316 0.314-0.758 0.289-1.046 0l-8.194-8.194c-0.289-0.288-0.315-0.73 0-1.046l2.353-2.352c0.315-0.315 0.757-0.289 1.045 0l5.356 5.355 10.927-10.928c0.288-0.289 0.731-0.315 1.046 0l2.352 2.353c0.315 0.315 0.288 0.756 0 1.046l-13.422 13.422z"></path>
</svg>
