<!-- Generated by IcoMoon.io -->
<svg version="1.1" xmlns="http://www.w3.org/2000/svg" width="32" height="32" viewBox="0 0 32 32">
<title>cheese</title>
<path d="M9.25 18.45c0 1.022-0.828 1.85-1.85 1.85s-1.85-0.828-1.85-1.85c0-1.022 0.828-1.85 1.85-1.85s1.85 0.828 1.85 1.85zM16.2 22.4c0 1.684-1.366 3.050-3.050 3.050s-3.050-1.366-3.050-3.050c0-1.684 1.366-3.050 3.050-3.050s3.050 1.366 3.050 3.050zM26.45 17.8c0 0.663-0.537 1.2-1.2 1.2s-1.2-0.537-1.2-1.2c0-0.663 0.537-1.2 1.2-1.2s1.2 0.537 1.2 1.2zM29.8 13.6c0.050-2.3-0.7-8.1-9.1-10.65-1.050-0.3-2.15-0.5-3.050 0.15l-1.75 1.2c0.1 0.25 0.15 0.55 0.15 0.85 0 1.2-0.95 2.15-2.15 2.15-0.6 0-1.15-0.25-1.55-0.65l-9 6.050c-0.55 0.4-0.95 0.95-1.15 1.6-0.15 0.25-0.2 0.6-0.2 1v11.55c0 1.4 1.1 2.5 2.5 2.5h12.75l0.15-0.5c0.4-1.2 1.5-2 2.75-2s2.35 0.8 2.75 2l0.15 0.5h4.35c1.4 0 2.5-1.1 2.5-2.5v-12.95c-0.050-0.1-0.1-0.2-0.1-0.3zM27.35 27.8h-3.25c-0.7-1.5-2.25-2.5-3.95-2.5s-3.25 1-3.95 2.5h-11.75c-0.55 0-1-0.45-1-1v-11.5c0-0.3 0.15-0.6 0.35-0.75h13.4c0.25 1.4 1.4 2.45 2.85 2.45s2.65-1.050 2.85-2.45h5.35v6.55c-0.1 0-0.2-0.050-0.3-0.050-0.95 0-1.7 0.75-1.7 1.7s0.75 1.7 1.7 1.7c0.1 0 0.2 0 0.3-0.050v2.35c0.050 0.6-0.35 1.050-0.9 1.050z"></path>
</svg>
