<!-- Generated by IcoMoon.io -->
<svg version="1.1" xmlns="http://www.w3.org/2000/svg" width="32" height="32" viewBox="0 0 32 32">
<title>chef</title>
<path d="M25.1 6.55c-0.95 0-1.85 0.25-2.65 0.65-0.7-2.95-3.4-5.1-6.55-4.95-2.95 0.15-5.35 2.25-5.95 5.050-0.8-0.4-1.65-0.65-2.6-0.65-3.15 0-5.7 2.55-5.7 5.7 0 2.7 1.9 4.95 4.4 5.55l1 5.45h3.55l-0.4-4.050c-0.050-0.5 0.35-1 0.85-1.050s1 0.35 1.050 0.85l0.4 4.25h2.75v-6.6c0-0.55 0.45-0.95 0.95-0.95 0.55 0 0.95 0.45 0.95 0.95v6.65h2.75l0.45-4.25c0.050-0.5 0.55-0.9 1.050-0.85s0.9 0.55 0.85 1.050l-0.45 4.050h3.55l1.050-5.55c2.5-0.6 4.4-2.85 4.4-5.55 0-3.2-2.55-5.75-5.7-5.75zM7.35 25.1l0.4 2.2c0 1.35 1.1 2.5 2.5 2.5h11.9c1.35 0 2.5-1.1 2.5-2.5l0.4-2.2h-17.7z"></path>
</svg>
