<!-- Generated by IcoMoon.io -->
<svg version="1.1" xmlns="http://www.w3.org/2000/svg" width="32" height="32" viewBox="0 0 32 32">
<title>Chemistry-flask</title>
<path d="M28.174 26.232l-6.298-12.267v-9.396h-1.249v-3.412c0-0.639-0.517-1.157-1.157-1.157h-6.94c-0.638 0-1.156 0.517-1.156 1.157v3.412h-1.232v9.396l-6.309 12.291c-0.654 1.352-0.679 2.654-0.073 3.764 0.677 1.24 1.925 1.98 3.338 1.98h17.823c1.413 0 2.662-0.741 3.338-1.98 0.703-1.285 0.419-2.798-0.084-3.789zM26.348 28.977c-0.294 0.538-0.814 0.846-1.428 0.846h-17.823c-0.614 0-1.135-0.309-1.428-0.848-0.259-0.474-0.218-1.070 0.111-1.751l6.334-12.336c0.134-0.232 0.204-0.494 0.204-0.763v-7.38h7.381v7.38c0 0.267 0.070 0.528 0.203 0.76l6.332 12.335c0.249 0.491 0.39 1.248 0.113 1.756zM20.539 19.73h-1.362c0.387-0.361 0.634-0.872 0.634-1.445 0-1.095-0.887-1.982-1.982-1.982s-1.982 0.887-1.982 1.982c0 0.573 0.245 1.084 0.634 1.445h-5.020l-3.034 5.911c-0.296 0.611-0.856 1.52-0.529 2.119 0.327 0.601 1.019 0.711 2.073 0.711h12.056c1.053 0 1.747-0.11 2.073-0.711 0.328-0.598-0.233-1.508-0.529-2.119l-3.033-5.911zM17.063 14.927c0 0.869-0.705 1.574-1.574 1.574s-1.574-0.705-1.574-1.574c0-0.869 0.705-1.574 1.574-1.574s1.574 0.705 1.574 1.574z"></path>
</svg>
