<!-- Generated by IcoMoon.io -->
<svg version="1.1" xmlns="http://www.w3.org/2000/svg" width="32" height="32" viewBox="0 0 32 32">
<title>cherries</title>
<path d="M31.25 19.2v0c-0.75-2-2.55-3.4-4.65-3.4-0.2 0-1.1 0.15-2 0.25-2.15-4.050-5.45-7.2-9.4-9.3 1.9-0.35 3.8-1.7 4.65-5.3-5.95-2.7-8.35 1.5-9.15 3.6-1.1-0.35-2.2-0.55-3.4-0.75l0.1-0.1c0.4-0.4 0.35-1.1-0.1-1.45l-0.25-0.2c-0.4-0.4-1.1-0.35-1.45 0.1l-2.65 3c-0.4 0.4-0.35 1.1 0.1 1.45l0.25 0.2c0.4 0.4 1.1 0.35 1.45-0.1l0.15-0.2c2.7 2.3 4 5.45 4 8.6 0 0 0 0 0 0s0 0 0 0 0 0 0 0c-1.3 0-2.8-0.3-3.1-0.3-3.75 0-5 3.6-5 3.6s-0.8 1.65-0.3 5.15c0 0.1 0.050 0.4 0.050 0.4 0.65 3.95 4.15 6.95 8.4 6.95 4.2 0 7.7-3.050 8.4-6.95 0 0 0.050-0.25 0.050-0.4 0.5-3.5-0.3-5.15-0.3-5.15v0c-0.8-2.1-2.7-3.6-5-3.6-0.15 0-0.6 0.050-1.15 0.15-0.050-3.3-1.3-6.65-3.9-9.2 6.55 0.85 12.1 4.4 15.35 9.8-0.75-0.1-1.4-0.2-1.55-0.2-1.1 0-2.1 0.4-2.9 1 0.35 0.5 0.6 1 0.85 1.6 0.2 0.4 0.9 2.3 0.4 5.8 0 0.1-0.050 0.4-0.050 0.4-0.2 1.3-0.7 2.45-1.35 3.5 1.45 1.65 3.6 2.7 6 2.7 3.95 0 7.2-2.8 7.8-6.5 0 0 0.050-0.25 0.050-0.35 0.35-3.2-0.4-4.8-0.4-4.8zM3.6 21.2c-0.15 0.35-0.55 0.5-0.9 0.35s-0.55-0.65-0.4-1.050c0.6-1.3 1.6-2.35 2.85-3 0.4-0.2 0.9 0 1.1 0.35 0.15 0.35 0.050 0.75-0.3 0.9-1.050 0.5-1.85 1.35-2.35 2.45z"></path>
</svg>
