<!-- Generated by IcoMoon.io -->
<svg version="1.1" xmlns="http://www.w3.org/2000/svg" width="32" height="32" viewBox="0 0 32 32">
<title>chess</title>
<path d="M19.928 21.5c0.286 0 0.517-0.224 0.517-0.5s-0.232-0.5-0.517-0.5h-10.357c-0.286 0-0.518 0.224-0.518 0.5s0.232 0.5 0.518 0.5h10.357zM21.5 26.5h-0.5v-1.194c0.591-0.288 1-0.873 1-1.556 0-0.966-0.811-1.75-1.813-1.75h-10.875c-1.001 0-1.813 0.784-1.813 1.75 0 0.683 0.409 1.268 1 1.556v1.194h-0.5c-0.552 0-1 0.448-1 1v2c0 0.552 0.448 1 1 1v0.5c0 0.552 0.448 1 1 1h11.5c0.552 0 1-0.448 1-1v-0.5c0.552 0 1-0.448 1-1v-2c0-0.552-0.448-1-1-1zM22.165 14c0 0 2.835 0 2.835-2.87 0-1.522-1.117-2.553-2.753-3.13-1.157-0.409-1.914-1.768-2.424-2.644s-1.631-2.356-3.112-2.356h-2.211v-3c-10.5 4.087-7 20-7 20h15c-1.684-5.512-6.912-8.188-6.912-8.188l4.177 0.544c0.454 0.907 1.319 1.644 2.401 1.644z"></path>
</svg>
