<!-- Generated by IcoMoon.io -->
<svg version="1.1" xmlns="http://www.w3.org/2000/svg" width="32" height="32" viewBox="0 0 32 32">
<title>chili</title>
<path d="M29.5 8.2c0.85-1.35 1.2-3.050 0.75-4.7-0.050-0.15-0.1-0.3-0.25-0.45-0.3-0.3-0.75-0.25-1.050 0.050-0.2 0.2-0.25 0.55-0.15 0.8 0.35 1.25 0.1 2.55-0.65 3.6l-0.65-0.35c-3.5-1.85-5.4 1.3-5.45 1.3l-0.15 0.3 0.25 0.25c0 0 0.4 0.4 0.95 0.7 0.5 0.25 1.25 0.5 2.1 0.45-0.45 1.45 0.15 2.75 0.15 2.85l0.15 0.3 0.35-0.050c0.050 0 1.5-0.3 2.45-1.5 0.45 0.75 1.050 1.2 1.55 1.45 0.6 0.3 1.1 0.4 1.1 0.4l0.35 0.050 0.15-0.3c0 0 1.45-3.3-1.95-5.15zM30.050 14.75c-0.1-0.050-0.25-0.1-0.4-0.2-0.55-0.3-1.050-0.7-1.5-1.15-1.1 0.95-2.35 1.2-2.5 1.25l-0.9 0.15-0.35-0.8c-0.050-0.15-0.55-1.3-0.4-2.75-0.6-0.050-1.2-0.25-1.8-0.55-0.35-0.2-0.65-0.4-0.9-0.6-1.7 0.6-3.1 1.85-3.85 3.5-5.8 11.7-15.6 7.65-15.6 7.65-0.15-0.050-0.3-0.1-0.5-0.1-0.6 0-1.1 0.5-1.1 1.1 0 0.35 0.15 0.6 0.4 0.8 6.7 8.75 18.35 5.45 18.35 5.45 6.85-1.85 9.75-7.2 10.65-9.35 0.1-0.25 0.25-0.55 0.3-0.85 0-0.050 0-0.050 0-0.050v0c0.15-0.6 0.25-1.2 0.25-1.85 0.050-0.6-0.050-1.15-0.15-1.65zM9.7 26.55c-1.050 0.050-2.050-0.25-2.95-0.85-0.25-0.2-0.35-0.55-0.15-0.8 0.15-0.2 0.5-0.25 0.7-0.1 0.7 0.5 1.55 0.75 2.4 0.7 0.25 0 0.5 0.15 0.55 0.45 0 0.3-0.25 0.6-0.55 0.6zM27.050 20.45c-3.25 5.6-8.55 7.1-14.7 6.35-0.9-0.1-0.8-1.3 0.25-1.1 5.55 0.9 10.5-1.1 13.4-5.85 0.25-0.35 0.75-0.2 0.75-0.2 0.35 0.15 0.45 0.5 0.3 0.8z"></path>
</svg>
