<!-- Generated by IcoMoon.io -->
<svg version="1.1" xmlns="http://www.w3.org/2000/svg" width="32" height="32" viewBox="0 0 32 32">
<title>chimes</title>
<path d="M32 10.752v-4.073c0-0.612-0.495-1.106-1.107-1.106h-4.501c0-0 0-0 0-0.001 0-1.604-1.301-2.905-2.907-2.905h-14.972c-1.607 0-2.907 1.301-2.907 2.905 0 0 0 0 0 0.001h-4.502c-0.612 0-1.105 0.494-1.105 1.106v4.073h3.103v2.328h-1.272v6.635c0 0.912 0.74 1.649 1.65 1.649s1.65-0.738 1.648-1.649v-6.635h-1.272v-2.328h4.255v2.328h-1.272v8.228c0 0.913 0.739 1.649 1.65 1.649s1.651-0.736 1.648-1.649v-8.228h-1.273v-2.328h4.255v2.328h-1.273v9.823c0 0.912 0.739 1.649 1.651 1.649 0.91 0 1.651-0.738 1.648-1.649v-9.823h-1.273v-2.328h4.254v2.328h-1.271v11.417c0 0.913 0.739 1.649 1.65 1.649 0.91 0 1.651-0.736 1.648-1.649v-11.417h-1.273v-2.328h4.254v2.328h-1.271v13.011c0 0.912 0.738 1.649 1.649 1.649s1.651-0.738 1.648-1.649v-13.011h-1.272v-2.328h4.255v2.328h-1.273v14.604c0 0.913 0.739 1.65 1.65 1.65 0.91 0 1.651-0.738 1.648-1.65v-14.604h-1.272v-2.328h3.102zM16 6.513c-0.52 0-0.941-0.421-0.941-0.941s0.421-0.941 0.941-0.941c0.519 0 0.94 0.422 0.94 0.941 0 0.521-0.421 0.941-0.94 0.941z"></path>
</svg>
