<!-- Generated by IcoMoon.io -->
<svg version="1.1" xmlns="http://www.w3.org/2000/svg" width="32" height="32" viewBox="0 0 32 32">
<title>chinese-yuan</title>
<path d="M3.703 1.839h23.341v5.474h-23.341v-5.474zM26.877 20.774c-0.393 3.832-0.624 4.419-2.816 4.419-2.309-0.038-2.895-0.313-2.895-1.878v-7.677h7.095v-5.474h-25.773v5.474h6.454c-1.441 7.114-4.76 8.52-8.942 10.18 1.214 1.604 2.229 3.091 2.971 4.343 6.111-2.975 9.655-6.82 10.872-14.522h2.552v9.163c0 3.871 1.682 4.889 6.806 4.889 7.156 0 7.977-1.525 8.799-6.688-0.155 0-2.895-1.252-5.123-2.229z"></path>
</svg>
