<!-- Generated by IcoMoon.io -->
<svg version="1.1" xmlns="http://www.w3.org/2000/svg" width="32" height="32" viewBox="0 0 32 32">
<title>chocolate</title>
<path d="M25.1 6.5c-0.2 0.050-0.4 0.050-0.6 0.050-0.95 0-1.85-0.3-2.6-0.85v3.95l-1.25 0.5v-5.85c-0.35-0.65-0.6-1.4-0.6-2.2 0-0.15 0-0.3 0.050-0.45h-15.050v28.7h21.9v-21.1c-0.95-0.65-1.6-1.6-1.85-2.75zM10.85 22.9h-3.5v5.85l-1.25 0.5v-7.45h5.45l-0.7 1.1zM10.85 13.35h-3.5v5.85l-1.25 0.5v-7.45h5.45l-0.7 1.1zM10.85 3.8h-3.5v5.85l-1.25 0.5v-7.45h5.45l-0.7 1.1zM18.15 22.9h-3.5v5.85l-1.25 0.5v-7.45h5.45l-0.7 1.1zM18.15 13.35h-3.5v5.85l-1.25 0.5v-7.45h5.45l-0.7 1.1zM18.15 3.8h-3.5v5.85l-1.25 0.5v-7.45h5.45l-0.7 1.1zM25.45 22.9h-3.5v5.85l-1.25 0.5v-7.45h5.45l-0.7 1.1zM25.45 13.35h-3.5v5.85l-1.25 0.5v-7.45h5.45l-0.7 1.1z"></path>
</svg>
