<!-- Generated by IcoMoon.io -->
<svg version="1.1" xmlns="http://www.w3.org/2000/svg" width="32" height="32" viewBox="0 0 32 32">
<title>choropleth-chart</title>
<path d="M13.5 0.5l-10 1-3.5-0.813 1 2.313-0.5 4.5 0.5 4.5 2 0.5 1 2-1 0.5 0.5 2.5 2.5 4 0.5 10 3-3 2.5-3.5 2.5-3-2-2-4.5-3.5-3-1.5-0.5-1.5 2-1c0 0 3-0.5 3.5-0.5s3-0.5 3-0.5l1 2 0.5-2.5 1-1 0.5-6-2.5-3.5zM31 12.5l-2-1 1.5-0.5 1.5-0.188-0.5-10.813-4.5 1.5-5-0.5h-3l1.5 1.5c0 0 0.5 1-0.5 1s-3 0-3 0l1 1v1l1.5-1 1 0.5-0.5 1-2 1-0.5 2.5-0.5 0.5-0.5 1.5v2.5h2l-0.5-2.5 3-1 2.5-0.5 1.5-1 1 1 1 0.5v1l-0.5 0.5-2 0.5-3 0.5-1.5 1-2.5 1h-1l-0.5 4.5 2.5 3 3 1 2 2v3l1 2 2.5 1 2-3 2.5-5.5-0.5-4-0.5-3.5-0.5-1.5 2 0.75-1-2.25z"></path>
</svg>
