<!-- Generated by IcoMoon.io -->
<svg version="1.1" xmlns="http://www.w3.org/2000/svg" width="32" height="32" viewBox="0 0 32 32">
<title>clamp</title>
<path d="M27.119 0.234c-0.677 0-1.27 0.266-1.601 0.766h-2.518v-1h-5v1h-3.037c-0.332-0.5-0.924-0.766-1.6-0.766-1.039 0-1.881 0.907-1.881 1.946s0.842 2.004 1.881 2.004c0.639-0 1.202-0.184 1.543-0.684h3.095v5.374c-1.5-0.623-5.537-0.445-7.221-0.445-6.332 0-7.279 2.223-7.279 6.027v12.047c0 3.803 2.713 5.325 9.046 5.325 4.866 0 9.454-1.328 10.954-3.473v-1.807c-3 0.070-15 0.311-15-0.146v-11.848c0-0.525 0.322-1.205 1.616-1.241 2.636-0.073 4.98-0.161 6.451-0.161 0.735 0 1.433 0.5 1.433 0.809v5.254c-0.5 0.309-0.96 1.602-0.96 2.159 0 0 6.938 0.090 7.047 0 0-0.614-0.586-2.122-1.086-2.218v-15.657h2.576c0.34 0.5 0.904 0.716 1.543 0.716 1.040 0 1.881-0.952 1.881-1.992 0-1.038-0.842-1.991-1.881-1.991zM21.5 19.5h-2v-3.5h2v3.5zM21.5 9.31c-1-0.023-1.5-0.059-2-0.117v-7.692h2v7.81z"></path>
</svg>
