<!-- Generated by IcoMoon.io -->
<svg version="1.1" xmlns="http://www.w3.org/2000/svg" width="32" height="32" viewBox="0 0 32 32">
<title>clave</title>
<path d="M22.962 5.293c0.224 0.223 0.587 0.223 0.813 0l0.851-0.852c0.224-0.224 0.224-0.588 0-0.813l-3.46-3.46c-0.224-0.224-0.588-0.225-0.812 0l-0.851 0.851c-0.226 0.226-0.226 0.588 0 0.813l3.459 3.462zM19.922 8.331l-3.459-3.46c-0.224-0.224-0.589-0.225-0.814-0l-12.054 12.055c-0.224 0.224-0.224 0.589 0.001 0.813l3.459 3.461c0.225 0.224 0.588 0.224 0.814 0l12.053-12.054c0.224-0.225 0.224-0.589 0-0.814zM21.586 6.668c0.224 0.224 0.588 0.224 0.813 0l0.276-0.277c0.226-0.223 0.226-0.588 0-0.813l-3.459-3.459c-0.224-0.224-0.588-0.224-0.813 0l-0.277 0.276c-0.225 0.225-0.226 0.59 0 0.814l3.46 3.459zM20.209 8.045c0.225 0.224 0.59 0.225 0.812 0l0.278-0.277c0.225-0.223 0.225-0.588 0-0.813l-3.459-3.459c-0.224-0.225-0.588-0.225-0.814 0l-0.276 0.276c-0.224 0.225-0.224 0.59 0 0.814l3.459 3.46zM3.309 18.024c-0.225-0.224-0.588-0.224-0.813 0l-0.277 0.277c-0.224 0.225-0.224 0.59 0 0.814l3.46 3.46c0.224 0.224 0.588 0.224 0.814 0l0.277-0.278c0.224-0.224 0.224-0.589 0-0.813l-3.461-3.462zM29.314 10.252c0-0.001 0-0.001 0.002-0.002l0.572-1.059c0.15-0.279 0.012-0.837-0.267-0.988l-4.306-2.322c-0.279-0.15-0.779 0.064-0.929 0.344l-0.421 0.781c0 0-0.001 0.001-0.001 0.002l-11.518 21.366c-0.008 0.014-0.008 0.030-0.014 0.046-0.009 0.012-0.021 0.020-0.030 0.035l-0.186 0.346c-0.15 0.279 0.041 0.633 0.321 0.782l4.307 2.322c0.279 0.15 0.723 0.14 0.874-0.14l0.186-0.345c0.008-0.014 0.008-0.029 0.014-0.045 0.009-0.012 0.023-0.021 0.030-0.036l11.366-21.086z"></path>
</svg>
