<!-- Generated by IcoMoon.io -->
<svg version="1.1" xmlns="http://www.w3.org/2000/svg" width="32" height="32" viewBox="0 0 32 32">
<title>close</title>
<path d="M21.303 16.177l7.956-7.954c0.39-0.391 0.39-1.024 0-1.415l-3.89-3.889c-0.39-0.39-1.023-0.39-1.415 0l-7.954 7.955-7.955-7.955c-0.391-0.39-1.024-0.39-1.415 0l-3.889 3.889c-0.39 0.391-0.39 1.024 0 1.414l7.956 7.955-7.955 7.955c-0.39 0.39-0.39 1.024 0 1.415l3.889 3.89c0.391 0.39 1.024 0.39 1.415 0l7.954-7.956 7.955 7.956c0.39 0.39 1.023 0.39 1.415 0l3.89-3.889c0.39-0.39 0.39-1.024 0-1.415l-7.956-7.954z"></path>
</svg>
