<!-- Generated by IcoMoon.io -->
<svg version="1.1" xmlns="http://www.w3.org/2000/svg" width="32" height="32" viewBox="0 0 32 32">
<title>cloud</title>
<path d="M26.477 16.012c0.637-0.743 1.023-1.707 1.023-2.761 0-2.347-1.903-4.25-4.25-4.25-1.426 0-2.684 0.704-3.456 1.782-0.777-3.313-3.744-5.782-7.294-5.782-4.142 0-7.5 3.358-7.5 7.5 0 0.432 0.045 0.853 0.114 1.264-2.949 0.824-5.114 3.524-5.114 6.736 0 3.526 2.609 6.434 6 6.921v0.079h19.5v-0.055c0.246 0.032 0.495 0.055 0.75 0.055 3.176 0 5.75-2.574 5.75-5.75 0-3.099-2.453-5.619-5.523-5.739z"></path>
</svg>
