<!-- Generated by IcoMoon.io -->
<svg version="1.1" xmlns="http://www.w3.org/2000/svg" width="32" height="32" viewBox="0 0 32 32">
<title>cloud-download</title>
<path d="M26.477 16.012c0.637-0.743 1.023-1.707 1.023-2.761 0-2.347-1.903-4.25-4.25-4.25-1.426 0-2.684 0.704-3.456 1.782-0.777-3.313-3.744-5.782-7.294-5.782-4.142 0-7.5 3.358-7.5 7.5 0 0.432 0.045 0.853 0.114 1.264-2.949 0.824-5.114 3.524-5.114 6.736 0 3.526 2.609 6.434 6 6.921v0.079h19.5v-0.055c0.246 0.032 0.495 0.055 0.75 0.055 3.176 0 5.75-2.574 5.75-5.75 0-3.099-2.453-5.619-5.523-5.739zM20.511 18.935l-5.303 5.293c-0.39 0.39-1.024 0.385-1.414-0.006l-5.303-5.285c-0.39-0.39-0.739-1.438 0.261-1.438h3.25v-5.543c0-0.553-0.063-0.957 0.539-0.957h3.819c0.602 0 0.642 0.404 0.642 0.957v5.543h3.25c1 0 0.651 1.045 0.261 1.435z"></path>
</svg>
