<!-- Generated by IcoMoon.io -->
<svg version="1.1" xmlns="http://www.w3.org/2000/svg" width="32" height="32" viewBox="0 0 32 32">
<title>cocktail</title>
<path d="M7.8 3.2c-0.75 0.15-1.4 0.45-2 0.85-0.35 0.25-0.4 0.7-0.1 1l1.75 1.75c0.4 0.4 1.1 0.1 1.1-0.45v-2.5c0-0.4-0.35-0.7-0.75-0.65zM4.050 8.3h2.35c0.6 0 0.9-0.7 0.45-1.1l-1.65-1.65c-0.3-0.3-0.8-0.25-1 0.1-0.35 0.55-0.65 1.2-0.8 1.85-0.1 0.4 0.25 0.8 0.65 0.8zM6.5 9h-2.5c-0.4 0-0.7 0.35-0.65 0.75 0.15 0.75 0.4 1.45 0.8 2.050 0.2 0.35 0.7 0.4 1 0.1l1.75-1.75c0.45-0.45 0.15-1.15-0.4-1.15zM10.35 6.7l1.7-1.7c0.3-0.3 0.25-0.8-0.1-1.050-0.55-0.35-1.2-0.65-1.9-0.75-0.4-0.1-0.8 0.25-0.8 0.65v2.35c0 0.6 0.7 0.9 1.1 0.5zM11.3 8.3h2.45c0.4 0 0.75-0.4 0.65-0.8-0.15-0.7-0.45-1.35-0.85-1.95-0.25-0.35-0.7-0.35-1-0.1l-1.7 1.7c-0.4 0.45-0.1 1.15 0.45 1.15zM7.45 10.6l-1.8 1.8c-0.3 0.3-0.25 0.75 0.1 1 0.6 0.4 1.3 0.7 2.050 0.85 0.4 0.1 0.8-0.25 0.8-0.65v-2.55c-0.050-0.55-0.75-0.85-1.15-0.45zM31.050 12.15c1.2-1.25 0.8-2.85-1.25-2.85h-3.2l3.3-4.15c0.4-0.5 0.3-1.2-0.2-1.6s-1.2-0.3-1.6 0.2l-4.45 5.55h-6.15c0-0.2 0-0.35 0-0.55 0-4.75-3.85-8.65-8.65-8.65s-8.6 3.85-8.6 8.65c0 4.75 3.85 8.65 8.65 8.65 1.45 0 2.8-0.35 4-1l5.9 7.85v4l-3.5 1.3c0 0 0 0-0.050 0v0 0c-0.5 0.1-0.9 0.6-0.9 1.15 0 0.65 0.55 1.2 1.2 1.2h9.55c0.65 0 1.2-0.55 1.2-1.2 0-0.55-0.4-1.050-0.9-1.15v0 0c0 0 0 0-0.050 0l-3.5-1.3v-4l9.2-12.1zM28.8 11.5l-2.050 2.55h-3.95l2.050-2.55h3.95zM19.9 14.050h-6.050l-2.050-2.55h10.15l-2.050 2.55zM8.9 15.45c-3.7 0-6.7-3-6.7-6.7s3-6.75 6.7-6.75 6.7 3 6.7 6.7c0 0.2 0 0.35-0.050 0.55h-4.8c-1.2 0-2.1 1.8-1.25 2.85l2.15 2.7c-0.85 0.45-1.75 0.65-2.75 0.65z"></path>
</svg>
