<!-- Generated by IcoMoon.io -->
<svg version="1.1" xmlns="http://www.w3.org/2000/svg" width="32" height="32" viewBox="0 0 32 32">
<title>coconut</title>
<path d="M27.5 8.050c-0.55-0.65-1.25-1.25-2.15-1.8l2.65-4.1c0.25-0.4 0.15-0.95-0.25-1.2s-0.95-0.15-1.2 0.25l-2.75 4.25c-2.1-0.9-4.75-1.5-7.65-1.5-5.2 0-9.75 1.8-11.6 4.15-1.55 2.25-2.5 5-2.5 7.95 0 7.75 6.25 14 14 14s14-6.25 14-14c-0.050-2.95-1-5.75-2.55-8zM12.75 27.25v0c-0.15 0.5-0.7 0.7-1.15 0.5-3.8-1.7-6.75-5.45-7.75-9.9-0.1-0.5 0.2-0.95 0.7-1 0.45-0.050 0.85 0.2 0.95 0.65 1.050 4.7 4.1 7.5 6.8 8.7 0.4 0.15 0.6 0.6 0.45 1.050zM13.7 24.15c-0.15 0.45-0.7 0.7-1.25 0.5-1.65-0.65-2.95-1.85-3.85-3.35-0.3-0.5-0.1-1.1 0.3-1.3s0.9-0.050 1.15 0.35c0.75 1.25 1.85 2.2 3.15 2.75 0.4 0.15 0.65 0.6 0.5 1.050zM16 16.3c-5.85 0-10.55-2.4-10.55-5.35s4.75-5.35 10.55-5.35c2.6 0 4.95 0.45 6.8 1.25l-0.5 0.8c-1.6-0.7-3.8-1.15-6.3-1.15-5.050 0-8.9 1.85-8.9 4.35s3.8 4.35 8.9 4.35 8.9-1.85 8.9-4.35c0-0.8-0.4-1.55-1.1-2.15l0.6-0.95c1.35 0.9 2.2 2 2.2 3.25-0.050 2.9-4.75 5.3-10.6 5.3zM23.4 10.85c0 0.7-0.9 1.5-2.4 2.050l1.9-2.95c0.35 0.25 0.5 0.55 0.5 0.9zM18.8 13.1c-0.1 0.15-0.1 0.25-0.15 0.4-0.8 0.15-1.7 0.2-2.7 0.2-4.25 0-7.4-1.5-7.4-2.9s3.15-2.9 7.4-2.9c2.2 0 4.15 0.4 5.5 1l-2.65 4.2z"></path>
</svg>
