<!-- Generated by IcoMoon.io -->
<svg version="1.1" xmlns="http://www.w3.org/2000/svg" width="32" height="32" viewBox="0 0 32 32">
<title>code-fork</title>
<path d="M25 8.25c0-1.795-1.455-3.25-3.25-3.25s-3.25 1.455-3.25 3.25c0 1.244 0.698 2.322 1.724 2.869-0.389 5.22-5.59 7.651-5.814 7.733-0.066 0.023-0.131 0.052-0.194 0.083-0.649 0.325-1.217 0.675-1.717 1.040v-13.975c0-0.005-0.002-0.008-0.002-0.013 0.902-0.578 1.502-1.587 1.502-2.737 0-1.795-1.455-3.25-3.25-3.25s-3.25 1.455-3.25 3.25c0 1.151 0.6 2.159 1.502 2.736 0 0.005-0.002 0.008-0.002 0.013v20.015c-1 0.578-1.5 1.585-1.5 2.736 0 1.795 1.455 3.25 3.25 3.25s3.25-1.455 3.25-3.25c0-1.107-0.554-2.083-1.399-2.669 0.235-0.951 0.959-2.88 3.104-3.976 1.024-0.396 7.846-3.811 8.036-11.29 0.765-0.595 1.259-1.521 1.259-2.565zM10.75 1.5c0.965 0 1.75 0.785 1.75 1.75s-0.785 1.75-1.75 1.75-1.75-0.785-1.75-1.75 0.785-1.75 1.75-1.75zM10.75 30.5c-0.965 0-1.75-0.785-1.75-1.75s0.785-1.75 1.75-1.75 1.75 0.785 1.75 1.75-0.785 1.75-1.75 1.75zM21.75 6.5c0.965 0 1.75 0.785 1.75 1.75s-0.785 1.75-1.75 1.75-1.75-0.785-1.75-1.75 0.785-1.75 1.75-1.75z"></path>
</svg>
