<!-- Generated by IcoMoon.io -->
<svg version="1.1" xmlns="http://www.w3.org/2000/svg" width="32" height="32" viewBox="0 0 32 32">
<title>code</title>
<path d="M9.849 24.090c-0.385 0.861-0.935 1.926-1.402 2.622-2.804-3.114-5.335-5.819-8.139-8.892-0.055-0.983-0.055-2.131-0.055-3.155 2.75-2.869 5.499-5.737 8.249-8.565 0.412 0.697 0.934 1.844 1.292 2.787-2.364 2.745-4.207 4.835-6.296 7.294 2.008 2.541 4.042 4.999 6.351 7.909zM11.024 27.357c1.512-4.088 2.915-8.113 4.29-11.941 1.292-3.699 2.86-8.177 4.124-11.714 0.907 0.26 1.815 0.584 2.75 1.006-1.21 3.245-3.052 8.21-4.317 11.649-1.292 3.537-3.134 8.599-4.372 11.941-0.797-0.26-1.623-0.552-2.475-0.941zM22.261 8.847c0.358-0.942 0.88-2.008 1.292-2.745 2.86 2.991 5.334 5.614 8.112 8.646 0.055 0.943 0.082 2.090 0.082 3.115-2.722 2.95-5.527 5.941-8.277 8.851-0.441-0.697-0.99-1.762-1.402-2.663 2.419-2.91 4.289-5.122 6.434-7.703-1.98-2.418-3.959-4.753-6.242-7.5z"></path>
</svg>
