<!-- Generated by IcoMoon.io -->
<svg version="1.1" xmlns="http://www.w3.org/2000/svg" width="32" height="32" viewBox="0 0 32 32">
<title>coffee-shop</title>
<path d="M31.363 26h-1.863v-11h2.5l-0.018-2.674-1.402-3.826h-12.198c0.619-0.5 1.183-0.734 1.677-1.271 0.158 0.019 0.318 0.058 0.48 0.058 2.128 0 4.121-1.548 4.553-3.813 0.189-0.989-0.475-1.472-1.139-1.472-0.271 0-0.95 0-1.805 0h-13.261c0.098 2.921 1.609 5.5 3.764 6.5h-11.15l-1.401 3.826-0.018 2.674h2.42v11h-1.984c-0.313 0-0.516 0.046-0.516 0.358v3.142h32v-3.142c0-0.313-0.325-0.358-0.637-0.358zM21.978 3.5h1.695c-0.041 1-1.509 2.35-2.599 2.447 0.417-0.737 0.727-1.447 0.905-2.447zM9 24h-2.793c-0.248 0-0.207-0.265-0.207-0.581v-2.419h3v3zM9 20h-3v-2.632c0-0.315-0.040-0.868 0.207-0.868h2.793v3.5zM13 24h-3v-3h3v3zM13 20h-3v-3.5h3v3.5zM17.5 23.419c0 0.316-0.204 0.581-0.453 0.581h-2.547v-3h3v2.419zM17.5 20h-3v-3.5h2.547c0.248 0 0.453 0.553 0.453 0.868v2.632zM26.5 26h-5v-8.498c0-0.358 0.253-0.502 0.612-0.502h3.846c0.358 0 0.542 0.143 0.542 0.502v8.498z"></path>
</svg>
