<!-- Generated by IcoMoon.io -->
<svg version="1.1" xmlns="http://www.w3.org/2000/svg" width="32" height="32" viewBox="0 0 32 32">
<title>coffee-machine</title>
<path d="M18.309 27.5l3.59-0.97c1.75-0.473 2.828-2.113 2.399-3.698-0.343-1.27-1.54-1.977-2.902-2.006-0.025-0.145-0.044-0.326-0.078-0.326h-12.638c-0.114 0.5-0.181 0.879-0.181 1.395 0 3.59 2.91 6.605 6.5 6.605 1.198 0 2.317-0.512 3.281-1.078l0.028 0.078zM21.5 21.791c0-0.043-0.007-0.084-0.008-0.127 0.949 0.059 1.733 0.549 1.962 1.396 0.314 1.162-0.603 2.273-2.003 2.651l-1.646 0.445c1.049-1.154 1.695-2.683 1.695-4.366zM13.726 13.5c-0.143 0-0.28 0.197-0.205 0.357s0.472 1.092 0.472 1.386c0 0.294 0.092 0.257 0.258 0.257h1.74c0.142 0 0.258-0.002 0.258-0.259s0.424-1.291 0.473-1.409c0.049-0.118-0.063-0.332-0.205-0.332h-2.79zM31.021 9h-8.042c-0.366 0-0.681 0.203-0.849 0.5h-2.63v-2h7c1.105 0 2-0.896 2-2v-2.5c0-1.105-0.895-2-2-2h-24.5c-1.105 0-2 0.895-2 2v26c0 0.192 0.035 0.374 0.086 0.55-0.054 0.118-0.086 0.249-0.086 0.387v0.125c0 0.517 0.419 0.938 0.938 0.938h26.625c0.518 0 0.938-0.42 0.938-0.938v-0.125c0-0.517-0.419-0.938-0.938-0.938h-21.063v-21.5h4v3.5c0 1.104 0.896 2 2 2h5c1.105 0 2-0.896 2-2v-0.5h2.63c0.168 0.297 0.483 0.5 0.849 0.5h8.041c0.541 0 0.98-0.438 0.98-0.979v-0.042c0-0.54-0.439-0.979-0.979-0.979zM3.5 5.5c-0.552 0-1-0.448-1-1s0.448-1 1-1 1 0.448 1 1-0.448 1-1 1zM8.5 5.5c-0.552 0-1-0.448-1-1s0.448-1 1-1 1 0.448 1 1-0.448 1-1 1z"></path>
</svg>
