<!-- Generated by IcoMoon.io -->
<svg version="1.1" xmlns="http://www.w3.org/2000/svg" width="32" height="32" viewBox="0 0 32 32">
<title>coffee</title>
<path d="M28.15 7.45c-0.050-2-1.6-3.15-3.55-3.4v0c-1.050-0.1-1-1.35-1-1.35 0-0.55-0.45-1-1-1l-13.15-1c-0.55 0-1 0.45-1 1 0 0 0 2.25-1 2.35v0c-1.95 0.25-3.5 1.45-3.55 3.4 0 0 0 0.95 0 0.95 0 0.25 0.2 0.5 0.5 0.5h23.3c0.3 0 0.5-0.2 0.5-0.5-0.050 0-0.050-0.95-0.050-0.95zM11.4 18.4c0.75-1.75 2.55-3 4.6-3s3.85 1.25 4.6 3h4.9l1.25-7.6c0-0.050 0-0.1 0-0.15h-21.55c0 0.050 0 0.1 0 0.15l1.3 7.6h4.9zM20.6 22.3c-0.8 1.7-2.55 2.9-4.6 2.9s-3.8-1.2-4.6-2.9h-4.3l1.15 6.7c0.25 1.35 1.4 2.3 2.8 2.3h9.95c1.4 0 2.55-0.95 2.8-2.3l1.1-6.7h-4.3zM18.3 18c0.25-0.050 0.3-0.35 0.050-0.5-1-0.6-2.4-0.65-3.7 0-1.8 0.85-2.75 2.7-2.25 4.2 0.050 0.1 0.15 0.15 0.25 0.15 2.6 0.15 3.4-3.4 5.65-3.85zM19.4 19.050c-2.35-0.050-3.2 3-5.15 3.75-0.25 0.1-0.25 0.4 0 0.5 0.9 0.3 2.050 0.25 3.1-0.25 1.65-0.8 2.6-2.35 2.35-3.75-0.1-0.15-0.2-0.25-0.3-0.25z"></path>
</svg>
