<!-- Generated by IcoMoon.io -->
<svg version="1.1" xmlns="http://www.w3.org/2000/svg" width="32" height="32" viewBox="0 0 32 32">
<title>cog</title>
<path d="M30.136 12.682l-2.89-0.293c-0.201-0.63-0.434-1.236-0.733-1.815l1.878-2.283c0.37-0.37 0.375-0.97 0.005-1.34l-3.348-3.352c-0.37-0.37-0.969-0.369-1.34 0l-2.282 1.868c-0.579-0.299-1.184-0.553-1.814-0.753l-0.293-2.849c0-0.523-0.425-0.865-0.948-0.865h-4.739c-0.524 0-0.948 0.341-0.948 0.865l-0.293 2.89c-0.63 0.201-1.236 0.434-1.815 0.733l-2.282-1.877c-0.37-0.37-0.97-0.376-1.341-0.006l-3.35 3.349c-0.37 0.37-0.37 0.969 0 1.339l1.866 2.281c-0.299 0.579-0.552 1.185-0.754 1.815l-2.849 0.293c-0.523-0.001-0.865 0.423-0.865 0.947v4.739c0 0.523 0.342 0.948 0.865 0.948l2.889 0.293c0.202 0.63 0.435 1.236 0.734 1.816l-1.877 2.282c-0.37 0.37-0.376 0.97-0.005 1.34l3.347 3.351c0.37 0.37 0.97 0.37 1.341-0l2.281-1.866c0.579 0.299 1.185 0.552 1.815 0.754l0.293 2.849c0 0.523 0.425 0.864 0.948 0.864h4.74c0.523 0 0.948-0.341 0.948-0.864l0.294-2.89c0.63-0.201 1.236-0.434 1.814-0.733l2.282 1.878c0.37 0.37 0.97 0.375 1.341 0.005l3.351-3.349c0.37-0.37 0.37-0.969 0-1.339l-1.867-2.282c0.299-0.579 0.552-1.185 0.754-1.814l2.849-0.293c0.523 0 0.864-0.424 0.864-0.948v-4.74c0-0.524-0.342-0.947-0.864-0.947zM16 21.213c-2.88 0-5.213-2.334-5.213-5.213s2.334-5.213 5.213-5.213c2.88 0 5.213 2.334 5.213 5.213s-2.334 5.213-5.213 5.213z"></path>
</svg>
