<!-- Generated by IcoMoon.io -->
<svg version="1.1" xmlns="http://www.w3.org/2000/svg" width="32" height="32" viewBox="0 0 32 32">
<title>cogs</title>
<path d="M20.902 22.061l-1.416-1.73c0.227-0.439 0.419-0.898 0.572-1.375l2.224-0.222c0.396 0 0.718-0.322 0.718-0.718v-3.594c0-0.397-0.323-0.719-0.718-0.719l-2.224-0.223c-0.153-0.477-0.345-0.937-0.572-1.376l1.416-1.731c0.281-0.281 0.28-0.736-0-1.016l-2.541-2.542c-0.281-0.281-0.736-0.28-1.017 0l-1.731 1.417c-0.439-0.227-0.899-0.419-1.376-0.572l-0.223-2.332c-0.001-0.397-0.322-0.828-0.719-0.828h-3.594c-0.397 0-0.719 0.431-0.719 0.827l-0.223 2.278c-0.477 0.152-0.937 0.372-1.376 0.598l-1.731-1.402c-0.281-0.281-0.736-0.274-1.016 0.006l-2.541 2.545c-0.281 0.281-0.281 0.738 0 1.018l1.416 1.732c-0.227 0.439-0.419 0.899-0.572 1.377l-2.223 0.223c-0.397 0-0.719 0.322-0.719 0.719v3.594c0 0.396 0.323 0.719 0.719 0.719l2.223 0.222c0.153 0.478 0.345 0.938 0.572 1.377l-1.415 1.73c-0.281 0.281-0.281 0.735 0 1.017l2.54 2.541c0.281 0.281 0.737 0.28 1.018-0l1.729-1.416c0.439 0.227 0.899 0.419 1.376 0.572l0.223 2.114c0 0.397 0.322 0.61 0.719 0.61h3.594c0.397 0 0.719-0.213 0.719-0.61l0.223-2.168c0.477-0.152 0.937-0.317 1.376-0.544l1.731 1.43c0.281 0.28 0.736 0.287 1.017 0.006l2.541-2.538c0.28-0.282 0.28-0.735 0-1.015zM11.5 20.171c-2.183 0-3.953-1.77-3.953-3.953s1.77-3.953 3.953-3.953c2.184 0 3.953 1.77 3.953 3.953s-1.77 3.953-3.953 3.953zM31 4.5h-0.762c-0.186-0.5-0.465-0.966-0.82-1.381l0.38-0.638c0.276-0.478 0.113-1.080-0.366-1.356l-0.866-0.495c-0.478-0.277-1.090-0.108-1.366 0.371l-0.381 0.658c-0.267-0.048-0.541-0.078-0.822-0.078s-0.555 0.030-0.822 0.078l-0.38-0.658c-0.276-0.478-0.887-0.642-1.366-0.366l-0.866 0.5c-0.478 0.276-0.642 0.888-0.366 1.366l0.381 0.619c-0.355 0.415-0.634 0.881-0.82 1.381h-0.762c-0.552 0-1 0.529-1 1.080v1c0 0.553 0.448 0.92 1 0.92h0.762c0.186 0.5 0.465 1.047 0.82 1.462l-0.38 0.678c-0.276 0.478-0.113 1.1 0.366 1.376l0.866 0.505c0.479 0.276 1.090 0.114 1.366-0.364l0.38-0.656c0.267 0.049 0.541 0.079 0.822 0.079s0.554-0.030 0.82-0.078l0.381 0.659c0.276 0.478 0.887 0.642 1.366 0.366l0.866-0.5c0.478-0.277 0.642-0.888 0.366-1.366l-0.38-0.698c0.355-0.415 0.634-0.962 0.82-1.462h0.762c0.552 0 1-0.367 1-0.92v-1c0-0.552-0.448-1.080-1-1.080zM26 7.881c-0.994 0-1.8-0.806-1.8-1.8s0.805-1.8 1.8-1.8 1.8 0.806 1.8 1.8-0.806 1.8-1.8 1.8zM31 24.5h-0.762c-0.186-0.5-0.465-1.046-0.82-1.462l0.38-0.678c0.276-0.479 0.113-1.1-0.366-1.376l-0.866-0.505c-0.478-0.276-1.090-0.117-1.366 0.361l-0.381 0.658c-0.267-0.049-0.54-0.078-0.821-0.078s-0.555 0.029-0.822 0.078l-0.38-0.658c-0.276-0.479-0.887-0.642-1.366-0.366l-0.866 0.5c-0.478 0.276-0.642 0.887-0.366 1.366l0.381 0.699c-0.356 0.415-0.634 0.961-0.82 1.461h-0.762c-0.552 0-1 0.367-1 0.92v1c0 0.552 0.448 1.080 1 1.080h0.762c0.186 0.5 0.465 0.966 0.82 1.381l-0.38 0.639c-0.276 0.478-0.113 1.080 0.366 1.356l0.866 0.495c0.479 0.276 1.090 0.109 1.366-0.369l0.38-0.659c0.267 0.049 0.541 0.078 0.822 0.078s0.554-0.030 0.82-0.078l0.381 0.658c0.276 0.478 0.887 0.642 1.366 0.366l0.866-0.5c0.478-0.276 0.642-0.888 0.366-1.366l-0.38-0.619c0.356-0.416 0.634-0.881 0.82-1.381h0.762c0.552 0 1-0.528 1-1.080v-1c0-0.552-0.448-0.92-1-0.92zM26 27.72c-0.994 0-1.8-0.806-1.8-1.8s0.805-1.8 1.8-1.8 1.8 0.805 1.8 1.8-0.806 1.8-1.8 1.8z"></path>
</svg>
