<!-- Generated by IcoMoon.io -->
<svg version="1.1" xmlns="http://www.w3.org/2000/svg" width="32" height="32" viewBox="0 0 32 32">
<title>column-chart-dual-axis</title>
<path d="M5.5 28h4c0.552 0 1-0.448 1-1v-10c0-0.552-0.448-1-1-1h-4c-0.552 0-1 0.448-1 1v10c0 0.552 0.448 1 1 1zM14 28h4c0.552 0 1-0.448 1-1v-16.5c0-0.552-0.448-1-1-1h-4c-0.552 0-1 0.448-1 1v16.5c0 0.552 0.448 1 1 1zM22.5 28h4c0.552 0 1-0.448 1-1v-23.5c0-0.552-0.448-1-1-1h-4c-0.552 0-1 0.448-1 1v23.5c0 0.552 0.448 1 1 1zM31.063 0h-0.125c-0.517 0-0.938 0.419-0.938 0.938v29.063h-28v-29.063c0-0.518-0.42-0.938-0.938-0.938h-0.125c-0.517 0-0.938 0.419-0.938 0.938v30.125c0 0.517 0.42 0.937 0.938 0.937h30.126c0.517 0 0.936-0.419 0.936-0.938v-30.125c0-0.518-0.42-0.938-0.938-0.938z"></path>
</svg>
