<!-- Generated by IcoMoon.io -->
<svg version="1.1" xmlns="http://www.w3.org/2000/svg" width="32" height="32" viewBox="0 0 32 32">
<title>comments</title>
<path d="M26.745 23.992c2.894-1.678 4.764-4.337 4.764-7.331 0-3.288-2.257-6.171-5.648-7.796 0.090 0.621 0.139 1.259 0.139 1.912 0 6.034-3.848 10.927-11.729 10.927-0.512 0-1.018-0.022-1.517-0.063-0.532 0.596-1.094 1.113-1.668 1.57 2.167 1.633 5.138 2.641 8.419 2.641 0.401 0 0.797-0.015 1.188-0.045 2.665 3.743 6.425 4.053 7.561 4.053 0.216 0 0.337-0.011 0.337-0.011 0.387-0.035 0.722-0.29 0.855-0.655 0.133-0.364 0.046-0.774-0.229-1.049-1.834-1.834-2.334-3.436-2.47-4.155zM24.18 11.243c0-5.029-5.324-9.105-11.892-9.105s-11.892 4.077-11.892 9.105c0 2.989 1.883 5.642 4.788 7.302-0.144 0.737-0.654 2.32-2.462 4.13-0.251 0.25-0.331 0.625-0.21 0.959s0.428 0.567 0.781 0.599c0 0 0.116 0.011 0.327 0.011 1.112 0 4.785-0.302 7.403-3.947 0.416 0.034 0.838 0.052 1.264 0.052 6.568 0 11.893-4.076 11.893-9.104z"></path>
</svg>
