<!-- Generated by IcoMoon.io -->
<svg version="1.1" xmlns="http://www.w3.org/2000/svg" width="32" height="32" viewBox="0 0 32 32">
<title>compressor</title>
<path d="M29 13.241v-8.591c0-0.261-0.073-1.436-0.835-2.137-0.317-0.292-0.985-0.514-1.88-0.514h-1.242c-0.259-0.5-0.669-0.5-1.134-0.5h-4.471c-0.783 0-1.418 0.718-1.418 1.5s0.635 1.5 1.418 1.5h4.471c0.464 0 0.875-0.5 1.134-0.5h1.378l0.070-0.128c0.117-0.019 0.328-0.099 0.418-0.018 0.142 0.13 0.199 0.503 0.184 0.726l-0.003 7.808c-0.654-0.208-1.349-0.389-2.073-0.389h-6.851c0.063 0 0.335-0.373 0.335-0.626v-1.185c0-1.572-1.511-2.688-3.081-2.688h-6.919v-1.014c0 0-1.8-2.486-2.122-2.486h-1.462c-0.365 0-0.803 0.432-0.859 0.946-0.043 0.396-0.030 5.427-0.022 7.703-2.378 1.069-4.035 3.486-4.035 6.262 0 1.817 0.71 3.48 1.865 4.704 1.005-1.424 2.663-2.236 4.538-2.236 2.707 0 4.96 1.619 5.452 4.619h11.35l0.477 4.5h2.208l0.491-4.931c3.12-0.633 5.576-3.355 5.576-6.663 0.001-2.38-1.456-4.441-2.956-5.665zM6.404 22.724c-2.266 0-4.103 1.837-4.103 4.104s1.837 4.104 4.103 4.104c2.267 0 4.104-1.837 4.104-4.104s-1.838-4.104-4.104-4.104zM6.404 28.496c-0.921 0-1.668-0.747-1.668-1.668 0-0.922 0.747-1.669 1.668-1.669s1.668 0.747 1.668 1.669c0 0.921-0.747 1.668-1.668 1.668z"></path>
</svg>
