<!-- Generated by IcoMoon.io -->
<svg version="1.1" xmlns="http://www.w3.org/2000/svg" width="32" height="32" viewBox="0 0 32 32">
<title>company-verification</title>
<path d="M30.945 26.041l-3.523-3.934c1.395-2.276 2.148-4.892 2.136-7.628-0.017-3.881-1.545-7.523-4.302-10.255-3.433-3.402-8.315-4.872-13.061-3.933-2.848 0.565-5.436 1.956-7.487 4.024-2.732 2.756-4.226 6.411-4.208 10.292s1.546 7.523 4.301 10.255c3.431 3.402 8.315 4.872 13.062 3.933 1.732-0.343 3.367-0.997 4.847-1.92l3.514 3.928c1.314 1.303 3.437 1.295 4.742-0.021 1.303-1.314 1.294-3.438-0.020-4.742zM23.282 22.724c-1.639 1.655-3.707 2.768-5.983 3.219-3.799 0.752-7.704-0.424-10.448-3.145-2.206-2.184-3.428-5.098-3.441-8.202-0.014-3.104 1.18-6.027 3.365-8.231 1.64-1.655 3.709-2.768 5.984-3.219 3.799-0.752 7.704 0.424 10.449 3.144 2.205 2.186 3.428 5.098 3.44 8.202 0.015 3.104-1.179 6.028-3.366 8.232zM20.666 7.013c-0.054-0.005-0.108-0.013-0.166-0.013h-11.5c-0.059 0-0.113 0.007-0.166 0.013-0.418 0.051-0.697 0.292-0.793 0.675-0.024 0.096-0.041 0.199-0.041 0.313v13.776c1.234 1.186 2.778 2.046 4.5 2.453v-0.805c0-0.241-0.022-0.424 0.219-0.424h3.781c0.241 0 0.5 0.183 0.5 0.424v0.805c1.722-0.407 3.266-1.268 4.5-2.453v-13.775c0-0.114-0.017-0.216-0.041-0.313-0.096-0.383-0.375-0.624-0.793-0.675zM14 20.078c0 0.233-0.19 0.422-0.423 0.422h-1.655c-0.233 0-0.422-0.189-0.422-0.422v-1.655c0-0.233 0.19-0.422 0.423-0.422h1.655c0.233 0 0.422 0.189 0.422 0.422v1.655zM14 16.077c0 0.233-0.19 0.423-0.423 0.423h-1.655c-0.233 0-0.422-0.189-0.422-0.423v-1.655c0-0.233 0.19-0.422 0.423-0.422h1.655c0.233 0 0.422 0.19 0.422 0.423v1.654zM14 12.077c0 0.233-0.19 0.423-0.423 0.423h-1.655c-0.233 0-0.422-0.19-0.422-0.423v-1.655c0-0.233 0.19-0.422 0.423-0.422h1.655c0.233 0 0.422 0.19 0.422 0.423v1.654zM18 20.078c0 0.233-0.189 0.422-0.422 0.422h-1.655c-0.233 0-0.422-0.189-0.422-0.422v-1.655c0-0.233 0.189-0.422 0.422-0.422h1.655c0.233 0 0.422 0.189 0.422 0.422v1.655zM18 16.077c0 0.233-0.189 0.423-0.422 0.423h-1.655c-0.233 0-0.422-0.189-0.422-0.423v-1.655c0-0.233 0.189-0.422 0.422-0.422h1.655c0.233 0 0.422 0.19 0.422 0.423v1.654zM18 12.077c0 0.233-0.189 0.423-0.422 0.423h-1.655c-0.233 0-0.422-0.19-0.422-0.423v-1.655c0-0.233 0.189-0.422 0.422-0.422h1.655c0.233 0 0.422 0.19 0.422 0.423v1.654zM23 19.93c0.945-1.502 1.5-3.274 1.5-5.18s-0.555-3.678-1.5-5.18v10.359zM6.5 19.93v-10.359c-0.945 1.502-1.5 3.274-1.5 5.179s0.555 3.678 1.5 5.18z"></path>
</svg>
