<!-- Generated by IcoMoon.io -->
<svg version="1.1" xmlns="http://www.w3.org/2000/svg" width="32" height="32" viewBox="0 0 32 32">
<title>computer</title>
<path d="M25.5 21.066v-13.27c0-1.654-1.163-2.796-2.572-2.796h-20.375c-1.409 0-2.553 1.143-2.553 2.796v13.27c0 1.166 1.143 2.434 2.553 2.434h5.76c-0.431 1-0.978 2.605-1.078 2.843-0.17 0.404 0.215 1.157 0.702 1.157h9.575c0.488 0 0.958-0.694 0.703-1.247-0.149-0.325-0.68-1.753-1.095-2.753h5.808c1.41 0 2.572-1.268 2.572-2.434zM2.491 20c-0.493 0-0.991-0.58-0.991-1.020v-11.492c0-0.44 0.498-0.987 0.991-0.987h20.506c0.493 0 1.003 0.548 1.003 0.987v11.492c0 0.44-0.51 1.020-1.003 1.020h-20.506zM29.762 4.5h-3.523c-0.373 0-0.72 0.1-1.029 0.261 1.013 0.433 1.291 1.382 1.291 2.689v0.549h3.5c0.276 0 0.5 0.224 0.5 0.5s-0.224 0.5-0.5 0.5h-3.5v1h3.5c0.276 0 0.5 0.224 0.5 0.5s-0.224 0.5-0.5 0.5h-3.5v11.047c0 1.267-0.969 2.423-2.5 2.45v1.265c0 1.236 1.002 2.238 2.238 2.238h3.523c1.236 0 2.238-1.002 2.238-2.238v-19.024c0-1.236-1.002-2.238-2.239-2.238zM28.25 26c-0.691 0-1.25-0.559-1.25-1.25s0.559-1.25 1.25-1.25 1.25 0.559 1.25 1.25-0.559 1.25-1.25 1.25z"></path>
</svg>
