<!-- Generated by IcoMoon.io -->
<svg version="1.1" xmlns="http://www.w3.org/2000/svg" width="32" height="32" viewBox="0 0 32 32">
<title>conga</title>
<path d="M30.994 6.449c0.555 0 1.006-0.45 1.006-1.006 0-0.555-0.451-1.006-1.006-1.006h-11.547c0.118 0.66 0.218 1.333 0.303 2.011h11.244zM26.87 29.947h-6.881c-0.256 0-0.463 0.209-0.463 0.463 0 0.256 0.206 0.465 0.463 0.463h6.881c0.256 0 0.462-0.208 0.462-0.463 0-0.255-0.206-0.463-0.462-0.463zM27.23 7.462v3.245h0.875c0.195 0 0.377 0.104 0.474 0.273 0.098 0.171 0.098 0.379 0 0.549l-1.389 2.404c-0.097 0.168-0.279 0.274-0.474 0.274-0.197 0-0.377-0.106-0.476-0.274l-1.386-2.404c-0.099-0.171-0.099-0.378 0-0.549 0.097-0.169 0.277-0.273 0.474-0.273h0.974v-3.245h-5.648v3.245h0.875c0.195 0 0.377 0.104 0.474 0.273 0.099 0.171 0.099 0.379 0 0.549l-1.387 2.404c-0.098 0.168-0.279 0.274-0.474 0.274-0.045 0-0.090-0.009-0.133-0.018-0.267 4.005-1.209 7.886-2.644 11.072 0.757 1.727 1.641 3.158 2.566 4.191h6.995c2.548-2.846 4.811-8.703 4.811-15.472 0-2.304-0.204-4.505-0.573-6.516h-3.936zM13.58 29.274c2.868-3.207 5.415-9.797 5.415-17.41 0-2.595-0.231-5.071-0.645-7.335h-4.429v3.719h0.985c0.196 0 0.377 0.104 0.473 0.274 0.099 0.168 0.098 0.378 0 0.547l-1.562 2.705c-0.097 0.169-0.277 0.275-0.473 0.275s-0.377-0.106-0.475-0.275l-1.562-2.705c-0.098-0.169-0.098-0.379 0-0.547 0.098-0.171 0.279-0.274 0.474-0.274h1.097v-3.719h-6.356v3.719h0.984c0.197 0 0.378 0.104 0.476 0.274 0.097 0.168 0.097 0.378 0 0.547l-1.562 2.705c-0.098 0.169-0.28 0.275-0.476 0.275s-0.377-0.106-0.474-0.275l-1.562-2.705c-0.098-0.169-0.098-0.379 0-0.547 0.097-0.171 0.28-0.274 0.475-0.274h1.096v-3.719h-4.542c-0.414 2.264-0.645 4.739-0.645 7.335 0 7.614 2.548 14.204 5.415 17.41h7.871zM13.516 29.831h-7.744c-0.287 0-0.521 0.233-0.521 0.52s0.234 0.523 0.521 0.521h7.744c0.287 0 0.521-0.234 0.521-0.521s-0.233-0.52-0.521-0.52zM1.132 3.393h17.025c0.625 0 1.134-0.509 1.134-1.134s-0.508-1.132-1.134-1.132h-17.025c-0.625 0-1.132 0.508-1.132 1.133s0.507 1.134 1.132 1.133z"></path>
</svg>
