<!-- Generated by IcoMoon.io -->
<svg version="1.1" xmlns="http://www.w3.org/2000/svg" width="32" height="32" viewBox="0 0 32 32">
<title>copyright</title>
<path d="M18.49 20.949c-0.598 0.491-1.365 0.736-2.302 0.736-1.254 0-2.253-0.421-2.997-1.262s-1.116-2.28-1.116-4.318c0-1.833 0.366-3.14 1.098-3.921s1.714-1.172 2.944-1.172c0.925 0 1.678 0.226 2.259 0.679s0.952 1.127 1.116 2.021l4.869-0.809c-0.586-1.844-1.55-3.216-2.892-4.115s-3.149-1.351-5.423-1.351c-2.777 0-4.98 0.79-6.61 2.37s-2.444 3.787-2.444 6.623c0 2.803 0.811 4.997 2.434 6.582s3.8 2.378 6.53 2.378c2.402 0 4.318-0.523 5.748-1.569s2.396-2.593 2.901-4.641l-4.851-0.761c-0.246 1.196-0.668 2.040-1.266 2.53zM16 0c-8.836 0-16 7.163-16 16s7.163 16 16 16 16-7.163 16-16-7.163-16-16-16zM16 28.5c-6.893 0-12.5-5.608-12.5-12.5s5.607-12.5 12.5-12.5 12.5 5.607 12.5 12.5-5.608 12.5-12.5 12.5z"></path>
</svg>
