<!-- Generated by IcoMoon.io -->
<svg version="1.1" xmlns="http://www.w3.org/2000/svg" width="32" height="32" viewBox="0 0 32 32">
<title>corn</title>
<path d="M25.25 5.95c-5 4-7.15 7.6-7.75 10.55 0.55-0.050 1.1-0.050 1.65 0 4.45 0.45 7.75 4.6 7.75 4.6 0.8 0.85 1.15 1.95 1.15 3.2 0 0.15-0.1 0.35-0.2 0.45-0.4 0.4-1.050 0.15-1.1-0.45-0.050-0.8-0.35-1.6-0.9-2.2-0.1-0.15-8.050-11.55-20.55 3.2-0.55 0.65-0.050 1.35 0.7 0.85 3.45-2.2 6.75-2.050 10.85 3.95 0.1 0.15 2.7 3.6 6.9 0.050 0.1 0.2 0.2 0.35 0.35 0.5l0.55 0.55c0.65 0.65 1.65 0.65 2.3 0.050l4.4-4.3c0.65-0.65 0.65-1.65 0.050-2.3l-0.55-0.55c-0.2-0.2-0.4-0.35-0.65-0.4 1.35-2.1 1.3-4.35-0.050-5.75-0.1-0.1-0.25-0.25-0.4-0.35-5.85-4.3-5.95-7.6-3.65-10.95 0.5-0.7-0.15-1.25-0.85-0.7zM13.3 17.3c1.050-0.4 2-0.65 2.9-0.7 0.1-0.9 0.35-1.85 0.75-2.85-0.85-1.050-1.8-2.050-2.75-3.050-0.2-0.25-0.5-0.2-0.7 0-0.95 1.1-2 2.1-3.15 3-0.2 0.2-0.25 0.5-0.050 0.7 0.95 1 1.95 1.95 3 2.9zM9.3 15.050c-0.15-0.2-0.45-0.2-0.65-0.050-0.75 0.5-1.5 1-2.3 1.4-0.15 0.1-0.25 0.25-0.25 0.45-0.3-0.45-0.6-0.85-0.9-1.3 0.1 0 0.2 0 0.35-0.050 0.75-0.4 1.5-0.85 2.2-1.3 0.25-0.15 0.3-0.5 0.1-0.75-0.45-0.5-0.85-1-1.3-1.55-0.15-0.2-0.45-0.25-0.65-0.1-0.6 0.45-1.2 0.85-1.85 1.2-0.1 0.050-0.15 0.15-0.2 0.25-0.25-0.4-0.45-0.8-0.65-1.2 0.1 0 0.2 0 0.3-0.050 0.55-0.35 1.1-0.7 1.65-1.1 0.2-0.15 0.25-0.45 0.1-0.7-0.4-0.55-0.8-1.1-1.2-1.65-0.15-0.25-0.5-0.3-0.7-0.1-0.4 0.3-0.8 0.6-1.25 0.9 0 0-0.050 0-0.050 0.050-0.15-0.45-0.25-0.85-0.35-1.3 0.1 0 0.2-0.050 0.25-0.1 0.25-0.2 0.55-0.4 0.8-0.6 0.25-0.15 0.3-0.4 0.15-0.6-0.35-0.6-0.75-1.2-1.050-1.8-0.1-0.15-0.2-0.25-0.3-0.25 0.1-0.6 0.35-1.15 0.65-1.65 0.45 0.95 1 1.85 1.5 2.75 0.15 0.25 0.55 0.3 0.75 0.1 0.45-0.45 0.95-0.9 1.35-1.4 0.2-0.2 0.15-0.6-0.1-0.75-0.8-0.55-1.7-1.050-2.6-1.55 0.45-0.3 1.050-0.5 1.65-0.6 0.050 0.1 0.1 0.2 0.25 0.25 0.55 0.35 1.1 0.7 1.65 1.050 0.2 0.15 0.5 0.1 0.65-0.1 0.2-0.25 0.35-0.5 0.55-0.75 0.050-0.1 0.1-0.15 0.1-0.25 0.4 0.1 0.85 0.2 1.25 0.35 0 0-0.050 0.050-0.050 0.050-0.25 0.4-0.55 0.8-0.85 1.2-0.15 0.2-0.1 0.55 0.1 0.7 0.55 0.4 1.15 0.85 1.7 1.25 0.2 0.15 0.55 0.15 0.7-0.1 0.4-0.5 0.75-1.050 1.1-1.6 0.050-0.1 0.1-0.2 0.050-0.3 0.4 0.2 0.8 0.45 1.2 0.65-0.1 0.050-0.2 0.1-0.25 0.2-0.4 0.65-0.8 1.25-1.25 1.85-0.15 0.2-0.1 0.5 0.1 0.65 0.55 0.45 1.050 0.9 1.6 1.4 0.2 0.2 0.55 0.15 0.75-0.050 0.5-0.7 0.95-1.4 1.4-2.15 0.050-0.1 0.1-0.2 0.050-0.35 0.4 0.3 0.85 0.6 1.25 0.95-0.15 0-0.35 0.050-0.45 0.25-0.45 0.8-0.95 1.55-1.5 2.25-0.15 0.2-0.15 0.45 0.050 0.65 0.9 0.9 1.8 1.9 2.65 2.85 0.75-1.35 1.8-2.8 3.25-4.35-3.25-3.050-6.75-5.45-9.95-6.8-4-1.65-7.25-1.55-9.15 0.3s-2.1 5.1-0.5 9.15c1.25 3.25 3.55 6.8 6.55 10.1 1.55-1.4 3.050-2.45 4.4-3.1-1-0.95-1.95-1.85-2.85-2.8zM9.5 7.15c0.2-0.2 0.15-0.55-0.050-0.7-0.55-0.45-1.15-0.9-1.75-1.3-0.2-0.15-0.5-0.1-0.65 0.1-0.6 0.7-1.25 1.35-1.95 1.95-0.2 0.15-0.2 0.45-0.1 0.65 0.4 0.6 0.8 1.2 1.25 1.75 0.15 0.25 0.5 0.25 0.7 0.1 0.95-0.8 1.8-1.65 2.55-2.55zM7.6 11.3c0.45 0.55 0.9 1.1 1.35 1.6 0.15 0.2 0.45 0.2 0.65 0.050 1.15-0.9 2.2-1.95 3.15-3.050 0.15-0.2 0.15-0.5-0.050-0.65-0.55-0.5-1.050-1-1.6-1.45-0.2-0.15-0.5-0.15-0.7 0.050-0.85 1-1.8 1.9-2.8 2.75-0.15 0.2-0.2 0.5 0 0.7z"></path>
</svg>
