<!-- Generated by IcoMoon.io -->
<svg version="1.1" xmlns="http://www.w3.org/2000/svg" width="32" height="32" viewBox="0 0 32 32">
<title>crane</title>
<path d="M31.81 9.847l-1.472-2.503c-0.159-0.394-0.607-0.344-0.819-0.344h-6.053c-0.017 0-0.032 0-0.047 0h-9.919v-3.68c0-0.148-0.293-0.268-0.441-0.268l-3.059-0.811v-2.109c0-0.073 0.191-0.132 0.118-0.132h-2.056c-0.073 0-0.061 0.059-0.061 0.132v6.868h-3v-0.606c0-0.221-0.418-0.394-0.639-0.394h-3.961c-0.221 0-0.4 0.173-0.4 0.394v7.121c0 0.22 0.178 0.399 0.4 0.399l4.081-1.162c0.221 0 0.519-0.179 0.519-0.399v-1.852h3v18.5h-3.35c-0.263 0-0.65 0.272-0.65 0.535v1.816c0 0.263 0.387 0.648 0.65 0.648h18.4c0.263 0 0.569-0.322 0.361-0.715l-1.271-1.736c-0.254-0.323-0.591-0.549-0.855-0.549h-7.785v-18.5h14.5v3.062c-1 0.29-1.478 1.159-1.478 2.187 0 0.718 0.478 1.359 0.978 1.779v0.791c0 0.444 0.149 0.681 0.593 0.681h0.407v1.833l0.056-0.009c0.014-0.001-0.023-0.002-0.009-0.002 0.547 0 0.966 0.445 0.966 0.992s-0.458 0.992-1.005 0.992c-0.52 0-1.142-0.323-1.347-1.042-0.101-0.351-0.285-0.389-0.358-0.389-0.133 0-0.29 0.115-0.29 0.439 0 1.094 0.889 1.984 1.983 1.984s1.881-0.89 1.881-1.984c0-0.828-0.38-1.562-1.38-1.854v-0.959h0.367c0.445 0 0.633-0.237 0.633-0.681v-0.791c0.5-0.419 0.978-1.061 0.978-1.779 0-1.027-0.478-1.896-1.478-2.187v-3.061h2c0.212 0 0.48-0.248 0.31-0.653zM12 23.599c0 0.222-0.18 0.401-0.402 0.401h-1.697c-0.222 0-0.402-0.18-0.402-0.401v-2.197c0-0.222 0.179-0.401 0.402-0.401h1.697c0.222 0 0.402 0.18 0.402 0.401v2.197zM12 18.599c0 0.222-0.18 0.401-0.402 0.401h-1.697c-0.222 0-0.402-0.18-0.402-0.401v-2.197c0-0.221 0.179-0.401 0.402-0.401h1.697c0.222 0 0.402 0.18 0.402 0.401v2.197zM12 13.598c0 0.222-0.18 0.402-0.402 0.402h-1.697c-0.222 0-0.402-0.18-0.402-0.402v-2.197c0-0.222 0.179-0.402 0.402-0.402h1.697c0.222 0 0.402 0.179 0.402 0.402v2.197z"></path>
</svg>
