<!-- Generated by IcoMoon.io -->
<svg version="1.1" xmlns="http://www.w3.org/2000/svg" width="32" height="32" viewBox="0 0 32 32">
<title>credit-card</title>
<path d="M0 14v10.5c0 1.105 0.895 2 2 2h28c1.105 0 2-0.895 2-2v-10.5h-32zM5.5 23.5h-1.5c-0.552 0-1-0.448-1-1s0.448-1 1-1h1.5c0.552 0 1 0.448 1 1s-0.448 1-1 1zM12.5 23.5h-3.5c-0.552 0-1-0.448-1-1s0.448-1 1-1h3.5c0.552 0 1 0.448 1 1s-0.448 1-1 1zM16.5 23.5h-0.5c-0.552 0-1-0.448-1-1s0.448-1 1-1h0.5c0.552 0 1 0.448 1 1s-0.448 1-1 1zM32 9.5v-2.5c0-1.104-0.895-2-2-2h-28c-1.105 0-2 0.896-2 2v2.5h32z"></path>
</svg>
