<!-- Generated by IcoMoon.io -->
<svg version="1.1" xmlns="http://www.w3.org/2000/svg" width="32" height="32" viewBox="0 0 32 32">
<title>cricket-racket</title>
<path d="M8.813 21.985l-7.934 8.091c-0.408 0.416-0.402 1.084 0.014 1.492s1.085 0.402 1.492-0.015l7.935-8.091 1.995 0.379-3.92-3.844 0.418 1.987zM31.241 4.543l-3.92-3.844c-0.666-0.653-1.736-0.642-2.389 0.023l-16.559 16.886c-0.216 0.22-0.284 0.555-0.283 0.907l5.715 5.604c0.35-0.005 0.684-0.080 0.9-0.3l16.559-16.886c0.652-0.667 0.642-1.736-0.024-2.389zM7.707 9.188c0.665 0.444 1.424 0.688 2.136 0.688 0.324 0 0.624-0.053 0.893-0.152 0.168-0.374 0.264-0.788 0.264-1.224 0-1.657-1.344-3-3-3-0.739 0-1.415 0.269-1.938 0.713-0.14 0.998 0.484 2.2 1.646 2.974zM8 11.5c0.924 0 1.749-0.418 2.3-1.075-0.148 0.020-0.3 0.033-0.457 0.033-0.825 0-1.698-0.28-2.458-0.786-1.085-0.723-1.76-1.786-1.897-2.808-0.308 0.471-0.487 1.032-0.487 1.635 0 1.656 1.343 3 3 3z"></path>
</svg>
