<!-- Generated by IcoMoon.io -->
<svg version="1.1" xmlns="http://www.w3.org/2000/svg" width="32" height="32" viewBox="0 0 32 32">
<title>croissant</title>
<path d="M5.45 16c0 0-3.050-3.25-1.75-5.5-7.75 7.6-0.35 11.45-0.35 11.45s5.75 3.1 8.8 2.2c0.35-0.1 0.5-0.5 0.5-0.5-0.9-0.15-7.2-7.65-7.2-7.65zM0.9 21.4l-0.6 2.7c-0.65 2.050 0.3 4.4 2.3 5.4s4.3 0.25 5.3-1.6v0l1.6-2.4c-2.8-0.2-7.55-2.1-8.6-4.1zM25.35 10.8c0 0 1.3-8.25-9.45-6.5 2.6 0.25 3.4 4.65 3.4 4.65s2.3 9.5 1.9 10.4c0 0 0.4 0.1 0.7-0.1 2.55-2 3.45-8.45 3.45-8.45zM28.9 9.6v0l-2.5-1.1c1 2.050-0.3 7-1.75 9.35l2.85 0.1c2.1 0.3 4.050-1.1 4.45-3.3 0.35-2.2-1-4.35-3.050-5.050zM17.25 7.2c-1.3-2.6-5.050-3.35-8.35-1.65s-4.95 5.15-3.65 7.7c0.15 0.3 0.55 0.8 0.55 0.8l6.7 7.85c1.85 2.2 3.050 1.75 5.1 0.8 3.25-1.55 2.75-2.85 2.4-4.55l-2.35-10.050c-0.15-0.3-0.25-0.6-0.4-0.9zM8.55 9.5c-0.5 0.75-0.7 1.65-0.6 2.6 0.050 0.3-0.15 0.55-0.45 0.55-0.3 0.050-0.65-0.25-0.65-0.6-0.15-1.15 0.1-2.25 0.7-3.15 0.2-0.3 0.6-0.35 0.85-0.15s0.3 0.5 0.15 0.75z"></path>
</svg>
