<!-- Generated by IcoMoon.io -->
<svg version="1.1" xmlns="http://www.w3.org/2000/svg" width="32" height="32" viewBox="0 0 32 32">
<title>crop</title>
<path d="M31 22.5h-4.5v-15.83l5.036-5.146c0.29-0.296 0.284-0.771-0.012-1.060s-0.77-0.284-1.061 0.011l-4.922 5.029c-0.014-0-0.027-0.004-0.042-0.004h-15.5v-4.5c0-0.552-0.448-1-1-1h-2.5c-0.552 0-1 0.448-1 1v4.5h-4.5c-0.552 0-1 0.448-1 1v2.5c0 0.552 0.448 1 1 1h4.5v16c0 0.552 0.448 1 1 1h15.5v4c0 0.552 0.448 1 1 1h2.5c0.552 0 1-0.448 1-1v-4h4.5c0.552 0 1-0.448 1-1v-2.5c0-0.552-0.448-1-1-1zM21.142 10l-11.142 11.384v-11.384h11.142zM11.007 22.5l10.993-11.232v11.232h-10.993z"></path>
</svg>
