<!-- Generated by IcoMoon.io -->
<svg version="1.1" xmlns="http://www.w3.org/2000/svg" width="32" height="32" viewBox="0 0 32 32">
<title>crossed-line-chart</title>
<path d="M31.939 19.315l-2.539-7.154 2.393-7.246c0.237-0.499 0.023-1.095-0.476-1.332s-1.095-0.023-1.331 0.475l-1.669 5.051-2.849-8.028c-0.166-0.526-0.729-0.819-1.255-0.652-0.157 0.049-0.289 0.136-0.398 0.245-0.136 0.096-0.253 0.224-0.329 0.385l-3.345 10.975-3.174-8.453c-0.166-0.526-0.729-0.819-1.255-0.652-0.156 0.050-0.289 0.136-0.398 0.244-0.136 0.096-0.253 0.224-0.329 0.385l-3.323 10.688-2.695-6.165c-0.003-0.010-0.008-0.018-0.011-0.027-0.007-0.018-0.015-0.034-0.022-0.051-0.018-0.045-0.037-0.088-0.061-0.128-0.005-0.010-0.013-0.018-0.019-0.027-0.029-0.045-0.059-0.088-0.094-0.128-0.008-0.009-0.018-0.016-0.026-0.025-0.036-0.037-0.073-0.073-0.114-0.104-0.014-0.011-0.031-0.021-0.047-0.031-0.037-0.026-0.075-0.051-0.116-0.071-0.020-0.010-0.040-0.016-0.060-0.024-0.041-0.017-0.082-0.034-0.124-0.045-0.005-0.002-0.011-0.004-0.015-0.005-0.020-0.005-0.040-0.005-0.059-0.009-0.039-0.008-0.077-0.014-0.117-0.018-0.034-0.003-0.068-0-0.101 0-0.030 0.001-0.060 0.001-0.090 0.005-0.043 0.005-0.085 0.016-0.127 0.027-0.016 0.005-0.034 0.005-0.051 0.011-0.005 0.002-0.009 0.004-0.013 0.005-0.045 0.015-0.088 0.035-0.131 0.056-0.016 0.008-0.034 0.014-0.051 0.024-0.043 0.024-0.082 0.053-0.12 0.083-0.012 0.010-0.026 0.018-0.037 0.027-0.041 0.035-0.077 0.075-0.112 0.117-0.006 0.008-0.013 0.013-0.019 0.021-0.033 0.042-0.061 0.088-0.088 0.136-0.005 0.010-0.011 0.018-0.016 0.027-0.021 0.041-0.037 0.085-0.052 0.13-0.006 0.018-0.014 0.036-0.020 0.055-0.003 0.009-0.008 0.018-0.010 0.027l-2.886 9.196-2.188-5.252c-0.167-0.527-0.728-0.819-1.255-0.652s-0.819 0.729-0.652 1.255l3.168 7.604-3.211 10.225c-0.136 0.535 0.189 1.079 0.724 1.215s1.079-0.189 1.215-0.724l2.465-7.851 2.611 6.265c0.167 0.526 0.729 0.819 1.255 0.652 0.156-0.049 0.289-0.137 0.399-0.244 0.136-0.096 0.252-0.224 0.329-0.384l2.959-9.52 3.059 6.997c0.115 0.364 0.421 0.611 0.771 0.677 0.095 0.133 0.221 0.246 0.379 0.321 0.499 0.237 1.096 0.023 1.332-0.475l2.813-9.229 2.706 7.206c0.166 0.526 0.729 0.819 1.255 0.652 0.157-0.049 0.289-0.137 0.398-0.244 0.136-0.096 0.253-0.224 0.328-0.384l3.364-10.184 1.654 4.661c0.166 0.526 0.729 0.819 1.255 0.652s0.818-0.729 0.651-1.256zM7.906 26.334l-2.557-6.136 2.819-8.979 2.593 5.93-2.856 9.185zM16.261 24.764l-3.386-7.744 3.172-10.206 3.137 8.357-2.924 9.593zM23.977 22.252l-2.695-7.177 3.248-10.657 2.764 7.788-3.317 10.046z"></path>
</svg>
