<!-- Generated by IcoMoon.io -->
<svg version="1.1" xmlns="http://www.w3.org/2000/svg" width="32" height="32" viewBox="0 0 32 32">
<title>cruise-control</title>
<path d="M7 7.55l0.2-4.6c0-0.25-0.050-0.45-0.050-0.45-0.45-0.9-1.25-0.15-1.25-0.15l-1.1 1.050-1.75-1.75c-0.3-0.3-0.75-0.3-1 0l-1.7 1.7c-0.3 0.3-0.3 0.75 0 1l1.75 1.75-1.2 1.2c0 0-0.7 0.8 0.2 1.25 0.050 0 0.25 0.1 0.7 0.050l4.3-0.2c0.5 0 0.85-0.4 0.9-0.85zM27.25 7.45c-2.65-2.65-6.2-4.1-9.95-4.1s-7.3 1.45-9.95 4.1c-2.65 2.65-4.1 6.2-4.1 9.95s1.45 7.3 4.1 9.95c0.25 0.25 0.55 0.5 0.8 0.75l0.2 0.15 0.35 0.3 0.050 0.050 0.1-0.15 4.6-4.6-2.15-2.15-2.050 2.2c-0.9-1.15-1.55-2.3-1.9-3.8h2.15v-3h-2.4c0.15-2.5 0.9-4.15 2.1-5.75l5.1 5.050c-0.2 0.45-0.35 0.9-0.35 1.45 0 1.85 1.5 3.3 3.35 3.3s3.35-1.5 3.35-3.35c0-1.85-1.5-3.35-3.35-3.35-0.6 0-1.15 0.15-1.6 0.4l-5.25-5.15c1.45-1.25 3.55-2.1 5.050-2.45v2.75h3v-2.75c2 0.3 3.95 1.15 5.4 2.45l-2 2.050 2.2 2.15 1.9-1.75c0.85 1.4 1.4 2.85 1.5 4.85h-3v3h2.75c-0.3 0.5-0.85 2.35-1.6 3.4l-2.050-2.15-2.15 2.15 4.8 4.85c0 0 0.9-0.85 1.050-0.95 2.65-2.65 4.1-6.2 4.1-9.95s-1.5-7.25-4.15-9.9z"></path>
</svg>
