<!-- Generated by IcoMoon.io -->
<svg version="1.1" xmlns="http://www.w3.org/2000/svg" width="32" height="32" viewBox="0 0 32 32">
<title>Crutch</title>
<path d="M24.813 3.746l-8.707-3.659c-0.566-0.238-1.219 0.028-1.456 0.594l-0.713 1.696c-0.238 0.566 0.028 1.219 0.594 1.457l0.246 0.103-3.156 7.469c-0.653 1.55-0.649 3.325 0.012 4.869l0.891 2.084-3.992 9.5-1.973 2.239c-0.151 0.358 0.018 0.771 0.376 0.922l2.197 0.922c0.358 0.151 0.771-0.017 0.921-0.376l0.218-2.975 4.006-9.533 2.067-0.797c1.57-0.605 2.844-1.839 3.497-3.386l3.162-7.484 0.233 0.098c0.566 0.238 1.218-0.029 1.456-0.595l0.713-1.696c0.238-0.566-0.028-1.218-0.594-1.455zM17.938 14.073c-0.436 1.033-1.287 1.857-2.335 2.261l-1.453 0.56-0.613-1.432c-0.441-1.031-0.444-2.217-0.008-3.252l1.787-4.229 4.413 1.855-1.791 4.237zM20.36 8.341l-4.413-1.854 0.739-1.749 4.413 1.854-0.739 1.748z"></path>
</svg>
