<!-- Generated by IcoMoon.io -->
<svg version="1.1" xmlns="http://www.w3.org/2000/svg" width="32" height="32" viewBox="0 0 32 32">
<title>cube</title>
<path d="M31.192 5.984l-13.183-5.9c-0.125-0.058-0.291-0.084-0.491-0.084-0.485 0-1.105 0.156-1.484 0.405l-15.656 5.926c-0.203 0.133-0.378 0.391-0.378 0.713v14.048c0 0.464 0.306 1.224 0.807 1.522l15.149 9.047c0.136 0.14 0.308 0.238 0.493 0.238 0.020 0 0.038-0.006 0.056-0.008 0.181-0.001 0.351-0.090 0.485-0.225l13.742-11.252c0.5-0.299 0.767-1.015 0.767-1.479v-12.348c0-0.244-0.030-0.476-0.307-0.603zM16.628 1.861c0.096-0.039 0.187-0.086 0.274-0.143 0.093-0.058 0.386-0.143 0.61-0.147l11.349 5.079-11.54 7.678-0.816 0.487c-0.041 0.025-0.080 0.059-0.119 0.091-0.102 0.024-0.297 0.055-0.559 0.055-0.131 0-0.234-0.008-0.302-0.016l-12.65-7.929 13.754-5.154zM30.046 19.087l-12.546 10.588v-13.242c0-0.074-0.061-0.191-0.015-0.273l0.905-0.621 11.61-7.379v10.752c0 0.052 0.078 0.135 0.046 0.175z"></path>
</svg>
