<!-- Generated by IcoMoon.io -->
<svg version="1.1" xmlns="http://www.w3.org/2000/svg" width="32" height="32" viewBox="0 0 32 32">
<title>cucumber</title>
<path d="M31.15 12.7c0.4-1.75 0.5-3.75-0.4-5.15-0.15-0.25-0.35-0.5-0.55-0.7 0.1-0.1 0.5-0.7 0.5-0.7 0.35-0.7 0.1-1.55-0.55-1.9-0.050 0-0.050-0.050-0.1-0.050-0.35-1-1.15-1.8-2.15-2.2s-2.2-0.35-3.15 0.15c0 0 0-0.050 0-0.050-0.1-0.65-0.45-1.15-0.95-1.4-0.2-0.1-0.5-0.15-0.75-0.2-1.050 0-2.050 0.8-2.25 1.8-0.050 0.6 0.050 1.2 0.4 1.7 0.2 0.3 0.5 0.55 0.8 0.7-0.4 0.25-0.9 0.4-1.5 0.55-0.4 0.1-0.75 0.15-1.050 0.2 0.4-0.85 0.6-1.8 0.4-2.65-0.2-1-0.95-2.050-2.1-2.050-0.7 0-1.4 0.35-1.85 1.050-0.8 1.15-0.7 2.85 0.25 3.9 0.2 0.25 0.5 0.45 0.8 0.65-0.75 0.6-1.6 0.95-2.4 0.9s-1.6-0.5-2-1.15c-0.15-0.3-0.5-0.4-0.8-0.35-0.45 0.1-0.7 0.65-0.45 1.050 0.6 1.1 1.85 1.85 3.2 1.9 0.3 0 0.6 0 0.9-0.050 1.1-0.2 2.15-0.8 3-1.7 0 0 0 0 0.050-0.050v0c0.7 0.1 1.45 0.050 2.35-0.2 1.2-0.3 2.1-0.75 2.75-1.35 0.35-0.3 0.6-0.7 0.8-1.050 0.1-0.1 0.25-0.15 0.35-0.25 0.3-0.3 0.5-0.45 0.7-0.55 0.6-0.35 1.4-0.4 2.050-0.15 0.5 0.2 0.95 0.6 1.2 1.1-0.15 0.1-0.25 0.25-0.35 0.4 0 0-0.35 0.55-0.4 0.65-1.45-0.4-3.1-0.15-4.45 0.8-0.9 0.6-1.5 1.45-1.85 2.4v0c0 0 0 0 0 0-0.15-0.050-0.35-0.1-0.55-0.1-0.8 0.050-1.4 0.7-1.35 1.45 0 0.5 0.35 0.95 0.75 1.2-0.1 0.2-0.15 0.35-0.2 0.4-0.4 0.85-0.85 1.65-1.4 2.4-0.25-0.15-0.5-0.25-0.8-0.2-0.8 0.050-1.4 0.7-1.35 1.45 0 0.3 0.15 0.6 0.35 0.85-0.45 0.45-0.95 0.85-1.5 1.25-0.7 0.45-1.4 0.85-2.15 1.2-0.2-0.6-0.75-1.050-1.4-1-0.8 0.050-1.4 0.7-1.35 1.45 0 0.15 0.050 0.3 0.1 0.45-0.7 0.2-1.45 0.3-2.2 0.4-0.050 0-0.7 0.050-1.45 0.1 0-0.050 0-0.1 0-0.15-0.050-0.8-0.7-1.4-1.45-1.35-0.8 0.050-1.4 0.7-1.35 1.45 0 0.1 0 0.2 0.050 0.3-0.65 0.15-1.35 0.4-1.95 0.85-2.35 1.65-3.050 5.050-1.25 7.35 0.8 1.050 2.2 1.6 3.65 1.9 0.15 0.65 0.75 1.1 1.45 1.050 0.55 0 1-0.35 1.2-0.8 1 0 1.9-0.050 2.4-0.15v0c0.45-0.050 0.95-0.1 1.4-0.2 0.2 0.55 0.75 0.9 1.35 0.9 0.8-0.050 1.4-0.7 1.35-1.45 0 0 0 0 0 0 1.9-0.55 3.7-1.25 5.4-2.2 0.25 0.3 0.7 0.5 1.15 0.5 0.8-0.050 1.4-0.7 1.35-1.45 0-0.15-0.050-0.3-0.1-0.45 1.5-1.1 2.85-2.3 4.050-3.7 0.25 0.15 0.55 0.25 0.85 0.25 0.8-0.050 1.4-0.7 1.35-1.45 0-0.4-0.2-0.7-0.45-0.95 0.85-1.15 1.55-2.4 2.2-3.7v0c0.15-0.25 0.35-0.65 0.55-1.1 0.1 0 0.15 0 0.25 0 0.8-0.050 1.4-0.7 1.35-1.45-0.050-0.6-0.35-1.050-0.75-1.3zM18 5.15c-0.3-0.1-0.5-0.3-0.7-0.5-0.5-0.55-0.55-1.55-0.15-2.15 0.15-0.25 0.35-0.4 0.55-0.4 0.050 0 0.050 0 0.1 0 0.3 0 0.6 0.4 0.7 0.9 0.15 0.7-0.050 1.45-0.5 2.15zM23.3 3.2c-0.2 0.15-0.4 0.2-0.6 0.15-0.1 0-0.25-0.1-0.35-0.25s-0.15-0.35-0.15-0.55c0.050-0.3 0.35-0.6 0.7-0.65 0.050 0 0.1 0 0.15 0 0.1 0 0.15 0 0.15 0 0.050 0 0.15 0.15 0.2 0.4 0.050 0.35 0 0.65-0.1 0.9zM10.5 23.15c-1.15 0.5-2.45 0.55-3.65 0.25-0.4-0.1-0.6-0.5-0.5-0.8s0.45-0.5 0.75-0.4c1 0.25 2.050 0.2 3-0.2 0.3-0.1 0.65 0 0.8 0.3 0.1 0.3-0.050 0.7-0.4 0.85zM24.5 10.55c-1.2 5.6-5.3 9.25-10.9 11.7-1 0.45-1.6-0.85-0.4-1.3 5.15-2 8.7-5.75 9.85-10.7 0.1-0.35 0.45-0.6 0.85-0.55s0.7 0.45 0.6 0.85z"></path>
</svg>
