<!-- Generated by IcoMoon.io -->
<svg version="1.1" xmlns="http://www.w3.org/2000/svg" width="32" height="32" viewBox="0 0 32 32">
<title>cufflinks</title>
<path d="M14.357 14.963h-12.715c-0.907 0-1.643 0.736-1.643 1.642v0.009c0 0.907 0.736 1.642 1.643 1.642h5.131v4.983h-2.312c-0.676 0-1.224 0.549-1.224 1.224v0.006c0 0.675 0.548 1.224 1.224 1.224h2.312v0.441c0 0.676 0.548 1.224 1.223 1.224h0.006c0.676 0 1.223-0.549 1.223-1.224v-0.441h2.312c0.676 0 1.224-0.549 1.224-1.224v-0.006c0-0.676-0.549-1.224-1.224-1.224h-2.312v-4.983h5.131c0.907 0 1.643-0.736 1.643-1.642v-0.009c0-0.906-0.736-1.642-1.643-1.642zM8 9.944c-3.749 0-6.788 2.174-6.788 4.56h13.577c0-2.386-3.040-4.56-6.788-4.56zM6.811 12.18c-1.587 0.107-2.709 1.146-2.72 1.156-0.105 0.098-0.239 0.146-0.372 0.146-0.144 0-0.288-0.057-0.396-0.171-0.205-0.219-0.195-0.562 0.025-0.767 0.057-0.053 1.421-1.313 3.389-1.447 0.298-0.016 0.557 0.205 0.577 0.504s-0.205 0.558-0.504 0.579zM30.358 9.662h-12.715c-0.907 0-1.643 0.736-1.643 1.642v0.008c0 0.906 0.736 1.642 1.642 1.642h5.131v4.983h-2.311c-0.676 0-1.224 0.549-1.224 1.224v0.006c0 0.675 0.549 1.223 1.224 1.223h2.311v0.442c0 0.676 0.549 1.224 1.224 1.224h0.006c0.675 0 1.224-0.549 1.224-1.224v-0.442h2.311c0.676 0 1.224-0.548 1.224-1.223v-0.006c0-0.675-0.549-1.224-1.224-1.224h-2.311v-4.983h5.131c0.907 0 1.642-0.736 1.642-1.642v-0.008c0-0.905-0.736-1.642-1.642-1.642zM24 4.643c-3.749 0-6.788 2.175-6.788 4.561h13.577c0-2.386-3.040-4.561-6.788-4.561zM22.81 6.879c-1.586 0.107-2.709 1.146-2.72 1.156-0.105 0.098-0.238 0.146-0.372 0.146-0.145 0-0.288-0.057-0.395-0.171-0.205-0.219-0.195-0.563 0.024-0.768 0.056-0.053 1.421-1.313 3.389-1.448 0.294-0.011 0.558 0.205 0.578 0.505s-0.205 0.558-0.505 0.579z"></path>
</svg>
