<!-- Generated by IcoMoon.io -->
<svg version="1.1" xmlns="http://www.w3.org/2000/svg" width="32" height="32" viewBox="0 0 32 32">
<title>cupcake</title>
<path d="M15.4 21.25v0 0h-10.35l2.3 6.6c0.6 2.25 2.4 3.7 4.7 3.7h6.8c2.3 0 4.1-1.45 4.7-3.7l2.3-6.6h-10.45zM10.9 29c-0.4 0.1-0.85-0.2-0.95-0.6l-1.2-4.55c-0.1-0.45 0.15-0.95 0.65-1v0c0.4-0.1 0.85 0.2 0.95 0.6l1.2 4.55c0.1 0.45-0.2 0.9-0.65 1zM15.4 29.050c-0.45 0-0.85-0.35-0.85-0.85v-4.6c0-0.45 0.35-0.85 0.85-0.85 0.45 0 0.85 0.35 0.85 0.85v4.6c0 0.45-0.4 0.85-0.85 0.85zM22.050 23.85l-1.2 4.55c-0.1 0.4-0.55 0.7-0.95 0.6-0.5-0.1-0.75-0.55-0.65-1l1.2-4.55c0.1-0.4 0.55-0.7 0.95-0.6 0.5 0.050 0.8 0.5 0.65 1zM25.6 13.55c0 0 0.2-0.8 0.2-1.25 0-1.65-1.35-3-3-3-0.1 0-0.2 0-0.3 0 0.15-2.1-1.2-3.2-2.75-4.1-3.1-2.3-1.75-4.75-1.75-4.75-7.5 1.9-8.8 6.6-9 8.9-0.15-0.050-0.3-0.050-0.5-0.050-1.65 0-3 1.35-3 3 0 0.45 0.1 0.85 0.25 1.25-1.9 0-2.9 1.6-2.9 3.25s1.35 3.25 3.050 3.25h19.65c1.65 0 3.050-1.55 3.050-3.25s-1.1-3.35-3-3.25zM5.95 17.45c-0.5 0-0.95-0.4-0.95-0.95 0-0.5 0.4-0.95 0.95-0.95s0.95 0.4 0.95 0.95c0 0.55-0.4 0.95-0.95 0.95zM8.65 12.95c-0.5 0-0.95-0.4-0.95-0.95 0-0.5 0.4-0.95 0.95-0.95s0.95 0.4 0.95 0.95c0 0.5-0.45 0.95-0.95 0.95zM15.1 6.4c-0.55 0.5-1 1.1-1.25 1.8-0.35 0.95-1.15 0.8-1.15 0.8-0.5-0.050-0.85-0.7-0.6-1.45 0.35-1 0.95-1.9 1.75-2.55 1-0.8 1.55 0.050 1.55 0.050 0.35 0.45 0.050 1-0.3 1.35z"></path>
</svg>
