<!-- Generated by IcoMoon.io -->
<svg version="1.1" xmlns="http://www.w3.org/2000/svg" width="32" height="32" viewBox="0 0 32 32">
<title>Curling</title>
<path d="M25.666 7.5c0 2.025-1.642 3.666-3.666 3.666s-3.666-1.642-3.666-3.667c0-2.025 1.642-3.667 3.666-3.667s3.666 1.642 3.666 3.667zM21.515 17.438l-2.53-0.023c0.613-0.631 1.119-1.204 1.503-1.671l6.188 3.3c0.852 0.455 1.913 0.133 2.367-0.72s0.132-1.913-0.721-2.367l-7.5-4c-0.794-0.424-1.78-0.176-2.279 0.573-0.055 0.084-5.708 8.39-16.831 10.244-0.954 0.159-1.597 1.061-1.438 2.014 0.142 0.856 0.884 1.463 1.724 1.463 0.096 0 0.193-0.009 0.29-0.024 5.37-0.895 9.586-3.091 12.689-5.346l3.222 0.029-2.642 3.852c-0.367 0.535-0.408 1.231-0.105 1.805s0.898 0.934 1.548 0.934h3.5c0.966 0 1.75-0.784 1.75-1.75s-0.784-1.75-1.75-1.75h-0.178l2.622-3.823c0.366-0.533 0.407-1.225 0.108-1.799s-0.889-0.935-1.537-0.941zM31.2 24.482c-0.284-1.589-1.794-2.367-1.864-2.402-0.105-0.052-0.219-0.079-0.335-0.079h-3c-0.415 0-0.75 0.336-0.75 0.75s0.335 0.75 0.75 0.75h2.796c0.14 0.092 0.366 0.262 0.564 0.5h-2.859c-0.966 0-1.75 0.784-1.75 1.75s0.784 1.75 1.75 1.75h3.5c0.966 0 1.75-0.784 1.75-1.75 0-0.5-0.213-0.949-0.55-1.268z"></path>
</svg>
