<!-- Generated by IcoMoon.io -->
<svg version="1.1" xmlns="http://www.w3.org/2000/svg" width="32" height="32" viewBox="0 0 32 32">
<title>customer-verification</title>
<path d="M30.807 26.041l-3.523-3.934c1.395-2.276 2.148-4.892 2.136-7.628-0.017-3.881-1.545-7.523-4.302-10.255-3.433-3.402-8.315-4.872-13.061-3.933-2.848 0.565-5.436 1.956-7.487 4.024-2.732 2.757-4.226 6.411-4.208 10.292s1.546 7.523 4.301 10.255c3.432 3.402 8.314 4.872 13.061 3.933 1.732-0.343 3.367-0.997 4.847-1.92l3.515 3.928c1.314 1.303 3.437 1.295 4.742-0.021 1.303-1.314 1.294-3.438-0.021-4.742zM23.143 22.724c-1.64 1.655-3.707 2.768-5.983 3.219-3.799 0.752-7.704-0.424-10.448-3.145-2.206-2.184-3.429-5.098-3.441-8.202-0.014-3.104 1.18-6.027 3.365-8.231 1.64-1.655 3.709-2.768 5.984-3.219 3.799-0.752 7.704 0.424 10.449 3.144 2.205 2.186 3.428 5.098 3.44 8.202 0.015 3.104-1.179 6.028-3.366 8.232zM15 13.408c2.492 0 4.512-2.020 4.512-4.511 0-1.308-0.559-2.482-1.448-3.306-0.805-0.746-1.88-1.206-3.064-1.206-1.046 0-2.008 0.36-2.773 0.958-1.057 0.825-1.739 2.108-1.739 3.554 0.001 2.492 2.021 4.511 4.512 4.511zM17.157 14.368l-1.431 1.504 0.774 5.682v0.171l-0.895 1.649c-0.312 0.311-0.836 0.311-1.147 0l-0.864-1.649-0.006-0.171 0.728-5.489-1.477-1.697c-2.925 0.732-5.268 2.922-6.223 5.752 1.745 2.639 4.735 4.381 8.134 4.381 3.612 0 6.757-1.968 8.441-4.886-1.054-2.582-3.286-4.559-6.035-5.247z"></path>
</svg>
