<!-- Generated by IcoMoon.io -->
<svg version="1.1" xmlns="http://www.w3.org/2000/svg" width="32" height="32" viewBox="0 0 32 32">
<title>cutlery</title>
<path d="M12.8 19.9c0.2-1.9 1.15-3.45 1.5-3.9 1-1.050 1.6-2.45 1.6-4l-1-10.5c0-0.8-0.65-1.5-1.5-1.5h-0.7v8.9c0 0.45-0.35 0.85-0.85 0.85h-0.050c-0.45 0-0.85-0.35-0.85-0.85v-8.9h-2.1v8.9c0 0.45-0.35 0.85-0.85 0.85h-0.050c-0.45 0-0.85-0.35-0.85-0.85v-8.9h-0.85c-0.8 0-1.5 0.65-1.5 1.5l-0.75 10.45c0 1.45 0.55 2.8 1.4 3.85v0c0 0 1.5 2 1.6 4.45v0l-0.6 8.4c0 0.15 0.050 0.3 0.050 0.45 0.3 1.65 1.75 2.85 3.45 2.85s3.15-1.25 3.45-2.85c0.050-0.15 0.050-0.3 0.050-0.45 0 0 0-0.65-0.050-0.85l-0.55-7.9zM28.35 9c0-4.45-3.4-9-7.8-9h-0.6c-0.7 0-1.3 0.55-1.3 1.25 0 0 0.15 8.1 0.45 15.65v0c0 0 0.050 5.45-0.050 7.050l-0.35 5c0 0.15 0 0.25 0.050 0.4 0.3 1.45 1.6 2.6 3.15 2.6s2.85-1.1 3.15-2.6c0.050-0.15 0.050-0.25 0.050-0.4l-0.7-9.75c0.050-1.4 1.35-1.5 1.35-1.5h0.5c1.15 0 2.1-1.050 2.1-2.2v-6.5z"></path>
</svg>
