<!-- Generated by IcoMoon.io -->
<svg version="1.1" xmlns="http://www.w3.org/2000/svg" width="32" height="32" viewBox="0 0 32 32">
<title>cutter</title>
<path d="M2.142 29.973c2.311 2.31 5.901 2.56 8.489 0.752l-9.24-9.239c-1.808 2.589-1.56 6.178 0.75 8.488zM31.992 2.433l-8.017-2.405-1.965 1.964c-0.639-0.204-1.324 0.050-1.748 0.473l-17.922 17.922 1.992 1.991 2.89-2.89c-0.073-0.288-0.116-0.589-0.116-0.899 0-2.014 1.632-3.646 3.646-3.646 0.312 0 0.611 0.043 0.899 0.115l1.384-1.384 3.893 1.227-2.676 2.676c0.092 0.322 0.145 0.66 0.145 1.011 0 2.012-1.632 3.645-3.646 3.645-0.351 0-0.689-0.052-1.011-0.145l-2.849 2.849 4.832 4.831c1.73-1.881 2.176-4.519 1.338-6.791l10.785-10.784c0.595-0.596 1.064-1.492 0.983-2.6l7.162-7.16zM23.278 3.433l1.93-1.895 3.848 1.156-3.128 3.18-3.872-1.22 1.221-1.222zM17.655 14.176l-3.893-1.226 3.517-3.518 3.893 1.228-3.517 3.517zM21.899 9.931l-3.893-1.226 3.323-3.324 3.883 1.224-0.874 0.888-2.439 2.438zM13.122 18.59c0 1.309-1.061 2.37-2.37 2.37s-2.37-1.061-2.37-2.37c0-1.309 1.061-2.37 2.37-2.37s2.37 1.061 2.37 2.37z"></path>
</svg>
