<!-- Generated by IcoMoon.io -->
<svg version="1.1" xmlns="http://www.w3.org/2000/svg" width="32" height="32" viewBox="0 0 32 32">
<title>cymbals</title>
<path d="M29.489 0.395c-0.259-0.258-0.677-0.258-0.936 0.001l-0.003 0.003c-2.005-1.395-7.185 0.961-12.725 5.591-1.746-0.679-3.657-0.567-5.144 0.372l-1.229-1.228c-0.43-0.431-1.127-0.431-1.556-0.002s-0.43 1.125 0 1.556l1.229 1.229c-0.939 1.487-1.052 3.397-0.37 5.142-4.631 5.542-6.987 10.722-5.591 12.727l-0.003 0.003c-0.259 0.259-0.26 0.677 0 0.936 0.258 0.258 0.677 0.258 0.936-0l25.392-25.393c0.26-0.258 0.26-0.677 0-0.936zM28.835 6.215l0.004-0.003c0.259-0.26 0.259-0.676 0-0.936-0.259-0.258-0.677-0.258-0.936 0l-25.393 25.393c-0.26 0.259-0.26 0.677-0.001 0.936 0.26 0.258 0.676 0.258 0.935-0.001l0.003-0.003c2.005 1.395 7.184-0.961 12.726-5.59 1.747 0.68 3.655 0.567 5.143-0.372l1.229 1.23c0.431 0.43 1.127 0.429 1.558 0 0.428-0.429 0.43-1.125-0.001-1.557l-1.23-1.23c0.941-1.487 1.051-3.397 0.372-5.142 4.63-5.541 6.986-10.722 5.591-12.726z"></path>
</svg>
