<!-- Generated by IcoMoon.io -->
<svg version="1.1" xmlns="http://www.w3.org/2000/svg" width="32" height="32" viewBox="0 0 32 32">
<title>d-printer</title>
<path d="M30 1.5h-2.157c0.861 0 1.561 0.659 1.64 1.5h-9.484c-0.552 0-1 0.448-1 1s0.448 1 1 1h9.5v18.844c0 0.915-0.741 1.656-1.656 1.656h-23.688c-0.915 0-1.657-0.741-1.657-1.656v-18.844h10c0.552 0 1-0.448 1-1s-0.448-1-1-1h-9.985c0.080-0.841 0.78-1.5 1.641-1.5h-2.156c-1.105 0-2 0.896-2 2v25c0 1.105 0.895 2 2 2h28c1.105 0 2-0.895 2-2v-25c0-1.104-0.895-2-2-2zM15.5 7h1.5c0.552 0 1-0.448 1-1v-4.5c0-0.552-0.448-1-1-1h-1.5c-0.552 0-1 0.448-1 1v4.5c0 0.552 0.448 1 1 1zM16.25 11.5h0.558l0.558-1h-2.232l0.558 1zM14.964 9.438c0 0.304 0.339 0.567 0.511 0.563h1.5c0.147 0 0.511-0.269 0.511-0.536s0.439-1.342 0.489-1.465c0.051-0.122-0.353-0.5-0.5-0.5h-2.5c-0.148 0-0.577 0.333-0.5 0.5s0.489 1.134 0.489 1.438zM6.5 23.75c0 0.415 0.336 0.75 0.75 0.75h17.5c0.414 0 0.75-0.335 0.75-0.75s-0.336-0.75-0.75-0.75h-17.5c-0.414 0-0.75 0.335-0.75 0.75zM24.75 20.5h-17.5c-0.414 0-0.75 0.335-0.75 0.75s0.336 0.75 0.75 0.75h17.5c0.414 0 0.75-0.335 0.75-0.75s-0.336-0.75-0.75-0.75zM24.75 18h-17.5c-0.414 0-0.75 0.5-0.75 1 0 0 0.336 0.5 0.75 0.5h17.5c0.414 0 0.75-0.335 0.75-0.75s-0.336-0.75-0.75-0.75zM6.5 16.25c0 0.415 0.336 0.75 0.75 0.75h9c0.414 0 0.75-0.335 0.75-0.75v-3c0-0.415-0.336-0.75-0.75-0.75s-0.75 0.335-0.75 0.75v2.25h-8.25c-0.414 0-0.75 0.335-0.75 0.75z"></path>
</svg>
