<!-- Generated by IcoMoon.io -->
<svg version="1.1" xmlns="http://www.w3.org/2000/svg" width="32" height="32" viewBox="0 0 32 32">
<title>darts-pin</title>
<path d="M19.644 8.813c0.454 0.455 1.192 0.455 1.646 0l5.349-5.349c0.454-0.454 0.454-1.192 0-1.646l-2.469-1.646c0 0-1.192-0.455-1.646 0l-3.703 3.704c-0.455 0.455 0 1.646 0 1.646l0.823 3.292zM31.578 7.579l-1.646-2.469c-0.454-0.455-1.192-0.455-1.646 0l-5.349 5.35c-0.454 0.454-0.454 1.191 0 1.646l3.292 0.823c0 0 1.192 0.455 1.646 0l3.703-3.703c0.455-0.455 0-1.647 0-1.647zM10.591 23.629l-2.469-2.469 0.823-0.823 2.469 2.469-0.823 0.823zM28.715 3.858c0.218-0.218 0.218-0.571-0-0.789l-0.034-0.034c-0.218-0.217-0.572-0.218-0.788 0l-9.070 9.071c-0.455-0.454-1.192-0.454-1.646 0l-7.407 7.408 2.469 2.469 7.408-7.407c0.454-0.454 0.454-1.191 0-1.646l9.071-9.070zM4.829 24.451c-0.455 0.454-0.455 1.192 0 1.646l-4.544 4.544c-0.218 0.218-0.218 0.572 0.001 0.789l0.034 0.034c0.218 0.218 0.572 0.218 0.788 0l4.544-4.544c0.455 0.454 1.192 0.454 1.647 0l2.469-2.469-2.469-2.47-2.469 2.47z"></path>
</svg>
