<!-- Generated by IcoMoon.io -->
<svg version="1.1" xmlns="http://www.w3.org/2000/svg" width="32" height="32" viewBox="0 0 32 32">
<title>dashboard</title>
<path d="M16 3c-8.775 0-15.914 7.174-15.914 15.992 0 3.23 0.953 6.482 2.755 9.158 0.092 0.137 0.248 0.351 0.414 0.351h25.488c0.166 0 0.322-0.213 0.415-0.351 1.802-2.675 2.755-5.871 2.755-9.118-0-8.803-7.139-16.031-15.914-16.031zM18 7.24c0 1.242-1.007 2.25-2.25 2.25s-2.25-1.008-2.25-2.25 1.007-2.25 2.25-2.25 2.25 1.008 2.25 2.25zM4.25 23.49c-1.243 0-2.25-1.008-2.25-2.25s1.007-2.25 2.25-2.25 2.25 1.008 2.25 2.25-1.007 2.25-2.25 2.25zM6.75 14.24c-1.243 0-2.25-1.008-2.25-2.25s1.007-2.25 2.25-2.25 2.25 1.008 2.25 2.25-1.007 2.25-2.25 2.25zM20.715 10.719l-1.437 8.982c0.454 0.649 0.723 1.438 0.723 2.29 0 2.209-1.791 4-4 4s-4-1.791-4-4c0-1.939 1.381-3.555 3.213-3.921l4.073-7.807c0.127-0.395 0.548-0.611 0.943-0.486 0.395 0.127 0.612 0.549 0.486 0.943zM23 11.99c0-1.242 1.007-2.25 2.25-2.25s2.25 1.008 2.25 2.25-1.007 2.25-2.25 2.25-2.25-1.008-2.25-2.25zM27.75 23.49c-1.243 0-2.25-1.008-2.25-2.25s1.007-2.25 2.25-2.25 2.25 1.008 2.25 2.25-1.007 2.25-2.25 2.25z"></path>
</svg>
