<!-- Generated by IcoMoon.io -->
<svg version="1.1" xmlns="http://www.w3.org/2000/svg" width="32" height="32" viewBox="0 0 32 32">
<title>database</title>
<path d="M27.976 4.086c0-2.919-7.541-3.698-11.98-3.698-4.293 0-11.495 0.748-11.995 3.555 0 0.002 0 0.003 0 0.005 0 0.019 0 0.039 0 0.060 0 0.035 0 3.561 0 3.561 0 0.045 0.057 0.090 0.064 0.135 0.401 2.691 7.715 3.407 11.958 3.407 4.244 0 11.55-0.717 11.951-3.408 0.006-0.045 0.003-3.575 0.003-3.618zM16.012 1.323c0.005 0 0.009 0 0.014 0 0.003 0 0.005 0 0.007 0-0.006 0-0.014 0-0.021 0zM27.108 10.362c-0.023-0.002-0.052-0.002-0.075-0.002-0.457 0-5.107 1.635-10.985 1.635s-10.527-1.635-10.985-1.635c-0.024 0-0.101 0.001-0.123 0.002-0.5 0.035-0.941 0.441-0.941 0.931v3.269c0 0.045 0.057 0.090 0.064 0.135 0.401 2.69 7.718 3.414 11.961 3.414s11.547-0.724 11.948-3.414c0.006-0.045 0.028-0.090 0.028-0.135v-3.27c-0-0.49-0.392-0.896-0.892-0.931zM27.108 17.368c-0.023-0.002-0.052-0.003-0.075-0.003-0.457 0-5.107 1.635-10.985 1.635s-10.527-1.635-10.985-1.635c-0.024 0-0.101 0-0.123 0.003-0.5 0.035-0.941 0.442-0.941 0.932v3.27c0 0.045 0.057 0.090 0.064 0.135 0.401 2.69 7.718 3.407 11.961 3.407s11.547-0.718 11.948-3.407c0.006-0.045 0.028-0.090 0.028-0.135v-3.27c-0-0.49-0.392-0.896-0.892-0.932zM27.108 24.375c-0.023-0.002-0.052-0.003-0.075-0.003-0.457 0-5.107 1.635-10.985 1.635s-10.527-1.635-10.985-1.635c-0.024 0-0.101 0-0.123 0.003-0.5 0.035-0.941 0.442-0.941 0.931v3.27c0 0.045 0.057 0.090 0.064 0.135 0.401 2.69 7.718 2.901 11.961 2.901s11.547-0.212 11.948-2.901c0.006-0.045 0.028-0.090 0.028-0.135v-3.27c-0-0.489-0.392-0.896-0.892-0.931z"></path>
</svg>
