<!-- Generated by IcoMoon.io -->
<svg version="1.1" xmlns="http://www.w3.org/2000/svg" width="32" height="32" viewBox="0 0 32 32">
<title>deaf</title>
<path d="M12.198 16.417l-11.526 11.526c-0.381 0.381-0.381 0.998 0 1.38l2.068 2.068c0.381 0.381 0.998 0.381 1.379 0l11.526-11.525-3.447-3.447zM31.137 2.992l-2.069-2.068c-0.381-0.381-0.998-0.381-1.378 0l-4.052 4.052c1.282 1.048 2.292 2.413 2.922 3.973l4.578-4.578c0.38-0.381 0.38-0.998-0-1.379zM15.379 3.962c-7.846 0-9.92 5.617-9.92 8.588 0 0.822 0.666 1.489 1.488 1.489s1.489-0.666 1.489-1.489c0-0.229 0.079-5.612 6.94-5.612 0.711 0.005 6.948 0.212 6.948 6.057 0 3.786-1.030 5.002-2.026 6.177-0.52 0.614-1.059 1.25-1.418 2.146-0.721 1.802-0.529 2.836-0.247 3.821 0.084 0.296 0.14 0.49 0.14 0.726 0 1.998-0.375 2.95-2.506 2.95-0.822 0-1.488 0.666-1.488 1.488s0.666 1.488 1.488 1.488c2.501 0 5.482-1.028 5.482-5.926 0-0.652-0.14-1.146-0.254-1.543-0.165-0.575-0.255-0.892 0.148-1.899 0.178-0.447 0.509-0.835 0.925-1.326 1.153-1.361 2.732-3.224 2.732-8.101-0-7.145-6.489-9.033-9.92-9.033zM19.41 15.809c0.055 0.006 0.11 0.009 0.165 0.009 0.749 0 1.393-0.564 1.477-1.325 0.439-3.998-2.66-5.808-4.85-6.049-2.341-0.258-4.277 0.517-5.456 2.18-0.858 1.212-1.019 2.482-1.034 2.622-0.089 0.811 0.492 1.533 1.302 1.631 0.815 0.096 1.548-0.483 1.655-1.29 0.077-0.586 0.547-2.476 3.195-2.185 0.586 0.075 2.479 0.496 2.229 2.767-0.090 0.817 0.5 1.552 1.316 1.642z"></path>
</svg>
