<!-- Generated by IcoMoon.io -->
<svg version="1.1" xmlns="http://www.w3.org/2000/svg" width="32" height="32" viewBox="0 0 32 32">
<title>dealer</title>
<path d="M29.9 15.35l-1.9-4.1c0 0-0.5-1.4-2.7-1.35h-4.8c-2.2-0.050-2.7 1.35-2.7 1.35l-1 2.5 0.050-0.050c0.45 0.15 0.9 0.35 1.3 0.6l0.8-1.7c0.45-1.15 2-0.9 2-0.9h3.9c0 0 1.55-0.25 2 0.9l1.3 2.75h-8.7c0.5 0.6 0.8 1.35 0.8 2.1l0.4 5.5h6.35v1.3c0 0.85 0.7 1.5 1.5 1.5h0.15c0.85 0 1.5-0.7 1.5-1.5v-1.3h1.55v-5.55c0 0 0-1.55-1.8-2.050zM28.5 20.050c-0.8 0-1.45-0.65-1.45-1.45s0.65-1.45 1.45-1.45c0.8 0 1.45 0.65 1.45 1.45s-0.65 1.45-1.45 1.45zM14.2 9.35c0 2.761-1.948 5-4.35 5s-4.35-2.239-4.35-5c0-2.761 1.948-5 4.35-5s4.35 2.239 4.35 5zM14.5 14.75l-3.15 5.5-0.6-3.75c0.3-0.15 0.5-0.45 0.5-0.85 0-0.25-0.1-0.5-0.25-0.65-0.3 0.050-0.65 0.1-1.050 0.1-0.35 0-0.7-0.050-1.050-0.1-0.15 0.15-0.25 0.4-0.25 0.65 0 0.35 0.2 0.65 0.5 0.85l-0.6 3.75-3.050-5.4c-3.1-0.1-4.75 2.75-4.75 4.7l-0.5 8.1h3.4v-4.050c0-0.2 0.15-0.4 0.4-0.4h0.2c0.2 0 0.4 0.15 0.4 0.4v4.050h10.35v-3.95c0-0.2 0.15-0.4 0.35-0.4h0.25c0.2 0 0.4 0.15 0.4 0.4v3.95h3.5l-0.55-8.1c-0.050-1.95-1.35-4.85-4.45-4.8z"></path>
</svg>
