<!-- Generated by IcoMoon.io -->
<svg version="1.1" xmlns="http://www.w3.org/2000/svg" width="32" height="32" viewBox="0 0 32 32">
<title>Denmark-Krone</title>
<path d="M16.926 10.5h-6.126l-5.8 6.734v-14.734h-5v27h5v-5.979l2.307-2.557 4.714 8.536h5.365l-6.887-12.084zM28.684 10.043c-0.803 0-1.47 0.205-2.101 0.614s-1.583 1.258-2.083 2.547v-2.705h-4.5v19h5v-5.762c0-3.264 0.015-5.407 0.293-6.431s0.596-1.731 1.080-2.123c0.484-0.392 1.043-0.587 1.739-0.587 0.72 0 1.483 0.277 2.322 0.831l1.532-4.427c-1.050-0.638-2.15-0.957-3.283-0.957z"></path>
</svg>
