<!-- Generated by IcoMoon.io -->
<svg version="1.1" xmlns="http://www.w3.org/2000/svg" width="32" height="32" viewBox="0 0 32 32">
<title>diesel</title>
<path d="M24.35 27.4h-19.6c-0.6 0-1.1 0.65-1.1 1.45v1.7c0 0.050 0 0.1 0 0.15h21.8c0-0.050 0-0.1 0-0.15v-1.7c0-0.8-0.5-1.45-1.1-1.45zM24.5 4.9h-0.15v-0.55c0-1.7-1.4-3.1-3.1-3.1h-13.45c-1.7 0-3.1 1.4-3.1 3.1v21.95c0 0.050 0 0.050 0 0.1h19.6c0-0.050 0-0.050 0-0.1v-1.35h0.2c2.15 0 3.9-1.75 3.9-3.9v-12.25c-0.050-2.15-1.8-3.9-3.9-3.9zM17.95 21.9c0 0.35-0.050 0.7-0.2 1-0.1 0.3-0.3 0.6-0.55 0.8-0.25 0.25-0.55 0.4-0.95 0.55s-0.8 0.2-1.3 0.2h-3.25v-8.85h3.3c0.5 0 0.95 0.050 1.3 0.2 0.4 0.15 0.7 0.3 0.95 0.55s0.45 0.5 0.55 0.8c0.1 0.3 0.2 0.65 0.2 1v3.75zM21.8 12.25c0 0.5-0.4 0.95-0.95 0.95h-12.65c-0.5 0-0.95-0.4-0.95-0.95v-7.55c0-0.5 0.4-0.95 0.95-0.95h12.65c0.5 0 0.95 0.4 0.95 0.95v7.55zM26.35 21.050c0 1.050-0.85 1.85-1.85 1.85h-0.15v-15.95h0.15c1.050 0 1.85 0.85 1.85 1.85v12.25zM16.15 17.050c-0.3-0.25-0.7-0.35-1.2-0.35h-1.9v6.6h1.95c0.5 0 0.9-0.15 1.2-0.4s0.45-0.6 0.45-1.050v-3.75c-0.050-0.45-0.2-0.8-0.5-1.050zM16.55 9.2c0-1.7-2.2-3.85-2.2-3.85v0c0 0-2.3 2.25-2.2 3.95 0 1.25 1 2.2 2.2 2.2s2.2-1 2.2-2.2v0c0 0 0 0 0 0s0 0 0 0c0-0.050 0-0.1 0-0.1z"></path>
</svg>
