<!-- Generated by IcoMoon.io -->
<svg version="1.1" xmlns="http://www.w3.org/2000/svg" width="32" height="32" viewBox="0 0 32 32">
<title>digger</title>
<path d="M29.918 2.5h-5.418v-0.211c0-0.336-0.21-0.789-0.443-0.789h-2.196c-0.172-1-1.119-1.5-2.264-1.5h-6.885c-1.146 0-2.093 0.5-2.264 1.5h-2.197c-0.232 0-0.251 0.454-0.251 0.789v0.211h-5.457c-0.611 0-1.043 0.698-1.043 1.309v0.231c0 0.611 0.432 0.96 1.043 0.96h5.457v0.689c0 0.336 0.019 0.311 0.251 0.311h2.248v5.244c0 1.145 1 2.075 2 2.123v0.434c0 0.688 0.526 1.199 1.030 1.199h0.47v5.622c0 0.597 0.079 1.378 0.413 1.378h0.587v2.803l-0.938 1.721 1.073 5.476h2.037l0.919-5.476-1.092-1.721v-2.803h0.896c0.334 0 0.604-0.781 0.604-1.378v-5.622h0.279c0.504 0 0.721-0.511 0.721-1.198v-0.434c1.5-0.047 2.5-0.978 2.5-2.123v-5.245h2.057c0.233 0 0.443 0.024 0.443-0.311v-0.689h5.418c0.611 0 1.082-0.349 1.082-0.96v-0.231c0-0.611-0.471-1.309-1.082-1.309zM19 6h-5.5v-3.5h5.5v3.5z"></path>
</svg>
