<!-- Generated by IcoMoon.io -->
<svg version="1.1" xmlns="http://www.w3.org/2000/svg" width="32" height="32" viewBox="0 0 32 32">
<title>directions-run</title>
<path d="M22.575 3.675c0 1.813-1.47 3.283-3.283 3.283s-3.283-1.47-3.283-3.283c0-1.813 1.47-3.283 3.283-3.283s3.283 1.47 3.283 3.283zM5.814 22.82l6.668 1.871c0.538 0.154 1.089 0.034 1.505-0.276 0.026-0.018 0.052-0.038 0.075-0.058 0.005-0.003 0.008-0.006 0.011-0.008 0.156-0.125 0.293-0.279 0.401-0.46l1.379-2.267 2.127 2.069 0.175 6.229c0.022 0.954 0.816 1.71 1.77 1.688s1.71-0.815 1.688-1.77l-0.196-6.924c-0.009-0.374-0.136-0.716-0.344-0.994-0.067-0.097-0.144-0.189-0.233-0.273l-2.636-2.563c0.059-0.107 0.109-0.222 0.143-0.345l1.565-5.544 1.367 2.631c0.103 0.198 0.252 0.352 0.425 0.468 0.018 0.013 0.037 0.025 0.055 0.037s0.037 0.026 0.057 0.036c0.079 0.046 0.163 0.084 0.254 0.112l3.694 1.242c0.677 0.214 1.399-0.162 1.613-0.839 0.215-0.677-0.16-1.399-0.838-1.614l-3.212-1.080-2.613-5.027c-0.026-0.049-0.058-0.091-0.089-0.135-0.198-0.377-0.544-0.675-0.986-0.8l-2.712-0.766c-0.061-0.018-0.123-0.029-0.183-0.040-0.197-0.042-0.405-0.038-0.608 0.019-0.114 0.027-0.227 0.066-0.332 0.116l-5.565 2.038c-0.433 0.159-0.729 0.526-0.816 0.946-0.037 0.092-0.065 0.19-0.079 0.293l-0.629 3.846c-0.101 0.702 0.386 1.354 1.089 1.457s1.355-0.385 1.457-1.088l0.537-3.284 2.502-0.916-1.765 6.252c-0.152 0.538-0.011 1.088 0.326 1.483 0.086 0.17 0.2 0.329 0.347 0.469l0.1 0.097-1.133 1.864-5.413-1.518c-0.917-0.262-1.875 0.27-2.135 1.188-0.262 0.918 0.269 1.875 1.188 2.137z"></path>
</svg>
