<!-- Generated by IcoMoon.io -->
<svg version="1.1" xmlns="http://www.w3.org/2000/svg" width="32" height="32" viewBox="0 0 32 32">
<title>directions-bike</title>
<path d="M25.887 16.471c-3.374 0-6.11 2.735-6.11 6.11s2.736 6.11 6.11 6.11c3.375 0 6.11-2.735 6.11-6.11s-2.736-6.11-6.11-6.11zM25.887 27.206c-2.555 0-4.625-2.071-4.625-4.625s2.071-4.625 4.625-4.625c2.555 0 4.625 2.071 4.625 4.625s-2.071 4.625-4.625 4.625zM6.495 16.471c-3.374 0-6.109 2.735-6.109 6.11s2.736 6.11 6.109 6.11c3.374 0 6.11-2.735 6.11-6.11s-2.736-6.11-6.11-6.11zM6.495 27.206c-2.554 0-4.625-2.071-4.625-4.625s2.071-4.625 4.625-4.625c2.554 0 4.625 2.071 4.625 4.625s-2.071 4.625-4.625 4.625zM23.375 6.003c0 1.52-1.232 2.752-2.752 2.752s-2.752-1.232-2.752-2.752c0-1.52 1.232-2.752 2.752-2.752s2.752 1.232 2.752 2.752zM19.744 13.809c0.157 0.158 0.358 0.246 0.564 0.265 0.035 0.004 2.8 0.007 2.8 0.007 0.184 0.61 0.75 1.053 1.42 1.053 0.82 0 1.484-0.665 1.484-1.484 0-0.784-0.608-1.256-1.379-1.31-0.040-0.005-0.081 0.16-0.122 0.16h-3.152l-4.216-4.402c-0.738-0.737-1.934-0.822-2.671-0.084l-4.169 4.127c-0.738 0.739-0.96 1.913-0.222 2.651l4.419 4.613v4.912c0 0.759 0.742 1.373 1.5 1.373s1.5-0.614 1.5-1.373v-5.866c0-0.386-0.064-0.733-0.32-0.983-0.032-0.041-2.776-2.84-2.776-2.84l3.079-3.056 2.261 2.237z"></path>
</svg>
