<!-- Generated by IcoMoon.io -->
<svg version="1.1" xmlns="http://www.w3.org/2000/svg" width="32" height="32" viewBox="0 0 32 32">
<title>directions-boat-</title>
<path d="M31.747 28.688c-0.386-0.462-1.073-0.525-1.535-0.14-0.011 0.009-0.794 0.632-2.049 1.002l1.269-4.925c0-0.037-0.007-0.072-0.018-0.107 0.078-0.247-0.053-0.532-0.4-0.742 0 0-0.514-0.421-2.014-1.041v-6.222c0-1.556-1.645-3.012-3.593-3.012h-0.767c-0.731-2.5-2.64-4.309-5.64-4.637v-3.862h5v-4.5h-5.065c-0.058 0-0.3-0.511-0.712-0.511-0.451 0-0.723 0.554-0.723 1.005v7.869c-3 0.329-5.149 2.137-5.88 4.637h-0.766c-1.948 0-3.354 1.456-3.354 3.012v6.227c-1.5 0.616-2.133 1.035-2.133 1.035-0.346 0.211-0.571 0.496-0.49 0.743-0.011 0.035-0.033 0.070-0.033 0.107l1.234 4.82c-1.215-0.394-2.107-0.959-2.13-0.974-0.504-0.328-1.181-0.185-1.51 0.319s-0.186 1.18 0.318 1.509c0.107 0.070 2.64 1.701 5.471 1.701 2.090 0 4.102-0.891 5.044-1.378 0.973 0.477 3.066 1.378 5.012 1.378 1.936 0 4.017-0.89 4.996-1.369 0.921 0.498 2.846 1.369 5.061 1.369 3.101 0 5.181-1.704 5.268-1.776 0.463-0.385 0.525-1.073 0.14-1.535zM25 21.68c-3-1.537-6.928-3.422-7.724-3.814-0.706-0.348-1.415-0.363-2.12 0-0.787 0.407-4.657 2.291-7.657 3.823v-5.178c0-0.238 0.502-0.512 1.354-0.512h14.552c0.854 0 1.594 0.274 1.594 0.512v5.168z"></path>
</svg>
