<!-- Generated by IcoMoon.io -->
<svg version="1.1" xmlns="http://www.w3.org/2000/svg" width="32" height="32" viewBox="0 0 32 32">
<title>directions-walk</title>
<path d="M18.282 3.629c0 1.804-1.462 3.266-3.266 3.266s-3.266-1.462-3.266-3.266c0-1.804 1.462-3.266 3.266-3.266s3.266 1.462 3.266 3.266zM8.055 17.567c0.706-0.030 1.252-0.628 1.222-1.334l-0.085-3.31 2.276-1.36-0.566 6.438c-0.077 0.881 0.575 1.658 1.457 1.736l0.127 0.011-3.164 9.588c-0.319 0.895 0.147 1.879 1.042 2.199s1.879-0.146 2.198-1.041l3.095-9.38 1.795 0.9-0.451 6.070c-0.075 0.947 0.633 1.775 1.578 1.85 0.948 0.076 1.776-0.632 1.851-1.579l0.512-6.872c0.006-0.064 0.006-0.128 0.005-0.191 0.131-0.736-0.232-1.5-0.936-1.845l-3.067-1.538 0.447-5.094 1.825 2.319c0.137 0.174 0.311 0.297 0.502 0.378 0.021 0.010 0.042 0.019 0.064 0.027 0.020 0.008 0.040 0.017 0.061 0.024 0.085 0.030 0.175 0.051 0.268 0.063l3.84 0.528c0.701 0.084 1.338-0.417 1.422-1.119s-0.416-1.338-1.118-1.422l-3.34-0.46-3.487-4.429c-0.033-0.043-0.073-0.078-0.11-0.114-0.264-0.332-0.657-0.56-1.113-0.6l-2.793-0.245c-0.093-0.008-0.185-0.006-0.275 0.001-0.149 0.007-0.297 0.040-0.44 0.101-0.13 0.051-0.254 0.117-0.366 0.199l-5.062 3.025c-0.391 0.233-0.609 0.643-0.62 1.066-0.020 0.1-0.030 0.204-0.026 0.31l0.099 3.875c0.032 0.707 0.63 1.255 1.336 1.224z"></path>
</svg>
