<!-- Generated by IcoMoon.io -->
<svg version="1.1" xmlns="http://www.w3.org/2000/svg" width="32" height="32" viewBox="0 0 32 32">
<title>directions-railway</title>
<path d="M23.8 26.078c2.296-1.098 3.2-2.632 3.2-3.975v-14.854c0-1.889-2.5-4.184-7-5.059v-0.176c0-0.886-1.273-2.015-4.001-2.015-2.899 0-3.999 1.129-3.999 2.015v0.143c-5 0.849-7.5 3.179-7.5 5.092v14.854c0 1.318 1.45 2.819 3.705 3.913l-5.822 5.984h5.594l1.466-1.5h13.498l1.466 1.5h5.593l-6.2-5.922zM10.987 29l1.469-1.671c1.119 0.188 2.364 0.245 3.736 0.245 1.396 0 2.643-0.026 3.756-0.198l1.448 1.623h-10.409zM13.239 20.762c0-1.631 1.322-2.953 2.953-2.953s2.953 1.323 2.953 2.953c0 1.631-1.323 2.954-2.953 2.954-1.631 0-2.953-1.323-2.953-2.953zM24 14.338c0 0.366-0.297 0.662-0.662 0.662h-15.177c-0.365 0-0.662-0.296-0.662-0.662v-5.176c0-0.366 0.296-0.662 0.662-0.662h15.177c0.365 0 0.662 0.296 0.662 0.662v5.176z"></path>
</svg>
