<!-- Generated by IcoMoon.io -->
<svg version="1.1" xmlns="http://www.w3.org/2000/svg" width="32" height="32" viewBox="0 0 32 32">
<title>directions-transit</title>
<path d="M21.203 21.188v-12.647c0-1.608-1.676-3.563-5.586-4.308v-0.149c0-0.755-1.309-1.716-3.632-1.716-2.47 0-3.63 0.961-3.63 1.716v0.122c-3.909 0.722-5.585 2.707-5.585 4.335v12.647c0 1.122 0.854 2.343 2.774 3.274l-5.338 5.038h4.762l1.248-1.117h11.492l1.249 1.117h4.762l-5.261-4.985c1.956-0.934 2.744-2.184 2.744-3.328zM12.823 9.39h5.474c0.311 0 0.67 0.283 0.67 0.594v4.365c0 0.312-0.358 0.627-0.67 0.627h-5.474v-5.586zM5.003 9.985c0-0.312 0.309-0.594 0.621-0.594h5.524v5.586h-5.524c-0.311 0-0.621-0.316-0.621-0.627v-4.365zM5.142 20.046c0-1.017 0.823-1.84 1.84-1.84 1.016 0 1.841 0.824 1.841 1.84s-0.825 1.841-1.841 1.841c-1.017 0-1.84-0.825-1.84-1.841zM7.531 26.707l1.25-1.246c0.953 0.16 2.013 0.297 3.181 0.297 1.188 0 2.251-0.154 3.198-0.302l1.233 1.25h-8.863zM16.941 21.887c-1.017 0-1.841-0.824-1.841-1.841s0.823-1.84 1.841-1.84 1.841 0.824 1.841 1.84c-0 1.017-0.825 1.841-1.841 1.841zM31.989 25h-0.006c-0.027 0-0.088-0.174-0.185-0.239l-2.305-1.918c-0.3-0.227-0.494-0.040-0.494 0.259v0.898h-5.5c-0.215 0-0.5 0.285-0.5 0.5v1.436c0 0.214 0.285 0.564 0.5 0.564h5.5v0.538c0 0.298 0.193 0.491 0.494 0.264l2.348-1.993c0.097-0.065 0.114-0.308 0.142-0.308h0.006c0.007 0 0.009 0.032 0.011 0.008 0.001-0.006 0 0.028 0 0.021s0.001 0.019 0 0.012c-0.001-0.024-0.003-0.041-0.011-0.041zM26.5 21.569v-0.569h4.902c0.214 0 0.598-0.319 0.598-0.534v-1.404c0-0.215-0.384-0.563-0.598-0.563h-4.902v-0.867c0-0.299-0.345-0.491-0.645-0.264l-2.425 1.909c-0.098 0.064-0.19 0.223-0.218 0.223h-0.006c-0.007 0-0.009 0.053-0.010 0.078-0.001 0.006 0 0.015 0 0.021s-0.001-0.083 0-0.076c0.002 0.024 0.003-0.022 0.010-0.022h0.006c0.028 0.5 0.088 0.259 0.186 0.323l2.457 1.962c0.3 0.227 0.645 0.082 0.645-0.216z"></path>
</svg>
