<!-- Generated by IcoMoon.io -->
<svg version="1.1" xmlns="http://www.w3.org/2000/svg" width="32" height="32" viewBox="0 0 32 32">
<title>directions-subway</title>
<path d="M23.5 26.097c2.3-1.1 3-2.608 3-3.953v-14.88c0-1.893-2.5-4.192-7-5.069v-0.176c0-0.888-1.267-2.018-4-2.018-2.905 0-3.999 1.131-3.999 2.018v0.143c-4.5 0.85-7 3.185-7 5.101v14.88c0 1.32 1.389 2.795 3.648 3.89l-5.898 5.966h5.604l1.469-1.5h13.523l1.469 1.5h5.604l-6.417-5.903zM16.5 8h7.039c0.366 0-0.039 0.595-0.039 0.962v5.136c0 0.366 0.405 0.402 0.039 0.402h-7.039v-6.5zM7.5 14.098v-5.136c0-0.366 0.761-0.962 1.127-0.962h6.373v6.5h-6.373c-0.367 0-1.127-0.036-1.127-0.402zM8.059 20.8c0-1.196 0.969-2.166 2.165-2.166 1.195 0 2.166 0.97 2.166 2.166s-0.97 2.166-2.166 2.166c-1.196 0-2.165-0.971-2.165-2.166zM10.869 28.5l1.473-1.398c1.12 0.188 2.368 0.384 3.742 0.384 1.398 0 2.648-0.233 3.762-0.406l1.452 1.419h-10.429zM21.942 22.966c-1.197 0-2.166-0.97-2.166-2.166s0.969-2.166 2.166-2.166c1.196 0 2.166 0.97 2.166 2.166s-0.97 2.166-2.166 2.166z"></path>
</svg>
