<!-- Generated by IcoMoon.io -->
<svg version="1.1" xmlns="http://www.w3.org/2000/svg" width="32" height="32" viewBox="0 0 32 32">
<title>directions</title>
<path d="M31.622 15.088l-14.71-14.71c-0.503-0.504-1.32-0.504-1.824 0l-14.71 14.71c-0.504 0.504-0.503 1.321 0 1.825l14.71 14.709c0.504 0.504 1.321 0.504 1.825 0l14.71-14.71c0.504-0.504 0.504-1.321 0-1.825zM24.5 14.759c0 0.136 0.114 0.27 0.019 0.351-0.55 0.466-5.594 4.047-5.594 4.047-0.343 0.259-0.925 0.271-0.925-0.398v-2.258h-6.5v5.5h-3v-6.405c0-1.338 1.43-2.095 2.77-2.095h6.73v-2.751c0-0.669 0.662-0.657 1.005-0.398 0 0 4.936 3.579 5.486 4.046 0.095 0.080 0.009 0.214 0.009 0.35 0 0.002 0 0.004 0 0.005s0 0.004 0 0.005z"></path>
</svg>
