<!-- Generated by IcoMoon.io -->
<svg version="1.1" xmlns="http://www.w3.org/2000/svg" width="32" height="32" viewBox="0 0 32 32">
<title>Diving</title>
<path d="M31.55 28.979c-0.064-0.070-5.753-6.001-13.113-2.71 0.146-0.396 0.23-0.823 0.23-1.269 0-2.026-1.641-3.666-3.666-3.666s-3.666 1.641-3.666 3.666c0 1.898 1.442 3.459 3.291 3.648-1.151 0.642-4.32 2.161-7.556 1.488-0.061-0.012-0.12-0.034-0.181-0.049 0.224-0.29 0.362-0.649 0.362-1.047 0.001-0.029 0.18-2.931 4.346-7.158l6.292-3.872c0.363-0.213 8.938-5.316 13.613-13.108 0.497-0.829 0.229-1.904-0.601-2.401-0.829-0.498-1.904-0.228-2.401 0.6-1.608 2.68-3.784 5.040-5.865 6.939 0.941-1.973 1.981-4.417 3.091-7.434 0.334-0.907-0.131-1.913-1.038-2.247-0.907-0.336-1.913 0.131-2.247 1.038-4.022 10.928-6.94 13.652-7.054 13.754-0.194 0.159-0.341 0.353-0.447 0.563l-5.356 3.297c-0.116 0.072-0.223 0.157-0.32 0.253-4.507 4.507-5.332 8.015-5.481 9.273-0.789-0.644-1.51-1.453-2.153-2.444-0.226-0.348-0.69-0.448-1.037-0.221-0.347 0.225-0.447 0.689-0.222 1.037 1.675 2.585 3.83 4.166 6.404 4.698 0.676 0.14 1.344 0.2 1.994 0.2 3.823 0 6.993-2.078 7.148-2.181 0.021-0.014 0.041-0.029 0.061-0.045 7.839-6.456 14.209 0.139 14.478 0.425 0.282 0.301 0.756 0.317 1.059 0.035 0.302-0.282 0.319-0.757 0.035-1.059z"></path>
</svg>
