<!-- Generated by IcoMoon.io -->
<svg version="1.1" xmlns="http://www.w3.org/2000/svg" width="32" height="32" viewBox="0 0 32 32">
<title>diving-googles</title>
<path d="M13.363 13.236c1.852 0 2.599 1.264 3.381 3.764h3.337c3.671 0 6.646-2.83 6.646-6.5s-2.975-6.5-6.646-6.5h-13.437c-3.671 0-6.645 2.829-6.645 6.5s2.974 6.5 6.645 6.5h3.104c1.072-2.5 1.762-3.764 3.614-3.764zM31.518 22c0.015 0-0.018-0.097-0.018-0.192v-19.743c0-0.891-0.608-1.613-1.498-1.613-0.892 0-1.502 0.722-1.502 1.613v19.743c0 0.096-0.015 0.192 0 0.192 0 4-3.23 6.764-7.005 6.764-3.209 0-5.893-2.264-6.63-5.264h1.099c0.892 0 1.614-0.609 1.614-1.5 0-0.89-0.721-1.5-1.614-1.5h-5.35c-0.891 0-1.614 0.61-1.614 1.5 0 0.892 0.723 1.5 1.614 1.5h0.973c0.786 5 4.915 8.482 9.907 8.482 5.553 0 10.053-4.482 10.053-9.982h-0.029zM13.363 14.393c-1.381 0-2.502 2.508-2.502 3.891s1.12 1.113 2.502 1.113c1.383 0 2.502 0.269 2.502-1.113s-1.12-3.89-2.502-3.89z"></path>
</svg>
