<!-- Generated by IcoMoon.io -->
<svg version="1.1" xmlns="http://www.w3.org/2000/svg" width="32" height="32" viewBox="0 0 32 32">
<title>djembe</title>
<path d="M10.374 30.134l-0.001 0.011c0 1.025 0.832 1.855 1.854 1.855h7.547c1.021 0 1.855-0.831 1.855-1.855l-0.001-0.011h-11.254zM24.395 0h-16.791c-1.461 0.001-2.655 1.745-2.745 3.232h22.282c-0.091-1.486-1.284-3.231-2.745-3.232zM9.548 18.5l1.764 0.538-0.86 10.165h11.097l-0.86-10.165 1.762-0.538c1.243-0.451 2.586-1.146 2.739-2.495l-18.385 0c0.133 1.349 1.297 2.055 2.742 2.494zM15.677 15.076v-10.543h-3.425l0.903 10.543zM7.519 4.533h-2.492l1.662 10.543h2.651zM8.176 4.533l1.82 10.543h2.51l-0.903-10.543zM16.323 15.076h2.523l0.904-10.543h-3.426zM23.825 4.532l-3.427 0-0.904 10.543h2.51zM22.662 15.076h2.649l1.662-10.544h-2.491z"></path>
</svg>
