<!-- Generated by IcoMoon.io -->
<svg version="1.1" xmlns="http://www.w3.org/2000/svg" width="32" height="32" viewBox="0 0 32 32">
<title>doctor</title>
<path d="M14.377 3.918c0 0.224-0.024 0.442-0.064 0.655h7.58c-0.956-3.893-5.672-5.877-9.149-3.627 0.982 0.635 1.633 1.73 1.633 2.973zM10.771 6.442c1.419 0 2.575-1.133 2.575-2.525s-1.155-2.523-2.575-2.523c-1.42 0-2.575 1.133-2.575 2.523 0 1.392 1.155 2.525 2.575 2.525zM23.622 21.602c-0.599 0-1.099 0.404-1.256 0.952 0.305-0.355 0.752-0.585 1.256-0.585s0.951 0.23 1.256 0.585c-0.158-0.548-0.657-0.952-1.256-0.952zM11.725 17.184c0.058 0.041 0.112 0.095 0.164 0.184 0.924 1.604 2.441 2.643 4.061 2.643s3.136-1.040 4.061-2.643c0.031-0.053 0.070-0.090 0.11-0.124l-0.463-2.581h-7.48l-0.452 2.52zM24.227 14.664h-3.521l0.541 3.017 0.067 0.070c0.191 0.246 0.227 0.592 0.061 0.877-1.114 1.934-2.927 3.148-4.919 3.325v2.691c0 2.856 1.176 4.244 3.594 4.244 2.43 0 2.969-2.382 3.089-3.48-1.081-0.224-1.895-1.18-1.895-2.328 0-1.313 1.066-2.378 2.378-2.378s2.378 1.065 2.378 2.378c0 1.128-0.788 2.067-1.841 2.312-0.157 1.802-1.141 4.51-4.111 4.51-2.102 0-4.607-0.913-4.607-5.258v-2.691c-1.992-0.177-3.805-1.39-4.919-3.325-0.159-0.276-0.127-0.606 0.047-0.849l0.559-3.114h-3.355c-2.553 0-4.622 2.070-4.622 4.622v11.938c0 0.428 0.347 0.775 0.776 0.775h24.148c0.427 0 0.775-0.346 0.775-0.775v-11.939c-0-2.553-2.070-4.622-4.623-4.622zM10.771 7.474c-0.386 0-0.759-0.062-1.109-0.173 0.398 8.181 10.105 8.893 12.241 2.433 0.044-0.138 0.085-0.274 0.122-0.403 0.215-0.78 0.32-1.597 0.331-2.399 0.002-0.132 0.020-0.328-0.181-0.328h-9.047c-0.633 0.542-1.456 0.871-2.357 0.871zM18.353 7.901c0.302 0 0.556 0.251 0.556 0.554s-0.256 0.554-0.556 0.554c-0.311 0-0.558-0.251-0.558-0.555s0.247-0.554 0.558-0.554zM13.656 7.896c0.302 0 0.557 0.25 0.557 0.554 0 0.313-0.256 0.563-0.557 0.563-0.31 0-0.566-0.251-0.566-0.563 0-0.304 0.256-0.554 0.566-0.554z"></path>
</svg>
