<!-- Generated by IcoMoon.io -->
<svg version="1.1" xmlns="http://www.w3.org/2000/svg" width="32" height="32" viewBox="0 0 32 32">
<title>dollar</title>
<path d="M24.904 16.888c-0.645-1.042-1.538-1.863-2.678-2.464-1.142-0.601-2.902-1.182-5.284-1.745s-3.88-1.102-4.498-1.62c-0.485-0.408-0.727-0.899-0.727-1.472 0-0.628 0.259-1.13 0.777-1.505 0.805-0.583 1.918-0.876 3.341-0.876 1.378 0 2.411 0.272 3.1 0.818s1.138 1.442 1.348 2.688l4.895-0.216c-0.077-2.226-1.082-4.008-2.62-5.341-1.081-0.936-2.558-1.537-4.558-1.816v-3.34h-4.5v3.322c-1 0.138-1.706 0.356-2.455 0.676-1.317 0.562-2.292 1.38-2.992 2.455s-1.033 2.23-1.033 3.465c0 1.918 0.752 3.544 2.241 4.878 1.059 0.948 2.904 1.747 5.527 2.398 2.039 0.507 3.348 0.86 3.92 1.058 0.838 0.298 1.427 0.648 1.762 1.050 0.337 0.402 0.505 0.89 0.505 1.463 0 0.893-0.399 1.674-1.198 2.34-0.8 0.666-1.988 1-3.564 1-1.489 0-2.671-0.375-3.547-1.125s-1.459-1.924-1.745-3.522l-4.761 0.463c0.319 2.712 1.232 4.777 2.875 6.192 1.155 0.998 2.463 1.636 4.463 1.931v3.954h4.5v-3.886c1.5-0.139 2.363-0.392 3.242-0.759 1.411-0.59 2.601-1.491 3.372-2.704s1.207-2.513 1.207-3.902c0-1.532-0.273-2.82-0.918-3.861z"></path>
</svg>
