<!-- Generated by IcoMoon.io -->
<svg version="1.1" xmlns="http://www.w3.org/2000/svg" width="32" height="32" viewBox="0 0 32 32">
<title>domra</title>
<path d="M31.697 7.049c-0.322-0.322-0.802-0.383-1.189-0.196l-0.285-0.284 0.21-0.188c0.396-0.354 0.623-0.842 0.639-1.373 0.015-0.53-0.183-1.030-0.559-1.406l-2.114-2.114c-0.374-0.375-0.873-0.573-1.404-0.557s-1.020 0.241-1.372 0.638l-0.189 0.21-0.285-0.285c0.189-0.388 0.126-0.868-0.196-1.19-0.406-0.406-1.066-0.406-1.471 0s-0.406 1.066 0 1.472c0.322 0.322 0.801 0.384 1.189 0.197l0.313 0.313-1.512 1.692-0.403-0.402c0.189-0.388 0.126-0.868-0.195-1.189-0.406-0.406-1.066-0.406-1.471 0s-0.405 1.066 0 1.471c0.322 0.322 0.802 0.384 1.189 0.196l0.428 0.429-0.794 0.888c-0.398 0.447-0.379 1.128 0.046 1.552 0.087 0.087 0.133 0.2 0.132 0.327 0.001 0.119-0.046 0.231-0.132 0.319l-7.931 7.93c-3.585-2.544-8.555-2.148-11.685 0.983-2.986 2.986-3.489 7.645-1.325 11.18l-0.917 0.749c-0.073 0.061-0.118 0.149-0.124 0.244-0.004 0.096 0.031 0.189 0.1 0.256l2.7 2.701c0.067 0.067 0.159 0.103 0.255 0.098s0.184-0.049 0.245-0.124l0.75-0.919c3.532 2.167 8.192 1.665 11.18-1.322 3.133-3.133 3.526-8.102 0.982-11.68l7.933-7.933c0.177-0.178 0.468-0.178 0.645 0 0.206 0.207 0.479 0.323 0.769 0.331 0.293 0.007 0.572-0.095 0.782-0.287l0.888-0.793 0.43 0.429c-0.188 0.387-0.125 0.867 0.197 1.189 0.405 0.405 1.066 0.405 1.471 0 0.405-0.406 0.405-1.066 0-1.471-0.323-0.322-0.802-0.384-1.19-0.196l-0.401-0.402 1.692-1.511 0.311 0.311c-0.189 0.388-0.126 0.868 0.195 1.189 0.406 0.405 1.067 0.405 1.471 0 0.406-0.405 0.406-1.066 0.002-1.471zM3.301 30.869l-2.171-2.172 0.579-0.473c0.044 0.061 0.083 0.125 0.129 0.186 0.246 0.324 0.52 0.639 0.815 0.934 0.303 0.303 0.62 0.578 0.938 0.814 0.061 0.046 0.125 0.084 0.186 0.128l-0.475 0.582zM7.616 27.659c-0.214 0.214-0.56 0.214-0.774 0l-2.498-2.498c-0.215-0.215-0.215-0.561 0-0.774s0.56-0.214 0.774 0l2.498 2.498c0.213 0.213 0.213 0.561-0 0.774zM11.502 24.212c-0.939 0.939-2.415 1.018-3.445 0.235-0.093-0.070-0.184-0.149-0.271-0.235-0.086-0.087-0.165-0.177-0.236-0.27-0.782-1.030-0.704-2.506 0.236-3.446s2.415-1.018 3.447-0.235c0.094 0.070 0.183 0.149 0.269 0.235s0.165 0.176 0.236 0.271c0.784 1.029 0.704 2.504-0.236 3.444z"></path>
</svg>
