<!-- Generated by IcoMoon.io -->
<svg version="1.1" xmlns="http://www.w3.org/2000/svg" width="32" height="32" viewBox="0 0 32 32">
<title>donut-chart</title>
<path d="M30.274 8.774c-0.039 0.033-0.078 0.066-0.124 0.094l-6.756 4.082c0.389 0.94 0.605 1.97 0.605 3.050 0 1.784-0.591 3.427-1.578 4.757l5.691 5.691c2.42-2.803 3.887-6.454 3.887-10.448 0-2.601-0.625-5.054-1.726-7.226zM16 24c-4.418 0-8-3.581-8-8 0-4.079 3.055-7.438 7-7.931v-8.035c-8.37 0.517-15 7.465-15 15.966 0 8.836 7.163 16 16 16 4.122 0 7.88-1.559 10.716-4.12l-5.673-5.672c-1.377 1.119-3.131 1.793-5.043 1.793zM22.399 11.214l6.717-4.059c0.053-0.032 0.11-0.058 0.166-0.079-2.699-4.009-7.166-6.727-12.282-7.043v8.035c2.207 0.276 4.13 1.45 5.399 3.145z"></path>
</svg>
