<!-- Generated by IcoMoon.io -->
<svg version="1.1" xmlns="http://www.w3.org/2000/svg" width="32" height="32" viewBox="0 0 32 32">
<title>door-open</title>
<path d="M31.1 19.6l-6.2-5.35c-0.15 0.45-0.3 0.9-0.3 0.9v0c-0.050 0.15-0.4 1.15-0.4 2.85l4.75 4.1c0.3 0.25 0.75 0.25 1.050-0.1l1.2-1.4c0.25-0.25 0.2-0.7-0.1-1zM7.25 15.15c0 0-0.15-0.45-0.3-0.9l-6.25 5.35c-0.3 0.25-0.35 0.75-0.1 1.050l1.2 1.4c0.25 0.3 0.75 0.35 1.050 0.1l4.75-4.1c0.050-1.75-0.25-2.7-0.35-2.9v0zM16.5 1h-1c-4.050 0-7.6 3.65-7.6 7.7v2.55l0.15 2.55c0 0 1.6 3.9 0.1 9.7l-0.050 0.85c0 2.15 1.25 5.050 3.25 5.7 1.1 0.5 2.75 0.8 4.65 0.8s3.55-0.3 4.65-0.8c1.95-0.65 3.25-3.6 3.25-5.7l-0.050-0.85c-1.45-5.8 0.1-9.7 0.1-9.7l0.15-2.55v-2.55c0-4.050-3.55-7.7-7.6-7.7zM21.7 22.85c-1.75 0.65-3.5 1-5.6 1 0 0-0.050 0-0.050 0s-0.050 0-0.050 0c-2.1 0-3.9-0.3-5.6-1-0.25-0.1-0.2-0.5-0.050-0.65l1.8-2.45c0.6 0.15 3.2 0.35 3.85 0.35 0 0 0.050 0 0.050 0s0.050 0 0.050 0c0.7 0 3.25-0.25 3.85-0.35l1.8 2.45c0.15 0.2 0.2 0.55-0.050 0.65zM22.4 10.5l-2.25 3.3c-1.15-0.5-2.55-0.75-4-0.75-0.050 0-0.1 0-0.15 0s-0.1 0-0.15 0c-1.5 0-2.9 0.3-4 0.75l-2.2-3.3c-0.25-0.25 0.050-0.5 0.15-0.55 1.85-0.85 3.8-1.3 6.1-1.3 0.050 0 0.1 0 0.15 0s0.1 0 0.15 0c2.3 0 4.25 0.45 6.1 1.3 0.050 0.050 0.35 0.3 0.1 0.55z"></path>
</svg>
