<!-- Generated by IcoMoon.io -->
<svg version="1.1" xmlns="http://www.w3.org/2000/svg" width="32" height="32" viewBox="0 0 32 32">
<title>door</title>
<path d="M25.981 30.5c0.052-0.5 0.019-0.451 0.019-0.584v-29.024c0-0.492-0.335-0.891-0.827-0.891h-18.756c-0.492 0-0.917 0.399-0.917 0.891v3.806c0-0.093-0.418-0.151-0.627-0.151-0.433 0-0.873 0.244-0.873 0.546v4.359c0 0.3 0.441 0.545 0.873 0.545 0.209 0 0.627-0.057 0.627-0.15v11.651c0-0.093-0.418-0.151-0.627-0.151-0.433-0-0.873 0.244-0.873 0.544v4.36c0 0.301 0.441 0.544 0.873 0.544 0.209 0 0.627-0.058 0.627-0.15v3.268c0 0.134 0.056 0.084 0.109 0.584h-4.109v1.5h28.5v-1.5h-4.019zM21.466 17.617c-0.505 0-0.944-0.117-1.186-0.617h-3.279v-1.5h3.279c0.242-0.5 0.682-0.693 1.186-0.693 0.767 0 1.388 0.638 1.388 1.405s-0.621 1.405-1.388 1.405z"></path>
</svg>
