<!-- Generated by IcoMoon.io -->
<svg version="1.1" xmlns="http://www.w3.org/2000/svg" width="32" height="32" viewBox="0 0 32 32">
<title>Dosage-medical-tool</title>
<path d="M28.124 1.385c-1.913-1.913-5.106-1.834-7.116 0.177l-2.255 2.255-0.035-0.034c-0.79-0.79-2.108-0.756-2.94 0.075s-0.867 2.151-0.077 2.94l0.296 0.296-8.729 8.729c-1.325 1.325-1.766 3.266-1.155 4.936l-1.066 1.066c-0.721 0.721-0.721 1.895 0 2.616 0.031 0.031 0.067 0.052 0.099 0.081-0.644 1.175-1.193 1.436-1.66 2.011-0.538 0.667-0.995 1.392-0.995 2.3 0 1.75 1.42 3.168 3.168 3.168 1.75 0 3.168-1.418 3.168-3.168 0-0.648-0.196-1.248-0.527-1.75h0.002c-0.002-0.003-0.007-0.006-0.008-0.011-0.117-0.172-0.25-0.334-0.398-0.48-0.704-0.616-1.194-1.16-1.54-1.61 0.473 0 0.947-0.18 1.308-0.541l1.090-1.090c1.652 0.57 3.564 0.118 4.862-1.18l8.729-8.729 0.296 0.296c0.79 0.79 2.11 0.755 2.941-0.076 0.82-0.819 0.864-2.111 0.112-2.904l2.255-2.255c2.011-2.011 2.090-5.203 0.177-7.117zM6.631 30c0.83-0.713 0.505-1.418 0.465-1.497-0.087-0.162-0.027-0.36 0.135-0.447s0.362-0.028 0.448 0.134c0.229 0.421 0.393 1.448-0.615 2.313-0.133 0.115-0.333 0.105-0.454-0.020-0.003-0.006-0.009-0.011-0.014-0.015-0.119-0.139-0.103-0.348 0.036-0.468zM12.873 21.428c-1.085 1.084-2.707 1.418-4.036 0.829-0.198-0.088-0.43-0.044-0.583 0.108l-1.332 1.332c-0.313 0.312-0.821 0.312-1.133-0s-0.313-0.82 0-1.133l1.313-1.313c0.157-0.157 0.198-0.392 0.104-0.593-0.625-1.344-0.303-2.989 0.804-4.096l8.633-8.634 4.864 4.864-8.633 8.634zM8.719 17.392c-0.001 0.001-0.002 0.001-0.002 0.002-0.918 0.919-0.918 2.407 0.001 3.326s2.407 0.919 3.325 0l6.416-6.417-6.659 0.007-3.082 3.082z"></path>
</svg>
