<!-- Generated by IcoMoon.io -->
<svg version="1.1" xmlns="http://www.w3.org/2000/svg" width="32" height="32" viewBox="0 0 32 32">
<title>double-tap</title>
<path d="M13.146 7.648c1.97 0 3.572 1.602 3.572 3.572 0 0.439 0.357 0.796 0.796 0.796s0.797-0.357 0.797-0.796c0-2.848-2.317-5.164-5.165-5.164s-5.163 2.316-5.163 5.164c0 0.439 0.358 0.796 0.797 0.796s0.796-0.357 0.796-0.796c-0.001-1.97 1.601-3.572 3.569-3.572zM13.146 4.872c3.501 0 6.349 2.848 6.349 6.348 0 0.439 0.358 0.796 0.797 0.796s0.797-0.357 0.797-0.796c0-4.378-3.563-7.941-7.941-7.941s-7.941 3.563-7.941 7.941c0 0.439 0.357 0.796 0.796 0.796s0.797-0.357 0.797-0.796c-0-3.5 2.848-6.348 6.348-6.348zM23.417 19.679c-0.095-0.624-0.595-1.078-1.223-1.078-0.257 0-0.695 0.079-0.695 0.226v0.947c0 0.289-0.212 0.524-0.5 0.524s-0.5-0.235-0.5-0.524v-1.081c0-0.567-0.672-0.977-1.258-0.977-0.258 0-0.742 0.079-0.742 0.225v1.834c0 0.289-0.211 0.524-0.5 0.524-0.288 0-0.5-0.235-0.5-0.524v-2.067c0-0.567-0.671-0.977-1.257-0.977-0.261 0-0.743 0.077-0.743 0.224v2.819c0 0.289-0.212 0.524-0.501 0.524s-0.499-0.235-0.499-0.524v-8.117c0-0.567-0.647-0.976-1.232-0.976-0.699 0-1.268 0.569-1.268 1.267v8.052h-0.335c-1.486 0-1.665 0.622-1.665 2.055v4.688c0 0.291 0.052 0.572 0.236 0.811l0.005 0.046c0.099 0.157 1.424 1.843 2.294 2.864l-0.036 0.070v0.092c0 0.913 0.491 1.375 1.129 1.375h7.608c0.639 0 0.764-0.463 0.764-1.375v-0.067l0.134-0.058c0.334-0.573 1.254-2.197 1.254-2.813l0.029-8.008z"></path>
</svg>
