<!-- Generated by IcoMoon.io -->
<svg version="1.1" xmlns="http://www.w3.org/2000/svg" width="32" height="32" viewBox="0 0 32 32">
<title>doughnut</title>
<path d="M31.7 14.15c0-0.050 0-0.050 0-0.050-0.2-6.65-7.2-11.9-15.75-11.9-8.7 0-15.75 5.5-15.75 12.2 0 0 0 0.050 0 0.1s0 0.1 0 0.15c0 0.2 0.050 4.25 0.050 4.25 0 6 7.050 10.9 15.75 10.9s15.75-4.9 15.75-10.9c0 0 0-4.1 0-4.25 0-0.2-0.050-0.35-0.050-0.5zM25.75 10.25l1.25-0.65c0.4-0.2 0.9-0.1 1.050 0.25 0.2 0.35 0 0.8-0.45 1l-1.2 0.65c-0.4 0.2-0.9 0.1-1.050-0.25s0-0.75 0.4-1zM23.45 15.6l0.45-1.35c0.15-0.45 0.6-0.7 0.95-0.6 0.35 0.15 0.55 0.6 0.4 1.050l-0.45 1.35c-0.15 0.45-0.6 0.7-0.95 0.6-0.4-0.1-0.55-0.6-0.4-1.050zM19.3 5.35c0.15-0.35 0.5-0.55 0.9-0.4l1.65 0.6c0.35 0.15 0.55 0.5 0.4 0.9-0.15 0.35-0.5 0.55-0.9 0.4l-1.65-0.6c-0.35-0.15-0.55-0.55-0.4-0.9zM12 5.050l1.050-0.85c0.35-0.3 0.85-0.3 1.1 0s0.15 0.75-0.2 1.050l-1.050 0.85c-0.35 0.3-0.85 0.3-1.1 0-0.25-0.25-0.15-0.75 0.2-1.050zM15.95 9.15c2.4 0 4.35 1.35 4.35 3s-1.95 3-4.35 3-4.35-1.35-4.35-3c0-1.65 1.95-3 4.35-3zM18.95 18.5c-0.15 0.35-0.5 0.55-0.9 0.4l-1.65-0.6c-0.35-0.15-0.55-0.5-0.4-0.9 0.15-0.35 0.5-0.55 0.9-0.4l1.65 0.6c0.35 0.2 0.5 0.55 0.4 0.9zM9 14.6c0.4 0.050 0.65 0.5 0.55 0.95l-0.25 1.4c-0.1 0.45-0.45 0.8-0.85 0.7-0.4-0.050-0.65-0.5-0.55-0.95l0.25-1.4c0.1-0.45 0.45-0.75 0.85-0.7zM6.35 9.9l1.25-0.65c0.4-0.2 0.9-0.1 1.050 0.25 0.2 0.35 0 0.8-0.45 1l-1.2 0.65c-0.4 0.2-0.9 0.1-1.050-0.25-0.2-0.3 0-0.75 0.4-1zM29.35 18.9c0 2.15-1.3 4.2-3.6 5.8-2.6 1.85-6.050 2.8-9.8 2.8s-7.2-1-9.8-2.75c-2.35-1.6-3.6-3.7-3.6-5.8v0 0c0-0.4 0-1.050 0-1.7 0.2-0.15 0.4-0.35 0.65-0.6 0 0 1.1-1.35 1.7 1.9 0 0 0.55 3.75 3.8 3.75 0 0 1.3-0.25 2.1-1.3 0 0 0.9-1.1 2.4 0.3 0 0 2.35 2.25 4.050 2.5 0 0 2.6 0.6 4.15-2 0 0 1.35-2.45 2.25-2.65 0 0 1.6-0.6 1.6 1.75 0 0 0.050 1.45 1 1.45 0 0 1.15 0.15 1.65-2.95 0 0 0.25-2.35 0.95-2.35 0 0 0.2-0.1 0.6 0.25-0.1 0.8-0.1 1.6-0.1 1.6z"></path>
</svg>
