<!-- Generated by IcoMoon.io -->
<svg version="1.1" xmlns="http://www.w3.org/2000/svg" width="32" height="32" viewBox="0 0 32 32">
<title>download</title>
<path d="M31.989 11.181c0-0.198-0.080-0.379-0.212-0.461l-5.665-8.22c-0.136-0.227-0.348-0.5-0.573-0.5h-19.081c-0.224 0-0.438 0.273-0.572 0.453l-5.724 8.215c-0.017 0.022-0.025 0.089-0.039 0.113-0.011 0.020-0.028 0.057-0.038 0.079-0.004 0.008-0.004 0.027-0.007 0.034-0.015 0.034-0.023 0.075-0.032 0.111-0.007 0.030-0.017 0.060-0.020 0.090-0.005 0.035-0.002 0.072-0.001 0.107 0.001 0.030-0.001 0.062 0.004 0.092 0.005 0.034 0.018 0.066 0.028 0.1 0.010 0.030 0.017 0.062 0.032 0.092 0.002 0.005 0.003 0.011 0.006 0.017 0.014 0.028 0.035 0.050 0.052 0.075 0.015 0.023 0.024 0.046 0.042 0.066 0 0 15.431 18.361 15.446 18.381 0.364 0.477 0.364 0.477 0.658 0.477 0.364 0 0.66-0.477 0.66-0.477 0-0.059 14.809-18.323 14.809-18.323 0.139-0.13 0.226-0.315 0.226-0.519zM18 4.5l3 5.5h-9.5l3-5.5h3.5zM16.253 26l-5.253-13.5h10l-4.747 13.5zM7.5 4.5h4l-3.5 5.5h-4.5l4-5.5zM4 12.5h4l4 9.5-8-9.5zM20 22.5l2.82-7.461 1.221-2.539h3.96l-8 10zM23.992 10l-3.17-5.5h3.678l4 5.5h-4.508z"></path>
</svg>
