<!-- Generated by IcoMoon.io -->
<svg version="1.1" xmlns="http://www.w3.org/2000/svg" width="32" height="32" viewBox="0 0 32 32">
<title>drill</title>
<path d="M31.284 7h-5.26c-0.301-1-1.154-1.5-2.163-1.5h-0.861v-0.804c0-0.568-0.445-1.196-1.013-1.196h-3.487v-0.197c0-0.838-0.593-1.303-1.432-1.303h-15.491c-0.84 0-1.577 0.465-1.577 1.303v8.618c0 0.839 0.738 1.579 1.577 1.579h0.423v9h-0.099c-0.514 0-0.9 0.512-0.9 1.079v5.832c0 0.568 0.386 1.089 0.9 1.089h9.504c0.514 0 1.095-0.521 1.095-1.089v-5.832c0-0.567-0.581-1.079-1.095-1.079h-3.405v-5.748l1.931-0.046c0.226-0.047 0.418-0.308 0.353-0.618l-0.489-2.588h7.273c0.838 0 1.432-0.74 1.432-1.579v-0.421h3.487c0.567 0 1.013-0.404 1.013-0.972v-0.528h0.861c1.009 0 1.862-1 2.163-1.5h5.261c0.395 0 0.716-0.354 0.716-0.75s-0.32-0.75-0.716-0.75zM4.5 10.191c0 0.383-0.367 0.693-0.75 0.693s-0.75-0.31-0.75-0.693v-4.99c0-0.383 0.367-0.694 0.75-0.694s0.75 0.311 0.75 0.694v4.99zM7.5 10.191c0 0.383-0.367 0.693-0.75 0.693s-0.75-0.31-0.75-0.693v-4.99c0-0.383 0.367-0.694 0.75-0.694s0.75 0.311 0.75 0.694v4.99z"></path>
</svg>
