<!-- Generated by IcoMoon.io -->
<svg version="1.1" xmlns="http://www.w3.org/2000/svg" width="32" height="32" viewBox="0 0 32 32">
<title>drivers-license</title>
<path d="M30 5h-28c-1.105 0-2 0.896-2 2v17.5c0 1.105 0.895 2 2 2h28c1.105 0 2-0.895 2-2v-17.5c0-1.104-0.895-2-2-2zM7.876 24.421c-5.144 0-5.269 0.337-5.269-1.439 0-2.841 2.303-5.143 5.144-5.143s5.144 2.303 5.144 5.143c0 1.775 0.152 1.439-5.018 1.439zM5.128 14.313c0-1.448 1.173-2.622 2.622-2.622s2.622 1.174 2.622 2.622-1.174 2.622-2.622 2.622c-1.448 0-2.622-1.174-2.622-2.622zM29.5 22.034c0 0.534-0.433 0.966-0.966 0.966h-12.068c-0.534 0-0.966-0.433-0.966-0.966v-0.069c0-0.533 0.432-0.965 0.966-0.965h12.069c0.533 0 0.965 0.433 0.965 0.966v0.068zM16.5 15c-0.552 0-1-0.448-1-1s0.448-1 1-1h7c0.552 0 1 0.448 1 1s-0.448 1-1 1h-7zM23.5 18c0 0.552-0.448 1-1 1h-1c-0.552 0-1-0.448-1-1s0.448-1 1-1h1c0.552 0 1 0.448 1 1zM16.5 17h1c0.552 0 1 0.448 1 1s-0.448 1-1 1h-1c-0.552 0-1-0.448-1-1s0.448-1 1-1zM25.5 18c0-0.552 0.448-1 1-1h1c0.552 0 1 0.448 1 1s-0.448 1-1 1h-1c-0.552 0-1-0.448-1-1zM28.5 15h-1c-0.552 0-1-0.448-1-1s0.448-1 1-1h1c0.552 0 1 0.448 1 1s-0.448 1-1 1zM30 9.5h-28v-1c0-0.884 0.116-1.5 1-1.5h26c0.884 0 1 0.716 1 1.599v0.9z"></path>
</svg>
