<!-- Generated by IcoMoon.io -->
<svg version="1.1" xmlns="http://www.w3.org/2000/svg" width="32" height="32" viewBox="0 0 32 32">
<title>drone</title>
<path d="M24.521 16.98c-1.494 0-2.881 0.445-4.047 1.203-0.448-1.422-0.436-2.982 0.038-4.397 1.128 0.689 2.448 1.093 3.865 1.093 4.108 0 7.437-3.33 7.436-7.437s-3.329-7.436-7.436-7.436c-4.107 0-7.436 3.329-7.436 7.437 0 1.503 0.45 2.898 1.215 4.068-1.439 0.468-3.026 0.46-4.46-0.023 0.778-1.175 1.234-2.582 1.234-4.097 0-4.106-3.33-7.436-7.436-7.436-4.107 0-7.436 3.33-7.436 7.437s3.329 7.436 7.436 7.436c1.43 0 2.76-0.411 3.895-1.111 0.497 1.432 0.517 3.021 0.061 4.466-1.166-0.758-2.553-1.203-4.047-1.203-4.106 0-7.437 3.329-7.436 7.437-0.001 4.107 3.329 7.436 7.436 7.436s7.436-3.329 7.436-7.436c0-1.409-0.399-2.721-1.080-3.845 1.421-0.464 2.984-0.464 4.405 0-0.68 1.123-1.079 2.436-1.079 3.845 0 4.107 3.33 7.437 7.436 7.437 4.107 0 7.437-3.329 7.437-7.436s-3.33-7.438-7.437-7.438zM7.495 12.967c-3.080 0-5.577-2.498-5.577-5.577s2.496-5.577 5.577-5.577 5.577 2.498 5.577 5.577c0 1.215-0.393 2.336-1.052 3.252-0.055-0.037-0.11-0.075-0.162-0.114-0.155-0.364-0.515-0.62-0.935-0.62-0.561 0-1.017 0.455-1.017 1.016 0 0.119 0.024 0.231 0.062 0.337l-0.047 0.047c0.055 0.056 0.103 0.119 0.156 0.178 0.046 0.069 0.101 0.13 0.162 0.185 0.105 0.126 0.204 0.257 0.299 0.39-0.875 0.571-1.919 0.906-3.043 0.906zM12.982 24.416c0 3.080-2.497 5.577-5.577 5.577s-5.578-2.497-5.578-5.578 2.497-5.578 5.578-5.578c1.207 0 2.322 0.387 3.235 1.040-0.076 0.113-0.152 0.225-0.236 0.333-0.191 0.114-0.341 0.285-0.424 0.494-0.020 0.021-0.037 0.044-0.057 0.066l0.029 0.029c-0.027 0.090-0.045 0.183-0.045 0.28 0 0.561 0.456 1.015 1.017 1.015 0.098 0 0.191-0.018 0.28-0.044l0.030 0.029c0.021-0.021 0.045-0.038 0.067-0.059 0.206-0.083 0.377-0.232 0.49-0.421 0.095-0.074 0.197-0.142 0.296-0.209 0.564 0.872 0.896 1.91 0.896 3.026zM18.802 7.441c-0.001-3.080 2.497-5.578 5.576-5.578 3.081 0 5.577 2.497 5.577 5.577 0.001 3.081-2.497 5.578-5.577 5.578-1.119 0-2.159-0.333-3.032-0.9 0.073-0.104 0.14-0.21 0.219-0.309 0.314-0.172 0.53-0.502 0.53-0.887 0-0.561-0.454-1.016-1.015-1.016-0.386 0-0.716 0.217-0.889 0.533-0.11 0.088-0.227 0.165-0.344 0.244-0.656-0.915-1.046-2.031-1.046-3.242zM24.521 29.994c-3.080 0-5.577-2.497-5.577-5.578 0-1.116 0.331-2.153 0.896-3.025 0.168 0.114 0.331 0.237 0.489 0.368 0.057 0.063 0.119 0.12 0.191 0.168 0.058 0.052 0.119 0.099 0.174 0.154l0.047-0.047c0.106 0.038 0.219 0.062 0.338 0.062 0.561 0 1.015-0.455 1.015-1.015 0-0.421-0.256-0.782-0.62-0.936-0.065-0.087-0.128-0.176-0.189-0.266 0.913-0.652 2.027-1.040 3.235-1.040 3.081 0 5.578 2.497 5.578 5.578-0.001 3.080-2.498 5.578-5.579 5.578zM10.931 3.838l0.003 0.003 0.005 0.003zM10.931 5.003c0.321-0.321 0.32-0.84 0.002-1.162-0.322-0.317-0.839-0.317-1.159 0.004l-2.080 2.080c-0.066-0.008-0.13-0.020-0.198-0.020-0.892 0-1.614 0.723-1.614 1.614 0 0.069 0.013 0.133 0.021 0.2l-2.009 2.009c-0.323 0.321-0.323 0.841-0.002 1.162 0.322 0.316 0.838 0.315 1.16-0.005l1.864-1.864c0.181 0.070 0.376 0.113 0.582 0.113 0.889 0 1.615-0.723 1.615-1.614 0-0.205-0.043-0.401-0.113-0.581l1.934-1.935zM3.892 10.892c-0.001-0.001-0.001-0.002-0.002-0.002-0.003-0.002-0.006-0.003-0.007-0.005l0.009 0.007zM26.849 20.92l-2.040 2.041c-0.094-0.017-0.189-0.029-0.287-0.029-0.891 0-1.614 0.722-1.614 1.613 0 0.099 0.012 0.195 0.029 0.288l-1.969 1.969c-0.32 0.32-0.322 0.837-0.006 1.159 0.321 0.32 0.843 0.32 1.163-0.002l1.89-1.889c0.16 0.053 0.328 0.089 0.507 0.089 0.89 0 1.615-0.723 1.615-1.614 0-0.178-0.037-0.347-0.090-0.508l1.96-1.96c0.32-0.32 0.32-0.838 0.003-1.16-0.322-0.319-0.84-0.319-1.162 0.002zM20.966 27.966l-0.005-0.006-0.002-0.002zM28.006 20.913l0.005 0.005 0.003 0.003zM11.005 27.928l-0.004 0.003-0.003 0.003zM3.952 20.889l0.002-0.002 0.005-0.005zM10.998 26.77l-1.918-1.918c0.039-0.14 0.067-0.284 0.067-0.436 0-0.892-0.723-1.614-1.614-1.614-0.152 0-0.295 0.027-0.435 0.067l-1.981-1.982c-0.321-0.321-0.84-0.32-1.162-0.002-0.317 0.322-0.317 0.839 0.005 1.159l2.005 2.006c-0.028 0.118-0.046 0.239-0.046 0.366 0.002 0.891 0.723 1.613 1.615 1.613 0.126 0 0.247-0.018 0.365-0.045l1.942 1.942c0.321 0.32 0.84 0.322 1.161 0.005 0.318-0.322 0.317-0.84-0.004-1.162zM20.86 5.009l1.978 1.979c-0.043 0.145-0.073 0.295-0.073 0.454-0 0.891 0.722 1.614 1.613 1.614 0.159 0 0.309-0.030 0.455-0.073l1.907 1.908c0.32 0.321 0.837 0.322 1.159 0.007 0.32-0.322 0.32-0.842-0.002-1.164l-1.945-1.946c0.025-0.112 0.039-0.228 0.039-0.346 0-0.891-0.721-1.614-1.614-1.614-0.119 0-0.235 0.015-0.346 0.040l-2.014-2.014c-0.32-0.321-0.839-0.321-1.161-0.003-0.317 0.322-0.317 0.839 0.004 1.16zM27.907 10.892l-0.006 0.005-0.002 0.002zM20.852 3.853l0.005-0.004 0.003-0.004z"></path>
</svg>
