<!-- Generated by IcoMoon.io -->
<svg version="1.1" xmlns="http://www.w3.org/2000/svg" width="32" height="32" viewBox="0 0 32 32">
<title>dropper</title>
<path d="M24.297 20.587l-2.517-3.876c-0.056-0.091-0.086-0.195-0.086-0.302v-1.374c0-0.175-0.141-0.315-0.314-0.315h-1.644v-5.080h1.42c0.819 0 1.483-0.664 1.483-1.482v-1.067c0-0.819-0.664-1.484-1.483-1.484h-1.030v-1.315c0-2.365-1.831-4.29-4.082-4.29s-4.084 1.925-4.084 4.291v1.315h-1.113c-0.819 0-1.483 0.664-1.483 1.484v1.067c0 0.819 0.664 1.482 1.483 1.482h1.42v5.079h-1.643c-0.174 0-0.315 0.14-0.315 0.315v1.374c0 0.108-0.030 0.212-0.086 0.302l-2.517 3.876c-0.117 0.191-0.18 0.41-0.18 0.634v9.573c0 0.666 0.541 1.207 1.207 1.207h14.539c0.665 0 1.206-0.541 1.206-1.207v-9.573c0-0.224-0.063-0.443-0.18-0.634zM13.661 9.639h4.678v5.079h-4.678v-5.079zM19.525 25.966h-2.282v2.282h-2.488v-2.282h-2.281v-2.488h2.281v-2.281h2.488v2.281h2.282v2.488z"></path>
</svg>
