<!-- Generated by IcoMoon.io -->
<svg version="1.1" xmlns="http://www.w3.org/2000/svg" width="32" height="32" viewBox="0 0 32 32">
<title>Drug-pills</title>
<path d="M10.321 5.215c-0.264-0.263-0.691-0.263-0.956 0s-0.264 0.692-0.001 0.955l2.249 2.249c0.132 0.133 0.305 0.198 0.478 0.198s0.345-0.066 0.478-0.198c0.264-0.264 0.264-0.691 0-0.955l-2.248-2.249zM20.387 14.398c-0.264-0.263-0.692-0.263-0.956 0s-0.264 0.693 0 0.956l2.248 2.249c0.132 0.132 0.305 0.198 0.479 0.198 0.172 0 0.346-0.066 0.477-0.198 0.264-0.264 0.264-0.692 0-0.956l-2.248-2.249zM10.321 23.581c-0.264-0.264-0.691-0.264-0.956 0s-0.264 0.692-0.001 0.955l2.249 2.249c0.132 0.132 0.305 0.198 0.478 0.198s0.345-0.066 0.478-0.198c0.264-0.264 0.264-0.692 0-0.956l-2.248-2.248zM20.387 23.581c-0.264-0.264-0.692-0.264-0.956 0s-0.264 0.692 0 0.955l2.248 2.249c0.132 0.132 0.305 0.198 0.479 0.198 0.172 0 0.346-0.066 0.477-0.198 0.264-0.264 0.264-0.692 0-0.956l-2.248-2.248zM20.387 5.215c-0.264-0.263-0.692-0.263-0.956 0s-0.264 0.692 0 0.955l2.248 2.249c0.132 0.133 0.305 0.198 0.479 0.198 0.172 0 0.346-0.066 0.477-0.198 0.264-0.264 0.264-0.691 0-0.955l-2.248-2.249zM10.321 14.398c-0.264-0.263-0.691-0.263-0.956 0s-0.264 0.693-0.001 0.956l2.249 2.249c0.132 0.132 0.305 0.198 0.478 0.198s0.345-0.066 0.478-0.198c0.264-0.264 0.264-0.692 0-0.956l-2.248-2.249zM26.572 0h-21.144c-1.035 0-1.877 0.843-1.877 1.878v28.245c0 1.035 0.841 1.877 1.877 1.877h21.144c1.035 0 1.878-0.843 1.878-1.877v-28.245c0-1.036-0.842-1.878-1.878-1.878zM13.448 27.663c-1.371 1.37-3.591 1.37-4.961 0s-1.37-3.591 0-4.961c1.37-1.37 3.591-1.37 4.961 0s1.37 3.591 0 4.961zM13.448 18.48c-1.371 1.37-3.591 1.37-4.961 0s-1.37-3.591 0-4.961c1.37-1.37 3.591-1.37 4.961 0s1.37 3.591 0 4.961zM13.448 9.299c-1.371 1.37-3.591 1.37-4.961 0s-1.37-3.591 0-4.962c1.37-1.369 3.591-1.369 4.961 0 1.37 1.37 1.37 3.591 0 4.962zM23.514 27.663c-1.37 1.37-3.591 1.37-4.96 0-1.371-1.37-1.371-3.591-0-4.961s3.591-1.37 4.961 0 1.37 3.591 0 4.961zM23.514 18.48c-1.37 1.37-3.591 1.37-4.96 0-1.371-1.369-1.371-3.591-0-4.961s3.591-1.37 4.961 0c1.37 1.37 1.37 3.591 0 4.961zM23.514 9.299c-1.37 1.37-3.591 1.37-4.96 0-1.371-1.37-1.371-3.591-0-4.962s3.591-1.369 4.961 0c1.37 1.37 1.37 3.591 0 4.962z"></path>
</svg>
