<!-- Generated by IcoMoon.io -->
<svg version="1.1" xmlns="http://www.w3.org/2000/svg" width="32" height="32" viewBox="0 0 32 32">
<title>Drugs-</title>
<path d="M8.238 0c-3.813 0.002-7.037 3.096-7.039 6.758l0.002 17.641c-0.002 2.099 0.712 4.024 2.008 5.424 1.301 1.405 3.087 2.178 5.030 2.178h0.002c1.94 0 3.724-0.773 5.026-2.178 1.296-1.398 2.009-3.324 2.009-5.421l0.001-17.644c-0.002-3.66-3.224-6.755-7.039-6.756zM13.248 23.835c0 2.363-0.534 3.655-1.507 4.628s-2.124 1.508-3.501 1.508c-1.377 0-2.53-0.535-3.503-1.506-0.971-0.974-1.508-2.267-1.508-4.628l-0.001-4.475c-0.002-0.012-0.007-0.023-0.007-0.035l-0.001-12.002c-0.015-0.138-0.021-0.271-0.021-0.399 0.004-1.462 0.8-2.772 1.929-3.648l0.002 0.002c0.282-0.22 0.694-0.167 0.912 0.116 0.219 0.282 0.167 0.691-0.117 0.912-0.873 0.676-1.429 1.651-1.425 2.618 0 0.101 0.006 0.197 0.016 0.29l0.005 0.081 0.003 9.355h8.726l-0.002 7.183zM28.691 18.866c-2.814-2.814-7.376-2.814-10.191 0s-2.814 7.377 0 10.191c2.814 2.814 7.375 2.814 10.19-0s2.815-7.376 0-10.19zM27.189 27.555c-0.163 0.163-0.375 0.244-0.588 0.244s-0.427-0.081-0.589-0.244l-6.009-6.010c-0.325-0.325-0.325-0.852 0-1.177s0.852-0.325 1.178 0l6.008 6.010c0.326 0.326 0.326 0.852 0 1.177z"></path>
</svg>
