<!-- Generated by IcoMoon.io -->
<svg version="1.1" xmlns="http://www.w3.org/2000/svg" width="32" height="32" viewBox="0 0 32 32">
<title>drumset</title>
<path d="M3.694 27.223v-20.429c0-0.010-0.006-0.017-0.006-0.027l1.35-1.13c0.173 0.067 0.348 0.133 0.529 0.194 2.654 0.889 5.144 0.596 5.563-0.653s-1.393-2.982-4.047-3.87-5.144-0.597-5.564 0.652c-0.325 0.976 0.711 2.244 2.442 3.178l-3.769 3.159c-0.227 0.19-0.257 0.53-0.066 0.758s0.53 0.257 0.758 0.066l1.508-1.264v19.368l-2.274 2.858c-0.185 0.232-0.147 0.571 0.086 0.756s0.571 0.146 0.755-0.087l1.433-1.8v1.605c0 0.36 0.292 0.651 0.651 0.651s0.651-0.291 0.651-0.651v-1.605l1.434 1.801c0.184 0.233 0.524 0.271 0.755 0.087s0.271-0.524 0.086-0.756l-2.276-2.858zM27.282 15.329c-2.606 0-4.718 0.572-4.718 1.276v2.095c-1.31-2.169-3.604-3.671-6.268-3.884v-2.467h1.669v1.507c0 0.611 1.834 1.108 4.098 1.108 2.263 0 4.098-0.496 4.098-1.108v-4.314c0-0.612-1.835-1.108-4.098-1.108-2.264 0-4.098 0.496-4.098 1.108v1.505h-4.64v-1.506c0-0.612-1.835-1.108-4.098-1.108-2.264 0-4.099 0.496-4.099 1.108v4.314c0 0.611 1.835 1.108 4.099 1.108 2.262 0 4.098-0.496 4.098-1.108v-1.507h1.669v2.467c-4.16 0.334-7.434 3.807-7.434 8.053 0 2.007 0.736 3.84 1.948 5.254l-1.072 2.32c-0.125 0.27-0.007 0.59 0.263 0.715s0.588 0.006 0.712-0.264l0.905-1.956c1.424 1.252 3.286 2.016 5.33 2.016 2.045 0 3.907-0.764 5.33-2.016l0.904 1.956c0.125 0.27 0.444 0.388 0.713 0.264s0.387-0.444 0.262-0.715l-1.072-2.32c0.363-0.424 0.687-0.883 0.956-1.375 0.553 0.538 2.375 0.933 4.541 0.933 2.605 0 4.718-0.571 4.718-1.275v-9.8c0-0.704-2.112-1.276-4.718-1.276zM15.646 28.166c-2.924 0-5.294-2.372-5.294-5.296 0-2.926 2.37-5.296 5.294-5.296 2.927 0 5.297 2.37 5.297 5.296 0 2.925-2.37 5.296-5.297 5.296z"></path>
</svg>
