<!-- Generated by IcoMoon.io -->
<svg version="1.1" xmlns="http://www.w3.org/2000/svg" width="32" height="32" viewBox="0 0 32 32">
<title>drum-sticks</title>
<path d="M12.757 22.331l-2.595 0.695 1.162 4.715 2.783-0.745zM14.384 27.948l-2.822 0.756 0.537 2.18c0.216 0.802 1.040 1.279 1.844 1.064 0.803-0.215 1.281-1.040 1.065-1.844l-0.624-2.157zM7.477 4.104c0.678-0.56 1.009-1.48 0.767-2.385-0.332-1.236-1.603-1.97-2.84-1.639-1.237 0.332-1.97 1.603-1.639 2.84 0.242 0.904 0.988 1.534 1.854 1.681l4.304 17.461 2.556-0.684-5.003-17.273zM16.991 30.105c-0.215 0.804 0.261 1.63 1.064 1.844 0.803 0.216 1.63-0.26 1.844-1.064l0.538-2.18-2.821-0.756-0.625 2.156zM26.594 0.080c-1.236-0.331-2.508 0.404-2.839 1.639-0.242 0.905 0.089 1.823 0.765 2.384l-5.002 17.273 2.555 0.684 4.303-17.46c0.867-0.146 1.614-0.777 1.857-1.681 0.331-1.236-0.402-2.508-1.64-2.84zM17.892 26.995l2.783 0.745 1.162-4.715-2.594-0.694z"></path>
</svg>
