<!-- Generated by IcoMoon.io -->
<svg version="1.1" xmlns="http://www.w3.org/2000/svg" width="32" height="32" viewBox="0 0 32 32">
<title>drum</title>
<path d="M29.062 30h-26.123c-0.595 0-1.077 0.405-1.077 1s0.482 1 1.077 1h26.123c0.594 0 1.076-0.406 1.076-1s-0.482-1-1.076-1zM2.938 14h26.123c0.594 0 1.076-0.406 1.076-1s-0.482-1-1.076-1h-26.123c-0.595 0-1.077 0.406-1.077 1s0.482 1 1.077 1zM19.197 15h-6.416l3.218 10.767zM27.793 15h-6.53l3.247 10.928zM10.693 15h-6.488l3.284 11.056zM11.745 17.788l-3.271 11.212h6.523zM20.251 17.788l-3.271 11.212h6.524zM29 16.596l-3.42 12.404h3.42zM2.5 29h3.92l-3.92-12.405zM9.653 6.849c-0.429 0.929-0.271 2.064 0.496 2.831 0.982 0.982 2.574 0.982 3.556-0.001s0.982-2.573 0.001-3.555c-0.766-0.766-1.902-0.926-2.831-0.497l-5.379-5.378c-0.338-0.338-0.885-0.339-1.223-0.001-0.337 0.337-0.337 0.885 0.001 1.222l5.379 5.378zM21.851 9.68c0.766-0.766 0.927-1.901 0.497-2.83l5.378-5.378c0.337-0.338 0.338-0.885 0-1.222-0.337-0.338-0.884-0.338-1.221 0.001l-5.379 5.378c-0.929-0.429-2.064-0.269-2.831 0.497-0.982 0.982-0.981 2.574 0 3.555 0.982 0.982 2.573 0.983 3.555 0.002z"></path>
</svg>
