<!-- Generated by IcoMoon.io -->
<svg version="1.1" xmlns="http://www.w3.org/2000/svg" width="32" height="32" viewBox="0 0 32 32">
<title>earrings</title>
<path d="M10.907 18.932c0.498-0.444 0.818-1.083 0.818-1.802 0-0.98-0.585-1.82-1.423-2.201 0.601-0.348 1.010-0.99 1.010-1.735 0-0.62-0.286-1.167-0.726-1.536v-3.681c0-0.232-0.188-0.42-0.419-0.42h-0.292c0.034-0.354 0.168-0.678 0.338-1.071 0.123-0.282 0.261-0.603 0.374-0.973 0.191-0.63 0.73-2.8-0.355-4.263-0.616-0.831-1.605-1.252-2.941-1.252-1.346 0-2.409 0.383-3.157 1.139-1.484 1.497-1.459 4.090-1.436 6.598 0.003 0.303 0.006 0.605 0.006 0.903 0 3.819-1.859 4.005-1.962 4.012-0.354 0.014-0.634 0.31-0.625 0.666s0.298 0.636 0.651 0.636c0.005 0 0.010 0 0.015 0 0.132-0.004 3.224-0.136 3.224-5.314 0-0.302-0.003-0.608-0.005-0.915-0.022-2.24-0.042-4.558 1.058-5.67 0.502-0.507 1.232-0.753 2.232-0.753 0.901 0 1.538 0.244 1.895 0.724 0.575 0.776 0.443 2.159 0.155 3.108-0.091 0.298-0.209 0.569-0.323 0.832-0.207 0.479-0.413 0.976-0.447 1.59h-0.133c-0.232 0-0.419 0.188-0.419 0.42v3.68c-0.441 0.368-0.726 0.916-0.726 1.536 0 0.744 0.408 1.386 1.009 1.735-0.838 0.382-1.423 1.221-1.423 2.202 0 0.719 0.319 1.358 0.817 1.802-2.886 0.721-5.027 3.325-5.027 6.433 0 3.665 2.97 6.636 6.635 6.636s6.636-2.971 6.636-6.636c0-3.108-2.141-5.712-5.029-6.432zM9.301 28.758c-1.874 0-3.393-1.52-3.393-3.393s1.518-3.393 3.393-3.393 3.393 1.52 3.393 3.393c0 1.874-1.518 3.393-3.393 3.393zM26.857 18.932c0.497-0.444 0.817-1.083 0.817-1.802 0-0.98-0.585-1.82-1.423-2.201 0.601-0.348 1.010-0.99 1.010-1.735 0-0.62-0.286-1.167-0.727-1.536v-3.681c0-0.232-0.188-0.42-0.419-0.42h-0.292c0.034-0.354 0.168-0.678 0.338-1.071 0.122-0.282 0.262-0.603 0.374-0.973 0.192-0.63 0.73-2.8-0.355-4.263-0.616-0.831-1.605-1.252-2.941-1.252-1.346 0-2.409 0.383-3.157 1.139-1.483 1.497-1.459 4.090-1.436 6.598 0.003 0.303 0.006 0.605 0.006 0.903 0 3.819-1.86 4.005-1.962 4.012-0.355 0.014-0.634 0.31-0.625 0.666s0.299 0.636 0.651 0.636c0.005 0 0.011 0 0.015 0 0.132-0.004 3.224-0.136 3.224-5.314 0-0.302-0.003-0.608-0.006-0.915-0.021-2.24-0.043-4.558 1.058-5.67 0.502-0.507 1.232-0.753 2.232-0.753 0.901 0 1.538 0.244 1.895 0.724 0.575 0.776 0.443 2.159 0.154 3.108-0.090 0.298-0.208 0.569-0.323 0.832-0.207 0.479-0.413 0.976-0.448 1.59h-0.134c-0.232 0-0.419 0.188-0.419 0.42v3.68c-0.441 0.368-0.727 0.916-0.727 1.536 0 0.744 0.408 1.386 1.009 1.735-0.837 0.382-1.422 1.221-1.422 2.202 0 0.719 0.319 1.358 0.817 1.802-2.886 0.72-5.028 3.323-5.028 6.431 0 3.666 2.971 6.637 6.634 6.637 3.666 0 6.636-2.971 6.636-6.636 0-3.108-2.141-5.712-5.029-6.432zM25.25 28.758c-1.873 0-3.392-1.52-3.392-3.393s1.518-3.393 3.392-3.393c1.875 0 3.393 1.52 3.393 3.393s-1.518 3.393-3.393 3.393z"></path>
</svg>
