<!-- Generated by IcoMoon.io -->
<svg version="1.1" xmlns="http://www.w3.org/2000/svg" width="32" height="32" viewBox="0 0 32 32">
<title>ebook-reader</title>
<path d="M24.032 0h-16.063c-1.364 0-2.469 1.105-2.469 2.469v27.064c0 1.363 1.105 2.468 2.469 2.468h16.064c1.363 0 2.468-1.105 2.468-2.468v-27.063c0-1.363-1.105-2.469-2.468-2.469zM16 30.635c-0.907 0-1.643-0.735-1.643-1.643s0.736-1.643 1.643-1.643 1.642 0.736 1.642 1.642c0 0.907-0.736 1.643-1.643 1.643zM24.5 25.605c0 0.466-0.307 0.895-0.723 0.895h-15.554c-0.416 0-0.723-0.429-0.723-0.895v-22.605c0-0.467 0.307-0.5 0.723-0.5h15.553c0.416 0 0.724 0.033 0.724 0.5v22.605zM9.75 6.5h9c0.415 0 0.75-0.335 0.75-0.75s-0.335-0.75-0.75-0.75h-9c-0.415 0-0.75 0.335-0.75 0.75s0.335 0.75 0.75 0.75zM9.75 9.5h7.5c0.415 0 0.75-0.335 0.75-0.75s-0.335-0.75-0.75-0.75h-7.5c-0.415 0-0.75 0.335-0.75 0.75s0.335 0.75 0.75 0.75zM21.25 11h-11.5c-0.415 0-0.75 0.335-0.75 0.75s0.335 0.75 0.75 0.75h11.5c0.415 0 0.75-0.335 0.75-0.75s-0.335-0.75-0.75-0.75z"></path>
</svg>
