<!-- Generated by IcoMoon.io -->
<svg version="1.1" xmlns="http://www.w3.org/2000/svg" width="32" height="32" viewBox="0 0 32 32">
<title>edit-location</title>
<path d="M12.257 14.495c-0.204-0.204-0.023-0.86 0.159-1.362l-0.95 0.306-0.214 1.636 0.419 0.419 1.625-0.2 0.32-0.96c-0.296 0.104-0.77 0.254-1.065 0.254-0.136 0-0.232-0.030-0.294-0.093zM16 0.254c-5.835 0-10.566 4.731-10.566 10.566 0 0.901 0.125 1.771 0.337 2.604l0.086 0.333c0.343 1.188 7.983 16.273 7.983 16.273s0.442 1.718 2.159 1.718 2.159-1.718 2.159-1.718 7.64-15.084 7.983-16.273l0.086-0.333c0.212-0.834 0.337-1.704 0.337-2.604 0-5.835-4.73-10.566-10.566-10.566zM13.913 15.681l-0.102 0.094c0 0-2.947 0.805-3.184 0.916-0.057 0.026-0.489 0.122-0.571-0.001-0.078-0.117-0.067-0.416-0.011-0.546 0.104-0.247 0.858-3.041 0.933-3.204l0.094-0.103 5.627-5.627 2.843 2.843-5.628 5.628zM21.623 7.97l-1.523 1.524-2.843-2.843 1.523-1.524c0.244-0.242 0.567-0.377 0.912-0.377s0.668 0.134 0.91 0.377l1.021 1.021c0.503 0.502 0.503 1.319 0 1.822z"></path>
</svg>
