<!-- Generated by IcoMoon.io -->
<svg version="1.1" xmlns="http://www.w3.org/2000/svg" width="32" height="32" viewBox="0 0 32 32">
<title>edit</title>
<path d="M24 25c0 1.105-0.895 2-2 2h-17c-1.104 0-2-0.895-2-2v-17c0-1.104 0.896-2 2-2h14.204l3-3h-19.204c-1.657 0-3 1.343-3 3v21c0 1.657 1.343 3 3 3h21c1.657 0 3-1.343 3-3v-10.204l-3 3v5.204zM31.278 5.179l-1.956-1.957c-0.466-0.466-1.086-0.723-1.745-0.723s-1.279 0.257-1.746 0.723l-2.92 2.92 5.448 5.448 2.92-2.92c0.962-0.962 0.962-2.529 0-3.492zM11.054 18l-0.181 0.198c-0.143 0.31-1.589 5.667-1.789 6.14-0.105 0.25-0.126 0.823 0.023 1.047 0.155 0.235 0.985 0.052 1.095 0.002 0.457-0.21 6.103-1.755 6.103-1.755l0.195-0.18 10.786-10.787-5.447-5.448-10.784 10.785zM15.318 22.707l-3.115 0.384-0.803-0.803 0.41-3.136 1.822-0.585c-0.35 0.962-0.698 2.219-0.306 2.611 0.12 0.119 0.304 0.178 0.564 0.178 0.566 0 1.476-0.287 2.042-0.488l-0.614 1.839z"></path>
</svg>
