<!-- Generated by IcoMoon.io -->
<svg version="1.1" xmlns="http://www.w3.org/2000/svg" width="32" height="32" viewBox="0 0 32 32">
<title>eggs</title>
<path d="M31.55 15.35c-1.8-10.65-8.3-10.25-8.3-10.25s-6.4-0.45-8.35 10.25c0 0-1.65 11 8.35 11.6 10-0.6 8.3-11.6 8.3-11.6zM23.55 9c-2.8 1.4-4.7 4.15-4.75 7.050 0 0.5-0.45 0.9-0.95 0.9-0.050 0-0.1 0-0.15 0-0.45-0.1-0.8-0.5-0.8-1 0.1-3.6 2.4-7 5.85-8.7 0.15-0.050 0.3-0.1 0.4-0.1 0.4 0 0.75 0.25 0.85 0.6v0c0.25 0.5 0 1-0.45 1.25zM15.25 24.25c-2.9-3.6-2.15-8.85-2.1-9.050v-0.050c0.3-1.7 0.75-3.1 1.25-4.3-8.35-5.8-12.4-1.15-12.4-1.15s-4.55 3.95 1.35 12.35c0 0 5.8 7.75 12.45 2.75-0.2-0.15-0.4-0.35-0.55-0.55zM6.4 21.15c-0.050 0.050-0.050 0.050-0.1 0.1-0.35 0.25-0.85 0.2-1.2-0.1-2.35-2.5-3.1-6.3-1.95-9.7 0.050-0.15 0.1-0.25 0.2-0.35 0.25-0.25 0.65-0.35 0.95-0.2v0c0.4 0.2 0.65 0.65 0.5 1.1-0.9 2.8-0.3 5.9 1.6 7.9 0.35 0.35 0.35 0.9 0 1.25z"></path>
</svg>
