<!-- Generated by IcoMoon.io -->
<svg version="1.1" xmlns="http://www.w3.org/2000/svg" width="32" height="32" viewBox="0 0 32 32">
<title>electric-saw</title>
<path d="M6.591 16.624l-1.155 1.534 1.888 0.342-0.734 1.777 1.915-0.141-0.274 1.901 1.821-0.607 0.209 1.909 1.614-1.041 0.675 1.796 1.303-1.41 1.102 1.573 0.909-1.69 1.461 1.247 0.462-1.863 1.724 0.844-0.018-1.921 1.881 0.395-0.32-1.215-6.829-5.358-8.379-1.732-0.987 0.444 1.488 1.21-1.499 1.201zM27.244 14.493c-0.183 0-0.377 0.018-0.553 0.043 0.736-6.024-3.269-11.703-9.318-12.954-2.217-0.458-4.421-0.26-6.403 0.461l-3.407-2.043-0.346 0.099c-0.181 0.051-4.418 1.308-5.964 5.792l-0.221 0.641 3.156 1.856c-0.324 0.741-0.578 1.526-0.748 2.349-0.015 0.073-0.026 0.146-0.039 0.219l11.54 2.384 8.558 6.711v6.949h-21.969c-0.193 0-0.531 0.021-0.531 0.215v4.313c0 0.193 0.338 0.473 0.531 0.473h3.839l0.662-1.16c0-0.152 0.123-0.34 0.275-0.34h19.508c0.152 0 0.274 0.188 0.274 0.34l0.662 1.16h3.838c0.193 0 0.411-0.279 0.411-0.473v-13.308c0-2.058-1.698-3.726-3.756-3.726zM4.958 6.92l-1.893-1.114c1.16-2.588 3.438-3.676 4.284-4.003l1.803 1.082c-1.694 0.966-3.147 2.345-4.194 4.035zM27.297 19.603c-0.64 0-1.159-0.519-1.159-1.159s0.519-1.159 1.159-1.159 1.159 0.518 1.159 1.159-0.518 1.159-1.159 1.159z"></path>
</svg>
