<!-- Generated by IcoMoon.io -->
<svg version="1.1" xmlns="http://www.w3.org/2000/svg" width="32" height="32" viewBox="0 0 32 32">
<title>electronic-stability-program</title>
<path d="M3.3 15.95c0-3.45 1.5-6.75 4.2-9.050l0.25-0.2-2.2-2.2-0.2 0.2c-0.25 0.2-0.45 0.4-0.65 0.6-1.4 1.4-2.5 3-3.25 4.8-0.8 1.85-1.2 3.85-1.2 5.85s0.4 4 1.2 5.85c0.75 1.8 1.85 3.4 3.25 4.8 0.2 0.2 0.4 0.35 0.6 0.55l0.2 0.2 2.15-2.15-0.25-0.2c-2.6-2.35-4.1-5.6-4.1-9.050zM28.6 15.95c0-3.45-1.5-6.75-4.2-9.050l-0.25-0.2 2.2-2.2 0.2 0.2c0.25 0.2 0.45 0.4 0.65 0.6 1.4 1.4 2.5 3 3.25 4.8 0.8 1.85 1.2 3.85 1.2 5.85s-0.4 4-1.2 5.85c-0.75 1.8-1.85 3.4-3.25 4.8-0.2 0.2-0.4 0.35-0.6 0.55l-0.2 0.2-2.15-2.15 0.25-0.2c2.65-2.35 4.1-5.6 4.1-9.050zM21.4 13.55h-0.95v2h0.95c0.55 0 1-0.35 1-1 0-0.7-0.45-1-1-1zM16 5.2c-5.95 0-10.75 4.8-10.75 10.75s4.8 10.75 10.75 10.75 10.75-4.8 10.75-10.75-4.8-10.75-10.75-10.75zM13.55 13.55h-3.45v1h2.45v1.5h-2.45v1.5h3.45v1h-4.45v-6.5h4.45v1.5zM16.15 19c-1.45 0-2.2-0.8-2.65-1.5l0.9-1c0.35 0.55 0.9 1.1 1.8 1.1 0.6 0 0.95-0.35 0.95-0.75 0-0.3-0.15-0.6-0.85-0.7l-0.5-0.1c-1.1-0.2-1.85-0.9-1.85-1.95 0-1.2 0.85-2.15 2.25-2.15 0.95 0 1.75 0.45 2.2 1.050l-0.85 1c-0.35-0.45-0.85-0.75-1.35-0.75s-0.8 0.3-0.8 0.6c0 0.3 0.2 0.55 0.65 0.65l0.5 0.1c1.3 0.2 2 0.95 2 2.1 0 1.4-1 2.3-2.4 2.3zM21.6 16.5h-1.15v2h-1v-6.45h2.15c1.3 0 2.2 0.7 2.2 2.2s-0.95 2.25-2.2 2.25z"></path>
</svg>
