<!-- Generated by IcoMoon.io -->
<svg version="1.1" xmlns="http://www.w3.org/2000/svg" width="32" height="32" viewBox="0 0 32 32">
<title>electric</title>
<path d="M31.1 17.65c-0.25-0.5-0.8-1.15-1.9-1.5l-2.25-5.45c-0.050-0.15-0.7-1.75-3.3-1.75-0.050 0-0.1 0-0.1 0h-7.45c-2.7-0.050-3.35 1.65-3.4 1.75l-2.25 5.45c-1.1 0.3-1.65 1-1.9 1.5-0.3 0.55-0.3 1.050-0.3 1.1v2.95h-1.65c-0.55 0-1-0.45-1-1v-6.4c0.050 0 0.050 0 0.1 0 1.85 0 3.55-1 4.45-2.6l1.8-3.2-1.35-0.75 1.15-2.1c0.15-0.25 0.15-0.5 0.1-0.75s-0.25-0.45-0.45-0.6c-0.15-0.1-0.3-0.15-0.5-0.15-0.35 0-0.7 0.2-0.85 0.5l-1.15 2.1-2.8-1.6 1.15-2.1c0.15-0.25 0.15-0.5 0.1-0.75s-0.25-0.45-0.45-0.6c-0.15-0.1-0.3-0.15-0.5-0.15-0.35 0-0.7 0.2-0.85 0.5l-1.15 2.2-1.35-0.75-1.8 3.2c-1.4 2.45-0.5 5.6 1.95 6.95 0.15 0.050 0.25 0.15 0.4 0.2v6.85c0 1.65 1.35 2.95 2.95 2.95h1.65v2.5h1.85v2.2c0 1.1 0.9 2 2 2h0.15c1.1 0 2-0.9 2-2v-2.2h11.2v2.2c0 1.1 0.9 2 2 2h0.15c1.1 0 2-0.9 2-2v-2.2h1.85v-7.45c-0.050 0-0.050-0.5-0.3-1.050zM13.75 20.1c0 0.85-0.7 1.5-1.5 1.5-0.85 0-1.5-0.7-1.5-1.5 0-0.85 0.7-1.5 1.5-1.5s1.5 0.7 1.5 1.5zM19.15 19.55h2.35l-3.8 3.95 1.4-3.7h-1.7l1.5-3.75h-5.9l1.4-3.7c0.45-1.2 2.1-0.95 2.1-0.95v0h6.55c0 0 1.65-0.25 2.1 0.95l1.4 3.7h-5.25l-2.15 3.5zM28.9 20.1c0 0.85-0.7 1.5-1.5 1.5-0.85 0-1.5-0.7-1.5-1.5 0-0.85 0.7-1.5 1.5-1.5s1.5 0.7 1.5 1.5z"></path>
</svg>
