<!-- Generated by IcoMoon.io -->
<svg version="1.1" xmlns="http://www.w3.org/2000/svg" width="32" height="32" viewBox="0 0 32 32">
<title>electric-guitar-</title>
<path d="M31.719 4.319l-0.661-0.66 0.681-0.995-1.194-2.663-1.813 1.333-0.578-0.579c-0.168-0.167-0.439-0.167-0.607 0s-0.167 0.44 0 0.607l0.486 0.486-0.457 0.337-0.426-0.426c-0.168-0.167-0.439-0.167-0.607 0s-0.168 0.439 0 0.607l0.333 0.333-0.845 0.622-0.032 1.362-10.338 10.338c-0.011-1.329 0.454-2.893 0.653-4.367 0.27-1.982-0.401-2.442-1.19-2.579-0.963-0.168-1.885 1.508-1.885 1.508s-1.229 1.916-1.894 3.15c-0.664 1.232-1.514 2.218-3.239 2.735-1.098 0.329-6.441 0.905-7.758 5.505-1.196 4.185 3.463 8.191 3.463 8.191 6.778 6.163 10.324 0.467 10.671-0.242 1.879-3.836 1.367-7.166 5.22-7.951 1.12-0.229 1.83-1.039 1.526-1.863s-1.439-0.89-2.634-0.752c-0.762 0.087-1.422-0.158-1.952-0.738l11.143-11.143 1.364-0.032 0.596-0.871 0.359 0.359c0.168 0.168 0.439 0.168 0.607 0s0.168-0.439 0-0.606l-0.473-0.473 0.323-0.471 0.547 0.547c0.168 0.168 0.439 0.168 0.607 0s0.168-0.439 0-0.607zM8.906 29.701c-0.269 0.268-0.705 0.268-0.973 0-0.269-0.27-0.269-0.706 0-0.974s0.705-0.268 0.973 0c0.269 0.269 0.269 0.705 0 0.974zM7.279 22.441c-0.23-0.23-0.23-0.603 0-0.834s0.604-0.23 0.834 0l2.755 2.755c0.23 0.23 0.23 0.603 0 0.833-0.23 0.231-0.604 0.231-0.834 0l-2.755-2.755zM11.434 30.282c-0.269 0.269-0.704 0.269-0.973 0s-0.268-0.704 0-0.973c0.27-0.269 0.705-0.269 0.973 0s0.269 0.704 0 0.973zM12.72 28.023c-0.269 0.268-0.704 0.268-0.973 0-0.268-0.27-0.268-0.705 0-0.974s0.705-0.268 0.973 0c0.269 0.269 0.269 0.704 0 0.974zM13.084 22.978c-0.23 0.23-0.604 0.23-0.834 0l-2.754-2.755c-0.23-0.23-0.23-0.603 0-0.833s0.603-0.23 0.834 0l2.755 2.755c0.229 0.23 0.229 0.603-0.001 0.833z"></path>
</svg>
