<!-- Generated by IcoMoon.io -->
<svg version="1.1" xmlns="http://www.w3.org/2000/svg" width="32" height="32" viewBox="0 0 32 32">
<title>ellipsis-v</title>
<path d="M18.605 23h-5.21c-1.046 0-1.895 0.849-1.895 1.895v5.211c0 1.046 0.848 1.895 1.895 1.895h5.21c1.046 0 1.895-0.849 1.895-1.895v-5.211c0-1.046-0.849-1.895-1.895-1.895zM18.605 11.5h-5.21c-1.046 0-1.895 0.848-1.895 1.895v5.211c0 1.046 0.848 1.895 1.895 1.895h5.21c1.046 0 1.895-0.849 1.895-1.895v-5.211c0-1.046-0.849-1.895-1.895-1.895zM18.605 0h-5.21c-1.046 0-1.895 0.849-1.895 1.895v5.211c0 1.046 0.848 1.894 1.895 1.894h5.21c1.046 0 1.895-0.848 1.895-1.894v-5.211c0-1.046-0.849-1.895-1.895-1.895z"></path>
</svg>
