<!-- Generated by IcoMoon.io -->
<svg version="1.1" xmlns="http://www.w3.org/2000/svg" width="32" height="32" viewBox="0 0 32 32">
<title>Emergency-light</title>
<path d="M26.23 26.112h-20.396c-0.747 0-1.354 0.606-1.354 1.354v3.181c0 0.748 0.607 1.354 1.354 1.354h20.396c0.747 0 1.352-0.605 1.352-1.354v-3.181c0-0.747-0.606-1.354-1.352-1.354zM6.981 24.964h18.103v-10.363c0-4.652-4.075-8.459-9.052-8.459-4.979 0-9.052 3.807-9.052 8.459v10.363zM15.552 8.784c0.466-0.047 0.881 0.29 0.93 0.755 0.047 0.463-0.288 0.877-0.751 0.928-0.183 0.021-4.153 0.547-4.153 5.757 0 0.468-0.378 0.846-0.845 0.846s-0.845-0.379-0.845-0.846c0-6.775 5.608-7.434 5.664-7.439zM5.096 16.747c-0.027-0.339-0.327-0.593-0.666-0.565l-3.362 0.278c-0.34 0.028-0.593 0.328-0.565 0.667s0.328 0.593 0.666 0.566l3.363-0.278c0.338-0.029 0.593-0.329 0.564-0.668zM1.76 10.44l3.1 1.331c0.313 0.134 0.678-0.011 0.811-0.324 0.135-0.313-0.011-0.678-0.324-0.813l-3.099-1.331c-0.314-0.134-0.679 0.011-0.813 0.324-0.135 0.313 0.012 0.678 0.324 0.813zM7.795 6.939c0.214 0.265 0.605 0.308 0.869 0.094 0.265-0.213 0.309-0.604 0.095-0.87l-2.114-2.628c-0.213-0.265-0.604-0.308-0.87-0.095-0.264 0.213-0.307 0.604-0.094 0.87l2.114 2.628zM13.376 4.539c0.335-0.064 0.556-0.39 0.491-0.724l-0.634-3.313c-0.065-0.334-0.39-0.554-0.725-0.49s-0.556 0.389-0.491 0.724l0.635 3.313c0.063 0.335 0.389 0.555 0.723 0.492zM18.709 4.544c0.325 0.1 0.673-0.084 0.773-0.409l0.991-3.224c0.101-0.325-0.082-0.672-0.409-0.772-0.325-0.101-0.672 0.084-0.771 0.409l-0.993 3.224c-0.101 0.325 0.084 0.673 0.409 0.772zM24.291 7.051l2.387-2.382c0.239-0.24 0.241-0.634 0.002-0.875-0.241-0.24-0.634-0.241-0.875-0.001l-2.387 2.382c-0.241 0.24-0.242 0.634-0.002 0.875s0.634 0.241 0.875 0.001zM26.399 11.468c0.099 0.325 0.448 0.511 0.771 0.411l3.227-0.985c0.325-0.1 0.511-0.447 0.411-0.772s-0.447-0.511-0.773-0.411l-3.225 0.985c-0.326 0.1-0.51 0.447-0.412 0.772zM30.998 16.924l-3.311-0.642c-0.334-0.065-0.661 0.155-0.724 0.489-0.066 0.334 0.155 0.66 0.489 0.725l3.311 0.642c0.334 0.065 0.66-0.155 0.724-0.489 0.066-0.334-0.154-0.66-0.489-0.725z"></path>
</svg>
