<!-- Generated by IcoMoon.io -->
<svg version="1.1" xmlns="http://www.w3.org/2000/svg" width="32" height="32" viewBox="0 0 32 32">
<title>engine</title>
<path d="M31.15 9.7h-1.8c-0.45 0-0.85 0.35-0.85 0.85v3.4h-1.4v-3.25c0-0.7-0.4-0.9-1.1-0.9h-5.85v-2h3.85c0.55 0 1.050-0.45 1.050-1.050v-2.2c0.050-0.55-0.45-1.050-1-1.050h-9.2c-0.55 0-1.050 0.45-1.050 1.050v2.15c0 0.55 0.45 1.050 1.050 1.050h2.55v2h-4.6c-1 0-1.7 0.55-1.85 0.75l-2.85 2.75h-2.15c-0.7 0-1.050 0.65-1.050 1.3v2.15h-1.4v-2.1c0-0.15 0-0.3-0.050-0.4 0-0.55-0.5-1-1.050-1h-1.35c-0.55-0.050-1.050 0.45-1.050 1v9.2c0 0.55 0.45 1.050 1.050 1.050h1.4c0.55 0 1.050-0.5 1.050-1.050v0c0-0.15 0-0.3 0-0.4v-2.8h1.4v2.8c0 0.7 0.35 1.35 1.050 1.35h1.6c0.65 0.45 2.4 2.2 3.5 3.3v0 0c0.050 0.050 0.1 0.1 0.15 0.15 0.3 0.25 1.050 0.8 2.35 0.75h6.45c1.35 0.050 2.1-0.45 2.35-0.7l0.15-0.15c0 0 0 0 0 0v0l4.2-4.45c0.3-0.35 0.35-0.7 0.35-1.1v-4.7h1.45v4.050c0 0.45 0.35 0.85 0.85 0.85h1.8c0.45 0 0.85-0.35 0.85-0.85v-10.95c-0.050-0.45-0.4-0.85-0.85-0.85zM20.9 18.1l-6.5 6.65 2.2-5.95h-2.3l2.5-6.25h4.15l-3.3 5.55h3.25z"></path>
</svg>
