<!-- Generated by IcoMoon.io -->
<svg version="1.1" xmlns="http://www.w3.org/2000/svg" width="32" height="32" viewBox="0 0 32 32">
<title>envelope</title>
<path d="M0.6 7.7c0.037 0.029 0.074 0.059 0.107 0.093 4.334 4.333 13.181 11.207 15.793 11.207 2.828 0 10.935-6.846 14.751-11.162 0.045-0.051 0.095-0.097 0.149-0.138 0.445-0.333 0.596-1.289 0.6-1.702-0.001-1.104-0.896-1.999-2-1.999h-28c-1.105 0-2 0.895-2 2 0.004 0.407 0.155 1.366 0.6 1.7zM16.5 21.5c-3.838 0-13.386-8.193-16.5-11.113v15.613c0 1.105 0.895 2 2 2h28c1.105 0 2-0.895 2-2v-15.54c-2.712 2.786-11.401 11.040-15.5 11.040z"></path>
</svg>
