<!-- Generated by IcoMoon.io -->
<svg version="1.1" xmlns="http://www.w3.org/2000/svg" width="32" height="32" viewBox="0 0 32 32">
<title>Equestrian</title>
<path d="M22.166 4c0 2.025-1.642 3.667-3.666 3.667s-3.666-1.642-3.666-3.667c0-2.025 1.642-3.667 3.666-3.667s3.666 1.642 3.666 3.667zM31.622 7.848l-1.383-0.79-0.052-2.077c-0.009-0.335-0.238-0.623-0.562-0.708-0.326-0.084-0.665 0.057-0.834 0.346l-1.274 2.169c-1.432 0.179-5.944 1.182-7.059 6.636-0.854-0.091-1.541-0.354-2.050-0.795-1.113-0.963-1.157-2.569-1.157-2.569 0-0.65-0.36-1.246-0.936-1.549s-1.271-0.261-1.806 0.107c-0.228 0.156-5.599 3.906-6.725 9.569-0.142 0.713 0.174 1.427 0.771 1.81h-7.554c-0.414 0-0.75 0.336-0.75 0.75s0.336 0.75 0.75 0.75l9.041-0.001c0.52-0.029 1.013-0.075 1.489-0.132l3.413 1.54-3.422 5.407c-0.341 0.539-0.362 1.221-0.054 1.78s0.895 0.907 1.533 0.907h3.5c0.966 0 1.75-0.784 1.75-1.75s-0.784-1.75-1.75-1.75h-0.322l2.8-4.424c0.271-0.428 0.343-0.953 0.198-1.439s-0.494-0.884-0.956-1.093l-1.387-0.626c1.938-0.917 3.152-2.056 3.883-2.965 0.631 0.025 1.299-0.006 2.002-0.094 0.959-0.119 1.64-0.994 1.52-1.954s-0.994-1.642-1.954-1.519c-0.099 0.012-0.191 0.018-0.287 0.027 1.208-4.978 5.776-5.16 5.988-5.165 0.261-0.005 0.5-0.145 0.633-0.37l0.146-0.248c0.038 0.217 0.172 0.408 0.366 0.52l1.372 0.784v7.95c-0.459 0.052-1.079 0.040-1.532-0.239-0.388-0.24-0.627-0.655-0.729-1.268-0.068-0.409-0.456-0.684-0.863-0.616-0.409 0.068-0.684 0.454-0.616 0.864 0.175 1.051 0.652 1.823 1.419 2.298 1.398 0.863 3.214 0.32 3.291 0.296 0.315-0.098 0.53-0.389 0.53-0.718v-9c0-0.269-0.145-0.518-0.378-0.652zM14.952 19.072l-3.355-1.514c0.673-1.776 1.884-3.28 2.932-4.345 0.342 0.69 0.834 1.4 1.541 2.024 0.799 0.706 1.752 1.195 2.846 1.468-0.82 0.799-2.083 1.701-3.964 2.366z"></path>
</svg>
