<!-- Generated by IcoMoon.io -->
<svg version="1.1" xmlns="http://www.w3.org/2000/svg" width="32" height="32" viewBox="0 0 32 32">
<title>eraser</title>
<path d="M31.728 4.737c-0.4-0.84-1.232-1.237-2.171-1.237h-12.997c-1.466 0-2.683 1.178-3.138 1.739-0.056 0.069-0.107 0.078-0.153 0.154l-12.643 19.389c-0.9 1.2-0.576 2.716-0.388 3.11 0.388 0.815 1.21 1.109 2.2 1.109h12.997c1.137 0 2.399-0.715 3.138-1.625 0.055-0.069 0.107-0.203 0.153-0.279l12.647-19.497c0.641-0.876 0.782-1.965 0.354-2.863zM15.436 26.5h-12.967c-0.483 0-0.571-0.425-0.179-0.908l0.183-0.36 3.665-5.416c0.356-0.237 0.813-0.316 1.423-0.316h12.997c0.215 0 0.344 0.005 0.392 0.188l-3.927 5.966c-0.392 0.483-1.102 0.846-1.585 0.846z"></path>
</svg>
