<!-- Generated by IcoMoon.io -->
<svg version="1.1" xmlns="http://www.w3.org/2000/svg" width="32" height="32" viewBox="0 0 32 32">
<title>euro</title>
<path d="M23.982 24.921c-1.168 1.030-2.563 1.546-4.186 1.546-2.2 0-3.987-0.979-5.361-2.601-0.588-0.694-1.042-1.866-1.379-2.866h8.944v-3.5h-9.581c-0.028-0.5-0.047-1.137-0.047-1.687 0-0.414 0.011-0.813 0.030-1.313h9.598v-3.5h-8.964c0.344-1 0.815-2.124 1.429-2.832 1.396-1.608 3.212-2.47 5.454-2.47 1.622 0 3 0.425 4.133 1.333 0.294 0.234 0.559 0.478 0.8 0.755l3.342-4.947c-2.148-1.602-4.802-2.413-7.966-2.413-4.235 0-7.649 1.504-10.248 4.288-1.546 1.659-2.63 3.784-3.255 6.284h-2.725v3.5h2.135c-0.032 0.5-0.052 1.203-0.052 1.767 0 0.38 0.012 0.733 0.028 1.233h-2.111v3.5h2.653c0.61 2.5 1.711 4.708 3.308 6.401 2.585 2.744 5.883 4.198 9.898 4.198 3.244 0 5.921-0.759 8.031-2.361 0.069-0.052 0.131-0.091 0.198-0.145l-3.372-4.972c-0.229 0.291-0.471 0.567-0.733 0.799z"></path>
</svg>
