<!-- Generated by IcoMoon.io -->
<svg version="1.1" xmlns="http://www.w3.org/2000/svg" width="32" height="32" viewBox="0 0 32 32">
<title>ev-station</title>
<path d="M31.751 20.126c-0.009-0.035-0.64-2.721-0.64-2.721-1.732-6.887-1.268-6.979-1.268-6.979 0.392-0.563 1.45-0.32 1.17-1.597-0.469-1.595-1.267-2.929-2.041-4.195-1.709-2.792-5.668-3.821-5.668-3.821s-0.779 1.193-0.562 1.709c0.174 0.41 0.498 0.72 0.498 0.72 1.984 1.492 2.95 3.111 3.413 4.208 0.465 1.104 0.527 1.912 0.533 2.030-0.132 3.389 2.050 10.458 2.33 12.071 0 1.096-1.082 2.022-2.247 2.022-1.136 0-2.267-1.050-2.267-2.201v-6.881c0-1.198-0.324-2.366-1.089-3.165-0.776-0.809-1.759-1.324-2.944-1.324h0.033v-6.478c0-1.794-0.724-2.522-2.839-3.022h-14.577c-2.546 0.5-3.084 1.652-3.084 2.922v23.078h20.5v-13.646c0 0 1.802-0.118 1.841 1.675 0 0-0.061 6.675-0.061 6.875 0 1.236 0.459 2.399 1.348 3.282 0.887 0.883 2.043 1.366 3.281 1.366 1.189 0 2.163-0.383 3.189-1.268 1.505-1.3 1.394-3.764 1.154-4.658zM8.749 24.188l1.46-4.748-2.739-1.369 4.657-5.569-0.73 4.383 2.647 1.369-5.296 5.936zM18.5 9.5c0 0.389-0.316 0.704-0.704 0.704h-13.592c-0.389 0-0.704-0.316-0.704-0.704v-5.296c0-0.389 0.316-0.704 0.704-0.704h13.592c0.389 0 0.704 0.315 0.704 0.704v5.296zM20.658 27.5h-19.512c-0.606 0-1.147 0.372-1.147 1.172v2.328h21.5v-2.328c0-0.801-0.236-1.172-0.842-1.172z"></path>
</svg>
