<!-- Generated by IcoMoon.io -->
<svg version="1.1" xmlns="http://www.w3.org/2000/svg" width="32" height="32" viewBox="0 0 32 32">
<title>exchange</title>
<path d="M31 18.5h-23.5v-3.25c0-1-1.066-0.651-1.457-0.261l-5.303 5.303c-0.39 0.39-0.39 1.023 0 1.414l5.303 5.303c0.391 0.39 1.457 0.739 1.457-0.261v-3.25h23.5c0.552 0 1-0.273 1-0.875v-3.125c0-0.602-0.448-1-1-1zM24.5 13v3.25c0 1 1.122 0.651 1.512 0.261l5.36-5.303c0.39-0.39 0.375-1.024-0.016-1.414l-5.335-5.303c-0.39-0.391-1.52-0.74-1.52 0.261v3.25h-23.5c-0.552 0-1 0.439-1 1.042v2.959c0 0.602 0.448 1 1 1h23.5z"></path>
</svg>
