<!-- Generated by IcoMoon.io -->
<svg version="1.1" xmlns="http://www.w3.org/2000/svg" width="32" height="32" viewBox="0 0 32 32">
<title>exclamation-triangle</title>
<path d="M31.505 27.605l-14.206-24.605c-0.267-0.464-0.763-0.75-1.299-0.75s-1.031 0.286-1.299 0.75l-14.206 24.605c-0.268 0.464-0.268 1.108 0 1.573s0.763 0.822 1.505 0.822h28.412c0.33 0 0.825-0.358 1.093-0.823s0.268-1.108 0-1.572zM17.5 26.323c0 0.374-0.303 0.677-0.677 0.677h-2.145c-0.374 0-0.678-0.303-0.678-0.677v-2.145c0-0.375 0.303-0.677 0.678-0.677h2.144c0.375 0 0.678 0.303 0.678 0.677v2.146zM19 14.113c0 0.030-1.023 7.082-1.023 7.082-0.046 0.335-0.404 0.805-0.744 0.805h-2.523c-0.339 0-0.61-0.468-0.656-0.803 0 0-1.054-7.053-1.054-7.084v-3c0-0.374 0.419-0.113 0.793-0.113h4.345c0.374 0 0.861-0.261 0.861 0.113v3z"></path>
</svg>
