<!-- Generated by IcoMoon.io -->
<svg version="1.1" xmlns="http://www.w3.org/2000/svg" width="32" height="32" viewBox="0 0 32 32">
<title>exclamation</title>
<path d="M20.5 25.291c0-0.713-0.578-1.291-1.291-1.291h-5.917c-0.713 0-1.292 0.578-1.292 1.291v5.417c0 0.713 0.578 1.291 1.291 1.291h5.917c0.713 0 1.291-0.578 1.291-1.291v-5.417zM20.134 0h-8.287c-0.713 0-1.347 0.67-1.347 1.384v5.72c0 0.058 1.928 13.184 1.928 13.184 0.086 0.64 0.522 1.212 1.168 1.212h4.811c0.647 0 1.195-0.573 1.28-1.215 0 0 1.812-13.124 1.812-13.181v-5.72c0-0.714-0.654-1.384-1.366-1.384z"></path>
</svg>
