<!-- Generated by IcoMoon.io -->
<svg version="1.1" xmlns="http://www.w3.org/2000/svg" width="32" height="32" viewBox="0 0 32 32">
<title>exclamation-circle</title>
<path d="M16 0.833c-8.377 0-15.167 6.79-15.167 15.167s6.79 15.167 15.167 15.167 15.167-6.791 15.167-15.167-6.791-15.167-15.167-15.167zM18 24.721c0 0.43-0.349 0.779-0.779 0.779h-2.941c-0.431 0-0.78-0.349-0.78-0.779v-2.942c0-0.43 0.349-0.779 0.78-0.779h2.941c0.43 0 0.779 0.349 0.779 0.779v2.942zM19.5 10.663c0 0.035-1.184 8.028-1.184 8.028-0.052 0.387-0.473 0.808-0.863 0.808h-2.902c-0.389 0-0.743-0.422-0.796-0.808 0 0-1.255-7.994-1.255-8.030v-3.45c0-0.431 0.565-0.713 0.995-0.713h4.999c0.431 0 1.007 0.282 1.007 0.713v3.45z"></path>
</svg>
