<!-- Generated by IcoMoon.io -->
<svg version="1.1" xmlns="http://www.w3.org/2000/svg" width="32" height="32" viewBox="0 0 32 32">
<title>exteranl-link</title>
<path d="M30.808 1.26l-7.523 0.022c-0.552 0-1.598 0.552-0.89 1.26l2.298 2.298-14.617 14.617c-0.39 0.39-0.396 1.017 0.030 1.444l2.092 2.092c0.427 0.427 1.024 0.39 1.414 0l14.618-14.617 2.297 2.298c0.707 0.707 1.254-0.333 1.255-0.886l0.039-7.54c0-0.553-0.459-0.989-1.012-0.989zM24 25.739c0 1.105-0.895 1.761-2 1.761h-17c-1.104 0-2-0.656-2-1.761v-17c0-1.104 0.896-2.239 2-2.239h13.204l3-3h-18.204c-1.657 0-3 1.583-3 3.239v21c0 1.657 1.343 2.761 3 2.761h21c1.657 0 3-1.104 3-2.761v-13.204l-3 3v8.204z"></path>
</svg>
