<!-- Generated by IcoMoon.io -->
<svg version="1.1" xmlns="http://www.w3.org/2000/svg" width="32" height="32" viewBox="0 0 32 32">
<title>eye-slash</title>
<path d="M3.359 16.049c0.873-1.952 3.226-6.168 7.173-8.286-1.555 1.459-2.531 3.527-2.531 5.828 0 0.844 0.133 1.655 0.374 2.419l3.041-3.042c-0.262-0.396-0.416-0.868-0.416-1.377 0-1.381 1.12-2.5 2.5-2.5 0.509 0 0.982 0.155 1.377 0.416l5.394-5.394c-2.067-0.551-3.689-0.596-4.143-0.596-0.084-0.001-0.128-0.007-0.128-0.007-0.179-0.006-0.355-0.018-0.531-0.018-11.104 0-15.39 12.632-15.39 12.632 0.845 2.033 1.933 3.689 3.143 5.038l2.142-2.142c-0.739-0.844-1.422-1.824-2.004-2.972zM28.147 8.809l2.934-2.934c0.39-0.391 0.715-0.699 0.29-1.125l-2.7-2.7c-0.427-0.426-0.735-0.101-1.125 0.289l-23.971 23.971c-0.39 0.39-0.397 1.017 0.030 1.444l2.092 2.092c0.426 0.427 1.024 0.39 1.414 0l3.755-3.802c2.889 0.971 5.133 0.956 5.133 0.956 0.034 0 0.068 0 0.102 0 11.424 0 15.898-10.921 15.898-10.921-0.853-3.169-2.241-5.494-3.853-7.27zM16.102 24h-0.076c-0.032 0-1.147 0.016-2.745-0.372l2.107-2.084c0.202 0.015 0.405 0.035 0.611 0.035 4.418 0 8-3.575 8-7.994 0-0.206-0.009-0.406-0.024-0.608l2.024-2.023c1.206 1.357 2.145 2.954 2.791 4.889-1.227 2.278-5.14 8.156-12.689 8.156z"></path>
</svg>
