<!-- Generated by IcoMoon.io -->
<svg version="1.1" xmlns="http://www.w3.org/2000/svg" width="32" height="32" viewBox="0 0 32 32">
<title>eye</title>
<path d="M16.128 4.224c-0.084 0-0.128-0.006-0.128-0.006-0.179-0.006-0.355-0.018-0.531-0.018-11.104 0-15.39 12.732-15.39 12.732 4.5 10.834 15.922 11.067 15.922 11.067 0.035 0 0.068 0 0.102 0 11.424 0 15.898-11.068 15.898-11.068-3.292-12.229-14.547-12.708-15.872-12.708zM13.5 9.8c1.38 0 2.5 1.119 2.5 2.5s-1.12 2.5-2.5 2.5-2.5-1.119-2.5-2.5 1.12-2.5 2.5-2.5zM16.102 25h-0.076c-0.091 0-8.694-0.303-12.668-8.142 0.873-1.952 3.226-6.218 7.172-8.336-1.555 1.46-2.531 3.502-2.531 5.803 0 4.418 3.582 7.988 8 7.988s8-3.588 8-8.007c0-2.351-1.021-4.463-2.636-5.927 0.221 0.091 0.445 0.186 0.669 0.293 3.252 1.553 5.521 4.323 6.758 8.027-1.227 2.278-5.14 8.301-12.69 8.301z"></path>
</svg>
