<!-- Generated by IcoMoon.io -->
<svg version="1.1" xmlns="http://www.w3.org/2000/svg" width="32" height="32" viewBox="0 0 32 32">
<title>factory</title>
<path d="M28.904 15.53l-2.18 0.996-0.553-15.775c0-0.354-0.288-0.75-0.642-0.75h-2.532c-0.355 0-0.642 0.395-0.642 0.75l-0.628 18.019-4.224 1.998v-4.326c0-0.738-0.727-1.041-1.292-0.912l-2.197 0.995-0.562-10.972c0-0.354-0.296-0.553-0.65-0.553h-2.534c-0.354 0-0.642 0.199-0.642 0.553l-0.661 13.313-6.309 2.858c-0.573 0.229-1.154 0.788-1.154 1.887v8.389l7.5-0.011v-5.974c0-0.151 0.22-0.515 0.448-0.515h4.348c0.229 0 0.204 0.363 0.204 0.515v5.985h16.5v-15.559c0-0.738-1.032-1.041-1.596-0.911zM23 26.558c0 0.244-0.198 0.442-0.442 0.442h-2.615c-0.244 0-0.442-0.198-0.442-0.442v-2.614c0-0.245 0.198-0.443 0.442-0.443h2.615c0.244 0 0.442 0.198 0.442 0.442v2.615zM28 26.558c0 0.244-0.198 0.442-0.442 0.442h-2.615c-0.244 0-0.442-0.198-0.442-0.442v-2.614c0-0.245 0.198-0.443 0.442-0.443h2.615c0.244 0 0.442 0.198 0.442 0.442v2.615z"></path>
</svg>
