<!-- Generated by IcoMoon.io -->
<svg version="1.1" xmlns="http://www.w3.org/2000/svg" width="32" height="32" viewBox="0 0 32 32">
<title>fan</title>
<path d="M29.412 13.436c0-7.42-6.003-13.436-13.425-13.436-7.42 0-13.405 6.016-13.405 13.436 0 6.895 5.418 12.575 11.918 13.343v2.020c0 0.038-0.041 0.202-0.039 0.202h-6.358c-0.859 0-1.553 0.642-1.559 1.5 0.005 0.857 0.7 1.5 1.559 1.5h15.793c0.859 0 1.555-0.642 1.56-1.5-0.006-0.858-0.701-1.5-1.56-1.5h-6.357c0.003 0-0.038-0.163-0.038-0.202v-2.020c6.5-0.769 11.912-6.448 11.912-13.342zM16 10.869c1.417 0 2.567 1.149 2.567 2.566 0 1.418-1.149 2.567-2.567 2.567s-2.566-1.149-2.566-2.566c0-1.417 1.149-2.566 2.566-2.566zM21.57 23.276c-2.935 1.309-1.491-3.344-2.369-5.314-0.178-0.4-0.505-0.803-0.884-1.202 1.050-0.733 1.738-1.948 1.738-3.325 0-0.334-0.045-0.658-0.122-0.969 2.392 0.536 4.832 2.375 5.73 4.39 1.308 2.934-1.159 5.111-4.094 6.419zM17.686 17.119c0.032-0.015 0.064-0.030 0.095-0.046-0.031 0.016-0.063 0.031-0.095 0.046zM19.852 3.364c2.934-1.308 5.111 1.159 6.42 4.093s-3.344 1.491-5.314 2.369c-0.542 0.241-1.088 0.753-1.623 1.304-0.732-1.056-1.951-1.751-3.334-1.751-0.204 0-0.403 0.021-0.6 0.050 0.429-2.495 2.341-5.126 4.45-6.066zM10.453 3.233c2.936-1.308 1.491 3.344 2.369 5.314 0.21 0.472 0.627 0.947 1.094 1.415-1.178 0.71-1.97 1.997-1.97 3.473 0 0.199 0.019 0.393 0.047 0.585-2.361-0.566-4.747-2.38-5.633-4.367-1.308-2.934 1.158-5.111 4.093-6.42zM12.649 23.316c-2.934 1.308-5.112-1.158-6.42-4.093s3.344-1.491 5.314-2.369c0.418-0.186 0.839-0.535 1.256-0.937 0.742 0.956 1.899 1.574 3.203 1.574 0.403 0 0.791-0.061 1.159-0.171-0.022 0.007-0.041 0.017-0.063 0.024-0.463 2.468-2.366 5.044-4.448 5.972z"></path>
</svg>
