<!-- Generated by IcoMoon.io -->
<svg version="1.1" xmlns="http://www.w3.org/2000/svg" width="32" height="32" viewBox="0 0 32 32">
<title>farm</title>
<path d="M31.314 22.5h-1.314v-8.216c0-0.287 0.015-0.864-0.401-1.271l-5.527-4.656c-0.528-0.527-1.362-0.527-1.889 0l-5.561 4.656c-0.244 0.244-0.466 0.557-0.485 0.877-0.028 0.127-0.137 0.259-0.137 0.395v8.216h-2v-3.994c0-0.066-0.007-0.198-0.069-0.293l-0.825-1.072c-0.078-0.122-0.204-0.122-0.281 0l-0.828 1.072c-0.036 0.056-0.021 0.128-0.024 0.202-0.005 0.029 0.027 0.059 0.027 0.090v-0.006h-3v0.006c0-0.066-0.027-0.198-0.089-0.293l-0.835-1.072c-0.078-0.122-0.208-0.122-0.287 0l-0.83 1.072c-0.036 0.056-0.003 0.128-0.005 0.202-0.005 0.029 0.046 0.059 0.046 0.090v-0.006h-3v0.006c0-0.066-0.047-0.198-0.108-0.293l-0.845-1.072c-0.078-0.122-0.214-0.122-0.292 0l-0.832 1.072c-0.036 0.056 0.016 0.128 0.012 0.202-0.004 0.029 0.065 0.059 0.065 0.090v3.994h-1.315c-0.379 0-0.685 0.324-0.685 0.703v1.297h32v-1.297c0-0.378-0.306-0.703-0.686-0.703zM7 22.5h-3v-2.5h3v2.5zM12 22.5h-3v-2.5h3v2.5zM26.5 22.5h-7v-3.723c0-0.513 0.567-0.777 1.078-0.777h5.218c0.512 0 0.703 0.265 0.703 0.777v3.723z"></path>
</svg>
