<!-- Generated by IcoMoon.io -->
<svg version="1.1" xmlns="http://www.w3.org/2000/svg" width="32" height="32" viewBox="0 0 32 32">
<title>feed</title>
<path d="M22.17 9.6c-5.048-5.008-11.141-7.112-18.252-7.112-0.048 0-0.095 0.001-0.143 0.002l0.040 0.002c-0.521 0.002-0.816 0.426-0.816 0.948v3.432c0 0.253-0.026 0.337 0.155 0.514 0.178 0.176 0.29 0.114 0.54 0.114 0.004 0 0.008 0 0.011 0l0.105 0.157c0.035-0 0.070 0.078 0.106 0.077 11.614-0.083 20.622 8.457 20.497 20.305-0.006 0.521 0.428 0.959 0.949 0.959h3.43c0.253 0 0.495-0.081 0.674-0.262 0.178-0.18 0.277-0.413 0.275-0.666-0.063-7.104-2.529-13.469-7.573-18.474zM14.584 16.72c-3.28-2.87-5.571-3.328-10.547-3.459-0.052-0.001-0.037 0.002-0.037 0.004v0.002c-0.5 0.007-1 0.429-1 0.948v2.993c0 0.255-0.025 0.42 0.157 0.599 0.178 0.174 0.29 0.194 0.538 0.194 0.006 0 0.011 0 0.018 0 0.046 0 0.092 0.075 0.138 0.073 0.022-0.002 0.045 0.036 0.067 0.036 5.234 0 9.718 3.308 9.693 9.963-0.002 0.516 0.432 0.928 0.947 0.928h3.936c0.255 0 0.497-0.082 0.675-0.262 0.178-0.181 0.281-0.416 0.273-0.671-0.118-3.779-1.066-8.027-4.86-11.347zM8.894 26.194c0 1.833-1.486 3.319-3.319 3.319s-3.319-1.486-3.319-3.319c0-1.833 1.486-3.319 3.319-3.319s3.319 1.486 3.319 3.319z"></path>
</svg>
