<!-- Generated by IcoMoon.io -->
<svg version="1.1" xmlns="http://www.w3.org/2000/svg" width="32" height="32" viewBox="0 0 32 32">
<title>Female-gender-sign</title>
<path d="M23.588 18.32c4.191-4.19 4.191-10.985 0-15.177-4.191-4.191-10.986-4.191-15.177 0-4.191 4.192-4.191 10.986 0 15.177 1.561 1.561 3.483 2.54 5.497 2.938v2.206h-3.838c-0.162 0-0.324 0.063-0.448 0.186-0.123 0.123-0.185 0.285-0.185 0.448v2.823c0 0.349 0.284 0.633 0.633 0.634 0.001 0 0.001 0 0.002 0h3.837v3.814c0 0.308 0.221 0.565 0.514 0.62v0.011h0.118c0.001 0 0 0 0.001 0h2.823c0.35 0 0.634-0.282 0.634-0.632h0v-3.814h3.93c0.349 0 0.633-0.284 0.633-0.634v-2.823c0-0.163-0.061-0.325-0.184-0.448s-0.286-0.186-0.448-0.186h-3.93v-2.189c2.047-0.386 4.003-1.37 5.588-2.955zM16 17.374c-3.668 0-6.642-2.973-6.64-6.642 0-3.668 2.973-6.643 6.641-6.643s6.642 2.973 6.641 6.643c0 3.667-2.974 6.642-6.642 6.642z"></path>
</svg>
