<!-- Generated by IcoMoon.io -->
<svg version="1.1" xmlns="http://www.w3.org/2000/svg" width="32" height="32" viewBox="0 0 32 32">
<title>Fencing</title>
<path d="M24.166 6.5c0 2.025-1.642 3.666-3.666 3.666s-3.666-1.642-3.666-3.667c0-2.025 1.642-3.667 3.666-3.667s3.666 1.642 3.666 3.667zM31 17.5h-3.107c-0.326-1.154-1.386-2-2.643-2-1.068 0-1.991 0.611-2.447 1.5h-3.803v-4.5c0-0.616-0.323-1.155-0.852-1.47l-0.752-0.444c-0.038-0.052-0.072-0.105-0.116-0.153-0.286-0.306-0.657-0.479-1.043-0.532l-2.982-1.764 0.036-6c0.006-0.967-0.774-1.635-1.739-1.635-0.004 0-0.007 0-0.011 0-0.962 0-1.744 0.652-1.75 1.615l-0.041 6.938c-0.004 0.62 0.321 1.194 0.852 1.512l2.418 1.446-4.303 4.013c-0.835 0.114-1.471 0.736-1.468 1.609l0.028 6.227-6.176 5.035c-0.574 0.468-0.791 1.246-0.542 1.944s0.909 1.163 1.648 1.163h3.792c0.966 0 1.75-0.776 1.75-1.742 0-0.657-0.362-1.221-0.897-1.52l3.284-2.662c0.020-0.017 0.034-0.037 0.053-0.053 0.495 0.012 0.959 0.018 1.387 0.018 4.91 0 5.691-0.753 6.047-1.096 0.403-0.39 0.625-0.902 0.625-1.444 0-0.784 0-1.744-5.976-6.008l3.226-3.008v4.265c0 0.967 0.784 1.75 1.75 1.75h6.422c0.448 0.314 0.99 0.5 1.578 0.5 1.259 0 2.317-0.846 2.643-2h3.107c0.414 0 0.75-0.336 0.75-0.75s-0.336-0.75-0.75-0.75zM13.076 22.495c-0.7 0.029-1.495 0.039-2.305 0.032l-0.008-1.793c0.836 0.613 1.638 1.223 2.313 1.762z"></path>
</svg>
