<!-- Generated by IcoMoon.io -->
<svg version="1.1" xmlns="http://www.w3.org/2000/svg" width="32" height="32" viewBox="0 0 32 32">
<title>fencing-sword</title>
<path d="M2.333 31.155l-1.415-1.415 4.95-4.95 1.415 1.415-4.95 4.95zM0.565 31.509c0.391 0.39 1.024 0.39 1.415 0l-1.415-1.415c-0.39 0.39-0.39 1.023 0 1.415zM22.978 22.344l-6.271-6.271 14.874-14.874c0.195-0.195 0.195-0.511 0-0.707s-0.512-0.196-0.707 0l-14.874 14.874-14.874-14.874c-0.196-0.196-0.511-0.196-0.707 0s-0.196 0.512 0 0.707l14.874 14.875-6.271 6.271c-1.37-1.026-3.322-0.921-4.568 0.326l4.949 4.95c1.246-1.246 1.352-3.198 0.325-4.569l6.271-6.27 6.271 6.27c-1.027 1.371-0.921 3.322 0.325 4.569l4.95-4.95c-1.246-1.247-3.197-1.352-4.567-0.326zM24.718 26.203l1.414-1.414 4.949 4.95-1.414 1.414-4.949-4.95zM30.020 31.509c0.39 0.39 1.024 0.39 1.415 0s0.39-1.024 0-1.415l-1.415 1.415z"></path>
</svg>
