<!-- Generated by IcoMoon.io -->
<svg version="1.1" xmlns="http://www.w3.org/2000/svg" width="32" height="32" viewBox="0 0 32 32">
<title>field-force</title>
<path d="M10.429 10.334c-0.813-0.813-2.13-0.813-2.943 0s-0.813 2.13 0 2.942l6.522 6.522c0.101 0.24 0.247 0.466 0.443 0.662 0.813 0.813 2.13 0.813 2.942 0l14.035-14.034c0.813-0.813 0.813-2.13 0-2.942s-2.13-0.813-2.942 0l-12.453 12.454-5.603-5.604zM28.328 11.915c0.277 0.832 0.482 1.697 0.584 2.594-0.787 0.046-1.412 0.693-1.412 1.491s0.625 1.444 1.412 1.491c-0.686 5.979-5.442 10.735-11.421 11.421-0.047-0.786-0.693-1.412-1.491-1.412s-1.444 0.625-1.491 1.412c-5.979-0.686-10.735-5.442-11.421-11.421 0.787-0.047 1.412-0.693 1.412-1.491s-0.625-1.444-1.412-1.491c0.687-5.979 5.442-10.735 11.421-11.421 0.046 0.787 0.693 1.412 1.491 1.412s1.445-0.625 1.491-1.412c2.311 0.265 4.436 1.144 6.217 2.461l2.148-2.148c-2.718-2.128-6.137-3.401-9.857-3.401-8.837 0-16 7.163-16 16s7.163 16 16 16 16-7.163 16-16c0-2.282-0.481-4.451-1.342-6.415l-2.331 2.33z"></path>
</svg>
