<!-- Generated by IcoMoon.io -->
<svg version="1.1" xmlns="http://www.w3.org/2000/svg" width="32" height="32" viewBox="0 0 32 32">
<title>Figure-Skating</title>
<path d="M27.166 6.5c0 2.025-1.642 3.666-3.666 3.666s-3.666-1.642-3.666-3.667c0-2.025 1.642-3.667 3.666-3.667s3.666 1.642 3.666 3.667zM30.238 10.262c-0.683-0.683-1.791-0.683-2.475 0-1.838 1.839-4.598 1.396-6.055 0.982-0.257-0.246-0.578-0.406-0.922-0.464l-7.009-7.477c-0.661-0.705-1.768-0.741-2.473-0.079s-0.741 1.768-0.079 2.474l5.885 6.277c-2.096 0.649-4.804 1.072-6.684 0.026-1.557-0.867-2.459-2.762-2.68-5.635-0.038-0.502-0.292-0.963-0.695-1.266l-2-1.5c-0.774-0.581-1.87-0.423-2.45 0.35s-0.423 1.87 0.35 2.45l1.384 1.038c0.442 3.684 1.917 6.245 4.389 7.62 1.402 0.78 2.965 1.065 4.501 1.065 0.382 0 0.76-0.022 1.135-0.054 0.073 0.064 0.149 0.125 0.234 0.177 0.62 0.378 5.962 3.867 2.863 9.679-0.29 0.543-0.273 1.197 0.044 1.724s0.887 0.85 1.501 0.85h3c0.966 0 1.75-0.784 1.75-1.75s-0.784-1.75-1.75-1.75h-0.422c1.147-4.248-0.709-7.7-2.846-9.883 0.646-0.22 1.195-0.439 1.623-0.623 0.906 0.288 2.293 0.624 3.849 0.624 1.963 0 4.189-0.536 6.034-2.38 0.683-0.684 0.683-1.791-0-2.475zM23.5 29h-5.5c-0.415 0-0.75 0.336-0.75 0.75s0.335 0.75 0.75 0.75h5.5c0.415 0 0.75-0.336 0.75-0.75s-0.335-0.75-0.75-0.75z"></path>
</svg>
