<!-- Generated by IcoMoon.io -->
<svg version="1.1" xmlns="http://www.w3.org/2000/svg" width="32" height="32" viewBox="0 0 32 32">
<title>file-music</title>
<path d="M28.5 10.381c0-0.002 0-0.005 0-0.007 0-0.088-0.14-0.172-0.18-0.252-0.011-0.021-0.067-0.041-0.078-0.063-0.046-0.080-0.12-0.156-0.187-0.222l-9.541-9.53c-0.067-0.067-0.149-0.119-0.229-0.166-0.020-0.011-0.041-0.032-0.062-0.042-0.081-0.040-0.169-0.101-0.257-0.101-0.002 0-0.004 0-0.006 0-0.067 0-0.134 0-0.201 0h-13.048c-0.581 0-1.212 0.471-1.212 1.052v29.895c0 0.581 0.63 1.052 1.212 1.052h22.577c0.582 0 1.212-0.471 1.212-1.052v-20.366c0-0.068 0-0.136 0-0.201zM19 3.593l5.099 5.178 0.649 0.729h-5.747v-5.907zM26 30h-20v-28h10.5v8.582c0 0.581 0.677 0.918 1.259 0.918h8.241v18.5zM12.5 15.8v8.811c-0.5-0.186-0.848-0.3-1.393-0.3-1.623 0-2.833 1.251-2.833 2.37 0 1.117 1.069 1.84 2.747 1.84 1.627 0 2.979-1.25 2.979-2.371v-7.213l6.5-1.783v5.594c-0.5-0.176-0.798-0.296-1.346-0.296-1.604 0-2.811 1.252-2.811 2.371 0 1.101 1.261 1.84 2.962 1.84 1.593 0 2.695-1.23 2.695-2.37v-10.882c0-0.077-0.156-0.149-0.218-0.196-0.043-0.034-0.17-0.052-0.224-0.052-0.022 0-0.067 0.002-0.087 0.008l-8.772 2.389c-0.108 0.028-0.2 0.127-0.2 0.239z"></path>
</svg>
