<!-- Generated by IcoMoon.io -->
<svg version="1.1" xmlns="http://www.w3.org/2000/svg" width="32" height="32" viewBox="0 0 32 32">
<title>file-log</title>
<path d="M16.927 21.367c0-0.657-0.144-1.145-0.431-1.469s-0.67-0.485-1.146-0.485-0.861 0.163-1.152 0.49c-0.291 0.327-0.438 0.82-0.438 1.479 0 0.648 0.149 1.14 0.449 1.474s0.679 0.502 1.14 0.502 0.839-0.166 1.135-0.498c0.296-0.331 0.444-0.829 0.444-1.494zM28.401 10.382c-0-0.003-0.041-0.006-0.041-0.009-0.017-0.088-0.070-0.171-0.109-0.251-0.011-0.022-0.032-0.043-0.044-0.064-0.046-0.079-0.103-0.155-0.169-0.221l-9.532-9.53c-0.067-0.067-0.143-0.118-0.224-0.165-0.020-0.012-0.041-0.022-0.061-0.032-0.081-0.040-0.165-0.073-0.253-0.091-0.003 0-0.005 0-0.008-0.001-0.066-0.013-0.133-0.019-0.201-0.019h-13.048c-0.581 0-1.212 0.47-1.212 1.052v29.895c0 0.581 0.63 1.052 1.212 1.052h22.577c0.582 0 1.212-0.471 1.212-1.052v-20.365c0-0.068-0.087-0.135-0.099-0.2zM19 3.593l5.747 5.907h-5.747v-5.907zM26 30h-20v-3h20v3zM12 23.5v1h-4v-6h1v5h3zM12.569 21.422c0-0.583 0.087-1.073 0.261-1.469 0.13-0.291 0.308-0.553 0.533-0.785s0.472-0.404 0.74-0.515c0.357-0.151 0.768-0.227 1.235-0.227 0.844 0 1.519 0.262 2.025 0.785s0.76 1.252 0.76 2.183c0 0.925-0.252 1.648-0.754 2.17s-1.175 0.783-2.015 0.783c-0.851 0-1.529-0.26-2.031-0.779s-0.754-1.235-0.754-2.146zM20.471 22.849c0.302 0.34 0.698 0.51 1.188 0.51 0.242 0 0.478-0.047 0.721-0.142s0.62-0.21 0.62-0.346v-0.872h-1.5v-1h2.5v2.461c0 0.235-0.503 0.441-0.962 0.619s-0.88 0.267-1.351 0.267c-0.599 0-1.099-0.125-1.544-0.377s-0.769-0.61-0.992-1.078c-0.224-0.468-0.331-0.976-0.331-1.526 0-0.596 0.128-1.126 0.378-1.59s0.617-0.819 1.099-1.067c0.367-0.19 0.825-0.285 1.372-0.285 0.711 0 1.267 0.149 1.666 0.448s0.657 0.71 0.771 1.236l-1.148 0.215c-0.081-0.282-0.233-0.503-0.455-0.666s-0.5-0.244-0.834-0.244c-0.506 0-0.907 0.16-1.205 0.48s-0.448 0.796-0.448 1.426c0 0.679 0.151 1.189 0.454 1.529zM26 15.5h-20v-13.5h10.5v8.582c0 0.581 0.677 0.918 1.259 0.918h8.241v4z"></path>
</svg>
