<!-- Generated by IcoMoon.io -->
<svg version="1.1" xmlns="http://www.w3.org/2000/svg" width="32" height="32" viewBox="0 0 32 32">
<title>file-search</title>
<path d="M28.401 10.381c-0.001-0.002-0.041-0.005-0.041-0.007-0.018-0.088-0.070-0.171-0.11-0.252-0.010-0.021-0.032-0.041-0.044-0.063-0.046-0.080-0.104-0.156-0.169-0.222l-9.532-9.53c-0.067-0.067-0.143-0.119-0.224-0.166-0.020-0.011-0.040-0.032-0.060-0.042-0.082-0.040-0.167-0.101-0.256-0.101-0.002 0-0.004 0-0.006 0-0.066 0-0.134 0-0.201 0h-13.047c-0.582 0-1.212 0.471-1.212 1.052v29.895c0 0.581 0.631 1.052 1.212 1.052h22.576c0.582 0 1.212-0.471 1.212-1.052v-20.366c0-0.068-0.087-0.136-0.099-0.201zM19 3.593l5.099 5.178 0.649 0.729h-5.748v-5.907zM26 30h-20v-28h10.5v8.582c0 0.581 0.678 0.918 1.26 0.918h8.24v18.5zM17.13 14.7c-2.15-1.95-5.486-1.787-7.437 0.363s-1.787 5.486 0.363 7.436c1.887 1.713 4.689 1.797 6.665 0.334l1.154 1.047c-0.091 0.517 0.072 1.069 0.489 1.447l3.048 2.764 2.386-2.631-3.047-2.765c-0.418-0.378-0.982-0.488-1.488-0.346l-1.154-1.048c1.262-2.108 0.907-4.888-0.98-6.601zM15.644 20.462c-1.026 1.131-2.781 1.218-3.914 0.191-1.131-1.026-1.216-2.782-0.191-3.913 1.027-1.131 2.783-1.218 3.914-0.191 1.132 1.026 1.218 2.782 0.191 3.913z"></path>
</svg>
