<!-- Generated by IcoMoon.io -->
<svg version="1.1" xmlns="http://www.w3.org/2000/svg" width="32" height="32" viewBox="0 0 32 32">
<title>file-movie</title>
<path d="M28.322 10.38c0-0.001 0-0.003 0-0.004-0.018-0.089-0.052-0.173-0.091-0.254-0.011-0.021-0.021-0.041-0.033-0.062-0.046-0.079-0.099-0.156-0.165-0.222l-9.529-9.53c-0.067-0.067-0.143-0.119-0.224-0.166-0.020-0.011-0.038-0.021-0.058-0.031-0.082-0.040-0.167-0.073-0.256-0.091-0.002 0-0.004 0-0.005 0-0.067-0.013-0.134-0.019-0.202-0.019h-13.047c-0.581 0-1.053 0.471-1.053 1.052v29.895c0 0.581 0.472 1.052 1.053 1.052h22.577c0.581 0 1.052-0.471 1.052-1.052v-20.366c0-0.069-0.007-0.136-0.020-0.203zM18.811 3.594l5.936 5.936h-5.936v-5.936zM5.763 29.895v-27.79h10.944v8.477c0 0.582 0.471 1.053 1.052 1.053h8.477v18.261h-20.473zM23.246 18.567c-0.252-0.137-0.561-0.123-0.801 0.035l-3.441 2.271v-2.329c0-0.409-0.332-0.741-0.741-0.741h-8.883c-0.408 0-0.74 0.332-0.74 0.741v7.887c0 0.409 0.332 0.741 0.74 0.741h8.884c0.409 0 0.741-0.332 0.741-0.741v-2.329l3.441 2.271c0.131 0.086 0.28 0.129 0.431 0.129 0.126 0 0.253-0.031 0.369-0.093 0.253-0.136 0.412-0.401 0.412-0.688v-6.463c0-0.288-0.159-0.552-0.412-0.688z"></path>
</svg>
