<!-- Generated by IcoMoon.io -->
<svg version="1.1" xmlns="http://www.w3.org/2000/svg" width="32" height="32" viewBox="0 0 32 32">
<title>file-text</title>
<path d="M17.759 11.634c-0.582 0-1.052-0.471-1.052-1.052v-10.582h-11.995c-0.581 0-1.053 0.471-1.053 1.052v29.895c0 0.581 0.471 1.052 1.053 1.052h22.576c0.582 0 1.052-0.471 1.052-1.052v-19.314h-10.581zM23.882 28.555h-15.764c-0.488 0-0.883-0.395-0.883-0.883s0.396-0.884 0.883-0.884h15.764c0.488 0 0.883 0.395 0.883 0.884 0 0.488-0.395 0.883-0.883 0.883zM23.882 23.59h-15.764c-0.488 0-0.883-0.395-0.883-0.884 0-0.488 0.396-0.883 0.883-0.883h15.764c0.488 0 0.883 0.395 0.883 0.883s-0.395 0.884-0.883 0.884zM23.882 18.625h-15.764c-0.488 0-0.883-0.395-0.883-0.884s0.396-0.883 0.883-0.883h15.764c0.488 0 0.883 0.395 0.883 0.883s-0.395 0.884-0.883 0.884zM18.811 0.617v8.913h8.912z"></path>
</svg>
