<!-- Generated by IcoMoon.io -->
<svg version="1.1" xmlns="http://www.w3.org/2000/svg" width="32" height="32" viewBox="0 0 32 32">
<title>file-archive</title>
<path d="M28.321 10.381c0-0.002 0-0.005-0-0.007-0.017-0.088-0.051-0.172-0.090-0.252-0.011-0.021-0.022-0.041-0.034-0.063-0.046-0.080-0.098-0.156-0.164-0.222l-9.53-9.53c-0.067-0.067-0.143-0.119-0.223-0.166-0.020-0.011-0.039-0.021-0.059-0.032-0.081-0.040-0.166-0.073-0.255-0.091-0.002 0-0.003 0-0.006-0.001-0.066-0.013-0.133-0.019-0.201-0.019h-13.047c-0.582 0-1.053 0.471-1.053 1.052v29.895c0 0.581 0.471 1.052 1.053 1.052h22.576c0.582 0 1.052-0.471 1.052-1.052v-20.366c0-0.068-0.006-0.136-0.020-0.201zM24.747 9.53h-5.936v-5.936l5.936 5.936zM5.764 29.895v-27.79h10.943v8.477c0 0.582 0.471 1.053 1.052 1.053h8.477v18.261h-20.471zM13.961 18.096h-2.679l-1.683 4.685c-0.143 0.474-0.536 1.398-0.536 2.084 0 1.961 1.589 3.549 3.549 3.549s3.55-1.588 3.55-3.55c0-0.599-0.223-1.215-0.413-1.874l-1.788-4.896zM12.611 26.394c-0.813 0-1.473-0.659-1.473-1.474 0-0.814 0.66-1.474 1.473-1.474 0.816 0 1.474 0.66 1.474 1.474 0 0.816-0.659 1.474-1.474 1.474zM11.655 16.789h1.917c0.243 0 0.441-0.198 0.441-0.441v-2.591c0-0.243-0.197-0.441-0.441-0.441h-1.916c-0.243 0-0.441 0.197-0.441 0.441v2.591c0 0.243 0.197 0.441 0.441 0.441zM11.655 12.009h1.917c0.243 0 0.441-0.197 0.441-0.441v-2.591c0-0.243-0.197-0.441-0.441-0.441h-1.916c-0.243 0-0.441 0.197-0.441 0.441v2.591c0 0.243 0.197 0.441 0.441 0.441zM11.655 7.231h1.917c0.243 0 0.441-0.197 0.441-0.441v-2.591c0-0.243-0.197-0.441-0.441-0.441h-1.916c-0.243 0-0.441 0.197-0.441 0.441v2.591c0 0.243 0.197 0.441 0.441 0.441z"></path>
</svg>
