<!-- Generated by IcoMoon.io -->
<svg version="1.1" xmlns="http://www.w3.org/2000/svg" width="32" height="32" viewBox="0 0 32 32">
<title>file-pdf</title>
<path d="M28.322 10.38c0-0.001 0-0.003 0-0.004-0.018-0.089-0.052-0.173-0.091-0.254-0.011-0.021-0.021-0.041-0.033-0.062-0.046-0.079-0.099-0.156-0.165-0.222l-9.529-9.53c-0.067-0.067-0.143-0.119-0.224-0.166-0.020-0.011-0.038-0.021-0.058-0.031-0.082-0.040-0.167-0.073-0.256-0.091-0.002 0-0.004 0-0.005 0-0.067-0.013-0.134-0.019-0.202-0.019h-13.047c-0.581 0-1.053 0.471-1.053 1.052v29.895c0 0.581 0.472 1.052 1.053 1.052h22.577c0.581 0 1.052-0.471 1.052-1.052v-20.366c0-0.069-0.007-0.136-0.020-0.203zM18.811 3.594l5.936 5.936h-5.936v-5.936zM5.763 29.895v-27.79h10.944v8.477c0 0.582 0.471 1.053 1.052 1.053h8.477v18.261h-20.473zM21.014 19.482c-0.064 0.005-0.13 0.011-0.198 0.018-0.82 0.087-1.857 0.314-2.95 0.645-0.336-0.214-0.683-0.454-1.035-0.718-0.677-0.506-1.282-1.163-1.803-1.957 0.156-0.66 0.264-1.27 0.322-1.816 0.239-2.261 0.053-3.565-0.607-4.225-0.357-0.357-0.831-0.505-1.364-0.424-0.458 0.070-0.855 0.339-1.118 0.756-0.441 0.703-0.498 1.799-0.149 2.931 0.232 0.759 0.611 1.872 1.268 3.024-0.687 2.543-1.861 5.064-1.874 5.090l-0.018 0.041-0.005 0.015c-1.331 0.658-2.748 1.489-3.598 2.665-0.574 0.794-0.686 1.666-0.299 2.334 0.286 0.493 0.801 0.764 1.346 0.706 0.046-0.005 0.094-0.012 0.139-0.023 1.922-0.404 3.002-2.727 3.657-4.579 0.34-0.16 0.684-0.316 1.018-0.468 0.499-0.227 0.97-0.441 1.422-0.663 0.755-0.37 1.614-0.721 2.501-1.018 1.45 0.826 2.794 1.233 3.996 1.212 0.131-0.003 0.26-0.011 0.382-0.023 1.127-0.119 1.593-0.658 1.77-0.968 0.223-0.39 0.248-0.838 0.070-1.23-0.455-0.997-1.421-1.443-2.872-1.326zM8.899 27.005c-0.003-0.108 0.037-0.307 0.232-0.576 0.352-0.487 0.864-0.916 1.441-1.296-0.634 1.237-1.22 1.718-1.672 1.872zM13.611 12.524c0.006-0.001 0.012-0.002 0.018-0.002 0.014-0.002 0.025-0.002 0.032-0.002 0.055 0.060 0.376 0.513 0.2 2.572-0.114-0.315-0.207-0.602-0.282-0.849-0.309-1.006-0.083-1.659 0.031-1.72zM15.977 20.803c-0.521 0.206-1.023 0.427-1.488 0.657-0.292 0.143-0.598 0.287-0.918 0.433 0.271-0.671 0.589-1.505 0.882-2.404l0.046 0.075 0.046-0.186c0.421 0.486 0.877 0.914 1.366 1.279 0.034 0.025 0.069 0.050 0.101 0.075l-0.101 0.032 0.065 0.040zM21.885 21.48c-0.078 0.009-0.161 0.013-0.248 0.015-0.515 0.009-1.077-0.092-1.683-0.302 0.442-0.091 0.846-0.154 1.186-0.18 0.889-0.072 1.17 0.14 1.286 0.314-0.082 0.052-0.25 0.123-0.54 0.154z"></path>
</svg>
