<!-- Generated by IcoMoon.io -->
<svg version="1.1" xmlns="http://www.w3.org/2000/svg" width="32" height="32" viewBox="0 0 32 32">
<title>file-excel</title>
<path d="M28.322 10.381c-0-0.002-0-0.005-0.001-0.007-0.018-0.088-0.051-0.172-0.090-0.252-0.010-0.021-0.021-0.041-0.033-0.063-0.046-0.080-0.098-0.156-0.165-0.222l-9.529-9.53c-0.067-0.067-0.143-0.119-0.223-0.166-0.020-0.011-0.039-0.021-0.059-0.032-0.081-0.040-0.166-0.073-0.255-0.091-0.002 0-0.003 0-0.006-0.001-0.066-0.013-0.133-0.019-0.201-0.019h-13.047c-0.582 0-1.053 0.471-1.053 1.052v29.895c0 0.581 0.471 1.052 1.053 1.052h22.576c0.581 0 1.052-0.471 1.052-1.052v-20.366c0-0.068-0.006-0.136-0.019-0.201zM24.747 9.53h-5.936v-5.936l5.936 5.936zM5.764 29.895v-27.79h10.943v8.477c0 0.582 0.471 1.053 1.052 1.053h8.477v18.261h-20.471zM16.924 16.211h1.104l-2.069 2.777-1.963-2.777h1.156v-0.932h-6.176v0.932h1.214l3.943 5.039-4.127 5.368h-1.030v0.932h6.176v-0.932h-1.489l2.296-3.156 2.276 3.156h-1.311v0.932h6.175v-0.932h-1.030l-4.237-5.489 3.865-4.918h1.402v-0.932h-6.175z"></path>
</svg>
