<!-- Generated by IcoMoon.io -->
<svg version="1.1" xmlns="http://www.w3.org/2000/svg" width="32" height="32" viewBox="0 0 32 32">
<title>file-dwg</title>
<path d="M10.361 21.64c0-0.442-0.039-0.782-0.117-1.020s-0.188-0.422-0.328-0.555-0.319-0.344-0.535-0.39c-0.162-0.037-0.479-0.176-0.95-0.176h-0.431v4h0.775c0.323 0 0.556-0 0.699-0.037 0.188-0.047 0.344-0.117 0.467-0.23s0.225-0.292 0.303-0.549 0.117-0.602 0.117-1.044zM28.401 10.382c-0-0.003-0.041-0.006-0.041-0.009-0.017-0.088-0.070-0.171-0.109-0.251-0.011-0.022-0.032-0.043-0.044-0.064-0.046-0.079-0.103-0.155-0.169-0.221l-9.532-9.53c-0.067-0.067-0.143-0.118-0.224-0.165-0.020-0.012-0.041-0.022-0.061-0.032-0.081-0.040-0.165-0.073-0.253-0.091-0.003 0-0.005 0-0.008-0.001-0.066-0.013-0.133-0.019-0.201-0.019h-13.048c-0.581 0-1.212 0.47-1.212 1.052v29.895c0 0.581 0.63 1.052 1.212 1.052h22.577c0.582 0 1.212-0.471 1.212-1.052v-20.365c0-0.068-0.087-0.135-0.099-0.2zM19 3.593l5.747 5.907h-5.747v-5.907zM26 30h-20v-3h20v3zM7 24.5l0.016-5.664 1.907-0.008c0.476 0 0.844 0.102 1.125 0.258 0.354 0.196 0.536 0.253 0.775 0.506s0.422 0.471 0.547 0.837 0.188 0.771 0.188 1.308c0 0.471-0.059 0.855-0.176 1.196-0.143 0.417-0.348 0.743-0.614 1.001-0.2 0.195-0.471 0.342-0.813 0.451-0.255 0.081-0.596 0.115-1.024 0.115h-1.931zM11.982 19h1.184l0.864 3.933 1.046-3.933h1.375l1.004 4 0.879-4h1.164l-1.39 5.5h-1.227l-1.14-4.282-1.137 4.282h-1.254l-1.367-5.5zM21.533 23.099c0.302 0.34 0.698 0.51 1.188 0.51 0.242 0 0.447-0.047 0.691-0.142s0.589-0.21 0.589-0.346v-0.621h-1v-1h2v2.211c0 0.235-0.471 0.441-0.93 0.619s-0.864 0.267-1.335 0.267c-0.599 0-1.090-0.125-1.535-0.377s-0.764-0.611-0.989-1.078c-0.224-0.468-0.329-0.976-0.329-1.526 0-0.596 0.129-1.126 0.379-1.59s0.617-0.819 1.099-1.067c0.367-0.19 0.825-0.285 1.372-0.285 0.711 0 1.267 0.149 1.666 0.448s0.657 0.71 0.772 1.236l-1.148 0.215c-0.081-0.282-0.233-0.503-0.455-0.666s-0.5-0.244-0.834-0.244c-0.506 0-0.907 0.16-1.205 0.48s-0.448 0.796-0.448 1.426c0 0.679 0.151 1.189 0.453 1.529zM26 15.5h-20v-13.5h10.5v8.582c0 0.581 0.677 0.918 1.259 0.918h8.241v4z"></path>
</svg>
