<!-- Generated by IcoMoon.io -->
<svg version="1.1" xmlns="http://www.w3.org/2000/svg" width="32" height="32" viewBox="0 0 32 32">
<title>file-txt</title>
<path d="M28.401 10.382c-0-0.003-0.041-0.006-0.041-0.009-0.017-0.088-0.070-0.171-0.109-0.251-0.011-0.022-0.032-0.043-0.044-0.064-0.046-0.079-0.103-0.155-0.169-0.221l-9.532-9.53c-0.067-0.067-0.143-0.118-0.224-0.165-0.020-0.012-0.041-0.022-0.061-0.032-0.081-0.040-0.165-0.073-0.253-0.091-0.003 0-0.005 0-0.008-0.001-0.066-0.013-0.133-0.019-0.201-0.019h-13.048c-0.581 0-1.212 0.47-1.212 1.052v29.895c0 0.581 0.63 1.052 1.212 1.052h22.577c0.582 0 1.212-0.471 1.212-1.052v-20.365c0-0.068-0.087-0.135-0.099-0.2zM19 3.593l5.747 5.907h-5.747v-5.907zM26 30h-20v-3h20v3zM8 19v-1h5v1h-2v5h-1v-5h-2zM13.515 18h1.351l1.149 1.84 1.125-1.84h1.34l-1.782 2.918 1.957 3.082h-1.395l-1.27-1.98-1.274 1.98h-1.386l1.957-3.125-1.774-2.875zM19 19v-1h5v1h-2v5h-1v-5h-2zM26 15.5h-20v-13.5h10.5v8.582c0 0.581 0.677 0.918 1.259 0.918h8.241v4z"></path>
</svg>
