<!-- Generated by IcoMoon.io -->
<svg version="1.1" xmlns="http://www.w3.org/2000/svg" width="32" height="32" viewBox="0 0 32 32">
<title>file-sound</title>
<path d="M28.321 10.381c0-0.002 0-0.005-0-0.007-0.017-0.088-0.051-0.172-0.090-0.252-0.011-0.021-0.021-0.042-0.034-0.063-0.046-0.079-0.098-0.155-0.164-0.222l-9.53-9.53c-0.067-0.067-0.143-0.119-0.223-0.166-0.020-0.011-0.039-0.021-0.059-0.032-0.081-0.040-0.166-0.073-0.255-0.091-0.002-0.001-0.003 0-0.006-0.001-0.066-0.013-0.133-0.019-0.201-0.019h-13.047c-0.582 0-1.053 0.471-1.053 1.052v29.895c0 0.581 0.471 1.052 1.053 1.052h22.576c0.582 0 1.052-0.471 1.052-1.052v-20.366c0-0.068-0.006-0.136-0.020-0.201zM24.747 9.53h-5.936v-5.936l5.936 5.936zM5.764 29.895v-27.79h10.943v8.477c0 0.582 0.471 1.053 1.052 1.053h8.477v18.261h-20.471zM8.805 19.156v5.507h2.445l5.419 3.276v-11.94l-5.419 3.156h-2.445zM15.116 18.703v6.482l-3.062-1.851c-0.242-0.146-0.521-0.224-0.803-0.224h-0.892v-2.4h0.892c0.274 0 0.544-0.073 0.781-0.211l3.084-1.796zM19.506 17.157c2.921 2.86 2.951 6.759 0.365 9.698 0.323 0.318 0.646 0.637 0.97 0.954 3.137-3.654 3.252-7.976-0.335-11.689-0.332 0.346-0.666 0.692-0.999 1.037zM18.397 18.291c-0.311 0.348-0.651 0.687-0.962 1.035 1.811 1.894 1.66 3.686 0.198 5.386 0.405 0.386 0.735 0.678 1.102 1.046 2.109-2.668 1.947-5.082-0.338-7.468z"></path>
</svg>
