<!-- Generated by IcoMoon.io -->
<svg version="1.1" xmlns="http://www.w3.org/2000/svg" width="32" height="32" viewBox="0 0 32 32">
<title>file-image</title>
<path d="M28.401 10.381c0-0.002-0.041-0.005-0.041-0.007-0.017-0.088-0.071-0.172-0.111-0.252-0.010-0.021-0.031-0.041-0.044-0.063-0.045-0.080-0.102-0.156-0.169-0.222l-9.531-9.53c-0.067-0.067-0.145-0.119-0.224-0.166-0.020-0.011-0.039-0.032-0.061-0.042-0.081-0.040-0.166-0.101-0.255-0.101-0.002 0-0.004 0-0.006 0-0.066 0-0.133 0-0.201 0h-13.048c-0.58 0-1.211 0.471-1.211 1.052v29.895c0 0.581 0.631 1.052 1.211 1.052h22.577c0.582 0 1.212-0.471 1.212-1.052v-20.366c0-0.068-0.087-0.136-0.099-0.201zM19 3.593l5.098 5.178 0.649 0.729h-5.747v-5.907zM26 30h-20v-28h10.5v8.582c0 0.581 0.677 0.918 1.259 0.918h8.241v18.5zM12.908 17.955c0 1.258-1.020 2.277-2.277 2.277s-2.277-1.020-2.277-2.277c0-1.258 1.020-2.277 2.277-2.277s2.277 1.020 2.277 2.277zM12.576 22.101c-0.098-0.066-0.211-0.099-0.323-0.099-0.136 0-0.271 0.047-0.38 0.14l-3.491 3.362c-0.13 0.111-0.381 0.273-0.381 0.444v1.29c0 0.323 0.614 0.262 0.937 0.262h14.009c0.322 0 0.555 0.061 0.555-0.262v-4.932c0-0.146-0.042-0.288-0.14-0.396l-3.348-3.642c-0.111-0.12-0.266-0.188-0.429-0.188-0.010 0-0.020 0-0.030 0.001-0.173 0.009-0.333 0.094-0.437 0.233l-4.479 5.162-2.062-1.374z"></path>
</svg>
