<!-- Generated by IcoMoon.io -->
<svg version="1.1" xmlns="http://www.w3.org/2000/svg" width="32" height="32" viewBox="0 0 32 32">
<title>file-setting</title>
<path d="M28.322 10.382c-0-0.003-0.001-0.006-0.002-0.009-0.018-0.088-0.050-0.171-0.090-0.251-0.011-0.022-0.022-0.043-0.034-0.064-0.046-0.079-0.098-0.155-0.164-0.221l-9.529-9.53c-0.067-0.067-0.142-0.118-0.223-0.165-0.020-0.012-0.040-0.022-0.061-0.032-0.081-0.040-0.165-0.072-0.253-0.090-0.003 0-0.005-0.001-0.007-0.001-0.066-0.013-0.133-0.019-0.201-0.019h-13.048c-0.581 0-1.053 0.471-1.053 1.052v29.895c0 0.581 0.471 1.052 1.053 1.052h22.577c0.582 0 1.052-0.471 1.052-1.052v-20.366c0-0.068-0.006-0.134-0.019-0.2zM24.747 9.53h-5.936v-5.936l5.936 5.936zM5.764 29.895v-27.79h10.943v8.477c0 0.582 0.471 1.053 1.052 1.053h8.477v18.261h-20.471zM21.155 19.428h-0.65c-0.099-0.321-0.227-0.634-0.383-0.935l0.497-0.498c0.178-0.177 0.276-0.413 0.276-0.665s-0.098-0.488-0.276-0.665l-1.206-1.207c-0.178-0.178-0.416-0.275-0.666-0.275s-0.488 0.098-0.665 0.275l-0.494 0.493c-0.29-0.149-0.59-0.274-0.898-0.373v-0.755c0-0.519-0.422-0.941-0.941-0.941h-1.707c-0.518 0-0.941 0.422-0.941 0.941v0.755c-0.294 0.095-0.581 0.213-0.859 0.354l-0.573-0.574c-0.366-0.367-0.964-0.367-1.331 0l-1.207 1.207c-0.177 0.177-0.275 0.414-0.275 0.666s0.098 0.488 0.275 0.665l0.559 0.559c-0.14 0.267-0.259 0.546-0.354 0.832h-0.841c-0.518 0-0.941 0.422-0.941 0.941v1.707c0 0.518 0.422 0.941 0.941 0.941h0.784c0.088 0.293 0.2 0.577 0.332 0.852l-0.582 0.581c-0.178 0.178-0.275 0.414-0.275 0.666s0.097 0.488 0.275 0.665l1.207 1.207c0.178 0.177 0.414 0.276 0.665 0.276s0.489-0.098 0.665-0.276l0.521-0.521c0.278 0.151 0.569 0.279 0.87 0.385v0.772c0 0.518 0.422 0.941 0.941 0.941h1.707c0.519 0 0.941-0.422 0.941-0.941v-0.682c0.319-0.093 0.629-0.213 0.927-0.358l0.505 0.506c0.366 0.366 0.965 0.366 1.33-0l1.208-1.206c0.177-0.177 0.275-0.414 0.275-0.666s-0.097-0.488-0.275-0.665l-0.456-0.456c0.162-0.299 0.297-0.612 0.404-0.936h0.686c0.519 0 0.941-0.422 0.941-0.941v-1.707c0-0.519-0.421-0.942-0.94-0.942zM14.897 24.373c-1.768 0-3.206-1.439-3.206-3.206s1.438-3.206 3.206-3.206c1.768 0 3.207 1.439 3.207 3.206s-1.439 3.206-3.207 3.206z"></path>
</svg>
