<!-- Generated by IcoMoon.io -->
<svg version="1.1" xmlns="http://www.w3.org/2000/svg" width="32" height="32" viewBox="0 0 32 32">
<title>file-powerpoint</title>
<path d="M28.321 10.381c0-0.002 0-0.005-0-0.007-0.017-0.088-0.051-0.172-0.090-0.252-0.011-0.021-0.021-0.041-0.034-0.063-0.046-0.080-0.098-0.156-0.164-0.222l-9.53-9.53c-0.067-0.067-0.143-0.119-0.223-0.166-0.020-0.011-0.039-0.021-0.059-0.032-0.081-0.040-0.166-0.073-0.255-0.091-0.002 0-0.003 0-0.006-0.001-0.066-0.013-0.133-0.019-0.201-0.019h-13.047c-0.582 0-1.053 0.471-1.053 1.052v29.895c0 0.581 0.471 1.052 1.053 1.052h22.576c0.582 0 1.052-0.471 1.052-1.052v-20.366c0-0.068-0.006-0.136-0.020-0.201zM24.747 9.53h-5.936v-5.936l5.936 5.936zM5.764 29.895v-27.79h10.943v8.477c0 0.582 0.471 1.053 1.052 1.053h8.477v18.261h-20.471zM17.339 15.382c-0.486-0.13-1.53-0.196-3.131-0.196h-5.578v1.378h1.352v10.521h-1.352v1.378h5.447v-1.378h-1.461v-3.777h1.717c1.192 0 2.102-0.063 2.73-0.187 0.463-0.101 0.918-0.307 1.366-0.617s0.817-0.74 1.107-1.285c0.291-0.546 0.436-1.218 0.436-2.019 0-1.038-0.252-1.884-0.756-2.54s-1.13-1.081-1.877-1.277zM16.961 20.247c-0.198 0.291-0.473 0.504-0.823 0.64s-1.044 0.204-2.082 0.204h-1.441v-3.7h1.272c0.948 0 1.581 0.030 1.895 0.089 0.427 0.077 0.78 0.27 1.059 0.578s0.418 0.7 0.418 1.174c0 0.386-0.099 0.724-0.297 1.015z"></path>
</svg>
