<!-- Generated by IcoMoon.io -->
<svg version="1.1" xmlns="http://www.w3.org/2000/svg" width="32" height="32" viewBox="0 0 32 32">
<title>file-photo</title>
<path d="M28.401 10.381c-0-0.002-0.041-0.005-0.041-0.007-0.018-0.088-0.071-0.172-0.11-0.253-0.011-0.021-0.032-0.041-0.044-0.062-0.046-0.080-0.103-0.156-0.169-0.222l-9.532-9.53c-0.067-0.067-0.144-0.119-0.224-0.166-0.019-0.011-0.039-0.032-0.059-0.042-0.082-0.040-0.167-0.101-0.256-0.101-0.002 0-0.003 0-0.006 0-0.066 0-0.134 0-0.201 0h-13.047c-0.582 0-1.212 0.471-1.212 1.052v29.895c0 0.581 0.63 1.052 1.212 1.052h22.576c0.582 0 1.212-0.471 1.212-1.052v-20.366c0-0.068-0.087-0.136-0.099-0.201zM19 3.593l5.747 5.907h-5.747v-5.907zM26 30h-20v-28h10.5v8.582c0 0.581 0.677 0.918 1.259 0.918h8.241v18.5zM18.676 21.969c0 1.202-0.974 2.176-2.176 2.176s-2.176-0.974-2.176-2.176c0-1.202 0.974-2.176 2.176-2.176s2.176 0.974 2.176 2.176zM13.74 15.774l-0.443 1.226h-3.796c-0.666 0-1.002 0.267-1.002 0.933v8.571c0 0.667 0.335 0.995 1.002 0.995h13.497c0.666 0 1.002-0.328 1.002-0.995v-8.571c0-0.666-0.335-0.933-1.002-0.933h-3.296l-0.443-1.226c0 0-0.205-0.774-0.761-0.774h-3.998c-0.58 0-0.761 0.774-0.761 0.774zM19.939 21.969c0 1.898-1.54 3.438-3.439 3.438s-3.438-1.54-3.438-3.438 1.54-3.438 3.438-3.438c1.898 0 3.439 1.539 3.439 3.438z"></path>
</svg>
