<!-- Generated by IcoMoon.io -->
<svg version="1.1" xmlns="http://www.w3.org/2000/svg" width="32" height="32" viewBox="0 0 32 32">
<title>file-cloud</title>
<path d="M28.401 10.382c-0-0.003-0.041-0.006-0.041-0.009-0.017-0.088-0.070-0.171-0.109-0.251-0.011-0.022-0.032-0.043-0.044-0.064-0.046-0.079-0.103-0.155-0.169-0.221l-9.532-9.53c-0.067-0.067-0.143-0.118-0.224-0.165-0.020-0.012-0.041-0.022-0.061-0.032-0.081-0.040-0.165-0.072-0.253-0.090-0.003 0-0.005-0.001-0.008-0.001-0.066-0.013-0.133-0.019-0.201-0.019h-13.048c-0.581 0-1.212 0.471-1.212 1.052v29.895c0 0.581 0.63 1.052 1.212 1.052h22.577c0.582 0 1.212-0.471 1.212-1.052v-20.366c0-0.068-0.087-0.134-0.099-0.2zM19 3.593l5.747 5.907h-5.747v-5.907zM26 30h-20v-28h10.5v8.582c0 0.581 0.677 0.918 1.259 0.918h8.241v18.5zM14.216 15.543c-2.105 0-3.812 1.706-3.812 3.812 0 0.22 0.023 0.433 0.059 0.642-1.499 0.419-2.556 1.791-2.556 3.424 0 1.791 1.094 3.27 3.094 3.517v0.062h10v-0.049c0 0.017 0.163 0.028 0.293 0.028 1.614 0 2.878-1.308 2.878-2.923 0-1.575-1.291-2.855-2.852-2.916 0.323-0.378 0.52-0.867 0.52-1.404 0-1.192-0.968-2.16-2.16-2.16-0.724 0-1.364 0.358-1.756 0.907-0.396-1.683-1.904-2.939-3.708-2.939z"></path>
</svg>
