<!-- Generated by IcoMoon.io -->
<svg version="1.1" xmlns="http://www.w3.org/2000/svg" width="32" height="32" viewBox="0 0 32 32">
<title>file-emailfile</title>
<path d="M28.401 10.382c-0-0.003-0.041-0.006-0.041-0.009-0.017-0.088-0.070-0.171-0.109-0.251-0.011-0.022-0.032-0.043-0.044-0.064-0.046-0.079-0.103-0.155-0.169-0.221l-9.532-9.53c-0.067-0.067-0.143-0.118-0.224-0.165-0.020-0.012-0.041-0.022-0.061-0.032-0.081-0.040-0.165-0.073-0.253-0.091-0.003 0-0.005 0-0.008-0.001-0.066-0.013-0.133-0.019-0.201-0.019h-13.048c-0.581 0-1.212 0.47-1.212 1.052v29.895c0 0.581 0.63 1.052 1.212 1.052h22.577c0.582 0 1.212-0.471 1.212-1.052v-20.365c0-0.068-0.087-0.135-0.099-0.2zM19 3.593l5.747 5.907h-5.747v-5.907zM26 30h-20v-28h10.5v8.582c0 0.581 0.677 0.918 1.259 0.918h8.241v18.5zM11.185 15.739c-1.419 1.396-2.128 3.121-2.128 5.179 0 2.081 0.715 3.824 2.146 5.232 1.418 1.395 3.151 2.093 5.196 2.093 1.171 0 2.259-0.578 3.263-1.134 1.005-0.544 1.838-1.607 2.5-2.607h-1.667c-0.532 0.5-1.129 1.171-1.791 1.454-0.709 0.296-1.442 0.593-2.198 0.593-1.631 0-2.967-0.456-4.008-1.52-1.064-1.076-1.596-2.421-1.596-4.113 0-1.667 0.491-3.013 1.472-4.078 0.993-1.087 2.287-1.622 3.883-1.622 1.514 0 2.732 0.419 3.654 1.246 0.014 0.012 0.026 0.026 0.040 0.039h-1.387l-0.248 1.437c-0.273-0.448-0.61-0.576-1.011-0.789-0.366-0.189-0.787-0.181-1.26-0.181-1.17 0-2.146 0.547-2.926 1.54-0.72 0.923-1.082 2.036-1.082 3.289 0 0.91 0.296 1.709 0.886 2.371 0.592 0.674 1.301 1.017 2.128 1.017 0.343 0 0.698-0.104 1.064-0.317 0.32-0.177 0.62-0.418 0.904-0.726l0.017 0.018c0.024 0.331 0.142 0.593 0.355 0.782 0.201 0.166 0.45 0.248 0.745 0.248 0.355 0 0.78-0.1 1.277-0.302 0.579-0.224 1.11-0.544 1.596-0.957 0.579-0.485 1.029-1.058 1.348-1.72 0.39-0.781 0.585-1.649 0.585-2.607 0-1.762-0.686-3.21-2.056-4.345-1.277-1.052-2.808-1.578-4.593-1.578-2.011-0.001-3.713 0.685-5.107 2.056zM17.143 22.389c-0.449 0.591-0.988 0.887-1.614 0.887-0.461 0-0.828-0.165-1.1-0.497-0.261-0.331-0.39-0.744-0.39-1.241 0-0.626 0.2-1.199 0.603-1.72 0.437-0.555 0.969-0.834 1.595-0.834 0.438 0 0.798 0.148 1.082 0.444 0.295 0.296 0.444 0.68 0.444 1.153 0 0.662-0.207 1.264-0.621 1.808zM21.4 20.081c0 0.957-0.23 1.77-0.692 2.431-0.414 0.603-0.887 0.904-1.419 0.904-0.107 0-0.183-0.034-0.23-0.105-0.035-0.070-0.053-0.171-0.053-0.301 0-0.107 0.012-0.447 0.035-0.613 0.024-0.118 0.053-0.458 0.089-0.613l1.038-5.070c0.819 0.851 1.232 1.971 1.232 3.366z"></path>
</svg>
