<!-- Generated by IcoMoon.io -->
<svg version="1.1" xmlns="http://www.w3.org/2000/svg" width="32" height="32" viewBox="0 0 32 32">
<title>filter-analytics</title>
<path d="M6 13.5h-5c-0.552 0-1 0.448-1 1v16.5c0 0.552 0.448 1 1 1h5c0.552 0 1-0.448 1-1v-16.5c0-0.552-0.448-1-1-1zM31 0h-5c-0.552 0-1 0.448-1 1v30c0 0.552 0.448 1 1 1h5c0.552 0 1-0.448 1-1v-30c0-0.552-0.448-1-1-1zM18.5 6h-5c-0.552 0-1 0.448-1 1v24c0 0.552 0.448 1 1 1h5c0.552 0 1-0.448 1-1v-24c0-0.552-0.448-1-1-1zM18 29c0 0.828-1.172 1.5-2 1.5s-2-0.672-2-1.5v-20c0-0.829 1.171-1.5 2-1.5s2 0.671 2 1.5v20z"></path>
</svg>
