<!-- Generated by IcoMoon.io -->
<svg version="1.1" xmlns="http://www.w3.org/2000/svg" width="32" height="32" viewBox="0 0 32 32">
<title>fine-dust</title>
<path d="M2.154 5.043c0 0.456-0.369 0.825-0.825 0.825s-0.825-0.369-0.825-0.825c0-0.456 0.369-0.825 0.825-0.825s0.825 0.369 0.825 0.825zM10.62 5.043c0 0.456-0.369 0.825-0.825 0.825s-0.825-0.369-0.825-0.825c0-0.456 0.369-0.825 0.825-0.825s0.825 0.369 0.825 0.825zM19.086 5.043c0 0.456-0.369 0.825-0.825 0.825s-0.825-0.369-0.825-0.825c0-0.456 0.369-0.825 0.825-0.825s0.825 0.369 0.825 0.825zM27.553 5.043c0 0.456-0.369 0.825-0.825 0.825s-0.825-0.369-0.825-0.825c0-0.456 0.369-0.825 0.825-0.825s0.825 0.369 0.825 0.825zM5.829 11.643c0 0.456-0.369 0.825-0.825 0.825s-0.825-0.369-0.825-0.825c0-0.456 0.369-0.825 0.825-0.825s0.825 0.369 0.825 0.825zM14.628 11.643c0 0.456-0.369 0.825-0.825 0.825s-0.825-0.369-0.825-0.825c0-0.456 0.369-0.825 0.825-0.825s0.825 0.369 0.825 0.825zM23.003 11.643c0 0.456-0.369 0.825-0.825 0.825s-0.825-0.369-0.825-0.825c0-0.456 0.369-0.825 0.825-0.825s0.825 0.369 0.825 0.825zM31.59 11.643c0 0.456-0.369 0.825-0.825 0.825s-0.825-0.369-0.825-0.825c0-0.456 0.369-0.825 0.825-0.825s0.825 0.369 0.825 0.825zM2.318 18.793c0 0.547-0.443 0.99-0.99 0.99s-0.99-0.443-0.99-0.99c0-0.547 0.443-0.99 0.99-0.99s0.99 0.443 0.99 0.99zM10.785 18.793c0 0.547-0.443 0.99-0.99 0.99s-0.99-0.443-0.99-0.99c0-0.547 0.443-0.99 0.99-0.99s0.99 0.443 0.99 0.99zM19.252 18.793c0 0.547-0.443 0.99-0.99 0.99s-0.99-0.443-0.99-0.99c0-0.547 0.443-0.99 0.99-0.99s0.99 0.443 0.99 0.99zM27.718 18.793c0 0.547-0.443 0.99-0.99 0.99s-0.99-0.443-0.99-0.99c0-0.547 0.443-0.99 0.99-0.99s0.99 0.443 0.99 0.99zM6.191 26.593c0 0.656-0.532 1.188-1.188 1.188s-1.188-0.532-1.188-1.188c0-0.656 0.532-1.188 1.188-1.188s1.188 0.532 1.188 1.188zM14.657 26.593c0 0.656-0.532 1.188-1.188 1.188s-1.188-0.532-1.188-1.188c0-0.656 0.532-1.188 1.188-1.188s1.188 0.532 1.188 1.188zM23.125 26.593c0 0.656-0.532 1.188-1.188 1.188s-1.188-0.532-1.188-1.188c0-0.656 0.532-1.188 1.188-1.188s1.188 0.532 1.188 1.188zM31.591 26.593c0 0.656-0.532 1.188-1.188 1.188s-1.188-0.532-1.188-1.188c0-0.656 0.532-1.188 1.188-1.188s1.188 0.532 1.188 1.188z"></path>
</svg>
