<!-- Generated by IcoMoon.io -->
<svg version="1.1" xmlns="http://www.w3.org/2000/svg" width="32" height="32" viewBox="0 0 32 32">
<title>fishing-rod</title>
<path d="M14.063 26.079l-1.99-2.035c-0.098-0.101-0.258-0.101-0.357 0s-0.098 0.264 0 0.364l1.991 2.034c-0.133 0.287-0.087 0.64 0.146 0.877 0.294 0.302 0.773 0.302 1.068 0s0.295-0.791 0-1.091c-0.232-0.238-0.577-0.285-0.857-0.149zM26.741 21h-1.008c-0.503 1-2.014 3.108-2.014 3.108-2.014 2.058-0.371 3.098-0.371 3.098 1.511 1.029 2.651-1.019 2.651-1.019v1.029l0.873-3.602-1.073 1.544c-1.007 2.058-2.048 1.544-2.048 1.544-1.007-0.514 0.487-2.079 0.487-2.079l2.502-3.622zM30.826 2.977c-1.495-1.226-3.867-1.236-5.046 0.145-0 0.001-0 0.001-0.001 0.001l-4.492 4.591c-4.197-2.327-8.178-5.716-13.195-5.143-2.285 0.26-5.173 2.144-4.841 4.806 0.316 2.532 2.883 4.386 5.094 5.072 2.441 0.758 5.061 0.627 7.623 0.701l-5.854 5.983c-0.047 0.049-0.082 0.105-0.107 0.164-0.073 0.042-0.143 0.091-0.205 0.154l-9.346 9.552c-0.368 0.377-0.368 0.988 0 1.364l0.090 0.091c0.368 0.377 0.967 0.377 1.335 0l6.934-7.087c-0.151 0.879 0.101 1.815 0.765 2.493 0.896 0.916 2.252 1.070 3.306 0.469l-1.526-1.561c-0.296-0.301-0.296-0.79 0-1.091 0.294-0.302 0.774-0.302 1.068 0l1.526 1.56c0.589-1.077 0.438-2.464-0.458-3.38-0.664-0.678-1.579-0.936-2.439-0.782l0.17-0.174c0.368-0.377 0.368-0.988 0-1.364l-0.044-0.045 6.146-6.282c0.31 0.022 0.619 0.049 0.927 0.085 3.148 0.373 6.22 1.361 7.243 4.73 0.236 0.779 0.317 1.599 0.362 2.41 0.027 0.494 0.784 0.497 0.756 0-0.129-2.308-0.747-4.52-2.584-6.004-1.618-1.306-3.829-1.764-5.971-1.969l3.601-3.68c1.206 0.628 2.454 1.158 3.791 1.479 2.006 0.482 4.154 0.553 5.395-1.245 1.204-1.746 1.847-4.516-0.020-6.045zM16.735 12.368c-0.442-0.027-0.876-0.047-1.293-0.068-3.431-0.165-6.872 0.198-9.691-2.183-1.511-1.276-2.438-3.274-1.023-4.981 1.42-1.713 3.769-2.064 5.822-1.734 3.823 0.615 6.887 3.018 10.181 4.881l-3.996 4.085zM30.704 7.795c-1.407 3.014-4.525 2.104-7.067 1.065-0.475-0.194-0.946-0.412-1.412-0.649l4.267-4.361c0.131-0.135 0.166-0.323 0.123-0.494 0.819-0.658 2.044-0.467 3.139-0.112 1.942 0.629 1.632 3.090 0.951 4.551z"></path>
</svg>
