<!-- Generated by IcoMoon.io -->
<svg version="1.1" xmlns="http://www.w3.org/2000/svg" width="32" height="32" viewBox="0 0 32 32">
<title>fish</title>
<path d="M29.65 8.95l-5.6-2.85c-1.85-0.65-3.55-0.9-5-0.85-0.7-1.7-2.6-2.6-4.35-1.95 0 0-6.4 1.7-6.7 1.9 1 0.85 2.050 2.3 2.8 3.9-0.8 0.95-1.2 1.65-1.2 1.65l-2.75 5.35c-2.2-3.45-6.85-1.95-6.85-1.95s0.35 5.8 5.45 5.7c-1.7 1.3-3.45 3.75-1.1 7.75 3.7-1.3 4.5-3.6 4.35-5.5l5.45 2.8c0.25 0.1 1.75 0.75 3.85 0.9-0.45 1.55-0.95 3.15-0.8 3.1l3.3-0.1c1.55-0.050 2.95-1.25 3.1-2.95l0.2-1.25c1.65-0.85 3.3-2.2 4.85-4.35l2.9-5.6c1-2.050 0.15-4.6-1.9-5.7zM25.2 12.75c-0.8 0.3-1.65-0.15-1.95-0.95s0.15-1.65 0.95-1.95 1.65 0.15 1.95 0.95c0.25 0.8-0.15 1.65-0.95 1.95z"></path>
</svg>
