<!-- Generated by IcoMoon.io -->
<svg version="1.1" xmlns="http://www.w3.org/2000/svg" width="32" height="32" viewBox="0 0 32 32">
<title>fitness-weight</title>
<path d="M1.75 12c-0.414 0-0.75 0.335-0.75 0.75v1.75c-0.552 0-1 0.448-1 1v1c0 0.552 0.448 1 1 1v1.75c0 0.415 0.336 0.75 0.75 0.75s0.75-0.335 0.75-0.75v-6.5c0-0.415-0.336-0.75-0.75-0.75zM31 14.5v-1.75c0-0.415-0.335-0.75-0.75-0.75s-0.75 0.335-0.75 0.75v6.5c0 0.415 0.335 0.75 0.75 0.75s0.75-0.335 0.75-0.75v-1.75c0.552 0 1-0.448 1-1v-1c0-0.552-0.448-1-1-1zM4.5 8c-0.829 0-1.5 0.671-1.5 1.5v13c0 0.828 0.671 1.5 1.5 1.5s1.5-0.672 1.5-1.5v-13c0-0.829-0.671-1.5-1.5-1.5zM24 8c-0.828 0-1.5 0.671-1.5 1.5v5h-13v-5c0-0.829-0.671-1.5-1.5-1.5s-1.5 0.671-1.5 1.5v13c0 0.828 0.671 1.5 1.5 1.5s1.5-0.672 1.5-1.5v-5h13v5c0 0.828 0.672 1.5 1.5 1.5s1.5-0.672 1.5-1.5v-13c0-0.829-0.672-1.5-1.5-1.5zM27.5 8c-0.828 0-1.5 0.671-1.5 1.5v13c0 0.828 0.672 1.5 1.5 1.5s1.5-0.672 1.5-1.5v-13c0-0.829-0.672-1.5-1.5-1.5z"></path>
</svg>
