<!-- Generated by IcoMoon.io -->
<svg version="1.1" xmlns="http://www.w3.org/2000/svg" width="32" height="32" viewBox="0 0 32 32">
<title>flag</title>
<path d="M6.5 3c0-1.657-1.343-3-3-3s-3 1.343-3 3c0 1.132 0.627 2.116 1.552 2.627-0.030 0.12-0.052 0.244-0.052 0.373v24.5c0 0.828 0.672 1.5 1.5 1.5s1.5-0.672 1.5-1.5v-24.5c0-0.13-0.021-0.253-0.052-0.373 0.925-0.511 1.552-1.495 1.552-2.627zM30.948 4.106c-0.34-0.17-0.744-0.133-1.047 0.095-1.285 0.964-3.039 1.452-5.212 1.452-2.369 0-4.37-0.601-4.372-0.601-2.323-0.774-4.538-1.167-6.585-1.167-4.972 0-7.34 2.31-7.439 2.409-0.188 0.188-0.293 0.442-0.293 0.707v18.5c0 0.45 0.3 0.844 0.734 0.964 0.088 0.024 0.178 0.036 0.266 0.036 0.345 0 0.674-0.178 0.857-0.485 0.878-1.463 2.664-2.206 5.309-2.206 2.949 0 5.939 0.948 6.433 1.111 1.748 0.938 3.621 1.413 5.567 1.413 3.349-0 5.747-1.416 5.848-1.476 0.301-0.18 0.485-0.506 0.485-0.858v-19c0-0.379-0.214-0.725-0.552-0.894z"></path>
</svg>
