<!-- Generated by IcoMoon.io -->
<svg version="1.1" xmlns="http://www.w3.org/2000/svg" width="32" height="32" viewBox="0 0 32 32">
<title>flashlight</title>
<path d="M31.385 7.354l-6.684-6.684c-0.821-0.821-2.151-0.821-2.971 0 0 0-0.367 0.366-0.921 0.921l9.654 9.655c0.554-0.555 0.921-0.921 0.921-0.921 0.82-0.821 0.82-2.151 0-2.971zM15.604 6.796c-1.697 1.698-2.313 4.065-1.848 6.251l-13.198 13.199c-0.67 0.669-0.67 1.754 0 2.424l2.828 2.828c0.669 0.67 1.754 0.67 2.424 0l13.199-13.198c2.185 0.464 4.553-0.151 6.25-1.849l4.214-4.213-9.655-9.655c-1.764 1.763-4.12 4.12-4.213 4.213zM16.564 17.427l-2.749 2.749c-0.462 0.462-1.27 0.404-1.804-0.131-0.534-0.534-0.594-1.342-0.131-1.804l2.749-2.749c0.463-0.463 1.27-0.403 1.804 0.131s0.593 1.341 0.131 1.804z"></path>
</svg>
