<!-- Generated by IcoMoon.io -->
<svg version="1.1" xmlns="http://www.w3.org/2000/svg" width="32" height="32" viewBox="0 0 32 32">
<title>fleet</title>
<path d="M24.6 15.85l-2.25-4.8c0 0-0.6-1.65-3.2-1.6h-6.5c-2.55 0.050-3.15 1.7-3.15 1.7l-2.25 4.8c-2.1 0.55-2.1 2.35-2.1 2.35v6.45h1.8v2c0 0.95 0.8 1.75 1.75 1.75h0.15c0.95 0 1.75-0.8 1.75-1.75v-2h10.55v2c0 0.95 0.8 1.75 1.75 1.75h0.15c0.95 0 1.75-0.8 1.75-1.75v-2h1.8v-6.45c0.1-0.050 0.1-1.9-2-2.45zM8.95 21.4c-0.95 0-1.7-0.75-1.7-1.7s0.75-1.7 1.7-1.7c0.95 0 1.7 0.75 1.7 1.7 0 0.9-0.75 1.7-1.7 1.7zM15.75 15.85h-6.3l1.45-3.25c0.5-1.35 2.3-1.2 2.3-1.2h5.5c0 0 1.8-0.15 2.3 1.2l1.45 3.2-6.7 0.050zM23 21.3c-0.95 0-1.7-0.75-1.7-1.7s0.75-1.7 1.7-1.7c0.95 0 1.7 0.75 1.7 1.7-0.050 0.95-0.8 1.7-1.7 1.7zM7.2 13.050l1.5-3.25c0 0 0.55-1.5 2.85-1.45h2.85c-0.15-0.35-0.5-0.75-1.2-0.95l-1.45-2.9c0 0-0.4-1.050-2.050-1.050h-4.7c-1.65 0.050-2.050 1.1-2.050 1.1l-1.45 2.9c-1.35 0.35-1.35 1.5-1.35 1.5v4.1h1.15v1.15c0 0.6 0.5 1.1 1.1 1.1h0.1c0.6 0 1.1-0.5 1.1-1.1v-1.15h3.6zM2.55 10.9c-0.6 0-1.1-0.5-1.1-1.1s0.5-1.1 1.1-1.1c0.6 0 1.1 0.5 1.1 1.1s-0.5 1.1-1.1 1.1zM3 7.4l0.95-1.9c0.3-0.8 1.35-0.75 1.35-0.75h4.050c0 0 1-0.1 1.35 0.75l0.9 1.9h-8.6zM24.85 13.050h3.45v1.15c0 0.6 0.5 1.1 1.1 1.1h0.1c0.6 0 1.1-0.5 1.1-1.1v-1.15h1.15v-4.1c0 0 0-1.15-1.35-1.5l-1.4-2.9c0 0-0.4-1.050-2.050-1.050h-4.75c-1.65-0.050-2.050 1.050-2.050 1.050l-1.45 2.9c-0.7 0.2-1.050 0.6-1.2 0.95h2.85c2.3-0.050 2.85 1.45 2.85 1.45l1.5 3.25h0.15zM28.3 9.8c0-0.6 0.5-1.1 1.1-1.1s1.1 0.5 1.1 1.1c0 0.6-0.5 1.1-1.1 1.1s-1.1-0.5-1.1-1.1zM24.85 7.4h-4.55l0.9-1.9c0.35-0.85 1.35-0.75 1.35-0.75h4.050c0 0 1.050-0.050 1.35 0.75l0.95 1.9h-4.050z"></path>
</svg>
