<!-- Generated by IcoMoon.io -->
<svg version="1.1" xmlns="http://www.w3.org/2000/svg" width="32" height="32" viewBox="0 0 32 32">
<title>flick-left</title>
<path d="M8.346 13.617c0.102-0.024 1.902-0.316 3.087-0.505 0.133-0.021 0.239-0.102 0.281-0.219 0.044-0.117 0.015-0.248-0.073-0.35l-0.576-0.663c0.682-0.517 2.312-1.462 5.107-1.462 3.764 0 5.419 1.716 5.483 1.784 0.151 0.165 0.356 0.249 0.564 0.249 0.183 0 0.366-0.066 0.512-0.199 0.311-0.283 0.334-0.765 0.051-1.076-0.084-0.094-2.128-2.281-6.61-2.281-3.282 0-5.252 1.172-6.107 1.837l-0.562-0.647c-0.094-0.102-0.23-0.149-0.354-0.123-0.114 0.024-0.204 0.107-0.248 0.235-0.351 1.136-0.885 2.867-0.926 2.971-0.103 0.225 0.121 0.507 0.371 0.45zM27.293 25.566c-0.057-0.27-0.248-0.573-0.554-0.878l-0.047-0.048-0.017-0.065c-0.169-0.643-0.701-2.406-1.137-2.841l-5.676-5.648c-0.489-0.362-1.213-0.31-1.642 0.119-0.182 0.182-0.304 0.416-0.349 0.668l0.671 0.67c0.203 0.204 0.204 0.535 0 0.739-0.2 0.199-0.544 0.197-0.739 0l-0.765-0.765c-0.485-0.302-1.156-0.227-1.563 0.18-0.184 0.184-0.303 0.413-0.348 0.666l1.296 1.297c0.099 0.098 0.154 0.23 0.154 0.369s-0.055 0.271-0.154 0.371c-0.194 0.196-0.54 0.197-0.739 0l-1.463-1.462c-0.485-0.301-1.155-0.227-1.562 0.18-0.184 0.183-0.303 0.413-0.348 0.667l1.993 1.993c0.099 0.1 0.153 0.232 0.153 0.372s-0.055 0.27-0.155 0.369c-0.195 0.195-0.54 0.198-0.739-0l-5.74-5.739c-0.2-0.125-0.429-0.189-0.667-0.189-0.338 0-0.656 0.131-0.894 0.37-0.494 0.494-0.494 1.297 0 1.791l5.585 5.586-0.153 0.218c-0.504 0.503-0.7 0.944-0.619 1.387 0.071 0.387 0.353 0.811 0.915 1.372l3.314 3.314c0.206 0.206 0.473 0.335 0.772 0.374l0.052 0.012c0.181 0.041 2.378 0.229 3.716 0.337l0.092 0.008 0.064 0.064c0.375 0.375 0.738 0.573 1.052 0.573 0.215 0 0.412-0.092 0.601-0.281l5.379-5.379c0.236-0.237 0.322-0.49 0.262-0.774z"></path>
</svg>
