<!-- Generated by IcoMoon.io -->
<svg version="1.1" xmlns="http://www.w3.org/2000/svg" width="32" height="32" viewBox="0 0 32 32">
<title>flick-right</title>
<path d="M15.646 10.806l-0.577 0.664c-0.088 0.102-0.117 0.233-0.073 0.35 0.043 0.117 0.148 0.198 0.282 0.219 1.183 0.19 2.985 0.482 3.086 0.505 0.25 0.057 0.474-0.226 0.371-0.45-0.042-0.104-0.576-1.835-0.926-2.972-0.044-0.127-0.134-0.21-0.249-0.235-0.123-0.026-0.259 0.021-0.352 0.123l-0.564 0.647c-0.854-0.665-2.824-1.837-6.107-1.837-4.479 0-6.524 2.188-6.609 2.281-0.281 0.309-0.259 0.786 0.049 1.070 0.307 0.285 0.787 0.264 1.075-0.040 0.069-0.073 1.721-1.789 5.484-1.789 2.797 0 4.427 0.945 5.11 1.462zM25.322 22.907c-0.181-0.182-0.415-0.303-0.667-0.349l-0.67 0.669c-0.198 0.198-0.542 0.198-0.74 0-0.099-0.099-0.154-0.229-0.154-0.369s0.055-0.271 0.154-0.37l0.764-0.764c0.308-0.495 0.235-1.148-0.18-1.563-0.184-0.184-0.413-0.303-0.667-0.349l-1.297 1.297c-0.197 0.198-0.542 0.198-0.74 0-0.203-0.203-0.203-0.535-0.002-0.739l1.464-1.463c0.308-0.495 0.233-1.148-0.18-1.561-0.184-0.184-0.413-0.303-0.667-0.349l-1.993 1.993c-0.198 0.198-0.543 0.198-0.74-0-0.098-0.096-0.154-0.229-0.154-0.369s0.055-0.273 0.155-0.372l5.736-5.739c0.306-0.495 0.233-1.147-0.18-1.562-0.479-0.479-1.313-0.479-1.792 0l-5.627 5.628-0.175-0.194c-0.43-0.43-0.82-0.637-1.194-0.637-0.444 0-0.913 0.279-1.566 0.933l-3.314 3.314c-0.206 0.206-0.335 0.473-0.374 0.773l-0.012 0.052c-0.041 0.181-0.229 2.377-0.337 3.715l-0.008 0.091-0.065 0.064c-0.645 0.645-0.742 1.201-0.292 1.652l5.379 5.379c0.464 0.463 1.020 0.341 1.652-0.292l0.048-0.047 0.066-0.017c0.642-0.169 2.407-0.701 2.841-1.137l5.648-5.677c0.374-0.508 0.324-1.198-0.12-1.643z"></path>
</svg>
