<!-- Generated by IcoMoon.io -->
<svg version="1.1" xmlns="http://www.w3.org/2000/svg" width="32" height="32" viewBox="0 0 32 32">
<title>flight</title>
<path d="M31.469 19.81c-0.504-1.512-1.26-2.393-1.26-2.393l-11.848-5.687 0.238-7.335c0-1.235-1.374-3.542-2.61-3.542s-2.611 2.306-2.611 3.542l0.239 7.329-11.861 5.692c0 0-0.756 0.881-1.26 2.393-0.178 0.535-0.252 1.134 0.252 1.26 0.411 0.102 9.666-2.271 13.070-3.149l0.267 8.229-4.242 2.601c0 0-0.325 0.486-0.543 1.32-0.076 0.294-0.108 0.625 0.108 0.695 0.16 0.051 3.428-1.201 5.144-1.764 0.31 0.633 0.8 1 1.446 1s1.113-0.366 1.425-0.997c1.718 0.564 4.973 1.812 5.133 1.761 0.216-0.070 0.184-0.399 0.108-0.695-0.218-0.834-0.543-1.32-0.543-1.32l-4.231-2.593 0.268-8.233c3.413 0.883 12.646 3.249 13.057 3.146 0.503-0.126 0.43-0.725 0.252-1.259z"></path>
</svg>
