<!-- Generated by IcoMoon.io -->
<svg version="1.1" xmlns="http://www.w3.org/2000/svg" width="32" height="32" viewBox="0 0 32 32">
<title>fog-light</title>
<path d="M13.65 4.9c-5.45 0-13 4.9-13 10.95s7.55 10.95 13 10.95c0.6 0 1.15-0.050 1.75-0.15 5.9-10.2 2.1-18.15-0.25-21.6-0.5-0.1-1-0.15-1.5-0.15zM30.45 11.85c0.45 0 0.8-0.3 0.8-0.75l0.050-1.1c0-0.45-0.3-0.8-0.75-0.8l-2.2 0.050c-0.3-2.4-1.25-4-1.25-4-0.2-0.45-0.6-0.75-1.1-0.75-0.65 0-1.15 0.5-1.15 1.15 0 0.2 0.15 0.65 0.15 0.65 0.45 1 0.65 1.95 0.7 2.95l-6.45 0.050c0.35 0.8 0.65 1.7 0.85 2.65l5.3-0.050c-0.2 1-0.5 2-0.85 3h-4.2c0.1 0.85 0.15 1.75 0.1 2.65h3.2c-0.3 0.95-0.55 1.9-0.75 2.85h-3c-0.1 0.85-0.3 1.75-0.5 2.65h3.4c0.15 1.25 0.65 2.5 1.3 3.7 0.2 0.4 0.65 0.65 1.1 0.65 0.65 0 1.15-0.45 1.15-1.1 0-0.3-0.85-2.15-0.9-3.15l4.65-0.050c0.45 0 0.8-0.35 0.8-0.75l0.050-1.15c0-0.45-0.3-0.8-0.75-0.8l-4.7-0.050c0.15-1 0.4-1.95 0.7-2.9h4.15c0.45 0 0.8-0.3 0.8-0.75l0.050-1.1c0-0.45-0.3-0.8-0.75-0.8h-3.3c0.35-1 0.7-2.050 0.9-3.050l2.4 0.1z"></path>
</svg>
