<!-- Generated by IcoMoon.io -->
<svg version="1.1" xmlns="http://www.w3.org/2000/svg" width="32" height="32" viewBox="0 0 32 32">
<title>fog</title>
<path d="M7.5 17c0.5 0.002 16.448 0 16.5 0 2.527 0 4.605-1.747 4.605-4.274 0-2.501-1.882-4.528-4.372-4.571 0.326-0.521 0.518-1.134 0.518-1.794 0-1.867-1.514-3.381-3.381-3.381-1.017 0-1.927 0.451-2.546 1.162-0.828-2.299-3.024-3.946-5.608-3.946-3.296 0-5.967 2.671-5.967 5.967 0 0.078 0.009 0.154 0.011 0.231-2.306 0.681-4.24 2.812-4.24 5.339 0.001 2.79 1.98 4.862 4.48 5.268zM6 19.5c-0.552 0-1 0.448-1 1s0.448 1 1 1h18c0.552 0 1-0.448 1-1s-0.448-1-1-1h-18zM27.5 23.5h-18c-0.552 0-1 0.448-1 1s0.448 1 1 1h18c0.552 0 1-0.448 1-1s-0.448-1-1-1zM22.5 27.5h-18c-0.552 0-1 0.448-1 1s0.448 1 1 1h18c0.552 0 1-0.448 1-1s-0.448-1-1-1z"></path>
</svg>
