<!-- Generated by IcoMoon.io -->
<svg version="1.1" xmlns="http://www.w3.org/2000/svg" width="32" height="32" viewBox="0 0 32 32">
<title>folder-open</title>
<path d="M11.89 10.822l15.771 0.034c-0.136-1.306-1.239-2.356-2.58-2.356h-12.581v-1.232c0-1.433-1.121-2.768-2.554-2.768h-7.351c-1.433 0-2.595 1.335-2.595 2.768v16.293l6.939-10.136c0.988-1.444 3.206-2.61 4.951-2.602zM30.465 12.305l-18.465-0.085c-1.455-0.007-3.303 0.964-4.126 2.168l-7.458 10.895c-0.824 1.203-0.311 2.184 1.141 2.191l19.465 0.085c1.454 0.006 3.302-0.965 4.126-2.168l6.459-9.896c0.823-1.203 0.313-3.184-1.142-3.191z"></path>
</svg>
