<!-- Generated by IcoMoon.io -->
<svg version="1.1" xmlns="http://www.w3.org/2000/svg" width="32" height="32" viewBox="0 0 32 32">
<title>food-steamer</title>
<path d="M29 16.5h-26c-0.276 0-0.5 0.224-0.5 0.5s0.224 0.5 0.5 0.5c-0.552 0 1.5 0.448 1.5 1l1 4c0 0.552 0.448 1 1 1h19c0.552 0 1-0.448 1-1l1-4c0-0.552 2.052-1 1.5-1 0.276 0 0.5-0.224 0.5-0.5s-0.224-0.5-0.5-0.5zM26.25 18.5h-20.5c-0.138 0-0.25-0.112-0.25-0.25s0.112-0.25 0.25-0.25h20.5c0.138 0 0.25 0.112 0.25 0.25s-0.112 0.25-0.25 0.25zM29 9h-26c-0.276 0-0.5 0.223-0.5 0.5s0.224 0.5 0.5 0.5c-0.552 0 1.5 0.448 1.5 1l1 4c0 0.552 0.448 1 1 1h19c0.552 0 1-0.448 1-1l1-4c0-0.552 2.052-1 1.5-1 0.276 0 0.5-0.223 0.5-0.5s-0.224-0.5-0.5-0.5zM26.25 11h-20.5c-0.138 0-0.25-0.112-0.25-0.25s0.112-0.25 0.25-0.25h20.5c0.138 0 0.25 0.112 0.25 0.25s-0.112 0.25-0.25 0.25zM3 2.5c-0.552 0 1.5 0.448 1.5 1l1 4c0 0.552 0.448 1 1 1h19c0.552 0 1-0.448 1-1l1-4c0-0.552 2.052-1 1.5-1 0.276 0 0.5-0.224 0.5-0.5s-0.224-0.5-0.5-0.5h-26c-0.276 0-0.5 0.224-0.5 0.5s0.224 0.5 0.5 0.5zM26.25 3.5h-20.5c-0.138 0-0.25-0.112-0.25-0.25s0.112-0.25 0.25-0.25h20.5c0.138 0 0.25 0.112 0.25 0.25s-0.112 0.25-0.25 0.25zM13 1h6c0.276 0 0.5-0.224 0.5-0.5s-0.224-0.5-0.5-0.5h-6c-0.277 0-0.5 0.224-0.5 0.5s0.223 0.5 0.5 0.5zM16.063 25.759c-0.339 0-0.654 0.102-0.921 0.271l2.37 2.37c0.17-0.267 0.271-0.581 0.271-0.921 0-0.951-0.77-1.721-1.721-1.721zM14.342 27.48c0 0.95 0.771 1.721 1.72 1.721 0.302 0 0.581-0.084 0.828-0.221l-2.328-2.328c-0.136 0.247-0.221 0.526-0.221 0.828zM25.5 24h-19c-0.552 0-1 0.448-1 1l-1 5c0 0.552 0.448 1 1 1h0.513c-0.005 0.041-0.013 0.082-0.013 0.125 0 0.483 0.391 0.875 0.875 0.875s0.875-0.392 0.875-0.875c0-0.043-0.007-0.084-0.013-0.125h16.276c-0.006 0.041-0.013 0.082-0.013 0.125 0 0.483 0.392 0.875 0.875 0.875s0.875-0.392 0.875-0.875c0-0.043-0.007-0.084-0.012-0.125h0.762c0.552 0 1-0.448 1-1l-1-5c0-0.552-0.448-1-1-1zM8.271 27.959c-0.402 0-0.729-0.326-0.729-0.729s0.327-0.73 0.729-0.73c0.403 0 0.729 0.326 0.729 0.73s-0.326 0.729-0.729 0.729zM10.771 27.959c-0.402 0-0.729-0.326-0.729-0.729s0.326-0.73 0.729-0.73c0.403 0 0.729 0.326 0.729 0.73s-0.326 0.729-0.729 0.729zM16.063 29.938c-1.357 0-2.458-1.101-2.458-2.458s1.101-2.459 2.458-2.459c1.358 0 2.459 1.101 2.459 2.459s-1.101 2.458-2.459 2.458zM23.5 29c0 0.276-0.224 0.5-0.5 0.5s-0.5-0.224-0.5-0.5v-3c0-0.276 0.224-0.5 0.5-0.5s0.5 0.224 0.5 0.5v3z"></path>
</svg>
