<!-- Generated by IcoMoon.io -->
<svg version="1.1" xmlns="http://www.w3.org/2000/svg" width="32" height="32" viewBox="0 0 32 32">
<title>football-ball</title>
<path d="M16 0c-8.836 0-16 7.163-16 16s7.163 16 16 16 16-7.163 16-16-7.163-16-16-16zM27.097 24.134l-0.451-1.451-6.046 0.052-1.932 5.817 0.983 0.714c-1.163 0.32-2.387 0.494-3.651 0.494-1.415 0-2.78-0.214-4.064-0.611l1.082-0.787-1.913-5.791-6.064-0.079-0.402 1.271c-1.415-2.066-2.279-4.535-2.386-7.201l0.865 0.617 4.983-3.571-1.856-5.713-1.37 0.006c1.689-2.316 4.084-4.085 6.869-4.989l-0.606 1.897 4.86 3.628 4.86-3.595-0.614-1.932c2.792 0.905 5.192 2.677 6.883 5.001l-1.189-0.008-1.857 5.713 4.952 3.561 0.707-0.5c-0.136 2.783-1.098 5.347-2.646 7.456zM11.14 14.78l1.857 5.72h6.007l1.857-5.718-4.86-3.536z"></path>
</svg>
