<!-- Generated by IcoMoon.io -->
<svg version="1.1" xmlns="http://www.w3.org/2000/svg" width="32" height="32" viewBox="0 0 32 32">
<title>Football</title>
<path d="M22.666 4c0 2.025-1.642 3.667-3.666 3.667s-3.666-1.642-3.666-3.667c0-2.025 1.642-3.667 3.666-3.667s3.666 1.642 3.666 3.667zM29 29.25c0 1.519-1.231 2.75-2.75 2.75s-2.75-1.231-2.75-2.75c0-1.519 1.231-2.75 2.75-2.75s2.75 1.231 2.75 2.75zM20.948 19.767c-0.232-1.833-1.224-3.143-2.195-4.012l3.691-3.361c1.894 0.027 3.538 0.249 4.18 0.6-0.136 0.245-0.471 0.72-1.291 1.452-0.721 0.644-0.784 1.75-0.14 2.471 0.346 0.387 0.826 0.584 1.306 0.584 0.415 0 0.831-0.146 1.165-0.445 0.828-0.74 3.351-2.992 2.299-5.422-1.288-2.971-7.12-2.931-10.541-2.633h-14.423c-0.967 0-1.75 0.784-1.75 1.75s0.783 1.75 1.75 1.75h12.13l-6.63 6.039v-1.539c0-0.689-0.405-1.314-1.033-1.597s-1.364-0.169-1.88 0.289l-2.25 2c-0.722 0.642-0.787 1.748-0.145 2.471 0.466 0.524 1.176 0.703 1.808 0.515v1.823c0 0.693 0.409 1.321 1.043 1.601 0.227 0.1 0.467 0.149 0.707 0.149 0.428 0 0.85-0.157 1.178-0.456l6.223-5.669c0.555 0.425 1.203 1.116 1.324 2.080 0.158 1.258-0.48 4.055-6.534 8.651-0.598 0.454-0.84 1.24-0.6 1.952 0.239 0.712 0.906 1.192 1.658 1.192h5c0.967 0 1.75-0.784 1.75-1.75s-0.783-1.75-1.75-1.75h-0.279c3.146-3.124 4.566-6.050 4.227-8.733z"></path>
</svg>
