<!-- Generated by IcoMoon.io -->
<svg version="1.1" xmlns="http://www.w3.org/2000/svg" width="32" height="32" viewBox="0 0 32 32">
<title>forbidden</title>
<path d="M16 0c-8.822 0-16 7.178-16 16s7.178 16 16 16 16-7.178 16-16-7.178-16-16-16zM16 29.465c-7.425 0-13.466-6.041-13.466-13.466 0-3.428 1.29-6.559 3.406-8.938l18.997 18.997c-2.38 2.117-5.511 3.407-8.938 3.407zM26.058 24.939l-18.997-18.997c2.38-2.118 5.511-3.407 8.939-3.407 7.425 0 13.465 6.040 13.465 13.465 0 3.428-1.29 6.559-3.407 8.938z"></path>
</svg>
