<!-- Generated by IcoMoon.io -->
<svg version="1.1" xmlns="http://www.w3.org/2000/svg" width="32" height="32" viewBox="0 0 32 32">
<title>forbidden-fire</title>
<path d="M16 0c-8.823 0-16 7.178-16 16s7.177 16 16 16 16-7.178 16-16-7.177-16-16-16zM16 29.465c-7.425 0-13.466-6.041-13.466-13.466 0-3.428 1.29-6.559 3.406-8.938l6.413 6.413c-0.567 0.98-1.12 1.906-1.497 2.722-2.219 4.79 0.682 10.434 5.478 10.262 2.883-0.104 4.601-1.61 5.413-3.59l3.189 3.189c-2.38 2.117-5.511 3.407-8.938 3.407zM17.366 16.246l-1.947-1.947c0.695-1.517 0.829-2.893 0.829-2.893s1.501 1.584 1.118 4.84zM18.641 14.854c0 0 0.009 1.271 0.695 3.361l-1.96-1.96 1.266-1.401zM20.003 21.123c-0.277 1.718-2.015 3.207-4.202 2.807-1.374-0.251-2.588-1.404-2.957-2.916-0.498-2.043 0.528-3.462 1.756-5.293l5.402 5.402zM26.059 24.939l-3.834-3.834c0.303-2.035-0.126-4.258-1.073-5.905-1.157-2.011 0.101-4.787 0.101-4.787-1.84 0.775-2.453 2.172-2.453 2.172s0.572-2.249-1.116-5.239c-1.687-2.989-4.235-2.691-4.235-2.691 2.041 2.052 1.079 4.808-0.291 7.384l-6.097-6.096c2.379-2.118 5.511-3.407 8.939-3.407 7.425 0 13.465 6.041 13.465 13.465 0 3.428-1.29 6.559-3.407 8.938z"></path>
</svg>
