<!-- Generated by IcoMoon.io -->
<svg version="1.1" xmlns="http://www.w3.org/2000/svg" width="32" height="32" viewBox="0 0 32 32">
<title>forbidden-phone</title>
<path d="M16 0c-8.822 0-16 7.178-16 16s7.178 16 16 16 16-7.177 16-16c0-8.822-7.178-16-16-16zM16 29.465c-7.425 0-13.466-6.041-13.466-13.466 0-3.428 1.219-6.559 3.335-8.939l4.63 4.701v13.264c0 0.91 0.88 1.474 1.791 1.474h7.419c0.91 0 1.79-0.564 1.79-1.474v-2.548l3.51 3.581c-2.38 2.117-5.582 3.407-9.010 3.407zM19 21.675c0 0.179-0.104 0.325-0.232 0.325h-1.037c-0.128 0-0.232-0.145-0.232-0.325v-0.851c0-0.179 0.104-0.325 0.232-0.325h1.037c0.128 0 0.232 0.145 0.232 0.325v0.851zM19 24.176c0 0.178-0.104 0.324-0.232 0.324h-1.037c-0.128 0-0.232-0.145-0.232-0.324v-0.852c0-0.179 0.104-0.325 0.232-0.325h1.037c0.128 0 0.232 0.145 0.232 0.324v0.852zM17.637 19.069v-0.311l0.636 0.636h-0.403c-0.129 0-0.233-0.145-0.233-0.325zM18.268 16h-1.19l-3.863-3.862c0.152-0.087 0.328-0.138 0.516-0.138h4.537c0.556 0 1.232 0.394 1.232 0.932v2.052c0 0.538-0.675 1.015-1.232 1.015zM16.5 21.675c0 0.179-0.104 0.325-0.232 0.325h-1.037c-0.128 0-0.232-0.145-0.232-0.325v-0.851c0-0.179 0.104-0.325 0.232-0.325h1.037c0.128 0 0.232 0.145 0.232 0.325v0.851zM16.5 24.176c0 0.178-0.104 0.324-0.232 0.324h-1.037c-0.128 0-0.232-0.145-0.232-0.324v-0.852c0-0.179 0.104-0.325 0.232-0.325h1.037c0.128 0 0.232 0.145 0.232 0.324v0.852zM16.5 19.175c0 0.179-0.104 0.325-0.232 0.325h-1.037c-0.128 0-0.232-0.145-0.232-0.325v-0.851c0-0.18 0.104-0.325 0.232-0.325h1.037c0.128 0 0.232 0.145 0.232 0.325v0.851zM14.839 16h-1.107c-0.556 0-1.232-0.477-1.232-1.016v-1.14l2.339 2.156zM14.5 21.675c0 0.179-0.104 0.325-0.232 0.325h-1.035c-0.129 0-0.232-0.145-0.232-0.325v-0.851c0-0.179 0.104-0.325 0.232-0.325h1.035c0.129 0 0.232 0.145 0.232 0.325v0.851zM14.5 24.176c0 0.178-0.104 0.324-0.232 0.324h-1.035c-0.129 0-0.232-0.145-0.232-0.324v-0.852c0-0.179 0.104-0.325 0.232-0.325h1.035c0.129 0 0.232 0.145 0.232 0.324v0.852zM14.5 19.175c0 0.179-0.104 0.325-0.232 0.325h-1.035c-0.129 0-0.232-0.145-0.232-0.325v-0.851c0-0.18 0.104-0.325 0.232-0.325h1.035c0.129 0 0.232 0.145 0.232 0.325v0.851zM26.13 24.939l-4.63-4.701v-8.813c0-0.653-0.5-1.216-1-1.482v-3.325c0-0.456-0.442-0.617-0.896-0.617h-0.412c-0.456 0-0.692 0.161-0.692 0.617v3.384h-6.209c-0.39 0-0.749 0.024-1.031 0.252l-4.199-4.254c2.38-2.117 5.511-3.435 8.939-3.435 7.425 0 13.501 6.027 13.501 13.451 0 3.428-1.254 6.545-3.371 8.925z"></path>
</svg>
