<!-- Generated by IcoMoon.io -->
<svg version="1.1" xmlns="http://www.w3.org/2000/svg" width="32" height="32" viewBox="0 0 32 32">
<title>forbidden-photo</title>
<path d="M16 0c-8.822 0-16 7.178-16 16s7.178 16 16 16 16-7.178 16-16-7.178-16-16-16zM16 29.465c-7.425 0-13.466-6.041-13.466-13.466 0-3.428 1.29-6.559 3.406-8.938l2.223 2.223-0.734-0.015c-0.434-0.009-0.794 0.335-0.803 0.771l-0.023 1.101-0.195 9.323-0.023 1.101c-0.009 0.434 0.336 0.794 0.771 0.803l14.393 0.301 3.391 3.391c-2.38 2.117-5.511 3.407-8.939 3.407zM8.352 10.861l1.418 0.030 1.938 1.937c-0.021 0.005-0.042 0.007-0.064 0.007l-3.332-0.069c-0.158-0.004-0.283-0.133-0.28-0.291l0.028-1.332c0.004-0.159 0.134-0.284 0.291-0.28zM17.133 21.113c0.831 0.017 1.614-0.191 2.293-0.568l0.633 0.633c-0.855 0.527-1.865 0.823-2.945 0.801-2.984-0.063-5.352-2.532-5.29-5.517 0.021-0.998 0.312-1.926 0.8-2.719l0.633 0.633c-0.347 0.624-0.552 1.34-0.568 2.104-0.052 2.506 1.937 4.579 4.443 4.632zM17.322 12.039c-1.168-0.024-2.241 0.395-3.061 1.103l-0.614-0.614c0.982-0.868 2.279-1.384 3.692-1.354 2.985 0.063 5.353 2.532 5.291 5.516-0.028 1.332-0.537 2.541-1.355 3.466l-0.613-0.613c0.667-0.771 1.079-1.771 1.102-2.87 0.052-2.506-1.936-4.58-4.442-4.633zM19.69 16.479c-0.146 0.501-0.514 0.907-0.988 1.104l-2.243-2.244c0.264-0.633 0.893-1.074 1.62-1.059 0.019 0.001 0.038 0.004 0.056 0.004-0.267-0.106-0.554-0.169-0.857-0.176-0.579-0.012-1.116 0.179-1.544 0.505l-0.367-0.367c0.527-0.421 1.197-0.668 1.922-0.653 1.644 0.034 2.954 1.4 2.919 3.043-0.015 0.68-0.259 1.302-0.654 1.796l-0.366-0.366c0.306-0.402 0.494-0.898 0.506-1.441 0-0.050-0.003-0.099-0.005-0.148zM17.175 19.043c0.231 0.005 0.455-0.024 0.668-0.080l0.41 0.41c-0.339 0.125-0.706 0.192-1.088 0.184-1.644-0.035-2.954-1.399-2.919-3.044 0.007-0.338 0.073-0.662 0.184-0.963l0.409 0.409c-0.047 0.182-0.076 0.37-0.080 0.565-0.028 1.361 1.056 2.491 2.417 2.519zM26.058 24.939l-2.223-2.223 0.758 0.016c0.434 0.009 0.794-0.336 0.803-0.77l0.218-10.424c0.009-0.434-0.336-0.794-0.77-0.803l-10.634-0.223 0.007-0.314c0.009-0.434-0.336-0.794-0.771-0.803l-2.995-0.063-3.39-3.39c2.38-2.118 5.511-3.407 8.939-3.407 7.425 0 13.465 6.040 13.465 13.465 0 3.428-1.29 6.559-3.407 8.938z"></path>
</svg>
