<!-- Generated by IcoMoon.io -->
<svg version="1.1" xmlns="http://www.w3.org/2000/svg" width="32" height="32" viewBox="0 0 32 32">
<title>forbidden-parking</title>
<path d="M16 0.115c-8.791 0-15.944 7.152-15.944 15.943s7.152 15.943 15.944 15.943 15.944-7.152 15.944-15.944c0-8.79-7.152-15.942-15.944-15.942zM16 29.474c-7.399 0-13.418-6.020-13.418-13.418 0-3.415 1.521-6.535 3.629-8.906l4.789 4.555v12.795h2.5v-5h3.658c0.45 0 0.878 0.070 1.284 0.020l6.465 6.511c-2.372 2.11-5.491 3.442-8.907 3.442zM16.003 17h-2.502v-2.492l2.502 2.492zM13.5 12.275v-1.775h3.543c1.297 0 2.289 0.319 2.977 0.859s1.032 1.371 1.032 2.445c0 1.104-0.343 1.951-1.032 2.514-0.475 0.39-1.018 0.648-1.785 0.767l-4.735-4.811zM26.023 24.964l-5.773-5.773c0.674-0.254 1.259-0.605 1.756-1.053 1.146-1.035 1.72-2.495 1.72-4.38 0-1.806-0.573-3.245-1.72-4.234s-2.764-1.524-4.848-1.524h-6.158v1.472l-3.672-3.438c2.372-2.11 5.374-3.394 8.79-3.394 7.399 0 13.358 6.019 13.358 13.417 0 3.416-1.343 6.537-3.453 8.907z"></path>
</svg>
