<!-- Generated by IcoMoon.io -->
<svg version="1.1" xmlns="http://www.w3.org/2000/svg" width="32" height="32" viewBox="0 0 32 32">
<title>forbidden-noise</title>
<path d="M15.939 0c-8.789 0-15.939 7.15-15.939 15.939s7.15 15.939 15.939 15.939 15.939-7.15 15.939-15.939-7.15-15.939-15.939-15.939zM15.939 29.353c-7.396 0-13.414-6.017-13.414-13.414 0-3.415 1.284-6.534 3.393-8.905l5.719 5.816-0.095 0.15h-4.553c-0.288 0-0.489 0.040-0.489 0.327v5.223c0 0.288 0.2 0.45 0.489 0.45h4.798l5.615 3.313c0.331 0 0.599-0.233 0.599-0.565v-2.628l6.842 6.84c-2.37 2.109-5.489 3.393-8.903 3.393zM25.959 24.843l-7.204-7.204 0.415-0.057c0.224 0 0.33-0.142 0.33-0.316v-2.655c0-0.175-0.108-0.316-0.331-0.316l-1.169-0.145v-4.021c0-0.332-0.267-0.601-0.599-0.601l-4.334 2.424-6.034-6.035c2.37-2.109 5.49-3.394 8.905-3.394 7.396 0 13.414 6.017 13.414 13.414 0 3.416-1.285 6.535-3.393 8.905zM22.139 12.774c-0.247-0.247-0.646-0.247-0.893 0-0.246 0.246-0.246 0.646 0 0.893 1.253 1.253 1.253 3.292 0 4.545-0.246 0.247-0.246 0.646 0 0.893 0.123 0.123 0.285 0.185 0.447 0.185s0.323-0.062 0.447-0.185c1.745-1.745 1.745-4.585-0-6.331zM22.847 11.173c-0.247 0.246-0.247 0.646 0 0.893 1.035 1.034 1.605 2.41 1.605 3.873s-0.57 2.839-1.605 3.873c-0.247 0.247-0.247 0.646 0 0.892 0.123 0.123 0.285 0.185 0.447 0.185s0.323-0.062 0.447-0.185c1.273-1.273 1.974-2.965 1.974-4.766s-0.701-3.493-1.974-4.766c-0.247-0.246-0.646-0.246-0.893 0z"></path>
</svg>
