<!-- Generated by IcoMoon.io -->
<svg version="1.1" xmlns="http://www.w3.org/2000/svg" width="32" height="32" viewBox="0 0 32 32">
<title>forbidden-swimming</title>
<path d="M16 0c-8.823 0-16 7.178-16 16s7.177 16 16 16 16-7.178 16-16-7.177-16-16-16zM2.534 16c0-3.428 1.29-6.559 3.406-8.938l4.774 4.774c-0.486-0.008-0.828-0.014-0.921-0.014-0.422 0-1.558 0.396-1.505 1.664 0.045 1.076 1.531 1.241 1.531 1.241l3.867 0.082 1.396 1.395-6.198 3.012c-0.299-0.204-0.62-0.438-0.973-0.701-1.854-1.382-3.729-0.914-5.138 0.003-0.155-0.816-0.24-1.657-0.24-2.518zM16 29.465c-5.912 0-10.944-3.832-12.749-9.142 0.87-0.724 2.242-1.438 3.62-0.41 1.512 1.127 2.844 1.992 4.276 1.992 1.041 0 2.136-0.459 3.389-1.607 1.117-1.026 2.122-1.532 3.119-1.523l7.285 7.285c-2.38 2.117-5.511 3.407-8.939 3.407zM26.059 24.939l-3.487-3.486c1.024 0.351 2.194 0.427 3.38 0.189 1.011-0.202 1.947-0.614 2.754-1.192-0.587 1.67-1.494 3.192-2.647 4.489zM29.421 16.912c-0.678 1.551-2.102 2.68-3.811 3.021-1.459 0.292-2.854-0.035-3.729-0.872-0.143-0.138-0.288-0.267-0.431-0.39l-3.97-5.569c0 0-0.742-1.333-1.905-1.281-0.723 0.033-1.674 0.041-2.598 0.039l-5.918-5.918c2.38-2.117 5.511-3.406 8.938-3.406 7.425 0 13.466 6.040 13.466 13.466 0 0.308-0.014 0.613-0.035 0.916l-0.010-0.005zM26.377 15.095c0 1.604-1.3 2.904-2.904 2.904s-2.904-1.3-2.904-2.904c0-1.604 1.3-2.904 2.904-2.904s2.904 1.3 2.904 2.904z"></path>
</svg>
