<!-- Generated by IcoMoon.io -->
<svg version="1.1" xmlns="http://www.w3.org/2000/svg" width="32" height="32" viewBox="0 0 32 32">
<title>forbidden-fishing</title>
<path d="M16 0c-8.822 0-16 7.178-16 16s7.178 16 16 16 16-7.178 16-16c0-8.822-7.178-16-16-16zM16 29.465c-7.425 0-13.466-6.041-13.466-13.466 0-3.428 1.301-6.559 3.418-8.938l12.047 12.035v2.233c0 1.684-1.565 3.055-3.25 3.055s-3.25-1.37-3.25-3.055v-1.878l1.348 0.739c0.659 0.066 0.356-0.922 0.356-0.922s-1.701-3.625-2.229-4.482-0.976-0.264-0.976 0.461c0 0.448 0 1.579 0 2.375v3.708c0 2.532 2.219 4.592 4.75 4.592s4.75-2.060 4.75-4.592v-0.697l5.431 5.425c-2.38 2.117-5.503 3.407-8.931 3.407zM17.399 8.070c0-0.753 0.613-1.367 1.366-1.367s1.367 0.614 1.367 1.367c0 0.754-0.613 1.367-1.367 1.367s-1.366-0.613-1.366-1.367zM26.052 24.939l-6.552-6.545v-7.521c1-0.331 2.163-1.46 2.163-2.803 0-1.601-1.3-2.904-2.901-2.904-1.602 0-2.89 1.303-2.89 2.904 0 1.327 0.628 2.447 2.128 2.792v5.995l-10.927-10.915c2.38-2.117 5.505-3.406 8.932-3.406 7.425-0.001 13.459 6.040 13.459 13.465 0 3.428-1.296 6.559-3.413 8.939z"></path>
</svg>
