<!-- Generated by IcoMoon.io -->
<svg version="1.1" xmlns="http://www.w3.org/2000/svg" width="32" height="32" viewBox="0 0 32 32">
<title>Freestyle-obstacle</title>
<path d="M23.166 4c0 2.025-1.642 3.667-3.666 3.667s-3.666-1.642-3.666-3.667c0-2.025 1.642-3.667 3.666-3.667s3.666 1.642 3.666 3.667zM25.859 9.352c1.559-1.507 2.828-3.595 3.788-6.26 0.328-0.909-0.145-1.912-1.053-2.24-0.909-0.329-1.912 0.144-2.239 1.054-1.239 3.441-3.005 5.596-5.248 6.407-3.247 1.172-6.649-0.782-6.71-0.817-0.829-0.493-1.899-0.223-2.396 0.603-0.498 0.829-0.229 1.904 0.6 2.401 0.148 0.089 2.864 1.688 6.284 1.688 1.073 0 2.218-0.158 3.372-0.569 0.188-0.067 0.371-0.14 0.553-0.219 0.53 0.35 1.375 1.025 2.099 2.139-2.392-0.764-5.532-0.871-9.226 0.698l-0.682-1.137c-0.497-0.829-1.573-1.098-2.401-0.6-0.179 0.107-0.327 0.246-0.452 0.4l-2.963-4.719c-0.255-0.81-0.13-1.149-0.104-1.206 0.241-0.295 0.224-0.729-0.051-1.005-0.293-0.293-0.768-0.293-1.061 0-0.138 0.138-0.797 0.921-0.181 2.768 0.019 0.056 0.045 0.111 0.076 0.162l13.5 21.5c0.030 0.047 0.065 0.092 0.105 0.131 0.075 0.074 0.757 0.72 2.031 0.72 0.414 0 0.75-0.336 0.75-0.75s-0.336-0.75-0.75-0.75c-0.514 0-0.822-0.177-0.928-0.25l-2.23-3.552c0.45-0.122 0.854-0.462 1.114-0.853l4.61-7.030c0.355 0.286 0.549 0.506 0.579 0.542 0.34 0.415 0.841 0.642 1.355 0.642 0.22 0 0.443-0.041 0.656-0.128 0.71-0.287 1.151-1.003 1.088-1.768-0.341-4.090-2.293-6.604-3.886-8.002zM20.078 20.736l-0.077-0.121c-0.497-0.829-1.573-1.082-2.401-0.584-0.255 0.153-0.448 0.366-0.592 0.608l-1.542-2.456c0.12-0.033 0.239-0.076 0.353-0.137 2.924-1.548 5.259-1.741 7.003-1.428l-2.744 4.117zM2.301 16.946c-0.206-0.017-0.411 0.058-0.563 0.2s-0.238 0.34-0.238 0.549v12.056c0 0.414 0.336 0.75 0.75 0.75h11.789c0.004 0 0.008 0 0.010 0 0.415 0 0.75-0.336 0.75-0.75 0-0.075-0.011-0.148-0.031-0.216-1.538-11.706-12.357-12.581-12.466-12.588z"></path>
</svg>
