<!-- Generated by IcoMoon.io -->
<svg version="1.1" xmlns="http://www.w3.org/2000/svg" width="32" height="32" viewBox="0 0 32 32">
<title>french-horn</title>
<path d="M31.937 22.916l-1.073-2.803c-0.136-0.355-0.47-0.598-0.851-0.617-0.015-0-0.032-0.001-0.047-0.001-0.363 0-0.697 0.206-0.86 0.532l-0.573 1.148-2.349 0.927c0.457-1.168 0.711-2.436 0.711-3.764 0-5.709-4.645-10.354-10.355-10.354-2.955 0-5.623 1.246-7.511 3.239 0.718-2.030 1.886-4.511 3.677-6.034h0.347c0.52 0 0.941-0.421 0.941-0.941s-0.421-0.941-0.941-0.941h-12.112c-0.52-0.001-0.941 0.421-0.941 0.94s0.42 0.941 0.941 0.941h0.351c1.253 1.296 4.5 5.080 4.535 9.546 0.019 2.539 0.307 4.417 0.546 5.552 0.061 0.317 0.136 0.628 0.224 0.933 0.014 0.052 0.027 0.097 0.039 0.137 0.008 0.024 0.014 0.049 0.021 0.073 0.024 0.078 0.038 0.118 0.038 0.118l0.001-0.004c1.352 4.145 5.252 7.151 9.844 7.151 2.515 0 4.824-0.903 6.62-2.4l6.213-2.441 1.443 0.344c0.074 0.017 0.148 0.026 0.222 0.026 0.274 0 0.539-0.116 0.724-0.328 0.235-0.268 0.303-0.645 0.175-0.977zM21.122 23.235l-3.938-3.938c-0.056-0.056-0.068-0.12-0.068-0.163 0-0.037 0.009-0.107 0.068-0.166 0.091-0.091 0.239-0.090 0.33 0l3.937 3.936c-0.107 0.113-0.215 0.224-0.329 0.33zM12.467 20.412c-0.4 0-0.726-0.326-0.726-0.726s0.325-0.724 0.726-0.724c0.4 0 0.725 0.325 0.725 0.724s-0.325 0.726-0.725 0.726zM15.13 17.75c-0.401 0-0.726-0.326-0.726-0.726s0.325-0.726 0.726-0.726c0.399 0 0.725 0.325 0.725 0.726s-0.325 0.726-0.725 0.726zM17.793 15.086c-0.401 0-0.726-0.325-0.726-0.726s0.326-0.725 0.726-0.725c0.4 0 0.725 0.323 0.725 0.725s-0.325 0.726-0.725 0.726zM21.698 14.043c0.747 0.893 1.259 1.986 1.46 3.183l-1.95-1.95c-0.131-0.132-0.281-0.229-0.439-0.306l0.928-0.928zM23.088 19.817l-3.21-3.21c-0.056-0.057-0.069-0.122-0.069-0.165 0-0.037 0.009-0.107 0.069-0.166 0.090-0.091 0.239-0.090 0.33 0l2.979 2.98c-0.026 0.189-0.057 0.376-0.099 0.56zM18.57 17.17c0.079 0.158 0.177 0.308 0.307 0.438l3.686 3.686c-0.079 0.159-0.163 0.316-0.255 0.469l-3.794-3.794c-0.131-0.131-0.281-0.229-0.439-0.305l0.494-0.493zM13.187 22.552c0.079 0.159 0.178 0.309 0.306 0.438l1.971 1.971c-1.211-0.197-2.318-0.71-3.222-1.465l0.944-0.944zM14.493 21.989c-0.056-0.056-0.068-0.12-0.068-0.163 0-0.036 0.009-0.106 0.069-0.165s0.128-0.069 0.165-0.069 0.105 0.009 0.165 0.069l3.219 3.219c-0.183 0.042-0.369 0.074-0.558 0.102l-2.992-2.992zM15.823 20.66c-0.129-0.13-0.282-0.226-0.443-0.302l0.498-0.498c0.079 0.159 0.177 0.31 0.307 0.438l3.797 3.798c-0.151 0.091-0.308 0.177-0.467 0.256l-3.692-3.692zM16.539 11.62c1.486 0 2.856 0.491 3.97 1.31l-1.084 1.085c-0.16-0.755-0.83-1.323-1.631-1.323-0.921 0-1.669 0.748-1.669 1.668 0 0.803 0.569 1.472 1.324 1.632l-0.686 0.686c-0.16-0.755-0.83-1.323-1.63-1.323-0.921 0-1.669 0.748-1.669 1.668 0 0.802 0.569 1.472 1.324 1.633l-0.686 0.686c-0.159-0.755-0.831-1.323-1.632-1.323-0.92 0-1.668 0.748-1.668 1.668 0 0.802 0.569 1.473 1.323 1.633l-0.989 0.989c-0.82-1.113-1.311-2.483-1.311-3.97 0.001-3.704 3.014-6.718 6.718-6.718z"></path>
</svg>
