<!-- Generated by IcoMoon.io -->
<svg version="1.1" xmlns="http://www.w3.org/2000/svg" width="32" height="32" viewBox="0 0 32 32">
<title>fried-egg</title>
<path d="M16.35 8.9c-3.65 0-6.65 2.95-6.65 6.65 0 3.65 2.95 6.65 6.65 6.65 3.65-0.050 6.65-3 6.65-6.7 0-3.65-3-6.6-6.65-6.6zM15.6 13.15c-0.75 0.5-1.35 1.15-1.75 1.95-0.55 1.050-1.45 0.8-1.45 0.8-0.6-0.1-0.9-1-0.5-1.8 0.55-1.1 1.4-2.1 2.45-2.8 1.3-0.8 1.85 0.25 1.85 0.25 0.35 0.65-0.1 1.25-0.6 1.6zM31.3 13v0c-1.2-2.55-3.25-3.95-5.6-3.95-0.050 0-0.15 0-0.2 0h-0.050c-1.3 0-2.25-1.85-2.25-1.85l-0.050-0.050c-0.2-0.45-2.2-4.25-6.45-4.25-1.2 0-2.4 0.3-3.7 0.9-0.85 0.4-1.6 1.050-2.4 2.050-0.55 0.7-1.35 1-2.050 0.8-1.3-0.4-2.75-0.25-3.95 0.45-1.85 1.050-2.95 3.2-2.75 5.45 0 0.25 0.050 0.45 0.1 0.7 0.050 0.2 0.2 1-0.3 1.65l-0.050 0.1c-0.3 0.55-1.9 3.3-1.65 5.25 0.5 3.4 3.75 5.9 7.75 5.9 0.45 0 0.95-0.050 1.4-0.1h0.1c0 0 0.6-0.15 1.3-0.15 0.65 0 1.15 0.15 1.35 0.35l0.6 0.65c1.35 1.55 2.85 2.3 4.55 2.3 1.1 0 2.25-0.35 3.45-1.050 1.35-0.75 2.4-1.95 3-3.4 0.3-0.75 1.050-1.25 1.85-1.25 1.050-0.050 2.050-0.35 3-0.85 3.3-1.95 4.6-6.25 3-9.65zM4.25 12.6c-0.050-0.1-0.050-0.25-0.050-0.35-0.1-1.3 0.5-2.6 1.6-3.25 0.65-0.4 1.4-0.45 2.1-0.25 0.4 0.1 0.75 0.2 1.15 0.2 1.3 0 2.55-0.65 3.4-1.75 0.55-0.7 1.050-1.15 1.55-1.4 0.95-0.45 1.85-0.7 2.7-0.7 2.95 0 4.35 2.85 4.45 3 0.15 0.35 1.6 3.2 4.3 3.2h0.25c1.45 0 2.75 0.95 3.5 2.6l0.050 0.050c1.1 2.4 0.2 5.35-2.050 6.65-0.6 0.35-1.25 0.55-1.95 0.55-1.7 0.050-3.2 1.1-3.85 2.65-0.45 1-1.15 1.8-2.050 2.35-2.050 1.15-3.6 0.95-5.15-0.8l-0.6-0.7c-0.65-0.75-1.7-1.15-3.050-1.15-0.85 0-1.6 0.15-1.8 0.2-0.35 0.050-0.7 0.050-1.050 0.050-2.85 0-5.15-1.65-5.5-3.95 0-0.8 0.8-2.65 1.4-3.65 1.050-1.4 0.8-2.95 0.65-3.55z"></path>
</svg>
