<!-- Generated by IcoMoon.io -->
<svg version="1.1" xmlns="http://www.w3.org/2000/svg" width="32" height="32" viewBox="0 0 32 32">
<title>fries</title>
<path d="M27.5 12.45v-6.85c0-1.050-0.85-1.9-1.9-1.9h-2.15v-1.35c0-1.050-0.85-1.9-1.9-1.9h-2.4c-1.050 0-1.9 0.85-1.9 1.9v2.8h-2.3v-2c0-1.050-0.85-1.9-1.9-1.9h-2.4c-1.050 0-1.9 0.85-1.9 1.9v1.4h-2.15c-1.050 0-1.9 0.85-1.9 1.9v6.050h-1.6l3.1 15.5c0.75 3.15 1.1 3.6 4.5 3.6h10.65c3.4 0 3.7-0.4 4.5-3.6l3.1-15.5h-1.45zM25.35 5.85v6.6h-1.85v-6.6h1.85zM19.45 2.6h1.85v12.35c-0.45 0.8-1.1 1.5-1.85 2.050v-14.4zM17.3 7.3v10.7c-0.4 0.1-0.85 0.15-1.3 0.15-0.35 0-0.65-0.050-0.95-0.1v-10.75h2.25zM10.95 3.4h1.85v13.8c-0.75-0.45-1.4-1.1-1.85-1.85v-11.95zM6.9 6.7h1.85v5.8h-1.85v-5.8zM24.65 25.75h-5.5c-0.45 1.15-1.65 1.95-3 1.95s-2.55-0.8-3-1.95h-5.8l-0.4-2.15h6.2c0.45-1.15 1.65-2 3-2 1.4 0 2.55 0.85 3 2h5.9l-0.4 2.15z"></path>
</svg>
