<!-- Generated by IcoMoon.io -->
<svg version="1.1" xmlns="http://www.w3.org/2000/svg" width="32" height="32" viewBox="0 0 32 32">
<title>front-parking-sensor</title>
<path d="M16.2 10.8l-2.45-1.85c-1.5 2.1-2.4 4.65-2.4 7.4 0 2.85 0.95 5.45 2.5 7.55l2.5-1.8c-1.2-1.6-1.9-3.6-1.9-5.75-0.050-2.1 0.6-4 1.75-5.55zM11.95 7.1l-2.45-1.85c-2.35 3.2-3.65 7.050-3.65 11.050 0 4.050 1.3 7.9 3.65 11.1l2.5-1.8c-1.95-2.6-3.1-5.8-3.1-9.3 0-3.4 1.15-6.6 3.050-9.2zM7.75 3.6l-2.45-1.85c-3.1 4.2-4.8 9.3-4.8 14.6 0 5.35 1.7 10.4 4.8 14.6l2.5-1.85c-2.65-3.6-4.25-8-4.25-12.8 0.050-4.7 1.6-9.1 4.2-12.7zM31.25 10.55c-0.65 0-1.2 0-1.5 0-0.15 0-0.25-0.050-0.25-0.1-0.7-0.55 0.050-1.35 0.050-1.35l1.75-2.65v-2.65c-0.45 0.1-0.85 0.3-1.1 0.65l-4.85 6.050c-2 0.050-7.5 0.15-8.4 4.8v3.4c0 1.15 1.1 2.25 2.2 2.25h2.8c0.15 1.95 1.8 3.5 3.8 3.5s3.65-1.55 3.8-3.5h1.7v-10.4z"></path>
</svg>
