<!-- Generated by IcoMoon.io -->
<svg version="1.1" xmlns="http://www.w3.org/2000/svg" width="32" height="32" viewBox="0 0 32 32">
<title>fuel-warning</title>
<path d="M30.95 19.85c0-0.050-0.6-2.5-0.6-2.5-1.6-6.3-1.15-6.4-1.15-6.4 0.35-0.5 1.35-0.3 1.050-1.45-0.45-1.45-1.15-2.7-1.85-3.85-1.55-2.55-5.2-3.5-5.2-3.5s-0.7 1.1-0.5 1.55c0.15 0.4 0.45 0.65 0.45 0.65 1.8 1.35 2.7 2.85 3.15 3.85s0.5 1.75 0.5 1.85c-0.1 3.1 1.9 9.6 2.15 11.1 0 1-1 1.85-2.050 1.85s-2.1-0.95-2.1-2v-6.35c0-1.1-0.3-2.15-1-2.9s-1.6-1.2-2.7-1.2v0-6c0-1.65-0.6-2.55-2.55-2.7h-13.45c-2.35 0.2-2.65 1.5-2.65 2.65v20.95h18.6v-12.3c0 0 1.7-0.1 1.7 1.55 0 0-0.050 6.15-0.050 6.3 0 1.15 0.45 2.2 1.25 3s1.9 1.25 3 1.25c1.1 0 2-0.35 2.95-1.15 1.35-1.2 1.25-3.45 1.050-4.25zM11.95 22.1c-1.4 0-2.45-1.1-2.45-2.45-0.1-1.85 2.4-4.35 2.45-4.35 0.050 0.050 2.55 2.5 2.45 4.35 0.050 1.35-1.050 2.45-2.45 2.45zM18.55 11.8c0 0.35-0.3 0.65-0.65 0.65h-12.35c-0.35 0-0.65-0.3-0.65-0.65v-6.75c0-0.35 0.3-0.65 0.65-0.65h12.35c0.35 0 0.65 0.3 0.65 0.65v6.75zM20.75 26.7h-17.9c-0.55 0-1.050 0.25-1.050 0.95v2.15h19.85v-2.15c0-0.7-0.35-0.95-0.9-0.95z"></path>
</svg>
