<!-- Generated by IcoMoon.io -->
<svg version="1.1" xmlns="http://www.w3.org/2000/svg" width="32" height="32" viewBox="0 0 32 32">
<title>fuel-station</title>
<path d="M6.764 0c-1.117 0-5.895 4.5-5.157 4.5h26.392v25h-6.5v-1.354c0-0.351-0.195-0.646-0.546-0.646h-0.454v-3h0.377c1.333 0 2.623-1.149 2.623-2.483v-7.121c0-1.333-1.291-2.396-2.623-2.396h-0.377v-0.693c0-0.652-0.595-1.307-1.248-1.307h-9.846c-0.652 0-1.406 0.655-1.406 1.307v15.693h-0.297c-0.35 0-0.703 0.296-0.703 0.646v1.354h-5.132c-0.417 0-0.868 0.206-0.868 0.724v1.776h30v-32h-24.235zM20.5 13.5h0.377c0.684 0 1.123 0.712 1.123 1.396v7.12c0 0.685-0.439 1.483-1.123 1.483h-0.377v-10zM18.5 18.785c0 0.119-0.096 0.215-0.215 0.215h-7.571c-0.118 0-0.214-0.096-0.214-0.215v-5.57c0-0.119 0.096-0.215 0.214-0.215h7.572c0.118 0 0.214 0.096 0.214 0.215v5.57zM14.161 14.337c-0.248 0.749-0.884 1.684-0.884 2.764 0 0.677 0.375 1.227 1.053 1.227s1.052-0.549 1.052-1.227c0-1.139-0.65-1.928-0.883-2.764-0.127-0.46-0.188-0.454-0.337 0z"></path>
</svg>
