<!-- Generated by IcoMoon.io -->
<svg version="1.1" xmlns="http://www.w3.org/2000/svg" width="32" height="32" viewBox="0 0 32 32">
<title>full-stacked-column-chart</title>
<path d="M5 28h4c0.552 0 1-0.448 1-1v-5.5c0-0.552-0.448-1-1-1h-4c-0.552 0-1 0.448-1 1v5.5c0 0.552 0.448 1 1 1zM15 28h4c0.552 0 1-0.448 1-1v-9.5c0-0.552-0.448-1-1-1h-4c-0.552 0-1 0.448-1 1v9.5c0 0.552 0.448 1 1 1zM25 28h4c0.552 0 1-0.448 1-1v-8c0-0.552-0.448-1-1-1h-4c-0.552 0-1 0.448-1 1v8c0 0.552 0.448 1 1 1zM25 16h4c0.552 0 1-0.448 1-1v-4.5c0-0.552-0.448-1-1-1h-4c-0.552 0-1 0.448-1 1v4.5c0 0.552 0.448 1 1 1zM25 7.5h4c0.552 0 1-0.448 1-1v-5c0-0.552-0.448-1-1-1h-4c-0.552 0-1 0.448-1 1v5c0 0.552 0.448 1 1 1zM15 14.5h4c0.552 0 1-0.448 1-1v-6.5c0-0.552-0.448-1-1-1h-4c-0.552 0-1 0.448-1 1v6.5c0 0.552 0.448 1 1 1zM15 4h4c0.552 0 1-0.448 1-1v-1.5c0-0.552-0.448-1-1-1h-4c-0.552 0-1 0.448-1 1v1.5c0 0.552 0.448 1 1 1zM5 18.5h4c0.552 0 1-0.448 1-1v-2c0-0.552-0.448-1-1-1h-4c-0.552 0-1 0.448-1 1v2c0 0.552 0.448 1 1 1zM5 13h4c0.552 0 1-0.448 1-1v-10.5c0-0.552-0.448-1-1-1h-4c-0.552 0-1 0.448-1 1v10.5c0 0.552 0.448 1 1 1zM31 30h-29v-29.125c0-0.483-0.391-0.875-0.875-0.875h-0.25c-0.483 0-0.875 0.392-0.875 0.875v30.25c0 0.483 0.392 0.875 0.875 0.875h30.125c0.552 0 1-0.448 1-1s-0.448-1-1-1z"></path>
</svg>
