<!-- Generated by IcoMoon.io -->
<svg version="1.1" xmlns="http://www.w3.org/2000/svg" width="32" height="32" viewBox="0 0 32 32">
<title>full-stacked-chart</title>
<path d="M5 8h5.5c0.552 0 1-0.448 1-1v-4c0-0.552-0.448-1-1-1h-5.5c-0.552 0-1 0.448-1 1v4c0 0.552 0.448 1 1 1zM5 18h9.5c0.552 0 1-0.448 1-1v-4c0-0.552-0.448-1-1-1h-9.5c-0.552 0-1 0.448-1 1v4c0 0.552 0.448 1 1 1zM5 28h8c0.552 0 1-0.448 1-1v-4c0-0.552-0.448-1-1-1h-8c-0.552 0-1 0.448-1 1v4c0 0.552 0.448 1 1 1zM17 22c-0.552 0-1 0.448-1 1v4c0 0.552 0.448 1 1 1h4.5c0.552 0 1-0.448 1-1v-4c0-0.552-0.448-1-1-1h-4.5zM30.5 22h-5c-0.552 0-1 0.448-1 1v4c0 0.552 0.448 1 1 1h5c0.552 0 1-0.448 1-1v-4c0-0.552-0.448-1-1-1zM17.5 17c0 0.552 0.448 1 1 1h6.5c0.552 0 1-0.448 1-1v-4c0-0.552-0.448-1-1-1h-6.5c-0.552 0-1 0.448-1 1v4zM31.5 13c0-0.552-0.448-1-1-1h-1.5c-0.552 0-1 0.448-1 1v4c0 0.552 0.448 1 1 1h1.5c0.552 0 1-0.448 1-1v-4zM14.5 8h2c0.552 0 1-0.448 1-1v-4c0-0.552-0.448-1-1-1h-2c-0.552 0-1 0.448-1 1v4c0 0.552 0.448 1 1 1zM20 8h10.5c0.552 0 1-0.448 1-1v-4c0-0.552-0.448-1-1-1h-10.5c-0.552 0-1 0.448-1 1v4c0 0.552 0.448 1 1 1zM31 30h-29v-29.125c0-0.483-0.391-0.875-0.875-0.875h-0.25c-0.483 0-0.875 0.392-0.875 0.875v30.25c0 0.483 0.392 0.875 0.875 0.875h30.125c0.552 0 1-0.448 1-1s-0.448-1-1-1z"></path>
</svg>
