<!-- Generated by IcoMoon.io -->
<svg version="1.1" xmlns="http://www.w3.org/2000/svg" width="32" height="32" viewBox="0 0 32 32">
<title>game-console-mini</title>
<path d="M31 1h-30c-0.552 0-1 0.448-1 1v14h32v-14c0-0.552-0.448-1-1-1zM27 13c0 0.552-0.448 1-1 1h-20c-0.552 0-1-0.448-1-1v-9c0-0.552 0.448-1 1-1h20c0.552 0 1 0.448 1 1v9zM0 16.5v13.5c0 0.552 0.448 1 1 1h30c0.552 0 1-0.448 1-1v-13.5h-32zM28.75 19.5c0.414 0 0.75 0.336 0.75 0.75s-0.336 0.75-0.75 0.75-0.75-0.336-0.75-0.75 0.336-0.75 0.75-0.75zM5 27h-1v1h-1v-1h-1v-1h1v-1h1v1h1v1zM3.5 22.5c-0.829 0-1.5-0.672-1.5-1.5s0.671-1.5 1.5-1.5 1.5 0.672 1.5 1.5-0.671 1.5-1.5 1.5zM25 28c0 0.552-0.448 1-1 1h-16c-0.552 0-1-0.448-1-1v-8.5c0-0.552 0.448-1 1-1h16c0.552 0 1 0.448 1 1v8.5zM27.25 22.5c-0.414 0-0.75-0.336-0.75-0.75s0.336-0.75 0.75-0.75 0.75 0.336 0.75 0.75-0.336 0.75-0.75 0.75zM28.75 24c-0.414 0-0.75-0.336-0.75-0.75s0.336-0.75 0.75-0.75 0.75 0.336 0.75 0.75-0.336 0.75-0.75 0.75zM30.25 22.5c-0.414 0-0.75-0.336-0.75-0.75s0.336-0.75 0.75-0.75 0.75 0.336 0.75 0.75-0.336 0.75-0.75 0.75z"></path>
</svg>
