<!-- Generated by IcoMoon.io -->
<svg version="1.1" xmlns="http://www.w3.org/2000/svg" width="32" height="32" viewBox="0 0 32 32">
<title>game-console</title>
<path d="M22.959 24.137c1.090-0.36 1.868-1.23 2.168-2.262 0.024-0.034 0.57-0.863-0.645-6.508-0.363-1.684-0.935-3.208-1.302-4.092-0.087-0.26-0.195-0.506-0.323-0.739-0.016-0.034-0.027-0.056-0.027-0.056l-0.005 0.001c-1.008-1.774-3.12-2.803-5.176-2.234-0.868 0.242-1.605 0.753-2.166 1.253h-5.694c-0.562-0.5-1.299-1.011-2.167-1.252-2.056-0.569-4.168 0.415-5.176 2.188l-0.005 0.021c0 0-0.011 0.034-0.026 0.069-0.128 0.232-0.236 0.485-0.323 0.744-0.367 0.884-0.939 2.411-1.302 4.095-1.21 5.62-0.675 6.469-0.646 6.509 0.3 1.032 1.079 1.903 2.168 2.262 1.44 0.477 2.975-0.082 3.815-1.271 0.202-0.265 0.722-1.073 1.37-2.958 1.167-0.291 2.832-0.564 4.996-0.564 2.331 0 4.11 0.317 5.304 0.631 0.639 1.843 1.15 2.633 1.349 2.893 0.84 1.188 2.375 1.745 3.814 1.27zM10 15h-2v2h-2v-2h-2v-2h2v-2h2v2h2v2zM18.799 10.694c0.657 0 1.189 0.532 1.189 1.19s-0.532 1.19-1.189 1.19c-0.657 0-1.189-0.533-1.189-1.19s0.532-1.19 1.189-1.19zM16.441 15.354c-0.657 0-1.19-0.532-1.19-1.19 0-0.656 0.533-1.189 1.19-1.189s1.189 0.533 1.189 1.189c0 0.658-0.532 1.19-1.189 1.19zM18.799 17.637c-0.657 0-1.189-0.532-1.189-1.19 0-0.656 0.532-1.189 1.189-1.189s1.189 0.532 1.189 1.189c0 0.658-0.532 1.19-1.189 1.19zM19.969 14.165c0-0.656 0.532-1.189 1.189-1.189s1.189 0.533 1.189 1.189c0 0.657-0.532 1.19-1.189 1.19s-1.189-0.532-1.189-1.19zM32 3.5c0-1.104-0.895-2-2-2h-7c-1.105 0-2 0.896-2 2l0.199 3.573c0.977 0.452 1.811 1.191 2.366 2.166l0.006-0.002c0 0 0.013 0.028 0.032 0.069 0.154 0.28 0.907 1.001 0.898 1.194 0.441 1.060 1.207 2.953 1.5 5 1 7 0 7 0 7.5-0.36 1.239-0.967 2.201-2.274 2.634-0.597 0.198-1.207 0.243-1.792 0.165l0.067 1.201-1 2.5c0 0.552 0.448 1 1 1h9c0.552 0 1-0.448 1-1l-1-2.5 1-23.5zM27 27.5c0 0.276-0.224 0.5-0.5 0.5s-0.5-0.224-0.5-0.5v-2c0-0.276 0.224-0.5 0.5-0.5s0.5 0.224 0.5 0.5v2zM27 11.5c0 0.277-0.224 0.5-0.5 0.5s-0.5-0.223-0.5-0.5v-6.5c0-0.277 0.224-0.5 0.5-0.5s0.5 0.223 0.5 0.5v6.5z"></path>
</svg>
