<!-- Generated by IcoMoon.io -->
<svg version="1.1" xmlns="http://www.w3.org/2000/svg" width="32" height="32" viewBox="0 0 32 32">
<title>game-controller</title>
<path d="M30.913 15.086c-0.458-2.126-1.18-4.051-1.644-5.167-0.111-0.328-0.247-0.639-0.407-0.934-0.020-0.043-0.034-0.072-0.034-0.072l-0.006 0.002c-1.272-2.24-3.94-3.377-6.535-2.659-1.097 0.303-2.027 0.742-2.736 1.742h-7.189c-0.709-1-1.639-1.439-2.736-1.742-2.595-0.719-5.263 0.441-6.535 2.682l-0.006-0.014c0 0-0.014 0.024-0.034 0.066-0.161 0.294-0.297 0.603-0.407 0.931-0.463 1.115-1.186 3.040-1.644 5.165-1.528 7.096-0.852 8.165-0.815 8.216 0.379 1.303 1.362 2.401 2.738 2.855 1.819 0.602 3.758-0.104 4.817-1.606 0.255-0.335 0.912-1.355 1.73-3.735 1.473-0.367 3.575-0.712 6.309-0.712 2.942 0 5.189 0.399 6.698 0.797 0.806 2.326 1.452 3.324 1.703 3.653 1.061 1.5 2.998 2.204 4.816 1.604 1.375-0.455 2.358-1.552 2.738-2.855 0.030-0.044 0.719-1.091-0.816-8.217zM12.5 15h-2.5v2.5h-2.5v-2.5h-2.5v-2.5h2.5v-2.5h2.5v2.5h2.5v2.5zM23.738 9.183c0.83 0 1.503 0.672 1.503 1.502s-0.672 1.502-1.503 1.502c-0.829 0-1.502-0.673-1.502-1.502s0.672-1.502 1.502-1.502zM20.759 15.069c-0.829 0-1.502-0.672-1.502-1.502s0.673-1.502 1.502-1.502c0.83 0 1.503 0.673 1.503 1.502s-0.673 1.502-1.503 1.502zM23.738 17.952c-0.829 0-1.502-0.672-1.502-1.503s0.673-1.502 1.502-1.502c0.83 0 1.503 0.672 1.503 1.502s-0.672 1.503-1.503 1.503zM26.716 15.069c-0.829 0-1.502-0.672-1.502-1.502s0.672-1.502 1.502-1.502c0.829 0 1.502 0.673 1.502 1.502s-0.673 1.502-1.502 1.502z"></path>
</svg>
