<!-- Generated by IcoMoon.io -->
<svg version="1.1" xmlns="http://www.w3.org/2000/svg" width="32" height="32" viewBox="0 0 32 32">
<title>garlic</title>
<path d="M31.5 20.25c-0.4-6.85-13.050-8.75-13.2-16.6 0 0 0 0 0 0 0-0.55 0-1 0-1.3 0-0.25-0.1-0.45-0.3-0.6l-0.7-0.55c-0.2-0.15-0.55-0.15-0.7 0.050l-1.1 1.15c-0.15 0.15-0.4 0.25-0.6 0.25h-0.5c-0.4 0-0.7 0.3-0.7 0.7v0.5c-0.35 7.65-12.8 9.6-13.2 16.4-0.25 4 3.35 7.25 7.45 7.25 0.7 0 1.4-0.1 2.1-0.3 0 0 0 0 0 0-2.45-1.4-4.050-4-4.050-7 0-1.9 1.3-5.55 4.9-7.65 0.3-0.15 0.6 0.2 0.4 0.45-2.85 3.4-3.45 5.7-3.3 7.8 0.25 3.35 2.6 6.15 5.7 7.1l-0.7 0.7c-0.3 0.3-0.3 0.85 0 1.15 0.15 0.15 0.35 0.25 0.55 0.25s0.4-0.1 0.55-0.25l1.050-1.050v1.4c0 0.45 0.35 0.8 0.8 0.8s0.8-0.35 0.8-0.8v-1.45l1.1 1.1c0.15 0.15 0.35 0.25 0.55 0.25s0.4-0.1 0.55-0.25c0.3-0.3 0.3-0.85 0-1.15l-0.7-0.7c3.3-1 5.7-4.050 5.7-7.7 0-1.9-1.2-4.85-3.25-7.15-0.25-0.25 0.050-0.65 0.4-0.5 2.95 1.6 4.9 5.7 4.9 7.65 0 3-1.65 5.65-4.1 7 0.65 0.2 1.4 0.3 2.1 0.3 4.15 0 7.75-3.25 7.5-7.25zM13.35 16.25c-0.95 0.9-1.6 2.050-1.85 3.3 0 0.050 0 0.1-0.050 0.15 0 0 0 0 0 0v0c-0.050 0.2-0.25 0.4-0.45 0.45-0.4 0.15-0.8-0.1-0.9-0.45-0.050-0.1-0.050-0.2-0.050-0.25 0 0 0 0 0 0s0 0 0 0c0-0.050 0-0.1 0.050-0.15 0.3-1.6 1.15-3 2.3-4.050 0.1-0.1 0.2-0.2 0.35-0.25 0.4-0.15 0.8 0.1 0.9 0.45 0.050 0.25-0.050 0.6-0.3 0.8z"></path>
</svg>
