<!-- Generated by IcoMoon.io -->
<svg version="1.1" xmlns="http://www.w3.org/2000/svg" width="32" height="32" viewBox="0 0 32 32">
<title>gas-pipe</title>
<path d="M24 17v-0.437c0-0.544-0.457-0.985-1-0.985s-1 0.441-1 0.985v0.437h-3v-3h0.646c0.543 0 0.984-0.457 0.984-1s-0.441-1-0.984-1h-0.646v-1.5h-1v-2.5h3.893c0.764 0 1.383-0.737 1.383-1.5s-0.619-1.5-1.383-1.5h-10.643c-0.764 0-1.383 0.737-1.383 1.5s0.619 1.5 1.383 1.5h3.751v2.5h-1v1.5h-0.504c-0.544 0-0.985 0.457-0.985 1s0.441 1 0.985 1h0.504v3h-3v-0.437c0-0.544-0.456-0.985-1-0.985s-1 0.441-1 0.985v0.437h-3.324c-3.053 0-5.676 2.415-5.676 5.468v4.532h5.5v-4.532c0-0.204-0.027-0.468 0.176-0.468h3.324v0.713c0 0.544 0.456 0.984 1 0.984s1-0.441 1-0.984v-0.713h11v0.713c0 0.544 0.457 0.984 1 0.984s1-0.441 1-0.984v-0.713h8v-5h-8z"></path>
</svg>
