<!-- Generated by IcoMoon.io -->
<svg version="1.1" xmlns="http://www.w3.org/2000/svg" width="32" height="32" viewBox="0 0 32 32">
<title>gears</title>
<path d="M15.839 20.363l-1.024-1.359 0.127-0.18c0.092-0.13 0.18-0.263 0.262-0.399l0.114-0.188 1.696 0.409c0.246 0.099 0.574-0.109 0.708-0.44 0.070-0.174 0.082-0.365 0.032-0.523-0.043-0.139-0.128-0.239-0.239-0.285l-0.040-0.020-1.467-0.861 0.047-0.215c0.033-0.146 0.061-0.294 0.085-0.443l0.034-0.155 1.701-0.205h0.023c0 0 0 0 0.002 0 0.282 0 0.488-0.387 0.485-0.739-0.003-0.364-0.231-0.702-0.498-0.7l-0.045-0.018-1.683-0.245-0.037-0.22c-0.027-0.158-0.060-0.316-0.098-0.47l-0.052-0.214 1.488-0.911c0.245-0.105 0.332-0.477 0.189-0.812-0.14-0.329-0.471-0.53-0.718-0.425l-0.042 0.014-1.645 0.428-0.118-0.185c-0.081-0.127-0.166-0.252-0.255-0.373l-0.13-0.178 1.030-1.409c0.188-0.19 0.126-0.567-0.133-0.823-0.164-0.161-0.376-0.248-0.568-0.233-0.073 0.006-0.177 0.030-0.258 0.112l-0.033 0.029-1.358 1.024-0.181-0.127c-0.13-0.091-0.262-0.179-0.399-0.263l-0.187-0.114 0.409-1.696c0.044-0.111 0.030-0.242-0.040-0.37-0.079-0.146-0.226-0.269-0.4-0.338-0.333-0.135-0.712-0.034-0.808 0.206l-0.019 0.040-0.861 1.466-0.214-0.048c-0.146-0.032-0.293-0.061-0.444-0.084l-0.115-0.034-0.165-1.702v-0.022c0-0.12-0.166-0.236-0.28-0.327-0.129-0.104-0.363-0.162-0.551-0.16-0.368 0.005-0.696 0.231-0.694 0.498l-0.015 0.045-0.244 1.684-0.221 0.037c-0.157 0.027-0.316 0.060-0.47 0.098l-0.214 0.052-0.91-1.488c-0.101-0.239-0.479-0.332-0.813-0.19-0.335 0.143-0.53 0.471-0.425 0.718l0.014 0.042 0.428 1.645-0.185 0.117c-0.127 0.082-0.25 0.166-0.372 0.255l-0.177 0.13-1.409-1.030c-0.183-0.181-0.576-0.117-0.824 0.134-0.256 0.26-0.31 0.637-0.12 0.825l0.030 0.034 1.024 1.358-0.127 0.179c-0.092 0.13-0.18 0.264-0.263 0.4l-0.115 0.188-1.696-0.409c-0.246-0.1-0.575 0.11-0.708 0.44-0.070 0.175-0.083 0.365-0.032 0.524 0.042 0.139 0.127 0.239 0.239 0.284l0.040 0.020 1.466 0.86-0.048 0.214c-0.033 0.146-0.062 0.294-0.084 0.444l-0.034 0.382-1.702 0.431h-0.023c-0.001 0-0.001 0-0.001 0-0.283 0-0.489 0.161-0.486 0.512 0.003 0.364 0.231 0.588 0.499 0.587l0.044-0.039 1.683 0.216 0.037 0.207c0.026 0.158 0.060 0.309 0.098 0.463l0.052 0.211-1.488 0.908c-0.111 0.047-0.194 0.149-0.234 0.289-0.046 0.159-0.030 0.349 0.044 0.522 0.139 0.328 0.472 0.529 0.718 0.425l0.042-0.015 1.645-0.428 0.118 0.185c0.080 0.127 0.166 0.251 0.255 0.372l0.13 0.177-1.030 1.409c-0.188 0.191-0.127 0.567 0.134 0.823 0.163 0.161 0.376 0.248 0.567 0.233 0.073-0.005 0.177-0.030 0.258-0.112l0.034-0.029 1.358-1.023 0.18 0.127c0.13 0.092 0.263 0.18 0.4 0.263l0.186 0.114-0.408 1.695c-0.045 0.111-0.030 0.242 0.040 0.37 0.080 0.145 0.226 0.268 0.4 0.338 0.334 0.135 0.713 0.034 0.808-0.206l0.021-0.040 0.859-1.466 0.215 0.048c0.146 0.032 0.295 0.061 0.444 0.084l0.171 0.034 0.222 1.703v0.022c0 0.12 0.11 0.236 0.223 0.327 0.129 0.104 0.335 0.163 0.523 0.16 0.369-0.005 0.682-0.232 0.681-0.498l0.008-0.044 0.239-1.683 0.219-0.037c0.158-0.027 0.316-0.061 0.47-0.098l0.213-0.052 0.911 1.488c0.102 0.239 0.478 0.331 0.812 0.189 0.335-0.143 0.531-0.471 0.426-0.718l-0.014-0.041-0.428-1.645 0.185-0.118c0.127-0.081 0.252-0.166 0.372-0.255l0.178-0.13 1.409 1.029c0.182 0.18 0.575 0.117 0.823-0.134 0.255-0.261 0.31-0.638 0.12-0.826l-0.030-0.032zM12.906 15.036c-0.021 0.291-0.072 0.573-0.154 0.838l-0.028 0.064c-0.049 0.083-0.085 0.154-0.109 0.212-0.023 0.056-0.046 0.132-0.066 0.219l-0.024 0.065c-0.131 0.262-0.291 0.509-0.477 0.73l-0.050 0.047c-0.072 0.054-0.133 0.105-0.175 0.149-0.046 0.047-0.097 0.109-0.146 0.177l-0.046 0.050c-0.215 0.186-0.454 0.349-0.709 0.483l-0.065 0.024c-0.086 0.023-0.162 0.047-0.219 0.071s-0.129 0.063-0.207 0.111l-0.063 0.030c-0.271 0.090-0.556 0.148-0.851 0.174l-0.034 0.003-0.034-0.005c-0.083-0.012-0.16-0.018-0.226-0.018s-0.145 0.009-0.226 0.021l-0.034 0.005-0.034-0.002c-0.29-0.021-0.572-0.073-0.838-0.155l-0.063-0.029c-0.081-0.047-0.154-0.085-0.213-0.108-0.056-0.023-0.132-0.046-0.219-0.067l-0.064-0.023c-0.263-0.131-0.509-0.291-0.73-0.477l-0.048-0.049c-0.053-0.072-0.106-0.133-0.149-0.174-0.045-0.044-0.106-0.094-0.178-0.146l-0.050-0.046c-0.186-0.215-0.349-0.454-0.484-0.709l-0.024-0.064c-0.021-0.081-0.045-0.157-0.072-0.218-0.024-0.058-0.063-0.129-0.111-0.207l-0.030-0.063c-0.090-0.271-0.149-0.557-0.174-0.852l-0.003-0.034 0.005-0.034c0.011-0.082 0.019-0.16 0.018-0.226s-0.009-0.143-0.021-0.226l-0.005-0.034 0.003-0.034c0.021-0.291 0.072-0.572 0.154-0.838l0.029-0.065c0.048-0.080 0.085-0.153 0.109-0.211 0.025-0.063 0.047-0.137 0.067-0.22l0.024-0.064c0.13-0.263 0.291-0.508 0.476-0.73l0.050-0.047c0.074-0.056 0.133-0.105 0.176-0.149s0.094-0.105 0.146-0.177l0.046-0.050c0.216-0.187 0.454-0.349 0.708-0.483l0.064-0.025c0.089-0.023 0.162-0.047 0.218-0.070 0.058-0.025 0.13-0.063 0.208-0.111l0.063-0.030c0.272-0.090 0.558-0.149 0.852-0.174l0.034-0.003 0.034 0.005c0.082 0.011 0.159 0.018 0.226 0.018s0.143-0.008 0.224-0.021l0.034-0.005 0.034 0.002c0.291 0.021 0.573 0.073 0.839 0.155l0.065 0.028c0.082 0.049 0.153 0.085 0.211 0.108 0.056 0.023 0.13 0.045 0.219 0.066l0.064 0.024c0.263 0.131 0.509 0.292 0.73 0.478l0.047 0.050c0.056 0.073 0.106 0.133 0.149 0.175s0.105 0.093 0.177 0.146l0.052 0.046c0.187 0.216 0.35 0.454 0.483 0.71l0.025 0.063c0.021 0.082 0.044 0.156 0.070 0.218 0.025 0.057 0.063 0.129 0.111 0.207l0.030 0.063c0.089 0.271 0.148 0.558 0.174 0.852l0.003 0.034-0.005 0.034c-0.012 0.083-0.019 0.16-0.018 0.226s0.009 0.143 0.022 0.226l0.005 0.034-0.004 0.032zM31.317 21.566l-0.035-0.009-1.299-0.45 0.005-0.178c0.003-0.13 0.001-0.259-0.005-0.387l-0.008-0.177 1.322-0.49c0.212-0.045 0.338-0.326 0.277-0.614-0.059-0.282-0.291-0.494-0.503-0.448l-0.035 0.004-1.372 0.084-0.066-0.165c-0.044-0.113-0.092-0.226-0.143-0.335l-0.075-0.162 1.037-0.957c0.178-0.122 0.189-0.43 0.022-0.674-0.105-0.154-0.259-0.256-0.413-0.273-0.058-0.006-0.145-0.003-0.221 0.049l-0.032 0.018-1.238 0.6-0.123-0.128c-0.088-0.093-0.18-0.184-0.275-0.271l-0.131-0.119 0.588-1.281c0.052-0.081 0.061-0.188 0.026-0.299-0.040-0.128-0.137-0.248-0.264-0.331-0.243-0.159-0.559-0.137-0.674 0.037l-0.021 0.028-0.91 1.029-0.163-0.071c-0.111-0.049-0.224-0.094-0.339-0.136l-0.168-0.060 0.052-1.391 0.004-0.018c0.017-0.095-0.015-0.197-0.090-0.287-0.086-0.102-0.221-0.177-0.37-0.206-0.294-0.054-0.568 0.079-0.608 0.291l-0.010 0.035-0.45 1.299-0.178-0.005c-0.13-0.003-0.259-0.001-0.387 0.005l-0.177 0.008-0.489-1.322c-0.044-0.206-0.328-0.338-0.614-0.277-0.288 0.062-0.494 0.291-0.45 0.502l0.005 0.036 0.084 1.371-0.166 0.065c-0.113 0.044-0.224 0.092-0.335 0.143l-0.162 0.076-0.957-1.037c-0.117-0.172-0.439-0.183-0.674-0.022-0.244 0.166-0.346 0.457-0.224 0.636l0.018 0.031 0.599 1.237-0.129 0.122c-0.093 0.090-0.183 0.181-0.271 0.276l-0.12 0.131-1.282-0.588c-0.18-0.117-0.474-0.003-0.63 0.239-0.084 0.128-0.122 0.277-0.108 0.41 0.012 0.116 0.064 0.209 0.145 0.262l0.029 0.022 1.030 0.91-0.072 0.163c-0.049 0.111-0.095 0.224-0.136 0.338l-0.061 0.168-1.391-0.036-0.018 0.012c-0 0-0 0-0.001 0-0.227 0-0.439 0.166-0.491 0.445-0.054 0.29 0.079 0.56 0.291 0.6l0.035 0.005 1.299 0.448-0.004 0.177c-0.003 0.13-0.001 0.258 0.005 0.387l0.008 0.177-1.323 0.49c-0.095 0.020-0.177 0.088-0.23 0.192-0.061 0.119-0.079 0.273-0.048 0.421 0.061 0.282 0.293 0.494 0.503 0.449l0.036-0.005 1.371-0.084 0.064 0.166c0.045 0.114 0.093 0.226 0.143 0.335l0.076 0.16-1.036 0.957c-0.178 0.122-0.189 0.43-0.022 0.674 0.105 0.154 0.259 0.255 0.413 0.273 0.059 0.006 0.145 0.003 0.223-0.049l0.030-0.018 1.238-0.599 0.122 0.128c0.089 0.093 0.18 0.184 0.276 0.271l0.131 0.119-0.588 1.281c-0.052 0.081-0.062 0.188-0.026 0.299 0.041 0.128 0.137 0.248 0.265 0.331 0.244 0.159 0.559 0.137 0.674-0.037l0.021-0.029 0.91-1.029 0.163 0.071c0.111 0.049 0.224 0.095 0.338 0.137l0.168 0.061-0.052 1.391-0.003 0.017c-0.018 0.095 0.014 0.198 0.090 0.287 0.087 0.102 0.221 0.177 0.371 0.205 0.294 0.054 0.569-0.079 0.609-0.291l0.009-0.035 0.451-1.299 0.177 0.005c0.13 0.003 0.259 0.001 0.387-0.005l0.177-0.008 0.491 1.323c0.044 0.206 0.327 0.337 0.614 0.277 0.288-0.061 0.494-0.291 0.449-0.503l-0.005-0.035-0.083-1.372 0.165-0.064c0.114-0.044 0.226-0.093 0.335-0.144l0.161-0.076 0.957 1.037c0.117 0.172 0.438 0.183 0.674 0.022 0.243-0.166 0.346-0.457 0.224-0.636l-0.018-0.032-0.6-1.237 0.128-0.123c0.094-0.089 0.184-0.18 0.271-0.276l0.119-0.131 1.282 0.588c0.18 0.116 0.473 0.003 0.63-0.239 0.083-0.127 0.122-0.277 0.108-0.41-0.012-0.117-0.064-0.21-0.145-0.263l-0.029-0.022-1.029-0.91 0.072-0.163c0.049-0.111 0.094-0.224 0.136-0.339l0.059-0.167 1.392 0.235 0.018 0.186h0.001c0.227 0 0.439-0.364 0.491-0.643 0.055-0.29-0.078-0.75-0.291-0.791zM27.296 21.122l-0.003 0.027-0.009 0.026c-0.021 0.064-0.039 0.125-0.049 0.177s-0.016 0.114-0.018 0.182l-0.001 0.027-0.008 0.026c-0.061 0.228-0.146 0.443-0.253 0.64l-0.032 0.047c-0.052 0.058-0.092 0.108-0.119 0.151-0.027 0.041-0.057 0.098-0.087 0.163l-0.029 0.047c-0.145 0.189-0.311 0.358-0.492 0.505l-0.047 0.030c-0.065 0.032-0.121 0.063-0.161 0.090-0.045 0.030-0.094 0.072-0.144 0.118l-0.044 0.032c-0.199 0.114-0.414 0.206-0.637 0.273l-0.055 0.009c-0.073 0.004-0.136 0.012-0.184 0.023s-0.112 0.030-0.181 0.056l-0.055 0.014c-0.229 0.029-0.465 0.031-0.702 0.006l-0.027-0.003-0.026-0.009c-0.064-0.021-0.124-0.040-0.177-0.049-0.052-0.010-0.115-0.015-0.183-0.018l-0.027-0.002-0.026-0.006c-0.227-0.062-0.444-0.147-0.64-0.253l-0.047-0.032c-0.056-0.050-0.109-0.092-0.151-0.119-0.041-0.026-0.098-0.056-0.163-0.087l-0.047-0.029c-0.189-0.145-0.358-0.311-0.505-0.492l-0.030-0.047c-0.032-0.066-0.063-0.122-0.090-0.162-0.029-0.041-0.069-0.091-0.117-0.143l-0.033-0.044c-0.114-0.201-0.206-0.415-0.273-0.638l-0.010-0.054c-0.004-0.069-0.011-0.131-0.022-0.184-0.011-0.049-0.030-0.112-0.055-0.181l-0.014-0.055c-0.030-0.229-0.032-0.465-0.005-0.703l0.003-0.027 0.009-0.026c0.023-0.064 0.093-0.124 0.103-0.177 0.011-0.053 0.073-0.116 0.073-0.183v-0.027l-0.047-0.027c0.063-0.227 0.12-0.442 0.227-0.64l0.019-0.047c0.050-0.056 0.084-0.108 0.113-0.151 0.029-0.046 0.054-0.102 0.082-0.163l0.028-0.047c0.145-0.189 0.309-0.358 0.491-0.505l0.046-0.029c0.067-0.033 0.122-0.063 0.162-0.091s0.090-0.069 0.143-0.117l0.045-0.033c0.2-0.115 0.414-0.206 0.636-0.273l0.055-0.009c0.074-0.005 0.136-0.012 0.183-0.023 0.050-0.011 0.113-0.030 0.183-0.055l0.055-0.014c0.229-0.029 0.466-0.032 0.703-0.006l0.027 0.003 0.026 0.009c0.063 0.021 0.123 0.040 0.177 0.049 0.052 0.010 0.115 0.015 0.181 0.018l0.028 0.001 0.027 0.007c0.228 0.063 0.444 0.147 0.64 0.254l0.047 0.032c0.058 0.052 0.108 0.091 0.151 0.119 0.041 0.027 0.096 0.056 0.162 0.087l0.047 0.029c0.189 0.145 0.36 0.311 0.506 0.493l0.030 0.046c0.032 0.067 0.063 0.122 0.090 0.162 0.028 0.041 0.069 0.090 0.118 0.143l0.032 0.045c0.114 0.2 0.206 0.416 0.273 0.638l0.010 0.055c0.004 0.067 0.011 0.131 0.022 0.184 0.011 0.049 0.030 0.112 0.055 0.181l0.015 0.055c0.029 0.228 0.030 0.465 0.005 0.702z"></path>
</svg>
