<!-- Generated by IcoMoon.io -->
<svg version="1.1" xmlns="http://www.w3.org/2000/svg" width="32" height="32" viewBox="0 0 32 32">
<title>general</title>
<path d="M31.7 16.55c-0.3-1.75-1.85-3.1-3.65-3.1h-0.25l-1.5-6.050c-0.35-2.1-2.2-3.7-4.4-3.7h-11.8c-2 0-3.7 1.35-4.25 3.15v0 0c-0.050 0.15-0.1 0.3-0.1 0.5l-1.55 6.1h-0.25c-1.85 0-3.35 1.35-3.65 3.1-0.050 0.050-0.050 0.1-0.050 0.2v6.25c0 0.2 0.15 0.35 0.35 0.35h1.55v2c0 1.6 1.3 2.95 2.95 2.95v0c1.6 0 2.95-1.3 2.95-2.95v-2h15.75v2c0 1.6 1.3 2.95 2.95 2.95v0c1.6 0 2.95-1.3 2.95-2.95v-2h1.65c0.2 0 0.35-0.15 0.35-0.35v-6.3c0.050-0.050 0-0.1 0-0.15zM9.6 8c0-0.2 0.15-0.35 0.35-0.35h12.15c0.2 0 0.35 0.15 0.35 0.35v0l1.35 5.45h-15.55l1.35-5.45zM5.1 21c-1.4 0-2.5-1.1-2.5-2.5s1.1-2.5 2.5-2.5c1.4 0 2.5 1.1 2.5 2.5 0 1.35-1.1 2.5-2.5 2.5zM26.8 21c-1.4 0-2.5-1.1-2.5-2.5s1.1-2.5 2.5-2.5 2.5 1.1 2.5 2.5c0 1.35-1.1 2.5-2.5 2.5z"></path>
</svg>
