<!-- Generated by IcoMoon.io -->
<svg version="1.1" xmlns="http://www.w3.org/2000/svg" width="32" height="32" viewBox="0 0 32 32">
<title>geographic-bubble-chart</title>
<path d="M8 23.75c0-1.172-0.892-2.12-1.994-2.125l0.212 4.226c1-0.116 1.782-1.007 1.782-2.102zM13 5.75c0 1.174-0.895 2.125-2 2.125s-2-0.951-2-2.125c0-1.174 0.895-2.125 2-2.125s2 0.951 2 2.125zM13.5 0.5l-10 1-3.5-0.813 1 2.313-0.5 4.5 0.5 4.5 2 0.5 1 2-1 0.5 0.5 2.5 1.361 2.177c0.361-0.113 0.743-0.177 1.139-0.177 2.209 0 4 1.903 4 4.25 0 2.231-1.619 4.057-3.676 4.233l0.176 3.517 3-3 2.5-3.5 2.5-3-2-2-4.5-3.5-3-1.5-0.5-1.5 2-1c0 0 3-0.5 3.5-0.5s3-0.5 3-0.5l1 2 0.5-2.5 1-1 0.5-6-2.5-3.5zM11 10c-2.209 0-4-1.903-4-4.25s1.791-4.25 4-4.25 4 1.903 4 4.25-1.791 4.25-4 4.25zM6 25.875c-1.104 0-2-0.951-2-2.125s0.896-2.125 2-2.125c0.002 0 0.004 0 0.006 0l-0.006-0.125-1.139-1.823c-1.654 0.521-2.861 2.146-2.861 4.073 0 2.347 1.791 4.25 4 4.25 0.109 0 0.217-0.009 0.324-0.017l-0.106-2.131c-0.072 0.009-0.143 0.023-0.218 0.023zM28.5 18.75c0 1.174-0.895 2.125-2 2.125s-2-0.951-2-2.125c0-1.174 0.895-2.125 2-2.125s2 0.951 2 2.125zM31 12.5l-2-1 1.5-0.5 1.5-0.188-0.5-10.813-4.5 1.5-5-0.5h-3l1.5 1.5c0 0 0.5 1-0.5 1s-3 0-3 0l1 1v1l1.5-1 1 0.5-0.5 1-2 1-0.5 2.5-0.5 0.5-0.5 1.5v2.5h2l-0.5-2.5 3-1 2.5-0.5 1.5-1 1 1 1 0.5v1l-0.5 0.5-2 0.5-3 0.5-1.5 1-2.5 1h-1l-0.5 4.5 2.5 3 3 1 2 2v3l1 2 2.5 1 2-3 2.5-5.5-0.5-4-0.5-3.5-0.5-1.5 2 0.75-1-2.25zM30.5 18.75c0 2.347-1.791 4.25-4 4.25s-4-1.903-4-4.25 1.791-4.25 4-4.25 4 1.903 4 4.25z"></path>
</svg>
