<!-- Generated by IcoMoon.io -->
<svg version="1.1" xmlns="http://www.w3.org/2000/svg" width="32" height="32" viewBox="0 0 32 32">
<title>gg-circle</title>
<path d="M16 0.333c-8.653 0-15.668 7.014-15.668 15.668s7.014 15.668 15.668 15.668 15.668-7.015 15.668-15.668-7.015-15.668-15.668-15.668zM15.918 22.055l-3.816 3.816-9.954-9.954 9.954-9.954 3.318 3.318-2.323 2.323-0.995-0.995-5.309 5.309 5.309 5.308 1.494-1.492-3.651-3.649 2.322-2.323 5.973 5.973-2.322 2.322zM22.221 23.714l-2.322 2.323-3.318-3.317 2.322-2.323 0.995 0.995 5.309-5.308-5.308-5.309-1.494 1.492 3.65 3.65-2.323 2.322-5.973-5.973 6.139-6.138 9.953 9.954-7.633 7.631z"></path>
</svg>
