<!-- Generated by IcoMoon.io -->
<svg version="1.1" xmlns="http://www.w3.org/2000/svg" width="32" height="32" viewBox="0 0 32 32">
<title>gift</title>
<path d="M18.5 20h-15.5v9.257c0 1.105 0.896 2.243 2 2.243h22c1.105 0 2-1.139 2-2.243v-9.257h-10.5zM31 11.5h-8.762c2.041-0.5 2.968-1.14 3.38-1.617 1.518-1.54 2.181-3.185 1.971-4.77-0.302-2.268-2.282-3.497-2.507-3.626-0.077-0.044-0.159-0.097-0.242-0.127-2.47-0.882-4.646-0.8-6.468 0.258-0.989 0.574-1.735 1.364-2.294 2.183-0.517-0.807-1.214-1.591-2.152-2.162-1.775-1.083-3.938-1.181-6.428-0.292-0.068 0.024-0.134 0.052-0.197 0.087-0.249 0.132-2.445 1.357-2.798 3.705-0.235 1.562 0.399 3.239 1.883 4.745 0.411 0.478 1.338 1.118 3.379 1.618h-8.761c-0.552 0-1 0.204-1 0.757v5.5c0 0.552 0.448 1.243 1 1.243h13v-7.284c0.62 0.025 1.279 0.041 2 0.041 0.918 0 1.744-0.024 2.5-0.063v7.306h12.5c0.552 0 1-0.691 1-1.243v-5.5c0-0.553-0.448-0.757-1-0.757zM8.605 7.742c-0.014-0.016-0.030-0.032-0.044-0.046-0.556-0.557-1.199-1.374-1.095-2.103 0.096-0.683 0.815-1.253 1.16-1.466 1.534-0.525 2.787-0.503 3.726 0.064 1.75 1.057 2.154 3.712 2.162 3.77 0.004 0.026 0.011 0.050 0.016 0.075 0.008 0.044 0.015 0.088 0.028 0.131s0.028 0.082 0.044 0.123c0.010 0.025 0.018 0.052 0.028 0.076 0.024 0.052 0.051 0.101 0.079 0.149 0.008 0.012 0.012 0.025 0.020 0.037 0.034 0.054 0.072 0.105 0.112 0.154 0.005 0.005 0.008 0.011 0.013 0.017 0.006 0.007 0.011 0.015 0.017 0.022-4.716-0.107-6.079-0.879-6.266-1.001zM17.344 8.419c0.002-0.002 0.003-0.005 0.004-0.007 0.056-0.116 0.097-0.241 0.122-0.37 0.002-0.007 0.005-0.011 0.006-0.017 0.006-0.027 0.532-2.748 2.412-3.829 0.519-0.298 1.116-0.448 1.788-0.448 0.606 0 1.273 0.122 1.995 0.365 0.23 0.163 0.855 0.666 0.943 1.332 0.104 0.785-0.581 1.657-1.175 2.25-0.070 0.070-0.133 0.146-0.188 0.229-0.006 0.008-1.716 0.713-6.123 0.819 0.086-0.098 0.157-0.207 0.215-0.325z"></path>
</svg>
