<!-- Generated by IcoMoon.io -->
<svg version="1.1" xmlns="http://www.w3.org/2000/svg" width="32" height="32" viewBox="0 0 32 32">
<title>glasses</title>
<path d="M16 12.292c-1.333-0.294-16.123-4.053-15.999-0.327 0 13.676 14.549 10.643 14.785 4.18 0.233-1.989 2.241-1.995 2.428 0 0.236 6.614 14.785 9.495 14.785-4.18 0.126-3.726-14.664 0.033-15.998 0.327zM13.12 16.55c-0.437 1.544-2.218 3.528-5.372 3.544-1.875 0.010-3.792-1.267-4.577-2.694-0.784-1.425-0.812-3.158 0.017-4.178 1.005-1.236 3.031-1.348 5.91-0.904 2.919 0.451 3.936 1.71 3.936 1.71 0.312 0.319 0.452 1.226 0.085 2.521zM28.828 17.401c-0.785 1.427-2.703 2.703-4.577 2.694-3.154-0.017-4.935-2-5.372-3.544-0.366-1.296-0.227-2.201 0.085-2.521 0 0 1.016-1.258 3.936-1.71 2.88-0.445 4.906-0.332 5.91 0.904 0.829 1.019 0.802 2.752 0.017 4.178z"></path>
</svg>
