<!-- Generated by IcoMoon.io -->
<svg version="1.1" xmlns="http://www.w3.org/2000/svg" width="32" height="32" viewBox="0 0 32 32">
<title>glass2</title>
<path d="M27.15 11c-0.5-2.45-2.1-7.15-2.9-8.75h-16.5c-0.8 1.6-2.45 6.3-2.9 8.75 0 0-1.95 10.45 10.15 11.65v3.85l-5.65 1.25c0 0-0.050 0-0.050 0v0 0c-0.7 0.1-1.25 0.5-1.25 1 0 0.55 0.7 1.050 1.6 1.050h12.8c0.85 0 1.6-0.45 1.6-1.050 0-0.5-0.55-0.9-1.25-1v0 0c0 0-0.050 0-0.050 0l-5.7-1.25v-3.8c12.050-1.25 10.1-11.7 10.1-11.7zM11.2 10.15c-0.6 2.3-0.3 4.6 0.85 6.45 0.3 0.45 0.1 1.1-0.4 1.45-0.050 0.050-0.1 0.050-0.15 0.1-0.5 0.25-1.1 0.1-1.35-0.35-1.35-2.15-1.7-4.9-1.1-7.65h-2c0.5-1.9 1.35-4.4 2-6h14c0.65 1.6 1.5 4.1 2 6h-13.85z"></path>
</svg>
