<!-- Generated by IcoMoon.io -->
<svg version="1.1" xmlns="http://www.w3.org/2000/svg" width="32" height="32" viewBox="0 0 32 32">
<title>globe</title>
<path d="M16 0c-8.836 0-16 7.163-16 16s7.163 16 16 16 16-7.163 16-16-7.163-16-16-16zM5.275 6.394c0.103 0.093 0.268 0.207 0.447 0.185 0.296-0.037 0.481-0.407 0.741-0.666s0.445-0.296 0.741-0.63c0.296-0.335 0.445-0.482 0.742-0.26s0.407 0.49 0.407 0.727c0 0.237-0.63-0.023-0.223 0.459s0.149-0.074 0.408 0.705c0.26 0.778 0.296 1.038 0 0.816-0.297-0.222-0.816-0.371-1.112-0.222s-0.705 0.741-1.297 0.964c-0.593 0.222-0.519 0.778-0.519 0.778l-0.446 0.927c0 0 0.149 0.445 0 0.704-0.148 0.26-1.038 1.075-2.298 1.002s-0.037 0.853-0.742 1.001c-0.086 0.018-0.151 0.043-0.199 0.072 0.537-2.486 1.711-4.733 3.348-6.56zM1.907 13.047c-0.016 0.079-0.032 0.158-0.048 0.238 0.087 0.159 0.267 0.302 0.267 0.302l0.148 1.001 0.333 0.223-0.26 1.001-0.333 0.779-0.202 0.779-0.129 0.177c-0.054-0.508-0.083-1.023-0.083-1.545 0-1.012 0.109-1.999 0.307-2.953zM10.504 20.89l-0.074 0.668-0.134 2.113 0.204 0.259v0.571h-0.589c0 0-0.816 0.178-0.927 0.438-0.112 0.26-0.398 0.794-0.236 1.573s0 0.605 0 0.605l-0.469 0.611-0.248 0.269c-1.088-0.724-2.069-1.593-2.921-2.578l0.213-2.127-0.276-0.875-0.351-1.116-0.789-0.631-0.705-1.075c0 0-0.445-1.669 0-2.335s0.371-0.964 0.371-0.964l0.184-0.667c0 0 0.15-0.111 0.223-0.222s0.446-0.246 0.446-0.246 0.407 0.024 0.593 0.432c0.186 0.407 0.63 0.963 0.63 0.963s0.779 0.866 1.001 0.822c0.223-0.044 0.446 0 0.446 0s0.63 0.439 0.889 1.365c0.259 0.927-0.482 0.334 0 0.667s0.408 0.186 0.408 0.186l0.704 0.032c0 0 1.149 0.189 1.409 0.598s0.001 0.666 0.001 0.666zM30.224 14.774c-0.074 0.149-0.148 0.556-0.259 0.667s-0.556 0.26-0.556 0.26l-0.407-0.37-0.26-0.172-0.148 0.507 0.297 0.889c0 0 0.593 0 0.703 0.037 0.111 0.037 0.371 0.334 0.371 0.334s-0.111 0.222-0.26 0.667c-0.148 0.445-0.482 0.483-0.704 0.741-0.222 0.26-0.26 0.222-0.37 0.556-0.111 0.333-0.778 1.112-0.778 1.112s0.186 0.964 0.222 1.075c0.037 0.111-0.37 0.63-0.37 0.63l-0.704 1.001v1.113c0 0-0.89 1.149-0.854 1.408 0.038 0.26-1.316 1.409-1.316 1.409s-0.417 0.074-0.713 0.334c-0.297 0.259-1.377 0-1.377 0l-0.113-0.853-0.484-0.593c0 0 0.185-0.704 0.297-0.964s-0.037-0.779-0.186-0.927c-0.148-0.148-0.148-2.335-0.148-2.335l0.37-0.631 0.149-0.519-0.483-0.37-0.259-0.927-0.668-0.889-0.281-0.186c0 0-0.645 0.112-0.942 0.075s-0.704-0.075-0.816 0.148-0.445 0.149-0.556 0.149c-0.111 0-0.779 0.222-0.779 0.222s-0.556-0.186-1.001-0.704-0.593-1.372-0.741-1.557c-0.149-0.184-0.556-0.556-0.578-1.001s0.319-0.594 0.281-0.704c-0.037-0.111-0.185-0.259-0.26-1.001s0.037-0.594 0.371-0.927c0.333-0.334 0.815-0.482 0.926-0.445s0.704-0.519 0.816-0.796c0.111-0.276 0.222-0.613 0.518-0.873s0.482-0.482 0.927-0.482 0.519 0.408 0.852 0.556c0.334 0.148 0.296-0.594 0.334-0.816s0.927 0 0.927 0l0.297 0.26 0.619 0.482c0 0 0.642 0.816 0.864 0.869s0.297-0.461 0.408-0.35c0.111 0.111 0.63-0.519 0.741-0.334s0.445 0.223 0.667 0.519c0.223 0.297 0.779 0.037 1.224 0.148 0.445 0.112 0.222-0.37 0.296-0.704s-0.111-0.519-0.334-0.98c-0.222-0.46-0.482-0.206-1.297-0.243s-0.408 0.334-0.631 0.222c-0.223-0.111-0.223-0.111-0.593-0.482s-0.259-0.26-0.407-0.816c-0.149-0.556-0.223-0.445-0.445-0.445s0 0.223-0.149 0.889c-0.148 0.668-0.334 0.111-0.815 0s-0.186-0.073-0.334-0.259c-0.148-0.185-0.037-0.519-0.223-0.556-0.184-0.037-0.555 0.148-0.852 0.185-0.296 0.037-0.555 0.222-0.815 0.482s-0.741 1.001-0.741 1.001-0.408-0.259-0.631-0.445c-0.223-0.185-0.111-0.667-0.149-0.816-0.037-0.148 0.477-0.74 0.625-0.815 0.151-0.073 0.96-0.369 0.96-0.369v-0.371c0 0 0.34-0.705 0.34-0.816s0.54-0.149 0.8 0.037c0.259 0.185 0.325 0 0.622 0.149s0.238-0.223 0.348-0.334-0.029-0.407-0.178-0.407c-0.148 0-0.292-0.186-0.404-0.733s0.764-0.378 0.949-0.679c0.185-0.3 1.023-0.256 1.023-0.256v-0.153c-1.5-1.5-4-2-6.426-1.884 0.128 0.127 0.328 0.332 0.463 0.442 0.186 0.15 0.311 0.78 0.014 0.558s-1.031-0.534-1.031-0.534-0.155 0.608-0.502 0.719c-0.348 0.111-0.605 0.371-0.791 0.26s-0.296-0.104-0.592 0.171c-0.297 0.274-0.482 0.459-1.001 0.497s-0.556 0.483-0.593 0.594c-0.037 0.112-0.222 0.333-0.556 0.407s-1.223-0.222-1.075-0.481c0.148-0.26 0.37-0.772 0.704-1.016s0.594-0.663 0.594-0.663l-0.274-0.381c0.216-0.063 0.433-0.122 0.653-0.176l0.399 0.483 0.556-0.643c0 0 0.297-0.155 0.742 0.030s0.482 0.534 0.852 0.090c0.143-0.171 0.158-0.278 0.152-0.351 0.236-0.012 0.473-0.018 0.711-0.018 7.056 0 12.922 5.075 14.157 11.774-0.165-0.043-0.242-0.060-0.271-0.063 0.003 0.009 0.005 0.017 0.005 0.017s-0.049-0.021-0.005-0.017c-0.018-0.056-0.091-0.206-0.218 0.462-0.148 0.779 0.111 0.296 0.37 0.556 0.261 0.259 0.261 0.296 0.186 0.445zM30.399 15.968c0 0.011 0.001 0.021 0.001 0.032 0 0 0 0 0 0 0-0.011-0.001-0.021-0.001-0.033z"></path>
</svg>
