<!-- Generated by IcoMoon.io -->
<svg version="1.1" xmlns="http://www.w3.org/2000/svg" width="32" height="32" viewBox="0 0 32 32">
<title>gloves</title>
<path d="M31.252 9.302c-0.549-0.148-1.124 0.213-1.282 0.806l-0.958 3.576-0.588-0.158 1.416-5.284c0.171-0.638-0.2-1.291-0.826-1.458s-1.273 0.212-1.445 0.85l-1.416 5.284-0.483-0.129 1.72-6.422c0.172-0.638-0.198-1.291-0.825-1.458-0.628-0.168-1.275 0.212-1.446 0.85l-1.72 6.422-0.64-0.171 1.375-5.133c0.171-0.638-0.198-1.29-0.826-1.458s-1.274 0.212-1.445 0.85l-1.823 6.807c-0.001 0.005-0.001 0.008-0.002 0.011s-0.004 0.008-0.005 0.013l-0.317 1.185-0.311-1.989c-0.302-1.474-1.501-1.153-1.501-1.153-1.21 0.249-0.989 1.71-0.989 1.71l0.357 3.138c0.145 2.519 0.984 4.809 1.178 5.253-0.195 0.003-0.373 0.126-0.427 0.324l-0.727 2.715c-0.064 0.239 0.078 0.484 0.317 0.548l8.549 2.291c0.238 0.064 0.484-0.078 0.549-0.317l0.727-2.715c0.052-0.198-0.040-0.395-0.209-0.494 0.805-0.608 1.843-2.495 2.491-4.556l0.836-3.12c0.011-0.041 0.018-0.084 0.027-0.125l1.38-5.15c0.159-0.595-0.157-1.194-0.707-1.341zM25.978 25.151c-0.116 0.434-0.563 0.692-0.997 0.575s-0.692-0.563-0.575-0.997c0.116-0.434 0.562-0.692 0.995-0.576 0.434 0.117 0.692 0.563 0.576 0.997zM14.098 11.139c0 0-1.198-0.321-1.501 1.153l-0.311 1.989-0.318-1.185c-0.002-0.005-0.004-0.008-0.005-0.013s-0.001-0.007-0.002-0.011l-1.823-6.806c-0.171-0.638-0.818-1.018-1.444-0.85-0.628 0.168-0.998 0.821-0.827 1.458l1.375 5.134-0.64 0.171-1.72-6.422c-0.171-0.638-0.818-1.019-1.446-0.85s-0.997 0.821-0.825 1.458l1.72 6.422-0.482 0.13-1.416-5.284c-0.171-0.638-0.818-1.018-1.445-0.85s-0.998 0.821-0.827 1.458l1.417 5.284-0.588 0.158-0.958-3.576c-0.159-0.593-0.734-0.954-1.283-0.806-0.55 0.148-0.866 0.746-0.708 1.339l1.38 5.15c0.008 0.041 0.016 0.084 0.027 0.125l0.835 3.119c0.648 2.061 1.686 3.948 2.492 4.556-0.169 0.099-0.261 0.296-0.209 0.494l0.728 2.715c0.064 0.238 0.309 0.381 0.548 0.317l8.549-2.291c0.239-0.064 0.38-0.309 0.317-0.548l-0.727-2.715c-0.053-0.198-0.232-0.322-0.427-0.324 0.195-0.444 1.033-2.734 1.178-5.253l0.356-3.138c0 0.001 0.221-1.46-0.989-1.708zM7.019 25.727c-0.434 0.116-0.88-0.142-0.997-0.575-0.116-0.434 0.141-0.88 0.575-0.997 0.433-0.116 0.88 0.142 0.995 0.576 0.117 0.433-0.141 0.88-0.574 0.996z"></path>
</svg>
