<!-- Generated by IcoMoon.io -->
<svg version="1.1" xmlns="http://www.w3.org/2000/svg" width="32" height="32" viewBox="0 0 32 32">
<title>glue</title>
<path d="M31.832 9.041l-6.566-1.383c-0.152-0.642-0.727-1.158-1.416-1.158h-8.782l-0.29 0.5h-7.779v-0.5h-1.194c-0.548 0-1.024 0.5-1.273 0.5h-4.534v4.5h4.5v1.71c0 0.805 0.503 1.79 1.306 1.79h1.596c0.529 0.5 1.161 1.16 0.722 1.879-0.697 1.14-2.612 4.506-2.264 8.947l4.702 0.002c0 0 1.132-0.413 0.456-2.329-0.617-1.749-0.010-5.325 1.111-6.776 0.082-0.107 0.174-0.181 0.271-0.28l1.421 5.058h3.178v-1.282l-1.111-0.261-0.839-3.705 0.749-1.252h8.051c0.804 0 1.649-0.986 1.649-1.79v-2.058l6.428-1.338c0.224-0.053 0.127-0.721-0.096-0.774zM4.5 10.5h-3.5v-2.5h3.5v2.5zM14.198 8.669c0 0.388-0.217 0.831-0.485 0.831h-6.004c-0.268 0-0.709-0.287-0.709-0.675v-0.825h7.407l-0.209 0.669z"></path>
</svg>
