<!-- Generated by IcoMoon.io -->
<svg version="1.1" xmlns="http://www.w3.org/2000/svg" width="32" height="32" viewBox="0 0 32 32">
<title>golf-hole</title>
<path d="M9.47 27h0.059c0.537 0 0.971-0.434 0.971-0.971v-24.559c0-0.536-0.434-0.971-0.97-0.971h-0.059c-0.537 0-0.971 0.434-0.971 0.971v24.558c0 0.537 0.434 0.971 0.97 0.971zM15.941 9.528c3.088-6.793 6.794-5.559 6.794-5.559-4.323-2.47-4.323-1.235-6.794 0s-4.941-2.47-4.941-2.47v8.646c3.088 1.236 4.941-0.617 4.941-0.617zM28.5 12c-2-2-10.5-2-12 1.5-0.921 2.149-3.37 3.79-5.5 4.899v5.508c1.324 0.29 2.25 0.949 2.25 1.718 0 1.035-1.678 1.875-3.75 1.875s-3.75-0.84-3.75-1.875c0-0.769 0.926-1.428 2.25-1.718v-4.129c-0.22 0.093-0.393 0.168-0.5 0.222-1 0.5-7.5 0.209-7.5 5.709s7.5 5.791 7.5 5.791 22.5 1.666 24-7.416-1-10.084-3-12.084zM16 24c-1.104 0-2-0.895-2-2s0.896-2 2-2 2 0.895 2 2-0.895 2-2 2z"></path>
</svg>
