<!-- Generated by IcoMoon.io -->
<svg version="1.1" xmlns="http://www.w3.org/2000/svg" width="32" height="32" viewBox="0 0 32 32">
<title>gps</title>
<path d="M25.226 9.226c0-5.095-4.13-9.226-9.226-9.226s-9.226 4.131-9.226 9.226c0 0.786 0.109 1.546 0.294 2.274h-0.068l0.143 0.291c0.301 1.037 0.779 1.997 1.398 2.849l5.574 11.36h0.129c0.137 0.849 0.869 1.5 1.757 1.5s1.619-0.651 1.757-1.5h0.129l5.573-11.36c0.619-0.852 1.098-1.812 1.398-2.849l0.142-0.291h-0.068c0.185-0.729 0.294-1.488 0.294-2.274zM16 14.494c-2.909 0-5.268-2.358-5.268-5.268s2.358-5.268 5.268-5.268c2.91 0 5.267 2.359 5.267 5.268s-2.358 5.268-5.268 5.268zM25.5 23c0-0.614-1.064-1.5-1.679-1.5h-1.857l-3.463 6c0 0-1 1.5-2.5 1.5-1.066 0-2.5-1.5-2.5-1.5l-3.446-6h-2.375c-0.614 0-1.679 0.886-1.679 1.5l-3 7.905c0 0.615 0.498 1.095 1.114 1.095h23.273c0.614 0 1.113-0.48 1.113-1.095l-3-7.905z"></path>
</svg>
