<!-- Generated by IcoMoon.io -->
<svg version="1.1" xmlns="http://www.w3.org/2000/svg" width="32" height="32" viewBox="0 0 32 32">
<title>graduation-cap</title>
<path d="M31 7.95l-12.92-3.037c-1.58-0.463-2.982-0.502-4.457-0.010l-12.046 3.354c-1.476 0.492-1.577 1.566-0.077 2.191l1 0.255v2.837c-0.581 0.207-1 0.756-1 1.408v11.5c0 0.276 0.224 0.5 0.5 0.5s0.5-0.224 0.5-0.5v0.5c0 0.276 0.224 0.5 0.5 0.5s0.5-0.224 0.5-0.5v-0.5c0 0.276 0.224 0.5 0.5 0.5s0.5-0.224 0.5-0.5v-11.5c0-0.652-0.419-1.201-1-1.408v-2.582l9.92 2.527c1.58 0.463 2.982 0.502 4.457 0.010l13.046-3.354c1.476-0.492 1.577-1.692 0.077-2.192zM26.235 22.124l-0.802-9.127-7.23 1.86c-1.771 0.591-3.453 0.544-5.349-0.011l-6.311-1.608-0.783 8.915c-0.001 0.018-0.010 0.036-0.010 0.055 0 0.006 0.003 0.131 0.003 0.137l-0.003 0.157h0.011c0.112 1.5 4.649 2.788 10.239 2.788 5.556 0 10.069-1.288 10.235-2.788h0.015l-0.005-0.162c0-0.009 0.005-0.070 0.005-0.080 0-0.027-0.012-0.107-0.015-0.134z"></path>
</svg>
