<!-- Generated by IcoMoon.io -->
<svg version="1.1" xmlns="http://www.w3.org/2000/svg" width="32" height="32" viewBox="0 0 32 32">
<title>grapes</title>
<path d="M11.65 18.75c-1.050 0.25-2.25 0.2-3.3-0.35-0.25 0.25-0.45 0.5-0.65 0.85-1 1.75-0.4 3.95 1.35 4.95s3.95 0.4 4.95-1.35c0.2-0.35 0.3-0.65 0.4-1-0.2-0.1-0.4-0.15-0.6-0.3-1.1-0.65-1.85-1.7-2.15-2.8zM7.3 12.35c-1 1.75-0.4 3.95 1.35 4.95 0.9 0.5 1.9 0.6 2.8 0.35-0.050-0.9 0.15-1.75 0.6-2.6 0.45-0.8 1.15-1.45 1.9-1.85-0.25-0.9-0.85-1.7-1.7-2.2-1.75-1-3.95-0.4-4.95 1.35zM15 12.8c1.15-0.3 2.4-0.15 3.5 0.45 0.15 0.1 0.35 0.2 0.5 0.3 0.35-0.3 0.65-0.6 0.85-1 0.7-1.25 0.6-2.7-0.15-3.8 0.75-0.6 1.35-1.35 1.8-2.15 1.5 1.55 5.4 4.45 9.65-0.45-3.4-4.4-6.85-3.1-8.8-1.75 0.35-1.4 0.2-3.25-0.35-3.9-0.35-0.45-1.050-0.45-1.45 0-0.3 0.35-0.2 0.8-0.2 1.25 0.35 2.95-0.9 4.1-2.35 5.65-1.7-0.7-3.65-0.050-4.55 1.55-0.2 0.4-0.35 0.8-0.45 1.25 1.050 0.65 1.7 1.55 2 2.6zM23.6 17.45c0.5-0.3 0.95-0.75 1.25-1.3 1-1.75 0.4-3.95-1.35-4.95-0.65-0.35-1.35-0.5-2.050-0.45 0 0.8-0.2 1.6-0.6 2.35-0.2 0.35-0.65 0.9-1 1.25 0.65 0.8 1 1.75 1.1 2.75 0.85-0.15 1.75 0 2.65 0.35zM6.6 23.15c-0.7-1.35-0.7-3.050 0.1-4.45 0.15-0.25 0.35-0.5 0.55-0.75-0.3-0.35-0.6-0.65-1-0.85-1.75-1-3.95-0.4-4.95 1.35s-0.4 3.95 1.35 4.95c0.8 0.45 1.7 0.55 2.55 0.4 0.25-0.1 0.45-0.15 0.7-0.25s0.5-0.25 0.7-0.4zM9.050 9.6c0.95-0.3 2-0.3 3 0.1 0.1-0.45 0.25-0.85 0.5-1.25 0.45-0.75 1.050-1.35 1.7-1.75-0.3-0.6-0.8-1.15-1.45-1.5-1.75-1-3.95-0.4-4.95 1.35-0.25 0.4-0.4 0.85-0.45 1.3 0.75 0.45 1.3 1.050 1.65 1.75zM23.45 18.65c-0.8-0.45-1.75-0.6-2.6-0.4-0.1 0.5-0.25 1-0.55 1.5-0.55 0.95-1.35 1.65-2.3 2 0 1.3 0.65 2.5 1.85 3.2 1.75 1 3.95 0.4 4.95-1.35s0.4-4-1.35-4.95zM16 22.6c-0.2-0.1-0.4-0.2-0.6-0.25-0.1 0.3-0.2 0.55-0.35 0.85-0.95 1.65-2.7 2.5-4.5 2.4-0.050 1.35 0.6 2.65 1.85 3.35 1.75 1 3.95 0.4 4.95-1.35 1.050-1.75 0.4-4-1.35-5zM9.4 25.55c-0.3-0.1-0.6-0.25-0.9-0.4s-0.55-0.35-0.8-0.55c-0.5-0.1-1-0.1-1.5 0-0.2 0.1-0.45 0.15-0.7 0.2-0.7 0.3-1.3 0.8-1.7 1.55-1 1.75-0.4 3.95 1.35 4.95s3.95 0.4 4.95-1.35c0.15-0.3 0.3-0.6 0.35-0.9-0.75-1-1.15-2.25-1.050-3.5zM6.35 11.8c0.45-0.75 1.050-1.35 1.75-1.75-0.3-0.55-0.8-1.050-1.4-1.4-1.75-1-3.95-0.4-4.95 1.35s-0.4 4 1.35 5c0.9 0.5 1.9 0.6 2.8 0.35-0.35-1.2-0.2-2.45 0.45-3.55zM17.95 14.25c-1.75-1-3.95-0.4-4.95 1.35s-0.4 3.95 1.35 4.95 3.95 0.4 4.95-1.35c1.050-1.75 0.4-4-1.35-4.95zM16.6 16.45c-0.3 0-0.55 0.1-0.8 0.25-0.2 0.15-0.55 0.15-0.75-0.1s-0.2-0.75 0.15-1c0.35-0.25 0.75-0.4 1.2-0.4s0.75 0.4 0.75 0.7c-0.050 0.35-0.3 0.55-0.55 0.55z"></path>
</svg>
