<!-- Generated by IcoMoon.io -->
<svg version="1.1" xmlns="http://www.w3.org/2000/svg" width="32" height="32" viewBox="0 0 32 32">
<title>group</title>
<path d="M22.347 8.031c0 3.292-2.669 5.961-5.961 5.961s-5.961-2.669-5.961-5.961c0-3.292 2.669-5.961 5.961-5.961s5.961 2.669 5.961 5.961zM16.386 14.909c-6.457 0-11.694 5.237-11.694 11.693 0 4.035 0.287 3.27 11.98 3.27 11.749 0 11.407 0.765 11.407-3.27 0-6.457-5.235-11.694-11.693-11.694zM8.927 11.703c0.329 0 0.649-0.041 0.956-0.113-0.513-1.079-0.808-2.283-0.808-3.559 0-1.668 0.495-3.218 1.338-4.522-0.463-0.173-0.961-0.273-1.486-0.273-2.338 0-4.232 1.895-4.232 4.233s1.894 4.234 4.232 4.234zM22.84 11.691c0.078 0.004 0.155 0.011 0.235 0.011 2.338 0 4.233-1.895 4.233-4.234s-1.895-4.233-4.233-4.233c-0.285 0-0.565 0.030-0.835 0.084 0.92 1.341 1.46 2.962 1.46 4.711-0 1.316-0.316 2.554-0.86 3.66zM11.701 14.098c-0.508-0.479-0.948-1.025-1.324-1.617-0.47-0.084-0.955-0.127-1.45-0.127-4.585 0-8.303 3.719-8.303 8.304 0 2.523 0.096 3.197 2.698 3.368 1.076-4.475 4.226-8.143 8.38-9.928zM31.377 20.658c0-4.586-3.718-8.304-8.303-8.304-0.207 0-0.411 0.012-0.615 0.027-0.388 0.632-0.851 1.213-1.387 1.718 4.141 1.78 7.284 5.433 8.369 9.891 2.030-0.226 1.936-0.967 1.936-3.331z"></path>
</svg>
