<!-- Generated by IcoMoon.io -->
<svg version="1.1" xmlns="http://www.w3.org/2000/svg" width="32" height="32" viewBox="0 0 32 32">
<title>Gymnast-ring</title>
<path d="M24.166 7c0 2.025-1.642 3.666-3.666 3.666s-3.666-1.642-3.666-3.667c0-2.025 1.642-3.667 3.666-3.667s3.666 1.642 3.666 3.667zM30 12.329v-11.329c0-0.414-0.336-0.75-0.75-0.75s-0.75 0.336-0.75 0.75v11.314c-10.321 0.593-17.826-3.839-18.5-4.253v-7.061c0-0.414-0.336-0.75-0.75-0.75s-0.75 0.336-0.75 0.75v6.831c-0.385 0.115-0.734 0.355-0.969 0.719-0.525 0.812-0.293 1.895 0.519 2.42 0.219 0.141 3.403 2.163 8.56 3.566-0.805 1.598-1.783 3.095-2.392 3.399-5.236 2.618-12.070 3.317-12.138 3.323-0.962 0.095-1.665 0.951-1.571 1.913 0.089 0.904 0.849 1.579 1.739 1.579 0.057 0 0.115-0.003 0.172-0.009 0.226-0.022 4.274-0.433 8.729-1.837-3.202 3.601-6.49 5.559-6.533 5.585-0.833 0.488-1.115 1.558-0.628 2.392 0.325 0.558 0.911 0.869 1.513 0.869 0.3 0 0.603-0.077 0.88-0.239 0.261-0.152 6.427-3.799 10.608-10.595 0.193-0.313 0.274-0.663 0.256-1.004 1.247-1.32 2.261-3.252 2.877-4.597 1.963 0.341 4.117 0.556 6.43 0.556 1.002 0 2.034-0.040 3.093-0.129 0.963-0.081 1.678-0.927 1.599-1.889-0.061-0.738-0.576-1.322-1.244-1.525z"></path>
</svg>
