<!-- Generated by IcoMoon.io -->
<svg version="1.1" xmlns="http://www.w3.org/2000/svg" width="32" height="32" viewBox="0 0 32 32">
<title>Gymnastic-poles</title>
<path d="M21.666 7c0 2.025-1.642 3.666-3.666 3.666s-3.666-1.642-3.666-3.667c0-2.025 1.642-3.667 3.666-3.667s3.666 1.642 3.666 3.667zM31 1.5h-4.111c-0.262-0.155-0.563-0.25-0.889-0.25s-0.627 0.095-0.889 0.25h-13.721c-0.218-0.129-0.463-0.218-0.732-0.242-0.383-0.035-0.746 0.060-1.052 0.242h-8.606c-0.414 0-0.75 0.336-0.75 0.75s0.336 0.75 0.75 0.75h7.745c-0.069 1.027-0.289 6.665 2.852 10.104 1.067 1.169 2.385 1.945 3.923 2.339-0.549 0.873-1.213 1.697-1.803 1.992-5.236 2.618-12.070 3.317-12.138 3.323-0.962 0.095-1.665 0.951-1.571 1.913 0.088 0.904 0.85 1.579 1.739 1.579 0.056 0 0.115-0.003 0.172-0.009 0.227-0.022 4.274-0.433 8.729-1.837-3.203 3.601-6.49 5.559-6.533 5.585-0.833 0.488-1.115 1.558-0.628 2.392 0.325 0.558 0.911 0.869 1.513 0.869 0.299 0 0.603-0.077 0.88-0.239 0.261-0.152 6.427-3.799 10.608-10.595 0.177-0.288 0.256-0.608 0.255-0.923 1.282-1.233 2.203-2.919 2.623-3.784 1.248-0.143 3.039-0.616 4.663-2.051 2.468-2.178 3.718-5.764 3.718-10.659h3.25c0.414 0 0.75-0.336 0.75-0.75s-0.336-0.75-0.75-0.75zM21.758 10.998c-1.601 1.446-3.48 1.27-3.541 1.265-0.072-0.009-0.145-0.014-0.217-0.014-1.639 0-2.886-0.49-3.812-1.498-2.353-2.566-1.95-7.546-1.946-7.596 0.005-0.053-0.002-0.103-0.002-0.155h12.009c0 3.76-0.862 6.526-2.492 7.998z"></path>
</svg>
