<!-- Generated by IcoMoon.io -->
<svg version="1.1" xmlns="http://www.w3.org/2000/svg" width="32" height="32" viewBox="0 0 32 32">
<title>Gymnastics</title>
<path d="M28.166 8c0 2.025-1.642 3.666-3.666 3.666s-3.666-1.642-3.666-3.667c0-2.025 1.642-3.667 3.666-3.667s3.666 1.642 3.666 3.667zM3.274 5.787c0.012 0.075 0.030 0.149 0.052 0.222 1.594 5.239 5.046 7.955 8.721 9.21 0.005 0.008 0.008 0.018 0.014 0.026l9 13c0.327 0.473 0.865 0.754 1.439 0.754h3c0.966 0 1.75-0.784 1.75-1.75s-0.784-1.75-1.75-1.75h-2.083l-6.494-9.38c0.311 0.015 0.617 0.023 0.919 0.023 1.149 0 2.226-0.101 3.171-0.261 0.872 0.304 2.424 0.738 4.191 0.738 1.963 0 4.189-0.536 6.034-2.38 0.683-0.684 0.683-1.792 0-2.475s-1.791-0.683-2.474 0c-1.836 1.836-4.59 1.398-6.049 0.983-0.255-0.245-0.578-0.411-0.931-0.47l-7.006-7.474c-0.661-0.705-1.768-0.741-2.473-0.080s-0.741 1.769-0.080 2.474l5.075 5.414c-3.588-0.101-8.677-1.395-10.592-7.514l-0.481-2.884c-0.159-0.953-1.061-1.601-2.014-1.438-0.954 0.158-1.598 1.060-1.438 2.014l0.5 3zM31 29.5h-30c-0.414 0-0.75 0.336-0.75 0.75s0.336 0.75 0.75 0.75h30c0.414 0 0.75-0.336 0.75-0.75s-0.336-0.75-0.75-0.75z"></path>
</svg>
