<!-- Generated by IcoMoon.io -->
<svg version="1.1" xmlns="http://www.w3.org/2000/svg" width="32" height="32" viewBox="0 0 32 32">
<title>Gymnast-board</title>
<path d="M31.666 11.5c0 2.025-1.642 3.666-3.666 3.666s-3.666-1.642-3.666-3.666c0-2.025 1.642-3.667 3.666-3.667s3.666 1.642 3.666 3.667zM29 26h-7.418c0.181-0.143 0.338-0.324 0.456-0.541 4.212-7.765 4.212-8.203 4.212-8.709 0-0.483-0.2-0.945-0.552-1.276s-0.822-0.502-1.308-0.471c-0.033 0.002-3.306 0.192-7.152-0.739-0 0-0-0.001-0.001-0.001-5.116-5.117-7.543-12.71-7.566-12.785-0.288-0.923-1.269-1.436-2.192-1.149-0.923 0.288-1.436 1.27-1.149 2.192 0.066 0.21 1.061 3.336 3.136 7.044-1.909-1.39-3.968-2.951-5.883-4.461-0.758-0.599-1.859-0.469-2.458 0.29s-0.469 1.859 0.29 2.457c1.851 1.46 11.229 8.781 14.115 9.583 2.365 0.657 4.592 0.925 6.248 1.027-0.758 1.482-1.82 3.486-2.818 5.327-0.413 0.762-0.198 1.694 0.464 2.209h-16.925c-0.966 0-1.75 0.784-1.75 1.75s0.784 1.75 1.75 1.75h3v1.5c0 0.414 0.336 0.75 0.75 0.75s0.75-0.336 0.75-0.75v-1.5h18v1.5c0 0.414 0.336 0.75 0.75 0.75s0.75-0.336 0.75-0.75v-1.5h2.5c0.966 0 1.75-0.784 1.75-1.75s-0.784-1.75-1.75-1.75z"></path>
</svg>
