<!-- Generated by IcoMoon.io -->
<svg version="1.1" xmlns="http://www.w3.org/2000/svg" width="32" height="32" viewBox="0 0 32 32">
<title>Gymnastic-ribbon</title>
<path d="M7.667 7c0 2.025-1.642 3.666-3.667 3.666s-3.667-1.642-3.667-3.667c0-2.025 1.642-3.667 3.667-3.667s3.667 1.642 3.667 3.667zM31.745 18.421c-0.044-0.412-0.412-0.712-0.825-0.666-0.412 0.044-0.71 0.413-0.666 0.825 0.279 2.626-0.24 4.661-1.543 6.049-2.013 2.145-5.32 2.134-5.651 2.123-4.259-0.565-6.689-2.602-6.503-5.453 0.174-2.68 2.805-5.549 6.443-5.549 6.421 0 7.975-3.647 8.345-5.215 0.675-2.86-0.647-6.024-3.010-7.206-2.207-1.103-4.739-1.408-7.066-1.35-0.015-0.099-0.030-0.2-0.049-0.298-0.177-0.95-1.085-1.579-2.040-1.402-0.95 0.176-1.578 1.089-1.402 2.039v0.001c-2.261 0.373-3.874 0.921-4.024 0.972-0.054 0.019-0.104 0.045-0.151 0.074-0.707-0.261-1.528-0.049-2.003 0.585l-6 8c-0.227 0.303-0.35 0.671-0.35 1.050 0 0.325 0.059 3.23 2.098 4.865 0.605 0.485 1.555 0.979 2.908 1.010l0.030 9.625h-1.286c-0.966 0-1.75 0.784-1.75 1.75s0.784 1.75 1.75 1.75h3.042c0.465 0 0.911-0.185 1.239-0.514s0.512-0.776 0.511-1.241l-0.038-12.361c1.809-0.928 4.614-2.675 5.876-5.067 0.037-0.069 0.069-0.141 0.096-0.215 0.083-0.226 1.785-4.939 1.675-9.114 2.102-0.046 4.348 0.225 6.264 1.184 1.738 0.869 2.734 3.345 2.221 5.519-0.608 2.58-3.119 4.060-6.885 4.060-4.625 0-7.723 3.608-7.939 6.951-0.188 2.886 1.774 6.251 7.843 7.043 0.021 0.003 0.041 0.005 0.063 0.006s0.096 0.004 0.217 0.004c0.9 0 4.332-0.166 6.614-2.589 1.621-1.721 2.276-4.157 1.949-7.243zM16.48 11.281c-0.93 1.637-3.441 3.081-4.927 3.784-0.197 0.052-0.383 0.133-0.546 0.245-0.008 0.003-0.016 0.008-0.024 0.011-0.647 0.123-1.133 0.063-1.441-0.18-0.428-0.339-0.651-1.066-0.742-1.624l5.599-7.466c0.331-0.441 0.414-0.984 0.288-1.48 0.597-0.178 1.758-0.492 3.215-0.739 0.012 2.735-0.939 6.080-1.423 7.45z"></path>
</svg>
