<!-- Generated by IcoMoon.io -->
<svg version="1.1" xmlns="http://www.w3.org/2000/svg" width="32" height="32" viewBox="0 0 32 32">
<title>Gymnastic-ball</title>
<path d="M13.166 7c0 2.025-1.642 3.666-3.666 3.666s-3.667-1.642-3.667-3.667c0-2.025 1.642-3.667 3.667-3.667s3.666 1.642 3.666 3.667zM26.721 1.681c-0.176-0.95-1.084-1.579-2.040-1.402-0.95 0.176-1.578 1.089-1.402 2.039 0.531 2.865-0.72 7.326-1.299 8.962-0.93 1.637-3.441 3.081-4.927 3.784-0.198 0.052-0.383 0.133-0.546 0.245-0.008 0.003-0.016 0.008-0.023 0.011-0.647 0.123-1.133 0.063-1.441-0.181-0.428-0.338-0.651-1.066-0.742-1.624l5.6-7.465c0.166-0.222 0.265-0.471 0.314-0.727 1.043-0.391 1.787-1.394 1.787-2.573 0-1.519-1.232-2.75-2.75-2.75s-2.75 1.231-2.75 2.75c0 0.531 0.154 1.026 0.415 1.447l-5.814 7.753c-0.227 0.303-0.35 0.671-0.35 1.050 0 0.325 0.059 3.229 2.098 4.865 0.605 0.485 1.555 0.979 2.908 1.010l0.030 9.625h-1.286c-0.966 0-1.75 0.784-1.75 1.75s0.784 1.75 1.75 1.75h3.042c0.465 0 0.911-0.185 1.239-0.514s0.512-0.776 0.511-1.241l-0.038-12.361c1.808-0.928 4.614-2.674 5.876-5.067 0.037-0.069 0.069-0.141 0.096-0.215 0.096-0.261 2.326-6.436 1.495-10.92z"></path>
</svg>
