<!-- Generated by IcoMoon.io -->
<svg version="1.1" xmlns="http://www.w3.org/2000/svg" width="32" height="32" viewBox="0 0 32 32">
<title>h-rotate-alt</title>
<path d="M13.954 5.042c-0.060 0.053-1.133 0.917-1.836 1.484-0.079 0.064-0.12 0.155-0.104 0.248s0.084 0.168 0.179 0.202l0.58 0.204c-0.379 0.71-1.119 1.165-1.931 1.165-1.207 0-2.191-0.984-2.191-2.191 0-1.21 0.983-2.192 2.191-2.192 0.329 0 0.598-0.268 0.598-0.599 0-0.329-0.269-0.597-0.598-0.597-1.867 0-3.386 1.519-3.386 3.388 0 1.867 1.52 3.387 3.386 3.387 1.313 0 2.518-0.77 3.072-1.96l0.598 0.21c0.101 0.030 0.207 0.010 0.278-0.053 0.067-0.059 0.095-0.146 0.076-0.247-0.196-0.877-0.491-2.21-0.502-2.294-0.018-0.184-0.27-0.286-0.411-0.155zM31.143 19.402l-0.143-0.049v-0.055c0-0.52 0.036-1.962-0.212-2.372l-5.431-9.147c-0.271-0.45-0.868-0.609-1.32-0.337-0.169 0.101-0.289 0.252-0.37 0.43l2.72 4.52c0.119 0.2 0.058 0.46-0.142 0.579-0.194 0.115-0.459 0.050-0.576-0.143l-3.576-5.96c-0.262-0.269-0.808-0.37-1.197-0.136-0.169 0.101-0.303 0.252-0.386 0.431l3.867 6.44c0.119 0.199 0.055 0.459-0.143 0.579-0.195 0.117-0.465 0.047-0.581-0.143l-4.452-7.418c-0.262-0.269-0.809-0.368-1.196-0.136-0.395 0.237-0.573 0.724-0.422 1.159l4.433 7.377c0.119 0.201 0.054 0.46-0.145 0.58-0.197 0.117-0.468 0.046-0.581-0.147l-3.577-5.958c-0.198-0.015-0.393 0.036-0.561 0.137-0.464 0.28-0.615 0.883-0.337 1.348l5.258 8.759-3.254-2.895c-0.177-0.155-0.407-0.241-0.645-0.241-0.284 0-0.553 0.123-0.739 0.336-0.173 0.198-0.258 0.45-0.241 0.71 0.017 0.262 0.136 0.503 0.335 0.675l4.125 3.672c0.090 0.078 0.198 0.14 0.32 0.183 0.236 0.108 2.085 0.738 2.779 0.971l0.072 0.024 0.040 0.066c0.177 0.294 0.463 0.647 0.818 0.647 0.117 0 0.241-0.039 0.369-0.116l5.058-3.072c0.424-0.255 0.396-0.691 0.033-1.297zM14.354 14.98c-0.169-0.102-0.366-0.15-0.562-0.138l-3.578 5.96c-0.116 0.193-0.388 0.261-0.58 0.145-0.197-0.119-0.263-0.378-0.146-0.578l4.454-7.418c0.13-0.396-0.048-0.883-0.442-1.12-0.386-0.232-0.915-0.155-1.221 0.171l-4.427 7.382c-0.115 0.192-0.388 0.261-0.579 0.145-0.198-0.119-0.263-0.378-0.146-0.578l3.868-6.442c-0.082-0.179-0.214-0.327-0.385-0.43-0.387-0.232-0.918-0.155-1.223 0.171l-3.55 5.925c-0.115 0.192-0.386 0.261-0.579 0.144-0.096-0.058-0.165-0.149-0.193-0.26-0.027-0.109-0.011-0.223 0.048-0.32l2.713-4.518c-0.082-0.181-0.214-0.329-0.386-0.431-0.153-0.092-0.327-0.14-0.505-0.14-0.348 0-0.663 0.178-0.843 0.477l-5.378 9.146c-0.247 0.412-0.214 1.851-0.214 2.372v0.056l-0.14 0.048c-0.364 0.608-0.391 1.044 0.032 1.297l5.089 3.073c0.127 0.076 0.237 0.114 0.354 0.114 0.356 0 0.635-0.352 0.811-0.648l0.036-0.066 0.071-0.025c0.694-0.233 2.541-0.862 2.762-0.963 0.137-0.050 0.245-0.113 0.337-0.192l4.124-3.669c0.199-0.174 0.318-0.413 0.335-0.675 0.018-0.261-0.068-0.514-0.241-0.712-0.342-0.393-0.993-0.436-1.387-0.093l-3.252 2.895 5.26-8.761c0.278-0.463 0.127-1.069-0.337-1.346z"></path>
</svg>
