<!-- Generated by IcoMoon.io -->
<svg version="1.1" xmlns="http://www.w3.org/2000/svg" width="32" height="32" viewBox="0 0 32 32">
<title>h-rotate</title>
<path d="M31.806 18.332l-0.026-0.055 0.006-0.061c0.052-0.556 0.138-2.104-0.081-2.573l-2.869-6.111c-0.282-0.425-0.857-0.589-1.32-0.375-0.191 0.089-0.352 0.235-0.459 0.417l0.334 0.719c0.052 0.109 0.058 0.233 0.015 0.347-0.041 0.114-0.125 0.205-0.235 0.257-0.223 0.101-0.499 0-0.603-0.219l-0.396-0.85c-0.255-0.326-0.819-0.488-1.262-0.281-0.195 0.091-0.352 0.234-0.459 0.416l0.651 1.396c0.104 0.228 0.006 0.498-0.219 0.604-0.228 0.105-0.504-0.002-0.605-0.221l-0.745-1.599c-0.255-0.327-0.82-0.488-1.264-0.281-0.195 0.091-0.352 0.235-0.459 0.416l1.002 2.15c0.052 0.108 0.058 0.232 0.015 0.347-0.041 0.114-0.123 0.204-0.232 0.257-0.233 0.107-0.508-0.002-0.607-0.22l-2.902-6.224c-0.256-0.327-0.823-0.487-1.262-0.279-0.527 0.245-0.756 0.875-0.511 1.403l2.867 6.149-0.261 0.044c-0.695 0.336-0.826 0.675-0.864 0.903-0.055 0.325 0.047 0.739 0.329 1.344l1.671 3.582c0.102 0.22 0.275 0.398 0.5 0.512 0.174 0.113 1.857 0.893 2.884 1.364l0.074 0.034 0.035 0.075c0.211 0.452 0.622 0.974 1.209 0.701l5.814-2.711c0.48-0.224 0.561-0.687 0.239-1.378zM14.572 12.198c-0.443-0.205-0.995-0.066-1.287 0.32l-2.879 6.185c-0.101 0.22-0.381 0.323-0.603 0.22-0.111-0.052-0.194-0.142-0.236-0.258-0.041-0.114-0.036-0.237 0.015-0.346l1.002-2.147c-0.107-0.182-0.268-0.329-0.46-0.418-0.443-0.205-0.995-0.064-1.288 0.321l-0.721 1.561c-0.102 0.22-0.384 0.323-0.604 0.22-0.109-0.051-0.194-0.142-0.234-0.256s-0.037-0.238 0.015-0.348l0.651-1.396c-0.107-0.181-0.268-0.327-0.461-0.416-0.442-0.208-0.996-0.066-1.287 0.321l-0.371 0.808c-0.104 0.219-0.383 0.322-0.602 0.221-0.111-0.052-0.194-0.142-0.236-0.256s-0.036-0.239 0.016-0.349l0.335-0.717c-0.107-0.181-0.268-0.328-0.461-0.418-0.462-0.216-1.038-0.049-1.32 0.376l-0.065 0.096-2.803 6.017c-0.219 0.468-0.133 2.015-0.081 2.573l0.005 0.059-0.025 0.055c-0.153 0.328-0.218 0.621-0.185 0.849 0.033 0.238 0.172 0.41 0.423 0.528l5.816 2.711c0.122 0.056 0.237 0.085 0.345 0.085 0.411 0 0.696-0.427 0.862-0.785l0.035-0.075 0.075-0.034c1.028-0.471 2.713-1.253 2.857-1.346 0.252-0.134 0.425-0.311 0.524-0.529l1.675-3.585c0.506-1.086 0.559-1.734-0.556-2.255l-0.203-0.094 0.206-0.469 2.62-5.621c0.12-0.257 0.133-0.542 0.036-0.806s-0.29-0.477-0.546-0.597zM9.575 10.886c1.411 0 2.706-0.826 3.302-2.107l0.642 0.226c0.107 0.034 0.222 0.012 0.299-0.055 0.072-0.063 0.102-0.157 0.083-0.265-0.21-0.941-0.527-2.376-0.539-2.466-0.021-0.198-0.291-0.308-0.443-0.168-0.064 0.058-1.217 0.985-1.973 1.594-0.085 0.069-0.128 0.168-0.109 0.269 0.015 0.097 0.087 0.179 0.192 0.217l0.623 0.219c-0.407 0.762-1.204 1.252-2.075 1.252-1.3 0-2.357-1.056-2.357-2.356s1.058-2.357 2.357-2.357c0.354 0 0.642-0.287 0.642-0.641s-0.287-0.643-0.642-0.643c-2.008 0-3.642 1.634-3.642 3.642-0.001 2.008 1.633 3.64 3.641 3.64z"></path>
</svg>
