<!-- Generated by IcoMoon.io -->
<svg version="1.1" xmlns="http://www.w3.org/2000/svg" width="32" height="32" viewBox="0 0 32 32">
<title>h-tap</title>
<path d="M6.196 6.861c2.628 0 4.765 2.136 4.765 4.764 0 0.332 0.27 0.602 0.602 0.602s0.604-0.271 0.604-0.602c0-3.292-2.678-5.971-5.97-5.971s-5.969 2.679-5.969 5.971c0 0.332 0.27 0.602 0.603 0.602s0.603-0.271 0.603-0.602c-0-2.628 2.137-4.764 4.764-4.764zM14.060 13.899c-0.565-0.264-1.207-0.291-1.79-0.078-0.589 0.213-1.059 0.643-1.323 1.211-0.148 0.319-0.009 0.699 0.309 0.848 0.311 0.144 0.704 0 0.848-0.309 0.12-0.259 0.335-0.454 0.602-0.552 0.268-0.097 0.557-0.085 0.816 0.035 0.533 0.249 0.764 0.886 0.517 1.419-0.149 0.319-0.011 0.698 0.309 0.849 0.086 0.039 0.177 0.058 0.268 0.058 0.247 0 0.475-0.145 0.579-0.368 0.546-1.171 0.037-2.567-1.133-3.113zM12.128 17.037c-0.461-0.148-0.889 0.117-1.035 0.573l-1.093 3.759v-9.239c0-0.49-0.455-0.887-0.944-0.887-0.178 0-0.556 0.053-0.556 0.155v6.286c0 0.21-0.289 0.382-0.5 0.382s-0.5-0.172-0.5-0.382v-7.822c0-0.367-0.356-0.662-0.771-0.662-0.417 0-0.735 0.295-0.821 0.701l0.027 7.783c0 0.21-0.258 0.382-0.468 0.382s-0.468-0.172-0.468-0.382v-6.793c0-0.1-0.223-0.155-0.401-0.155-0.416 0-0.733 0.296-0.82 0.703l0.029 6.244c0 0.21-0.193 0.382-0.404 0.382s-0.403-0.172-0.403-0.381v-4.767c0-0.1-0.378-0.155-0.555-0.155-0.49 0-0.945 0.399-0.945 0.888v9.646c0 0.434 0.676 1.584 0.913 1.99l0.087 0.044v0.051c0 0.639 0.285 1.119 0.731 1.119h5.398c0.445 0 0.87-0.48 0.87-1.119v-0.070l-0.055-0.052c0.428-0.502 1.515-1.846 1.642-2.032 0.085-0.105 0.115-0.203 0.149-0.306l1.477-4.764c0.151-0.468-0.118-0.969-0.585-1.12zM25.727 6.861c-2.628 0-4.764 2.136-4.764 4.764 0 0.332-0.27 0.602-0.602 0.602s-0.604-0.271-0.604-0.602c0-3.292 2.678-5.971 5.97-5.971s5.969 2.679 5.969 5.971c0 0.332-0.27 0.602-0.602 0.602s-0.602-0.271-0.602-0.602c0-2.628-2.137-4.764-4.764-4.764zM17.863 13.899c0.565-0.264 1.207-0.291 1.79-0.078 0.589 0.213 1.059 0.643 1.323 1.211 0.148 0.319 0.009 0.699-0.309 0.848-0.311 0.144-0.704 0-0.848-0.309-0.12-0.259-0.334-0.454-0.602-0.552-0.267-0.097-0.558-0.085-0.816 0.035-0.533 0.249-0.765 0.886-0.517 1.419 0.149 0.319 0.011 0.698-0.309 0.849-0.086 0.039-0.177 0.058-0.267 0.058-0.247 0-0.474-0.145-0.579-0.368-0.546-1.171-0.038-2.567 1.133-3.113zM19.795 17.037c0.461-0.148 0.927 0.117 1.073 0.573l1.131 3.759v-9.239c0-0.49 0.455-0.887 0.945-0.887 0.178 0 0.555 0.053 0.555 0.155v6.286c0 0.21 0.289 0.382 0.5 0.382s0.5-0.172 0.5-0.382v-7.822c0-0.367 0.317-0.662 0.733-0.662 0.416 0 0.716 0.295 0.802 0.701l-0.037 7.783c0 0.21 0.291 0.382 0.502 0.382s0.501-0.172 0.501-0.382v-6.793c0-0.1 0.184-0.155 0.363-0.155 0.416 0 0.714 0.296 0.801 0.703l-0.039 6.245c0 0.21 0.227 0.382 0.438 0.382s0.438-0.172 0.438-0.382v-4.767c0-0.1 0.378-0.155 0.555-0.155 0.489 0 0.945 0.399 0.945 0.887v9.646c0 0.434-0.677 1.584-0.913 1.99l-0.087 0.044v0.051c0 0.639-0.363 1.119-0.808 1.119h-5.398c-0.446 0-0.794-0.48-0.794-1.119v-0.070l0.016-0.052c-0.427-0.502-1.535-1.846-1.66-2.032-0.086-0.105-0.125-0.203-0.158-0.306l-1.482-4.764c-0.151-0.468 0.113-0.969 0.579-1.12z"></path>
</svg>
