<!-- Generated by IcoMoon.io -->
<svg version="1.1" xmlns="http://www.w3.org/2000/svg" width="32" height="32" viewBox="0 0 32 32">
<title>h-zoom-out</title>
<path d="M20 8.775c0 0.107 0.043 0.203 0.128 0.253 0.080 0.044 0.166 0.041 0.257-0.011 0.786-0.49 1.981-1.234 2.056-1.274 0.177-0.080 0.187-0.361 0.011-0.455-0.072-0.037-1.282-0.787-2.073-1.28-0.090-0.056-0.194-0.061-0.277-0.016-0.085 0.048-0.137 0.195-0.137 0.301l0.001 0.707c0 0-2.346 0-2.549 0-0.201 0-0.416 0.104-0.416 0.104v0.806c0 0 0.159 0.090 0.443 0.090 0.282 0 2.557 0 2.557 0v0.775zM14.556 7c-0.282 0-2.056 0-2.056 0v-0.755c0-0.109-0.292-0.205-0.378-0.253-0.081-0.045-0.292-0.043-0.383 0.010-0.785 0.492-2.044 1.235-2.12 1.276-0.175 0.080-0.217 0.361-0.040 0.453 0.072 0.038 1.265 0.788 2.058 1.281 0.090 0.056 0.416 0.062 0.502 0.015 0.084-0.046 0.361-0.138 0.361-0.244v-0.783c0 0 1.882 0 2.085 0 0.2 0 0.915-0.085 0.915-0.085v-0.807c0 0-0.659-0.107-0.944-0.107zM30.627 15.611c-0.203-0.073-0.421-0.084-0.624-0.031l-0.273 0.749c-0.087 0.231-0.356 0.357-0.585 0.273-0.237-0.087-0.358-0.349-0.273-0.584l0.322-0.884c0.056-0.447-0.233-0.928-0.699-1.098-0.2-0.073-0.418-0.084-0.623-0.030l-0.529 1.454c-0.083 0.229-0.356 0.355-0.584 0.274-0.116-0.043-0.209-0.129-0.261-0.241s-0.055-0.235-0.012-0.348l0.606-1.666c0.058-0.446-0.23-0.927-0.698-1.097-0.2-0.073-0.419-0.084-0.624-0.031l-0.816 2.24c-0.082 0.228-0.351 0.357-0.584 0.273-0.236-0.088-0.358-0.348-0.273-0.585l2.361-6.489c0.058-0.447-0.231-0.927-0.698-1.095-0.542-0.198-1.166 0.099-1.36 0.633l-2.299 6.313-0.261-0.060c-0.259-0.092-0.49-0.138-0.688-0.138-0.573 0-0.921 0.368-1.281 1.357l-1.36 3.734c-0.084 0.227-0.087 0.475-0.011 0.72 0.044 0.203 0.685 1.954 1.081 3.018l0.029 0.076-0.028 0.078c-0.262 0.718-0.14 1.175 0.362 1.357l6.058 2.205c0.614 0.224 0.975-0.331 1.148-0.808l0.021-0.057 0.047-0.039c0.433-0.36 1.595-1.398 1.772-1.886l2.306-6.383c0.105-0.52-0.178-1.026-0.672-1.206zM12.129 14.799c-0.489-1.342-0.967-1.585-1.998-1.209l-0.195 0.047-0.103-0.178-2.232-6.133c-0.194-0.534-0.824-0.831-1.358-0.633-0.468 0.169-0.758 0.649-0.689 1.141l2.35 6.443c0.087 0.235-0.035 0.498-0.271 0.585-0.245 0.088-0.505-0.043-0.587-0.273l-0.815-2.239c-0.205-0.052-0.423-0.042-0.623 0.031-0.466 0.171-0.755 0.65-0.687 1.142l0.596 1.623c0.087 0.236-0.035 0.498-0.271 0.585-0.244 0.086-0.503-0.043-0.587-0.272l-0.528-1.454c-0.207-0.053-0.425-0.043-0.623 0.030-0.469 0.17-0.757 0.65-0.688 1.143l0.311 0.84c0.042 0.113 0.037 0.236-0.014 0.346-0.052 0.113-0.143 0.197-0.259 0.238-0.23 0.083-0.502-0.044-0.584-0.274l-0.274-0.748c-0.204-0.052-0.421-0.043-0.622 0.031-0.494 0.18-0.777 0.686-0.673 1.206l0.020 0.103 2.286 6.279c0.176 0.488 1.338 1.527 1.769 1.886l0.047 0.039 0.021 0.056c0.175 0.477 0.54 1.032 1.151 0.808l6.058-2.205c0.21-0.076 0.349-0.193 0.425-0.357 0.111-0.237 0.088-0.584-0.066-1.001l-0.028-0.078 0.028-0.078c0.397-1.066 1.040-2.819 1.076-2.986 0.084-0.277 0.081-0.526-0.002-0.751l-1.358-3.736z"></path>
</svg>
