<!-- Generated by IcoMoon.io -->
<svg version="1.1" xmlns="http://www.w3.org/2000/svg" width="32" height="32" viewBox="0 0 32 32">
<title>h-zoom-in</title>
<path d="M19.767 8.801c0.089-0.049 0.142-0.082 0.142-0.191l-0.002-0.61c0 0 2.422 0 2.631 0 0.21 0 0.46-0.347 0.46-0.347v-0.834c0 0-0.195-0.319-0.488-0.319s-3.012 0-3.012 0v-0.573c0-0.112 0.142-0.21 0.053-0.261-0.082-0.048-0.078-0.043-0.173 0.011-0.811 0.505-1.999 1.274-2.078 1.316-0.18 0.083-0.169 0.373 0.012 0.469 0.075 0.038 1.335 0.813 2.154 1.323 0.093 0.059 0.211 0.064 0.299 0.017zM12.515 5.682c-0.092-0.059-0.197-0.066-0.287-0.016-0.087 0.048-0.14 0.098-0.14 0.207l0.001 0.628c0 0-2.422 0-2.632 0s-0.459 0.313-0.459 0.313v0.834c0 0 0.194 0.353 0.487 0.353 0.291 0 2.603 0 2.603 0l0.002 0.599c0.002 0.111 0.062 0.18 0.148 0.23 0.084 0.047 0.184 0.028 0.275-0.026 0.81-0.506 2.050-1.281 2.132-1.322 0.179-0.084 0.193-0.378 0.011-0.473-0.075-0.040-1.322-0.816-2.142-1.325zM31.102 15.598c-0.207-0.076-0.431-0.085-0.644-0.032l-0.281 0.772c-0.087 0.238-0.365 0.369-0.604 0.282-0.118-0.043-0.213-0.13-0.267-0.244-0.052-0.114-0.058-0.242-0.014-0.36l0.331-0.912c0.060-0.462-0.239-0.959-0.721-1.133-0.207-0.076-0.432-0.085-0.643-0.031l-0.547 1.502c-0.087 0.238-0.366 0.367-0.604 0.283-0.12-0.044-0.215-0.132-0.267-0.245-0.053-0.114-0.058-0.242-0.015-0.361l0.626-1.723c0.059-0.46-0.238-0.957-0.721-1.133-0.208-0.076-0.432-0.087-0.645-0.032l-0.841 2.313c-0.086 0.237-0.364 0.368-0.604 0.281-0.12-0.044-0.213-0.132-0.267-0.245-0.053-0.114-0.058-0.243-0.015-0.361l2.438-6.699c0.058-0.462-0.24-0.957-0.721-1.131-0.556-0.205-1.204 0.103-1.405 0.654l-2.375 6.526-0.263-0.070c-0.255-0.092-0.503-0.143-0.715-0.143-0.586 0-0.957 0.393-1.324 1.402l-1.401 3.857c-0.087 0.235-0.090 0.491-0.011 0.742 0.045 0.209 0.707 2.018 1.116 3.117l0.030 0.079-0.029 0.081c-0.27 0.741-0.145 1.213 0.373 1.403l6.258 2.276c0.631 0.23 1.008-0.343 1.186-0.834l0.021-0.059 0.049-0.041c0.447-0.37 1.646-1.444 1.829-1.948l2.381-6.592c0.108-0.535-0.183-1.058-0.695-1.244zM12.001 14.759c-0.505-1.386-0.998-1.636-2.062-1.248l-0.059 0.014-0.185 0.027-2.37-6.508c-0.2-0.551-0.846-0.859-1.404-0.654-0.482 0.175-0.781 0.67-0.71 1.178l2.428 6.654c0.088 0.243-0.038 0.514-0.281 0.604-0.25 0.088-0.519-0.043-0.606-0.28l-0.843-2.314c-0.211-0.053-0.436-0.043-0.644 0.033-0.482 0.176-0.78 0.672-0.708 1.179l0.615 1.677c0.043 0.118 0.038 0.245-0.015 0.361s-0.149 0.201-0.268 0.244c-0.237 0.085-0.518-0.046-0.603-0.283l-0.548-1.502c-0.21-0.055-0.437-0.044-0.641 0.031-0.483 0.175-0.782 0.671-0.711 1.18l0.321 0.866c0.087 0.245-0.040 0.515-0.282 0.604-0.237 0.085-0.518-0.046-0.603-0.283l-0.282-0.771c-0.21-0.055-0.435-0.044-0.643 0.032-0.51 0.185-0.802 0.709-0.694 1.244l0.025 0.123 2.355 6.468c0.182 0.504 1.383 1.576 1.829 1.948l0.048 0.041 0.022 0.059c0.178 0.492 0.559 1.063 1.185 0.834l6.259-2.277c0.517-0.189 0.642-0.661 0.37-1.402l-0.029-0.081 0.030-0.079c0.409-1.099 1.073-2.907 1.11-3.084 0.086-0.284 0.082-0.541-0.003-0.776l-1.404-3.856z"></path>
</svg>
