<!-- Generated by IcoMoon.io -->
<svg version="1.1" xmlns="http://www.w3.org/2000/svg" width="32" height="32" viewBox="0 0 32 32">
<title>hairdryer</title>
<path d="M8.518 8.813c0 0.689-0.558 1.247-1.247 1.247s-1.247-0.558-1.247-1.247c0-0.689 0.558-1.247 1.247-1.247s1.247 0.558 1.247 1.247zM23.5 5.478c-4.966-0.197-9.783-1.796-12.264-2.756-1.14-0.744-2.501-1.181-3.965-1.181-4.016 0-7.271 3.255-7.271 7.271 0 3.056 1.889 5.668 4.561 6.743-0.511 4.978 0.782 8.922 1.813 11.797 1.472 4.108 4.262 3.648 4.262 3.648 0.052 0 0.096 0 0.155 0 2.011 0 3.022-1.636 3.022-3.648 0 0-1.060-3.372-1.635-7.352h-1.24c-0.242 0-0.438-0.196-0.438-0.438v-0.125c0-0.241 0.196-0.438 0.438-0.438h1.108c-0.039-0.331-0.073-0.665-0.104-1h-1.504c-0.242 0-0.438-0.196-0.438-0.438v-0.125c0-0.241 0.196-0.438 0.438-0.438h1.43c-0.049-0.827-0.063-1.652-0.030-2.45 2.61-0.966 7.074-2.345 11.662-2.527v0.024c0.725 0.043 1.388 0.114 2 0.208v-7.008c-0.612 0.093-1.275 0.165-2 0.208v0.024zM7.271 14.004c-2.867 0-5.192-2.324-5.192-5.191s2.324-5.192 5.192-5.192c2.868 0 5.192 2.324 5.192 5.192s-2.325 5.191-5.192 5.191zM26 5.163v7.173c4.846 0.875 6 3.163 6 3.163v-13.5c0 0-1.154 2.288-6 3.163z"></path>
</svg>
