<!-- Generated by IcoMoon.io -->
<svg version="1.1" xmlns="http://www.w3.org/2000/svg" width="32" height="32" viewBox="0 0 32 32">
<title>hamburger</title>
<path d="M6.55 15.6c1.15 0 1.75 0.45 2.25 0.8 0.35 0.25 0.55 0.4 1 0.4s0.65-0.15 1-0.4c0.45-0.35 1.1-0.8 2.25-0.8s1.75 0.45 2.25 0.8c0.35 0.25 0.55 0.4 1 0.4s0.65-0.15 1-0.4c0.45-0.35 1.1-0.8 2.25-0.8s1.75 0.45 2.25 0.8c0.35 0.25 0.55 0.4 1 0.4s0.65-0.15 1-0.4c0.45-0.35 1.1-0.8 2.25-0.8s1.75 0.45 2.25 0.8c0.2 0.15 0.35 0.25 0.55 0.35 0.3 0.1 0.45 0.35 0.45 0.65v0.7c0 0.45-0.4 0.75-0.8 0.65-0.65-0.15-1.1-0.45-1.4-0.7-0.35-0.25-0.55-0.4-1-0.4s-0.65 0.15-1 0.4c-0.45 0.35-1.1 0.8-2.25 0.8s-1.75-0.45-2.25-0.8c-0.35-0.25-0.55-0.4-1-0.4s-0.65 0.15-1 0.4c-0.45 0.35-1.1 0.8-2.25 0.8s-1.75-0.45-2.25-0.8c-0.35-0.25-0.55-0.4-1-0.4s-0.65 0.15-1 0.4c-0.45 0.35-1.1 0.8-2.25 0.8s-1.75-0.45-2.25-0.8c-0.35-0.25-0.55-0.4-1-0.4s-0.65 0.15-1 0.4c-0.35 0.25-0.75 0.55-1.4 0.7-0.4 0.1-0.8-0.25-0.8-0.65v-0.7c0-0.3 0.2-0.55 0.45-0.65 0.2-0.050 0.35-0.2 0.55-0.35 0.35-0.35 1-0.8 2.15-0.8zM3.050 25.85c-0.050 0.2-0.050 0.4-0.050 0.65 0 1.3 1.4 2.75 2.6 2.75h21.35c1.2 0 2.6-1.45 2.6-2.75 0-0.2-0.050-0.45-0.1-0.65h-26.4zM26.6 19.55h-13.75l-2.1 2.1c-0.6 0.6-1.55 0.6-2.15 0l-2.1-2.1h-1.1c-1.3 0-2.4 1.050-2.4 2.4 0 1.3 1.050 2.4 2.4 2.4h21.25c1.3 0 2.4-1.050 2.4-2.4-0.050-1.3-1.15-2.4-2.45-2.4zM16 2.8c-7.050 0-12.9 4.6-13.7 10.4 0 0 0 0.1 0 0.15 0 0.65 0.65 1.25 1.45 1.25h24.45c0.8 0 1.45-0.55 1.45-1.25 0-0.050 0-0.15 0-0.15-0.75-5.85-6.6-10.4-13.65-10.4zM8.3 9.2c-0.2 0.3-0.6 0.4-0.9 0.2s-0.4-0.6-0.2-0.9c0.25-0.45 1.2-0.65 1.2-0.65s0.2 0.9-0.1 1.35zM12.45 10.85c-0.2 0.3-0.6 0.4-0.9 0.2s-0.4-0.6-0.2-0.9c0.25-0.45 1.2-0.65 1.2-0.65s0.2 0.95-0.1 1.35zM12.45 6.35c-0.2 0.3-0.6 0.4-0.9 0.2s-0.4-0.6-0.2-0.9c0.25-0.45 1.2-0.65 1.2-0.65s0.2 0.95-0.1 1.35zM16.85 7.85c-0.35 0.1-0.7-0.15-0.8-0.5-0.15-0.5 0.4-1.3 0.4-1.3s0.8 0.5 0.9 1c0.1 0.35-0.1 0.7-0.5 0.8z"></path>
</svg>
