<!-- Generated by IcoMoon.io -->
<svg version="1.1" xmlns="http://www.w3.org/2000/svg" width="32" height="32" viewBox="0 0 32 32">
<title>hammer</title>
<path d="M31.526 13.241l-1.776-1.775c-0.392-0.392-1.029-0.392-1.421 0l-0.755 0.755c-0.221-0.281-0.479-0.572-0.764-0.861 0.209-0.806 0-1.698-0.632-2.33l-4.010-4.011c-0.695-0.696-1.707-0.879-2.572-0.556-2.058-1.484-5.552-3.829-6.213-3.168l-0.095 0.095c-0.662 0.661 1.685 4.155 3.168 6.214-0.323 0.864-0.139 1.875 0.556 2.57l-16.318 16.318c-0.949 0.948-0.519 2.058 0.429 3.008l0.573 0.573c0.95 0.95 2.058 1.378 3.007 0.43l16.318-16.317c0.631 0.631 1.523 0.841 2.33 0.631 0.29 0.286 0.581 0.543 0.861 0.764l-0.754 0.754c-0.392 0.393-0.392 1.029 0 1.422l1.776 1.775c0.392 0.392 1.029 0.392 1.421 0l4.869-4.869c0.392-0.393 0.392-1.028 0-1.421z"></path>
</svg>
