<!-- Generated by IcoMoon.io -->
<svg version="1.1" xmlns="http://www.w3.org/2000/svg" width="32" height="32" viewBox="0 0 32 32">
<title>Handball</title>
<path d="M24.666 4.5c0 2.025-1.642 3.666-3.666 3.666s-3.666-1.642-3.666-3.667c0-2.025 1.642-3.667 3.666-3.667s3.666 1.642 3.666 3.667zM31.125 11.956c-6.183-3.971-12.737-1.695-13.747-1.305-2.928 0.777-5.133 0.697-6.383-0.236-1.181-0.88-1.242-2.341-1.245-2.432-0.011-0.958-0.79-1.732-1.751-1.732-0.966 0-1.75 0.784-1.75 1.75 0 1.185 0.545 3.608 2.588 5.172 1.969 1.507 4.771 1.881 8.335 1.123l-1.377 2.319c-0.043 0.072-0.080 0.146-0.112 0.224-0.014 0.035-2.334 3.26-13.384 0.408-0.935-0.241-1.891 0.322-2.132 1.258s0.322 1.89 1.258 2.132c3.591 0.927 6.46 1.282 8.749 1.282 1.442 0 2.643-0.146 3.659-0.373-1.503 2.899-3.906 6.317-6.782 6.934-0.945 0.203-1.547 1.133-1.345 2.078 0.176 0.822 0.902 1.384 1.71 1.384 0.122 0 0.245-0.012 0.369-0.039 6.944-1.488 10.651-12.075 10.806-12.526 0.084-0.247 0.107-0.498 0.082-0.741 0.072-0.114 0.131-0.218 0.172-0.297l3.038-5.116c2.049-0.185 4.775 0.027 7.351 1.681 0.293 0.188 0.62 0.278 0.944 0.278 0.576 0 1.14-0.284 1.474-0.804 0.522-0.814 0.286-1.896-0.527-2.419zM10.5 2.75c0 1.519-1.231 2.75-2.75 2.75s-2.75-1.231-2.75-2.75c0-1.519 1.231-2.75 2.75-2.75s2.75 1.231 2.75 2.75z"></path>
</svg>
