<!-- Generated by IcoMoon.io -->
<svg version="1.1" xmlns="http://www.w3.org/2000/svg" width="32" height="32" viewBox="0 0 32 32">
<title>handbag</title>
<path d="M27.215 23.055h-5.415v1.351c0 0.529-0.428 0.956-0.956 0.956h-3.069c-0.282 1.036-1.221 1.801-2.346 1.801s-2.063-0.764-2.346-1.801h-3.069c-0.527 0-0.956-0.427-0.956-0.956v-1.351h-5.415c-0.527 0-0.955-0.246-0.955-0.774v8.763c0 0.529 0.428 0.956 0.955 0.956h23.572c0.528 0 0.956-0.428 0.956-0.956v-8.755c-0 0.528-0.428 0.765-0.956 0.765zM28.712 4.19c0.373-0.266 0.537-0.758 0.369-1.208l-0.050-0.128c-0.183-0.442-0.632-0.69-1.089-0.633 0.173-0.418 0.055-0.917-0.318-1.21l-0.103-0.079c-0.377-0.281-0.883-0.268-1.241 0.002-0.052-0.443-0.386-0.818-0.847-0.9l-0.118-0.020c-0.461-0.077-0.898 0.166-1.095 0.563-0.236-0.361-0.683-0.549-1.126-0.436-0.048 0.012-0.096 0.026-0.144 0.041-0.433 0.133-0.716 0.523-0.733 0.951-0.354-0.231-0.828-0.231-1.187 0.036l-0.073 0.054c-0.321 0.233-0.469 0.617-0.416 0.985-0.332-0.144-0.731-0.111-1.041 0.124l-0.091 0.071c-0.302 0.235-0.438 0.603-0.39 0.956-0.139-0.063-0.291-0.1-0.453-0.1-0.605 0-1.096 0.49-1.096 1.095 0 0.032 0.007 0.063 0.009 0.094-0.314-0.163-0.702-0.166-1.024 0.035l-0.071 0.043c-0.326 0.194-0.508 0.537-0.508 0.891-0.303-0.187-0.694-0.213-1.030-0.034l-0.077 0.040c-0.341 0.173-0.544 0.51-0.565 0.865-0.295-0.206-0.688-0.253-1.037-0.088l-0.075 0.035c-0.352 0.157-0.573 0.489-0.608 0.846-0.287-0.218-0.681-0.281-1.037-0.128l-0.082 0.035c-0.357 0.147-0.588 0.471-0.633 0.83-0.018-0.014-0.039-0.022-0.057-0.035-0.049-0.037-0.102-0.068-0.156-0.096-0.005-0.003-0.010-0.006-0.015-0.008-0.146-0.072-0.307-0.115-0.48-0.115-0.565 0-1.024 0.428-1.084 0.978-0.302-0.231-0.717-0.29-1.082-0.113l-0.096 0.047c-0.375 0.184-0.59 0.567-0.579 0.96-0.346-0.199-0.792-0.188-1.133 0.065l-0.094 0.070c-0.351 0.267-0.484 0.713-0.369 1.114-0.413-0.111-0.866 0.044-1.121 0.417l-0.077 0.114c-0.255 0.396-0.204 0.902 0.091 1.239-0.445 0.090-0.795 0.466-0.829 0.941l-0.007 0.142c-0.018 0.466 0.277 0.873 0.697 1.017-0.33 0.281-0.46 0.754-0.288 1.177l0.045 0.109c0.17 0.404 0.57 0.635 0.981 0.635-0.117 0.2-0.154 0.433-0.122 0.661h-1.308c-0.527 0-0.956 0.427-0.956 0.956v2.773c0 0.529 0.428 0.956 0.955 0.956h6.539v1.466c0 0.528 0.428 0.956 0.956 0.956h1.899c0.225-1.116 1.21-1.956 2.393-1.956s2.168 0.84 2.393 1.956h1.899c0.528 0 0.956-0.428 0.956-0.956v-1.466h6.539c0.528 0 0.956-0.427 0.956-0.956v-2.773c0-0.528-0.428-0.956-0.956-0.956h-1.36c-0.141-0.121-0.313-0.206-0.502-0.238 0.296-0.398 0.27-0.963-0.085-1.334l-0.091-0.094c-0.326-0.322-0.811-0.384-1.198-0.188 0.030-0.382-0.153-0.764-0.505-0.973l-0.072-0.043c-0.223-0.139-0.479-0.182-0.718-0.142 0.054-0.178 0.061-0.373 0.010-0.567l-0.012-0.050c-0.054-0.255-0.198-0.467-0.39-0.613 0.255-0.112 0.465-0.325 0.563-0.608l0.026-0.071c0.066-0.175 0.082-0.355 0.055-0.527 0.227 0.060 0.474 0.045 0.704-0.060l0.104-0.049c0.384-0.182 0.604-0.57 0.59-0.97 0.349 0.196 0.795 0.178 1.134-0.078l0.088-0.068c0.328-0.252 0.462-0.662 0.38-1.042 0.36 0.127 0.776 0.047 1.067-0.238l0.084-0.084c0.294-0.297 0.372-0.726 0.235-1.092 0.402 0.077 0.828-0.088 1.065-0.45l0.066-0.101c0.241-0.381 0.202-0.859-0.061-1.194 0.434-0.056 0.802-0.386 0.886-0.84l0.021-0.122c0.077-0.469-0.175-0.917-0.587-1.107zM27.254 4.963l-0.015 0.083c-0.056 0.304 0.027 0.602 0.204 0.827-0.295 0.038-0.572 0.203-0.743 0.474l-0.047 0.073c-0.188 0.287-0.215 0.633-0.104 0.931-0.328-0.063-0.681 0.032-0.935 0.287l-0.062 0.062c-0.265 0.258-0.361 0.624-0.288 0.962-0.32-0.111-0.688-0.065-0.976 0.157l-0.076 0.058c-0.278 0.211-0.419 0.535-0.409 0.86-0.284-0.159-0.637-0.182-0.954-0.032l-0.084 0.039c-0.43 0.199-0.659 0.655-0.589 1.101-0.508-0.139-1.047 0.13-1.237 0.633l-0.045 0.123c-0.152 0.436 0.005 0.905 0.355 1.169-0.442 0.193-0.701 0.675-0.597 1.165 0.011 0.052 0.023 0.102 0.036 0.15 0.138 0.522 0.653 0.842 1.173 0.756-0.133 0.438 0.038 0.928 0.445 1.181l0.107 0.064c0.317 0.189 0.693 0.188 0.998 0.033-0.023 0.294 0.078 0.595 0.304 0.819l0.053 0.055c0.054 0.056 0.119 0.095 0.181 0.136h-16.889c0.013-0.239-0.053-0.483-0.21-0.688l-0.058-0.076c-0.209-0.277-0.532-0.412-0.853-0.412 0.159-0.272 0.192-0.612 0.061-0.924l-0.034-0.082c-0.117-0.289-0.349-0.496-0.622-0.591 0.213-0.181 0.353-0.448 0.364-0.751l0.003-0.066c0.021-0.287-0.077-0.556-0.253-0.758 0.266-0.053 0.511-0.21 0.669-0.457l0.040-0.060c0.182-0.265 0.223-0.586 0.14-0.873 0.298 0.079 0.628 0.024 0.893-0.177l0.072-0.054c0.284-0.21 0.429-0.536 0.42-0.864 0.289 0.166 0.653 0.191 0.975 0.032l0.090-0.044c0.321-0.156 0.524-0.457 0.572-0.784 0.188 0.153 0.425 0.248 0.686 0.248 0.573 0 1.037-0.441 1.085-1.002v-0.001c0.285 0.229 0.684 0.302 1.047 0.152l0.108-0.046c0.361-0.155 0.588-0.489 0.623-0.853 0.293 0.223 0.694 0.283 1.053 0.121l0.113-0.052c0.356-0.168 0.572-0.511 0.593-0.879 0.303 0.212 0.71 0.255 1.064 0.075l0.107-0.056c0.351-0.186 0.552-0.545 0.552-0.916 0.317 0.196 0.73 0.215 1.074 0.010l0.107-0.064c0.334-0.207 0.503-0.572 0.483-0.939 0.159 0.090 0.339 0.144 0.534 0.144 0.605 0 1.096-0.49 1.096-1.096 0-0.061-0.009-0.121-0.018-0.179 0.334 0.141 0.733 0.104 1.039-0.135l0.073-0.056c0.31-0.236 0.451-0.612 0.399-0.972 0.326 0.143 0.716 0.112 1.023-0.112l0.093-0.068c0.261-0.195 0.404-0.489 0.416-0.791 0.248 0.163 0.565 0.219 0.87 0.124l0.055-0.016c0.303-0.078 0.541-0.283 0.67-0.544 0.154 0.236 0.402 0.408 0.701 0.457l0.086 0.014c0.295 0.053 0.583-0.025 0.805-0.192 0.032 0.274 0.172 0.533 0.41 0.712l0.062 0.047c0.227 0.178 0.503 0.246 0.771 0.212-0.102 0.245-0.11 0.528 0 0.792l0.026 0.066c0.1 0.265 0.297 0.466 0.535 0.577-0.216 0.156-0.373 0.394-0.42 0.677z"></path>
</svg>
