<!-- Generated by IcoMoon.io -->
<svg version="1.1" xmlns="http://www.w3.org/2000/svg" width="32" height="32" viewBox="0 0 32 32">
<title>handshake-o</title>
<path d="M19.198 11.973l0.026 0.027h0.009c-0.012-0.008-0.023-0.018-0.035-0.027zM19.233 12h-0.009l1.303 1.326c0 0-1.253-1.297-1.294-1.326zM31 10.5h-1c-0.369 0-0.688 0.202-0.861 0.5h-1.159c-0.475-1.078-1.807-3.504-4.326-3.947-0.241-0.064-1.488-0.377-2.847-0.377-1.232 0-2.218 0.257-2.928 0.763l-0.021 0.010c-0.177 0.079-0.391 0.175-0.602 0.364l-1.309 0.848-1.599-1.627c-0.072-0.074-0.159-0.133-0.256-0.171-0.702-0.281-1.532-0.423-2.468-0.423-1.825 0-3.461 0.539-3.53 0.562-2.393 0.798-3.817 3.032-4.337 3.998h-0.894c-0.173-0.298-0.493-0.5-0.861-0.5h-1c-0.552 0-1 0.448-1 1v8c0 0.552 0.448 1 1 1h1c0.369 0 0.688-0.202 0.861-0.5h3.234l5.507 5.157c0.443 0.444 0.989 0.444 1.222 0.444l0.279-0.003c0.508 0 1.040-0.253 1.498-0.712 0.176-0.175 0.315-0.38 0.416-0.601 0.399 0.268 0.664 0.175 1.097 0.209 0.607 0.049 1.227-0.204 1.719-0.697 0.377-0.377 0.605-0.865 0.666-1.377 0.671-0.011 1.451 0.002 1.93-0.476 0.398-0.398 0.636-0.91 0.713-1.446 0.601-0.008 1.857 0.502 3.457-0.498h4.54c0.174 0.298 0.492 0.5 0.861 0.5h1c0.552 0 1-0.448 1-1v-8c0-0.552-0.448-1-1-1zM22.11 18.621c-0.374 0.373-0.995 0.413-1.433 0.058-0.279-0.224-0.677-0.229-0.951 0.001s-0.35 0.618-0.178 0.933c0.232 0.425 0.16 0.936-0.177 1.273-0.323 0.323-0.813 0.419-1.255 0.19-0.285-0.148-0.632-0.098-0.863 0.124s-0.297 0.566-0.162 0.857c0.151 0.325-0.067 0.431-0.316 0.68-0.165 0.165-0.373 0.245-0.543 0.262-0.43-0.033-1.036-0.494-1.285-0.738l-0.137-0.134c-0.27-0.254-0.684-0.273-0.976-0.044s-0.373 0.634-0.193 0.957c0.137 0.247 0.095 0.591-0.098 0.784-0.199 0.2-0.371 0.273-0.438 0.273l-0.279 0.003c-0.13 0-0.315-0.091-0.324-0.101l-5.596-5.296c-0.139-0.13-0.322-0.203-0.513-0.203h-3.392v-6h1.219c0.298 0 0.567-0.177 0.687-0.448 0-0.002 0.010-0.022 0.024-0.052 0.177-0.374 1.413-2.834 3.636-3.575 0.014-0.005 1.482-0.485 3.056-0.485 0.678 0 1.272 0.089 1.77 0.263l1.268 1.29-2.733 1.769c-0.044 0.028-0.085 0.062-0.123 0.099-0.19 0.19-0.335 0.408-0.457 0.637-0.197 0.371-0.312 0.78-0.312 1.21 0 0.696 0.273 1.352 0.768 1.848 0.491 0.491 1.149 0.761 1.855 0.761 0.533 0 1.099-0.072 1.646-0.567l3.276-1.759 3.419 3.508 0.11 0.165c0.087 0.088 0.22 0.323 0.22 0.323 0.061 0.136 0.095 0.239 0.095 0.393 0 0.288-0.111 0.537-0.315 0.739zM29 18.5h-4.079l-1.194 0.311c0.125-0.305 0.198-0.633 0.198-0.973 0-0.483-0.139-0.942-0.384-1.341l-3.012-3.17-1.33-1.353c-0.219-0.134-0.495-0.155-0.732-0.033l-3.943 2.027c-0.069 0.036-0.133 0.082-0.188 0.136-0.162 0.162-0.282 0.216-0.677 0.216-0.304 0-0.586-0.114-0.794-0.322-0.212-0.213-0.329-0.492-0.329-0.787 0-0.273 0.099-0.531 0.281-0.736l0.732-0.473 5.027-3.228c0.049-0.023 0.094-0.050 0.137-0.082 0.443-0.335 1.168-0.512 2.095-0.512 1.27 0 2.536 0.345 2.562 0.35 2.323 0.387 3.383 3.432 3.392 3.462 0.002 0.005 0.005 0.008 0.006 0.011 0.106 0.299 0.387 0.5 0.705 0.5h1.528v6z"></path>
</svg>
