<!-- Generated by IcoMoon.io -->
<svg version="1.1" xmlns="http://www.w3.org/2000/svg" width="32" height="32" viewBox="0 0 32 32">
<title>Handicap</title>
<path d="M18.105 4.090c0 2.259-1.831 4.090-4.090 4.090s-4.090-1.831-4.090-4.090c0-2.259 1.831-4.090 4.090-4.090s4.090 1.831 4.090 4.090zM30.461 26.25l-5.73-8.637c-0.48-0.723-1.291-1.157-2.157-1.157h-4.534c-0.34 0-0.616-0.276-0.616-0.616v-3.238c0-1.882-1.526-3.408-3.407-3.408s-3.409 1.526-3.409 3.408v7.273c0 1.875 1.521 3.396 3.396 3.396h7.622c0.517 0 0.919 0.28 1.439 0.689l5.062 4.351c0.535 0.459 1.308 0.506 1.895 0.117 0.722-0.48 0.92-1.456 0.439-2.179zM19.878 25.991c-1.654 1.532-3.811 2.376-6.078 2.376-0.874 0-1.739-0.128-2.571-0.381-2.272-0.689-4.141-2.226-5.263-4.326s-1.361-4.508-0.67-6.78c0.455-1.501 1.298-2.855 2.436-3.918 0.733-0.684 0.772-1.836 0.088-2.568-0.657-0.704-1.864-0.746-2.568-0.088-1.606 1.499-2.793 3.406-3.434 5.518-2.009 6.615 1.74 13.632 8.355 15.64 1.173 0.357 2.392 0.537 3.623 0.537 3.188 0 6.224-1.188 8.551-3.345 0.356-0.329 0.563-0.779 0.581-1.264s-0.153-0.948-0.483-1.305c-0.655-0.705-1.861-0.752-2.568-0.097z"></path>
</svg>
