<!-- Generated by IcoMoon.io -->
<svg version="1.1" xmlns="http://www.w3.org/2000/svg" width="32" height="32" viewBox="0 0 32 32">
<title>hard-drive</title>
<path d="M26 0h-20c-1.104 0-2 0.895-2 2v28c0 1.105 0.896 2 2 2h20c1.105 0 2-0.895 2-2v-28c0-1.105-0.895-2-2-2zM7.25 2c0.691 0 1.25 0.559 1.25 1.25s-0.559 1.25-1.25 1.25-1.25-0.559-1.25-1.25 0.559-1.25 1.25-1.25zM7.25 30c-0.691 0-1.25-0.559-1.25-1.25s0.559-1.25 1.25-1.25 1.25 0.559 1.25 1.25-0.559 1.25-1.25 1.25zM24.75 30c-0.691 0-1.25-0.559-1.25-1.25s0.559-1.25 1.25-1.25 1.25 0.559 1.25 1.25-0.559 1.25-1.25 1.25zM16 24c-1.876 0-3.625-0.526-5.125-1.425l2.909-4.277c0.299-0.299 0.299-0.782 0-1.081s-0.782-0.299-1.081 0l-4.488 3.052c-1.383-1.715-2.214-3.893-2.214-6.268 0-5.523 4.477-10 10-10s10 4.477 10 10-4.477 10-10 10zM24.75 4.5c-0.691 0-1.25-0.559-1.25-1.25s0.559-1.25 1.25-1.25 1.25 0.559 1.25 1.25-0.559 1.25-1.25 1.25zM19 14c0 1.657-1.343 3-3 3s-3-1.343-3-3c0-1.657 1.343-3 3-3s3 1.343 3 3z"></path>
</svg>
