<!-- Generated by IcoMoon.io -->
<svg version="1.1" xmlns="http://www.w3.org/2000/svg" width="32" height="32" viewBox="0 0 32 32">
<title>harmonica</title>
<path d="M28.523 13.377h-24.783c-0.111 0-0.2 0.089-0.2 0.2v5.371c0 0.111 0.090 0.2 0.2 0.2h24.782c0.109 0 0.198-0.090 0.198-0.2v-5.371c0-0.11-0.088-0.2-0.198-0.2zM5.686 17.006c-0.58 0-1.050-0.47-1.050-1.049s0.47-1.050 1.050-1.050c0.579 0 1.050 0.47 1.050 1.050 0 0.578-0.471 1.049-1.050 1.049zM25.771 17.006c-0.58 0-1.050-0.47-1.050-1.049s0.47-1.050 1.050-1.050c0.578 0 1.049 0.47 1.049 1.050 0 0.578-0.47 1.049-1.049 1.049zM30.427 10.229v-2.623h-28.854v2.623h-1.573v11.541h32v-11.541h-1.573zM25.735 8.407h2.098v1.766h-2.098v-1.766zM21.427 8.407h2.098v1.766h-2.098v-1.766zM17.119 8.407h2.098v1.766h-2.098v-1.766zM12.81 8.407h2.098v1.766h-2.098v-1.766zM8.502 8.407h2.098v1.766h-2.098v-1.766zM4.194 8.407h2.098v1.766h-2.098v-1.766zM29.771 18.948c0 0.689-0.559 1.248-1.248 1.248h-24.783c-0.689 0-1.248-0.559-1.248-1.248v-5.373c0-0.689 0.559-1.248 1.248-1.248h24.782c0.689 0 1.248 0.559 1.248 1.248v5.373zM3.655 24.393h24.977c1.11 0 2.011-1.050 2.011-2.099h-28.997c0 1.050 0.899 2.099 2.010 2.099z"></path>
</svg>
