<!-- Generated by IcoMoon.io -->
<svg version="1.1" xmlns="http://www.w3.org/2000/svg" width="32" height="32" viewBox="0 0 32 32">
<title>harp</title>
<path d="M29.887 9.711c-1.706-2.292-4.155-1.687-5.942-1.244-1.434 0.354-2.672 0.661-3.713 0.012-0.793-0.494-0.877-0.777-1.081-1.464-0.185-0.623-0.535-1.474-1.332-2.511-2.467-3.207-7.319-2.405-10.319-1.444v-0.987c0-0.29-0.308-0.523-0.808-0.527-0.060-0.862-0.79-1.546-1.747-1.546-0.961 0-1.639 0.686-1.7 1.55-0.471 0.022-0.745 0.246-0.745 0.524v5.29c0 0.274 0 0.497 0.5 0.522v19.613h-0.423c-0.319 0-0.577 0.291-0.577 0.722v2.995c0 0.433 0.258 0.782 0.577 0.782h16.752c0.32 0 0.671-0.35 0.671-0.782v-2.995c0-0.431-0.352-0.723-0.671-0.723h-1.235c4.872-3.5 11.733-9.518 12.566-14.149 0.247-1.375-0.013-2.619-0.774-3.64zM22 11.334v9.492c-0.5 0.759-1.5 1.506-2.5 2.225v-12.083c1 0.361 2 0.431 2.5 0.367zM16.696 7.729c0.21 0.709 0.304 1.495 1.304 2.293v14.233c-1 0.697-1.5 1.354-2.5 1.952v-20.59c0 0.124 0.265 0.259 0.385 0.413 0.514 0.668 0.653 1.168 0.811 1.699zM14 4.878v22.403c0 0.053-0.114 0.22-0.19 0.22h-2.31v-22.731c1-0.101 2-0.087 2.5 0.109zM7 7.891c0.5-0.008 0.5-0.239 0.5-0.526v-1.671c1-0.248 1.5-0.486 2.5-0.668v22.475h-3v-19.61zM28.102 12.879c-0.335 1.864-2.102 4.199-4.602 6.526v-8.31c0.5-0.065 0.674-0.134 0.947-0.201 1.904-0.47 2.684-0.566 3.337 0.311 0.34 0.457 0.441 0.989 0.318 1.674z"></path>
</svg>
