<!-- Generated by IcoMoon.io -->
<svg version="1.1" xmlns="http://www.w3.org/2000/svg" width="32" height="32" viewBox="0 0 32 32">
<title>hashtag</title>
<path d="M30.67 13.5c0.552 0 0.83-0.454 0.83-1.007v-2.857c0-0.552-0.278-1.136-0.83-1.136h-3.326l1.962-6.835c0.035-0.101 0.053-0.131 0.053-0.244 0-0.552-0.447-0.921-0.999-0.921h-4.061c-0.448 0-0.84 0.183-0.962 0.614l-2.132 7.386h-6.389l1.962-6.835c0.035-0.101 0.053-0.131 0.053-0.244 0-0.552-0.447-0.921-0.998-0.921h-4.035c-0.447 0-0.84 0.183-0.962 0.614l-2.133 7.386h-7.39c-0.552 0-1.315 0.584-1.315 1.136v2.857c0 0.553 0.762 1.007 1.315 1.007h6.013l-1.417 5h-4.596c-0.552 0-1.315 0.402-1.315 0.954v2.857c0 0.552 0.762 1.189 1.315 1.189h3.217l-1.974 6.799c-0.087 0.302-0.026 0.59 0.163 0.84s0.485 0.36 0.799 0.36h4.032c0.447 0 0.839-0.212 0.962-0.64l2.131-7.36h6.365l-1.952 6.802c-0.085 0.302-0.024 0.588 0.165 0.838s0.484 0.36 0.798 0.36h4.032c0.447 0 0.838-0.212 0.961-0.64l2.132-7.36h7.526c0.552 0 0.83-0.637 0.83-1.189v-2.857c0-0.552-0.278-0.954-0.83-0.954h-6.143l1.437-5h4.706zM12.023 18.5l1.418-5h6.383l-1.437 5h-6.364z"></path>
</svg>
