<!-- Generated by IcoMoon.io -->
<svg version="1.1" xmlns="http://www.w3.org/2000/svg" width="32" height="32" viewBox="0 0 32 32">
<title>headphones</title>
<path d="M31.994 17c-0.12-9-7.241-15.788-16.008-15.788s-15.886 6.788-16.007 15.788h0.021v8.5h-0.002c0.249 3 2.859 5.487 6.046 5.487 0.091 0 0.179-0.054 0.269-0.059 0.016 0 0.15-0.020 0.167-0.020 1.050-0.007 2.019-0.882 2.019-1.936v-8.34c0-1.053-0.97-1.782-2.019-1.788-0.104 0-0.324-0.345-0.423 0.155-0.005 0-0.009 0-0.013 0-1.196 0-2.545 0.101-3.045 0.698v-2.698h-0.199c0.001-6.5 6.551-13.184 13.185-13.184s13.184 6.684 13.185 13.184h-0.172v2.666c-1-0.598-1.964-0.948-3.159-0.948-0.092 0-0.137 0.006-0.227 0.011-0.015-0-0.114-0.005-0.13-0.005-1.050 0.007-1.984 0.858-1.984 1.911v8.341c0 1.052 0.957 1.977 2.006 1.983 0.105-0 0.311 0.040 0.41 0.040 0.005 0 0.009 0 0.014 0 3.177 0 5.781-2.5 6.044-5.5h0.026v-8.5h-0.006zM6.348 18.718c0.005 0 0.008 0.001 0.012 0.001s0.008-0.001 0.012-0.001h-0.024zM6.373 30.886c-0.005 0-0.008-0.001-0.012-0.001s-0.008 0.001-0.012 0.001h0.024zM25.6 18.724c0.005 0 0.009 0.001 0.012 0.001 0.005 0 0.008-0.001 0.012-0.001h-0.024zM25.625 30.891c-0.005 0-0.008-0.001-0.012-0.001s-0.008 0.001-0.012 0.001h0.024z"></path>
</svg>
