<!-- Generated by IcoMoon.io -->
<svg version="1.1" xmlns="http://www.w3.org/2000/svg" width="32" height="32" viewBox="0 0 32 32">
<title>head-light</title>
<path d="M18.25 4.75c-0.5 0-1 0.050-1.5 0.1-2.4 3.45-6.15 11.45-0.25 21.7 0.55 0.1 1.15 0.15 1.75 0.15 5.5 0 13.050-4.9 13.050-11s-7.55-10.95-13.050-10.95zM0.75 10.8l0.3 1c0.1 0.4 0.55 0.6 0.9 0.5l10.050-2.5c0.3-1.1 0.7-2.050 1.1-2.9l-11.85 3c-0.35 0.1-0.6 0.55-0.5 0.9zM2.25 17l8.9-2.1c0-0.95 0.050-1.85 0.2-2.65l-9.8 2.3c-0.4 0.1-0.6 0.55-0.5 0.9l0.3 1c0.1 0.45 0.5 0.65 0.9 0.55zM2.5 21.65l8.6-2.15c-0.25-0.85-0.4-1.7-0.5-2.5l-8.8 2.25c-0.4 0.1-0.6 0.55-0.5 0.9l0.3 1c0.1 0.4 0.5 0.65 0.9 0.5zM2.050 23.9c-0.4 0.1-0.6 0.55-0.5 0.9l0.3 1c0.1 0.4 0.55 0.6 0.9 0.5l9.85-2.55c-0.45-0.8-0.8-1.55-1.1-2.35l-9.45 2.5z"></path>
</svg>
