<!-- Generated by IcoMoon.io -->
<svg version="1.1" xmlns="http://www.w3.org/2000/svg" width="32" height="32" viewBox="0 0 32 32">
<title>healthcare-device</title>
<path d="M2.791 4.776c0.002 0 0.005 0 0.008 0s0.005-0 0.008-0h-0.016zM2.807 11.701c-0.003 0-0.005-0.001-0.008-0.001s-0.006 0.001-0.008 0.001h0.016zM17.705 7h6.121c0.544 0 0.983-0.458 0.986-1-0.003-0.542-0.442-1-0.986-1h-6.121c-0.544 0-0.985 0.457-0.988 1 0.003 0.542 0.444 1 0.988 1zM16.717 5.923v0.013l0.001-0.006zM24.814 5.923l-0.001 0.006 0.001 0.006zM17.705 10.5h4.636c0.544 0 0.983-0.457 0.987-1.001-0.004-0.541-0.444-0.999-0.987-0.999h-4.636c-0.544 0-0.985 0.458-0.988 0.999 0.003 0.543 0.444 1.001 0.988 1.001zM16.717 9.6v0.012l0-0.006zM23.328 9.6l-0 0.006 0 0.006zM16.717 13.37v0.012l0.001-0.007zM26.893 13.37l-0.001 0.006 0.001 0.007zM17.705 14.5h8.201c0.544 0 0.983-0.458 0.986-1.001-0.003-0.541-0.442-0.999-0.986-0.999h-8.201c-0.544 0-0.985 0.458-0.988 0.999 0.003 0.543 0.444 1.001 0.988 1.001zM1.5 22.027l0-0.006-0-0.006zM31.229 21.955c0 0.001-0 0.003-0 0.004 0 0.003 0.001 0.006 0.001 0.009l-0-0.012zM30.241 21h-0.241v-18.332c0-1.474-1.309-2.668-2.783-2.668h-21.705c-1.473 0-2.512 1.194-2.512 2.668v2.128c-0.066-0.011-0.155-0.020-0.224-0.021-0.694 0.005-1.276 0.567-1.276 1.262v4.403c0 0.694 0.583 1.255 1.276 1.26 0.069-0.001 0.158-0.009 0.224-0.021v9.32h-0.511c-0.544 0-0.985 0.458-0.988 1 0.004 0.543 0.444 1 0.988 1h0.511v6.317c0 1.474 1.039 2.683 2.511 2.683h21.705c1.474 0 2.784-1.209 2.784-2.683v-6.317h0.241c0.544 0 0.985-0.459 0.986-1.003-0.006-0.541-0.444-0.997-0.986-0.997zM5 3.723c0-0.505 0.131-0.723 0.58-0.723h21.567c0.45 0 0.852 0.218 0.852 0.723v17.277h-5.059l-2.213-4.453c-0.075-0.183-0.203-0.352-0.384-0.466-0.123-0.076-0.258-0.123-0.393-0.14-0.020-0.003-0.041-0.004-0.061-0.005-0.038-0.002-0.075-0.007-0.113-0.005-0.052 0.002-0.104 0.009-0.155 0.020-0.006 0.001-0.012 0.002-0.019 0.003-0.076 0.017-0.152 0.040-0.225 0.075-0.189 0.096-0.332 0.245-0.425 0.419l-3.376 5.365-1.692-3.396c-0.068-0.179-0.188-0.34-0.356-0.459-0.080-0.055-0.167-0.093-0.255-0.121-0.001-0-0.002-0-0.002-0.001-0.053-0.017-0.107-0.029-0.161-0.038-0.019-0.003-0.039-0.005-0.058-0.006-0.036-0.003-0.072-0.005-0.107-0.004-0.039 0-0.078 0.005-0.117 0.010-0.018 0.003-0.034 0.005-0.052 0.009-0.052 0.010-0.104 0.025-0.156 0.044-0.004 0.002-0.008 0.003-0.011 0.005-0.029 0.011-0.058 0.018-0.086 0.032-0.181 0.092-0.322 0.211-0.414 0.375l-1.915 2.738h-5.194v-17.277zM16.364 30.948c-0.982 0-1.777-0.796-1.777-1.776s0.796-1.776 1.777-1.776c0.98 0 1.776 0.795 1.776 1.776s-0.795 1.776-1.776 1.776zM28 25.291c0 0.505-0.402 0.709-0.852 0.709h-21.567c-0.45 0-0.58-0.204-0.58-0.709v-2.291h5.689c0.003 0 0.006 0.001 0.009 0 0.313 0.002 0.623-0.145 0.816-0.422l1.311-1.887 1.737 3.485c0.073 0.188 0.201 0.357 0.384 0.474 0.126 0.078 0.262 0.123 0.4 0.14 0.018 0.003 0.037 0.002 0.055 0.003 0.039 0.003 0.078 0.006 0.116 0.004 0.053-0.002 0.107-0.010 0.159-0.021 0.004-0 0.008-0.001 0.011-0.002 0.078-0.017 0.156-0.040 0.23-0.076 0.192-0.098 0.337-0.25 0.427-0.428l3.371-5.357 1.735 3.482c0.009 0.016 0.019 0.029 0.028 0.044 0.020 0.034 0.038 0.066 0.061 0.097 0.017 0.024 0.037 0.047 0.056 0.069 0.022 0.025 0.044 0.049 0.069 0.072 0.023 0.021 0.048 0.041 0.073 0.060s0.051 0.038 0.078 0.055c0.026 0.017 0.053 0.030 0.081 0.044 0.030 0.015 0.059 0.029 0.090 0.040 0.029 0.011 0.058 0.019 0.088 0.027 0.032 0.009 0.063 0.017 0.096 0.022s0.066 0.036 0.099 0.038c0.022 0.002 0.043 0.035 0.064 0.035h5.662v2.291zM12.518 17.889l0.005-0.002 0.007-0.004zM15.925 24.698l-0.005 0.002-0.006 0.004zM19.372 16.030l0.006-0.002 0.006-0.003zM13.525 17.956l0.003 0.003 0.007 0.003zM20.34 16.073l0.004 0.003 0.006 0.003zM14.953 24.657l-0.006-0.006-0.004-0.002zM6.948 6.867c0.003-0.003 0.007-0.006 0.010-0.010s0.007-0.008 0.011-0.011l-0.021 0.021zM14.77 6.849c0.004 0.003 0.007 0.006 0.009 0.010 0.004 0.004 0.008 0.007 0.012 0.011l-0.021-0.021zM10.872 13.735c1.104 0 3.003-1.747 4.029-3.14s0.768-2.835-0.123-3.736c-0.903-0.891-2.357-0.888-3.256 0.011 0 0-0.292 0.292-0.655 0.655l-0.655-0.655c-0.899-0.899-2.354-0.902-3.255-0.011-0.891 0.904-1.131 2.24-0.12 3.772s2.931 3.104 4.035 3.104z"></path>
</svg>
