<!-- Generated by IcoMoon.io -->
<svg version="1.1" xmlns="http://www.w3.org/2000/svg" width="32" height="32" viewBox="0 0 32 32">
<title>heatmap-chart</title>
<path d="M8.5 0h-7.5c-0.552 0-1 0.448-1 1v4.5c0 0.552 0.448 1 1 1h7.5c0.552 0 1-0.448 1-1v-4.5c0-0.552-0.448-1-1-1zM19.5 0h-7c-0.552 0-1 0.448-1 1v4.5c0 0.552 0.448 1 1 1h7c0.552 0 1-0.448 1-1v-4.5c0-0.552-0.448-1-1-1zM31 0h-7.5c-0.552 0-1 0.448-1 1v4.5c0 0.552 0.448 1 1 1h7.5c0.552 0 1-0.448 1-1v-4.5c0-0.552-0.448-1-1-1zM8.5 8.5h-7.5c-0.552 0-1 0.448-1 1v4.5c0 0.552 0.448 1 1 1h7.5c0.552 0 1-0.448 1-1v-4.5c0-0.552-0.448-1-1-1zM19.5 8.5h-7c-0.552 0-1 0.448-1 1v4.5c0 0.552 0.448 1 1 1h7c0.552 0 1-0.448 1-1v-4.5c0-0.552-0.448-1-1-1zM31 8.5h-7.5c-0.552 0-1 0.448-1 1v4.5c0 0.552 0.448 1 1 1h7.5c0.552 0 1-0.448 1-1v-4.5c0-0.552-0.448-1-1-1zM8.5 17h-7.5c-0.552 0-1 0.448-1 1v4.5c0 0.552 0.448 1 1 1h7.5c0.552 0 1-0.448 1-1v-4.5c0-0.552-0.448-1-1-1zM19.5 17h-7c-0.552 0-1 0.448-1 1v4.5c0 0.552 0.448 1 1 1h7c0.552 0 1-0.448 1-1v-4.5c0-0.552-0.448-1-1-1zM31 17h-7.5c-0.552 0-1 0.448-1 1v4.5c0 0.552 0.448 1 1 1h7.5c0.552 0 1-0.448 1-1v-4.5c0-0.552-0.448-1-1-1zM8.5 25.5h-7.5c-0.552 0-1 0.448-1 1v4.5c0 0.552 0.448 1 1 1h7.5c0.552 0 1-0.448 1-1v-4.5c0-0.552-0.448-1-1-1zM19.5 25.5h-7c-0.552 0-1 0.448-1 1v4.5c0 0.552 0.448 1 1 1h7c0.552 0 1-0.448 1-1v-4.5c0-0.552-0.448-1-1-1zM31 25.5h-7.5c-0.552 0-1 0.448-1 1v4.5c0 0.552 0.448 1 1 1h7.5c0.552 0 1-0.448 1-1v-4.5c0-0.552-0.448-1-1-1z"></path>
</svg>
