<!-- Generated by IcoMoon.io -->
<svg version="1.1" xmlns="http://www.w3.org/2000/svg" width="32" height="32" viewBox="0 0 32 32">
<title>high-heel-sandals</title>
<path d="M30.916 11.482c-2.366 0.361-7.68 3.964-7.68 3.964-1.255-2.419 1.933-5.441 1.933-5.441 1.769-2.241 1.928-1.922 3.845-4.035 0.131-0.145 0.145-0.362 0.036-0.525l-0.868-1.287c-0.152-0.224-0.471-0.254-0.661-0.061-1.346 1.377-4.687 4.802-5.852 6.076-2.102 2.297-4.612 5.371-5.605 7.165-0.941 1.7-1.842 4.614-2.599 5.907-0.528 0.902-1.276 1.203-1.684 1.305l-0.871-3.576c-0.164-1.39-0.673-1.512-1.303-1.329 0 0-3.123 0.852-3.595 0.93-0.795 0.132-0.949 0.84-0.949 1.248v2.987c-1.298-0.099-2.32-0.258-2.957-0.361-1.486-0.241-2.106-0.038-2.106 1.825s6.623 1.757 6.623 1.757 1.698 0 5.009 0 3.271-0.721 6.41-4.66c3.14-3.939 8.306-4.775 8.306-4.775 0.538 1.821 1.221 9.435 1.221 9.435h1.863c0 0 0.892-9.185 1.25-11.054 0.415-2.165 2.601-5.854 0.233-5.495z"></path>
</svg>
