<!-- Generated by IcoMoon.io -->
<svg version="1.1" xmlns="http://www.w3.org/2000/svg" width="32" height="32" viewBox="0 0 32 32">
<title>high-heel-boots</title>
<path d="M15.998 21.666c0.234 0.616 0.434 1.744 0.536 2.817 1.107-1.042 2.11-2.212 2.264-3.058 0.277-1.52-0.915-11.418-1.732-17.299-0.044-0.319 0.052-0.641 0.262-0.884s0.517-0.381 0.838-0.381h1.657l0.239-2.86h-10.104c0 0 2.111 14.825 1.702 17.058-0.409 2.235-4.553 5.407-5.597 6.018-1.593 0.931-2.383 1.824-2.462 2.904l-0.002 0.049c0 0.392 0.265 0.668 0.79 0.82 0.216 0.064 1.353 0.367 2.412 0.428 2.687 0.155 4.29-0.279 5.030-0.916l4.165-4.696zM28.399 3.972h-10.231c0 0 2.137 15.39 1.724 17.652-0.414 2.262-4.61 5.473-5.668 6.093-1.614 0.944-2.412 1.847-2.494 2.94l-0.002 0.049c0 0.396 0.269 0.677 0.8 0.831 0.219 0.064 1.37 0.372 2.442 0.434 2.72 0.157 5.019-0.366 5.768-1.011l3.49-3.989c0.341 0.899 0.669 2.191 0.669 3.517v0.677h2.058v-0.677c0-1.86 0.523-3.288 0.794-4.072 0.267-0.729 1.448-3.295-0.691-6.017l1.339-16.428z"></path>
</svg>
