<!-- Generated by IcoMoon.io -->
<svg version="1.1" xmlns="http://www.w3.org/2000/svg" width="32" height="32" viewBox="0 0 32 32">
<title>high-beam</title>
<path d="M19.1 5.5c-0.5 0-0.95 0.050-1.45 0.1-2.25 3.3-5.9 10.95-0.25 20.75 0.55 0.1 1.1 0.15 1.65 0.15 5.25 0 12.5-4.7 12.5-10.5s-7.2-10.5-12.45-10.5zM1 19.9c0 0 0 0 0 0v0h11.95c-0.15-0.7-0.3-1.45-0.35-2.9h-11.55c-0.35 0-0.65 0.25-0.65 0.6v1.7c0 0 0 0.050 0 0.050 0 0.4 0.25 0.55 0.6 0.55zM9.95 21.7h-8.9c-0.050 0-0.050 0-0.050 0s-0.050 0-0.050 0c-0.3 0.050-0.5 0.25-0.5 0.55v1.7c0 0.25 0.2 0.45 0.45 0.55 0.050 0 0.1 0 0.15 0 0 0 0 0 0 0v0h13.35c-0.4-0.55-0.9-1.45-1.15-2.8h-3.3zM1.050 10.3v0h12.2c0.3-1.1 0.4-1.35 1.1-2.75h-13.3c-0.35 0-0.65 0.25-0.65 0.55v1.7c0 0.25 0.3 0.5 0.65 0.5zM1.050 14.9v0h11.6c0.050-1.1 0.15-1.65 0.3-2.75h-11.9c-0.35 0-0.65 0.25-0.65 0.55v1.65c0 0.3 0.3 0.55 0.65 0.55z"></path>
</svg>
