<!-- Generated by IcoMoon.io -->
<svg version="1.1" xmlns="http://www.w3.org/2000/svg" width="32" height="32" viewBox="0 0 32 32">
<title>history</title>
<path d="M13.024 23.073l4.209-6c0.199-0.228 0.267-0.52 0.267-0.823v-9.75c0-0.691-0.559-1.25-1.25-1.25s-1.25 0.559-1.25 1.25v9.28l-3.899 5.646c-0.455 0.52-0.382 1.309 0.138 1.764 0.238 0.208 0.542 0.309 0.834 0.309 0.348 0 0.704-0.145 0.951-0.427zM16.154 0.738c-4.553 0-8.635 2-11.431 5.163l-2.959-2.952c-0.707-0.707-1.265 0.294-1.265 0.846v7.501c0 0.552 0.55 1.204 1.101 1.204h7.501c0.552 0 1.553-0.61 0.845-1.317l-2.871-2.903c2.188-2.571 5.444-4.204 9.077-4.204 6.575 0 11.924 5.349 11.924 11.924s-5.349 11.924-11.924 11.924c-4.018 0-7.573-1.998-9.736-5.051l-2.39 2.391c2.789 3.645 7.181 5.998 12.126 5.998 8.428 0 15.262-6.833 15.262-15.262s-6.834-15.262-15.262-15.262z"></path>
</svg>
