<!-- Generated by IcoMoon.io -->
<svg version="1.1" xmlns="http://www.w3.org/2000/svg" width="32" height="32" viewBox="0 0 32 32">
<title>Hockey</title>
<path d="M27.666 4.5c0 2.025-1.642 3.666-3.666 3.666s-3.666-1.642-3.666-3.667c0-2.025 1.642-3.667 3.666-3.667s3.666 1.642 3.666 3.667zM30.424 13.983c-2.075-2.906-7.657-7.258-13.92-2.921-0.102 0.071-0.197 0.152-0.282 0.243l-14.5 15.5c-0.66 0.706-0.623 1.813 0.083 2.473 0.337 0.317 0.766 0.473 1.195 0.473 0.467 0 0.933-0.186 1.278-0.555l11.365-12.149c0.606 0.102 1.604 0.415 2.51 1.358 0.857 0.892 1.466 2.178 1.82 3.812l-6.284 6.284h-2.689c-0.414 0-0.75 0.336-0.75 0.75s0.336 0.75 0.75 0.75h3c0.199 0 0.389-0.079 0.53-0.22l5.718-5.718c0.113 1.218 0.117 2.572 0.007 4.058-0.036 0.485 0.132 0.964 0.463 1.32s0.795 0.559 1.282 0.559h3c0.967 0 1.75-0.784 1.75-1.75s-0.783-1.75-1.75-1.75h-1.168c0.035-2.054-0.148-3.882-0.542-5.48l4.643-4.643c0.595 0.46 1.441 0.506 2.084 0.047 0.787-0.561 0.969-1.654 0.407-2.441zM20.59 15.889c-0.762-0.772-1.565-1.296-2.32-1.652l0.373-0.399c3.843-2.541 6.971-0.008 8.293 1.414l-4.151 4.151c-0.531-1.393-1.262-2.569-2.196-3.514z"></path>
</svg>
