<!-- Generated by IcoMoon.io -->
<svg version="1.1" xmlns="http://www.w3.org/2000/svg" width="32" height="32" viewBox="0 0 32 32">
<title>hockey-stick</title>
<path d="M31.25 27c-1 0-7.5 0-7.5 0s-2-0.25-2.5-1.75l-3.924-5.633c5.393-7.952 12.424-18.438 12.424-19.054 0-1-1-0.438-1-0.438l-12.5 17.947-12.5-17.947c0 0-1-0.563-1 0.438 0 0.617 7.031 11.102 12.424 19.054l-3.924 5.633c-0.5 1.5-2.5 1.75-2.5 1.75s-6.5 0-7.5 0-1.25 0.5-1.25 0.5 0 2 0 3 1.375 1.008 1.375 1.008c3.5 0 6.875-0.992 6.875-0.992 2-0.5 3-1.985 3-1.985s2.158-3.146 5-7.329c2.842 4.182 5 7.328 5 7.328s1 1.485 3 1.985c0 0 3.125 0.992 6.625 0.992 0 0 1.125-0.008 1.125-1.008s0-3 0-3 0.25-0.5-0.75-0.5zM18.5 29.5c0 0.552-1.119 1-2.5 1s-2.5-0.448-2.5-1c0-0.552 1.119-1 2.5-1s2.5 0.448 2.5 1zM16 31c-1.381 0-2.5-0.448-2.5-1v1c0 0.552 1.119 1 2.5 1s2.5-0.448 2.5-1v-1c0 0.552-1.119 1-2.5 1z"></path>
</svg>
