<!-- Generated by IcoMoon.io -->
<svg version="1.1" xmlns="http://www.w3.org/2000/svg" width="32" height="32" viewBox="0 0 32 32">
<title>hoddie</title>
<path d="M31.985 23.399l-5.995-15.417c-0.055-0.308-0.262-0.563-0.552-0.681l-3.523-1.293c0.401-1.079 0.466-2.096-0.145-2.824-2.514-2.99-3.337-0.723-3.337-0.723l-2.433 7.063h-0.001l-2.432-7.064c0 0-0.822-2.268-3.337 0.723-0.611 0.728-0.546 1.745-0.145 2.824l-3.524 1.293c-0.289 0.119-0.495 0.374-0.552 0.681l-5.995 15.418c-0.088 0.479 0.214 0.942 0.687 1.057l3.269 1.319c0.072 0.018 0.145 0.026 0.218 0.026 0.17 0 0.338-0.048 0.485-0.14 0.211-0.131 0.356-0.339 0.409-0.581l3.145-8.541-1.045 9.188c0 0.45-0.177 1.731 0.59 2.008-0.481 0.215-0.817 0.695-0.817 1.254 0 0.759 0.615 1.375 1.375 1.375h15.337c0.759 0 1.375-0.616 1.375-1.375 0-0.564-0.34-1.047-0.826-1.259 0.699-0.289 0.599-1.555 0.599-2.003l-1.044-9.188 3.144 8.541c0.053 0.242 0.198 0.45 0.409 0.581 0.148 0.093 0.315 0.14 0.485 0.14 0.072 0 0.145-0.009 0.217-0.026l3.27-1.319c0.473-0.114 0.774-0.579 0.687-1.057zM13.591 14.677h-0.972c-0.492 0-0.891-0.399-0.891-0.891s0.397-0.889 0.887-0.89v-3.671c0-0.27 0.219-0.489 0.489-0.489s0.489 0.219 0.489 0.489v3.671c0.491 0.002 0.888 0.399 0.888 0.89s-0.399 0.891-0.892 0.891zM19.381 14.677h-0.971c-0.492 0-0.891-0.399-0.891-0.891s0.397-0.889 0.887-0.89v-3.671c0-0.27 0.219-0.489 0.489-0.489s0.488 0.219 0.488 0.489v3.671c0.491 0.001 0.889 0.399 0.889 0.89s-0.399 0.891-0.892 0.891z"></path>
</svg>
