<!-- Generated by IcoMoon.io -->
<svg version="1.1" xmlns="http://www.w3.org/2000/svg" width="32" height="32" viewBox="0 0 32 32">
<title>home</title>
<path d="M31.454 16.349c0 0-13.087-11.262-14.575-12.476-0.259-0.21-0.688-0.373-1.12-0.373-0.006 0-0.012 0-0.018 0s-0.011 0-0.017 0c-0.433 0-0.862 0.135-1.12 0.346-1.489 1.214-13.604 12.485-13.604 12.485-0.827 0.759-1.633 2.169 0.503 2.169h2.497v10h4.5v-7.085c0-0.564 0.546-0.915 1.113-0.915h3.719c0.566 0 1.168 0.35 1.168 0.915v7.085h13.5v-10h2.184c2.137 0 2.098-1.392 1.27-2.151zM23 24.613c0 0.49-0.399 0.887-0.892 0.887h-3.216c-0.492 0-0.892-0.398-0.892-0.887v-3.224c0-0.491 0.399-0.888 0.892-0.888h3.216c0.492 0 0.892 0.398 0.892 0.887v3.225z"></path>
</svg>
