<!-- Generated by IcoMoon.io -->
<svg version="1.1" xmlns="http://www.w3.org/2000/svg" width="32" height="32" viewBox="0 0 32 32">
<title>hook</title>
<path d="M17.5 22.441v-1.941h0.243c1.058 0 1.757-0.91 1.757-1.968v-1.884c1.5-1 2.101-2.527 2.101-4.238 0-3.014-2.403-5.456-5.416-5.456s-5.331 2.442-5.331 5.456c0 1.71 0.646 3.238 2.146 4.238v1.884c0 1.059 0.649 1.968 1.707 1.968h0.293v4.021l0.472-0.023c0.034-0.002 0.114-0.005 0.149-0.005 1.303 0 2.387 1.060 2.387 2.363s-1.048 2.364-2.351 2.364c-1.236 0-2.697-0.767-3.188-2.483-0.239-0.834-0.668-0.925-0.843-0.925-0.316 0-0.684 0.273-0.684 1.044 0 2.605 2.121 4.726 4.726 4.726s4.8-2.12 4.8-4.726c0-1.974-0.968-3.72-2.968-4.415zM16.225 14.332c-1.062 0-1.922-0.861-1.922-1.922 0-1.063 0.861-1.923 1.922-1.923s1.922 0.861 1.922 1.923c0 1.061-0.861 1.922-1.922 1.922zM19 6.563v-6.563h-5.5v6.563c1-0.348 1.832-0.544 2.75-0.544s1.75 0.196 2.75 0.544z"></path>
</svg>
