<!-- Generated by IcoMoon.io -->
<svg version="1.1" xmlns="http://www.w3.org/2000/svg" width="32" height="32" viewBox="0 0 32 32">
<title>horizontal-spread-47</title>
<path d="M19.5 9.219c0 0.095 0.102 0.181 0.178 0.225 0.070 0.040 0.18 0.037 0.261-0.009 0.701-0.438 1.786-1.103 1.856-1.138 0.156-0.073 0.174-0.323 0.015-0.407-0.064-0.035-1.139-0.703-1.848-1.144-0.080-0.051-0.219-0.054-0.294-0.013-0.075 0.040-0.167 0.122-0.167 0.216v0.551c0 0-2.001 0-2.18 0-0.181 0-0.32 0.224-0.32 0.224v0.722c0 0 0.090 0.053 0.343 0.053 0.252 0.001 2.157 0.001 2.157 0.001v0.719zM14.764 7.5c-0.253 0-2.264 0-2.264 0v-0.543c0-0.096-0.048-0.182-0.124-0.226-0.072-0.040-0.155-0.038-0.236 0.010-0.703 0.438-1.773 1.102-1.842 1.139-0.155 0.072-0.167 0.322-0.009 0.406 0.065 0.034 1.144 0.704 1.853 1.144 0.079 0.051 0.165 0.056 0.243 0.013 0.075-0.042 0.115-0.065 0.115-0.16v-0.783c0 0 2.108 0 2.287 0 0.181 0 0.213-0.050 0.213-0.050v-0.721c0 0 0.017-0.229-0.236-0.229zM31.703 12.363c-0.107-0.229-0.297-0.404-0.534-0.49-0.18-0.066-0.375-0.075-0.558-0.027l-1.739 4.782c-0.078 0.207-0.317 0.317-0.523 0.244-0.209-0.074-0.32-0.308-0.245-0.52l2.297-6.307c0.052-0.399-0.207-0.829-0.625-0.98-0.18-0.066-0.374-0.076-0.556-0.028l-2.48 6.816c-0.078 0.206-0.32 0.319-0.523 0.244-0.102-0.038-0.184-0.113-0.23-0.21-0.047-0.099-0.050-0.21-0.012-0.313l2.855-7.848c0.052-0.399-0.206-0.828-0.623-0.979-0.413-0.151-0.896 0.018-1.127 0.386l-2.838 7.811c-0.075 0.205-0.316 0.319-0.522 0.244-0.104-0.037-0.186-0.113-0.232-0.212s-0.051-0.21-0.012-0.312l2.296-6.306c-0.111-0.155-0.264-0.271-0.446-0.338-0.48-0.173-1.040 0.091-1.215 0.568l-3.373 9.27 0.192-4.202c0.009-0.252-0.080-0.579-0.253-0.764s-0.407-0.387-0.66-0.387c-0.001 0-0.002 0-0.002 0-0.547 0-0.962 0.486-0.981 0.998l-0.245 5.37c-0.004 0.116 0.015 0.255 0.055 0.366 0.050 0.206 0.602 1.723 0.962 2.691l0.026 0.075-0.025 0.072c-0.111 0.305-0.145 0.574-0.099 0.776 0.049 0.21 0.186 0.355 0.421 0.44l5.416 1.971c0.546 0.198 0.872-0.296 1.027-0.722l0.019-0.051 0.041-0.035c0.386-0.322 1.424-1.25 1.583-1.686l3.522-9.678c0.087-0.238 0.076-0.495-0.032-0.725zM12.127 12.671c-0.288 0.010-0.524 0.117-0.696 0.303s-0.261 0.427-0.251 0.679l0.193 4.201-3.373-9.271c-0.174-0.476-0.734-0.743-1.216-0.568-0.182 0.067-0.335 0.182-0.444 0.338l2.295 6.307c0.037 0.101 0.033 0.212-0.012 0.311s-0.129 0.175-0.232 0.213c-0.204 0.074-0.447-0.039-0.521-0.243l-2.858-7.849c-0.205-0.317-0.694-0.5-1.108-0.348-0.417 0.151-0.676 0.58-0.615 1.019l2.847 7.808c0.075 0.211-0.033 0.445-0.242 0.523-0.21 0.076-0.449-0.038-0.524-0.243l-2.48-6.816c-0.184-0.047-0.377-0.038-0.558 0.027-0.418 0.152-0.676 0.582-0.615 1.021l2.285 6.264c0.076 0.214-0.034 0.448-0.244 0.523-0.203 0.073-0.448-0.040-0.523-0.244l-1.74-4.782c-0.182-0.047-0.377-0.039-0.557 0.027-0.239 0.086-0.427 0.261-0.535 0.49s-0.118 0.487-0.031 0.725l3.523 9.678c0.159 0.436 1.197 1.365 1.582 1.686l0.042 0.035 0.019 0.052c0.128 0.353 0.364 0.773 0.762 0.773 0.082 0 0.171-0.017 0.264-0.052l5.417-1.971c0.234-0.085 0.371-0.229 0.421-0.439 0.046-0.201 0.011-0.469-0.099-0.774l-0.025-0.070 0.025-0.070c0.361-0.968 0.912-2.474 0.956-2.659 0.046-0.136 0.065-0.253 0.060-0.367l-0.245-5.323c-0.019-0.514-0.435-0.915-0.947-0.915z"></path>
</svg>
