<!-- Generated by IcoMoon.io -->
<svg version="1.1" xmlns="http://www.w3.org/2000/svg" width="32" height="32" viewBox="0 0 32 32">
<title>horizontal-spread-53</title>
<path d="M13.276 5.873c-0.076-0.049-0.126-0.053-0.199-0.014-0.073 0.041-0.077 0.117-0.077 0.208v0.433c0 0-2.082 0-2.254 0s-0.246 0.309-0.246 0.309v0.689c0 0 0.027 0.003 0.268 0.003s2.232 0 2.232 0v0.737c0 0.092 0.012 0.174 0.085 0.216 0.068 0.038 0.132 0.035 0.209-0.009 0.671-0.419 1.687-1.054 1.752-1.088 0.149-0.069 0.155-0.308 0.007-0.388-0.063-0.032-1.1-0.672-1.777-1.093zM19.384 5.873c0.076-0.049 0.046-0.053 0.119-0.014 0.073 0.041-0.003 0.117-0.003 0.208v0.433c0 0 2.243 0 2.415 0s0.085 0.309 0.085 0.309v0.689c0 0 0.134 0.003-0.108 0.003s-2.392 0-2.392 0v0.737c0 0.092 0.067 0.174-0.005 0.216-0.068 0.038-0.091 0.035-0.168-0.009-0.671-0.419-1.666-1.054-1.732-1.088-0.148-0.069-0.145-0.308 0.003-0.388 0.063-0.032 1.11-0.672 1.786-1.093zM31.648 22.028l-0.148-0.045v-0.052c0-0.48 0.051-1.81-0.177-2.191l-5.008-8.442c-0.25-0.415-0.796-0.562-1.215-0.311-0.155 0.094-0.264 0.232-0.34 0.398l2.511 4.172c0.053 0.088 0.073 0.193 0.049 0.294s-0.086 0.187-0.176 0.241c-0.178 0.108-0.427 0.044-0.535-0.133l-3.3-5.5c-0.241-0.248-0.747-0.341-1.104-0.127-0.157 0.095-0.279 0.231-0.355 0.398l3.57 5.945c0.11 0.183 0.050 0.424-0.133 0.534-0.181 0.108-0.43 0.044-0.537-0.133l-4.111-6.848c-0.242-0.247-0.746-0.339-1.102-0.125-0.364 0.219-0.529 0.668-0.392 1.070l4.093 6.809c0.053 0.088 0.070 0.194 0.044 0.294-0.025 0.102-0.088 0.188-0.177 0.241-0.18 0.108-0.43 0.044-0.535-0.136l-3.303-5.5c-0.179-0.011-0.361 0.033-0.518 0.127-0.427 0.258-0.567 0.815-0.309 1.242l4.855 8.088-3.006-2.674c-0.165-0.143-0.376-0.223-0.596-0.223-0.262 0-0.511 0.113-0.683 0.31-0.328 0.376-0.29 0.95 0.087 1.279l3.81 3.389c0.083 0.073 0.182 0.13 0.294 0.17 0.218 0.099 1.925 0.68 2.566 0.895l0.067 0.023 0.037 0.061c0.163 0.273 0.425 0.597 0.754 0.598 0.108 0 0.223-0.036 0.34-0.107l4.663-2.835c0.39-0.234 0.356-0.637 0.021-1.197zM13.565 13.008c-0.156-0.094-0.335-0.136-0.52-0.127l-3.303 5.501c-0.104 0.177-0.357 0.242-0.536 0.134-0.088-0.052-0.152-0.137-0.177-0.239s-0.010-0.206 0.044-0.296l4.111-6.846c0.12-0.364-0.044-0.815-0.409-1.033-0.357-0.214-0.844-0.143-1.127 0.158l-4.086 6.814c-0.106 0.177-0.357 0.241-0.534 0.134-0.184-0.111-0.245-0.352-0.134-0.535l3.569-5.946c-0.075-0.165-0.197-0.302-0.355-0.396-0.357-0.216-0.847-0.143-1.129 0.158l-3.277 5.468c-0.104 0.176-0.357 0.241-0.535 0.134-0.090-0.054-0.153-0.14-0.178-0.242s-0.008-0.206 0.046-0.294l2.503-4.171c-0.076-0.166-0.197-0.302-0.356-0.396-0.141-0.085-0.302-0.13-0.465-0.13-0.322 0-0.612 0.165-0.777 0.44l-5.106 8.442c-0.228 0.381-0.335 1.71-0.335 2.191v0.052l0.009 0.045c-0.336 0.561-0.29 0.963 0.1 1.198l4.733 2.836c0.117 0.070 0.236 0.106 0.343 0.106 0.327 0 0.594-0.326 0.758-0.598l0.037-0.061 0.067-0.023c0.641-0.216 2.346-0.796 2.551-0.889 0.126-0.046 0.226-0.104 0.312-0.177l3.806-3.386c0.184-0.16 0.293-0.381 0.309-0.622 0.017-0.242-0.063-0.475-0.223-0.657-0.316-0.362-0.916-0.404-1.278-0.086l-3.004 2.672 4.854-8.087c0.257-0.43 0.118-0.988-0.31-1.245z"></path>
</svg>
