<!-- Generated by IcoMoon.io -->
<svg version="1.1" xmlns="http://www.w3.org/2000/svg" width="32" height="32" viewBox="0 0 32 32">
<title>horizontal-stacked-chart</title>
<path d="M5 8h3.5c0.552 0 1-0.448 1-1v-4c0-0.552-0.448-1-1-1h-3.5c-0.552 0-1 0.448-1 1v4c0 0.552 0.448 1 1 1zM5 18h9.5c0.552 0 1-0.448 1-1v-4c0-0.552-0.448-1-1-1h-9.5c-0.552 0-1 0.448-1 1v4c0 0.552 0.448 1 1 1zM5 28h6c0.552 0 1-0.448 1-1v-4c0-0.552-0.448-1-1-1h-6c-0.552 0-1 0.448-1 1v4c0 0.552 0.448 1 1 1zM15 22c-0.552 0-1 0.448-1 1v4c0 0.552 0.448 1 1 1h3.5c0.552 0 1-0.448 1-1v-4c0-0.552-0.448-1-1-1h-3.5zM22.5 22c-0.552 0-1 0.448-1 1v4c0 0.552 0.448 1 1 1h5c0.552 0 1-0.448 1-1v-4c0-0.552-0.448-1-1-1h-5zM18.5 12c-0.552 0-1 0.448-1 1v4c0 0.552 0.448 1 1 1h5.5c0.552 0 1-0.448 1-1v-4c0-0.552-0.448-1-1-1h-5.5zM28 18h2.5c0.552 0 1-0.448 1-1v-4c0-0.552-0.448-1-1-1h-2.5c-0.552 0-1 0.448-1 1v4c0 0.552 0.448 1 1 1zM12.5 8h2c0.552 0 1-0.448 1-1v-4c0-0.552-0.448-1-1-1h-2c-0.552 0-1 0.448-1 1v4c0 0.552 0.448 1 1 1zM18 8h5c0.552 0 1-0.448 1-1v-4c0-0.552-0.448-1-1-1h-5c-0.552 0-1 0.448-1 1v4c0 0.552 0.448 1 1 1zM31 30h-29v-29.125c0-0.483-0.391-0.875-0.875-0.875h-0.25c-0.483 0-0.875 0.392-0.875 0.875v30.25c0 0.483 0.392 0.875 0.875 0.875h30.125c0.552 0 1-0.448 1-1s-0.448-1-1-1z"></path>
</svg>
