<!-- Generated by IcoMoon.io -->
<svg version="1.1" xmlns="http://www.w3.org/2000/svg" width="32" height="32" viewBox="0 0 32 32">
<title>horizontal-bullet-chart</title>
<path d="M1.125 0h-0.25c-0.483 0-0.875 0.392-0.875 0.875v30.25c0 0.483 0.392 0.875 0.875 0.875h0.25c0.484 0 0.875-0.392 0.875-0.875v-30.25c0-0.483-0.391-0.875-0.875-0.875zM5 8h8.348l0.298-1.735-2.354-2.795 3.253-0.473 0.719-0.958c-0.085-0.023-0.172-0.040-0.264-0.040h-10c-0.552 0-1 0.448-1 1v4c0 0.552 0.448 1 1 1zM5 19h18.349l0.298-1.735-2.354-2.794 3.253-0.473 0.739-0.998h-20.285c-0.552 0-1 0.448-1 1v4c0 0.552 0.448 1 1 1zM18.546 24.998l0.739-0.998h-14.284c-0.552 0-1 0.448-1 1v4c0 0.552 0.448 1 1 1h12.348l0.298-1.735-2.354-2.794 3.253-0.473zM14.646 6.265l-0.556 3.24 2.909-1.53 2.909 1.53-0.555-3.239 2.354-2.295-3.253-0.473-1.454-2.947-1.454 2.947-3.253 0.473zM31.707 14.97l-3.253-0.473-1.454-2.947-1.454 2.947-3.253 0.473 2.354 2.295-0.555 3.239 2.909-1.529 2.909 1.529-0.555-3.239zM22.454 25.498l-1.454-2.948-1.454 2.947-3.253 0.473 2.354 2.294-0.555 3.239 2.909-1.529 2.909 1.529-0.555-3.239 2.354-2.294z"></path>
</svg>
