<!-- Generated by IcoMoon.io -->
<svg version="1.1" xmlns="http://www.w3.org/2000/svg" width="32" height="32" viewBox="0 0 32 32">
<title>horizontal-waterfall-chart</title>
<path d="M31 2h-26c-0.552 0-1 0.448-1 1v3c0 0.552 0.448 1 1 1h26c0.552 0 1-0.448 1-1v-3c0-0.552-0.448-1-1-1zM31 10h-8c-0.552 0-1 0.448-1 1v3c0 0.552 0.448 1 1 1h8c0.552 0 1-0.448 1-1v-3c0-0.552-0.448-1-1-1zM11 25h-6c-0.552 0-1 0.448-1 1v3c0 0.552 0.448 1 1 1h6c0.552 0 1-0.448 1-1v-3c0-0.552-0.448-1-1-1zM21 17.5h-8c-0.552 0-1 0.448-1 1v3c0 0.552 0.448 1 1 1h8c0.552 0 1-0.448 1-1v-3c0-0.552-0.448-1-1-1zM1.125 0h-0.25c-0.483 0-0.875 0.392-0.875 0.875v30.25c0 0.483 0.392 0.875 0.875 0.875h0.25c0.484 0 0.875-0.392 0.875-0.875v-30.25c0-0.483-0.391-0.875-0.875-0.875z"></path>
</svg>
