<!-- Generated by IcoMoon.io -->
<svg version="1.1" xmlns="http://www.w3.org/2000/svg" width="32" height="32" viewBox="0 0 32 32">
<title>horizontal-scroll</title>
<path d="M25.38 11.031c-0.076-0.040-1.357-0.835-2.198-1.357-0.095-0.061-0.204-0.066-0.294-0.017s-0.144 0.094-0.144 0.207l0.001 0.636h-4.745v-0.574c0-0.114-0.082-0.217-0.174-0.268-0.084-0.047-0.195-0.044-0.291 0.011-0.833 0.52-2.11 1.309-2.192 1.351-0.184 0.085-0.2 0.382-0.013 0.482 0.075 0.040 1.356 0.834 2.196 1.357 0.095 0.060 0.223 0.066 0.312 0.017 0.090-0.051 0.163-0.146 0.163-0.259v-0.616h4.5v0.607c0 0.114 0.186 0.216 0.277 0.268 0.084 0.047 0.247 0.044 0.343-0.011 0.833-0.52 2.135-1.309 2.218-1.351 0.184-0.085 0.229-0.382 0.042-0.48zM21.181 18.602c-0.262 0-0.681 0.078-0.681 0.225v0.948c0 0.289-0.212 0.524-0.5 0.524s-0.5-0.235-0.5-0.524v-1.081c-0.5-0.567-0.673-0.977-1.258-0.977-0.257 0-0.742 0.079-0.742 0.224v1.834c0 0.289-0.212 0.524-0.5 0.524s-0.5-0.235-0.5-0.524v-2.067c-0.5-0.567-0.672-0.977-1.257-0.977-0.261 0-0.743 0.077-0.743 0.224v2.819c0 0.289-0.212 0.524-0.5 0.524s-0.5-0.235-0.5-0.524v-8.117c0-0.567-0.649-0.976-1.233-0.976-0.698 0-1.267 0.569-1.267 1.267v8.052h-0.363c-1.486 0-1.637 0.622-1.637 2.055v4.688c0 0.291 0.038 0.571 0.223 0.811l-0.002 0.046c0.099 0.157 1.434 1.843 2.304 2.864l-0.025 0.070v0.092c0 0.913 0.463 1.375 1.102 1.375h7.607c0.638 0 0.791-0.463 0.791-1.375v-0.067l0.119-0.058c0.336-0.573 1.247-2.197 1.247-2.813l0.020-8.008c-0.094-0.624-0.579-1.077-1.206-1.077z"></path>
</svg>
