<!-- Generated by IcoMoon.io -->
<svg version="1.1" xmlns="http://www.w3.org/2000/svg" width="32" height="32" viewBox="0 0 32 32">
<title>Hospital-bed</title>
<path d="M29.81 9.829h-0.692v-0.237c0-1.446-1.177-2.622-2.622-2.622h-16.29c-1.447 0-2.623 1.177-2.623 2.622v0.237h-0.164l-4.159-2.323c-1.056-0.591-2.39-0.213-2.98 0.844s-0.212 2.39 0.844 2.981l4.657 2.601c0.324 0.181 0.673 0.261 1.021 0.268 0.036 0.002 0.069 0.011 0.106 0.011h2.385l6.686 3.537-3.689 1.951c-0.576-0.61-1.391-0.994-2.297-0.994-1.746 0-3.162 1.416-3.162 3.163s1.416 3.163 3.162 3.163 3.162-1.416 3.162-3.163c0-0.264-0.036-0.518-0.097-0.762l4.634-2.451 4.634 2.451c-0.061 0.245-0.096 0.5-0.096 0.763 0 1.747 1.416 3.163 3.163 3.163s3.163-1.416 3.163-3.163-1.416-3.163-3.163-3.163c-0.906 0-1.721 0.384-2.297 0.993l-3.689-1.951 6.685-3.536h3.72c1.209 0 2.19-0.98 2.19-2.191s-0.98-2.191-2.19-2.191zM9.99 23.142c-0.704 0-1.275-0.571-1.275-1.276s0.572-1.276 1.276-1.276 1.276 0.571 1.276 1.276-0.571 1.276-1.276 1.276zM25.39 20.592c0.704 0 1.276 0.571 1.276 1.276s-0.572 1.276-1.276 1.276c-0.704 0-1.276-0.571-1.276-1.276s0.571-1.276 1.276-1.276zM17.689 16.84l-4.973-2.63h9.946l-4.973 2.63zM27.575 9.829h-18.45v-0.237c0-0.595 0.485-1.079 1.080-1.079h16.29c0.596 0 1.080 0.485 1.080 1.079v0.237z"></path>
</svg>
