<!-- Generated by IcoMoon.io -->
<svg version="1.1" xmlns="http://www.w3.org/2000/svg" width="32" height="32" viewBox="0 0 32 32">
<title>hospital</title>
<path d="M30.5 28.5v-14.799c0-0.569-0.334-1.201-0.902-1.201h-4.098v16h-2v-24.402c0-0.569-0.232-1.098-0.8-1.098h-13.44c-0.568 0-1.261 0.529-1.261 1.098v24.402h-1.5v-16h-4.136c-0.569 0-0.864 0.633-0.864 1.201v14.799h-1.5v1.5h32v-1.5h-1.5zM13 6h5.5v5.5h-5.5v-5.5zM17 16.454c0 0.302-0.244 0.546-0.546 0.546h-1.409c-0.302 0-0.546-0.244-0.546-0.546v-1.408c0-0.302 0.244-0.546 0.546-0.546h1.409c0.302 0 0.546 0.245 0.546 0.546v1.408zM17 20.954c0 0.302-0.244 0.546-0.546 0.546h-1.409c-0.302 0-0.546-0.244-0.546-0.546v-1.409c0-0.302 0.244-0.546 0.546-0.546h1.409c0.302 0 0.546 0.244 0.546 0.546v1.409zM13 16.454c0 0.302-0.245 0.546-0.546 0.546h-1.408c-0.302 0-0.546-0.244-0.546-0.546v-1.409c0-0.302 0.245-0.546 0.546-0.546h1.408c0.302 0 0.546 0.244 0.546 0.546v1.409zM13 20.954c0 0.302-0.245 0.546-0.546 0.546h-1.408c-0.302 0-0.546-0.244-0.546-0.546v-1.408c0-0.302 0.245-0.546 0.546-0.546h1.408c0.302 0 0.546 0.244 0.546 0.546v1.408zM19 28.5h-6v-3.172c0-0.219 0.156-0.328 0.376-0.328h5.209c0.219 0 0.415 0.109 0.415 0.328v3.172zM21 20.954c0 0.302-0.244 0.546-0.546 0.546h-1.409c-0.302 0-0.546-0.244-0.546-0.546v-1.408c0-0.302 0.244-0.546 0.546-0.546h1.409c0.302 0 0.546 0.244 0.546 0.546v1.408zM21 16.454c0 0.302-0.244 0.546-0.546 0.546h-1.409c-0.302 0-0.546-0.244-0.546-0.546v-1.408c0-0.302 0.244-0.546 0.546-0.546h1.409c0.302 0 0.546 0.245 0.546 0.546v1.408zM16.5 6.5h-1.5v1.5h-1.5v1.5h1.5v1.5h1.5v-1.5h1.5v-1.5h-1.5z"></path>
</svg>
