<!-- Generated by IcoMoon.io -->
<svg version="1.1" xmlns="http://www.w3.org/2000/svg" width="32" height="32" viewBox="0 0 32 32">
<title>hotdog</title>
<path d="M31.15 6.95c-0.8-1.4-2.4-2.050-3.75-1.85-0.2-0.35-0.45-0.65-0.75-0.9-1.4-1.2-3.4-1.4-5.15-0.55-0.45 0.2-0.8 0.45-1.2 0.75-4.25 3.75-9.55 6.25-15.1 7.2-0.45 0.1-0.9 0.2-1.35 0.45-1.75 0.85-2.85 2.55-2.8 4.35 0 0.35 0.1 0.75 0.2 1.1-0.95 0.8-1.45 2.2-1.050 3.8 0.4 1.65 2.3 3.25 4.45 2.85 0 0.050 0 0.050 0 0.1 0.1 1.3 0.8 2.55 1.9 3.45 1.15 0.95 2.65 1.35 4.1 1.2 3.7-0.45 7.25-1.45 10.55-3.050s6.35-3.7 9-6.3c1.050-1 1.65-2.45 1.65-3.95 0-1.35-0.5-2.65-1.4-3.55 1.6-1.5 1.5-3.6 0.7-5.1zM29.95 15.55c0 0.95-0.4 1.9-1.050 2.55-2.5 2.45-5.35 4.45-8.5 5.95s-6.45 2.45-9.95 2.85c-0.95 0.1-1.9-0.15-2.65-0.8-0.7-0.55-1.15-1.35-1.2-2.1-0.1-1.25 0.5-2.4 1.55-2.95 0.25-0.1 0.55-0.2 0.8-0.25 3.050-0.35 5.95-1.2 8.7-2.5s5.2-3.050 7.4-5.2c0.2-0.2 0.45-0.35 0.7-0.5 1.050-0.5 2.35-0.25 3.25 0.6 0.65 0.65 0.95 1.45 0.95 2.35zM5.7 18.4c-0.1-0.3 0.050-0.65 0.35-0.8 0.1-0.050 0.15-0.050 0.25-0.050 0.5 0 0.95 0.1 1.3 0.2 0.5 0.15 0.9 0.25 1.6 0 0.050-0.050 0.15-0.050 0.2-0.1 0.5-0.25 0.7-0.55 1-0.95 0.3-0.5 0.65-1.050 1.55-1.45 0.050-0.050 0.1-0.050 0.2-0.1 1-0.45 1.7-0.3 2.3-0.2 0.55 0.1 0.9 0.2 1.6-0.15 0.65-0.3 0.85-0.65 1.1-1.15 0.3-0.55 0.6-1.2 1.6-1.7 0.050-0.050 0.15-0.050 0.2-0.1 0.85-0.4 1.55-0.35 2.1-0.3 0.45 0.050 0.85 0.1 1.35-0.15 0.050-0.050 0.15-0.050 0.2-0.1 0.65-0.35 0.8-0.75 1-1.25 0.15-0.35 0.3-0.75 0.65-1.15 0.050-0.050 0.15-0.1 0.2-0.15 0.3-0.15 0.65-0.050 0.85 0.25 0.15 0.25 0.15 0.55-0.050 0.8s-0.3 0.5-0.4 0.75c-0.25 0.6-0.55 1.25-1.55 1.85-0.1 0.050-0.2 0.1-0.3 0.15-0.85 0.4-1.5 0.35-2.1 0.3-0.5-0.050-0.85-0.1-1.4 0.15-0.050 0-0.1 0.050-0.1 0.050-0.65 0.35-0.8 0.65-1.050 1.15-0.35 0.65-0.7 1.3-1.75 1.8s-1.8 0.35-2.4 0.25c-0.55-0.1-0.9-0.2-1.55 0.1-0.050 0-0.1 0.050-0.15 0.050-0.55 0.25-0.75 0.6-1 1-0.3 0.5-0.65 1.050-1.55 1.45-0.1 0.050-0.2 0.1-0.3 0.15-1.1 0.4-1.8 0.2-2.45 0.050-0.3-0.1-0.55-0.15-0.85-0.15-0.3-0.050-0.55-0.2-0.65-0.5zM2.9 16.75c-0.050-0.15-0.050-0.25-0.050-0.4-0.050-1.1 0.65-2.15 1.8-2.7 0.3-0.15 0.6-0.25 0.85-0.3 5.9-1 11.5-3.65 16-7.65 0.25-0.2 0.5-0.35 0.75-0.5 1.1-0.55 2.4-0.4 3.2 0.3 0.1 0.1 0.2 0.2 0.25 0.3-6.6 5.4-14.4 9.15-22.8 10.95z"></path>
</svg>
