<!-- Generated by IcoMoon.io -->
<svg version="1.1" xmlns="http://www.w3.org/2000/svg" width="32" height="32" viewBox="0 0 32 32">
<title>hotel</title>
<path d="M25.1 2h-18.046c-0.624 0-1.054 0.49-1.054 1.115v26.886h7v-4.076c0-0.241-0.024-0.424 0.218-0.424h5.718c0.241 0 0.564 0.183 0.564 0.424v4.076h6.5v-26.886c0-0.625-0.276-1.115-0.9-1.115zM11.5 20.577c0 0.233-0.19 0.423-0.423 0.423h-1.655c-0.233 0-0.422-0.189-0.422-0.423v-1.654c0-0.233 0.19-0.422 0.423-0.422h1.655c0.233 0 0.422 0.189 0.422 0.423v1.654zM11.5 16.578c0 0.233-0.19 0.422-0.423 0.422h-1.655c-0.233 0-0.422-0.189-0.422-0.422v-1.655c0-0.232 0.19-0.422 0.423-0.422h1.655c0.233 0 0.422 0.19 0.422 0.422v1.655zM11.5 12.577c0 0.233-0.19 0.423-0.423 0.423h-1.655c-0.233 0-0.422-0.19-0.422-0.423v-1.655c0-0.233 0.19-0.422 0.423-0.422h1.655c0.233 0 0.422 0.19 0.422 0.423v1.654zM11.5 8.577c0 0.233-0.19 0.423-0.423 0.423h-1.655c-0.233 0-0.422-0.19-0.422-0.423v-1.655c0-0.233 0.19-0.423 0.423-0.423h1.655c0.233 0 0.422 0.189 0.422 0.423v1.654zM15.5 20.577c0 0.233-0.189 0.423-0.422 0.423h-1.655c-0.233 0-0.422-0.189-0.422-0.423v-1.654c0-0.233 0.189-0.422 0.422-0.422h1.655c0.233 0 0.422 0.189 0.422 0.423v1.654zM15.5 16.578c0 0.233-0.189 0.422-0.422 0.422h-1.655c-0.233 0-0.422-0.189-0.422-0.422v-1.655c0-0.232 0.189-0.422 0.422-0.422h1.655c0.233 0 0.422 0.19 0.422 0.422v1.655zM15.5 12.577c0 0.233-0.189 0.423-0.422 0.423h-1.655c-0.233 0-0.422-0.19-0.422-0.423v-1.655c0-0.233 0.189-0.422 0.422-0.422h1.655c0.233 0 0.422 0.19 0.422 0.423v1.654zM15.5 8.577c0 0.233-0.189 0.423-0.422 0.423h-1.655c-0.233 0-0.422-0.19-0.422-0.423v-1.655c0-0.233 0.189-0.423 0.422-0.423h1.655c0.233 0 0.422 0.189 0.422 0.423v1.654zM19.5 20.577c0 0.233-0.189 0.423-0.423 0.423h-1.654c-0.233 0-0.422-0.189-0.422-0.423v-1.654c0-0.233 0.189-0.422 0.423-0.422h1.654c0.233 0 0.422 0.189 0.422 0.423v1.654zM19.5 16.578c0 0.233-0.189 0.422-0.423 0.422h-1.654c-0.233 0-0.422-0.189-0.422-0.422v-1.655c0-0.232 0.189-0.422 0.423-0.422h1.654c0.233 0 0.422 0.19 0.422 0.422v1.655zM19.5 12.577c0 0.233-0.189 0.423-0.423 0.423h-1.654c-0.233 0-0.422-0.19-0.422-0.423v-1.655c0-0.233 0.189-0.422 0.423-0.422h1.654c0.233 0 0.422 0.19 0.422 0.423v1.654zM19.5 8.577c0 0.233-0.189 0.423-0.423 0.423h-1.654c-0.233 0-0.422-0.19-0.422-0.423v-1.655c0-0.233 0.189-0.423 0.423-0.423h1.654c0.233 0 0.422 0.189 0.422 0.423v1.654zM23.5 20.577c0 0.233-0.189 0.423-0.423 0.423h-1.654c-0.233 0-0.422-0.189-0.422-0.423v-1.654c0-0.233 0.189-0.422 0.423-0.422h1.654c0.233 0 0.422 0.189 0.422 0.423v1.654zM23.5 16.578c0 0.233-0.189 0.422-0.423 0.422h-1.654c-0.233 0-0.422-0.189-0.422-0.422v-1.655c0-0.232 0.189-0.422 0.423-0.422h1.654c0.233 0 0.422 0.19 0.422 0.422v1.655zM23.5 12.577c0 0.233-0.189 0.423-0.423 0.423h-1.654c-0.233 0-0.422-0.19-0.422-0.423v-1.655c0-0.233 0.189-0.422 0.423-0.422h1.654c0.233 0 0.422 0.19 0.422 0.423v1.654zM23.5 8.577c0 0.233-0.189 0.423-0.423 0.423h-1.654c-0.233 0-0.422-0.19-0.422-0.423v-1.655c0-0.233 0.189-0.423 0.423-0.423h1.654c0.233 0 0.422 0.189 0.422 0.423v1.654zM31.023 5.5h-3.023v24.5h4v-23.592c0-0.624-0.352-0.908-0.977-0.908zM0 6.408v23.592h4v-24.5h-2.87c-0.624 0-1.13 0.284-1.13 0.908z"></path>
</svg>
