<!-- Generated by IcoMoon.io -->
<svg version="1.1" xmlns="http://www.w3.org/2000/svg" width="32" height="32" viewBox="0 0 32 32">
<title>Human-feet-shape</title>
<path d="M19.522 5.079c0.711 0.306 1.691-0.266 2.186-1.275 0.497-1.010 0.326-2.079-0.384-2.384-0.712-0.306-1.69 0.265-2.187 1.276s-0.326 2.078 0.385 2.383zM16.657 4.404c0.549 0.237 1.306-0.205 1.692-0.986 0.386-0.783 0.253-1.609-0.297-1.847-0.55-0.236-1.308 0.206-1.692 0.988s-0.253 1.607 0.296 1.844zM22.782 6.827c0.96 0.412 2.28-0.359 2.951-1.722 0.672-1.363 0.439-2.804-0.519-3.216s-2.279 0.358-2.95 1.721c-0.671 1.362-0.439 2.804 0.518 3.217zM31.309 4.723c-1.113-1.037-3.178-0.649-4.61 0.869-1.436 1.516-1.696 3.586-0.582 4.624s3.177 0.649 4.611-0.868c1.434-1.517 1.694-3.588 0.581-4.625zM13.976 4.197c0.481 0.207 1.146-0.179 1.482-0.865s0.221-1.411-0.261-1.617c-0.48-0.208-1.145 0.18-1.482 0.865s-0.22 1.409 0.261 1.617zM22.337 7.956c-5.065-3.518-11.743-2.814-14.12 3.011-1.502 3.684-3.828 7.614-6.357 10.761-5.67 7.057 2.97 13.49 7.984 4.604 1.355-2.4 2.738-4.898 4.597-5.971 2.893-1.667 4.692-1.79 8.313-3.47 4.808-2.233 3.334-6.333-0.417-8.935z"></path>
</svg>
