<!-- Generated by IcoMoon.io -->
<svg version="1.1" xmlns="http://www.w3.org/2000/svg" width="32" height="32" viewBox="0 0 32 32">
<title>humidity</title>
<path d="M16.011 0.883c0 0-11.008 13.156-11.018 19.227-0.004 6.070 4.914 10.996 10.985 11.007 6.068 0.006 10.997-4.907 11.006-10.98 0.009-6.075-10.973-19.253-10.973-19.253zM20.8 23.75c-0.956 0-1.814-0.424-2.399-1.090-0.587 0.667-1.445 1.090-2.401 1.090s-1.813-0.424-2.401-1.090c-0.586 0.667-1.444 1.090-2.399 1.090-1.764 0-3.2-1.436-3.2-3.2 0-0.442 0.358-0.8 0.8-0.8s0.8 0.358 0.8 0.8c0 0.883 0.719 1.6 1.601 1.6s1.6-0.718 1.6-1.6c0-0.442 0.358-0.8 0.8-0.8s0.801 0.358 0.801 0.8c0 0.883 0.717 1.6 1.6 1.6s1.599-0.718 1.599-1.6c0-0.442 0.359-0.8 0.801-0.8s0.8 0.358 0.8 0.8c0 0.883 0.718 1.6 1.599 1.6s1.601-0.718 1.601-1.6c0-0.442 0.358-0.8 0.8-0.8s0.8 0.358 0.8 0.8c-0.001 1.765-1.436 3.2-3.201 3.2z"></path>
</svg>
