<!-- Generated by IcoMoon.io -->
<svg version="1.1" xmlns="http://www.w3.org/2000/svg" width="32" height="32" viewBox="0 0 32 32">
<title>Hurted-finger-with-bandage</title>
<path d="M26.858 11.313c-1.156 0-2.111 0.836-2.306 1.937-0.195-1.1-1.151-1.937-2.306-1.937-1.157 0-2.111 0.837-2.306 1.938-0.195-1.101-1.149-1.938-2.306-1.938-1.093 0-2.002 0.75-2.264 1.761v-9.956c-0.001-1.722-1.398-3.118-3.12-3.118s-3.118 1.396-3.118 3.118v3.447l-1.945-1.591c-0.285-0.234-0.7-0.21-0.957 0.053s-0.269 0.679-0.030 0.958l1.92 2.231-1.678 2.711c-0.194 0.315-0.114 0.726 0.184 0.945 0.126 0.093 0.273 0.137 0.42 0.137 0.199 0 0.398-0.084 0.537-0.245l1.55-1.794v10.869l-2.037-2.034c-0.985-0.983-2.58-0.983-3.564 0.002-0.984 0.986-0.983 2.581 0.002 3.565l6.561 6.552c1.136 1.843 3.165 3.074 5.488 3.074h7.173c3.563 0 6.45-2.887 6.45-6.45v-11.889c0-1.297-1.051-2.348-2.348-2.348zM10.329 3.288c0-1.063 0.861-1.923 1.922-1.923 0.68 0 1.274 0.354 1.615 0.885l-3.537 1.612v-0.575zM14.175 12.346h-3.845v-0.21l3.845-1.752v1.962zM14.175 8.824l-3.845 1.753v-1.797l3.845-1.752v1.797zM14.175 5.467l-3.845 1.753v-1.798l3.845-1.752v1.797z"></path>
</svg>
