<!-- Generated by IcoMoon.io -->
<svg version="1.1" xmlns="http://www.w3.org/2000/svg" width="32" height="32" viewBox="0 0 32 32">
<title>hybrid</title>
<path d="M31.2 17.4c-0.25-0.5-0.8-1.2-1.9-1.5l-2.25-5.5c-0.050-0.15-0.7-1.75-3.3-1.75-0.050 0-0.1 0-0.1 0h-7.5c-2.7-0.050-3.4 1.65-3.45 1.75l-2.25 5.5c-1.1 0.3-1.65 1-1.9 1.5-0.3 0.55-0.3 1.050-0.3 1.1v2c-0.6-0.050-1.15-0.1-1.65-0.2v0l-0.15-0.050c-0.85-0.2-1.25-0.4-1.3-0.4-0.4-0.2-0.7-0.45-1-0.75-0.8-0.85-1.050-2.25-0.8-3.85 0.2 0.1 0.45 0.15 0.65 0.2l0.2 0.050 0.050-0.2c0.3-1.75 1.15-3.35 1.95-4.6-0.9 2-1 3.6-0.85 4.7l0.050 0.2 0.2-0.050c1-0.15 2-0.55 3-1.3v0c0.050-0.050 0.8-0.65 1.6-1.75 0.75-1 1.65-2.6 1.8-4.45 0.15-1.95-0.5-3.8-2.050-5.55v0 0c0 0-0.1-0.1-0.1-0.15-0.15-0.2-0.4-0.45-0.65-0.45-0.4 0-0.45 0.65-0.45 0.9-0.3 1.050-1.45 2.9-4 3.55-0.25 0.050-0.5 0.1-0.75 0.15h-0.050c-0.75 0.25-1.45 0.65-2 1.2-0.8 0.85-1.3 1.95-1.35 3.1-0.050 1.1 0.3 2.2 1 3.1-0.4 1.15-0.55 2.35-0.4 3.5 0.15 1.2 0.65 2.3 1.45 3.15 0.45 0.5 1 0.9 1.6 1.2v0l0.15 0.050c0.55 0.25 1.1 0.4 1.75 0.5 0.65 0.15 1.4 0.2 2.15 0.25v3.45h1.85v2.2c0 1.1 0.9 2 2 2h0.15c1.1 0 2-0.9 2-2v-2.2h11.25v2.2c0 1.1 0.9 2 2 2h0.15c1.1 0 2-0.9 2-2v-2.2h1.85v-7.5c-0.1-0.050-0.1-0.55-0.35-1.1zM13.75 19.9c0 0.85-0.7 1.5-1.5 1.5s-1.5-0.7-1.5-1.5c0-0.85 0.7-1.5 1.5-1.5s1.5 0.65 1.5 1.5zM19.2 19.3h2.35l-3.85 4 1.4-3.7h-1.7l1.5-3.8h-5.9l1.45-3.7c0.45-1.25 2.15-0.95 2.15-0.95v0h6.6c0 0 1.65-0.25 2.15 0.95l1.45 3.7h-5.45l-2.15 3.5zM28.95 19.9c0 0.85-0.7 1.5-1.5 1.5-0.85 0-1.5-0.7-1.5-1.5 0-0.85 0.7-1.5 1.5-1.5 0.85-0.050 1.5 0.65 1.5 1.5z"></path>
</svg>
