<!-- Generated by IcoMoon.io -->
<svg version="1.1" xmlns="http://www.w3.org/2000/svg" width="32" height="32" viewBox="0 0 32 32">
<title>ice-water</title>
<path d="M27 2.050l-5.5-0.6c-0.4-0.050-0.75 0.1-1 0.4-0.1 0.1-0.15 0.2-0.2 0.3l-2.3 5.3h-11c-1.65 0-2.95 1.35-2.95 2.95v6.1c0 1.4 0.5 3 0.5 3s2.4 7.55 2.55 7.95c0.5 1.6 1 3.050 4 3.050h7.85c3.15 0 3.65-1.55 4.15-3.15 0.15-0.4 2.35-7.3 2.5-7.85v0c0.2-0.55 0.5-1.65 0.5-3.050v-6.1c0-1.6-1.3-2.9-2.9-2.9h-2.75l1.65-3.75 4.7 0.55c0.6 0.050 1.15-0.35 1.2-0.95s-0.4-1.15-1-1.25zM7.75 13.45l-0.15 2.25h-1.4v-5.25c0-0.45 0.35-0.8 0.8-0.8h10.050l-1.5 3.35c-0.1-0.35-0.3-0.65-0.55-0.95-0.5-0.55-1.15-0.9-1.9-0.95l-2.45-0.2c-0.050 0-0.15 0-0.2 0v0c-1.4 0-2.6 1.1-2.7 2.55zM10.25 17c-0.5-0.050-0.9-0.5-0.85-1l0.2-2.45c0.050-0.5 0.45-0.85 0.9-0.85 0 0 0.050 0 0.050 0l2.45 0.2c0.5 0.050 0.9 0.5 0.85 1l-0.2 2.45c-0.050 0.5-0.45 0.85-0.9 0.85 0 0-0.050 0-0.050 0l-2.45-0.2zM16.2 21.3l-0.75 2.3c-0.15 0.5-0.65 0.75-1.15 0.6l-2.3-0.7c-0.5-0.15-0.75-0.65-0.6-1.15l0.75-2.3c0.15-0.5 0.65-0.75 1.15-0.6l2.3 0.75c0.5 0.1 0.75 0.6 0.6 1.1zM21.1 17.95l-2 1.4c-0.15 0.1-0.35 0.15-0.55 0.15-0.3 0-0.6-0.15-0.75-0.4l-1.4-2c-0.1-0.15-0.15-0.25-0.15-0.4l0.4-0.85 2-1.4c0.15-0.1 0.35-0.15 0.55-0.15 0.3 0 0.6 0.15 0.75 0.4l1.4 2c0.3 0.4 0.2 0.95-0.25 1.25zM23.15 9.6c0.4 0 0.75 0.35 0.75 0.75v5.35h-1c0-0.050-0.050-0.050-0.050-0.1l-1.4-2c-0.5-0.75-1.35-1.15-2.25-1.15v0c-0.4 0-0.75 0.1-1.1 0.25l1.35-3.1h3.7z"></path>
</svg>
