<!-- Generated by IcoMoon.io -->
<svg version="1.1" xmlns="http://www.w3.org/2000/svg" width="32" height="32" viewBox="0 0 32 32">
<title>icecream</title>
<path d="M15.3 5.7l0.5-0.25c0.85-0.4 1.7-0.6 2.65-0.6 0.7 0 1.4 0.15 2.050 0.35-0.2-2.75-2.5-4.95-5.35-4.95s-5.15 2.25-5.3 5.1c0.75-0.3 1.55-0.5 2.35-0.5 1.15 0 2.2 0.3 3.1 0.85zM25.4 13.35h-0.8c0.1-0.45 0.2-0.95 0.2-1.45 0-3.2-2.6-5.8-5.8-5.8-0.9 0-1.8 0.2-2.55 0.6 1.6 1.2 2.6 3.1 2.6 5.2 0 0.5-0.050 1-0.15 1.45h-1.5c0.1-0.45 0.2-0.95 0.2-1.45 0-3.2-2.6-5.8-5.8-5.8s-5.8 2.6-5.8 5.8c0 0.5 0.050 1 0.2 1.45h-0.2c-0.65 0-1.15 0.5-1.15 1.15s0.5 1.15 1.15 1.15h19.4c0.65 0 1.15-0.5 1.15-1.15 0.050-0.6-0.5-1.15-1.15-1.15zM8.25 10.050c0 0 0 0 0 0 0-0.050 0.050-0.1 0.050-0.1 0.55-0.9 1.3-1.6 2.25-2.050 0.050-0.050 0.15-0.050 0.25-0.050 0.25 0 0.45 0.2 0.45 0.45 0 0.2-0.15 0.4-0.3 0.45-0.75 0.35-1.4 0.9-1.85 1.65 0 0.050-0.050 0.050-0.050 0.1v0 0c-0.1 0.1-0.2 0.2-0.4 0.2-0.25 0-0.45-0.2-0.45-0.45 0-0.050 0.050-0.15 0.050-0.2 0 0 0 0 0 0zM9.050 16.95h-2.050l0.95 1.85 5.95 11.45c0.4 0.8 1.25 1.25 2.15 1.25 0.95 0 1.75-0.5 2.15-1.25l5.95-11.45 0.95-1.85h-16.050zM15.1 29.8c0.25 0.3 0.6 0.45 0.95 0.45 0 0 0 0 0 0-0.35 0-0.7-0.15-0.95-0.45zM17.6 28.7l-1.6-1.050-1.5 1.050-0.35-0.65 1.2-0.8-2.15-1.45-0.2 0.1-0.9-1.75 1.1 0.75 2.15-1.45-2.15-1.45-1.65 1.1-0.35-0.65 1.35-0.9-2.8-2.050-0.7-1.3h0.050l4.1 2.85 2.15-1.45-2.050-1.4h1.3l1.4 0.95 1.4-0.95h1.3l-2.050 1.4 2.15 1.45 4.25-2.85-0.7 1.35-2.85 1.95 1.4 0.95-0.35 0.65-1.7-1.15-2.15 1.45 2.15 1.45 1.2-0.85-1 1.9-0.25-0.15-2.15 1.45 1.25 0.85-0.3 0.65zM18.2 21.85l-2.15-1.45-2.15 1.45 2.15 1.5zM16.050 24.2l-2.15 1.45 2.15 1.5 2.15-1.5z"></path>
</svg>
