<!-- Generated by IcoMoon.io -->
<svg version="1.1" xmlns="http://www.w3.org/2000/svg" width="32" height="32" viewBox="0 0 32 32">
<title>id-card</title>
<path d="M25 0h-7v1c0 0.552-0.448 1-1 1h-1.5c-0.552 0-1-0.448-1-1v-1h-7.5c-1.104 0-2 0.895-2 2v28c0 1.105 0.796 2 1.901 2h18.099c1.105 0 2-0.895 2-2v-28c0-1.105-0.895-2-2-2zM17 29h-7c-0.552 0-1-0.448-1-1s0.448-1 1-1h7c0.552 0 1 0.448 1 1s-0.448 1-1 1zM22 29h-1c-0.552 0-1-0.448-1-1s0.448-1 1-1h1c0.552 0 1 0.448 1 1s-0.448 1-1 1zM16.335 24.72c-7.16 0-7.335 0.468-7.335-2.002 0-3.954 3.207-7.16 7.16-7.16s7.16 3.206 7.16 7.16c0 2.471 0.212 2.002-6.984 2.002zM12.511 10.65c0-2.016 1.633-3.65 3.649-3.65s3.65 1.634 3.65 3.65-1.634 3.65-3.65 3.65c-2.016 0-3.649-1.634-3.649-3.65zM25 5h-18v-0.599c0-0.884 0.017-1.401 0.901-1.401h16.199c0.884 0 0.901 0.617 0.901 1.5v0.5z"></path>
</svg>
