<!-- Generated by IcoMoon.io -->
<svg version="1.1" xmlns="http://www.w3.org/2000/svg" width="32" height="32" viewBox="0 0 32 32">
<title>inbox</title>
<path d="M31.877 18.778l-5.377-14.713c0-0.552-0.448-1.066-1-1.066h-19c-0.552 0-1 0.514-1 1.066l-5.377 14.679c-0.076 0.141-0.123 0.333-0.123 0.505v8.5c0 0.552 0.448 1.25 1 1.25h30c0.552 0 1-0.698 1-1.25v-8.5c0-0.172-0.047-0.331-0.123-0.472zM29.2 18h-7.955c-0.204 0-0.391 0.087-0.486 0.268l-1.347 2.59-0.106 0.267c-0.065 0.108-0.132 0.375-0.177 0.375-0.037 0-0.078 0-0.13 0h-6c-0.051 0-0.093 0-0.13 0-0.044 0-0.111-0.349-0.177-0.456l-1.454-2.713c-0.095-0.18-0.281-0.331-0.486-0.331h-7.955c-0.111 0-0.29-0.049-0.324-0.195l4.816-12.306c0.012-0.046 0.018-0.191 0.018-0.237 0-0.041 0-0.263 0.33-0.263h16.72c0.331 0 0.331 0.165 0.331 0.206 0 0.048 0.006 0.103 0.018 0.149l4.816 12.434c-0.034 0.146-0.213 0.211-0.325 0.211z"></path>
</svg>
