<!-- Generated by IcoMoon.io -->
<svg version="1.1" xmlns="http://www.w3.org/2000/svg" width="32" height="32" viewBox="0 0 32 32">
<title>info</title>
<path d="M9.386 31.654v-1.599c3.24-0.381 3.65-0.584 3.65-3.86v-9.573c0-3.072-0.292-3.174-3.271-3.58v-1.524c3.212-0.355 6.394-0.965 9.139-1.803v16.478c0 3.224 0.292 3.479 3.708 3.86v1.599h-13.226zM12.044 3.47c0-1.778 1.664-3.123 3.562-3.123 1.986 0 3.475 1.345 3.475 3.123 0 1.599-1.489 3.021-3.533 3.021-1.839 0-3.504-1.421-3.504-3.022z"></path>
</svg>
