<!-- Generated by IcoMoon.io -->
<svg version="1.1" xmlns="http://www.w3.org/2000/svg" width="32" height="32" viewBox="0 0 32 32">
<title>info-circle</title>
<path d="M16 1c-8.284 0-15 6.716-15 15s6.715 15 15 15 15-6.716 15-15-6.715-15-15-15zM15.717 4.779c1.423 0 2.49 0.965 2.49 2.239 0 1.147-1.067 2.167-2.533 2.167-1.319 0-2.512-1.019-2.512-2.167 0-1.274 1.193-2.239 2.554-2.239zM20.5 27.5h-9v-1.425c2-0.273 2-0.419 2-2.766v-6.862c0-2.203 0-2.276-2-2.566v-1.092c2-0.255 4.5-0.693 6.5-1.293v11.814c0 2.311 0.5 2.494 2.5 2.766v1.425z"></path>
</svg>
