<!-- Generated by IcoMoon.io -->
<svg version="1.1" xmlns="http://www.w3.org/2000/svg" width="32" height="32" viewBox="0 0 32 32">
<title>iron</title>
<path d="M26.5 22h-26c-0.277 0-0.5 0.224-0.5 0.5s0.224 0.5 0.5 0.5h26c0.276 0 0.5-0.224 0.5-0.5s-0.224-0.5-0.5-0.5zM18.215 14.552c-1.626 0-2.944 0.794-2.944 1.774s1.317 0.323 2.944 0.323c1.625 0 2.944 0.657 2.944-0.323s-1.318-1.774-2.944-1.774zM25.5 7h4.5c0.276 0 0.5-0.223 0.5-0.5s-0.224-0.5-0.5-0.5h-4.5c-0.276 0-0.5 0.223-0.5 0.5s0.224 0.5 0.5 0.5zM31.029 8.5h-0.029v-0.144c0-0.599-0.57-0.856-1.169-0.856h-7.051c-0.567 0-0.971 0-1.084 0-9.611 0-15.864 3.5-21.125 14h26.28c0 0 0.082-0.094 0.082-0.11 0-1.716 1.068-3.172 3.068-3.222v-0.050c0.5 0 1-0.486 1-1.085v-4.534h0.029c0.536 0 0.971-0.435 0.971-0.972v-2.056c0-0.537-0.435-0.972-0.971-0.972zM4.746 19.655c-0.349 0-0.633-0.284-0.633-0.633s0.283-0.633 0.633-0.633c0.348 0 0.633 0.284 0.633 0.633s-0.284 0.633-0.633 0.633zM7.457 19.655c-0.349 0-0.633-0.284-0.633-0.633s0.283-0.633 0.633-0.633 0.633 0.284 0.633 0.633-0.284 0.633-0.633 0.633zM10.169 19.655c-0.349 0-0.633-0.284-0.633-0.633s0.283-0.633 0.633-0.633 0.633 0.284 0.633 0.633-0.284 0.633-0.633 0.633zM26.034 15.636c-0.452 0.633-1.311 0.864-1.628 0.864-0.086 0-1.032 0-2.36 0 0.080 0 0.128 0.382 0.128 0.587 0 1.317-1.773 0.509-3.959 0.509s-3.959 0.81-3.959-0.508c0-0.204 0.047-0.588 0.127-0.588-1.28 0-2.158 0-2.158 0s-2.214 0.311-1.288-1.744c0 0 2.125-3.28 6.283-4.003s6.915-0.815 6.915-0.815 1.898-0.090 2.169 0.905c0.271 0.995 0.181 4.161-0.271 4.792z"></path>
</svg>
