<!-- Generated by IcoMoon.io -->
<svg version="1.1" xmlns="http://www.w3.org/2000/svg" width="32" height="32" viewBox="0 0 32 32">
<title>islamic-cemetery</title>
<path d="M31.531 2h-31.131c-0.221 0-0.4 0.179-0.4 0.4v2c0 0.22 0.179 0.601 0.4 0.601h0.601v9.157l1 1.771v14.072h7.5v-1.5h13v1.5h7.5v-14.086l1-1.757v-9.157h0.531c0.221 0 0.469-0.38 0.469-0.601v-2c0-0.22-0.248-0.399-0.469-0.399zM11.5 26h-1.5v-8h1.5v8zM15 26h-1.5v-8h1.5v8zM18.5 26h-1.5v-8h1.5v8zM22 26h-1.5v-8h1.5v8zM22.5 16.5h-12.935c0.048-1 0.387-1.973 1.581-2.614 1.386-0.744 3.675-1.228 4.562-4.247 0 0 0.064-0.318 0.258-0.318s0.258 0.293 0.258 0.293c0.887 3.019 3.175 3.466 4.561 4.21 1.193 0.64 1.596 1.787 1.645 2.545l0.070-0.224v0.355z"></path>
</svg>
