<!-- Generated by IcoMoon.io -->
<svg version="1.1" xmlns="http://www.w3.org/2000/svg" width="32" height="32" viewBox="0 0 32 32">
<title>Jogging</title>
<path d="M23.666 4c0 2.025-1.642 3.667-3.666 3.667s-3.666-1.642-3.666-3.667c0-2.025 1.642-3.667 3.666-3.667s3.666 1.642 3.666 3.667zM30.387 8.982c-0.832-0.491-1.905-0.222-2.395 0.611-0.776 1.319-1.992 2.907-3.38 2.907-0.014 0-0.026 0-0.040 0-1.698 0-3.479-2.15-3.97-2.912-0.247-0.389-0.637-0.644-1.085-0.747-3.672-0.843-6.459-0.453-8.284 1.158-2.231 1.97-2.006 4.856-1.973 5.178 0.092 0.901 0.853 1.572 1.739 1.572 0.059 0 0.12-0.003 0.18-0.009 0.961-0.098 1.662-0.957 1.563-1.918-0.002-0.014-0.098-1.399 0.809-2.2 0.684-0.604 1.912-0.821 3.524-0.65-0.393 1.835-1.594 5.562-5.102 8.114-4.101 2.983-6.936 0.463-7.233 0.177-0.683-0.683-1.792-0.683-2.475 0s-0.683 1.791 0 2.475c1.047 1.047 3.154 2.287 5.815 2.287 1.786 0 3.821-0.558 5.953-2.108 0.364-0.265 0.708-0.54 1.034-0.822 0.232 0.148 0.497 0.25 0.79 0.276 1.309 0.111 2.823 0.469 3.422 0.79-0.184 0.88-1.17 2.937-2.256 4.657-0.34 0.54-0.36 1.221-0.052 1.779s0.893 0.905 1.531 0.905h3.5c0.966 0 1.75-0.784 1.75-1.75s-0.784-1.75-1.75-1.75h-0.491c0.936-1.875 1.572-3.791 1.151-5.053-0.583-1.75-2.907-2.521-4.905-2.862 1.183-1.714 1.905-3.448 2.34-4.858 1.19 0.98 2.753 1.837 4.572 1.811 2.417-0.041 4.551-1.61 6.342-4.654 0.489-0.833 0.212-1.911-0.622-2.401z"></path>
</svg>
