<!-- Generated by IcoMoon.io -->
<svg version="1.1" xmlns="http://www.w3.org/2000/svg" width="32" height="32" viewBox="0 0 32 32">
<title>Judo</title>
<path d="M15.836 6.849c0 1.796-1.456 3.252-3.252 3.252s-3.252-1.456-3.252-3.252c0-1.796 1.456-3.252 3.252-3.252s3.252 1.456 3.252 3.252zM18.666 21.151c0 1.796-1.456 3.252-3.252 3.252s-3.252-1.456-3.252-3.252c0-1.796 1.456-3.252 3.252-3.252s3.252 1.456 3.252 3.252zM19.49 15.083c-0.107-0.173-2.656-4.238-6.939-4.391-3.122-0.107-6.133 1.836-8.972 5.787-0.376 0.523-0.429 1.218-0.148 1.796 0.115 0.234 2.729 5.768-2.463 9.563-0.612 0.447-0.866 1.236-0.631 1.956 0.236 0.72 0.907 1.206 1.664 1.206h2.5c0.966 0 1.75-0.784 1.75-1.75 0-0.491-0.202-0.934-0.527-1.252 1.651-2.284 2.086-4.786 1.949-6.962 0.333 0.387 0.614 0.834 0.777 1.345 0.425 1.338-0.038 2.973-1.375 4.857-0.379 0.534-0.428 1.235-0.128 1.816s0.9 0.947 1.555 0.947h2.5c0.966 0 1.75-0.784 1.75-1.75 0-0.813-0.553-1.496-1.305-1.693 0.747-1.835 0.863-3.588 0.339-5.236-0.724-2.282-2.527-3.754-3.915-4.591 1.303-1.412 2.896-2.598 4.539-2.541 2.4 0.074 4.082 2.698 4.104 2.735 0.509 0.818 1.584 1.071 2.404 0.567 0.823-0.506 1.079-1.584 0.573-2.407zM31.566 4.218c-0.431-0.864-1.482-1.216-2.348-0.782-2.915 1.457-4.566 3.521-5.431 5.621-0.139-1.846 0.23-3.944 1.666-6.080 0.54-0.802 0.326-1.889-0.476-2.429s-1.889-0.327-2.428 0.476c-3.971 5.907-2.003 11.988 0.149 15.305l-2.934 2.934c-0.683 0.683-0.683 1.791 0 2.475 0.341 0.341 0.788 0.512 1.236 0.512s0.895-0.171 1.238-0.512l4-4c0.468-0.468 0.613-1.137 0.436-1.734 0.094-0.31 0.105-0.649 0.010-0.984-0.066-0.229-1.536-5.636 4.1-8.454 0.864-0.433 1.215-1.484 0.782-2.348z"></path>
</svg>
