<!-- Generated by IcoMoon.io -->
<svg version="1.1" xmlns="http://www.w3.org/2000/svg" width="32" height="32" viewBox="0 0 32 32">
<title>juicer</title>
<path d="M4.25 8h15.5c0.414 0 0.75-0.336 0.75-0.75s-0.336-0.75-0.75-0.75h-1.75v-3.5c0-0.552-0.448-1-1-1h-2c-0.552 0-1 0.448-1 1v3.5h-9.75c-0.414 0-0.75 0.336-0.75 0.75s0.336 0.75 0.75 0.75zM14.167 1.5h3.666c0.368 0 0.667-0.299 0.667-0.667v-0.166c0-0.368-0.299-0.667-0.667-0.667h-3.666c-0.368 0-0.667 0.299-0.667 0.667v0.166c0 0.368 0.299 0.667 0.667 0.667zM2.5 10.5v18c0 1.105 0.896 2 2 2h0.171c0.022 0.602 0.513 1.084 1.121 1.084s1.098-0.482 1.12-1.084h0.588v-22h-3c-1.104 0-2 0.896-2 2zM24.77 14.5c0.404 0 0.73-0.326 0.73-0.729v-0.041c0-0.403-0.326-0.729-0.73-0.729h-0.287c-0.081-0.565-0.563-1-1.151-1h-1.833v-1.5c0-1.104-0.895-2-2-2h-6l0.008 6.157c-0.055 1.066-0.905 1.914-1.985 1.914-1.116 0-2.021-0.905-2.021-2.021 0-0.14-0.002-6.050-0.002-6.050h-1.5v22h9.171c0.023 0.602 0.514 1.084 1.121 1.084s1.098-0.482 1.12-1.084h0.087c1.105 0 2-0.895 2-2v-14h3.271zM11.479 22.916c-1.116 0-2.021-0.905-2.021-2.021s0.905-2.020 2.021-2.020c1.116 0 2.021 0.905 2.021 2.020s-0.905 2.021-2.021 2.021zM12.893 14.396c0 0.781-0.633 1.415-1.415 1.415s-1.415-0.633-1.415-1.415c0-0.781 0.633-1.415 1.415-1.415s1.415 0.633 1.415 1.415zM30 15.5h-6.5c-0.552 0-1 0.448-1 1l1 12.5c0 0.552 0.448 1 1 1h4.5c0.552 0 1-0.448 1-1l1-12.5c0-0.552-0.448-1-1-1zM29.833 20.5h-6.166l-0.245-3.297c0-0.442 0.286-0.703 0.729-0.703h5.2c0.442 0 0.736 0.253 0.736 0.695l-0.253 3.305z"></path>
</svg>
