<!-- Generated by IcoMoon.io -->
<svg version="1.1" xmlns="http://www.w3.org/2000/svg" width="32" height="32" viewBox="0 0 32 32">
<title>Jumping-Ski</title>
<path d="M30.759 5c0 2.025-1.642 3.666-3.666 3.666s-3.666-1.642-3.666-3.667c0-2.025 1.642-3.667 3.666-3.667s3.666 1.642 3.666 3.667zM22.829 13.335c0.18 0.361 0.149 0.559 0.122 0.636l-13.005 9.459c4.215-11.356 11.592-13.822 11.898-13.919 0.896-0.272 1.419-1.201 1.186-2.108s-1.134-1.471-2.054-1.279l-11.665 2.442c-0.946 0.198-1.552 1.126-1.354 2.072s1.127 1.553 2.072 1.354l3.242-0.679c-2.402 2.503-4.916 6.141-6.781 11.366-0.325 0.91 0.149 1.912 1.059 2.236 0.086 0.031 0.173 0.052 0.26 0.069l-6.751 4.91 0.882 1.213 22.090-16.076c0.328-0.328 0.726-1.194 0.14-2.366l-1.342 0.671z"></path>
</svg>
