<!-- Generated by IcoMoon.io -->
<svg version="1.1" xmlns="http://www.w3.org/2000/svg" width="32" height="32" viewBox="0 0 32 32">
<title>jumping-rope</title>
<path d="M26.934 3.436c0.817-0.427 1.134-1.434 0.706-2.252s-1.434-1.133-2.252-0.707l-7.986 4.172 1.546 2.958 7.987-4.171zM30.176 3.134c-0.834-0.392-1.828-0.032-2.22 0.802l-3.825 8.158 3.021 1.417 3.826-8.159c0.392-0.835 0.032-1.828-0.803-2.219zM23.422 13.605c-0.245 0.525-0.194 1.113 0.086 1.573-0.945 2.067-1.95 4.030-3.046 5.957-0.371-1.497-1.052-2.905-1.99-4.030-2.775-3.326-9.63-4.136-13.67-2.031 0.045-0.096 0.082-0.194 0.129-0.288 2.114-4.237 6.639-5.171 10.699-6.601 0.502 0.415 1.223 0.514 1.837 0.195l0.296-0.155-1.546-2.958-0.296 0.154c-0.691 0.362-1.017 1.136-0.845 1.862-4.927 1.796-9.427 3.008-11.709 8.415-0.080 0.191-0.153 0.385-0.22 0.578-2.886 2.834-2.775 7.656-1.127 11.128 1.278 2.693 3.875 3.477 6.604 3.39 3.374 2.206 8.366 1.298 10.707-2.090 1.188-1.718 1.605-3.877 1.402-5.987 1.316-2.239 2.503-4.459 3.608-6.851 0.808 0.307 1.729-0.048 2.102-0.844l0.142-0.302-3.023-1.417-0.142 0.302zM16.619 16.922c1.924 1.221 2.861 3.362 3.036 5.602-0.624 1.047-1.274 2.090-1.962 3.139-1.53 2.331-5.046 3.944-8.345 4.169-0.696-0.398-1.339-0.887-1.891-1.453-3.093-3.176-4.452-7.575-3.256-11.709 3.221-2.561 9.363-1.688 12.419 0.253zM2.432 19.241c0.060-0.189 0.13-0.368 0.205-0.543-0.341 4.095 1.784 8.309 4.777 11.098-0.957-0.11-1.857-0.356-2.627-0.773-3.147-1.703-3.281-6.861-2.354-9.782zM18.712 27.684c-1.578 3.23-4.884 3.836-7.792 2.857 1.249-0.227 2.457-0.577 3.506-0.95 2.328-0.828 3.72-2.628 4.974-4.658 0.068-0.11 0.134-0.219 0.201-0.329-0.137 1.096-0.438 2.157-0.889 3.080z"></path>
</svg>
