<!-- Generated by IcoMoon.io -->
<svg version="1.1" xmlns="http://www.w3.org/2000/svg" width="32" height="32" viewBox="0 0 32 32">
<title>kayak-boat</title>
<path d="M31.535 29.323l-5.374-5.373c-0.28-0.28-1.304-0.372-2.055-0.402l-15.508-15.508c-0.030-0.751-0.121-1.774-0.402-2.054l-5.373-5.373c-0.457-0.457-1.197-0.87-1.653-0.414l-0.827 0.827c-0.457 0.457-0.457 1.611 0 2.067l5.373 5.374c0.28 0.28 1.304 0.372 2.054 0.402l15.509 15.508c0.029 0.751 0.121 1.775 0.401 2.055l5.374 5.374c0.456 0.456 1.197 0.044 1.654-0.413l0.826-0.826c0.456-0.457 0.456-0.784-0-1.241zM20.073 12.073c1.679 1.68 1.631 3.921-0.302 6.314l1.527 1.527c6.715-7.126 9.459-15.344 7.868-16.934-1.59-1.591-9.808 1.154-16.935 7.867l1.527 1.527c2.393-1.933 4.634-1.981 6.314-0.302zM10.151 21.995c-0.693-0.692-0.178-5.095 1.969-7.953l-1.543-1.543c-6.731 7.11-9.688 15.114-7.867 16.936 1.823 1.822 9.826-1.136 16.936-7.867l-1.544-1.543c-2.857 2.148-7.259 2.662-7.952 1.969z"></path>
</svg>
