<!-- Generated by IcoMoon.io -->
<svg version="1.1" xmlns="http://www.w3.org/2000/svg" width="32" height="32" viewBox="0 0 32 32">
<title>kettle</title>
<path d="M6.75 3h12.5c0.414 0 0.75-0.336 0.75-0.75 0-0.038-0.006-0.075-0.011-0.112 0.002-0.041 0.011-0.072 0.011-0.117 0-1.99-1.494-2.021-3.485-2.021-1.798 0-3.381 0.030-3.672 1.5h-6.093c-0.414 0-0.75 0.336-0.75 0.75s0.336 0.75 0.75 0.75zM27.811 19.825l-1.635-15.414c-0.053-0.505-0.475-0.877-0.969-0.889-0.067-0.014-0.136-0.022-0.206-0.022h-19.5c-0.552 0-1 0.448-1 1l3 4.458-3 20.041c0 0.552 0.448 1 1 1h17c0.552 0 1-0.448 1-1l-2.346-23h2.677l1.494 14.088c0.058 0.549 0.551 0.948 1.1 0.889l0.497-0.052c0.549-0.058 0.947-0.551 0.889-1.1zM14 7h0.5c0.552 0 1 0.448 1 1v2.5h-2.5v-2.5c0-0.552 0.448-1 1-1zM13 18.5v-3.5h2.5v3.5h-2.5zM15.5 19v3.5h-2.5v-3.5h2.5zM13 14.5v-3.5h2.5v3.5h-2.5zM14.5 26.5h-0.5c-0.552 0-1-0.448-1-1v-2.5h2.5v2.5c0 0.552-0.448 1-1 1zM23.792 30.5h-19.584c-0.391 0-0.708 0.317-0.708 0.708v0.084c0 0.391 0.317 0.708 0.708 0.708h19.584c0.391 0 0.708-0.317 0.708-0.708v-0.084c0-0.391-0.317-0.708-0.708-0.708z"></path>
</svg>
