<!-- Generated by IcoMoon.io -->
<svg version="1.1" xmlns="http://www.w3.org/2000/svg" width="32" height="32" viewBox="0 0 32 32">
<title>key-activate</title>
<path d="M30.15 13.15h-1.55l-4.4-5.65c-0.3-0.5-0.85-0.8-1.45-0.8h-9.35c-1.050 0-1.8 0.9-1.8 0.9l-3.9 5.2c-1.8 0-6.65-0.050-7.3 4.35v3.35c0 1.050 0.55 1.8 1.5 1.8h2.5c0.2 1.75 1.65 3.1 3.45 3.1 1.75 0 3.2-1.3 3.45-2.95 0.050-0.1 0.1-0.5 0.1-0.5l3.1-2.9h6.85c0.95-1.3 2.3-1.85 3.75-1.85 2.8 0 5.1 2.15 5.1 4.95 0.8-0.15 1.3-1.050 1.3-2v-5.5c0.1-1.1-0.35-1.5-1.35-1.5zM17.95 12.2c0 0.35-0.3 0.65-0.65 0.65 0 0-4.9 0-5.85 0-0.15 0-0.25-0.050-0.3-0.1-0.6-0.45 0-1.2 0-1.2l1.95-2.7c0.15-0.3 0.5-0.25 0.7-0.25h3.4c0.35 0 0.7 0.2 0.7 0.55v3.050zM25 12.8c-0.050 0-0.15 0.1-0.3 0.1-0.9 0-4.3 0-4.3 0-0.35 0-0.5-0.3-0.5-0.65v-3.050c0-0.45 0.25-0.55 0.45-0.55h2c0.35 0 0.6 0.15 0.75 0.3l1.9 2.65c0 0 0.65 0.7 0 1.2zM25.15 18.35c-1.35 0-2.5 0.8-3.1 1.9h-6.75l-1.8 1.65 1.8 1.6h0.050l0.85-1.2 0.8 1.050 0.8-1 0.8 1.2h0.2l0.85-1.1 0.8 1.1h1.65c0.050 0.050 0.050 0.1 0.050 0.1 0.6 1 1.7 1.7 2.95 1.7 1.95 0 3.5-1.55 3.5-3.5s-1.5-3.5-3.45-3.5zM26.55 22.6c-0.4 0-0.75-0.35-0.75-0.75s0.35-0.75 0.75-0.75c0.4 0 0.75 0.35 0.75 0.75s-0.35 0.75-0.75 0.75z"></path>
</svg>
