<!-- Generated by IcoMoon.io -->
<svg version="1.1" xmlns="http://www.w3.org/2000/svg" width="32" height="32" viewBox="0 0 32 32">
<title>key</title>
<path d="M28.823 3.080c-3.618-3.619-9.485-3.619-13.104 0.002-2.549 2.55-3.263 6.204-2.22 9.412l-12.711 12.711-0.324 6.429 6.428-0.326 0.108-0.109-0.71-3.826 3.42 0.448-0.373-3.404 3.748 0.696 0.418-0.419-0.525-3.642 3.61 0.558 3.105-3.106c0.15 0.055 0.265 0.081 0.367 0.094 3.044 0.745 6.386-0.037 8.762-2.414 3.62-3.621 3.619-9.488 0-13.106zM26.254 8.396c-0.759 0.76-1.988 0.759-2.746 0-0.758-0.758-0.759-1.987 0-2.746 0.758-0.758 1.988-0.758 2.746 0s0.759 1.989 0 2.746z"></path>
</svg>
