<!-- Generated by IcoMoon.io -->
<svg version="1.1" xmlns="http://www.w3.org/2000/svg" width="32" height="32" viewBox="0 0 32 32">
<title>keyboard</title>
<path d="M32 9.021c0-1.668-1.352-3.021-3.021-3.021h-25.957c-1.669 0-3.022 1.353-3.022 3.021v13.957c0 1.669 1.353 3.021 3.022 3.021h25.957c1.669 0 3.021-1.353 3.021-3.021v-13.957zM22 9.6c0-0.332 0.268-0.6 0.6-0.6h1.8c0.331 0 0.6 0.268 0.6 0.6v1.8c0 0.332-0.268 0.6-0.6 0.6h-1.8c-0.331 0-0.6-0.268-0.6-0.6v-1.8zM21.9 14c0.331 0 0.6 0.268 0.6 0.6v1.8c0 0.331-0.268 0.6-0.6 0.6h-1.8c-0.331 0-0.6-0.268-0.6-0.6v-1.8c0-0.332 0.268-0.6 0.6-0.6h1.8zM17 9.6c0-0.332 0.268-0.6 0.6-0.6h1.8c0.331 0 0.6 0.268 0.6 0.6v1.8c0 0.332-0.268 0.6-0.6 0.6h-1.8c-0.331 0-0.6-0.268-0.6-0.6v-1.8zM16.9 14c0.331 0 0.6 0.268 0.6 0.6v1.8c0 0.331-0.268 0.6-0.6 0.6h-1.8c-0.332 0-0.6-0.268-0.6-0.6v-1.8c0-0.332 0.268-0.6 0.6-0.6h1.8zM12 9.6c0-0.332 0.268-0.6 0.6-0.6h1.8c0.332 0 0.6 0.268 0.6 0.6v1.8c0 0.332-0.268 0.6-0.6 0.6h-1.8c-0.332 0-0.6-0.268-0.6-0.6v-1.8zM11.9 14c0.332 0 0.6 0.268 0.6 0.6v1.8c0 0.331-0.268 0.6-0.6 0.6h-1.8c-0.332 0-0.6-0.268-0.6-0.6v-1.8c0-0.332 0.268-0.6 0.6-0.6h1.8zM7 9.6c0-0.332 0.269-0.6 0.6-0.6h1.8c0.332 0 0.6 0.268 0.6 0.6v1.8c0 0.332-0.268 0.6-0.6 0.6h-1.8c-0.332 0-0.6-0.268-0.6-0.6v-1.8zM2 9.6c0-0.332 0.268-0.6 0.6-0.6h1.8c0.332 0 0.6 0.268 0.6 0.6v1.8c0 0.332-0.269 0.6-0.6 0.6h-1.8c-0.332 0-0.6-0.268-0.6-0.6v-1.8zM5 21.4c0 0.331-0.269 0.6-0.6 0.6h-1.8c-0.332 0-0.6-0.268-0.6-0.6v-1.8c0-0.331 0.268-0.6 0.6-0.6h1.8c0.332 0 0.6 0.268 0.6 0.6v1.8zM2.6 17c-0.332 0-0.6-0.268-0.6-0.6v-1.8c0-0.332 0.268-0.6 0.6-0.6h4.3c0.332 0 0.6 0.268 0.6 0.6v1.8c0 0.331-0.269 0.6-0.6 0.6h-4.3zM25 21.4c0 0.331-0.268 0.6-0.6 0.6h-16.8c-0.332 0-0.6-0.268-0.6-0.6v-1.8c0-0.331 0.269-0.6 0.6-0.6h16.8c0.331 0 0.6 0.268 0.6 0.6v1.8zM30 21.4c0 0.331-0.268 0.6-0.6 0.6h-1.8c-0.331 0-0.6-0.268-0.6-0.6v-1.8c0-0.331 0.268-0.6 0.6-0.6h1.8c0.331 0 0.6 0.268 0.6 0.6v1.8zM30 14.6v1.8c0 0.331-0.268 0.6-0.6 0.6h-4.3c-0.331 0-0.6-0.268-0.6-0.6v-1.8c0-0.332 0.268-0.6 0.6-0.6h1.9v-4.4c0-0.332 0.268-0.6 0.6-0.6h1.8c0.331 0 0.6 0.268 0.6 0.6v5z"></path>
</svg>
