<!-- Generated by IcoMoon.io -->
<svg version="1.1" xmlns="http://www.w3.org/2000/svg" width="32" height="32" viewBox="0 0 32 32">
<title>keycap-F20</title>
<path d="M7.011 3h17.977c0.68 0 1.306 0.228 1.811 0.61l3.53-2.888c-0.656-0.441-1.459-0.722-2.329-0.722h-24c-0.802 0-1.547 0.238-2.173 0.62l3.163 3.163c0.535-0.485 1.243-0.784 2.021-0.784zM31.099 1.383l-3.61 2.953c0.322 0.479 0.51 1.056 0.51 1.676v17.477c0 0.739-0.267 1.416-0.71 1.94l4.056 4.979c0.413-0.617 0.654-1.416 0.654-2.407v-24.5c0-0.742-0.338-1.498-0.901-2.118zM24.988 26.5h-17.977c-0.697 0-1.335-0.238-1.845-0.635l-3.884 5.242c0.714 0.597 1.667 0.892 2.717 0.892h24c1.024 0 1.956-0.282 2.663-0.849l-4.137-5.077c-0.451 0.269-0.976 0.426-1.538 0.426zM4 23.488v-17.477c0-0.521 0.133-1.011 0.365-1.438l-3.329-3.329c-0.642 0.643-1.036 1.458-1.036 2.256v24.5c0 0.954 0.226 1.729 0.61 2.337l3.868-5.223c-0.301-0.469-0.478-1.026-0.478-1.625zM12 12.5v-1.5h-6v9h2.5v-3.5h3v-2h-3v-2zM13.68 17.695l-1.18 1.043v1.262h6.5v-1.5h-3.5v-0.242l0.855-0.686c1.317-1.152 2.43-2.345 2.43-3.841 0-1.619-1.13-2.799-3.188-2.799-1.232 0-2.294 0.412-2.98 0.919l0.603 1.495c0.476-0.357 1.162-0.741 1.947-0.741 1.050 0 1.497 0.576 1.497 1.303-0.027 1.043-0.995 2.044-2.983 3.787zM19.437 15.556c0.014 2.524 1.050 4.595 3.402 4.595 2.324 0 3.458-1.893 3.458-4.651 0-2.441-0.952-4.568-3.387-4.568-2.352 0-3.473 2.044-3.473 4.623zM24.169 15.528c0 2.031-0.448 3.045-1.274 3.045s-1.33-0.974-1.316-3.018c-0.014-2.072 0.517-3.045 1.302-3.045 0.855 0.001 1.288 1.043 1.288 3.018z"></path>
</svg>
