<!-- Generated by IcoMoon.io -->
<svg version="1.1" xmlns="http://www.w3.org/2000/svg" width="32" height="32" viewBox="0 0 32 32">
<title>keycap-Prt-Sc</title>
<path d="M7.166 11.844c-0.931 0-1.666 0.059-2.166 0.137v6.519h1.5v-2.363c0.5 0.020 0.431 0.029 0.631 0.029 0.9 0 1.725-0.216 2.245-0.696 0.4-0.373 0.648-0.921 0.648-1.569s-0.329-1.196-0.76-1.53c-0.45-0.352-1.159-0.529-2.098-0.529zM7.12 15.020c-0.22 0-0.12-0.010-0.62-0.040v-1.951c0.5-0.030 0.431-0.059 0.74-0.059 0.761 0 1.191 0.363 1.191 0.97 0 0.677-0.5 1.079-1.31 1.079zM12 18.5v-2.431c0-0.117-0.039-0.235-0.020-0.334 0.101-0.46 0.514-0.755 1.075-0.755 0.17 0.001 0.445 0.020 0.445 0.040v-1.402c0-0.020-0.239-0.063-0.379-0.063-0.47 0-1.13 0.446-1.38 0.946h-0.040l-0.050-1h-1.31c0.020 0.499 0.159 1.078 0.159 1.784v3.216h1.5zM16.5 15v-1.5h-1v-1.166l-1.5 0.334v0.833h-0.5v1.5h0.5v1.764c0 0.677 0.19 1.137 0.47 1.421 0.24 0.245 0.675 0.412 1.165 0.412 0.43 0 0.802-0.049 1.003-0.128l-0.003-1.128c-0.11 0.020-0.302 0.039-0.492 0.039-0.46 0-0.643-0.265-0.643-0.843v-1.539h1zM20.37 17.372c-0.65 0-1.28-0.206-1.69-0.412l-0.311 1.235c0.381 0.206 1.14 0.402 1.91 0.402 1.85 0 2.72-0.941 2.72-2.049 0-0.931-0.559-1.54-1.75-1.97-0.87-0.323-1.25-0.51-1.25-0.931 0-0.344 0.32-0.637 0.98-0.637s1.14 0.187 1.41 0.314l0.34-1.206c-0.401-0.177-0.96-0.334-1.721-0.334-1.59 0-2.551 0.863-2.551 1.99 0 0.96 0.73 1.569 1.851 1.951 0.811 0.284 1.131 0.52 1.131 0.931 0 0.432-0.369 0.716-1.070 0.716zM26.14 14.745c0.401 0 0.67 0.069 0.85 0.147l0.24-1.107c-0.32-0.117-0.761-0.187-1.16-0.187-1.82 0-2.8 1.147-2.8 2.549 0 1.51 1.011 2.451 2.59 2.451 0.58 0 1.090-0.098 1.361-0.216l-0.18-1.098c-0.23 0.088-0.511 0.147-0.87 0.147-0.74 0-1.341-0.46-1.341-1.343-0.009-0.784 0.511-1.343 1.311-1.343zM7.011 3h17.977c0.68 0 1.306 0.228 1.811 0.61l3.53-2.888c-0.656-0.441-1.459-0.722-2.329-0.722h-24c-0.802 0-1.547 0.238-2.173 0.62l3.163 3.163c0.535-0.485 1.243-0.784 2.021-0.784zM31.099 1.383l-3.61 2.953c0.322 0.479 0.51 1.056 0.51 1.676v17.477c0 0.739-0.267 1.416-0.71 1.94l4.056 4.979c0.413-0.617 0.654-1.416 0.654-2.407v-24.5c0-0.742-0.338-1.498-0.901-2.118zM24.988 26.5h-17.977c-0.697 0-1.335-0.238-1.845-0.635l-3.884 5.242c0.714 0.597 1.667 0.892 2.717 0.892h24c1.024 0 1.956-0.282 2.663-0.849l-4.137-5.077c-0.451 0.269-0.976 0.426-1.538 0.426zM4 23.488v-17.477c0-0.521 0.133-1.011 0.365-1.438l-3.329-3.329c-0.642 0.643-1.036 1.458-1.036 2.256v24.5c0 0.954 0.226 1.729 0.61 2.337l3.868-5.223c-0.301-0.469-0.478-1.026-0.478-1.625z"></path>
</svg>
