<!-- Generated by IcoMoon.io -->
<svg version="1.1" xmlns="http://www.w3.org/2000/svg" width="32" height="32" viewBox="0 0 32 32">
<title>keycap-PgDn</title>
<path d="M9.896 12.873c-0.45-0.353-1.008-0.53-1.948-0.53-0.93 0-1.948 0.059-1.948 0.137v6.52h1.5v-2.363c0 0.020 0.213 0.029 0.413 0.029 0.9 0 1.616-0.216 2.136-0.696 0.4-0.373 0.594-0.921 0.594-1.569s-0.317-1.196-0.747-1.53zM7.904 15.52c-0.221 0-0.404-0.010-0.404-0.040v-1.951c0-0.030 0.213-0.059 0.523-0.059 0.761 0 1.191 0.363 1.191 0.97 0 0.677-0.501 1.079-1.31 1.079zM12.688 19.912c-0.57 0-1.131-0.186-1.441-0.363l-0.31 1.128c0.441 0.245 1.114 0.372 1.755 0.372 0.72 0 1.489-0.137 2.030-0.588 0.55-0.48 0.78-1.235 0.78-2.157v-2.677c-0.001-0.716-0.065-1.127-0.044-1.627h-1.321l-0.050 1h-0.021c-0.25-0.5-0.67-0.789-1.34-0.789-1.2 0-2.22 0.924-2.22 2.463 0 1.383 0.861 2.398 2.070 2.398 0.56 0 1.030-0.573 1.32-0.573h0.104v0.147c0 0.883-0.593 1.265-1.313 1.265zM14 16.863c0 0.128-0.062 0.284-0.102 0.392-0.1 0.353-0.436 0.608-0.826 0.608-0.639 0-1.013-0.559-1.013-1.274 0-0.873 0.444-1.363 0.993-1.363 0.421 0 0.76 0.264 0.869 0.656 0.021 0.079 0.079 0.177 0.079 0.275v0.706zM18.153 12.344c-0.77 0-1.653 0.049-2.153 0.137v6.49c0.5 0.049 1.033 0.098 1.823 0.098 1.32 0 2.447-0.274 3.157-0.853 0.651-0.54 1.143-1.412 1.143-2.677 0-1.166-0.474-1.98-1.175-2.49-0.65-0.48-1.515-0.706-2.795-0.706zM18.137 17.902c-0.19 0-0.137 0-0.637-0.029v-4.323c0.5-0.030 0.458-0.059 0.798-0.059 1.311 0 2.131 0.726 2.12 2.098 0 1.579-0.9 2.324-2.28 2.314zM27.5 19v-2.843c0-1.412-0.863-1.99-1.863-1.99-0.811-0.001-1.422 0.333-1.622 0.833h-0.030l-0.070-1h-1.32c0.020 0.5-0.094 1.137-0.094 1.736v3.264h1.5v-2.764c0-0.137 0.097-0.284 0.137-0.373 0.101-0.274 0.512-0.559 0.931-0.559 0.55 0 0.931 0.421 0.931 1.040v2.657h1.5zM7.011 3h17.977c0.68 0 1.306 0.228 1.811 0.61l3.53-2.888c-0.656-0.441-1.459-0.722-2.329-0.722h-24c-0.802 0-1.547 0.238-2.173 0.62l3.163 3.163c0.535-0.485 1.243-0.784 2.021-0.784zM31.099 1.383l-3.61 2.953c0.322 0.479 0.51 1.056 0.51 1.676v17.477c0 0.739-0.267 1.416-0.71 1.94l4.056 4.979c0.413-0.617 0.654-1.416 0.654-2.407v-24.5c0-0.742-0.338-1.498-0.901-2.118zM24.988 26.5h-17.977c-0.697 0-1.335-0.238-1.845-0.635l-3.884 5.242c0.714 0.597 1.667 0.892 2.717 0.892h24c1.024 0 1.956-0.282 2.663-0.849l-4.137-5.077c-0.451 0.269-0.976 0.426-1.538 0.426zM4 23.488v-17.477c0-0.521 0.133-1.011 0.365-1.438l-3.329-3.329c-0.642 0.643-1.036 1.458-1.036 2.256v24.5c0 0.954 0.226 1.729 0.61 2.337l3.868-5.223c-0.301-0.469-0.478-1.026-0.478-1.625z"></path>
</svg>
