<!-- Generated by IcoMoon.io -->
<svg version="1.1" xmlns="http://www.w3.org/2000/svg" width="32" height="32" viewBox="0 0 32 32">
<title>keycap-Caps-Lock</title>
<path d="M7.011 3h17.977c0.68 0 1.306 0.228 1.811 0.61l3.53-2.888c-0.657-0.441-1.459-0.722-2.329-0.722h-24c-0.802 0-1.547 0.238-2.173 0.62l3.163 3.163c0.535-0.485 1.242-0.784 2.021-0.784zM31.1 1.383l-3.61 2.953c0.322 0.479 0.509 1.056 0.509 1.676v17.477c0 0.739-0.267 1.416-0.709 1.94l4.056 4.979c0.412-0.617 0.653-1.416 0.653-2.407v-24.5c0-0.742-0.338-1.498-0.9-2.118zM24.988 26.5h-17.977c-0.696 0-1.335-0.238-1.845-0.635l-3.883 5.242c0.714 0.597 1.666 0.892 2.716 0.892h24c1.024 0 1.956-0.282 2.663-0.849l-4.137-5.077c-0.451 0.269-0.976 0.426-1.538 0.426zM4 23.488v-17.477c0-0.521 0.133-1.011 0.365-1.438l-3.329-3.329c-0.642 0.643-1.036 1.458-1.036 2.256v24.5c0 0.954 0.226 1.729 0.61 2.337l3.869-5.223c-0.302-0.469-0.479-1.026-0.479-1.625zM6.375 10.794c0 1.883 1.2 3.304 3.531 3.304 0.82 0 1.45-0.147 1.73-0.284l-0.23-1.166c-0.3 0.117-0.81 0.216-1.271 0.216-1.361 0-2.16-0.834-2.16-2.156 0-1.47 0.94-2.187 2.151-2.187 0.54 0 0.97 0.117 1.28 0.245l0.31-1.187c-0.27-0.138-0.87-0.294-1.661-0.294-2.040 0-3.681 1.255-3.681 3.51zM11.647 12.637c0 0.764 0.599 1.461 1.589 1.461 0.58 0 1.089-0.098 1.409-0.598h0.030l0.090 0.5h1.37c-0.050-0.264-0.136-0.706-0.136-1.166v-1.666c0-1.127-0.487-2.069-2.117-2.069-0.89 0-1.543 0.236-1.884 0.421l0.288 0.96c0.32-0.196 0.837-0.363 1.337-0.363 0.75 0 0.877 0.363 0.877 0.617v0.069c-1.5-0.009-2.853 0.588-2.853 1.833zM14.5 11.736v0.52c0 0.088 0.033 0.177 0.012 0.255-0.1 0.304-0.389 0.549-0.768 0.549-0.34 0-0.633-0.187-0.633-0.569 0.001-0.579 0.889-0.765 1.389-0.755zM21.796 11.54c0-1.53-0.96-2.377-2.030-2.377-0.71 0-1.27 0.338-1.631 0.838h-0.020l-0.070-1h-1.32c0.020 0.5 0.275 1.187 0.275 1.813v5.187h1.5v-2.5h-0.195c0.22 0.5 0.68 0.579 1.27 0.579 1.090 0 2.22-0.794 2.22-2.539zM19.206 12.96c-0.44 0-0.683-0.303-0.782-0.706-0.020-0.088 0.077-0.195 0.077-0.313v-0.656c0-0.088-0.097-0.187-0.077-0.265 0.1-0.441 0.427-0.755 0.857-0.755 0.68 0 1.003 0.579 1.003 1.344-0 0.813-0.418 1.352-1.078 1.352zM23.546 13.059c-0.45 0-1.030-0.196-1.311-0.363l-0.27 1.069c0.37 0.196 0.94 0.334 1.581 0.334 1.401 0 2.12-0.657 2.12-1.549-0.010-0.706-0.4-1.167-1.33-1.48-0.601-0.206-0.791-0.323-0.791-0.549 0-0.245 0.21-0.393 0.58-0.393 0.42 0 0.84 0.157 1.061 0.274l0.27-1.030c-0.3-0.147-0.81-0.274-1.381-0.274-1.21 0-1.99 0.677-1.99 1.569-0.010 0.569 0.38 1.108 1.39 1.441 0.57 0.187 0.72 0.304 0.72 0.549 0 0.246-0.19 0.403-0.65 0.403zM11 20.5h-2.5v-5h-1.5v6.5h4zM13.756 22.108c1.31 0 2.581-0.804 2.581-2.559 0-1.441-1-2.451-2.501-2.451-1.571 0-2.611 0.99-2.611 2.539s1.1 2.471 2.53 2.471zM13.796 18.157c0.69 0 0.97 0.726 0.97 1.441 0 0.863-0.38 1.441-0.97 1.441-0.65 0-1-0.617-1-1.441-0.001-0.706 0.27-1.441 1-1.441zM19.396 18.245c0.4 0 0.67 0.069 0.85 0.147l0.24-1.107c-0.32-0.117-0.761-0.186-1.16-0.186-1.82 0-2.8 1.147-2.8 2.549 0 1.51 1.011 2.451 2.59 2.451 0.58 0 1.090-0.098 1.36-0.216l-0.18-1.098c-0.23 0.088-0.51 0.147-0.87 0.147-0.74 0-1.34-0.46-1.34-1.343-0.010-0.784 0.51-1.343 1.311-1.343zM22.5 20.5l0.308-0.471 1.098 1.971h1.87l-2-2.956 1.75-2.044h-1.831l-0.99 1.431c-0.12 0.186-0.24 0.569-0.35 0.569h0.145v-4h-1.5v7h1.5v-1.5z"></path>
</svg>
