<!-- Generated by IcoMoon.io -->
<svg version="1.1" xmlns="http://www.w3.org/2000/svg" width="32" height="32" viewBox="0 0 32 32">
<title>keycap-F18</title>
<path d="M7.011 3h17.977c0.68 0 1.306 0.228 1.811 0.61l3.53-2.888c-0.656-0.441-1.459-0.722-2.329-0.722h-24c-0.802 0-1.547 0.238-2.173 0.62l3.163 3.163c0.535-0.485 1.243-0.784 2.021-0.784zM31.099 1.383l-3.61 2.953c0.322 0.479 0.51 1.056 0.51 1.676v17.477c0 0.739-0.267 1.416-0.71 1.94l4.056 4.979c0.413-0.617 0.654-1.416 0.654-2.407v-24.5c0-0.742-0.338-1.498-0.901-2.118zM24.988 26.5h-17.977c-0.697 0-1.335-0.238-1.845-0.635l-3.884 5.242c0.714 0.597 1.667 0.892 2.717 0.892h24c1.024 0 1.956-0.282 2.663-0.849l-4.137-5.077c-0.451 0.269-0.976 0.426-1.538 0.426zM4 23.488v-17.477c0-0.521 0.133-1.011 0.365-1.438l-3.329-3.329c-0.642 0.643-1.036 1.458-1.036 2.256v24.5c0 0.954 0.226 1.729 0.61 2.337l3.868-5.223c-0.301-0.469-0.478-1.026-0.478-1.625zM12 12.5v-1.5h-6v9h2.5v-3.5h3v-2h-3v-2zM17.5 20v-9h-1.983l-2.408 1.139 0.35 1.617 1.736-0.756h-0.195v7zM19.407 17.668c0 1.207 1.079 2.483 3.389 2.483 2.114 0 3.435-1.084 3.435-2.703 0-1.152-0.731-1.893-1.731-2.222v-0.041c1-0.439 1.389-1.194 1.389-1.961 0-1.084-0.846-2.291-2.974-2.291-1.82 0-3.219 1.002-3.219 2.511 0 0.782 0.303 1.509 1.303 1.948v0.041c-1 0.425-1.593 1.166-1.593 2.235zM22.853 12.345c0.784 0 1.106 0.549 1.106 1.098 0 0.563-0.434 1.002-0.924 1.139-0.729-0.22-1.288-0.604-1.288-1.207 0-0.562 0.378-1.028 1.106-1.028zM22.713 16.131c0.84 0.22 1.428 0.686 1.428 1.468 0 0.631-0.49 1.111-1.246 1.111-0.799 0-1.302-0.604-1.288-1.248 0-0.645 0.405-1.139 1.106-1.331z"></path>
</svg>
