<!-- Generated by IcoMoon.io -->
<svg version="1.1" xmlns="http://www.w3.org/2000/svg" width="32" height="32" viewBox="0 0 32 32">
<title>keycap-Cmd</title>
<path d="M7.011 3h17.977c0.68 0 1.306 0.228 1.811 0.61l3.53-2.888c-0.657-0.441-1.459-0.722-2.329-0.722h-24c-0.802 0-1.547 0.238-2.173 0.62l3.163 3.163c0.535-0.485 1.242-0.783 2.021-0.783zM31.1 1.383l-3.61 2.953c0.322 0.479 0.509 1.056 0.509 1.675v17.477c0 0.739-0.267 1.416-0.709 1.94l4.056 4.979c0.412-0.618 0.653-1.417 0.653-2.407v-24.5c0-0.742-0.338-1.498-0.9-2.117zM24.988 26.5h-17.977c-0.696 0-1.335-0.238-1.845-0.635l-3.883 5.242c0.714 0.597 1.666 0.892 2.716 0.892h24c1.024 0 1.956-0.282 2.663-0.849l-4.137-5.077c-0.451 0.268-0.976 0.425-1.538 0.425zM4 23.488v-17.477c0-0.521 0.133-1.011 0.365-1.438l-3.329-3.329c-0.642 0.643-1.036 1.458-1.036 2.256v24.5c0 0.954 0.226 1.729 0.61 2.337l3.869-5.223c-0.302-0.469-0.479-1.026-0.479-1.625zM20 11h1.5c0 0 0.046 0.896 0.046 0.945 0 0.953 0.775 1.627 1.727 1.627s1.727-0.834 1.727-1.787c0-0.952-0.775-1.786-1.727-1.786h-0.773v-1.5h0.773c0.953 0 1.727-0.809 1.727-1.761s-0.775-1.745-1.727-1.745-1.727 0.843-1.727 1.795c0 0.048-0.045 0.711-0.045 0.711h-1.5c0 0-0.046-0.671-0.046-0.72 0-0.952-0.775-1.766-1.727-1.766s-1.727 0.79-1.727 1.743 0.775 1.742 1.727 1.742h0.773v1.5h-0.773c-0.953 0-1.727 0.784-1.727 1.736s0.801 1.732 1.753 1.732c0.93 0 1.747-0.639 1.747-1.555 0 0.001 0 0.004 0 0.004v-0.918zM23.273 5.878c0.477 0 0.864 0.335 0.864 0.811s-0.387 0.811-0.864 0.811h-0.773c0 0-0.091-0.671-0.091-0.72 0-0.476 0.387-0.902 0.863-0.902zM22.5 11h0.773c0.477 0 0.864 0.328 0.864 0.805s-0.387 0.805-0.864 0.805-0.863-0.188-0.863-0.665c0-0.049 0.091-0.944 0.091-0.944zM20 8.5h1.5v1.5h-1.5v-1.5zM18.227 7.5c-0.477 0-0.864-0.354-0.864-0.83s0.387-0.847 0.864-0.847c0.459 0 0.831 0.449 0.858 0.907-0.003 0.003-0.006 0.061-0.009 0.28l-0.076 0.489h-0.773zM18.227 12.709c-0.477 0-0.864-0.379-0.864-0.854s0.387-0.854 0.864-0.854h0.773c0 0 0.091 0.896 0.091 0.945 0 0.476-0.387 0.764-0.863 0.764zM19.090 6.775c0 0.003 0.001 0.006 0.001 0.010 0 0.010-0 0.003-0.001-0.010zM19.951 11.878c0 0.012-0.003 0.023-0.003 0.035 0.001-0.004 0.003-0.018 0.003-0.035zM19.951 11.878c0-0.011 0.003-0.020 0.003-0.030 0-0.029-0.001 0.002-0.003 0.030zM10.366 16.020c0.54 0 0.97 0.117 1.28 0.245l0.31-1.187c-0.27-0.137-0.87-0.294-1.661-0.294-2.040 0-3.681 1.255-3.681 3.51 0 1.883 1.2 3.304 3.531 3.304 0.82 0 1.45-0.147 1.73-0.285l-0.23-1.166c-0.3 0.117-0.81 0.216-1.271 0.216-1.361 0-2.161-0.834-2.161-2.157 0-1.471 0.941-2.187 2.151-2.187zM19.5 21.5v-2.823c0-1.431-0.622-2.079-1.562-2.079-0.36 0-0.616 0.122-0.886 0.279-0.23 0.137-0.406 0.122-0.586 0.622h-0.020c-0.21-0.5-0.71-0.784-1.341-0.784-0.84 0-1.271 0.284-1.48 0.784h-0.030l-0.070-1h-1.28c0.020 0.5 0.255 1.137 0.255 1.735v3.264h1.5v-2.794c0-0.117-0.107-0.255-0.057-0.372 0.090-0.245 0.143-0.54 0.534-0.54 0.48 0 0.524 0.412 0.524 1.020v2.686h1.5v-2.804c0-0.117 0.128-0.274 0.168-0.383 0.1-0.284 0.306-0.52 0.656-0.52 0.49 0 0.676 0.402 0.676 1.098v2.608h1.5zM22.195 21.711c0.63 0 1.221-0.211 1.53-0.711h0.020l0.070 0.5h1.351c-0.020-0.323-0.166-0.892-0.166-1.431v-5.569h-1.5v2.5h0.085c-0.22 0-0.69-0.471-1.291-0.471-1.17 0-2.201 1.017-2.191 2.634 0 1.491 0.93 2.547 2.091 2.547zM22.695 17.735c0.47 0 0.747 0.334 0.837 0.735 0.011 0.078-0.032 0.186-0.032 0.265v0.628c0 0.128 0.043 0.235 0.012 0.343-0.090 0.421-0.413 0.716-0.854 0.716-0.63 0-1.027-0.51-1.027-1.323 0-0.755 0.373-1.363 1.064-1.363z"></path>
</svg>
