<!-- Generated by IcoMoon.io -->
<svg version="1.1" xmlns="http://www.w3.org/2000/svg" width="32" height="32" viewBox="0 0 32 32">
<title>keycap-Opt</title>
<path d="M7.011 3h17.977c0.68 0 1.306 0.228 1.811 0.61l3.53-2.888c-0.657-0.441-1.459-0.722-2.329-0.722h-24c-0.802 0-1.547 0.238-2.173 0.62l3.163 3.163c0.535-0.485 1.242-0.784 2.021-0.784zM31.1 1.383l-3.61 2.953c0.322 0.479 0.509 1.056 0.509 1.676v17.477c0 0.739-0.267 1.416-0.709 1.94l4.056 4.979c0.412-0.617 0.653-1.416 0.653-2.407v-24.5c0-0.742-0.338-1.498-0.9-2.118zM24.988 26.5h-17.977c-0.696 0-1.335-0.238-1.845-0.635l-3.883 5.242c0.714 0.597 1.666 0.892 2.716 0.892h24c1.024 0 1.956-0.282 2.663-0.849l-4.137-5.077c-0.451 0.269-0.976 0.426-1.538 0.426zM4 23.488v-17.477c0-0.521 0.133-1.011 0.365-1.438l-3.329-3.329c-0.642 0.643-1.036 1.458-1.036 2.256v24.5c0 0.954 0.226 1.729 0.61 2.337l3.869-5.223c-0.302-0.469-0.479-1.026-0.479-1.625zM8.041 18.083c0 1.976 1.229 3.53 3.328 3.53 2.068 0 3.475-1.379 3.475-3.654 0-1.915-1.187-3.509-3.36-3.509-2.089 0-3.444 1.554-3.444 3.633zM13.153 18.011c0 1.349-0.62 2.357-1.7 2.357-1.071 0-1.722-0.957-1.722-2.316 0-1.349 0.63-2.357 1.711-2.357 1.102 0 1.711 1.070 1.711 2.316zM17 23.5v-2.5h-0.024c0.231 0.5 0.714 0.595 1.334 0.595 1.145 0 2.331-0.855 2.331-2.688 0-1.605-1.008-2.642-2.131-2.642-0.745 0-1.334 0.234-1.711 0.734h-0.021l-0.073-0.5h-1.386c0.021 0.5 0.182 0.997 0.182 1.655v5.345h1.5zM17 18.649c0-0.093-0.012-0.195 0.009-0.278 0.105-0.463 0.492-0.793 0.944-0.793 0.714 0 1.076 0.608 1.076 1.41 0 0.854-0.412 1.42-1.105 1.42-0.462 0-0.808-0.319-0.913-0.741-0.020-0.092-0.010-0.206-0.010-0.329v-0.689zM24 17.5v-1h-1v-1.473l-1.5 0.35v1.123h-1v1h1v2.178c0 0.71 0.064 1.194 0.358 1.492 0.252 0.258 0.64 0.433 1.155 0.433 0.451 0 0.808-0.052 1.018-0.134l-0.021-1.183c-0.116 0.020-0.227 0.041-0.427 0.041-0.483 0-0.584-0.278-0.584-0.885v-1.942h1zM23.5 10h-2.927l-4.028-4.265c-0.142-0.15-0.338-0.235-0.545-0.235h-3c-0.415 0-0.75 0.335-0.75 0.75s0.335 0.75 0.75 0.75h2.677l4.028 4.265c0.142 0.15 0.339 0.235 0.545 0.235h3.25c0.415 0 0.75-0.335 0.75-0.75s-0.335-0.75-0.75-0.75zM23.5 5.5h-3c-0.415 0-0.75 0.335-0.75 0.75s0.335 0.75 0.75 0.75h3c0.415 0 0.75-0.335 0.75-0.75s-0.335-0.75-0.75-0.75z"></path>
</svg>
