<!-- Generated by IcoMoon.io -->
<svg version="1.1" xmlns="http://www.w3.org/2000/svg" width="32" height="32" viewBox="0 0 32 32">
<title>keycap-End</title>
<path d="M12.5 13.5v-1h-4v6.5h4.5v-1h-3v-2h2.5v-1h-2.5v-1.5zM18 19v-2.843c0-1.412-0.744-1.99-1.745-1.99-0.809 0-1.304 0.334-1.504 0.834h-0.030l-0.070-1h-1.32c0.021 0.5 0.17 1.137 0.17 1.736v3.264h1.5v-2.764c0-0.137-0.034-0.284 0.005-0.373 0.1-0.274 0.327-0.559 0.747-0.559 0.551 0 0.748 0.421 0.748 1.040v2.657h1.5zM22 12v2.5h-0.070c-0.22 0-0.69-0.47-1.29-0.47-1.17 0-2.2 0.966-2.191 2.583 0 1.49 0.93 2.581 2.090 2.581 0.631 0 1.22-0.194 1.531-0.694h0.020l0.070 0.5h1.35c-0.020-0.324-0.012-0.892-0.012-1.432v-5.569h-1.5zM22 16.863c0 0.128-0.035 0.235-0.064 0.343-0.090 0.421-0.453 0.716-0.892 0.716-0.631 0-1.047-0.51-1.047-1.323 0-0.755 0.358-1.363 1.048-1.363 0.47 0 0.823 0.334 0.913 0.736 0.011 0.078 0.044 0.186 0.044 0.264v0.628zM7.011 3h17.977c0.68 0 1.306 0.228 1.811 0.61l3.53-2.888c-0.656-0.441-1.459-0.722-2.329-0.722h-24c-0.802 0-1.547 0.238-2.173 0.62l3.163 3.163c0.535-0.485 1.243-0.784 2.021-0.784zM31.099 1.383l-3.61 2.953c0.322 0.479 0.51 1.056 0.51 1.676v17.477c0 0.739-0.267 1.416-0.71 1.94l4.056 4.979c0.413-0.617 0.654-1.416 0.654-2.407v-24.5c0-0.742-0.338-1.498-0.901-2.118zM24.988 26.5h-17.977c-0.697 0-1.335-0.238-1.845-0.635l-3.884 5.242c0.714 0.597 1.667 0.892 2.717 0.892h24c1.024 0 1.956-0.282 2.663-0.849l-4.137-5.077c-0.451 0.269-0.976 0.426-1.538 0.426zM4 23.488v-17.477c0-0.521 0.133-1.011 0.365-1.438l-3.329-3.329c-0.642 0.643-1.036 1.458-1.036 2.256v24.5c0 0.954 0.226 1.729 0.61 2.337l3.868-5.223c-0.301-0.469-0.478-1.026-0.478-1.625z"></path>
</svg>
