<!-- Generated by IcoMoon.io -->
<svg version="1.1" xmlns="http://www.w3.org/2000/svg" width="32" height="32" viewBox="0 0 32 32">
<title>keycap-Alt</title>
<path d="M7.011 3h17.977c0.68 0 1.306 0.228 1.811 0.61l3.53-2.888c-0.656-0.441-1.459-0.722-2.329-0.722h-24c-0.802 0-1.547 0.238-2.173 0.62l3.163 3.163c0.535-0.485 1.243-0.784 2.021-0.784zM31.099 1.383l-3.61 2.953c0.322 0.479 0.51 1.056 0.51 1.676v17.477c0 0.739-0.267 1.416-0.71 1.94l4.056 4.979c0.413-0.617 0.654-1.416 0.654-2.407v-24.5c0-0.742-0.338-1.498-0.901-2.118zM24.988 26.5h-17.977c-0.697 0-1.335-0.238-1.845-0.635l-3.884 5.242c0.714 0.597 1.667 0.892 2.717 0.892h24c1.024 0 1.956-0.282 2.663-0.849l-4.137-5.077c-0.451 0.269-0.976 0.426-1.538 0.426zM4 23.488v-17.477c0-0.521 0.133-1.011 0.365-1.438l-3.329-3.329c-0.642 0.643-1.036 1.458-1.036 2.256v24.5c0 0.954 0.226 1.729 0.61 2.337l3.868-5.223c-0.301-0.469-0.478-1.026-0.478-1.625zM12.083 14.5l-2.162 7h1.658l0.504-2h2.027l0.546 2h1.722l-2.194-7h-2.1zM12.315 18.5l0.42-1.567c0.115-0.401 0.22-0.933 0.325-1.433h0.021c0.105 0.5 0.231 1.021 0.357 1.433l0.441 1.567h-1.564zM16.5 14h2v7.5h-2v-7.5zM22 17.5v-1h-1v-1.473l-1.5 0.35v1.123h-1v1h1v2.178c0 0.71 0.029 1.194 0.323 1.492 0.252 0.258 0.624 0.433 1.139 0.433 0.451 0 0.8-0.052 1.010-0.134l-0.026-1.183c-0.115 0.020-0.195 0.041-0.395 0.041-0.483 0-0.552-0.278-0.552-0.885v-1.942h1zM24.25 10.75c0-0.415-0.336-0.75-0.75-0.75h-2.927l-4.028-4.265c-0.141-0.15-0.338-0.235-0.545-0.235h-3c-0.414 0-0.75 0.335-0.75 0.75s0.336 0.75 0.75 0.75h2.677l4.028 4.265c0.141 0.15 0.338 0.235 0.545 0.235h3.25c0.414 0 0.75-0.335 0.75-0.75zM23.5 5.5h-3c-0.414 0-0.75 0.335-0.75 0.75s0.336 0.75 0.75 0.75h3c0.414 0 0.75-0.335 0.75-0.75s-0.336-0.75-0.75-0.75z"></path>
</svg>
