<!-- Generated by IcoMoon.io -->
<svg version="1.1" xmlns="http://www.w3.org/2000/svg" width="32" height="32" viewBox="0 0 32 32">
<title>keycap-Del</title>
<path d="M7.011 3h17.977c0.68 0 1.306 0.228 1.811 0.61l3.53-2.888c-0.657-0.441-1.459-0.722-2.329-0.722h-24c-0.802 0-1.547 0.238-2.173 0.62l3.163 3.163c0.535-0.485 1.242-0.784 2.021-0.784zM31.1 1.383l-3.61 2.953c0.322 0.479 0.509 1.056 0.509 1.676v17.477c0 0.739-0.267 1.416-0.709 1.94l4.056 4.979c0.412-0.617 0.653-1.416 0.653-2.407v-24.5c0-0.742-0.338-1.498-0.9-2.118zM24.988 26.5h-17.977c-0.696 0-1.335-0.238-1.845-0.635l-3.883 5.242c0.714 0.597 1.666 0.892 2.716 0.892h24c1.024 0 1.956-0.282 2.663-0.849l-4.137-5.077c-0.451 0.269-0.976 0.426-1.538 0.426zM4 23.488v-17.477c0-0.521 0.133-1.011 0.365-1.438l-3.329-3.329c-0.642 0.643-1.036 1.458-1.036 2.256v24.5c0 0.954 0.226 1.729 0.61 2.337l3.869-5.223c-0.302-0.469-0.479-1.026-0.479-1.625zM14.408 15.252c-0.682-0.504-1.478-0.741-2.822-0.741-0.809 0-1.586 0.052-2.086 0.144v6.814c0 0.052 0.911 0.103 1.74 0.103 1.386 0 2.482-0.288 3.227-0.895 0.682-0.566 1.156-1.482 1.156-2.81 0.001-1.224-0.48-2.079-1.216-2.614zM11.534 20.347c-0.2 0-0.534 0-0.534-0.031v-4.539c0-0.031 0.345-0.062 0.701-0.062 1.375 0 2.236 0.762 2.226 2.203 0 1.658-0.944 2.44-2.393 2.43zM20.666 18.874c0-1.245-0.63-2.515-2.288-2.515-1.785 0-2.593 1.407-2.593 2.684 0 1.575 0.997 2.561 2.74 2.561 0.693 0 1.334-0.104 1.858-0.309l-0.21-1.061c-0.43 0.134-0.872 0.215-1.417 0.215-0.745 0-1.396-0.448-1.448-0.948h3.307c0.020 0 0.052-0.358 0.052-0.626zM17.297 18.5c0.042-0.5 0.315-1.019 0.987-1.019 0.735 0 0.903 0.519 0.903 1.019h-1.89zM21 14h1.5v7.5h-1.5v-7.5zM22.788 7.666l-2.183-2.166c-0.189-0.243-0.444-0.5-0.752-0.5h-4.893c-0.552 0-1.46 0.5-1.46 1.5v4c0 0.552 0.908 1.5 1.46 1.5h4.893c0.308 0 0.599-0.392 0.788-0.635l2.146-2.375c0.282-0.361 0.282-0.963 0-1.324zM19.209 9.896l-0.707 0.707-1.396-1.396-1.396 1.396-0.707-0.707 1.396-1.396-1.396-1.396 0.707-0.707 1.396 1.397 1.396-1.396 0.707 0.707-1.396 1.397 1.396 1.396z"></path>
</svg>
