<!-- Generated by IcoMoon.io -->
<svg version="1.1" xmlns="http://www.w3.org/2000/svg" width="32" height="32" viewBox="0 0 32 32">
<title>keycap-F13</title>
<path d="M7.011 3h17.977c0.68 0 1.306 0.228 1.811 0.61l3.53-2.888c-0.657-0.441-1.459-0.722-2.329-0.722h-24c-0.802 0-1.547 0.238-2.173 0.62l3.163 3.163c0.535-0.485 1.242-0.784 2.021-0.784zM31.1 1.383l-3.61 2.953c0.322 0.479 0.509 1.056 0.509 1.676v17.477c0 0.739-0.267 1.416-0.709 1.94l4.056 4.979c0.412-0.617 0.653-1.416 0.653-2.407v-24.5c0-0.742-0.338-1.498-0.9-2.118zM24.988 26.5h-17.977c-0.696 0-1.335-0.238-1.845-0.635l-3.883 5.242c0.714 0.597 1.666 0.892 2.716 0.892h24c1.024 0 1.956-0.282 2.663-0.849l-4.137-5.077c-0.451 0.269-0.976 0.426-1.538 0.426zM4 23.488v-17.477c0-0.521 0.133-1.011 0.365-1.438l-3.329-3.329c-0.642 0.643-1.036 1.458-1.036 2.256v24.5c0 0.954 0.226 1.729 0.61 2.337l3.869-5.223c-0.302-0.469-0.479-1.026-0.479-1.625zM12 12.5v-1.5h-6v9h2.5v-3.5h3v-2h-3v-2zM17.5 20v-9h-1.983l-2.408 1.139 0.35 1.617 1.736-0.756h-0.195v7zM22.069 18.505c-0.868 0-1.736-0.357-2.114-0.549l-0.434 1.564c0.532 0.329 1.526 0.631 2.702 0.631 2.31 0 3.738-1.152 3.738-2.73 0-1.166-0.96-1.976-1.96-2.168v-0.027c1-0.384 1.652-1.125 1.652-2.072 0-1.22-1.084-2.222-3.030-2.222-1.176 0-2.271 0.329-2.817 0.672l0.433 1.509c0.378-0.22 1.161-0.535 1.903-0.535 0.896 0 1.344 0.377 1.344 0.912 0 0.755-0.91 1.009-1.625 1.009h-0.86v1.5h0.901c0.938 0 1.834 0.416 1.834 1.294 0 0.672-0.56 1.212-1.666 1.212z"></path>
</svg>
