<!-- Generated by IcoMoon.io -->
<svg version="1.1" xmlns="http://www.w3.org/2000/svg" width="32" height="32" viewBox="0 0 32 32">
<title>keycap-Tab</title>
<path d="M7.011 3h17.977c0.68 0 1.306 0.228 1.811 0.61l3.53-2.888c-0.656-0.441-1.459-0.722-2.329-0.722h-24c-0.802 0-1.547 0.238-2.173 0.62l3.163 3.163c0.535-0.485 1.243-0.784 2.021-0.784zM31.099 1.383l-3.61 2.953c0.322 0.479 0.51 1.056 0.51 1.676v17.477c0 0.739-0.267 1.416-0.71 1.94l4.056 4.979c0.413-0.617 0.654-1.416 0.654-2.407v-24.5c0-0.742-0.338-1.498-0.901-2.118zM24.988 26.5h-17.977c-0.697 0-1.335-0.238-1.845-0.635l-3.884 5.242c0.714 0.597 1.667 0.892 2.717 0.892h24c1.024 0 1.956-0.282 2.663-0.849l-4.137-5.077c-0.451 0.269-0.976 0.426-1.538 0.426zM4 23.488v-17.477c0-0.521 0.133-1.011 0.365-1.438l-3.329-3.329c-0.642 0.643-1.036 1.458-1.036 2.256v24.5c0 0.954 0.226 1.729 0.61 2.337l3.868-5.223c-0.301-0.469-0.478-1.026-0.478-1.625zM11.5 21.5v-5.5h2v-1.5h-5.5v1.5h2v5.5zM12.956 20.070c0 0.802 0.603 1.546 1.642 1.546 0.61 0 1.118-0.116 1.454-0.616h0.032l0.094 0.5h1.439c-0.052-0.278-0.116-0.741-0.116-1.225v-1.75c0-1.183-0.524-2.171-2.236-2.171-0.934 0-1.627 0.247-1.984 0.442l0.3 1.009c0.336-0.206 0.927-0.381 1.451-0.381 0.787 0 0.969 0.381 0.969 0.648v0.072c-2-0.010-3.044 0.617-3.044 1.925zM16 19.122v0.546c0 0.093-0.016 0.186-0.037 0.267-0.105 0.319-0.432 0.576-0.832 0.576-0.357 0-0.626-0.195-0.626-0.597 0-0.607 0.495-0.802 1.495-0.793zM19.654 21h0.021c0.367 0.5 0.945 0.713 1.543 0.713 1.176 0 2.352-0.956 2.352-2.768 0.011-1.544-0.892-2.599-2.12-2.599-0.714 0-1.25 0.153-1.554 0.653h0.105v-3h-1.5v5.997c0 0.566-0.242 1.174-0.264 1.503h1.355l0.063-0.5zM20 18.618c0-0.103-0.052-0.195-0.032-0.288 0.105-0.453 0.472-0.772 0.903-0.772 0.745 0 1.087 0.617 1.087 1.399 0 0.906-0.427 1.421-1.11 1.421-0.462 0-0.77-0.319-0.875-0.741-0.021-0.082 0.027-0.175 0.027-0.277v-0.741zM19.965 8.835c0.049-0.039 0.095-0.082 0.135-0.135 0.003-0.004 0.005-0.008 0.008-0.012 0.007-0.009 0.012-0.020 0.018-0.030 0.034-0.052 0.060-0.106 0.079-0.162 0.005-0.012 0.009-0.024 0.013-0.037 0.019-0.066 0.029-0.133 0.030-0.199 0-0.012-0.002-0.024-0.002-0.037-0.003-0.069-0.012-0.136-0.033-0.201-0.001-0.002-0-0.005-0.002-0.008-0-0.001-0.001-0.002-0.001-0.002-0.023-0.066-0.056-0.128-0.098-0.188-0.008-0.011-0.015-0.022-0.024-0.034-0.040-0.051-0.084-0.099-0.138-0.139l-3-2.25c-0.136-0.101-0.293-0.15-0.45-0.15-0.228 0-0.453 0.104-0.601 0.3-0.248 0.332-0.181 0.801 0.15 1.050l1.2 0.9h-7.5c-0.414 0-0.75 0.335-0.75 0.75s0.5 0.75 1 0.75h7.25l-1.2 0.9c-0.331 0.248-0.399 0.719-0.15 1.050s0.718 0.398 1.051 0.15l3-2.25c0.006-0.005 0.009-0.011 0.015-0.016zM23.5 10.25v-4c0-0.415-0.336-0.75-0.75-0.75s-0.75 0.335-0.75 0.75v4c0 0.415 0.336 0.75 0.75 0.75s0.75-0.335 0.75-0.75z"></path>
</svg>
