<!-- Generated by IcoMoon.io -->
<svg version="1.1" xmlns="http://www.w3.org/2000/svg" width="32" height="32" viewBox="0 0 32 32">
<title>keycap-PgUp</title>
<path d="M9.426 12.873c-0.45-0.353-1.022-0.53-1.963-0.53-0.929 0-1.463 0.059-1.963 0.137v6.52h1.5v-2.363c0 0.020 0.228 0.029 0.428 0.029 0.9 0 1.624-0.216 2.144-0.696 0.4-0.373 0.597-0.921 0.597-1.569s-0.313-1.196-0.743-1.53zM7.418 15.52c-0.22 0-0.418-0.010-0.418-0.040v-1.951c0-0.030 0.228-0.059 0.537-0.059 0.761 0 1.191 0.363 1.191 0.97 0 0.677-0.5 1.079-1.31 1.079zM12.203 19.912c-0.57 0-1.124-0.186-1.434-0.363l-0.307 1.128c0.441 0.245 1.117 0.372 1.758 0.372 0.72 0 1.475-0.137 2.015-0.588 0.55-0.48 0.765-1.235 0.765-2.157v-2.677c0-0.716-0.034-1.127-0.014-1.627h-1.32l-0.050 1h-0.021c-0.25-0.5-0.67-0.789-1.34-0.789-1.2 0-2.22 0.924-2.22 2.463 0 1.383 0.861 2.398 2.070 2.398 0.56 0 1.030-0.573 1.32-0.573h0.074v0.147c0 0.883-0.577 1.265-1.297 1.265zM13.5 16.863c0 0.128-0.047 0.284-0.087 0.392-0.1 0.353-0.428 0.608-0.819 0.608-0.64 0-1.010-0.559-1.010-1.274 0-0.873 0.446-1.363 0.995-1.363 0.421 0 0.745 0.264 0.855 0.656 0.021 0.079 0.065 0.176 0.065 0.275v0.706zM15.5 12.5v3.578c0 2.108 0.994 3.029 2.695 3.029 1.76 0 2.805-0.971 2.805-3.010v-3.598h-1.5v3.696c0 1.166-0.46 1.716-1.26 1.716-0.78 0-1.24-0.579-1.24-1.716v-3.696h-1.5zM23.5 21v-2.5h0.026c0.22 0.5 0.68 0.578 1.27 0.578 1.090 0 2.22-0.809 2.22-2.554 0-1.53-0.96-2.37-2.030-2.37-0.71 0-1.27 0.345-1.63 0.845h-0.020l-0.070-1h-1.32c0.020 0.5 0.055 1.187 0.055 1.813v5.186h1.5zM23.5 16.285c0-0.088 0.012-0.186 0.032-0.265 0.1-0.441 0.482-0.755 0.912-0.755 0.68 0 1.031 0.579 1.031 1.344 0 0.814-0.39 1.353-1.050 1.353-0.44 0-0.792-0.303-0.892-0.706-0.020-0.088-0.032-0.196-0.032-0.314v-0.657zM7.011 3h17.977c0.68 0 1.306 0.228 1.811 0.61l3.53-2.888c-0.656-0.441-1.459-0.722-2.329-0.722h-24c-0.802 0-1.547 0.238-2.173 0.62l3.163 3.163c0.535-0.485 1.243-0.784 2.021-0.784zM31.099 1.383l-3.61 2.953c0.322 0.479 0.51 1.056 0.51 1.676v17.477c0 0.739-0.267 1.416-0.71 1.94l4.056 4.979c0.413-0.617 0.654-1.416 0.654-2.407v-24.5c0-0.742-0.338-1.498-0.901-2.118zM24.988 26.5h-17.977c-0.697 0-1.335-0.238-1.845-0.635l-3.884 5.242c0.714 0.597 1.667 0.892 2.717 0.892h24c1.024 0 1.956-0.282 2.663-0.849l-4.137-5.077c-0.451 0.269-0.976 0.426-1.538 0.426zM4 23.488v-17.477c0-0.521 0.133-1.011 0.365-1.438l-3.329-3.329c-0.642 0.643-1.036 1.458-1.036 2.256v24.5c0 0.954 0.226 1.729 0.61 2.337l3.868-5.223c-0.301-0.469-0.478-1.026-0.478-1.625z"></path>
</svg>
