<!-- Generated by IcoMoon.io -->
<svg version="1.1" xmlns="http://www.w3.org/2000/svg" width="32" height="32" viewBox="0 0 32 32">
<title>keycap-F6</title>
<path d="M7.011 3h17.977c0.68 0 1.306 0.228 1.811 0.61l3.53-2.888c-0.656-0.441-1.459-0.722-2.329-0.722h-24c-0.802 0-1.547 0.238-2.173 0.62l3.163 3.163c0.535-0.485 1.243-0.784 2.021-0.784zM31.099 1.383l-3.61 2.953c0.322 0.479 0.51 1.056 0.51 1.676v17.477c0 0.739-0.267 1.416-0.71 1.94l4.056 4.979c0.413-0.617 0.654-1.416 0.654-2.407v-24.5c0-0.742-0.338-1.498-0.901-2.118zM24.988 26.5h-17.977c-0.697 0-1.335-0.238-1.845-0.635l-3.884 5.242c0.714 0.597 1.667 0.892 2.717 0.892h24c1.024 0 1.956-0.282 2.663-0.849l-4.137-5.077c-0.451 0.269-0.976 0.426-1.538 0.426zM4 23.488v-17.477c0-0.521 0.133-1.011 0.365-1.438l-3.329-3.329c-0.642 0.643-1.036 1.458-1.036 2.256v24.5c0 0.954 0.226 1.729 0.61 2.337l3.868-5.223c-0.301-0.469-0.478-1.026-0.478-1.625zM15.5 12.5v-1.5h-6v9h2.5v-3.5h3v-2h-3v-2zM21.101 12.476c0.336-0.028 0.399 0.075 0.899 0.088v-1.605c-0.5-0.014-0.536-0.014-0.927 0.014-1.427 0.069-2.641 0.508-3.551 1.317-0.98 0.892-1.629 2.291-1.629 3.964 0 2.126 1.181 3.896 3.603 3.896 1.974 0 3.355-1.454 3.355-3.224 0-1.852-1.29-3.024-2.816-3.024-0.855-0.001-1.486 0.597-1.934 0.597h-0.042c0.238-1 1.152-1.873 3.043-2.024zM18.073 16.296c0.21-0.453 0.686-0.796 1.26-0.796 0.91 0 1.358 0.713 1.358 1.537 0 0.905-0.477 1.578-1.233 1.578-0.966 0-1.427-0.851-1.47-1.797-0-0.247 0.027-0.412 0.084-0.521z"></path>
</svg>
