<!-- Generated by IcoMoon.io -->
<svg version="1.1" xmlns="http://www.w3.org/2000/svg" width="32" height="32" viewBox="0 0 32 32">
<title>keycap-asterisk</title>
<path d="M7.011 3h17.977c0.68 0 1.306 0.228 1.811 0.61l3.53-2.888c-0.657-0.441-1.459-0.722-2.329-0.722h-24c-0.802 0-1.547 0.238-2.173 0.62l3.163 3.163c0.535-0.485 1.242-0.784 2.021-0.784zM31.1 1.383l-3.61 2.953c0.322 0.479 0.509 1.056 0.509 1.676v17.477c0 0.739-0.267 1.416-0.709 1.94l4.056 4.979c0.412-0.617 0.653-1.416 0.653-2.407v-24.5c0-0.742-0.338-1.498-0.9-2.118zM24.988 26.5h-17.977c-0.696 0-1.335-0.238-1.845-0.635l-3.883 5.242c0.714 0.597 1.666 0.892 2.716 0.892h24c1.024 0 1.956-0.282 2.663-0.849l-4.137-5.077c-0.451 0.269-0.976 0.426-1.538 0.426zM4 23.488v-17.477c0-0.521 0.133-1.011 0.365-1.438l-3.329-3.329c-0.642 0.643-1.036 1.458-1.036 2.256v24.5c0 0.954 0.226 1.729 0.61 2.337l3.869-5.223c-0.302-0.469-0.479-1.026-0.479-1.625zM20 14.454v-1.979l-3.21 0.627-0.035-0.059 2.152-2.489-1.764-1.017-1.143 2.963h-0.040l-1.12-2.963-1.78 1.018 2.12 2.479-0.050 0.044-3.13-0.603v1.979l3-0.569v0.040l-2.040 2.45 1.77 1.020 1.185-3.018 0.053-0.020 1.146 3.038 1.782-1.020-2.178-2.41 0.052-0.059z"></path>
</svg>
