<!-- Generated by IcoMoon.io -->
<svg version="1.1" xmlns="http://www.w3.org/2000/svg" width="32" height="32" viewBox="0 0 32 32">
<title>keycap-Esc</title>
<path d="M7.011 3h17.977c0.68 0 1.306 0.228 1.811 0.61l3.53-2.888c-0.657-0.441-1.459-0.722-2.329-0.722h-24c-0.802 0-1.547 0.238-2.173 0.62l3.163 3.163c0.535-0.485 1.242-0.784 2.021-0.784zM31.1 1.383l-3.61 2.953c0.322 0.479 0.509 1.056 0.509 1.676v17.477c0 0.739-0.267 1.416-0.709 1.94l4.056 4.979c0.412-0.617 0.653-1.416 0.653-2.407v-24.5c0-0.742-0.338-1.498-0.9-2.118zM24.988 26.5h-17.977c-0.696 0-1.335-0.238-1.845-0.635l-3.883 5.242c0.714 0.597 1.666 0.892 2.716 0.892h24c1.024 0 1.956-0.282 2.663-0.849l-4.137-5.077c-0.451 0.269-0.976 0.426-1.538 0.426zM4 23.488v-17.477c0-0.521 0.133-1.011 0.365-1.438l-3.329-3.329c-0.642 0.643-1.036 1.458-1.036 2.256v24.5c0 0.954 0.226 1.729 0.61 2.337l3.869-5.223c-0.302-0.469-0.479-1.026-0.479-1.625zM13.5 12.5v-1.5h-6v9h6v-1.5h-3.5v-2.5h3.5v-1.5h-3.5v-2zM16.245 18.683c-0.63 0-1.442-0.274-1.834-0.508l-0.378 1.495c0.518 0.274 1.316 0.466 2.212 0.466 1.96 0 2.968-0.919 2.968-2.168-0.014-0.988-0.56-1.633-1.862-2.072-0.84-0.288-1.106-0.453-1.106-0.768 0-0.343 0.294-0.549 0.812-0.549 0.588 0 1.176 0.22 1.484 0.384l0.378-1.44c-0.42-0.206-1.134-0.384-1.932-0.384-1.694 0-2.786 0.947-2.786 2.195-0.014 0.795 0.532 1.55 1.946 2.016 0.798 0.261 1.008 0.425 1.008 0.768s-0.267 0.563-0.91 0.563zM23.427 14.746c0.56 0 0.938 0.096 1.19 0.206l0.336-1.55c-0.448-0.165-1.064-0.261-1.624-0.261-2.548 0-3.92 1.605-3.92 3.566 0 2.113 1.414 3.43 3.626 3.43 0.812 0 1.526-0.137 1.904-0.302l-0.252-1.537c-0.322 0.123-0.714 0.206-1.218 0.206-1.036 0-1.876-0.645-1.876-1.88-0.014-1.098 0.714-1.88 1.834-1.88z"></path>
</svg>
