<!-- Generated by IcoMoon.io -->
<svg version="1.1" xmlns="http://www.w3.org/2000/svg" width="32" height="32" viewBox="0 0 32 32">
<title>keycap-Ctrl</title>
<path d="M7.011 3h17.977c0.68 0 1.306 0.228 1.811 0.61l3.53-2.888c-0.656-0.441-1.459-0.722-2.329-0.722h-24c-0.802 0-1.547 0.238-2.173 0.62l3.163 3.163c0.535-0.485 1.243-0.784 2.021-0.784zM31.099 1.383l-3.61 2.953c0.322 0.479 0.51 1.056 0.51 1.676v17.477c0 0.739-0.267 1.416-0.71 1.94l4.056 4.979c0.413-0.617 0.654-1.416 0.654-2.407v-24.5c0-0.742-0.338-1.498-0.901-2.118zM24.988 26.5h-17.977c-0.697 0-1.335-0.238-1.845-0.635l-3.884 5.242c0.714 0.597 1.667 0.892 2.717 0.892h24c1.024 0 1.956-0.282 2.663-0.849l-4.137-5.077c-0.451 0.269-0.976 0.426-1.538 0.426zM4 23.488v-17.477c0-0.521 0.133-1.011 0.365-1.438l-3.329-3.329c-0.642 0.643-1.036 1.458-1.036 2.256v24.5c0 0.954 0.226 1.729 0.61 2.337l3.868-5.223c-0.301-0.469-0.478-1.026-0.478-1.625zM12.618 15.747c0.568 0 1.018 0.123 1.344 0.258l0.325-1.245c-0.284-0.145-0.914-0.309-1.742-0.309-2.142 0-3.864 1.318-3.864 3.685 0 1.976 1.26 3.468 3.706 3.468 0.861 0 1.522-0.154 1.816-0.299l-0.242-1.225c-0.315 0.123-0.85 0.227-1.333 0.227-1.428 0-2.268-0.875-2.268-2.264 0-1.544 0.986-2.295 2.256-2.295zM17.5 17.5v-1h-1v-1.473l-1.5 0.35v1.123h-1v1h1v2.178c0 0.71 0.095 1.194 0.389 1.492 0.252 0.258 0.656 0.433 1.171 0.433 0.451 0 0.817-0.052 1.026-0.134l-0.017-1.183c-0.116 0.020-0.257 0.041-0.456 0.041-0.483 0-0.614-0.278-0.614-0.885v-1.942h1zM19.5 21.5v-2.553c0-0.123 0.061-0.247 0.082-0.35 0.105-0.483 0.452-0.793 1.040-0.793 0.178 0 0.378 0.020 0.378 0.041v-1.472c0-0.020-0.111 0.032-0.259 0.032-0.493 0-1.046 0.093-1.308 1.093h-0.042l-0.052-1h-1.375c0.021 0.5 0.037 0.884 0.037 1.625v3.375h1.5zM21.5 14h1.5v7.5h-1.5v-7.5zM23.141 10.176l-3.604-4.029-0.042-0.037c-0.062-0.069-0.145-0.099-0.226-0.095-0.081-0.005-0.164 0.026-0.226 0.095l-0.525 0.581c-0.029 0.032-0.049 0.067-0.064 0.106l-3.056 3.38c-0.116 0.128-0.116 0.336 0 0.464l0.525 0.582c0.115 0.128 0.304 0.128 0.42 0l2.926-3.236 2.926 3.236c0.116 0.128 0.305 0.128 0.421 0l0.526-0.582c0.115-0.129 0.115-0.337-0.001-0.464z"></path>
</svg>
