<!-- Generated by IcoMoon.io -->
<svg version="1.1" xmlns="http://www.w3.org/2000/svg" width="32" height="32" viewBox="0 0 32 32">
<title>keycap-Shift</title>
<path d="M7.011 3h17.977c0.68 0 1.306 0.228 1.811 0.61l3.53-2.888c-0.656-0.441-1.459-0.722-2.329-0.722h-24c-0.802 0-1.547 0.238-2.173 0.62l3.163 3.163c0.535-0.485 1.243-0.784 2.021-0.784zM31.099 1.383l-3.61 2.953c0.322 0.479 0.51 1.056 0.51 1.676v17.477c0 0.739-0.267 1.416-0.71 1.94l4.056 4.979c0.413-0.617 0.654-1.416 0.654-2.407v-24.5c0-0.742-0.338-1.498-0.901-2.118zM24.988 26.5h-17.977c-0.697 0-1.335-0.238-1.845-0.635l-3.884 5.242c0.714 0.597 1.667 0.892 2.717 0.892h24c1.024 0 1.956-0.282 2.663-0.849l-4.137-5.077c-0.451 0.269-0.976 0.426-1.538 0.426zM4 23.488v-17.477c0-0.521 0.133-1.011 0.365-1.438l-3.329-3.329c-0.642 0.643-1.036 1.458-1.036 2.256v24.5c0 0.954 0.226 1.729 0.61 2.337l3.868-5.223c-0.301-0.469-0.478-1.026-0.478-1.625zM8.806 20.372c-0.65 0-1.28-0.206-1.691-0.412l-0.309 1.235c0.38 0.206 1.139 0.402 1.91 0.402 1.851 0 2.72-0.941 2.72-2.049 0-0.931-0.56-1.54-1.751-1.971-0.87-0.323-1.251-0.51-1.251-0.931 0-0.343 0.32-0.637 0.98-0.637s1.14 0.186 1.41 0.314l0.34-1.206c-0.4-0.177-0.96-0.334-1.72-0.334-1.591 0-2.55 0.863-2.55 1.99 0 0.96 0.73 1.569 1.851 1.951 0.809 0.284 1.13 0.52 1.13 0.931 0.001 0.432-0.37 0.716-1.070 0.716zM16.5 21.5v-2.804c0-1.441-0.732-2.098-1.703-2.098-0.28 0-0.566 0.181-0.786 0.299-0.241 0.128-0.437 0.103-0.597 0.603h0.085v-3h-1.5v7h1.5v-2.843c0-0.108-0.043-0.235-0.002-0.334 0.111-0.265 0.337-0.52 0.737-0.52 0.569 0 0.765 0.431 0.765 1.059v2.637h1.5zM17.995 14.617c-0.49 0-0.81 0.323-0.8 0.755-0.010 0.412 0.31 0.745 0.79 0.745 0.5 0 0.82-0.334 0.82-0.745-0.009-0.431-0.32-0.755-0.81-0.755zM17 16.5h2v5h-2v-5zM25.5 18v-1.5h-1.5v-1.166l-1.5 0.334v0.833h-1.5v-0.039c0-0.47 0.293-0.853 0.793-0.853 0.2 0 0.401 0.030 0.532 0.069l0.081-1.147c-0.21-0.059-0.46-0.098-0.8-0.098-0.439 0-1.038 0.127-1.418 0.48-0.441 0.392-0.688 1.029-0.688 1.608v-0.020h-0.5v1.5h0.5v3.5h1.5v-3.5h1.5v1.765c0 0.677 0.262 1.137 0.543 1.422 0.24 0.245 0.712 0.412 1.201 0.412 0.43 0 0.821-0.049 1.021-0.128l0.006-1.128c-0.11 0.020-0.37 0.039-0.56 0.039-0.46 0-0.71-0.265-0.71-0.843v-1.54h1.5zM20 8.5v4.5c0 0.272 0.065 0.5 0.362 0.5h2.88c0.297 0 0.258-0.228 0.258-0.5v-4.5h1.133c0.492 0 0.32-0.576 0.128-0.768l-2.611-2.662c-0.192-0.192-0.504-0.178-0.697 0.014l-2.611 2.64c-0.192 0.192-0.363 0.775 0.128 0.775h1.029z"></path>
</svg>
