<!-- Generated by IcoMoon.io -->
<svg version="1.1" xmlns="http://www.w3.org/2000/svg" width="32" height="32" viewBox="0 0 32 32">
<title>keycap-Num-Lk</title>
<path d="M9.036 12.451l1.44 2.549h1.524v-6.5h-1.5v1.823c0 0.99 0.206 1.677 0.306 2.677h-0.030c-0.3-0.5-0.7-1.476-1.101-2.171l-1.4-2.329h-1.776v6.5h1.5v-1.99c0-1.079-0.072-2.010-0.112-2.883l0.003-0.010c0.33 0.775 0.744 1.627 1.145 2.334zM16.076 14.5h0.030l0.070 0.5h1.32c-0.020-0.402 0.003-0.912 0.003-1.54v-3.46h-1.5v3.059c0 0.117-0.047 0.236-0.087 0.323-0.1 0.236-0.286 0.52-0.707 0.52-0.53 0-0.707-0.421-0.707-1.117v-2.784h-1.5v3.019c0 1.48 0.643 2.177 1.633 2.177 0.88 0 1.252-0.697 1.443-0.697zM25.5 15v-2.823c0-1.431-0.677-2.079-1.617-2.079-0.36 0-0.643 0.123-0.913 0.28-0.23 0.137-0.434 0.123-0.614 0.623h-0.020c-0.21-0.5-0.71-0.784-1.34-0.784-0.84 0-1.27 0.284-1.48 0.784h-0.030l-0.070-1h-1.279c0.020 0.5-0.135 1.137-0.135 1.736v3.264h1.5v-2.794c0-0.117 0.087-0.255 0.137-0.373 0.090-0.245 0.296-0.54 0.686-0.54 0.48 0 0.676 0.412 0.676 1.020v2.687h1.5v-2.804c0-0.117 0.073-0.274 0.113-0.383 0.099-0.284 0.333-0.52 0.683-0.52 0.49 0 0.703 0.402 0.703 1.098v2.608h1.5zM16 21.5h-3v-5h-1.5v6.5h4.5zM17.5 21.5l0.503-0.471 1.294 1.971h1.87l-2-2.956 1.75-2.044h-1.83l-0.99 1.431c-0.12 0.186-0.241 0.569-0.351 0.569h-0.245v-4h-1.5v7h1.5v-1.5zM7.011 3h17.977c0.68 0 1.306 0.228 1.811 0.61l3.53-2.888c-0.656-0.441-1.459-0.722-2.329-0.722h-24c-0.802 0-1.547 0.238-2.173 0.62l3.163 3.163c0.535-0.485 1.243-0.784 2.021-0.784zM31.099 1.383l-3.61 2.953c0.322 0.479 0.51 1.056 0.51 1.676v17.477c0 0.739-0.267 1.416-0.71 1.94l4.056 4.979c0.413-0.617 0.654-1.416 0.654-2.407v-24.5c0-0.742-0.338-1.498-0.901-2.118zM24.988 26.5h-17.977c-0.697 0-1.335-0.238-1.845-0.635l-3.884 5.242c0.714 0.597 1.667 0.892 2.717 0.892h24c1.024 0 1.956-0.282 2.663-0.849l-4.137-5.077c-0.451 0.269-0.976 0.426-1.538 0.426zM4 23.488v-17.477c0-0.521 0.133-1.011 0.365-1.438l-3.329-3.329c-0.642 0.643-1.036 1.458-1.036 2.256v24.5c0 0.954 0.226 1.729 0.61 2.337l3.868-5.223c-0.301-0.469-0.478-1.026-0.478-1.625z"></path>
</svg>
