<!-- Generated by IcoMoon.io -->
<svg version="1.1" xmlns="http://www.w3.org/2000/svg" width="32" height="32" viewBox="0 0 32 32">
<title>keycap-Enter</title>
<path d="M10 16v-1h-4.5v6.5h4.5v-1h-2.5v-2h2.5v-1h-2.5v-1.5zM15 21.5v-2.843c0-1.412-0.665-1.99-1.665-1.99-0.81 0-1.225 0.334-1.425 0.834h-0.030l-0.070-1h-1.32c0.020 0.5 0.010 1.137 0.010 1.735v3.264h1.5v-2.764c0-0.137 0.045-0.285 0.085-0.372 0.101-0.274 0.287-0.559 0.708-0.559 0.55 0 0.707 0.422 0.707 1.040v2.657h1.5zM18.5 18v-1.5h-1v-1.166l-1.5 0.334v0.833h-0.5v1.5h0.5v1.764c0 0.677 0.16 1.137 0.44 1.422 0.24 0.245 0.66 0.412 1.151 0.412 0.43 0 0.795-0.049 0.994-0.128l-0.008-1.128c-0.11 0.020-0.274 0.039-0.465 0.039-0.46 0-0.614-0.265-0.614-0.843v-1.539h1zM23.321 18.951c0-1.186-0.6-2.372-2.18-2.372-1.7 0-2.471 1.353-2.471 2.569 0 1.5 0.95 2.446 2.61 2.446 0.66 0 1.27-0.096 1.77-0.291l-0.2-1.009c-0.41 0.128-0.83 0.157-1.35 0.157-0.712 0-1.331-0.451-1.381-0.951h3.151c0.020 0 0.050-0.294 0.050-0.549zM20.11 18.5c0.040-0.5 0.3-0.971 0.941-0.971 0.7 0 0.86 0.471 0.86 0.971h-1.8zM25 21.5v-2.431c0-0.117 0.136-0.235 0.155-0.334 0.1-0.46 0.427-0.755 0.988-0.755 0.169 0 0.357 0.020 0.357 0.040v-1.402c0-0.020-0.064-0.064-0.204-0.064-0.47 0-0.955 0.446-1.205 0.946h-0.040l-0.050-1h-1.31c0.020 0.5-0.19 1.078-0.19 1.785v3.215h1.5zM7.011 3h17.977c0.68 0 1.306 0.228 1.811 0.61l3.53-2.888c-0.656-0.441-1.459-0.722-2.329-0.722h-24c-0.802 0-1.547 0.238-2.173 0.62l3.163 3.163c0.535-0.485 1.243-0.784 2.021-0.784zM31.099 1.383l-3.61 2.953c0.322 0.479 0.51 1.056 0.51 1.676v17.477c0 0.739-0.267 1.416-0.71 1.94l4.056 4.979c0.413-0.617 0.654-1.416 0.654-2.407v-24.5c0-0.742-0.338-1.498-0.901-2.118zM24.988 26.5h-17.977c-0.697 0-1.335-0.238-1.845-0.635l-3.884 5.242c0.714 0.597 1.667 0.892 2.717 0.892h24c1.024 0 1.956-0.282 2.663-0.849l-4.137-5.077c-0.451 0.269-0.976 0.426-1.538 0.426zM4 23.488v-17.477c0-0.521 0.133-1.011 0.365-1.438l-3.329-3.329c-0.642 0.643-1.036 1.458-1.036 2.256v24.5c0 0.954 0.226 1.729 0.61 2.337l3.868-5.223c-0.301-0.469-0.478-1.026-0.478-1.625zM23 10.25v-2.25c0-0.415-0.336-0.75-0.75-0.75s-0.75 0.335-0.75 0.75v1.5h-10.25l1.2-0.9c0.331-0.248 0.399-0.719 0.15-1.050s-0.718-0.398-1.050-0.15l-3 2.25c-0.006 0.005-0.009 0.011-0.015 0.015-0.049 0.039-0.095 0.082-0.135 0.135-0.003 0.004-0.005 0.008-0.008 0.012-0.007 0.009-0.011 0.020-0.018 0.030-0.034 0.052-0.060 0.106-0.079 0.162-0.005 0.012-0.009 0.024-0.013 0.037-0.019 0.066-0.029 0.133-0.030 0.199 0 0.012 0.002 0.024 0.002 0.037 0.002 0.069 0.012 0.136 0.033 0.201 0.001 0.002 0.001 0.005 0.002 0.008 0.001 0.001 0.001 0.002 0.001 0.002 0.023 0.066 0.056 0.129 0.098 0.188 0.008 0.011 0.015 0.023 0.024 0.034 0.040 0.051 0.084 0.099 0.138 0.139l3 2.25c0.136 0.101 0.293 0.15 0.45 0.15 0.228 0 0.453-0.104 0.601-0.3 0.248-0.332 0.181-0.802-0.15-1.050l-1.198-0.899h10.999c0.414 0 0.75-0.335 0.75-0.75z"></path>
</svg>
