<!-- Generated by IcoMoon.io -->
<svg version="1.1" xmlns="http://www.w3.org/2000/svg" width="32" height="32" viewBox="0 0 32 32">
<title>keycap-Back-space</title>
<path d="M11.072 13.47c0.42-0.334 0.735-0.804 0.735-1.402 0-0.853-0.806-1.421-1.306-1.627v-0.020c0.5-0.274 1.075-0.823 1.075-1.412 0-0.598-0.357-1.049-0.826-1.294-0.49-0.284-0.954-0.372-1.885-0.372-0.761 0-1.864 0.059-1.864 0.137v6.49c0 0.049 0.785 0.098 1.536 0.098 1.34 0.001 2.046-0.215 2.536-0.598zM8.5 8.47c0-0.020 0.21-0.040 0.54-0.040 0.691 0 1.025 0.26 1.025 0.76 0 0.49-0.485 0.809-1.284 0.809h-0.281v-1.53zM8.5 11h0.301c0.76 0 1.37 0.334 1.37 1 0 0.696-0.501 1-1.191 1-0.261 0-0.48 0-0.48 0v-2zM14.98 13.5l0.090 0.5h1.37c-0.050-0.264 0.059-0.706 0.059-1.166v-1.666c0-1.127-0.585-2.069-2.215-2.069-0.89 0-1.593 0.236-1.933 0.421l0.264 0.96c0.32-0.196 0.922-0.363 1.422-0.363 0.75 0 0.962 0.363 0.962 0.617v0.069c-2-0.010-2.95 0.588-2.95 1.833 0 0.764 0.55 1.461 1.54 1.461 0.58 0 1.040-0.098 1.361-0.598h0.030zM15 12.255c0 0.088-0.065 0.177-0.085 0.255-0.1 0.304-0.438 0.549-0.818 0.549-0.34 0-0.559-0.187-0.559-0.569 0-0.579 0.462-0.764 1.462-0.755v0.52zM20.741 13.883l-0.18-1.098c-0.23 0.088-0.51 0.147-0.87 0.147-0.74 0-1.34-0.46-1.34-1.343-0.011-0.784 0.51-1.344 1.31-1.344 0.4 0 0.671 0.069 0.85 0.147l0.24-1.107c-0.32-0.117-0.761-0.187-1.16-0.187-1.82 0-2.801 1.147-2.801 2.549 0 1.51 1.011 2.451 2.591 2.451 0.581 0 1.090-0.098 1.361-0.216zM21 7v7h1.5v-1.5l0.441-0.47 1.23 1.97h1.87l-2-2.956 1.75-2.044h-1.831l-0.99 1.431c-0.12 0.186-0.24 0.569-0.351 0.569h-0.12v-4h-1.5zM6.271 21.059c-0.45 0-1.030-0.196-1.311-0.363l-0.269 1.069c0.37 0.196 0.94 0.334 1.58 0.334 1.401 0 2.12-0.657 2.12-1.549-0.010-0.706-0.399-1.166-1.33-1.48-0.6-0.206-0.79-0.323-0.79-0.549 0-0.245 0.21-0.392 0.58-0.392 0.42 0 0.84 0.157 1.061 0.274l0.27-1.029c-0.3-0.147-0.809-0.274-1.38-0.274-1.21 0-1.99 0.677-1.99 1.569-0.011 0.569 0.38 1.108 1.389 1.441 0.571 0.186 0.721 0.304 0.721 0.549s-0.19 0.403-0.65 0.403zM10.5 24v-2.5h-0.149c0.22 0.5 0.68 0.578 1.27 0.578 1.091 0 2.22-0.809 2.22-2.554 0-1.529-0.96-2.37-2.030-2.37-0.71 0-1.27 0.346-1.63 0.846h-0.020l-0.070-1h-1.32c0.020 0.5 0.23 1.186 0.23 1.814v5.186h1.5zM10.5 19.285c0-0.088-0.075-0.186-0.055-0.265 0.1-0.441 0.438-0.755 0.867-0.755 0.68 0 1.009 0.579 1.009 1.343 0 0.814-0.401 1.353-1.061 1.353-0.44 0-0.71-0.303-0.81-0.706-0.021-0.088 0.049-0.196 0.049-0.314v-0.657zM14.050 20.637c0 0.764 0.55 1.461 1.54 1.461 0.58 0 1.041-0.098 1.361-0.598h0.030l0.090 0.5h1.37c-0.051-0.265 0.058-0.706 0.058-1.166v-1.666c0-1.128-0.585-2.069-2.215-2.069-0.89 0-1.593 0.235-1.933 0.422l0.264 0.96c0.32-0.196 0.922-0.363 1.422-0.363 0.75 0 0.962 0.363 0.962 0.617v0.069c-2-0.009-2.95 0.588-2.95 1.834zM17 19.735v0.52c0 0.088-0.064 0.177-0.085 0.255-0.099 0.304-0.438 0.549-0.817 0.549-0.34 0-0.559-0.186-0.559-0.569 0-0.578 0.461-0.765 1.461-0.755zM21.381 22.098c0.58 0 1.090-0.098 1.361-0.216l-0.18-1.098c-0.23 0.088-0.51 0.147-0.87 0.147-0.74 0-1.34-0.46-1.34-1.343-0.011-0.785 0.51-1.343 1.31-1.343 0.4 0 0.671 0.069 0.85 0.147l0.24-1.107c-0.32-0.117-0.761-0.186-1.16-0.186-1.82 0-2.801 1.147-2.801 2.549 0 1.511 1.011 2.451 2.591 2.451zM27.341 19.451c0-1.186-0.6-2.372-2.18-2.372-1.7 0-2.47 1.353-2.47 2.569 0 1.5 0.95 2.446 2.611 2.446 0.66 0 1.27-0.096 1.77-0.291l-0.2-1.009c-0.41 0.128-0.831 0.157-1.351 0.157-0.71 0-1.33-0.451-1.381-0.951h3.151c0.019 0 0.049-0.294 0.049-0.549zM24.13 19c0.040-0.5 0.301-0.971 0.941-0.971 0.7 0 0.86 0.471 0.86 0.971h-1.801zM7.011 3h17.977c0.68 0 1.306 0.228 1.811 0.61l3.53-2.888c-0.656-0.441-1.459-0.722-2.329-0.722h-24c-0.802 0-1.547 0.238-2.173 0.62l3.163 3.163c0.535-0.485 1.243-0.784 2.021-0.784zM31.099 1.383l-3.61 2.953c0.322 0.479 0.51 1.056 0.51 1.676v17.477c0 0.739-0.267 1.416-0.71 1.94l4.056 4.979c0.413-0.617 0.654-1.416 0.654-2.407v-24.5c0-0.742-0.338-1.498-0.901-2.118zM24.988 26.5h-17.977c-0.697 0-1.335-0.238-1.845-0.635l-3.884 5.242c0.714 0.597 1.667 0.892 2.717 0.892h24c1.024 0 1.956-0.282 2.663-0.849l-4.137-5.077c-0.451 0.269-0.976 0.426-1.538 0.426zM4 23.488v-17.477c0-0.521 0.133-1.011 0.365-1.438l-3.329-3.329c-0.642 0.643-1.036 1.458-1.036 2.256v24.5c0 0.954 0.226 1.729 0.61 2.337l3.868-5.223c-0.301-0.469-0.478-1.026-0.478-1.625z"></path>
</svg>
