<!-- Generated by IcoMoon.io -->
<svg version="1.1" xmlns="http://www.w3.org/2000/svg" width="32" height="32" viewBox="0 0 32 32">
<title>keycap-Pause-Break</title>
<path d="M6 12.137c0 0.020 0.316 0.030 0.516 0.030 0.901 0 1.667-0.216 2.188-0.696 0.4-0.373 0.618-0.921 0.618-1.569s-0.29-1.196-0.72-1.53c-0.45-0.353-1.111-0.529-2.051-0.529-0.93 0-1.551 0.059-2.051 0.137v6.52h1.5v-2.363zM6 9.030c0-0.030 0.316-0.059 0.625-0.059 0.76 0 1.188 0.363 1.188 0.97 0 0.677-0.497 1.079-1.306 1.079-0.221 0-0.507-0.010-0.507-0.040v-1.95zM12.22 14h0.030l0.090 0.5h1.37c-0.050-0.264-0.211-0.706-0.211-1.166v-1.666c0-1.127-0.449-2.069-2.080-2.069-0.889 0-1.525 0.236-1.865 0.421l0.298 0.96c0.32-0.196 0.803-0.363 1.304-0.363 0.75 0 0.844 0.363 0.844 0.617v0.069c-1.5-0.010-2.815 0.588-2.815 1.833 0 0.764 0.617 1.461 1.608 1.461 0.579 0 1.107-0.098 1.427-0.598zM12 12.236v0.52c0 0.088 0.070 0.177 0.051 0.255-0.101 0.304-0.37 0.549-0.75 0.549-0.341 0-0.661-0.187-0.661-0.569-0.001-0.579 0.86-0.765 1.36-0.755zM19 12.96v-3.46h-1.5v3.059c0 0.117-0.050 0.236-0.090 0.323-0.101 0.236-0.285 0.52-0.706 0.52-0.53 0-0.705-0.421-0.705-1.117v-2.784h-1.5v3.019c0 1.48 0.64 2.177 1.63 2.177 0.881 0 1.25-0.697 1.441-0.697h0.030l0.070 0.5h1.32c-0.021-0.402 0.008-0.912 0.008-1.54zM23.091 13.049c-0.011-0.706-0.401-1.166-1.33-1.48-0.601-0.206-0.791-0.323-0.791-0.549 0-0.245 0.21-0.393 0.58-0.393 0.421 0 0.84 0.157 1.060 0.274l0.27-1.030c-0.3-0.147-0.811-0.274-1.381-0.274-1.21 0-1.99 0.677-1.99 1.569-0.010 0.569 0.38 1.108 1.39 1.441 0.57 0.187 0.72 0.304 0.72 0.549s-0.189 0.402-0.65 0.402c-0.45 0-1.030-0.196-1.31-0.363l-0.27 1.069c0.37 0.196 0.941 0.334 1.581 0.334 1.401 0.001 2.121-0.656 2.121-1.548zM27.881 11.951c0-1.187-0.601-2.373-2.18-2.373-1.7 0-2.471 1.353-2.471 2.569 0 1.5 0.95 2.446 2.611 2.446 0.66 0 1.27-0.095 1.77-0.291l-0.2-1.008c-0.41 0.127-0.83 0.158-1.35 0.158-0.712 0-1.331-0.45-1.382-0.95h3.151c0.020 0 0.050-0.294 0.050-0.549zM24.67 11.5c0.040-0.5 0.3-0.97 0.941-0.97 0.7 0 0.861 0.47 0.861 0.97h-1.801zM9.091 21.971c0.42-0.334 0.724-0.804 0.724-1.402 0-0.853-0.816-1.422-1.316-1.628v-0.020c0.5-0.274 1.086-0.823 1.086-1.412 0-0.598-0.352-1.049-0.823-1.294-0.49-0.284-0.962-0.373-1.891-0.373-0.761 0-1.872 0.059-1.872 0.137v6.49c0 0.049 0.795 0.098 1.546 0.098 1.341 0 2.056-0.215 2.546-0.598zM6.5 16.971c0-0.020 0.22-0.040 0.55-0.040 0.69 0 1.031 0.26 1.031 0.76 0 0.49-0.481 0.809-1.28 0.809h-0.301v-1.529zM6.5 19.5h0.321c0.761 0 1.37 0.334 1.37 1 0 0.696-0.511 1-1.2 1-0.26 0-0.49 0-0.49 0v-2zM12 22.5v-2.431c0-0.117-0.090-0.235-0.070-0.334 0.101-0.46 0.54-0.755 1.101-0.755 0.17 0-0.030 0.020 0.47 0.040v-1.402c-0.5-0.020-0.29-0.064-0.429-0.064-0.47 0-1.18 0.446-1.43 0.946h-0.040l-0.050-1h-1.31c0.020 0.5 0.259 1.078 0.259 1.784v3.215h1.5zM17.87 19.951c0-1.186-0.6-2.372-2.18-2.372-1.7 0-2.47 1.353-2.47 2.569 0 1.5 0.95 2.446 2.611 2.446 0.66 0 1.27-0.096 1.77-0.291l-0.2-1.009c-0.41 0.128-0.83 0.157-1.35 0.157-0.711 0-1.332-0.451-1.381-0.951h3.151c0.020 0 0.049-0.294 0.049-0.549zM14.66 19.5c0.040-0.5 0.3-0.971 0.941-0.971 0.7 0 0.86 0.471 0.86 0.971h-1.8zM18.045 21.137c0 0.764 0.547 1.461 1.538 1.461 0.58 0 1.038-0.098 1.358-0.598h0.030l0.090 0.5h1.37c-0.050-0.265 0.069-0.706 0.069-1.166v-1.666c0-1.128-0.59-2.069-2.22-2.069-0.89 0-1.595 0.235-1.936 0.422l0.262 0.96c0.32-0.196 0.927-0.363 1.427-0.363 0.75 0 0.966 0.363 0.966 0.617v0.069c-2-0.009-2.956 0.588-2.956 1.834zM21 20.235v0.52c0 0.088-0.070 0.177-0.090 0.255-0.1 0.304-0.44 0.549-0.82 0.549-0.34 0-0.556-0.186-0.556-0.569 0-0.578 0.466-0.765 1.466-0.755zM7.011 3h17.977c0.68 0 1.306 0.228 1.811 0.61l3.53-2.888c-0.656-0.441-1.459-0.722-2.329-0.722h-24c-0.802 0-1.547 0.238-2.173 0.62l3.163 3.163c0.535-0.485 1.243-0.784 2.021-0.784zM31.099 1.383l-3.61 2.953c0.322 0.479 0.51 1.056 0.51 1.676v16.459l-1.98-2.926 1.75-2.044h-1.83l-0.99 1.431c-0.12 0.186-0.241 0.569-0.351 0.569h-0.1v-4h-1.5v7h1.5v-1.5l0.43-0.471 1.221 1.971h1.849v0.988c0 0.739-0.267 1.416-0.71 1.94l4.056 4.979c0.413-0.618 0.654-1.417 0.654-2.407v-24.5c0-0.742-0.338-1.498-0.901-2.118zM24.988 26.5h-17.977c-0.697 0-1.335-0.238-1.845-0.635l-3.884 5.242c0.714 0.597 1.667 0.892 2.717 0.892h24c1.024 0 1.956-0.282 2.663-0.849l-4.137-5.077c-0.451 0.269-0.976 0.426-1.538 0.426zM4 23.488v-17.477c0-0.521 0.133-1.011 0.365-1.438l-3.329-3.329c-0.642 0.643-1.036 1.458-1.036 2.256v24.5c0 0.954 0.226 1.729 0.61 2.337l3.868-5.223c-0.301-0.469-0.478-1.026-0.478-1.625z"></path>
</svg>
