<!-- Generated by IcoMoon.io -->
<svg version="1.1" xmlns="http://www.w3.org/2000/svg" width="32" height="32" viewBox="0 0 32 32">
<title>keytar</title>
<path d="M25.948 0.932l-0.47-0.552c-0.162-0.191-0.45-0.215-0.644-0.054s-0.218 0.445-0.055 0.634l0.327 0.384-0.552 0.27-0.576-0.675c-0.162-0.191-0.45-0.216-0.643-0.055-0.194 0.159-0.219 0.443-0.056 0.635l0.433 0.508-1.295 0.633-0.017 1.783-19.436 16.068 1.904 2.235-1.313 1.294 8.085 7.961 16.773-16.515-6.703-6.599 2.625-2.171 1.788 0.293 0.806-1.205 0.483 0.569c0.163 0.191 0.451 0.215 0.644 0.056 0.193-0.161 0.219-0.444 0.056-0.635l-0.659-0.774 0.344-0.513 0.432 0.507c0.163 0.191 0.451 0.215 0.644 0.056s0.218-0.444 0.055-0.635l-0.607-0.712 0.554-0.828-1.020-2.893-1.909 0.932zM23.011 15.568l1.556 1.533-2.236 2.202-1.556-1.533 0.564-0.555-2.762-2.719 1.184-1.167 2.762 2.72 0.489-0.481zM12.267 26.148l-2.761-2.719 1.184-1.166 2.761 2.719 0.516-0.509 1.557 1.533-2.264 2.229-1.556-1.532 0.563-0.555zM14.24 24.204l0.564-0.555-2.761-2.719 1.184-1.166 4.318 4.252-1.748 1.721-1.557-1.533zM13.501 19.494l1.184-1.166 2.761 2.719 0.516-0.509 1.557 1.533-1.701 1.675-4.319-4.252zM18.237 20.27l0.563-0.555-2.761-2.72 1.184-1.166 2.762 2.719 0.517-0.509 1.556 1.533-2.264 2.229-1.556-1.532zM10.713 18.863l3.095-3.049c0.146-0.145 0.386-0.145 0.533 0.001 0.146 0.143 0.146 0.379-0.001 0.524l-3.096 3.049c-0.146 0.145-0.385 0.145-0.531 0.001-0.148-0.146-0.148-0.38-0.001-0.526zM9.78 19.78c0.146-0.145 0.386-0.145 0.532 0s0.148 0.38 0 0.523c-0.146 0.145-0.386 0.145-0.532 0s-0.148-0.379 0-0.523zM9.008 20.542c0.147-0.145 0.386-0.145 0.532-0.001s0.148 0.38 0 0.524c-0.147 0.145-0.386 0.145-0.532-0.001-0.146-0.143-0.148-0.379 0-0.523zM8.235 21.302c0.147-0.145 0.386-0.145 0.532 0 0.148 0.145 0.148 0.38 0 0.523-0.146 0.145-0.385 0.145-0.531 0-0.148-0.143-0.148-0.378-0.001-0.523zM5.714 23.785l1.667-1.64c0.146-0.145 0.386-0.145 0.533 0.001 0.146 0.143 0.146 0.378 0 0.523l-1.667 1.642c-0.146 0.145-0.386 0.143-0.531 0-0.149-0.145-0.149-0.38-0.002-0.524zM7.090 25.808l1.063-1.047 2.761 2.719 0.517-0.509 1.556 1.533-1.579 1.555-4.317-4.252zM26.441 15.257l-1.599 1.574-1.556-1.533 0.59-0.58-2.761-2.72 1.009-0.994 4.317 4.253z"></path>
</svg>
