<!-- Generated by IcoMoon.io -->
<svg version="1.1" xmlns="http://www.w3.org/2000/svg" width="32" height="32" viewBox="0 0 32 32">
<title>knickers</title>
<path d="M31.026 9.424c-10.955 3.371-19.096 3.371-30.051 0-0.652 1.88-1.29 4.794-0.802 7.852 9.388 0.898 9.898 3.292 13.503 8.061 1.491 1.973 3.059 2.116 4.585 0.085 3.626-4.825 4.213-6.886 13.567-8.146 0.487-3.058-0.151-5.972-0.802-7.852zM2.078 8.184c5.074 1.562 9.498 2.342 13.922 2.342s8.848-0.78 13.922-2.342c0.827-0.255 1.291-1.131 1.037-1.959s-1.134-1.291-1.959-1.037c-9.478 2.916-16.524 2.916-26.002 0-0.828-0.255-1.704 0.21-1.958 1.037s0.21 1.704 1.037 1.959z"></path>
</svg>
