<!-- Generated by IcoMoon.io -->
<svg version="1.1" xmlns="http://www.w3.org/2000/svg" width="32" height="32" viewBox="0 0 32 32">
<title>knife</title>
<path d="M0.25 23.8c0 0 0.050-2.5 3.45-5.050l13.95-9.1 4.4 6.8c-5.5 3.9-11.3 6.45-18.85 7.9l-0.35 1.7c6.75-1.050 13.1-3.050 20.15-8.2l1.45 2.25c0 0-12.15 8.5-24.4 8.35l0.2-4.65zM21.9 13.55l4.55-2.95c1.15 0.65 2.65 0.65 3.85-0.15 1.7-1.15 2.2-3.45 1.1-5.2s-3.5-2.25-5.2-1.1l-7.3 4.75 3 4.65zM27.35 7.85c-0.3-0.5-0.2-1.15 0.3-1.45s1.15-0.2 1.45 0.3c0.3 0.5 0.2 1.15-0.3 1.45-0.5 0.35-1.15 0.2-1.45-0.3z"></path>
</svg>
