<!-- Generated by IcoMoon.io -->
<svg version="1.1" xmlns="http://www.w3.org/2000/svg" width="32" height="32" viewBox="0 0 32 32">
<title>knitted-cap</title>
<path d="M7.497 16.315c0.175 0 0.341 0.069 0.465 0.192l2.368 2.37 2.37-2.37c0.123-0.123 0.29-0.192 0.464-0.192s0.341 0.069 0.464 0.192l2.369 2.37 2.37-2.37c0.123-0.123 0.29-0.192 0.465-0.192s0.341 0.069 0.465 0.192l2.369 2.37 2.371-2.37c0.123-0.123 0.29-0.192 0.465-0.192s0.341 0.069 0.465 0.192l0.845 0.845c-1.58-4.878-4.203-9.11-7.305-10.649 0.804-0.7 1.314-1.73 1.314-2.881 0-2.111-1.712-3.822-3.823-3.822s-3.823 1.711-3.823 3.823c0 1.151 0.511 2.179 1.315 2.881-3.102 1.54-5.724 5.771-7.304 10.65l0.846-0.846c0.123-0.123 0.29-0.192 0.465-0.192zM27.217 23.763c-0.125-0.023-0.247-0.072-0.344-0.169l-2.369-2.37-2.37 2.37c-0.128 0.128-0.296 0.192-0.465 0.192-0.168 0-0.336-0.064-0.464-0.192l-2.369-2.37-2.369 2.37c-0.128 0.128-0.297 0.192-0.465 0.192s-0.336-0.064-0.464-0.192l-2.37-2.37-2.37 2.369c0 0 0 0-0.001 0-0.129 0.128-0.296 0.192-0.464 0.192s-0.337-0.064-0.466-0.192l-2.369-2.37-2.369 2.37c-0.097 0.098-0.22 0.146-0.345 0.169-0.13 1.107-0.199 2.204-0.199 3.27h22.832c-0.001-1.065-0.071-2.163-0.2-3.27zM7.497 19.638c0.175 0 0.341 0.070 0.465 0.192l2.368 2.37 2.37-2.37c0.123-0.123 0.29-0.192 0.464-0.192s0.341 0.070 0.464 0.192l2.369 2.37 2.37-2.37c0.123-0.123 0.29-0.192 0.465-0.192s0.341 0.070 0.465 0.192l2.369 2.37 2.371-2.37c0.123-0.123 0.29-0.192 0.465-0.192s0.341 0.070 0.465 0.192l1.957 1.957c-0.111-0.619-0.24-1.238-0.387-1.852l-2.034-2.035-2.37 2.37c-0.128 0.128-0.297 0.192-0.465 0.192s-0.336-0.064-0.464-0.192l-2.369-2.37-2.369 2.37c-0.128 0.128-0.296 0.192-0.465 0.192s-0.336-0.064-0.464-0.192l-2.37-2.37-2.37 2.369c0 0 0 0-0.001 0.001-0.129 0.128-0.296 0.192-0.464 0.192s-0.337-0.064-0.466-0.192l-2.369-2.37-2.035 2.036c-0.146 0.614-0.276 1.232-0.386 1.852l1.958-1.959c0.122-0.123 0.289-0.192 0.463-0.192zM27.372 27.902h-22.745c-0.699 0-1.266 0.567-1.266 1.266v1.567c0 0.699 0.567 1.265 1.266 1.265h22.745c0.699 0 1.267-0.567 1.267-1.266v-1.567c0-0.699-0.567-1.265-1.267-1.265z"></path>
</svg>
