<!-- Generated by IcoMoon.io -->
<svg version="1.1" xmlns="http://www.w3.org/2000/svg" width="32" height="32" viewBox="0 0 32 32">
<title>knitted-mittens</title>
<path d="M1.796 12.489c0.113-0.030 0.232-0.014 0.333 0.044l1.865 1.076 1.077-1.865c0.058-0.101 0.154-0.174 0.266-0.204 0.114-0.030 0.233-0.014 0.333 0.043l1.865 1.077 1.076-1.865c0.116-0.201 0.398-0.277 0.6-0.161l1.473 0.851-0.235-0.876-1.854-1.071-1.075 1.864c-0.061 0.104-0.158 0.175-0.267 0.204s-0.229 0.017-0.333-0.043l-1.865-1.077-1.075 1.865c-0.061 0.104-0.158 0.175-0.267 0.204s-0.228 0.017-0.333-0.043l-1.865-1.077-1.077 1.866 0.235 0.876 0.858-1.486c0.056-0.1 0.153-0.174 0.266-0.204zM1.24 10.413c0.113-0.030 0.232-0.014 0.333 0.044l1.865 1.076 1.076-1.864c0.058-0.101 0.154-0.175 0.266-0.205 0.113-0.030 0.233-0.014 0.333 0.044l1.864 1.076 1.076-1.864c0.117-0.202 0.399-0.277 0.6-0.161l1.46 0.842c-0.834-2.627-3.589-4.162-6.279-3.441-2.691 0.721-4.311 3.433-3.713 6.128l0.849-1.471c0.060-0.1 0.156-0.174 0.268-0.204zM14.707 12.453c-0.879-0.364-1.886 0.053-2.251 0.931l-0.787 1.771-0.661-2.467-1.854-1.070-1.075 1.864c-0.061 0.105-0.158 0.176-0.267 0.205-0.108 0.029-0.228 0.017-0.334-0.044l-1.865-1.077-1.076 1.865c-0.061 0.105-0.157 0.176-0.266 0.205s-0.229 0.017-0.333-0.043l-1.865-1.077-1.077 1.865 1.333 4.975c0.256 0.958 0.768 1.776 1.438 2.412l8.922-2.39c0.406-0.169 0.748-0.489 0.928-0.927l2.021-4.745c0.363-0.879-0.053-1.886-0.931-2.251zM13.361 21.038c-0.043-0.161-0.209-0.257-0.369-0.213l-9.060 2.427c-0.16 0.043-0.256 0.209-0.213 0.369l0.636 2.371c0.043 0.161 0.208 0.256 0.37 0.213l9.059-2.427c0.161-0.044 0.256-0.209 0.213-0.37l-0.634-2.371zM30.485 11.438l-1.864 1.077c-0.105 0.060-0.225 0.072-0.334 0.043s-0.206-0.1-0.267-0.204l-1.076-1.865-1.866 1.077c-0.105 0.060-0.225 0.072-0.334 0.043s-0.206-0.1-0.267-0.204l-1.075-1.864-1.855 1.071-0.235 0.876 1.474-0.851c0.201-0.116 0.483-0.040 0.599 0.161l1.076 1.865 1.866-1.077c0.101-0.058 0.22-0.074 0.334-0.043 0.112 0.030 0.208 0.104 0.266 0.204l1.076 1.865 1.865-1.076c0.101-0.058 0.22-0.074 0.333-0.044s0.209 0.104 0.266 0.204l0.858 1.486 0.235-0.876h-0l-1.076-1.867zM28.163 5.96c-2.689-0.721-5.445 0.814-6.279 3.441l1.459-0.842c0.201-0.117 0.483-0.041 0.599 0.161l1.076 1.864 1.864-1.076c0.101-0.059 0.221-0.075 0.334-0.044s0.209 0.104 0.267 0.205l1.076 1.864 1.866-1.076c0.101-0.059 0.22-0.075 0.333-0.044s0.209 0.104 0.267 0.204l0.849 1.471c0.599-2.694-1.020-5.407-3.712-6.128zM29.929 13.514l-1.865 1.077c-0.105 0.061-0.224 0.073-0.334 0.043s-0.206-0.1-0.267-0.205l-1.076-1.865-1.864 1.077c-0.106 0.061-0.226 0.073-0.334 0.044-0.109-0.030-0.206-0.1-0.267-0.205l-1.075-1.864-1.855 1.070-0.66 2.467-0.788-1.771c-0.364-0.879-1.372-1.296-2.251-0.931-0.878 0.364-1.294 1.372-0.93 2.251l2.021 4.745c0.181 0.438 0.523 0.759 0.928 0.927l8.922 2.39c0.67-0.636 1.182-1.454 1.439-2.412l1.333-4.975h-0l-1.077-1.864zM28.068 23.253l-9.059-2.427c-0.16-0.043-0.326 0.052-0.369 0.213l-0.636 2.371c-0.043 0.162 0.052 0.326 0.213 0.37l9.059 2.427c0.161 0.043 0.326-0.052 0.369-0.213l0.636-2.371c0.043-0.161-0.052-0.326-0.213-0.369z"></path>
</svg>
