<!-- Generated by IcoMoon.io -->
<svg version="1.1" xmlns="http://www.w3.org/2000/svg" width="32" height="32" viewBox="0 0 32 32">
<title>kpi</title>
<path d="M30 0h-28c-1.105 0-2 0.895-2 2v28c0 1.105 0.895 2 2 2h28c1.105 0 2-0.895 2-2v-28c0-1.105-0.895-2-2-2zM30 29c0 0.552-0.448 1-1 1h-26c-0.552 0-1-0.448-1-1v-26c0-0.552 0.448-1 1-1h26c0.552 0 1 0.448 1 1v26zM24.886 9.761c0 0.694-0.23 1.334-0.614 1.851l2.215 2.215c0.942-1.091 1.513-2.511 1.513-4.066 0-1.012-0.243-1.968-0.672-2.813-0.015 0.013-0.032 0.026-0.049 0.037l-2.63 1.589c0.152 0.366 0.236 0.767 0.236 1.187zM21.802 15.989c1.605 0 3.052-0.607 4.157-1.604l-2.215-2.208c-0.536 0.436-1.226 0.698-1.97 0.698-1.72 0-3.055-1.395-3.055-3.114 0-1.588 1.283-2.895 2.783-3.087v-3.127c-3.5 0.201-5.898 2.906-5.898 6.214-0.001 3.439 2.759 6.228 6.198 6.228zM24.183 7.897l2.655-1.58c0.021-0.013-0.018-0.022 0.003-0.030-1.050-1.56-2.341-2.618-4.841-2.741v3.127c1 0.107 1.689 0.564 2.183 1.224zM26.733 19.28c-0.126-0.291-0.421-0.479-0.736-0.465-0.318 0.012-0.596 0.217-0.7 0.517l-2.249 6.465-2.061-7.947c-0.085-0.332-0.381-0.567-0.724-0.577s-0.652 0.209-0.756 0.536l-2.468 7.712-2.262-5.090c-0.114-0.253-0.352-0.426-0.628-0.454-0.272-0.027-0.544 0.094-0.704 0.319l-3.243 4.541-1.682-2.242c-0.129-0.172-0.325-0.283-0.539-0.305-0.215-0.023-0.428 0.047-0.589 0.191l-3.47 3.084c-0.32 0.282-0.348 0.77-0.065 1.088s0.771 0.347 1.088 0.064l2.845-2.527 1.81 2.414c0.147 0.197 0.373 0.308 0.626 0.308 0.246-0.003 0.476-0.123 0.619-0.323l3.072-4.3 2.536 5.708c0.131 0.292 0.433 0.474 0.747 0.456 0.32-0.017 0.596-0.23 0.693-0.535l2.273-7.101 2.030 7.718c0.085 0.329 0.376 0.465 0.715 0.465 0.011 0 0.021 0 0.032 0 0.327 0 0.62-0.094 0.728-0.405l2.434-6.942 0.757 1.778c0.169 0.39 0.622 0.584 1.014 0.416s0.57-0.608 0.402-1l-1.544-3.567zM4.5 6.5h6c0.552 0 1-0.448 1-1s-0.448-1-1-1h-6c-0.552 0-1 0.448-1 1s0.448 1 1 1zM4.5 11h8.5c0.552 0 1-0.448 1-1s-0.448-1-1-1h-8.5c-0.552 0-1 0.448-1 1s0.448 1 1 1zM4.5 15.5h3.5c0.552 0 1-0.448 1-1s-0.448-1-1-1h-3.5c-0.552 0-1 0.448-1 1s0.448 1 1 1z"></path>
</svg>
