<!-- Generated by IcoMoon.io -->
<svg version="1.1" xmlns="http://www.w3.org/2000/svg" width="32" height="32" viewBox="0 0 32 32">
<title>lane-departure-warning</title>
<path d="M11.45 6h-2.95c-0.35 0-0.65 0.15-0.95 0.6l-7.25 17.85c-0.15 0.4-0.2 0.95 0.3 1.15h0.75c0 0 0 0 0 0h0.4c0 0 0 0 0 0h0.75c0 0 0 0 0 0l2.25-0.050c0.6 0 0.85-0.55 1-0.95l5.95-17.35c0.2-0.35 0.3-1.25-0.25-1.25zM31.7 24.5l-7.2-17.9c-0.25-0.45-0.55-0.6-0.95-0.6h-2.95c-0.55 0-0.45 0.9-0.3 1.3l5.95 17.3c0.15 0.4 0.4 1 1 1l2.25 0.050c0 0 0 0 0 0h0.75c0 0 0 0 0 0h0.4c0 0 0 0 0 0h0.75c0.5-0.2 0.5-0.7 0.3-1.15zM17.75 20.5h-4.8l-0.35 5.5h6.5l-0.35-5.5zM14.6 9.5h3.55l-0.25-3.5h-4.15l-0.2 3.5h1zM14.15 17h4.45l-0.3-4.5h-4.9l-0.3 4.5h1z"></path>
</svg>
