<!-- Generated by IcoMoon.io -->
<svg version="1.1" xmlns="http://www.w3.org/2000/svg" width="32" height="32" viewBox="0 0 32 32">
<title>language</title>
<path d="M7.038 9.5c0.282 1 0.887 1.991 1.806 3.058 0.786-1.021 1.325-2.058 1.609-3.058h-3.415zM29 8.5h-11.971l-0.529-4.5c0-0.552-0.448-1-1-1h-14.5c-0.552 0-1 0.448-1 1v17c0 0.552 0.448 1 1 1h11.281l0.727 4.216c0.111 1.553 1.41 2.784 2.992 2.784h13c1.654 0 3-1.346 3-3v-14.5c0-1.655-1.346-3-3-3zM14.652 18.962c-0.035 0-0.072-0.006-0.108-0.015-1.925-0.491-3.814-1.492-5.622-2.979-1.882 1.564-3.845 2.66-5.839 3.262-0.042 0.013-0.084 0.017-0.126 0.017-0.177 0-0.343-0.114-0.408-0.288l-0.521-1.399c-0.043-0.114-0.036-0.26 0.019-0.369s0.154-0.229 0.271-0.262c1.833-0.518 3.511-1.466 4.994-2.659-1.155-1.351-1.973-2.77-2.436-4.77h-2.44c-0.24 0-0.436 0.12-0.436-0.121v-1.378c0-0.24 0.196-0.5 0.436-0.5h4.564v-1.7c0-0.24 0.753-0.8 0.994-0.8h1.274c0.029 0-0.008 0.185 0.021 0.191 0.376 0.075 0.527 0.429 0.579 0.692s0.133 0.463-0.367 0.594v1.022h5.442c0.241 0 0.058 0.26 0.058 0.5v1.378c0 0.074 0.017 0.112 0.034 0.132-0.020-0.005-0.046-0.011-0.092-0.011h-2.361c-0.338 2-1.071 3.322-2.187 4.758 1.256 1.012 2.899 1.942 4.887 2.457 0.12 0.031 0.22 0.111 0.278 0.221 0.056 0.11 0.065 0.238 0.021 0.354l-0.521 1.39c-0.065 0.174-0.23 0.283-0.408 0.283zM30 26c0 0.552-0.448 1-1 1h-13c-0.186 0-0.358-0.054-0.507-0.142l2.403-4.657-0.896 2.299h2.393l0.922-2.5h4.466l0.976 2.5h2.454l-4.474-11h-2.386l-2.883 7.317-1.204-10.318h11.735c0.552 0 1 0.448 1 1v14.5zM21.009 20l1.509-4.146 1.539 4.146h-3.048z"></path>
</svg>
