<!-- Generated by IcoMoon.io -->
<svg version="1.1" xmlns="http://www.w3.org/2000/svg" width="32" height="32" viewBox="0 0 32 32">
<title>laptop</title>
<path d="M4.759 23h22.482c1.523 0 2.759-1.235 2.759-2.759v-12.982c0-1.524-1.236-2.759-2.759-2.759h-22.482c-1.524 0-2.759 1.235-2.759 2.759v12.983c0 1.523 1.236 2.759 2.759 2.759zM4 7.484c0-0.465 0.635-0.984 1.157-0.984h21.688c0.521 0 1.156 0.518 1.156 0.984v12.776c0 0.465-0.634 0.741-1.156 0.741h-21.688c-0.522 0-1.157-0.276-1.157-0.741v-12.776zM0 25.765c0-0.003 0.001-0.006 0.001-0.009s-0.001-0.005-0.001-0.008v0.016zM30.698 24.5h-29.396c-0.716 0-1.296 0.535-1.302 1.25 0.004 0.715 0.585 1.25 1.302 1.25h29.396c0.716 0 1.297-0.535 1.302-1.25-0.005-0.715-0.585-1.25-1.302-1.25zM17.84 26h-3.678c-0.196 0-0.162-0.047-0.162-0.242s-0.034-0.258 0.161-0.258h3.678c0.195 0 0.161 0.063 0.161 0.258s0.035 0.242-0.16 0.242zM32 25.758c0 0.003 0 0.006 0 0.009v-0.017c0 0.003-0 0.005-0 0.008z"></path>
</svg>
