<!-- Generated by IcoMoon.io -->
<svg version="1.1" xmlns="http://www.w3.org/2000/svg" width="32" height="32" viewBox="0 0 32 32">
<title>layers</title>
<path d="M0.54 13.094l13.989 9.533c0.692 0.471 1.813 0.471 2.505 0l13.989-9.533c0.692-0.471 0.692-1.236 0-1.707l-13.989-9.533c-0.692-0.472-1.813-0.472-2.505 0l-13.988 9.533c-0.692 0.472-0.692 1.236 0 1.707zM31.022 19.572l-2.864-1.951-11.125 7.582c-0.692 0.471-1.813 0.471-2.505 0l-11.124-7.582-2.864 1.951c-0.692 0.471-0.692 1.236 0 1.707l13.989 9.534c0.692 0.471 1.813 0.471 2.505 0l13.989-9.534c0.691-0.471 0.691-1.236-0-1.707z"></path>
</svg>
