<!-- Generated by IcoMoon.io -->
<svg version="1.1" xmlns="http://www.w3.org/2000/svg" width="32" height="32" viewBox="0 0 32 32">
<title>layers-clear</title>
<path d="M0.759 13.428l5.604 3.501 15.369-11.369-4.48-3.372c-0.692-0.472-1.813-0.472-2.505 0l-13.988 9.533c-0.692 0.472-0.692 1.236 0 1.707zM14.748 22.961c0.692 0.471 1.813 0.471 2.505 0l13.988-9.533c0.692-0.471 0.692-1.236 0-1.707l-2.837-1.934 3.177-2.356c0.427-0.309 0.303-1.067-0.033-1.534l-1.433-1.909c-0.337-0.466-0.901-0.737-1.329-0.428l-28.246 20.948c-0.427 0.308-0.529 0.899-0.192 1.365l1.653 2.291c0.337 0.467 0.906 0.524 1.333 0.215l3.756-2.785 7.657 5.219c0.692 0.471 1.813 0.471 2.505 0l13.989-9.534c0.692-0.471 0.692-1.236 0-1.707l-2.864-1.951-11.125 7.582c-0.692 0.471-1.813 0.471-2.505 0l-3.716-2.532 1.575-1.168 2.14 1.458z"></path>
</svg>
