<!-- Generated by IcoMoon.io -->
<svg version="1.1" xmlns="http://www.w3.org/2000/svg" width="32" height="32" viewBox="0 0 32 32">
<title>legend</title>
<path d="M30.063 0h-28.125c-0.518 0-0.938 0.419-0.938 0.938v30.125c0 0.517 0.42 0.937 0.938 0.937h28.126c0.517 0 0.936-0.42 0.936-0.938v-30.125c0-0.518-0.42-0.938-0.938-0.938zM3 2h26v28h-26v-28zM8.25 4c-1.795 0-3.25 1.455-3.25 3.25s1.455 3.25 3.25 3.25 3.25-1.455 3.25-3.25-1.455-3.25-3.25-3.25zM8.25 9.2c-1.077 0-1.95-0.873-1.95-1.95s0.873-1.95 1.95-1.95 1.95 0.873 1.95 1.95-0.873 1.95-1.95 1.95zM11.5 24.75c0 1.795-1.455 3.25-3.25 3.25s-3.25-1.455-3.25-3.25c0-1.795 1.455-3.25 3.25-3.25s3.25 1.455 3.25 3.25zM8.25 12.5c-1.795 0-3.25 1.455-3.25 3.25s1.455 3.25 3.25 3.25 3.25-1.455 3.25-3.25-1.455-3.25-3.25-3.25zM8.5 17.675c-0.070 0.015-0.149 0.026-0.25 0.026-1.077 0-1.95-0.873-1.95-1.95s0.873-1.95 1.95-1.95c0.101 0 0.18 0.010 0.25 0.025v3.85zM16.239 8.335c-0.002 0.014-0.001 0.029-0.003 0.043-0.022 0.684 0.745 0.799 1.285 0.746 0.704-0.069 1.376-0.217 1.992-0.584 0.142-0.085 0.331-0.248 0.533-0.427 0.099 0.528 0.386 0.836 1.517 0.905 1.994 0.121 3.838-0.931 5.358-2.111 1.555-1.207-0.861-1.8-1.845-1.035-0.563 0.437-1.111 0.823-1.75 1.149-0.719 0.366-0.451-0.597-0.52-1.019-0.080-0.495-0.91-0.577-1.277-0.512-0.691 0.122-1.363 0.253-1.963 0.644-0.128 0.083-0.282 0.215-0.448 0.359-0.021-0.199-0.050-0.399-0.094-0.605-0.167-0.788-1.58-0.529-2.047-0.306-1.246 0.595-2.563 1.265-3.342 2.445-0.753 1.143 1.816 1.062 2.603 0.307zM25.078 14.373c-0.563 0.437-1.111 0.823-1.75 1.149-0.719 0.366-0.451-0.597-0.52-1.020-0.080-0.495-0.91-0.576-1.277-0.512-0.691 0.121-1.363 0.252-1.963 0.644-0.128 0.084-0.282 0.215-0.448 0.359-0.021-0.198-0.050-0.399-0.094-0.605-0.167-0.788-1.58-0.529-2.047-0.306-1.246 0.595-2.563 1.265-3.342 2.445-0.755 1.143 1.816 1.063 2.601 0.308-0.002 0.014-0.001 0.029-0.003 0.043-0.022 0.683 0.745 0.799 1.285 0.746 0.704-0.070 1.376-0.218 1.992-0.584 0.142-0.084 0.331-0.247 0.533-0.427 0.099 0.528 0.386 0.837 1.518 0.905 1.994 0.121 3.838-0.93 5.358-2.111 1.556-1.207-0.859-1.8-1.843-1.036zM25.078 23.873c-0.563 0.436-1.111 0.823-1.75 1.149-0.719 0.366-0.451-0.597-0.52-1.019-0.080-0.495-0.91-0.577-1.277-0.512-0.691 0.122-1.363 0.253-1.963 0.644-0.128 0.084-0.282 0.215-0.448 0.359-0.021-0.198-0.050-0.399-0.094-0.605-0.167-0.788-1.58-0.529-2.047-0.305-1.246 0.595-2.563 1.265-3.342 2.445-0.755 1.143 1.816 1.063 2.601 0.308-0.002 0.014-0.001 0.029-0.003 0.043-0.022 0.683 0.745 0.799 1.285 0.746 0.704-0.070 1.376-0.218 1.992-0.584 0.142-0.084 0.331-0.247 0.533-0.427 0.099 0.528 0.386 0.837 1.518 0.905 1.994 0.121 3.838-0.93 5.358-2.111 1.556-1.208-0.859-1.8-1.843-1.036z"></path>
</svg>
