<!-- Generated by IcoMoon.io -->
<svg version="1.1" xmlns="http://www.w3.org/2000/svg" width="32" height="32" viewBox="0 0 32 32">
<title>lemon</title>
<path d="M28.85 9.65l-1.55-0.35c-0.95-0.2-2.95-1.75-2.95-1.75-3.1-2.35-7.55-2.8-11.95-1.050s-7.35 5.25-8 9.1c0 0-0.4 2.35-0.95 3.15l-0.9 1.3c-0.5 0.95-0.050 2 0.9 2.3l1.5 0.35c0.8 0.2 2.3 1.25 2.7 1.55 3.1 2.4 7.8 3.050 12.25 1.3s7.5-5.45 8.1-9.35c0.1-0.45 0.45-2.25 0.9-2.95l0.85-1.3c0.5-0.9 0.1-1.95-0.9-2.3zM12 11.5c-1.5 1.25-2.55 2.95-3 4.85-0.15 0.6-0.7 1-1.3 0.9s-1.050-0.8-0.9-1.55c0.55-2.3 1.85-4.4 3.65-5.95 0.6-0.5 1.4-0.4 1.75 0.1 0.4 0.6 0.25 1.25-0.2 1.65z"></path>
</svg>
