<!-- Generated by IcoMoon.io -->
<svg version="1.1" xmlns="http://www.w3.org/2000/svg" width="32" height="32" viewBox="0 0 32 32">
<title>level</title>
<path d="M19 12.174c0-0.372-0.302-0.674-0.674-0.674h-4.652c-0.371 0-0.674 0.302-0.674 0.674v1.153c0 0.371 0.302 0.673 0.674 0.673h4.652c0.372 0 0.674-0.302 0.674-0.674v-1.153zM7 14.553c0-0.306-0.248-0.553-0.553-0.553h-0.893c-0.306 0-0.553 0.248-0.553 0.553v3.892c0 0.306 0.248 0.554 0.553 0.554h0.893c0.306 0 0.553-0.248 0.553-0.553v-3.893zM27.5 14.553c0-0.306-0.248-0.553-0.553-0.553h-0.893c-0.305 0-0.553 0.248-0.553 0.553v3.892c0 0.306 0.248 0.554 0.553 0.554h0.893c0.305 0 0.553-0.248 0.553-0.553v-3.893zM31.241 11.5h-10.741v1.555c0 0.838-0.89 1.445-1.729 1.445h-5.392c-0.838 0-1.88-0.608-1.88-1.445v-1.555h-10.59c-0.503 0-0.91 0.466-0.91 0.969v7.532c0 0.503 0.407 0.999 0.91 0.999h30.331c0.503 0 0.759-0.497 0.759-0.999v-7.532c0-0.502-0.256-0.969-0.759-0.969zM5.796 19.615c-1.814 0-3.286-1.471-3.286-3.285s1.471-3.286 3.286-3.286 3.286 1.471 3.286 3.286c0 1.814-1.471 3.285-3.286 3.285zM12 20h-1v-2.5h1v2.5zM15 20h-1v-2.5h1v2.5zM18 20h-0.5v-2.5h0.5v2.5zM21 20h-0.5v-2.5h0.5v2.5zM26.355 19.615c-1.814 0-3.286-1.471-3.286-3.285s1.471-3.286 3.286-3.286 3.286 1.471 3.286 3.286c0 1.814-1.471 3.285-3.286 3.285z"></path>
</svg>
