<!-- Generated by IcoMoon.io -->
<svg version="1.1" xmlns="http://www.w3.org/2000/svg" width="32" height="32" viewBox="0 0 32 32">
<title>library</title>
<path d="M31.085 23h-1.085v-0.952c0-0.334-0.023-0.548-0.357-0.548h-1.643v-5.5h0.834c0.831 0 0.816-0.752 0.494-0.944 0 0-0.761-0.599-1.723-1.14-0.142-0.079-0.288 0.084-0.436-0.416h-4.669v-2.249c0-0.049-0.046-0.095-0.052-0.143 0.885-0.024 0.844-0.713 0.488-0.925 0 0-5.649-3.178-6.3-3.522-0.113-0.060-0.296-0.161-0.503-0.161s-0.387 0.101-0.5 0.161c-0.652 0.344-6.292 3.522-6.292 3.522-0.355 0.212-0.294 0.9 0.591 0.925-0.008 0.047 0.069 0.094 0.069 0.143v2.249h-4.915c-0.149 0.5-0.295 0.277-0.437 0.357-0.962 0.541-1.722 1.145-1.722 1.145-0.322 0.191-0.337 0.998 0.494 0.998h0.581v5.5h-1.389c-0.335 0-0.611 0.214-0.611 0.548v0.952h-1.058c-0.402 0-0.943 0.452-0.943 0.855v1.645h32v-1.645c0-0.402-0.512-0.855-0.915-0.855zM8.5 19.706c0 0.162-0.132 0.294-0.294 0.294h-1.912c-0.162 0-0.294-0.132-0.294-0.294v-2.912c0-0.162 0.132-0.294 0.294-0.294h1.912c0.162 0 0.294 0.132 0.294 0.294v2.912zM17 13.268c0 0.129-0.104 0.232-0.232 0.232h-1.536c-0.128 0-0.232-0.104-0.232-0.232v-1.535c0-0.129 0.104-0.232 0.232-0.232h1.536c0.128 0 0.232 0.104 0.232 0.232v1.535zM12.5 19.706c0 0.162-0.132 0.294-0.294 0.294h-1.912c-0.162 0-0.294-0.132-0.294-0.294v-2.912c0-0.162 0.132-0.294 0.294-0.294h1.912c0.162 0 0.294 0.132 0.294 0.294v2.912zM14 13.268c0 0.129-0.104 0.232-0.232 0.232h-1.535c-0.129 0-0.232-0.104-0.232-0.232v-1.535c0-0.129 0.104-0.232 0.232-0.232h1.535c0.129 0 0.232 0.104 0.232 0.232v1.535zM18 23.5h-3.5v-4.328c0-0.985 0.765-1.784 1.75-1.784s1.75 0.799 1.75 1.784v4.328zM20.5 13.268c0 0.129-0.104 0.232-0.232 0.232h-1.536c-0.128 0-0.232-0.104-0.232-0.232v-1.535c0-0.129 0.104-0.232 0.232-0.232h1.536c0.128 0 0.232 0.104 0.232 0.232v1.535zM22.5 19.706c0 0.162-0.131 0.294-0.294 0.294h-1.913c-0.162 0-0.294-0.132-0.294-0.294v-2.912c0-0.162 0.131-0.294 0.294-0.294h1.913c0.162 0 0.294 0.132 0.294 0.294v2.912zM26.5 19.706c0 0.162-0.132 0.294-0.294 0.294h-1.912c-0.162 0-0.294-0.132-0.294-0.294v-2.912c0-0.162 0.132-0.294 0.294-0.294h1.912c0.162 0 0.294 0.132 0.294 0.294v2.912z"></path>
</svg>
