<!-- Generated by IcoMoon.io -->
<svg version="1.1" xmlns="http://www.w3.org/2000/svg" width="32" height="32" viewBox="0 0 32 32">
<title>lifting</title>
<path d="M9.261 28.619c0 1.867-1.514 3.381-3.38 3.381s-3.381-1.514-3.381-3.381c0-1.867 1.514-3.381 3.381-3.381s3.38 1.514 3.38 3.381zM26.372 24.032c0.226 0 0.628 0.022 0.628 0.053v-2.712c0-0.266-0.145-0.372-0.411-0.372h-1.502l-6.429-3.543 6.68-3.652c0.437-0.237 0.668-0.72 0.622-1.185 0.046-0.466-0.184-0.941-0.622-1.178l-6.68-3.508 6.544-3.434h1.752c0.275 0 0.546-0.463 0.546-0.739v-3.095c0-0.275-0.271-0.666-0.547-0.666h-21.62c-0.274 0-0.333 0.392-0.333 0.666v3.095c0 0.276 0.059 0.739 0.333 0.739h1.752l6.544 3.431-6.679 3.565c-0.437 0.237-0.668 0.676-0.622 1.142-0.046 0.466 0.184 0.919 0.622 1.156l6.679 3.671-6.429 3.535h-1.502c-0.266 0-0.698 0.107-0.698 0.373v2.712c0.5-0.032 0.546-0.053 0.772-0.053 2.534 0 4.642 2.011 4.642 4.545 0 0.331 0.017 0.923-0.050 0.923h11.558c-0.067 0-0.121-0.591-0.121-0.923 0-2.534 2.037-4.546 4.57-4.546zM12.114 4.5h8.060l-4.030 2.187-4.029-2.187zM9.819 12.607l6.324-3.431 6.325 3.431-6.325 3.432-6.325-3.432zM12.229 21l3.915-2.125 3.915 2.125h-7.83zM29.787 28.619c0 1.867-1.514 3.381-3.381 3.381s-3.381-1.514-3.381-3.381c0-1.867 1.514-3.381 3.381-3.381s3.381 1.514 3.381 3.381z"></path>
</svg>
