<!-- Generated by IcoMoon.io -->
<svg version="1.1" xmlns="http://www.w3.org/2000/svg" width="32" height="32" viewBox="0 0 32 32">
<title>light-bulb</title>
<path d="M21 22.254c0-0.416-0.429-0.754-0.959-0.754h-8.082c-0.53 0-0.959 0.337-0.959 0.754v0.992c0 0.416 0.429 0.754 0.959 0.754h8.082c0.53 0 0.959-0.337 0.959-0.754v-0.992zM21 25.753c0-0.416-0.429-0.753-0.959-0.753h-8.082c-0.53 0-0.959 0.337-0.959 0.753v0.993c0 0.416 0.429 0.753 0.959 0.753h8.082c0.53 0 0.959-0.337 0.959-0.753v-0.993zM12.5 29.298c0 0.416 0.83 1.202 1.163 1.202h0.999c0.245 0.5 0.861 1.5 1.583 1.5s1.337-1 1.582-1.5h0.999c0.334 0 1.173-0.785 1.173-1.202v-0.298h-7.5v0.298zM16.245 0c-5.361 0-9.707 4.21-9.707 9.212 0 6.197 5.087 7.565 5.087 9.228 0 1.282 0.374 1.575 1.374 1.642v-7.784c-0.5-0.207-0.806-0.765-0.806-1.423 0-0.834 0.777-1.511 1.611-1.511s1.607 0.677 1.607 1.511c0 0.658-0.412 1.216-0.912 1.423v7.701h3.359c0.075 0 0.14 0 0.14 0v-7.7c-0.5-0.208-0.967-0.766-0.967-1.424 0-0.834 0.697-1.511 1.53-1.511 0.835 0 1.478 0.677 1.478 1.511 0 0.658-0.541 1.216-1.041 1.423v7.767c1-0.094 1.619-0.428 1.619-1.626 0-1.674 5.311-2.713 5.311-9.228 0-5.003-4.323-9.212-9.684-9.212z"></path>
</svg>
