<!-- Generated by IcoMoon.io -->
<svg version="1.1" xmlns="http://www.w3.org/2000/svg" width="32" height="32" viewBox="0 0 32 32">
<title>lime</title>
<path d="M12.1 6.25c-1.15 0.25-2.25 0.7-3.2 1.3-0.55 0.35-0.6 1.15-0.15 1.6l2.75 2.75c0.65 0.65 1.8 0.2 1.8-0.75v-3.9c0-0.65-0.6-1.15-1.2-1zM6.15 14.3h3.7c0.95 0 1.4-1.15 0.75-1.8l-2.6-2.55c-0.45-0.45-1.25-0.4-1.6 0.15-0.6 0.9-1 1.9-1.25 3-0.15 0.6 0.35 1.2 1 1.2zM10 15.4h-3.9c-0.65 0-1.15 0.6-1.050 1.2 0.2 1.15 0.65 2.25 1.3 3.25 0.35 0.55 1.15 0.6 1.6 0.15l2.8-2.8c0.65-0.65 0.2-1.8-0.75-1.8zM16.2 11.75l2.65-2.65c0.5-0.5 0.4-1.25-0.2-1.65-0.9-0.6-1.95-1-3.050-1.25-0.65-0.15-1.25 0.4-1.25 1.050v3.75c0.050 0.95 1.2 1.4 1.85 0.75zM17.7 14.3h3.85c0.65 0 1.15-0.6 1.050-1.25-0.25-1.15-0.7-2.2-1.35-3.1-0.35-0.55-1.15-0.6-1.6-0.15l-2.7 2.7c-0.65 0.7-0.2 1.8 0.75 1.8zM11.55 17.95l-2.85 2.85c-0.45 0.45-0.4 1.25 0.15 1.6 0.95 0.65 2.050 1.15 3.25 1.35 0.65 0.15 1.25-0.4 1.25-1.050v-4.050c-0.050-0.9-1.15-1.35-1.8-0.7zM21.65 15.4h-4.1c-0.95 0-1.4 1.15-0.75 1.8l2.9 2.9c0.45 0.45 1.25 0.4 1.6-0.15 0.65-1 1.15-2.1 1.35-3.35 0.15-0.6-0.35-1.2-1-1.2zM15.65 23.75c1.15-0.25 2.2-0.7 3.15-1.3 0.55-0.35 0.6-1.15 0.15-1.6l-2.75-2.75c-0.65-0.65-1.8-0.2-1.8 0.75v3.85c0 0.7 0.6 1.2 1.25 1.050zM29.95 19.8c2.2-10.6-9.75-16.1-9.75-16.1-1.85-1.050-4.050-1.7-6.35-1.7-7.15 0-13 5.8-13 13 0 7.3 4.45 10.2 5.4 10.95 1.85 1.4 11.45 8.9 21.3-0.95 1.4 0.4 2.95-0.25 3.55-1.55 0.65-1.4 0.1-2.95-1.15-3.65zM3.2 15c0-5.9 4.8-10.7 10.7-10.7s10.7 4.8 10.7 10.7-4.8 10.7-10.7 10.7c-5.95 0-10.7-4.8-10.7-10.7z"></path>
</svg>
