<!-- Generated by IcoMoon.io -->
<svg version="1.1" xmlns="http://www.w3.org/2000/svg" width="32" height="32" viewBox="0 0 32 32">
<title>line-charts</title>
<path d="M1.664 21.747l3.688-5.277 2.348 2.131c0.191 0.255 0.484 0.4 0.811 0.4 0.319-0.004 0.617-0.159 0.802-0.419l3.983-7.576 3.289 4.402c0.169 0.379 0.561 0.615 0.968 0.592 0.415-0.023 0.772-0.299 0.898-0.694l2.948-7.209 2.633 6.155c0.11 0.427 0.488 0.73 0.927 0.748 0.013 0 0.027 0 0.040 0 0.424 0 0.804-0.268 0.945-0.671l3.157-10.075 0.981 1.269c0.22 0.507 0.808 0.74 1.315 0.521s0.74-0.808 0.521-1.315l-2-3.625c-0.164-0.378-0.546-0.621-0.954-0.603-0.412 0.015-0.773 0.281-0.907 0.671l-2.916 9.383-2.672-6.305c-0.111-0.431-0.494-0.736-0.939-0.748-0.442-0.013-0.845 0.271-0.98 0.695l-3.2 8-2.934-3.601c-0.146-0.328-0.456-0.553-0.813-0.588-0.353-0.035-0.706 0.121-0.914 0.414l-4.206 7.889-2.181-1.908c-0.168-0.223-0.421-0.367-0.699-0.395-0.28-0.030-0.556 0.062-0.764 0.248l-4.5 6c-0.413 0.366-0.45 0.998-0.083 1.411 0.365 0.413 0.998 0.451 1.411 0.084zM29.918 19.103c-0.164-0.378-0.547-0.62-0.954-0.602-0.412 0.015-0.773 0.282-0.907 0.671l-2.916 8.383-2.672-10.305c-0.111-0.43-0.494-0.736-0.939-0.748-0.442-0.013-0.845 0.271-0.98 0.695l-3.2 10-2.934-6.601c-0.146-0.328-0.456-0.552-0.813-0.589-0.353-0.035-0.706 0.122-0.914 0.414l-4.206 5.888-2.181-2.907c-0.168-0.224-0.421-0.366-0.699-0.395-0.28-0.029-0.556 0.061-0.764 0.248l-4.5 4c-0.413 0.366-0.45 0.998-0.083 1.411 0.366 0.413 0.999 0.45 1.411 0.083l3.688-3.277 2.348 3.131c0.191 0.255 0.484 0.4 0.811 0.4 0.319-0.004 0.617-0.159 0.802-0.419l3.983-5.576 3.289 7.402c0.169 0.379 0.561 0.615 0.968 0.593 0.415-0.023 0.772-0.299 0.898-0.694l2.947-9.209 2.633 10.155c0.11 0.427 0.488 0.73 0.927 0.748 0.013 0.001 0.027 0.001 0.040 0.001 0.424 0 0.804-0.268 0.945-0.672l3.157-9.075 0.981 2.269c0.22 0.507 0.808 0.739 1.315 0.521s0.74-0.808 0.521-1.315l-2-4.625z"></path>
</svg>
