<!-- Generated by IcoMoon.io -->
<svg version="1.1" xmlns="http://www.w3.org/2000/svg" width="32" height="32" viewBox="0 0 32 32">
<title>line-chart</title>
<path d="M31.032 30h-29.032v-29.063c0-0.518-0.42-0.938-0.938-0.938h-0.125c-0.517 0-0.938 0.419-0.938 0.938v30.125c0 0.517 0.42 0.937 0.938 0.937h30.095c0.535 0 0.968-0.433 0.968-0.968v-0.063c0-0.535-0.433-0.969-0.968-0.969zM5 19c0.245 0 0.489-0.089 0.682-0.269l7.057-6.586 7.928 2.798c0.402 0.142 0.848 0.014 1.114-0.318l10-12.5c0.345-0.431 0.275-1.060-0.157-1.405-0.43-0.344-1.060-0.276-1.405 0.156l-9.556 11.945-7.83-2.764c-0.351-0.124-0.742-0.043-1.015 0.212l-7.5 7c-0.404 0.377-0.426 1.009-0.049 1.413 0.197 0.211 0.464 0.317 0.731 0.317zM5.001 23.5c0.191 0 0.383-0.054 0.553-0.168l7.112-4.741 8.052 2.369c0.314 0.093 0.652 0.026 0.907-0.178l10-8c0.432-0.345 0.501-0.974 0.157-1.405s-0.974-0.502-1.405-0.156l-9.593 7.674-8-2.353c-0.284-0.084-0.591-0.037-0.837 0.128l-7.5 5c-0.46 0.306-0.583 0.927-0.277 1.387 0.194 0.29 0.51 0.445 0.833 0.445zM5 28c0.123 0 0.249-0.023 0.371-0.072l7.207-2.883 8.193 1.927c0.215 0.050 0.439 0.029 0.639-0.061l10-4.5c0.504-0.227 0.729-0.819 0.502-1.323s-0.821-0.729-1.323-0.502l-9.691 4.361-8.17-1.923c-0.2-0.047-0.409-0.032-0.601 0.045l-7.5 3c-0.513 0.205-0.762 0.787-0.557 1.3 0.157 0.392 0.532 0.63 0.929 0.63z"></path>
</svg>
