<!-- Generated by IcoMoon.io -->
<svg version="1.1" xmlns="http://www.w3.org/2000/svg" width="32" height="32" viewBox="0 0 32 32">
<title>line-chart-time-axis</title>
<path d="M17.219 5.332c0.718-1.458 1.936-2.624 3.432-3.275-0.387-0.901-1.283-1.533-2.326-1.533-1.398 0-2.532 1.134-2.532 2.533-0.001 1.001 0.582 1.865 1.427 2.276zM29.863 5.32c0.874-0.447 1.445-1.382 1.376-2.424-0.093-1.395-1.299-2.451-2.694-2.359-1 0.066-1.823 0.705-2.177 1.574 1.502 0.62 2.747 1.759 3.494 3.208zM17.215 8.844c0 1.447 0.499 2.777 1.333 3.83l-1.361 1.361c-0.33 0.33-0.33 0.864 0 1.194s0.864 0.33 1.194 0l1.387-1.386c1.017 0.739 2.268 1.176 3.622 1.176 1.416 0 2.719-0.477 3.76-1.278l1.49 1.489c0.329 0.33 0.864 0.33 1.194 0s0.33-0.864 0-1.194l-1.496-1.496c0.77-1.030 1.227-2.309 1.227-3.695 0-3.409-2.764-6.174-6.174-6.174-3.409-0.001-6.174 2.764-6.174 6.173zM23.389 4.213c2.557 0 4.631 2.073 4.631 4.63s-2.073 4.63-4.631 4.63-4.63-2.073-4.63-4.63c0-2.557 2.073-4.63 4.63-4.63zM23.168 9.648l1.578 1.457c0.247 0.223 0.622 0.204 0.846-0.043s0.209-0.628-0.038-0.851l-1.552-1.421v-3.080c0-0.333-0.167-0.603-0.5-0.603s-0.5 0.27-0.5 0.603v3.135c0 0.159-0.064 0.303 0.037 0.412 0.013 0.146 0.014 0.287 0.131 0.393zM31.918 23.728l-2-4.625c-0.164-0.378-0.547-0.62-0.954-0.602-0.412 0.015-0.773 0.282-0.907 0.671l-2.916 8.383-2.672-10.305c-0.111-0.43-0.494-0.736-0.939-0.748-0.442-0.013-0.845 0.271-0.98 0.695l-3.2 10-2.934-6.601c-0.146-0.328-0.456-0.552-0.813-0.589-0.353-0.035-0.706 0.122-0.914 0.414l-4.206 5.888-2.181-2.907c-0.168-0.224-0.421-0.366-0.699-0.395-0.28-0.029-0.556 0.061-0.764 0.248l-4.5 4c-0.413 0.366-0.45 0.998-0.083 1.411 0.366 0.413 0.999 0.45 1.411 0.083l3.688-3.277 2.348 3.131c0.191 0.255 0.484 0.4 0.811 0.4 0.319-0.004 0.617-0.159 0.802-0.419l3.983-5.576 3.289 7.402c0.169 0.379 0.561 0.615 0.968 0.593 0.415-0.023 0.772-0.299 0.898-0.694l2.947-9.209 2.633 10.155c0.11 0.427 0.488 0.73 0.927 0.748 0.013 0.001 0.027 0.001 0.040 0.001 0.424 0 0.804-0.268 0.945-0.672l3.157-9.075 0.981 2.269c0.22 0.507 0.808 0.739 1.315 0.521 0.507-0.22 0.74-0.808 0.521-1.315z"></path>
</svg>
