<!-- Generated by IcoMoon.io -->
<svg version="1.1" xmlns="http://www.w3.org/2000/svg" width="32" height="32" viewBox="0 0 32 32">
<title>lingerie-clothes</title>
<path d="M7.484 16.096c3.421 2.779 6.863 0.241 8.074-0.852h0.883c1.211 1.093 4.653 3.631 8.074 0.852 0 0 3.707-3.172 0.174-9.272l-1.514-6.269c-0.094-0.389-0.486-0.627-0.874-0.534-0.39 0.094-0.628 0.486-0.534 0.875l1.515 6.274c-1.455 0.764-4.288 2.602-6.482 6.162h-1.601c-2.194-3.56-5.027-5.398-6.481-6.162l1.515-6.274c0.094-0.389-0.145-0.78-0.534-0.875-0.388-0.093-0.78 0.145-0.874 0.534l-1.515 6.271c-3.532 6.098 0.175 9.271 0.175 9.271zM24.201 22.159h-16.383c-0.771 0-1.4 0.628-1.4 1.401l0.489 7.040c0 0.773 0.629 1.401 1.401 1.401h5.214c1.107 0 1.695-0.276 2.017-1.677l0.46-2.192 0.48 2.21c0.313 1.4 0.89 1.659 1.997 1.659h5.235c0.773 0 1.401-0.628 1.401-1.401l0.49-7.040c0-0.773-0.628-1.401-1.4-1.401z"></path>
</svg>
