<!-- Generated by IcoMoon.io -->
<svg version="1.1" xmlns="http://www.w3.org/2000/svg" width="32" height="32" viewBox="0 0 32 32">
<title>lipstick</title>
<path d="M21.119 16.951h-0.381v-6.878c0-0.366-0.297-0.662-0.663-0.662h-0.503v-9.010c0-0.276-0.236-1.273-3.914 1.52-2.332 1.77-3.229 2.817-3.229 3.092v4.399h-0.505c-0.365 0-0.662 0.297-0.662 0.662v6.879h-0.38c-0.366 0-0.662 0.296-0.662 0.663v13.724c0 0.366 0.297 0.663 0.662 0.663h10.239c0.365 0 0.662-0.297 0.662-0.663v-13.724c0-0.367-0.296-0.663-0.662-0.663zM20.809 20.032c0 0.246-0.198 0.445-0.445 0.445h-8.729c-0.246 0-0.445-0.198-0.445-0.445v-1.817c0-0.245 0.198-0.445 0.445-0.445h0.875v-6.691c0-0.245 0.199-0.445 0.445-0.445h6.088c0.245 0 0.445 0.2 0.445 0.445v6.691h0.875c0.246 0 0.445 0.198 0.445 0.445v1.817z"></path>
</svg>
