<!-- Generated by IcoMoon.io -->
<svg version="1.1" xmlns="http://www.w3.org/2000/svg" width="32" height="32" viewBox="0 0 32 32">
<title>local-movies</title>
<path d="M29.053 6h2.947v-1.13c0-1.066-0.736-1.87-1.8-1.87h-28.288c-1.065 0-1.911 0.804-1.911 1.87v1.13h3.058c0.133 0 0.442-0.101 0.442 0.072v3.343c0 0.173-0.309 0.085-0.442 0.085h-3.058v12.5h3.058c0.133 0 0.442 0.337 0.442 0.511v3.343c0 0.174-0.309 0.146-0.442 0.146h-3.058v1.055c0 1.066 0.847 1.945 1.911 1.945h28.288c1.065 0 1.8-0.879 1.8-1.945v-1.055h-2.947c-0.133 0-0.553 0.027-0.553-0.146v-3.343c0-0.173 0.421-0.511 0.553-0.511h2.947v-12.5h-2.947c-0.133 0-0.553 0.088-0.553-0.085v-3.344c0-0.173 0.421-0.072 0.553-0.072zM10.5 25.686c0 0.173-0.108 0.314-0.241 0.314h-3.518c-0.133 0-0.242-0.14-0.242-0.314v-3.373c0-0.173 0.109-0.314 0.241-0.314h3.518c0.133 0 0.242 0.14 0.242 0.314v3.373zM10.5 9.687c0 0.173-0.108 0.313-0.241 0.313h-3.518c-0.133 0-0.242-0.14-0.242-0.313v-3.373c0-0.173 0.109-0.314 0.241-0.314h3.518c0.133 0 0.242 0.141 0.242 0.314v3.373zM18 25.686c0 0.173-0.108 0.314-0.241 0.314h-3.518c-0.133 0-0.242-0.14-0.242-0.314v-3.373c0-0.173 0.108-0.314 0.241-0.314h3.517c0.134 0 0.241 0.14 0.241 0.314v3.373zM18 9.687c0 0.173-0.108 0.313-0.241 0.313h-3.518c-0.133 0-0.242-0.14-0.242-0.313v-3.373c0-0.173 0.108-0.314 0.241-0.314h3.517c0.134 0 0.241 0.141 0.241 0.314v3.373zM25 25.686c0 0.173-0.108 0.314-0.241 0.314h-3.517c-0.134 0-0.242-0.14-0.242-0.314v-3.373c0-0.173 0.108-0.314 0.241-0.314h3.517c0.134 0 0.242 0.14 0.242 0.314v3.373zM25 9.687c0 0.173-0.108 0.313-0.241 0.313h-3.517c-0.134 0-0.242-0.14-0.242-0.313v-3.373c0-0.173 0.108-0.314 0.241-0.314h3.517c0.134 0 0.242 0.141 0.242 0.314v3.373z"></path>
</svg>
