<!-- Generated by IcoMoon.io -->
<svg version="1.1" xmlns="http://www.w3.org/2000/svg" width="32" height="32" viewBox="0 0 32 32">
<title>local-florist</title>
<path d="M25.541 17.169c-2.018-0.199-4.62 0.777-6.601 2.758-0.916 0.918-1.655 1.939-2.211 2.974v-4.664c1.113-0.334 1.722-1.116 1.926-2.077 1.105 0.716 2.661 0.591 3.63-0.377s1.125-2.46 0.409-3.566c1.288-0.274 2.271-1.418 2.271-2.787 0-1.37-0.958-2.514-2.247-2.788 0.716-1.105 0.595-2.598-0.375-3.567s-2.459-1.094-3.563-0.377c-0.274-1.288-1.417-2.255-2.787-2.255-1.369 0-2.513 0.966-2.787 2.255-1.105-0.718-2.596-0.591-3.565 0.377-0.969 0.969-1.094 2.462-0.377 3.567-1.288 0.274-2.254 1.418-2.254 2.788 0 1.369 0.966 2.514 2.254 2.787-0.716 1.105-0.591 2.597 0.377 3.566s2.486 1.094 3.591 0.377c0.206 0.96 0.713 1.742 1.826 2.077v9.675c-0.556-1.034-1.194-2.058-2.112-2.975-1.98-1.98-4.467-2.956-6.485-2.758-0.199 2.019 0.796 4.492 2.778 6.471 1.765 1.767 3.593 2.86 5.819 2.907v0h1.67v-5.138c1.669-0.048 4.161-1.014 5.927-2.779 1.98-1.98 3.084-4.456 2.886-6.472zM15.995 12.727c-1.822 0-3.3-1.477-3.3-3.299 0-1.823 1.478-3.3 3.3-3.3s3.299 1.478 3.299 3.3c0 1.822-1.477 3.299-3.299 3.299z"></path>
</svg>
