<!-- Generated by IcoMoon.io -->
<svg version="1.1" xmlns="http://www.w3.org/2000/svg" width="32" height="32" viewBox="0 0 32 32">
<title>local-convenience-store</title>
<path d="M25.523 0h-19.017c-1.074 0-2.506 0.698-2.506 1.772v30.229h23.5v-30.229c0-1.073-0.902-1.772-1.977-1.772zM13.423 5.592c-0.189-0.189-0.45-0.284-0.783-0.284-0.329 0-0.591 0.099-0.786 0.298s-0.307 0.528-0.337 0.989l-1.572-0.157c0.094-0.869 0.387-1.492 0.882-1.87s1.111-0.567 1.852-0.567c0.813 0 1.45 0.219 1.915 0.657s0.697 0.982 0.697 1.634c0 0.37-0.066 0.723-0.199 1.059s-0.344 0.686-0.632 1.053c-0.191 0.243-0.535 0.594-1.033 1.050s-0.813 0.86-0.947 1.009c-0.133 0.15-0.24 0.038-0.323 0.538h3.344v1.5h-5.741c0.060-1 0.239-1.197 0.539-1.692s0.891-1.213 1.774-2.032c0.711-0.662 1.147-1.141 1.309-1.377 0.217-0.325 0.325-0.662 0.325-0.981 0-0.351-0.095-0.636-0.284-0.825zM12 25.888c0 0.338-0.274 0.612-0.613 0.612h-2.274c-0.338 0-0.613-0.274-0.613-0.612v-2.276c0-0.338 0.274-0.612 0.613-0.612h2.274c0.338 0 0.613 0.274 0.613 0.612v2.276zM12 18.888c0 0.338-0.274 0.612-0.613 0.612h-2.274c-0.338 0-0.613-0.274-0.613-0.612v-2.276c0-0.338 0.274-0.612 0.613-0.612h2.274c0.338 0 0.613 0.274 0.613 0.612v2.276zM17.5 25.888c0 0.338-0.274 0.612-0.612 0.612h-2.277c-0.338 0-0.611-0.274-0.611-0.612v-2.276c0-0.338 0.274-0.612 0.612-0.612h2.276c0.337 0 0.611 0.274 0.611 0.612v2.276zM17.5 18.888c0 0.338-0.274 0.612-0.612 0.612h-2.277c-0.338 0-0.611-0.274-0.611-0.612v-2.276c0-0.338 0.274-0.612 0.612-0.612h2.276c0.337 0 0.611 0.274 0.611 0.612v2.276zM16 10.5v-1.272l3.653-5.228h1.347v5h1v1.5h-1v2h-1.5v-2h-3.5zM23 25.888c0 0.338-0.274 0.612-0.612 0.612h-2.276c-0.337 0-0.611-0.274-0.611-0.612v-2.276c0-0.338 0.274-0.612 0.612-0.612h2.276c0.337 0 0.611 0.274 0.611 0.612v2.276zM23 18.888c0 0.338-0.274 0.612-0.612 0.612h-2.276c-0.337 0-0.611-0.274-0.611-0.612v-2.276c0-0.338 0.274-0.612 0.612-0.612h2.276c0.337 0 0.611 0.274 0.611 0.612v2.276zM19.5 6.409l-1.942 2.591h1.942z"></path>
</svg>
