<!-- Generated by IcoMoon.io -->
<svg version="1.1" xmlns="http://www.w3.org/2000/svg" width="32" height="32" viewBox="0 0 32 32">
<title>local-library</title>
<path d="M30 7.588v-1.037l-0.136-0.208c-0.116-0.077-2.802-1.893-7.222-1.893-3.313 0-5.675 1.032-6.7 1.567-1.024-0.535-3.409-1.567-6.721-1.567-4.42 0-7.243 1.815-7.359 1.893l-0.361 0.209v1.020c-0.5 0.34-1.5 0.995-1.5 0.995v18.843c0 0 0.401-0.177 0.968-0.424 1.347-0.588 4.163-1.582 7.551-1.582 3.754 0 5.798 1.169 6.333 1.547s1.615 0.404 2.237 0.026c0.62-0.378 2.9-1.573 6.717-1.573 3.259 0 5.869 0.919 7.149 1.513 0.61 0.282 1.045 0.492 1.045 0.492v-18.843c0 0-1-0.552-2-0.979zM15.5 22.76c-1-0.547-3.281-1.273-6.058-1.273-2.891 0-4.942 0.776-6.442 1.332v-15.492c0.5-0.431 3.075-1.474 6.266-1.474 3.143 0 5.235 1.005 6.235 1.458v15.448zM15.996 24.936c-0.047 0.026-0.086-0.102-0.116-0.271 0.034 0.005 0.069 0.009 0.104 0.009 0.040 0 0.078-0.003 0.114-0.010-0.026 0.169-0.061 0.299-0.104 0.273zM29 22.771c-1-0.556-3.291-1.284-6.088-1.284-2.863 0-4.912 0.767-6.412 1.321v-15.497c0.5-0.453 3.091-1.458 6.235-1.458 3.171 0 5.765 1.046 6.265 1.476v15.443z"></path>
</svg>
