<!-- Generated by IcoMoon.io -->
<svg version="1.1" xmlns="http://www.w3.org/2000/svg" width="32" height="32" viewBox="0 0 32 32">
<title>local-mall</title>
<path d="M27.175 7.75h-4.175v-4.096c0-2.072-1.677-3.404-3.749-3.404h-6.502c-2.072 0-4.249 1.331-4.249 3.404v4.096h-3.675l-1.016 24h24.381l-1.015-24zM11.5 3.654c0-0.617 0.633-0.904 1.249-0.904h6.502c0.616 0 0.749 0.287 0.749 0.904v4.096h-8.5v-4.096zM10.412 14.339c-0.964 0-1.745-0.781-1.745-1.746s0.781-1.746 1.745-1.746 1.746 0.782 1.746 1.746-0.782 1.746-1.746 1.746zM21.384 14.339c-0.965 0-1.747-0.781-1.747-1.746s0.782-1.746 1.747-1.746 1.745 0.782 1.745 1.746-0.782 1.746-1.745 1.746z"></path>
</svg>
