<!-- Generated by IcoMoon.io -->
<svg version="1.1" xmlns="http://www.w3.org/2000/svg" width="32" height="32" viewBox="0 0 32 32">
<title>local-offer</title>
<path d="M13.233 1l-10.125 0.782c-0.71-0.094-1.984 1.181-1.891 1.891l-0.221 9.565c-0.052 1.059 0.344 1.562 0.848 2.066l15.246 15.246c0.569 0.569 1.171 0.579 1.607 0.143l12.027-12.027c0.436-0.436 0.37-0.984-0.198-1.552l-15.245-15.246c-0.504-0.503-1.122-0.785-2.047-0.868zM9.143 9.111c-0.876 0.876-2.295 0.876-3.17 0s-0.875-2.293 0.001-3.169c0.875-0.875 2.293-0.875 3.168 0s0.876 2.294 0.001 3.169z"></path>
</svg>
