<!-- Generated by IcoMoon.io -->
<svg version="1.1" xmlns="http://www.w3.org/2000/svg" width="32" height="32" viewBox="0 0 32 32">
<title>local-shipping</title>
<path d="M30.797 4.021h-17.318c-0.742 0-1.979 1.152-1.979 1.896v2.5h-3.685c-1.421 0-2.234 1.134-2.234 1.134l-3.455 3.567c-0.675 0.675-0.973 1.52-0.973 1.52-0.054 0.169-0.152 0.405-0.152 0.591v5.438c0 0.055 0.144-0.146 0.149-0.146h-0.138c-0.606 0-1.011 0.802-1.011 1.409v0.125c0 0.605 0.406 0.966 1.011 0.966h2.466c0 2.5 2.16 4.895 4.825 4.895s4.827-2.132 4.827-4.798c0-0.042-0.002-0.096-0.004-0.096h6.999c-0.002 0-0.003 0.088-0.003 0.13 0 2.666 2.16 4.829 4.826 4.829s4.826-2.165 4.826-4.83c0-0.042-0.003-0.129-0.005-0.129h1.027c0.742 0 1.203-0.599 1.203-1.343v-15.761c0.001-0.743-0.459-1.896-1.201-1.896zM3.5 15.916v-0.694l3.967-4.306h3.533v5h-7.5zM8.302 25.637c-1.371 0-2.483-1.111-2.483-2.482s1.112-2.483 2.483-2.483 2.483 1.111 2.483 2.483-1.111 2.483-2.483 2.483zM27.128 24.345c-0.421 0.773-1.239 1.299-2.181 1.299-1.115 0-2.058-0.736-2.37-1.75-0.073-0.234-0.112-0.487-0.112-0.744 0-0.042 0.005-0.13 0.007-0.13h0.003c0.071-1.5 1.148-2.346 2.473-2.346s2.403 0.846 2.473 2.346h0.005c0.002 0 0.006 0.088 0.006 0.13-0 0.43-0.11 0.84-0.303 1.194z"></path>
</svg>
