<!-- Generated by IcoMoon.io -->
<svg version="1.1" xmlns="http://www.w3.org/2000/svg" width="32" height="32" viewBox="0 0 32 32">
<title>local-gas-station</title>
<path d="M31.482 20.549c-0.010-0.035-0.634-2.69-0.634-2.69-1.712-6.809-1.255-6.902-1.255-6.902 0.387-0.556 1.434-0.316 1.158-1.579-0.464-1.577-1.255-2.897-2.020-4.148-1.69-2.761-5.604-3.779-5.604-3.779s-0.771 1.18-0.555 1.691c0.172 0.406 0.491 0.712 0.491 0.712 1.962 1.475 2.918 3.077 3.375 4.16 0.46 1.091 0.521 1.891 0.527 2.008-0.131 3.351 2.028 10.341 2.303 11.935 0 1.085-0.972 2-2.125 2-1.122 0-2.144-1.038-2.144-2.177v-6.803c0-1.184-0.419-2.357-1.175-3.148-0.767-0.801-1.835-1.328-3.008-1.328h-0.317v-6.369c0-1.774-0.366-2.631-2.457-2.631h-15.043c-2.518 0-2.5 1.276-2.5 2.531v22.968h20v-13.643c0 0 1.957-0.117 1.996 1.656 0 0 0.027 6.6 0.027 6.797 0 1.223 0.497 2.373 1.376 3.246s2.041 1.351 3.266 1.351c1.175 0 2.149-0.378 3.163-1.254 1.488-1.285 1.39-3.723 1.152-4.606zM14.403 20.124c0 1.864-1.472 3.375-3.376 3.376-1.903-0-3.376-1.512-3.376-3.376-0.107-2.552 3.318-5.934 3.376-5.986 0.060 0.053 3.485 3.434 3.376 5.986zM17.5 9.304c0 0.384-0.311 0.696-0.697 0.696h-12.607c-0.385 0-0.696-0.312-0.696-0.696v-5.108c0-0.385 0.312-0.696 0.696-0.696h12.608c0.384 0 0.696 0.312 0.696 0.696v5.108zM20.512 28h-19.293c-0.601 0-1.219 0.207-1.219 1v2h21.5v-2c0-0.793-0.389-1-0.988-1z"></path>
</svg>
