<!-- Generated by IcoMoon.io -->
<svg version="1.1" xmlns="http://www.w3.org/2000/svg" width="32" height="32" viewBox="0 0 32 32">
<title>local-dining</title>
<path d="M22.084 16.66l6.974-8.589c3.369-4.096 0.624-8.071 0.624-8.071l-10.497 12.871-2.034 2.472-2.124-2.466c0 0 0.262-2.061 0.262-2.969s-0.29-1.136-0.29-1.136v-0.001l-7.003-8.415c-0.284-0.348-0.862-0.4-1.21-0.115-0.348 0.284-0.431 0.797-0.146 1.145l4.779 5.869-1.256 1.020-4.8-5.87c-0.284-0.349-0.8-0.4-1.147-0.115-0.348 0.284-0.4 0.796-0.116 1.144l4.796 5.869-1.249 1.020-4.796-5.87c-0.284-0.348-0.798-0.4-1.145-0.115-0.348 0.284-0.383 0.797-0.099 1.146l6.892 8.415c0 0 0.832 0.598 1.416 0.598s2.786 0.28 2.786 0.28l2.34 3.132-7.758 9.211c-1.898 2.307-1.815 3.644-0.944 4.36 0.87 0.715 2.198 0.541 4.096-1.767l6.652-9.065 7.543 10.090c0.861 1.052 2.317 1.285 3.255 0.518s1-2.239 0.141-3.291l-8.86-10.287 1.52-2.171 1.398 1.149z"></path>
</svg>
