<!-- Generated by IcoMoon.io -->
<svg version="1.1" xmlns="http://www.w3.org/2000/svg" width="32" height="32" viewBox="0 0 32 32">
<title>local-cafe</title>
<path d="M29.541 5.5h-26.493c0.173 6.431 2.829 12.392 6.62 15h10.078c1.087-0.652 2.081-2.358 2.949-3.526 0.279 0.040 0.559-0.040 0.844-0.040 3.742 0 7.246-3.335 8.008-8.259 0.332-2.149-0.837-3.175-2.006-3.175zM24.48 13.317c0.733-1.601 1.277-2.817 1.59-5.317h2.98c-0.071 3.5-2.654 5.107-4.57 5.317zM1.885 24.691l5.113 2.309h17.338l4.536-2.309c0.879 0 1.427-0.691 1.529-2.191h-30.046c0.102 1.5 0.649 2.191 1.53 2.191z"></path>
</svg>
