<!-- Generated by IcoMoon.io -->
<svg version="1.1" xmlns="http://www.w3.org/2000/svg" width="32" height="32" viewBox="0 0 32 32">
<title>local-bar</title>
<path d="M29.218 2.457c0.371-0.448 0.453-1.069 0.206-1.595s-0.772-0.862-1.354-0.862h-24.113c-0.582 0-1.11 0.336-1.357 0.862s-0.175 1.148 0.196 1.595l11.204 14.325v12.218h-5.986c-0.829 0-1.5 0.672-1.5 1.5s0.671 1.5 1.5 1.5h16c0.829 0 1.5-0.672 1.5-1.5s-0.671-1.5-1.5-1.5h-6.014v-12.218l11.218-14.325zM9 6.5l-2.298-2.954c-0.26-0.313-0.702-0.558-0.702-1.058 0-0.407 0.593-0.488 1-0.488h18c0.407 0 1 0.093 1 0.5 0 0.5-0.442 0.683-0.702 0.996l-2.798 3.004h-13.5zM17 13.5c-0.691 0-1.25-0.56-1.25-1.25s0.559-1.25 1.25-1.25 1.25 0.56 1.25 1.25-0.559 1.25-1.25 1.25zM13.75 10.5c-0.691 0-1.25-0.56-1.25-1.25s0.559-1.25 1.25-1.25 1.25 0.56 1.25 1.25-0.559 1.25-1.25 1.25z"></path>
</svg>
