<!-- Generated by IcoMoon.io -->
<svg version="1.1" xmlns="http://www.w3.org/2000/svg" width="32" height="32" viewBox="0 0 32 32">
<title>local-hotel</title>
<path d="M31.818 19c-0.037-1-0.838-1.5-1.825-1.5h-0.378c-0.015-7-4.902-7.5-4.902-7.5h-12.212v7.5h-8.5v-8.825c0-1.010-0.99-1.828-2-1.828s-2 0.819-2 1.828v15.971c0 1.010 0.991 1.828 2 1.828s2-0.819 2-1.828v-0.145h24v0.145c0 1.010 0.989 1.828 2 1.828 1.009 0 2-0.819 2-1.828v-5.645h-0.182zM11.225 13.636c0 1.548-1.255 2.803-2.803 2.803s-2.803-1.255-2.803-2.803c0-1.548 1.255-2.803 2.803-2.803s2.803 1.255 2.803 2.803z"></path>
</svg>
