<!-- Generated by IcoMoon.io -->
<svg version="1.1" xmlns="http://www.w3.org/2000/svg" width="32" height="32" viewBox="0 0 32 32">
<title>local-parking</title>
<path d="M22.023 8.909c-1.197-1.023-2.873-1.535-5.030-1.535h-7.38v16.933h4.309v-4.759h3.070c2.157 0 3.834-0.549 5.030-1.647s1.795-2.639 1.795-4.623c0-1.889-0.599-3.345-1.795-4.369zM18.977 15.457c-0.512 0.469-1.244 0.702-2.197 0.702h-2.857v-5.396h2.857c0.944 0 1.675 0.224 2.191 0.673s0.773 1.111 0.773 1.984c0 0.89-0.256 1.569-0.767 2.037zM15.75 0.090c-8.684 0-15.75 7.065-15.75 15.75s7.066 15.75 15.75 15.75 15.75-7.066 15.75-15.75c0-8.685-7.066-15.75-15.75-15.75zM15.75 28.327c-6.886 0-12.488-5.601-12.488-12.487s5.602-12.486 12.488-12.486 12.488 5.601 12.488 12.487-5.602 12.486-12.488 12.486z"></path>
</svg>
