<!-- Generated by IcoMoon.io -->
<svg version="1.1" xmlns="http://www.w3.org/2000/svg" width="32" height="32" viewBox="0 0 32 32">
<title>local-hospital</title>
<path d="M32 4.051c0-2.237-1.814-4.051-4.051-4.051h-23.898c-2.237 0-4.051 1.813-4.051 4.051v23.898c0 2.238 1.813 4.051 4.051 4.051h23.898c2.237 0 4.050-1.814 4.050-4.051v-23.898zM28.5 27.945c0 0.306-0.249 0.555-0.556 0.555h-23.887c-0.308 0-0.556-0.249-0.556-0.555v-23.889c0-0.307 0.249-0.556 0.556-0.556h23.887c0.308 0 0.557 0.249 0.557 0.556v23.889zM23.253 13.5h-4.753v-4.716c0-1.272-0.741-2.284-2.013-2.284h-0.864c-1.272 0-2.123 1.011-2.123 2.284v4.716h-4.643c-1.272 0-2.357 0.777-2.357 2.050v0.864c0 1.272 1.085 2.087 2.357 2.087h4.643v4.679c0 1.272 0.851 2.321 2.123 2.321h0.864c1.273 0 2.013-1.049 2.013-2.321v-4.679h4.753c1.273 0 2.747-0.814 2.747-2.087v-0.864c0-1.272-1.474-2.050-2.747-2.050z"></path>
</svg>
