<!-- Generated by IcoMoon.io -->
<svg version="1.1" xmlns="http://www.w3.org/2000/svg" width="32" height="32" viewBox="0 0 32 32">
<title>local-activity</title>
<path d="M30.381 13h1.619v-5.984c0-0.882-0.628-1.516-1.51-1.516h-28.938c-0.882 0-1.552 0.633-1.552 1.516v5.984h1.661c1.524 0 2.761 1.475 2.761 3s-1.236 3-2.76 3h-1.661v5.778c0 0.881 0.67 1.222 1.552 1.222h28.938c0.882 0 1.51-0.341 1.51-1.222v-5.778h-1.619c-1.525 0-2.761-1.476-2.761-3s1.236-3 2.761-3zM20.389 22.617l-4.367-2.297-4.367 2.297 0.835-4.864-3.534-3.444 4.883-0.71 2.184-4.425 2.183 4.425 4.883 0.71-3.533 3.444 0.834 4.864z"></path>
</svg>
