<!-- Generated by IcoMoon.io -->
<svg version="1.1" xmlns="http://www.w3.org/2000/svg" width="32" height="32" viewBox="0 0 32 32">
<title>local-pharmacy</title>
<path d="M30.563 1.341c-1.177-0.668-2.674-0.429-3.341 0.748l-5.721 9.911h-19.245c-1.245 0-2.255 1.255-2.255 2.5s1.010 2.5 2.255 2.5h0.358c0.519 5.5 2.599 12 6.925 14h11.644c4.326-2 6.406-8.5 6.925-14h0.358c1.246 0 2.255-1.255 2.255-2.5s-1.009-2.5-2.255-2.5h-1.328l4.349-7.493c0.667-1.178 0.253-2.498-0.924-3.166zM21 22c0 0.552-0.448 1-1 1h-3v3c0 0.552-0.448 1-1 1h-1c-0.552 0-1-0.448-1-1v-3h-3c-0.552 0-1-0.448-1-1v-1c0-0.552 0.448-1 1-1h3v-3c0-0.552 0.448-1 1-1h1c0.552 0 1 0.448 1 1v3h3c0.552 0 1 0.448 1 1v1z"></path>
</svg>
