<!-- Generated by IcoMoon.io -->
<svg version="1.1" xmlns="http://www.w3.org/2000/svg" width="32" height="32" viewBox="0 0 32 32">
<title>local-drink</title>
<path d="M27.67 0h-23.291c-0.711 0-1.379 1.047-1.379 1.758v2.362c0 0.711 0.668 0.88 1.379 0.88h0.279l1.854 24.461c0.025 1.207 1.015 2.539 2.227 2.539h14.569c1.213 0 2.203-1.332 2.228-2.539l1.854-24.461h0.28c0.711 0 1.33-0.169 1.33-0.88v-2.361c0-0.712-0.619-1.758-1.33-1.758zM24.874 10.193c-0.154 0.147-1.096 1.090-2.416 1.090-1.488 0-2.776-1.007-2.787-1.016l-0.352-0.27-0.367 0.274c-0.015 0.011-1.563 1.107-2.831 1.107s-2.816-1.086-2.83-1.097l-0.352-0.25-0.345 0.268c-0.39 0.302-1.656 1.085-2.809 1.085-1.168 0-2.296-0.975-2.611-1.209l-0.383-5.176h18.467l-0.384 5.193zM16.025 15.677c-0.499 0-0.363 1.987-1.386 3.776-0.962 1.678-1.325 2.349-1.325 3.708 0 1.646 1.214 2.979 2.712 2.979s2.711-1.334 2.711-2.979c0-1.358-0.657-2.456-1.325-3.708-1.026-1.921-0.887-3.776-1.387-3.776z"></path>
</svg>
