<!-- Generated by IcoMoon.io -->
<svg version="1.1" xmlns="http://www.w3.org/2000/svg" width="32" height="32" viewBox="0 0 32 32">
<title>local-car-wash</title>
<path d="M28.458 27.845l-0.027-7.398c0 0-0.008-2.095-2.412-2.702l-2.608-5.49c0 0-0.684-2.12-3.642-2.047l-3.945-0.208h-0.168l-3.302 0.239c-2.958-0.051-3.629 1.962-3.629 1.962l-2.568 5.565c-2.401 0.625-2.393 2.748-2.393 2.748l0.028 7.412 2.079-0.001 0.009 2.177c0.003 1.105 0.911 1.899 2.018 1.899h0.184c1.105 0 2.007-0.806 2.002-1.913l-0.008-2.171 5.813 0.084 6.285-0.078 0.009 2.177c0.003 1.105 0.912 1.901 2.017 1.901h0.186c1.105 0 2.006-0.838 2.003-1.944l-0.009-2.241 2.080 0.029zM8.072 24.079c-1.072 0.009-1.948-0.853-1.957-1.924-0.009-1.073 0.853-1.949 1.925-1.958s1.947 0.852 1.957 1.924c0.008 1.072-0.853 1.949-1.925 1.958zM15.851 17.5h-0.169l-7.050 0.139 1.639-3.65c0.594-1.567 2.645-1.181 2.645-1.181l2.748 0.193h0.17l3.389-0.193c0 0 2.049-0.283 2.655 1.279l1.666 3.539-7.691-0.125zM24.162 23.974c-1.072 0.004-1.944-0.861-1.948-1.933s0.862-1.945 1.933-1.948c1.073-0.004 1.945 0.862 1.948 1.934 0.005 1.072-0.861 1.944-1.933 1.948zM8.312 7.789c1.116 0 2.021-1.057 2.021-2.361 0-1.076-0.489-1.945-0.988-2.938-0.764-1.522-0.662-2.491-1.033-2.491-0.373 0-0.27 1.075-1.034 2.49-0.718 1.331-0.988 1.861-0.988 2.937 0 1.304 0.905 2.361 2.022 2.361zM16.11 7.789c1.116 0 2.022-1.057 2.022-2.361 0-1.076-0.49-1.945-0.989-2.938-0.764-1.522-0.66-2.491-1.033-2.491s-0.27 1.075-1.033 2.49c-0.717 1.331-0.989 1.861-0.989 2.937 0 1.304 0.905 2.361 2.021 2.361zM23.909 7.789c1.117 0 2.022-1.057 2.022-2.361 0-1.076-0.489-1.945-0.988-2.938-0.764-1.522-0.661-2.491-1.034-2.491-0.372 0-0.269 1.075-1.033 2.49-0.717 1.331-0.989 1.861-0.989 2.937 0 1.304 0.906 2.361 2.022 2.361z"></path>
</svg>
