<!-- Generated by IcoMoon.io -->
<svg version="1.1" xmlns="http://www.w3.org/2000/svg" width="32" height="32" viewBox="0 0 32 32">
<title>lood-transfusion</title>
<path d="M16.11 13.852c1.557 0 2.819-1.262 2.819-2.819-0.026-2.322-2.018-3.294-2.819-6.796-0.915 3.646-2.791 4.474-2.819 6.796 0 1.557 1.262 2.819 2.819 2.819zM14.732 10.765h0.941v-0.941h0.875v0.941h0.941v0.874h-0.941v0.941h-0.875v-0.941h-0.941v-0.874zM19.569 2.334h-2.134v-1.009c0-0.732-0.593-1.325-1.325-1.325-0.73 0-1.324 0.594-1.324 1.325v1.009h-2.355c-2.203 0-3.995 1.792-3.995 3.995v13.983c0 2.203 1.793 3.995 3.995 3.995h0.971c-0.006 0.047-0.014 0.093-0.014 0.142 0 0.63 0.511 1.14 1.14 1.14h0.531v1.915c-0.034 0.262-0.079 1.066 0.538 1.607 0.567 0.497 1.456 0.553 2.645 0.171 0.174-0.037 0.463-0.039 0.57 0.052 0.062 0.052 0.091 0.209 0.076 0.418l-0.002 2.249h1.367v-2.18c0.051-0.835-0.278-1.296-0.564-1.535-0.692-0.581-1.683-0.354-1.794-0.326l-0.047 0.014c-1.037 0.341-1.319 0.137-1.348 0.112-0.093-0.079-0.101-0.307-0.085-0.402l0.009-2.093h0.755c0.63 0 1.141-0.511 1.141-1.14 0-0.049-0.009-0.095-0.015-0.142h1.265c2.203 0 3.995-1.792 3.995-3.995v-13.983c0-2.203-1.792-3.995-3.995-3.995zM22.197 20.311c0 1.448-1.179 2.628-2.628 2.628h-7.138c-1.449 0-2.628-1.179-2.628-2.628v-13.982c0-1.449 1.178-2.628 2.628-2.628h7.138c1.448 0 2.628 1.178 2.628 2.628v13.982zM19.36 14.44c-0.318-0.239-1.114-0.796-1.552 0s-2.348 0.796-3.543 0.159-3.145-0.746-3.145-0.746v5.704c0 1.14 0.928 2.069 2.070 2.069h5.62c1.14 0 2.069-0.928 2.069-2.069v-5.704c-0.151 0.845-1.201 0.826-1.52 0.588z"></path>
</svg>
