<!-- Generated by IcoMoon.io -->
<svg version="1.1" xmlns="http://www.w3.org/2000/svg" width="32" height="32" viewBox="0 0 32 32">
<title>Lungs-silhouette</title>
<path d="M20.442 4.577c0 0-2.316-0.978-2.287 2.937v3.99h-0.95v-10.426h-2.409v10.426h-0.951v-3.99c0.028-3.915-2.287-2.937-2.287-2.937-11.444 4.668-12.047 22.061-11.37 24.847s2.937 0.828 2.937 0.828 4.115-2.524 7.905-4.291c3.068-1.43 2.636-5.421 2.636-5.421v-6.701h4.668v6.701c0 0-0.433 3.991 2.635 5.421 3.791 1.767 7.907 4.291 7.907 4.291s2.259 1.958 2.936-0.828c0.677-2.786 0.075-20.179-11.37-24.848z"></path>
</svg>
