<!-- Generated by IcoMoon.io -->
<svg version="1.1" xmlns="http://www.w3.org/2000/svg" width="32" height="32" viewBox="0 0 32 32">
<title>macaron</title>
<path d="M30.1 12.4v-0.15c0-0.8-0.65-1.45-1.4-1.5-1.050-2.9-3.65-5.1-6.8-5.45v0c-6.65-0.8-11.75 0-11.75 0-3.15 0.35-5.75 2.5-6.8 5.4-0.8 0.050-1.4 0.7-1.4 1.5v0.15c0 0.85 0.7 1.5 1.5 1.5h0.7c-0.35 0.65-0.6 1.35-0.6 2.15s0.2 1.5 0.6 2.15h-0.7c-0.85 0-1.5 0.7-1.5 1.5v0.15c0 0.8 0.65 1.45 1.4 1.5 1.050 2.9 3.65 5.1 6.8 5.45 0 0 5.050 0.8 11.75 0v0c3.15-0.35 5.8-2.55 6.8-5.45 0.8-0.050 1.4-0.7 1.4-1.5v-0.15c0-0.85-0.7-1.5-1.5-1.5h-0.7c0.35-0.65 0.6-1.35 0.6-2.15s-0.2-1.5-0.6-2.15h0.7c0.85 0.050 1.5-0.65 1.5-1.45zM6.4 9.8c0-0.1 0.050-0.15 0.1-0.25 0 0 0 0 0 0s0 0 0 0c0.050-0.050 0.050-0.1 0.1-0.15 0.95-1.2 2.25-2.050 3.65-2.45 0.1-0.050 0.25-0.050 0.4-0.050 0.4 0.050 0.65 0.4 0.6 0.8-0.050 0.3-0.3 0.55-0.55 0.6-1.15 0.35-2.2 1.050-3 2-0.050 0.050-0.050 0.1-0.1 0.1 0 0 0 0 0 0v0c-0.15 0.15-0.35 0.25-0.6 0.2-0.4-0.1-0.65-0.4-0.6-0.8zM7.9 18.2c-1 0-1.85-0.7-2.1-1.6h20.45c-0.25 0.95-1.1 1.6-2.1 1.6h-16.25zM26.25 15.5h-20.45c0.25-0.95 1.1-1.6 2.1-1.6h16.3c1 0 1.85 0.7 2.050 1.6z"></path>
</svg>
