<!-- Generated by IcoMoon.io -->
<svg version="1.1" xmlns="http://www.w3.org/2000/svg" width="32" height="32" viewBox="0 0 32 32">
<title>magic</title>
<path d="M25.299 7.721c-0.627-0.627-1.459-0.971-2.346-0.971s-1.719 0.345-2.346 0.971l-18.615 18.615c-0.627 0.626-0.972 1.459-0.972 2.345 0 0.319 0.046 0.63 0.133 0.927 0.050 0.564 0.28 1.115 0.712 1.547s0.982 0.661 1.546 0.712c0.296 0.087 0.608 0.133 0.927 0.133 0.886 0 1.719-0.345 2.345-0.971l18.615-18.615c1.294-1.293 1.294-3.398 0-4.692zM24.238 11.352l-4.719 4.719c0.020-0.665-0.217-1.338-0.725-1.845s-1.18-0.745-1.845-0.725l4.719-4.719c0.343-0.344 0.8-0.532 1.285-0.532s0.942 0.189 1.285 0.532c0.709 0.709 0.709 1.861 0 2.57zM9.521 12.521l1.775-3.245 3.245-1.776-3.245-1.776-1.775-3.245-1.776 3.245-3.245 1.776 3.245 1.776zM28.744 17.277l-1.223-2.236-1.224 2.236-2.235 1.223 2.235 1.223 1.224 2.236 1.223-2.236 2.235-1.223zM18.739 5.373l0.939-1.716 1.716-0.938-1.716-0.939-0.939-1.716-0.939 1.716-1.716 0.939 1.716 0.938z"></path>
</svg>
