<!-- Generated by IcoMoon.io -->
<svg version="1.1" xmlns="http://www.w3.org/2000/svg" width="32" height="32" viewBox="0 0 32 32">
<title>male</title>
<path d="M19.82 3.809c0 2.104-1.706 3.809-3.809 3.809s-3.809-1.706-3.809-3.809c0-2.104 1.706-3.809 3.809-3.809s3.809 1.706 3.809 3.809zM26.399 16.619c0 0-5.088-6.528-5.595-7.035-0.509-0.508-0.509-1.084-1.524-1.084h-7.048c-1.015 0-1.015 0.575-1.524 1.084s-5.122 6.488-5.122 6.488c-0.614 0.576-0.645 1.575-0.070 2.189 0.576 0.613 1.436 0.663 2.050 0.087l3.933-4.348v15.735c0 1.113 0.887 2.015 2 2.015s2-0.902 2-2.015v-8.735h0.5v8.735c0 1.113 0.887 2.015 2 2.015s2-0.902 2-2.015v-15.735l4.232 4.905c0.29 0.256 0.725 0.381 1.084 0.381 0.422 0 0.88-0.174 1.18-0.515 0.558-0.633 0.535-1.595-0.096-2.152z"></path>
</svg>
