<!-- Generated by IcoMoon.io -->
<svg version="1.1" xmlns="http://www.w3.org/2000/svg" width="32" height="32" viewBox="0 0 32 32">
<title>Male-gender-sign</title>
<path d="M23.155 14.726c-1.47-1.469-3.277-2.391-5.172-2.768l0-4.872 1.496 1.496c0.233 0.233 0.611 0.233 0.845 0l1.883-1.883c0.233-0.233 0.233-0.611 0-0.844-0 0-0.002 0-0.002 0l-5.678-5.679c0-0.001 0-0.001 0-0.002-0.233-0.233-0.611-0.233-0.844-0.001l-0.005-0.004-5.685 5.686 0.004 0.004c-0.229 0.234-0.228 0.609 0.004 0.841l1.879 1.879c0.231 0.232 0.606 0.232 0.839 0.004v0l1.408-1.408 0.001 4.764c-1.935 0.364-3.784 1.291-5.282 2.789-3.952 3.951-3.952 10.359 0 14.309 3.951 3.952 10.357 3.952 14.31 0.001 3.951-3.952 3.95-10.36 0-14.31zM20.428 26.31c-2.445 2.445-6.41 2.445-8.857-0.002s-2.446-6.41-0.001-8.855c2.446-2.446 6.412-2.446 8.857 0s2.446 6.412 0 8.857z"></path>
</svg>
