<!-- Generated by IcoMoon.io -->
<svg version="1.1" xmlns="http://www.w3.org/2000/svg" width="32" height="32" viewBox="0 0 32 32">
<title>manual</title>
<path d="M29.65 27.4v-22.8c0.7-0.4 1.15-1.15 1.15-2.050 0-1.3-1.050-2.4-2.4-2.4-1.3 0-2.4 1.050-2.4 2.4 0 0.85 0.45 1.6 1.15 2.050v10.15h-1c-0.5-4.7-4.15-8.45-8.8-9.15v-1c0.7-0.4 1.15-1.15 1.15-2.050 0-1.3-1.050-2.4-2.4-2.4-1.3 0-2.4 1.050-2.4 2.4 0 0.85 0.45 1.6 1.15 2.050v0.95c-4.9 0.45-8.75 4.35-9.3 9.2h-0.75v-10.15c0.7-0.4 1.15-1.15 1.15-2.050 0-1.3-1.050-2.4-2.4-2.4-1.3 0-2.4 1.050-2.4 2.4 0 0.85 0.45 1.6 1.15 2.050v22.75c-0.7 0.4-1.15 1.15-1.15 2.050 0 1.3 1.050 2.4 2.4 2.4 1.3 0 2.4-1.050 2.4-2.4 0-0.85-0.45-1.6-1.15-2.050v-10.1h0.9c0.65 4.7 4.45 8.45 9.25 8.9v1.25c-0.7 0.4-1.15 1.15-1.15 2.050 0 1.3 1.050 2.4 2.4 2.4 1.3 0 2.4-1.050 2.4-2.4 0-0.85-0.45-1.6-1.15-2.050v-1.35c4.55-0.65 8.15-4.25 8.75-8.8h1.050v10.15c-0.7 0.4-1.15 1.15-1.15 2.050 0 1.3 1.050 2.4 2.4 2.4 1.3 0 2.4-1.050 2.4-2.4-0.1-0.9-0.55-1.65-1.25-2.050zM21.050 20.9h-0.7c-0.3 0-0.5-0.050-0.6-0.2-0.15-0.1-0.2-0.3-0.2-0.6v-6c-0.35 0.65-0.7 1.3-1.050 1.95s-0.7 1.3-1.050 1.95c-0.1 0.15-0.25 0.35-0.45 0.5s-0.4 0.25-0.7 0.25c-0.3 0-0.5-0.050-0.7-0.2s-0.3-0.3-0.4-0.5l-2.1-3.9v6.8h-0.7c-0.55 0-0.8-0.25-0.8-0.7v-9.050h1.5l3.050 5.8c0.050 0.050 0.1 0.1 0.15 0.1s0.1-0.050 0.15-0.1l3.050-5.8h1.5v9.7z"></path>
</svg>
