<!-- Generated by IcoMoon.io -->
<svg version="1.1" xmlns="http://www.w3.org/2000/svg" width="32" height="32" viewBox="0 0 32 32">
<title>map-pinning</title>
<path d="M14.714 13.539l-11.379 15.395c-0.493 0.666-0.958 2.727-0.794 2.892 0.5 0.5 2.912-0.71 3.206-1.108l11.244-15.211c-0.864-0.527-1.637-1.188-2.277-1.966zM21.667 0c-4.321 0-7.824 3.504-7.824 7.825s3.504 7.825 7.824 7.825c4.322 0 7.825-3.504 7.825-7.825s-3.503-7.825-7.825-7.825zM19.75 5.5c-0.967 0-1.75-0.784-1.75-1.75s0.783-1.75 1.75-1.75 1.75 0.784 1.75 1.75-0.783 1.75-1.75 1.75z"></path>
</svg>
