<!-- Generated by IcoMoon.io -->
<svg version="1.1" xmlns="http://www.w3.org/2000/svg" width="32" height="32" viewBox="0 0 32 32">
<title>map-pin</title>
<path d="M26.566 11.069c0-5.835-4.73-10.566-10.566-10.566s-10.566 4.731-10.566 10.566c0 0.901 0.125 1.771 0.337 2.604l0.086 0.333c0.343 1.188 7.984 16.273 7.984 16.273s0.442 1.718 2.159 1.718 2.159-1.718 2.159-1.718 7.64-15.084 7.983-16.273l0.086-0.333c0.212-0.834 0.337-1.704 0.337-2.604zM16 17.102c-3.332 0-6.032-2.7-6.032-6.033 0-3.332 2.7-6.032 6.032-6.032s6.032 2.701 6.032 6.032c0 3.332-2.7 6.033-6.032 6.033z"></path>
</svg>
