<!-- Generated by IcoMoon.io -->
<svg version="1.1" xmlns="http://www.w3.org/2000/svg" width="32" height="32" viewBox="0 0 32 32">
<title>marakas</title>
<path d="M6.175 24.484l10.18-10.18c0.977-0.502 2.706-0.749 3.759-1.084 0.483-0.154 0.902-0.286 1.212-0.406 0.688-0.25 1.462-0.71 2.182-1.235-1.453-0.89-2.91-2.034-4.288-3.414-1.381-1.379-2.523-2.837-3.414-4.289-0.528 0.721-0.986 1.494-1.232 2.174-0.123 0.32-0.254 0.729-0.404 1.204-0.341 1.067-0.592 2.823-1.108 3.797l-10.16 10.16c-0.905 0.904-0.904 2.37 0 3.273s2.367 0.903 3.272-0.001zM24.299 10.957c0.247-0.21 0.481-0.422 0.689-0.63 0.337-0.336 0.633-0.686 0.898-1.043-1.472-0.903-2.943-2.059-4.334-3.45s-2.546-2.862-3.45-4.333c-0.357 0.265-0.706 0.562-1.043 0.898-0.208 0.208-0.421 0.442-0.631 0.689 0.877 1.494 2.038 3.005 3.451 4.419s2.924 2.574 4.419 3.45zM26.827 7.657c0.981-2.28 0.663-4.651-0.892-6.205s-3.927-1.874-6.206-0.892c0.827 1.345 1.884 2.697 3.143 3.955s2.61 2.315 3.956 3.143zM21.023 17.254c-0.783 0.43-1.526 0.938-2.035 1.45-0.246 0.238-0.538 0.553-0.875 0.921-0.759 0.823-1.729 2.306-2.607 2.973l-13.504 4.915c-1.202 0.437-1.819 1.765-1.382 2.966 0.436 1.2 1.764 1.821 2.965 1.383l13.529-4.924c1.097-0.043 2.77 0.464 3.866 0.607 0.503 0.065 0.938 0.121 1.27 0.145 0.729 0.064 1.625-0.026 2.499-0.198-0.941-1.421-1.777-3.073-2.445-4.905s-1.088-3.637-1.28-5.33zM24.108 16.070c-0.436 0.090-0.878 0.211-1.325 0.373-0.277 0.101-0.567 0.223-0.863 0.358 0.163 1.725 0.577 3.585 1.261 5.463 0.684 1.879 1.563 3.57 2.546 4.995 0.314-0.087 0.615-0.179 0.892-0.28 0.448-0.163 0.864-0.355 1.256-0.566-0.953-1.442-1.797-3.111-2.47-4.959-0.674-1.847-1.1-3.67-1.296-5.386zM31.227 19.336c-0.753-2.066-2.767-3.357-5.248-3.431 0.181 1.569 0.568 3.24 1.177 4.912s1.386 3.201 2.256 4.52c1.855-1.652 2.567-3.935 1.815-6.003z"></path>
</svg>
