<!-- Generated by IcoMoon.io -->
<svg version="1.1" xmlns="http://www.w3.org/2000/svg" width="32" height="32" viewBox="0 0 32 32">
<title>measuring-tape2</title>
<path d="M10.86 9.43c-3.579 0-6.49 2.912-6.49 6.491s2.912 6.491 6.49 6.491c3.579 0 6.491-2.911 6.491-6.49s-2.912-6.491-6.491-6.491zM10.328 17.659c-0.155 0.277-0.374 0.493-0.657 0.646s-0.614 0.23-0.991 0.23c-0.306 0-0.624-0.061-0.955-0.183-0.332-0.122-0.62-0.284-0.866-0.483l0.478-1.035c0.176 0.215 0.367 0.378 0.573 0.491s0.416 0.169 0.629 0.169c0.233 0 0.413-0.063 0.541-0.189s0.193-0.304 0.193-0.534c0-0.21-0.064-0.373-0.193-0.491s-0.309-0.176-0.541-0.176c-0.175 0-0.28 0.003-0.553 0.011-0.275 0.007-0.485 0.016-0.485 0.026v-2.641h3v1h-2v0.5h0.272c0.355 0 0.668 0.098 0.938 0.233s0.479 0.341 0.627 0.587c0.149 0.246 0.223 0.536 0.223 0.853 0.001 0.375-0.077 0.709-0.232 0.986zM15 18.5h-0.5v-1.538c0-0.148-0.059-0.264-0.127-0.349s-0.173-0.128-0.291-0.128c-0.13 0.003-0.311 0.059-0.389 0.169s-0.194 0.25-0.194 0.424v1.422h-0.5v-1.538c0-0.148-0.063-0.264-0.129-0.349s-0.172-0.128-0.288-0.128c-0.133 0.003-0.312 0.061-0.39 0.172s-0.192 0.252-0.192 0.421v1.422h-0.5v-2.5h0.5v0.231c0-0.148 0.238-0.258 0.361-0.332s0.299-0.112 0.461-0.115c0.176 0 0.345 0.050 0.474 0.15s0.229 0.238 0.283 0.415c0.070-0.186 0.175-0.325 0.306-0.419s0.29-0.143 0.472-0.146c0.241 0 0.36 0.087 0.502 0.261s0.141 0.407 0.141 0.698v1.759zM31.691 23.5h-4.735c-0.206 0-0.456 0.104-0.456 0.31v0.19h-5v-8.454c0-0.013 0.108-0.025 0.108-0.039 0-0.050 0.056-0.099 0.056-0.149 0-1.541-0.294-3.007-0.873-4.335l1.849-1.835c0.206-0.207 0.213-0.541 0.006-0.748l-2.57-2.573c-0.207-0.207-0.54-0.207-0.747 0l-1.32 1.321c-1.91-1.674-4.412-2.689-7.151-2.689-5.997 0-10.859 4.862-10.859 10.86 0 0.050 0.002 0.1 0.002 0.149 0 0.012-0.002 0.025-0.002 0.037v9.985c0 0.828 0.67 1.468 1.498 1.468h18.723c0.828 0 1.279-0.641 1.279-1.468v-0.032h5v-0.244c0 0.206 0.25 0.744 0.456 0.744h3.043v1.448c0 0.206 0.038 0.552 0.244 0.552h1.446c0.206 0 0.309-0.346 0.309-0.552v-3.638c0-0.206-0.104-0.31-0.309-0.31zM10.86 23.66c-4.268 0-7.739-3.471-7.739-7.739s3.471-7.739 7.739-7.739c4.267 0 7.739 3.471 7.739 7.739s-3.472 7.739-7.739 7.739z"></path>
</svg>
