<!-- Generated by IcoMoon.io -->
<svg version="1.1" xmlns="http://www.w3.org/2000/svg" width="32" height="32" viewBox="0 0 32 32">
<title>meat</title>
<path d="M31.3 24.35c1.050-1.6 0.65-3.75-0.95-4.8-1.45-0.95-3.35-0.7-4.5 0.55l-1.3-0.85c2.15-5 0.5-11.050-4.2-14.2 0 0-2.65-1.65-2.7-1.7-3.65-2.45-9.4-1.35-13.5 2.8-4.5 4.55-5.3 11.050-1.8 14.5 0.25 0.25 0.7 0.6 0.65 0.6l4.4 3c4.3 2.9 9.85 2.55 13.7-0.55l1.55 1.050c-0.9 1.55-0.4 3.55 1.1 4.6 1.6 1.050 3.75 0.65 4.8-0.95 0.5-0.75 0.7-1.7 0.5-2.6 0.9-0.15 1.7-0.65 2.25-1.45zM2.85 14.15c0.25-2.15 1.4-4.35 3.15-6.15 1.6-1.6 3.6-2.75 5.55-3.15 1.75-0.35 3.4-0.1 4.55 0.65v0c0.2 0.15 0.45 0.3 0.65 0.5 1.1 1.1 1.55 2.75 1.35 4.65-0.25 2.15-1.4 4.35-3.15 6.15-1.6 1.6-3.6 2.75-5.55 3.15-1.75 0.35-3.4 0.1-4.55-0.65-0.2-0.15-0.45-0.3-0.65-0.5-1.1-1.1-1.6-2.75-1.35-4.65zM26.95 25.45c0.45 0.55 0.5 1.35 0.1 1.95-0.5 0.75-1.5 0.95-2.25 0.45s-0.95-1.5-0.45-2.25c0.050-0.1 0.15-0.2 0.3-0.3 0.2-0.2 0.35-0.45 0.3-0.75 0-0.3-0.15-0.55-0.4-0.7l-0.8-0.55 1.1-1.65 0.75 0.5c0.2 0.15 0.5 0.2 0.75 0.1 0.25-0.050 0.5-0.25 0.6-0.5 0.050-0.1 0.1-0.15 0.15-0.25 0.5-0.75 1.5-0.95 2.25-0.45s0.95 1.5 0.45 2.25c-0.4 0.6-1.15 0.85-1.85 0.65-0.4-0.1-0.8 0.050-1.050 0.35-0.25 0.4-0.2 0.85 0.050 1.15zM13.2 15.1c2.4-2.45 3.15-5.6 1.65-7.1-0.95-0.95-2.5-0.95-4.15-0.3l0.5 3.15c0.25 0 0.45 0.050 0.6 0.2 0.45 0.45 0.25 1.4-0.5 2.1-0.7 0.75-1.65 0.95-2.1 0.5s-0.25-1.4 0.5-2.1c0.1-0.1 0.2-0.15 0.25-0.25l-0.5-3c-0.6 0.35-1.15 0.85-1.7 1.4-2.4 2.45-3.15 5.6-1.65 7.1s4.65 0.75 7.1-1.7z"></path>
</svg>
