<!-- Generated by IcoMoon.io -->
<svg version="1.1" xmlns="http://www.w3.org/2000/svg" width="32" height="32" viewBox="0 0 32 32">
<title>meat-grinder</title>
<path d="M4.5 5.5h22.5c1.381 0 2.023-0.119 2.023-1.5 0-0.485-0.523-0.5-0.523-0.5h-25.492c0 0-0.5-0.008-0.5 0.5 0 1.381 0.611 1.5 1.992 1.5zM0 18.063c0 0.517 0.42 0.938 0.938 0.938h0.125c0.518 0 0.938-0.42 0.938-0.938v-3.563h-2v3.563zM1.063 9.5h-0.125c-0.517 0-0.938 0.42-0.938 0.938v3.563h2v-3.563c0-0.518-0.42-0.938-0.938-0.938zM30 9.5h-13.5c-2.438 0-2.5 0.896-2.5 2h-4.5v-4.5c0-0.552-0.448-1-1-1h-3c-0.552 0-1 0.448-1 1v4.5h-1c-0.552 0-1 0.448-1 1v3c0 0.552 0.448 1 1 1h9.204l-2.204 8.5c0 1.105 0.896 2 2 2h0.429c0.064 0.677 0.627 1.209 1.321 1.209s1.257-0.532 1.321-1.209h11.358c0.064 0.677 0.627 1.209 1.321 1.209s1.257-0.532 1.321-1.209h0.428c1.105 0 2-0.895 2-2v-13.5c0-1.104-0.895-2-2-2zM22.042 25.458c-1.956 0-3.542-1.585-3.542-3.541s1.586-3.541 3.542-3.541c1.956 0 3.541 1.585 3.541 3.541s-1.585 3.541-3.541 3.541zM22.042 19.416c-0.477 0-0.918 0.14-1.297 0.372l3.425 3.425c0.232-0.379 0.372-0.82 0.372-1.297 0-1.381-1.119-2.5-2.5-2.5zM19.542 21.916c0 1.381 1.119 2.5 2.5 2.5 0.541 0 1.039-0.177 1.448-0.469l-3.48-3.48c-0.293 0.41-0.468 0.907-0.468 1.449z"></path>
</svg>
