<!-- Generated by IcoMoon.io -->
<svg version="1.1" xmlns="http://www.w3.org/2000/svg" width="32" height="32" viewBox="0 0 32 32">
<title>Medicine-capsules</title>
<path d="M10.951 14.963c2.505-2.506 2.505-6.568 0-9.072s-6.566-2.505-9.072 0c-2.505 2.505-2.505 6.566 0 9.072s6.566 2.505 9.072 0zM3.219 7.229c0.289-0.29 0.759-0.29 1.049 0l5.22 5.22c0.29 0.289 0.29 0.759 0 1.049-0.145 0.145-0.334 0.217-0.524 0.217s-0.38-0.072-0.524-0.217l-5.22-5.221c-0.289-0.289-0.289-0.759 0-1.048zM8.036 19.261c-2.726 2.758-2.701 7.202 0.056 9.928 2.758 2.728 7.203 2.702 9.93-0.055 2.727-2.758 2.703-7.203-0.056-9.93-2.756-2.727-7.202-2.701-9.93 0.056zM16.515 21.826l-5.681 5.747c-0.316 0.319-0.829 0.321-1.148 0.006-0.159-0.157-0.239-0.364-0.241-0.573-0.001-0.207 0.077-0.416 0.235-0.575l5.681-5.746c0.316-0.319 0.829-0.322 1.148-0.006 0.318 0.314 0.321 0.828 0.006 1.147zM23.255 0.781c-4.831 0-8.745 3.915-8.745 8.745s3.916 8.745 8.746 8.745c4.829 0 8.744-3.915 8.745-8.745s-3.916-8.745-8.745-8.745zM28.883 10.242c-0.183 0.182-0.436 0.296-0.715 0.296l-10.064-0.001c-0.558 0-1.011-0.453-1.011-1.011s0.453-1.011 1.011-1.011h10.064c0.558 0 1.011 0.453 1.011 1.011 0 0.279-0.113 0.532-0.296 0.715z"></path>
</svg>
