<!-- Generated by IcoMoon.io -->
<svg version="1.1" xmlns="http://www.w3.org/2000/svg" width="32" height="32" viewBox="0 0 32 32">
<title>Medical-chopper-transport</title>
<path d="M31.977 13.69c-0.046-0.102-0.149-0.173-0.261-0.159l-2.469 0.129 1.893-1.802c0.053-0.052 0.084-0.122 0.084-0.196v-3.842c0-0.112-0.068-0.212-0.173-0.252-0.102-0.041-0.223-0.013-0.297 0.072l-3.755 4.168-12.323-0.002v0.024c0 0-0.046 0-0.123 0v-3.452h1.177c0.213 0.268 0.539 0.428 0.882 0.428h6.843c0.624 0 1.132-0.508 1.132-1.132s-0.508-1.132-1.132-1.132h-6.843c-0.401 0-0.77 0.217-0.972 0.555h-3.983c-0.201-0.343-0.566-0.555-0.972-0.555h-6.843c-0.624 0-1.131 0.508-1.131 1.132s0.507 1.132 1.131 1.132h6.843c0.348 0 0.669-0.156 0.883-0.428h1.148v3.452c-1.922-0.001-4.572-0.002-4.61-0.002-0.397 0-1.748 0.093-2.433 1.283-0.293 0.507-2.642 5.485-2.741 5.697-0.075 0.169-0.123 0.282-0.146 0.348-0.031 0.094-0.046 0.198-0.046 0.324v0.247c0 0.235 0.043 0.476 0.13 0.718 0.085 0.241 0.208 0.462 0.363 0.657 0.16 0.2 0.36 0.363 0.592 0.483 0.237 0.121 0.497 0.183 0.773 0.183h3.694c-0.283 0.765-0.489 1.642-0.516 2.608l-5.41 0.002c-0.036-0.035-0.739 0.102-1.31-1.694-0.084-0.285-0.383-0.448-0.67-0.364-0.286 0.084-0.449 0.384-0.365 0.672 0.569 2.044 1.818 2.468 2.288 2.468 0.021 0 0.039-0.001 0.058-0.003 0.027 0 0.049 0 0.063 0h20.145c0.299 0 0.541-0.241 0.541-0.54 0-0.299-0.242-0.541-0.541-0.541h-6.046c-0.028-0.967-0.235-1.843-0.518-2.608h2.294c0.2 0 0.39-0.049 0.566-0.149 0.156-0.084 0.305-0.197 0.441-0.332 0.131-0.131 0.245-0.276 0.338-0.432 0.090-0.149 0.165-0.289 0.223-0.424 0.036-0.070 0.101-0.224 0.188-0.438 0.084-0.207 0.172-0.425 0.267-0.66 0.098-0.236 0.185-0.46 0.262-0.669 0.066-0.181 0.11-0.303 0.138-0.384 0.034-0.032 0.075-0.056 0.127-0.076l4.657-1.861h3.947c0.072 0 0.14-0.029 0.191-0.078l2.273-2.274c0.079-0.079 0.101-0.2 0.056-0.3zM9.162 15.928l1.966 0.008v-1.972h1.964v1.972h1.973v1.966h-1.973v1.965h-1.964v-1.965h-1.966v-1.973zM8.858 24.375c0.026-0.97 0.274-1.855 0.598-2.608h5.396c0.323 0.754 0.569 1.639 0.597 2.608h-6.591z"></path>
</svg>
