<!-- Generated by IcoMoon.io -->
<svg version="1.1" xmlns="http://www.w3.org/2000/svg" width="32" height="32" viewBox="0 0 32 32">
<title>Medical-hammer</title>
<path d="M28.157 6.482c0.456-0.455 0.456-1.194 0-1.649s-1.193-0.455-1.648 0l-15.168 15.168c-0.804-0.424-1.821-0.307-2.498 0.37l-7.228 7.226c-0.833 0.833-0.833 2.183 0 3.015l0.762 0.762c0.833 0.833 2.183 0.833 3.015 0l7.227-7.227c0.678-0.677 0.794-1.693 0.37-2.498l15.168-15.168zM30.945 16.843l-3.275-8.996-7.152 7.151 9.029 3.248c0.12 0.044 0.245 0.064 0.369 0.064 0.286 0 0.567-0.112 0.775-0.322 0.299-0.299 0.398-0.747 0.253-1.145zM13.371 12.427l3.432 1.235 9.518-9.518-1.247-3.425c-0.128-0.351-0.426-0.613-0.791-0.693-0.365-0.082-0.745 0.030-1.009 0.294l-10.306 10.306c-0.265 0.264-0.376 0.646-0.294 1.011s0.345 0.664 0.697 0.79z"></path>
</svg>
