<!-- Generated by IcoMoon.io -->
<svg version="1.1" xmlns="http://www.w3.org/2000/svg" width="32" height="32" viewBox="0 0 32 32">
<title>Medical-temperature</title>
<path d="M31.352 6.048l-5.41-5.412c-0.837-0.836-2.293-0.837-3.134 0.001l-20.741 20.741 0.688 6.126c-0.050 0.037-0.1 0.073-0.146 0.119l-2.248 2.248c-0.484 0.483-0.484 1.271 0 1.755 0.485 0.487 1.272 0.487 1.757 0l2.247-2.247c0.045-0.046 0.082-0.096 0.12-0.146l6.126 0.689 20.741-20.741c0.862-0.865 0.861-2.271-0.001-3.133zM30.152 7.981l-20.163 20.161-5.248-0.59-0.304-0.305-0.591-5.247 14.114-14.115 1.805 1.805c0.316 0.316 0.828 0.316 1.145 0 0.316-0.316 0.315-0.828 0-1.144l-1.806-1.804 0.699-0.699 1.805 1.805c0.316 0.316 0.828 0.316 1.144 0 0.316-0.315 0.316-0.827 0-1.143l-1.805-1.806 0.698-0.699 1.805 1.806c0.316 0.315 0.828 0.315 1.145 0 0.316-0.316 0.316-0.83 0-1.145l-1.805-1.806 1.216-1.216c0.197-0.197 0.538-0.196 0.733-0.001l5.41 5.41c0.202 0.202 0.202 0.532 0.002 0.734zM17.004 11.847c-1.736 0.001-3.143 1.407-3.143 3.142 0 0.302 0.045 0.593 0.124 0.868l-6.939 6.94c-0.001 0-0.002 0-0.002 0.003l-0.064 0.063-0.591 0.59-0.050 1.927 0.271 0.272 1.927-0.050 7.594-7.595c0.276 0.079 0.567 0.124 0.869 0.124 1.735 0 3.14-1.407 3.14-3.14 0-1.736-1.405-3.143-3.139-3.143z"></path>
</svg>
