<!-- Generated by IcoMoon.io -->
<svg version="1.1" xmlns="http://www.w3.org/2000/svg" width="32" height="32" viewBox="0 0 32 32">
<title>Medical-pill</title>
<path d="M16 0c-3.813 0.002-7.037 3.096-7.039 6.758l0.002 17.641c-0.002 2.099 0.712 4.024 2.008 5.424 1.302 1.405 3.087 2.178 5.029 2.178h0.002c1.939 0 3.724-0.773 5.026-2.178 1.296-1.398 2.009-3.324 2.009-5.421l0.001-17.644c-0.001-3.66-3.224-6.755-7.037-6.756zM10.982 7.326c-0.015-0.139-0.021-0.271-0.021-0.399 0.004-1.463 0.799-2.771 1.929-3.647l0.001 0.002c0.283-0.22 0.694-0.167 0.912 0.116 0.219 0.283 0.167 0.69-0.117 0.911-0.874 0.676-1.429 1.652-1.425 2.618 0 0.101 0.005 0.197 0.016 0.29l0.005 0.081 0.001 4.448h-1.302l-0.001-4.419zM21.011 23.835c0 2.363-0.535 3.655-1.508 4.628s-2.124 1.508-3.5 1.508c-1.377 0-2.531-0.535-3.503-1.507-0.972-0.974-1.508-2.267-1.508-4.628l-0.001-4.475c-0.001-0.012-0.007-0.023-0.007-0.035l-0.001-2.674h10.028l-0.001 7.183z"></path>
</svg>
