<!-- Generated by IcoMoon.io -->
<svg version="1.1" xmlns="http://www.w3.org/2000/svg" width="32" height="32" viewBox="0 0 32 32">
<title>Medical-chain-symbol-of-dna</title>
<path d="M31.875 21.317c-2.014-4.146-4.46-6.095-7.222-6.857-2.111-0.582-5.067-0.281-7.284 0.057 0.473-2.926 0.648-5.957-1.142-9.121-1.388-2.454-3.553-3.837-5.759-4.724-0.63-0.254-1.347 0.051-1.601 0.681s0.051 1.347 0.681 1.601c0.378 0.152 0.755 0.322 1.123 0.513l-7.615 7.615c-0.262-0.469-0.487-0.954-0.684-1.443-0.253-0.63-0.97-0.935-1.601-0.681s-0.935 0.97-0.681 1.601c0.888 2.204 2.271 4.371 4.724 5.76 3.111 1.76 6.717 1.667 9.61 1.214-0.342 2.192-0.543 4.393 0.049 6.537 0.762 2.762 2.708 5.208 6.856 7.222 0.61 0.298 1.345 0.044 1.642-0.566s0.044-1.345-0.566-1.642c-0.407-0.198-0.788-0.399-1.145-0.604l7.591-7.591c0.279 0.456 0.551 0.956 0.817 1.505 0.298 0.609 1.033 0.863 1.642 0.565s0.864-1.032 0.566-1.642zM4.365 12.881l8.168-8.166c0.256 0.224 0.5 0.466 0.729 0.728l-8.133 8.134c-0.274-0.216-0.527-0.45-0.763-0.695zM8.244 15.024c-0.383-0.089-0.757-0.2-1.12-0.337l7.336-7.337c0.156 0.354 0.284 0.711 0.386 1.071l-6.602 6.601zM14.84 15.018c-1.203 0.188-2.502 0.328-3.798 0.316l4.17-4.169c0.009 1.264-0.161 2.553-0.371 3.853zM16.93 17.009c1.218-0.209 2.645-0.413 4.021-0.457l-4.436 4.436c-0.018-1.306 0.178-2.632 0.416-3.98zM16.924 23.687l6.901-6.901c0.059 0.015 0.117 0.029 0.175 0.046 0.309 0.085 0.614 0.192 0.914 0.323l-7.564 7.565c-0.174-0.339-0.314-0.683-0.425-1.032zM19.416 27.218c-0.276-0.23-0.529-0.463-0.759-0.699l8.147-8.147c0.247 0.219 0.491 0.46 0.73 0.727l-8.119 8.118z"></path>
</svg>
