<!-- Generated by IcoMoon.io -->
<svg version="1.1" xmlns="http://www.w3.org/2000/svg" width="32" height="32" viewBox="0 0 32 32">
<title>memory-card</title>
<path d="M26.913 16c-0.091 0-0.913-0.137-0.913-0.24v-2.495c0-0.104 0.822-0.265 0.913-0.265h1.087v-6.719l-6-6.281h-14.5c-1.665 0-3.5 1.38-3.5 3.045v8.456h2.010c0.104 0-0.010 0.408-0.010 0.5v5c0 0.093 0.114 0.5 0.010 0.5h-2.010v11.171c0 1.665 1.835 3.329 3.5 3.329h2.5v-1.5c0-0.104 0.658-0.5 0.75-0.5h11.25c0.093 0 0.5 0.396 0.5 0.5v1.5h2.736c1.666 0 2.764-1.665 2.764-3.329v-12.671h-1.087zM9.5 8.851c0 0.092 0.070 0.149-0.034 0.149h-2.495c-0.104 0-0.471-0.408-0.471-0.5v-5.773c0-0.092 0.368-0.227 0.471-0.227h2.029c0.5 0 0.5 0.408 0.5 0.5v5.851zM14 8.851c0 0.092 0.040 0.149-0.063 0.149h-2.495c-0.104 0-0.443-0.408-0.443-0.5v-5.773c0-0.092 0.339-0.227 0.443-0.227h2.058c0.103 0 0.5 0.408 0.5 0.5v5.851zM18.5 8.851c0 0.092 0.012 0.149-0.091 0.149h-2.495c-0.104 0-0.413-0.408-0.413-0.5v-5.773c0-0.092 0.31-0.227 0.413-0.227h2.087c0.103 0 0.5 0.408 0.5 0.5v5.851zM23 8.851c0 0.092-0.017 0.149-0.12 0.149h-2.495c-0.103 0-0.384-0.408-0.384-0.5v-5.773c0-0.092 0.282-0.227 0.384-0.227h2.116c0.104 0 0.5 0.408 0.5 0.5v5.851z"></path>
</svg>
