<!-- Generated by IcoMoon.io -->
<svg version="1.1" xmlns="http://www.w3.org/2000/svg" width="32" height="32" viewBox="0 0 32 32">
<title>men-shoe</title>
<path d="M29.008 12.479c-1.138 1.707-7.517 2.735-8.201-0.684s-3.303-3.987-3.416-2.849c-0.039 0.399-0.825 1.175-2.069 2.073l1.899 3.625c0.265 0.506 0.070 1.131-0.436 1.396s-1.131 0.070-1.396-0.436l-1.803-3.441c-0.495 0.301-1.025 0.604-1.581 0.901l1.057 2.018c0.264 0.506 0.069 1.131-0.437 1.396s-1.132 0.070-1.396-0.436l-1.079-2.058c-1.517 0.697-3.135 1.3-4.709 1.681-3.345 0.81-6.192 3.663-5.263 5.309-0.090 0.122-0.146 0.273-0.146 0.437v0.717c0 0.407 0.589 0.614 1.063 0.744 0 0 2.291 0.711 6.569 0.711s23.152-0.409 23.152-0.409c0.407 0 0.738-0.33 0.738-0.738v-1.434c0-0.217-0.095-0.41-0.244-0.545 2.126-4.674-1.248-9.563-2.304-7.979z"></path>
</svg>
