<!-- Generated by IcoMoon.io -->
<svg version="1.1" xmlns="http://www.w3.org/2000/svg" width="32" height="32" viewBox="0 0 32 32">
<title>men-socks</title>
<path d="M16.107 11.194l-2.107-10.825c-0.048-0.248-0.289-0.409-0.536-0.361l-1.011 0.197 0.588 3.199c0.050 0.264-0.126 0.519-0.39 0.567-0.262 0.049-0.517-0.127-0.567-0.391l-0.586-3.189-1.572 0.306 0.584 3.175c0.049 0.264-0.126 0.518-0.392 0.568-0.262 0.049-0.517-0.127-0.566-0.391l-0.582-3.166-1.571 0.305 0.58 3.151c0.049 0.265-0.127 0.519-0.391 0.568s-0.518-0.127-0.567-0.391l-0.577-3.142-1.11 0.216c-0.247 0.048-0.409 0.288-0.361 0.535l2.468 12.675-5.242 7.558c1.747 0.296 4.046 1.303 5.144 4.422 0.096 0.273-0.047 0.572-0.321 0.668-0.057 0.020-0.116 0.030-0.174 0.030-0.216 0-0.418-0.135-0.494-0.35-1.044-2.966-3.318-3.686-4.814-3.822l-0.125 0.18c0 0-2.18 4.011 1.473 6.52 0 0 4.529 2.312 7.439-2.979 0 0 2.569-4.479 4.231-6.055 1.421-1.348 6.695-4.419 1.55-9.781zM29.024 12.681l-2.107-10.825c-0.047-0.248-0.289-0.409-0.535-0.361l-1.011 0.197 0.588 3.199c0.049 0.264-0.127 0.519-0.391 0.568-0.262 0.048-0.517-0.127-0.567-0.391l-0.587-3.189-1.571 0.305 0.584 3.175c0.049 0.264-0.125 0.518-0.391 0.568-0.262 0.049-0.517-0.127-0.566-0.391l-0.582-3.166-1.57 0.305 0.579 3.151c0.049 0.264-0.128 0.519-0.392 0.569s-0.518-0.127-0.567-0.391l-0.578-3.142-1.11 0.216c-0.247 0.049-0.409 0.288-0.361 0.535l2.468 12.675-5.243 7.558c1.746 0.296 4.046 1.302 5.144 4.422 0.096 0.273-0.047 0.572-0.32 0.668-0.058 0.020-0.116 0.030-0.174 0.030-0.216 0-0.419-0.135-0.494-0.35-1.048-2.977-3.317-3.694-4.811-3.825l-0.129 0.185c0 0-2.18 4.011 1.473 6.521 0 0 4.528 2.312 7.438-2.979 0 0 2.569-4.479 4.231-6.055 1.42-1.348 6.694-4.42 1.55-9.782z"></path>
</svg>
