<!-- Generated by IcoMoon.io -->
<svg version="1.1" xmlns="http://www.w3.org/2000/svg" width="32" height="32" viewBox="0 0 32 32">
<title>microphone-slash</title>
<path d="M29.759 2.631l-1.889-1.889c-0.39-0.39-1.023-0.39-1.414 0l-24.214 24.213c-0.391 0.39-0.391 1.023 0 1.414l1.889 1.889c0.391 0.39 1.024 0.39 1.414 0l3.778-3.777c1.594 1.505 3.701 2.515 6.178 2.779v2.241h-5.228c-0.675 0-1.22 0.577-1.223 1.25 0.004 0.672 0.55 1.25 1.223 1.25h12.395c0.674 0 1.22-0.577 1.224-1.25-0.004-0.673-0.55-1.25-1.224-1.25h-5.166v-2.239c5.5-0.595 9.32-4.953 9.45-10.29 0.002-0.023 0.050-0.044 0.050-0.067v-4.704c0-0.69-0.561-1.249-1.25-1.254-0.689 0.005-1.25 0.564-1.25 1.254v4.704c0 0.021 0.074 0.042 0.075 0.064-0.055 4.46-3.652 8.056-8.126 8.056-2.142 0-4.061-0.831-5.489-2.181l1.479-1.479c1.048 1.002 2.454 1.618 4.060 1.628 3.451-0.022 6.002-2.822 6.002-6.276v-4.216h-1.197l8.455-8.455c0.391-0.39 0.391-1.024 0-1.414zM20.567 1.635c-1.050-1.004-2.459-1.623-4.067-1.633-3.448 0.021-5.999 2.822-5.999 6.277v4.721h1.087l8.98-9.365zM16.459 0c0.013 0 0.026 0.002 0.040 0.002s0.026-0.002 0.040-0.002h-0.079zM16.539 22.994c-0.014 0-0.026-0.002-0.040-0.002s-0.026 0.002-0.040 0.002h0.079zM23.89 30.791v-0.015l-0.001 0.007zM9.047 30.791l0.001-0.008-0.001-0.007zM7.107 11.193h-0.016c0.003 0 0.005 0.001 0.008 0.001 0.002 0 0.005-0.001 0.008-0.001zM25.892 10.947h-0.015c0.003 0 0.005 0.001 0.008 0.001s0.005-0.001 0.008-0.001zM8.5 12.431c0-0.681-0.57-1.233-1.25-1.238-0.68 0.004-1.25 0.556-1.25 1.238v4.396l2.5-2.607v-1.788z"></path>
</svg>
