<!-- Generated by IcoMoon.io -->
<svg version="1.1" xmlns="http://www.w3.org/2000/svg" width="32" height="32" viewBox="0 0 32 32">
<title>Microscope-tool</title>
<path d="M17.697 0l5.129 4.665-1.684 1.852-5.129-4.665 1.684-1.852zM3.098 16.915l4.274 3.887-1.684 1.852-4.274-3.887 1.684-1.852zM13.351 15.085c-0.299-0.512-0.482-1.099-0.482-1.735 0-1.915 1.552-3.466 3.466-3.466 0.519 0 1.006 0.121 1.448 0.326l2.647-2.911-5.129-4.663-11.918 13.107 5.13 4.663 4.839-5.322zM16.947 11.132c-0.195-0.054-0.397-0.093-0.611-0.093-1.274 0-2.311 1.037-2.311 2.312 0 0.29 0.059 0.565 0.158 0.82 0.332 0.87 1.168 1.491 2.153 1.491 0.501 0 0.961-0.164 1.34-0.437 0.584-0.418 0.97-1.101 0.97-1.875 0-0.348-0.084-0.677-0.223-0.973-0.285-0.607-0.823-1.065-1.477-1.245zM28.274 27.264h-4.125c0.326-2.45 0.941-10.508-4.369-14.127 0.005 0.072 0.021 0.14 0.021 0.214 0 1.119-0.54 2.104-1.362 2.736 1.307 1.794 2.243 5.188-0.602 11.177h-14.019c-1.276 0-2.311 1.034-2.311 2.311v2.426h29.077v-2.426c0-1.276-1.037-2.311-2.311-2.311z"></path>
</svg>
