<!-- Generated by IcoMoon.io -->
<svg version="1.1" xmlns="http://www.w3.org/2000/svg" width="32" height="32" viewBox="0 0 32 32">
<title>microphone</title>
<path d="M22 6.279c0-3.454-2.551-6.255-6.001-6.277-3.448 0.021-5.999 2.822-5.999 6.277v4.721h12v-4.721zM15.96 0c0.013 0 0.027 0.002 0.040 0.002s0.027-0.002 0.040-0.002h-0.079zM16.039 22.994c-0.014 0-0.026-0.002-0.040-0.002s-0.027 0.002-0.040 0.002h0.079zM15.999 22.992c3.45-0.021 6.001-2.822 6.001-6.276v-4.216h-12v4.216c0 3.454 2.55 6.255 5.999 6.276zM23.39 30.776l-0.001 0.007 0.001 0.008zM8.547 30.791l0.001-0.008-0.001-0.007zM6.592 11.193c0.003 0 0.005 0.001 0.008 0.001s0.005-0.001 0.008-0.001h-0.016zM25.377 10.947c0.003 0 0.005 0.001 0.008 0.001s0.006-0.001 0.008-0.001h-0.016zM25.25 10.947c-0.689 0.005-1.25 0.564-1.25 1.254v4.704c0 0.021 0.074 0.042 0.075 0.064-0.055 4.46-3.652 8.056-8.126 8.056-4.431 0-7.932-3.532-8.053-7.934 0-0.006 0.104-0.011 0.104-0.016v-4.644c0-0.681-0.57-1.233-1.25-1.238-0.68 0.004-1.25 0.556-1.25 1.238v4.644c0 0.043 0.051 0.082 0.056 0.123 0.239 5.235 3.945 9.476 9.445 10.062v2.24h-5.229c-0.675 0-1.22 0.577-1.223 1.25 0.004 0.672 0.55 1.25 1.223 1.25h12.395c0.674 0 1.22-0.577 1.224-1.25-0.004-0.673-0.55-1.25-1.224-1.25h-5.166v-2.239c5.5-0.595 9.32-4.953 9.45-10.29 0.002-0.023 0.050-0.044 0.050-0.067v-4.704c0-0.691-0.561-1.25-1.25-1.254z"></path>
</svg>
