<!-- Generated by IcoMoon.io -->
<svg version="1.1" xmlns="http://www.w3.org/2000/svg" width="32" height="32" viewBox="0 0 32 32">
<title>milk</title>
<path d="M23.7 1.8c0 0 0 0 0 0s0 0 0 0v0zM8.3 1.8v0c0 0 0 0 0 0s0 0 0 0zM9.3 4.3h13.45c0 0 0.85-1.95 0.85-2 0 0 0.050-0.35 0.050-0.5 0-1.050-0.8-1.8-1.85-1.8h-11.5c-1.050 0-2 0.75-2 1.8 0 0.2 0.1 0.35 0.15 0.55l0.85 1.95zM24.65 12.6l-1.95-4.45v-2.45h-13.45v2.45l-1.95 4.45c-0.1 0.25-0.7 1.75-0.7 3.75v10.95c0 2.65 2.25 4.7 4.85 4.7h9.1c2.65 0 4.75-2.1 4.75-4.7v-10.95c0.050-2.050-0.5-3.5-0.65-3.75zM8.95 13.45l1.1-2.9c0.2-0.5 0.8-0.8 1.3-0.6s0.8 0.75 0.6 1.3l-1.1 2.9c-0.2 0.5-0.8 0.8-1.3 0.6v0c-0.55-0.2-0.8-0.8-0.6-1.3zM13.9 23.85c0 0.2-0.050 0.35-0.2 0.45-0.15 0.15-0.3 0.2-0.5 0.2s-0.35-0.050-0.5-0.2c-0.15-0.15-0.2-0.3-0.2-0.45v-2.35c0-0.1-0.050-0.15-0.1-0.25-0.050-0.050-0.15-0.1-0.25-0.1s-0.15 0.050-0.25 0.1c-0.050 0.050-0.1 0.15-0.1 0.25v2.35c0 0.2-0.050 0.35-0.2 0.45-0.15 0.15-0.3 0.2-0.5 0.2s-0.35-0.050-0.5-0.2c-0.15-0.15-0.2-0.3-0.2-0.45v-2.35c0-0.1-0.050-0.15-0.1-0.25-0.050-0.050-0.15-0.1-0.25-0.1s-0.15 0.050-0.25 0.1c-0.050 0.050-0.1 0.15-0.1 0.25v2.35c0 0.2-0.050 0.35-0.2 0.45-0.15 0.15-0.3 0.2-0.5 0.2s-0.35-0.050-0.5-0.2c-0.15-0.15-0.2-0.3-0.2-0.45v-3.35c0-0.2 0.050-0.35 0.2-0.45 0.15-0.15 0.3-0.2 0.5-0.2 0.15 0 0.25 0.050 0.4 0.1 0.2-0.1 0.4-0.1 0.65-0.1 0.4 0 0.7 0.1 1 0.35 0.3-0.2 0.65-0.35 1-0.35 0.45 0 0.85 0.15 1.2 0.5s0.5 0.7 0.5 1.2v2.3zM16.1 23.85c0 0.2-0.050 0.35-0.2 0.45-0.15 0.15-0.3 0.2-0.5 0.2s-0.35-0.050-0.5-0.2c-0.15-0.15-0.2-0.3-0.2-0.45v-3.35c0-0.2 0.050-0.35 0.2-0.45 0.15-0.15 0.3-0.2 0.5-0.2s0.35 0.050 0.5 0.2c0.15 0.15 0.2 0.3 0.2 0.45v3.35zM15.9 18.95c-0.15 0.15-0.3 0.2-0.5 0.2s-0.35-0.050-0.5-0.2c-0.15-0.15-0.2-0.3-0.2-0.45 0-0.2 0.050-0.35 0.2-0.45 0.15-0.15 0.3-0.2 0.5-0.2s0.35 0.050 0.5 0.2c0.15 0.15 0.2 0.3 0.2 0.45s-0.050 0.3-0.2 0.45zM18.3 23.85c0 0.2-0.050 0.35-0.2 0.45-0.15 0.15-0.3 0.2-0.5 0.2s-0.35-0.050-0.5-0.2c-0.15-0.15-0.2-0.3-0.2-0.45v-4c0-0.2 0.050-0.35 0.2-0.45 0.15-0.15 0.3-0.2 0.5-0.2s0.35 0.050 0.5 0.2c0.15 0.15 0.2 0.3 0.2 0.45v4zM23 23.35c0.15 0.15 0.2 0.3 0.2 0.5s-0.050 0.35-0.2 0.45c-0.15 0.15-0.3 0.2-0.5 0.2s-0.35-0.050-0.5-0.2l-0.85-1.1-0.75 0.95c-0.050 0.050-0.050 0.1-0.1 0.15-0.15 0.15-0.3 0.2-0.5 0.2s-0.35-0.050-0.5-0.2c-0.15-0.15-0.2-0.3-0.2-0.45v-4c0-0.2 0.050-0.35 0.2-0.45 0.15-0.15 0.3-0.2 0.5-0.2s0.35 0.050 0.5 0.2c0.15 0.15 0.2 0.3 0.2 0.45v2.1l1.55-1.9c0.15-0.15 0.3-0.2 0.5-0.2s0.35 0.050 0.5 0.2c0.15 0.15 0.2 0.3 0.2 0.45 0 0.2-0.050 0.35-0.2 0.45l-1 1.2 0.95 1.2z"></path>
</svg>
