<!-- Generated by IcoMoon.io -->
<svg version="1.1" xmlns="http://www.w3.org/2000/svg" width="32" height="32" viewBox="0 0 32 32">
<title>mini-speaker</title>
<path d="M30 6h-28c-1.105 0-2 0.896-2 2v18c0 1.105 0.895 2 2 2h28c1.105 0 2-0.895 2-2v-18c0-1.104-0.895-2-2-2zM2.453 21.22c-0.422 0-0.764-0.343-0.764-0.765s0.342-0.764 0.764-0.764 0.764 0.343 0.764 0.764c0.001 0.422-0.342 0.764-0.764 0.764zM2.453 13.853c-0.422 0-0.764-0.342-0.764-0.764s0.342-0.764 0.764-0.764 0.764 0.342 0.764 0.764-0.342 0.764-0.764 0.764zM4.441 25.177c-0.423 0-0.764-0.343-0.764-0.765s0.343-0.764 0.764-0.764 0.764 0.343 0.764 0.764-0.342 0.764-0.764 0.764zM4.441 17.677c-0.423 0-0.764-0.343-0.764-0.765s0.343-0.764 0.764-0.764 0.764 0.343 0.764 0.764-0.342 0.764-0.764 0.764zM4.441 10.030c-0.423 0-0.764-0.342-0.764-0.764s0.342-0.765 0.764-0.765 0.764 0.342 0.764 0.764-0.342 0.765-0.764 0.765zM6.353 21.5c-0.422 0-0.764-0.343-0.764-0.764s0.343-0.764 0.764-0.764c0.423 0 0.765 0.343 0.765 0.764s-0.343 0.764-0.765 0.764zM6.353 13.853c-0.422 0-0.764-0.342-0.764-0.764s0.343-0.764 0.764-0.764c0.423 0 0.765 0.342 0.765 0.764s-0.343 0.764-0.765 0.764zM8.264 25.177c-0.423 0-0.764-0.343-0.764-0.765s0.343-0.764 0.764-0.764 0.764 0.343 0.764 0.764-0.342 0.764-0.764 0.764zM8.264 17.677c-0.423 0-0.764-0.343-0.764-0.765s0.343-0.764 0.764-0.764 0.764 0.343 0.764 0.764-0.342 0.764-0.764 0.764zM8.264 10.030c-0.423 0-0.764-0.342-0.764-0.764s0.343-0.765 0.764-0.765 0.764 0.342 0.764 0.764-0.342 0.765-0.764 0.765zM10.177 21.5c-0.422 0-0.764-0.343-0.764-0.764s0.342-0.764 0.764-0.764 0.764 0.343 0.764 0.764-0.342 0.764-0.764 0.764zM10.177 13.853c-0.422 0-0.764-0.342-0.764-0.764s0.342-0.764 0.764-0.764 0.764 0.342 0.764 0.764-0.342 0.764-0.764 0.764zM12.088 25.177c-0.422 0-0.764-0.343-0.764-0.765s0.342-0.764 0.764-0.764 0.764 0.343 0.764 0.764-0.342 0.764-0.764 0.764zM12.088 17.677c-0.422 0-0.764-0.343-0.764-0.765s0.342-0.764 0.764-0.764 0.764 0.343 0.764 0.764-0.342 0.764-0.764 0.764zM12.088 10.030c-0.422 0-0.764-0.342-0.764-0.764s0.342-0.765 0.764-0.765 0.764 0.342 0.764 0.764-0.342 0.765-0.764 0.765zM14 21.5c-0.422 0-0.764-0.343-0.764-0.764s0.342-0.764 0.764-0.764 0.764 0.343 0.764 0.764-0.342 0.764-0.764 0.764zM14 13.853c-0.422 0-0.764-0.342-0.764-0.764s0.342-0.764 0.764-0.764 0.764 0.342 0.764 0.764-0.342 0.764-0.764 0.764zM15.912 25.177c-0.422 0-0.764-0.343-0.764-0.765s0.342-0.764 0.764-0.764 0.764 0.343 0.764 0.764-0.342 0.764-0.764 0.764zM15.912 17.677c-0.422 0-0.764-0.343-0.764-0.765s0.342-0.764 0.764-0.764 0.764 0.343 0.764 0.764-0.342 0.764-0.764 0.764zM15.912 10.030c-0.422 0-0.764-0.342-0.764-0.764s0.342-0.765 0.764-0.765 0.764 0.342 0.764 0.764-0.342 0.765-0.764 0.765zM17.823 21.5c-0.422 0-0.764-0.343-0.764-0.764s0.343-0.764 0.764-0.764 0.764 0.343 0.764 0.764-0.342 0.764-0.764 0.764zM17.823 13.853c-0.422 0-0.764-0.342-0.764-0.764s0.343-0.764 0.764-0.764 0.764 0.342 0.764 0.764-0.342 0.764-0.764 0.764zM19.735 25.177c-0.422 0-0.765-0.343-0.765-0.765s0.343-0.764 0.764-0.764 0.764 0.342 0.764 0.764-0.343 0.765-0.764 0.765zM19.735 17.677c-0.422 0-0.765-0.343-0.765-0.765s0.343-0.764 0.764-0.764 0.764 0.342 0.764 0.764-0.343 0.765-0.764 0.765zM19.735 10.030c-0.422 0-0.765-0.342-0.765-0.764s0.342-0.765 0.764-0.765 0.764 0.342 0.764 0.764-0.343 0.765-0.764 0.765zM21.648 21.5c-0.422 0-0.765-0.343-0.765-0.764s0.343-0.764 0.765-0.764c0.422 0 0.764 0.343 0.764 0.764s-0.343 0.764-0.764 0.764zM21.648 13.853c-0.422 0-0.765-0.342-0.765-0.764s0.343-0.764 0.765-0.764c0.422 0 0.764 0.342 0.764 0.764s-0.343 0.764-0.764 0.764zM23.558 25.177c-0.422 0-0.765-0.343-0.765-0.765s0.343-0.764 0.764-0.764 0.764 0.343 0.764 0.764-0.342 0.764-0.764 0.764zM23.558 17.677c-0.422 0-0.765-0.343-0.765-0.765s0.343-0.764 0.764-0.764 0.764 0.343 0.764 0.764-0.342 0.764-0.764 0.764zM23.558 10.030c-0.422 0-0.765-0.342-0.765-0.764s0.342-0.765 0.764-0.765 0.764 0.342 0.764 0.764-0.342 0.765-0.764 0.765zM25.547 21.5c-0.422 0-0.764-0.343-0.764-0.764s0.343-0.764 0.764-0.764 0.764 0.343 0.764 0.764-0.343 0.764-0.764 0.764zM25.547 13.853c-0.422 0-0.764-0.342-0.764-0.764s0.343-0.764 0.764-0.764 0.764 0.342 0.764 0.764-0.343 0.764-0.764 0.764zM27.558 25.177c-0.422 0-0.765-0.343-0.765-0.765s0.343-0.764 0.764-0.764 0.764 0.343 0.764 0.764-0.342 0.764-0.764 0.764zM27.558 17.677c-0.422 0-0.765-0.343-0.765-0.765s0.343-0.764 0.764-0.764 0.764 0.343 0.764 0.764-0.342 0.764-0.764 0.764zM27.558 10.030c-0.422 0-0.765-0.342-0.765-0.764s0.342-0.765 0.764-0.765 0.764 0.342 0.764 0.764-0.342 0.765-0.764 0.765zM29.547 21.5c-0.422 0-0.764-0.343-0.764-0.764s0.343-0.764 0.764-0.764 0.764 0.343 0.764 0.764-0.343 0.764-0.764 0.764zM29.547 13.853c-0.422 0-0.764-0.342-0.764-0.764s0.343-0.764 0.764-0.764 0.764 0.342 0.764 0.764-0.343 0.764-0.764 0.764zM4.25 5.5h2.5c0.414 0 0.75-0.336 0.75-0.75s-0.336-0.75-0.75-0.75h-2.5c-0.414 0-0.75 0.336-0.75 0.75s0.336 0.75 0.75 0.75zM8.75 5.5h2.5c0.414 0 0.75-0.336 0.75-0.75s-0.336-0.75-0.75-0.75h-2.5c-0.414 0-0.75 0.336-0.75 0.75s0.336 0.75 0.75 0.75z"></path>
</svg>
