<!-- Generated by IcoMoon.io -->
<svg version="1.1" xmlns="http://www.w3.org/2000/svg" width="32" height="32" viewBox="0 0 32 32">
<title>mixer</title>
<path d="M31.357 13.5h-5.303c-0.355-1.012-1.237-1.441-2.553-1.521v-0.979h3.104c0.219 0 0.396-0.177 0.396-0.396v-0.208c0-0.219-0.177-0.396-0.396-0.396h-7.208c-0.219 0-0.396 0.177-0.396 0.396v0.208c0 0.219 0.177 0.396 0.396 0.396h3.104v0.982c-1.294 0.085-2.162 0.515-2.512 1.518h-5.345c-0.355 0-0.643 0.288-0.643 0.643v0.214c0 0.355 0.5 0.643 0.5 0.643s-0.001 3.499-0.001 3.562c0 3.223 1.673 5.647 4.319 7.084l-0.395 1.279c0 0.202 0.061 0.403 0.166 0.575h-3.589c0 0-4.542-0.459-6.438-4.291-1.563-3.159-2.29-11.773-2.497-14.709h12.434c0 0.552 0.448 1 1 1h7c0.552 0 1-0.448 1-1 0.552 0 1-0.448 1-1l-0.5-5c0-0.552-0.448-1-1-1h-25c-0.552 0-1 0.448-1 1l-1 5c0 0.552 0.448 1 1 1h1.475l-0.475 19c-0.552 0-0.893 0.791-0.893 0.791s-1.107 1.209-1.107 1.709 0.448 1 1 1h29c0.552 0 1-0.448 1-1l-0.5-1.5c0-0.552-0.448-1-1-1h-1.922c0.105-0.172 0.166-0.373 0.166-0.575l-0.471-1.459c2.438-1.491 4.227-3.9 4.227-6.966v-3.5c0 0 0.5-0.203 0.5-0.643v-0.214c0-0.355-0.288-0.643-0.643-0.643zM8.953 4.011c0.388 0 0.703 0.315 0.703 0.703s-0.315 0.703-0.703 0.703-0.703-0.315-0.703-0.703 0.315-0.703 0.703-0.703zM3.703 4.011c0.388 0 0.703 0.315 0.703 0.703s-0.315 0.703-0.703 0.703-0.703-0.315-0.703-0.703 0.315-0.703 0.703-0.703zM4.229 9.51c-0.615 0-1.115-0.499-1.115-1.114s0.499-1.114 1.115-1.114 1.115 0.499 1.115 1.114-0.5 1.114-1.114 1.114zM5.625 4.713c0-0.388 0.315-0.703 0.703-0.703s0.703 0.315 0.703 0.703-0.315 0.703-0.703 0.703-0.703-0.315-0.703-0.703zM23.5 12.717c0.858 0.047 1.436 0.248 1.739 0.783h-1.739v-0.783zM22.5 12.719v0.781h-1.698c0.297-0.527 0.863-0.73 1.698-0.781zM30.25 15h-14.5c-0.138 0-0.25-0.112-0.25-0.25s0.112-0.25 0.25-0.25h14.5c0.138 0 0.25 0.112 0.25 0.25s-0.112 0.25-0.25 0.25z"></path>
</svg>
