<!-- Generated by IcoMoon.io -->
<svg version="1.1" xmlns="http://www.w3.org/2000/svg" width="32" height="32" viewBox="0 0 32 32">
<title>money</title>
<path d="M31 6h-30c-0.552 0-1 0.448-1 1v18.5c0 0.552 0.448 1 1 1h30c0.552 0 1-0.448 1-1v-18.5c0-0.552-0.448-1-1-1zM30 20c-2.486 0-4.5 2.014-4.5 4.5h-19c0-2.486-2.014-4.5-4.5-4.5v-7.5c2.486 0 4.5-2.014 4.5-4.5h19c0 2.486 2.014 4.5 4.5 4.5v7.5zM16 9.5c-3.728 0-6.75 3.023-6.75 6.75s3.022 6.75 6.75 6.75 6.75-3.022 6.75-6.75c0-3.727-3.022-6.75-6.75-6.75zM19.277 19.538c-0.297 0.465-0.777 0.811-1.319 1.038-0.378 0.159-0.459 0.258-1.459 0.306v1.119h-1.5v-1.135c-0.5-0.1-1.3-0.355-1.777-0.765-0.63-0.544-0.884-1.337-1.007-2.378l1.828-0.177c0.11 0.614 0.333 1.064 0.67 1.352 0.152 0.131 0.332 0.227 0.532 0.299 0.242 0.086 0.517 0.134 0.829 0.134 0.252 0 0.471-0.027 0.671-0.072 0.282-0.062 0.517-0.163 0.698-0.312 0.306-0.256 0.46-0.555 0.46-0.898 0-0.22-0.065-0.407-0.194-0.561s-0.355-0.289-0.677-0.404c-0.067-0.023-0.17-0.053-0.288-0.088-0.273-0.078-0.674-0.183-1.219-0.319-0.102-0.026-0.191-0.053-0.287-0.080-0.851-0.235-1.479-0.513-1.845-0.841-0.572-0.512-0.872-1.136-0.872-1.873 0-0.474 0.104-0.917 0.372-1.33s0.594-0.726 1.1-0.943c0.33-0.141 1.005-0.231 1.005-0.28v-0.829h1.5v0.832c1 0.094 1.516 0.334 1.963 0.722 0.59 0.512 1.023 1.195 1.053 2.050l-1.879 0.082c-0.081-0.478-0.253-0.822-0.517-1.031-0.102-0.082-0.231-0.142-0.373-0.192-0.224-0.079-0.493-0.123-0.817-0.123-0.255 0-0.48 0.027-0.683 0.075-0.232 0.056-0.434 0.141-0.599 0.261-0.198 0.144-0.299 0.336-0.299 0.578 0 0.22 0.094 0.408 0.28 0.565 0.12 0.1 0.326 0.203 0.618 0.307 0.287 0.102 0.656 0.207 1.108 0.315 0.14 0.033 0.263 0.066 0.392 0.1 0.713 0.185 1.265 0.374 1.637 0.57 0.438 0.231 0.78 0.546 1.029 0.946 0.247 0.399 0.34 0.893 0.34 1.482 0 0.534-0.179 1.034-0.474 1.498z"></path>
</svg>
