<!-- Generated by IcoMoon.io -->
<svg version="1.1" xmlns="http://www.w3.org/2000/svg" width="32" height="32" viewBox="0 0 32 32">
<title>moon</title>
<path d="M29.329 24.5c-0.003 0-0.005 0-0.007 0-0.009 0-0.018 0-0.027 0-0.020 0-0.039-0.023-0.058-0.020-0.407 0.030-0.743 0.032-1.060 0.032-7.72 0-14-6.286-14-14.006 0-3.204 1.112-6.34 3.131-8.824 0.252-0.31 0.296-0.742 0.11-1.095-0.174-0.332-0.516-0.538-0.886-0.538-0.026 0-0.050 0.001-0.076 0.003-8.288 0.626-14.78 7.631-14.78 15.949 0 8.822 7.178 16 16 16 4.826 0 9.344-2.146 12.399-5.89 0.154-0.176 0.247-0.382 0.247-0.634-0-0.55-0.445-0.976-0.994-0.976z"></path>
</svg>
