<!-- Generated by IcoMoon.io -->
<svg version="1.1" xmlns="http://www.w3.org/2000/svg" width="32" height="32" viewBox="0 0 32 32">
<title>mosque</title>
<path d="M28.418 19h-0.27c0.078-0.5 0.122-0.567 0.122-0.836 0-0.799-0.145-1.619-1.563-2.838-0.433-0.372-0.798-0.796-1.096-1.56-0.024-0.063-0.11-0.132-0.11-0.175v-2.118c0-0.165-0.085-0.299-0.25-0.299s-0.25 0.134-0.25 0.299v2.119c0 0.043-0.088 0.094-0.113 0.156-0.299 0.764-0.654 1.142-1.087 1.514-0.82 0.707-1.226 1.239-1.413 1.739h-1.887v-1.962c0.5-0.759 0.952-1.719 0.952-2.802 0-1.409-0.302-2.787-2.8-4.934-0.762-0.656-1.389-1.37-1.916-2.715-0.040-0.101-0.098-0.186-0.15-0.258 0.344-0.059 0.643-0.238 0.643-0.452 0-0.248-0.23-0.451-0.73-0.469v-3.049c0-0.199-0.302-0.36-0.5-0.36s-0.5 0.161-0.5 0.36v3.050c-0.5 0.018-0.691 0.221-0.691 0.469 0 0.214 0.294 0.393 0.639 0.451-0.052 0.071-0.075 0.157-0.115 0.258-0.527 1.345-1.119 2.059-1.883 2.715-2.498 2.148-2.624 3.526-2.624 4.934 0 1.083 0.175 2.042 1.175 2.802v1.962h-2.322c-0.187-0.5-0.579-1.033-1.399-1.739-0.433-0.372-0.835-0.764-1.133-1.527-0.024-0.062-0.145-0.1-0.145-0.142v-2.119c0-0.165-0.084-0.299-0.25-0.299-0.165 0-0.25 0.134-0.25 0.299v2.119c0 0.042-0.053 0.094-0.076 0.155-0.3 0.764-0.637 1.169-1.071 1.541-1.418 1.219-1.559 2.076-1.559 2.875 0 0.268 0.046 0.336 0.123 0.836h-0.269c-0.793 0-1.648 0.492-1.648 1.285v11.714h3.5v-6.169c0-1.047 0.952-1.896 2-1.896s2 0.849 2 1.896v6.169h3.5v-7.572c0-1.593 1.406-2.885 3-2.885s3 1.292 3 2.885v7.572h3.5v-6.169c0-1.047 0.953-1.896 2-1.896 1.048 0 2 0.849 2 1.896v6.169h3.5v-11.715c0-0.793-0.79-1.285-1.582-1.285z"></path>
</svg>
