<!-- Generated by IcoMoon.io -->
<svg version="1.1" xmlns="http://www.w3.org/2000/svg" width="32" height="32" viewBox="0 0 32 32">
<title>mostly-fogy</title>
<path d="M19.5 5.053c0.532 0 1-0.431 1-0.964v-1c0-0.532-0.468-0.965-1-0.965s-1 0.431-1 0.965v1c0 0.532 0.468 0.964 1 0.964zM8.214 15.5h1c0.533 0 0.964-0.467 0.964-1s-0.431-1-0.964-1h-1c-0.532 0-0.965 0.467-0.965 1s0.431 1 0.965 1zM30.785 13.5h-1c-0.532 0-0.964 0.467-0.964 1s0.431 1 0.964 1h1c0.532 0 0.965-0.467 0.965-1s-0.431-1-0.965-1zM11.521 7.809c0.377 0.376 1.011 0.352 1.389-0.026s0.402-1.012 0.025-1.389l-0.707-0.707c-0.377-0.377-1.012-0.351-1.389 0.026s-0.402 1.012-0.025 1.389l0.707 0.707zM27.48 20.941c-0.377-0.377-1.012-0.352-1.389 0.026s-0.402 1.012-0.026 1.389l0.707 0.707c0.377 0.377 1.012 0.352 1.389-0.025s0.402-1.012 0.026-1.389l-0.707-0.707zM26.773 5.688l-0.707 0.707c-0.377 0.377-0.352 1.012 0.026 1.389s1.012 0.402 1.389 0.026l0.707-0.707c0.377-0.377 0.352-1.013-0.026-1.389s-1.012-0.402-1.389-0.026zM3 22h18c0.552 0 1-0.448 1-1s-0.448-1-1-1h-18c-0.552 0-1 0.448-1 1s0.448 1 1 1zM19.5 8.375c-3.314 0-6 2.749-6 6.063 0 1.539 0.585 3.063 1.537 4.063h6.738c0.577 0 1.084 0.233 1.398 0.675 1.413-1.098 2.327-2.84 2.327-4.768 0-3.314-2.686-6.032-6-6.032zM24.5 24h-18c-0.552 0-1 0.448-1 1s0.448 1 1 1h18c0.552 0 1-0.448 1-1s-0.448-1-1-1zM19.5 28h-18c-0.552 0-1 0.448-1 1s0.448 1 1 1h18c0.552 0 1-0.448 1-1s-0.448-1-1-1z"></path>
</svg>
