<!-- Generated by IcoMoon.io -->
<svg version="1.1" xmlns="http://www.w3.org/2000/svg" width="32" height="32" viewBox="0 0 32 32">
<title>mostly-cloudy</title>
<path d="M19.5 3.179c0.532 0 1-0.432 1-0.964v-1c0-0.533-0.468-0.965-1-0.965s-1 0.431-1 0.965v1c0 0.532 0.468 0.964 1 0.964zM30.785 11.5h-1c-0.532 0-0.964 0.467-0.964 1s0.431 1 0.964 1h1c0.532 0 0.965-0.467 0.965-1s-0.431-1-0.965-1zM11.521 5.934c0.377 0.377 1.011 0.351 1.389-0.026s0.402-1.012 0.025-1.389l-0.707-0.707c-0.377-0.377-1.012-0.352-1.389 0.026s-0.402 1.012-0.025 1.389l0.707 0.707zM26.773 3.813l-0.707 0.707c-0.377 0.377-0.352 1.012 0.026 1.389s1.012 0.402 1.389 0.026l0.707-0.707c0.377-0.377 0.352-1.013-0.026-1.389s-1.012-0.402-1.389-0.026zM21.733 19.656c0.326-0.52 0.519-1.134 0.519-1.794 0-1.867-1.514-3.381-3.381-3.381-1.017 0-1.927 0.451-2.547 1.162-0.829-2.299-3.024-3.946-5.608-3.946-3.296 0-5.967 2.671-5.967 5.967 0 0.078 0.009 0.154 0.011 0.23-2.306 0.681-4.239 2.812-4.239 5.338 0 2.79 1.979 4.862 4.479 5.268 0.5 0.002 16.448 0 16.5 0 2.527 0 4.604-1.747 4.604-4.273 0-2.5-1.881-4.529-4.372-4.57zM16.852 12.924c0.627-0.286 1.314-0.435 2.019-0.435 2.486 0 4.54 1.877 4.84 4.284 1.104-1.088 1.79-2.599 1.79-4.273 0-3.313-2.686-6-6-6-2.578 0-4.77 1.629-5.619 3.91 1.185 0.559 2.215 1.425 2.97 2.513zM27.48 19.066c-0.377-0.377-1.012-0.352-1.389 0.026s-0.402 1.012-0.026 1.389l0.707 0.707c0.377 0.377 1.012 0.352 1.389-0.025s0.402-1.012 0.026-1.389l-0.707-0.707z"></path>
</svg>
