<!-- Generated by IcoMoon.io -->
<svg version="1.1" xmlns="http://www.w3.org/2000/svg" width="32" height="32" viewBox="0 0 32 32">
<title>mouse</title>
<path d="M16.053 32c-0.018 0-0.037-0.003-0.055-0.003s-0.037 0.003-0.055 0.003h0.11zM17.5 4.304v-2.95c0-0.732-0.77-1.325-1.499-1.329-0.731 0.005-1.501 0.597-1.501 1.329v2.95c-4 0.662-7 4.237-7 8.565v10.443c0 4.78 3.726 8.655 8.499 8.685 4.773-0.030 8.501-3.905 8.501-8.685v-10.443c0-4.327-3-7.902-7-8.565zM17.5 13.663c0 0.732-0.68 1.328-1.409 1.332 0.003 0-0.084 0.005-0.081 0.005h-0.017c0.003 0-0.085-0.005-0.082-0.005-0.731-0.005-1.412-0.6-1.412-1.332v-4.639c0-0.732 0.681-1.421 1.411-1.426-0.003 0 0.085-0.098 0.082-0.098h0.016c-0.003 0 0.084 0.098 0.081 0.098 0.729 0.005 1.41 0.695 1.41 1.426v4.639zM15.992 0.024c0.003 0 0.005 0.001 0.009 0.001s0.006-0.001 0.009-0.001h-0.017z"></path>
</svg>
