<!-- Generated by IcoMoon.io -->
<svg version="1.1" xmlns="http://www.w3.org/2000/svg" width="32" height="32" viewBox="0 0 32 32">
<title>Mouth-tube</title>
<path d="M19.044 23.018h-13.558c-0.848 4.326 2.149 3.919 5.659 3.387 1.846-0.279 2.503 3.407 2.636 5.594h5.835v-8.41c0-0.316-0.256-0.572-0.572-0.572zM24.923 22.802c0.659-3.538 4.168-5.56 4.080-11.331-0.189-12.363-17.218-14.986-22.549-6.631-2.024 3.172-1.181 6.971-1.245 8.152-0.094 1.717-1.242 3.238-1.854 4.312-1.378 2.416 1.683 1.788 1.325 2.38-0.425 0.703-0.46 1.198-0.28 1.491h14.646c1.332 0 2.416 1.084 2.416 2.416v8.41h4.991c-1.389-3.197-2.044-6.432-1.529-9.198z"></path>
</svg>
