<!-- Generated by IcoMoon.io -->
<svg version="1.1" xmlns="http://www.w3.org/2000/svg" width="32" height="32" viewBox="0 0 32 32">
<title>muffin</title>
<path d="M26 10.7c-1-4.4-5-7.8-9.85-7.8-0.050 0-0.2 0-0.25 0-4.85 0-8.9 3.4-9.9 7.8-1.9 0.35-3.35 2-3.35 4 0 2.25 1.85 4.1 4.1 4.1 0.9 0 1.75-0.3 2.4-0.8 0.45 1.45 1.8 2.45 3.4 2.45s3-1.050 3.45-2.55c0.45 1.45 1.85 2.55 3.45 2.55s2.95-1.050 3.4-2.45c0.65 0.5 1.5 0.8 2.4 0.8 2.25 0 4.1-1.85 4.1-4.1-0.050-2-1.45-3.65-3.35-4zM13.65 6.55c-1.2 0.55-2.25 1.45-2.9 2.65 0 0.050-0.050 0.1-0.1 0.15 0 0 0 0 0 0v0c-0.15 0.2-0.35 0.3-0.6 0.3-0.4 0-0.75-0.35-0.75-0.75 0-0.1 0-0.2 0.050-0.3 0 0 0 0 0 0s0 0 0 0c0-0.050 0.050-0.1 0.1-0.15 0.85-1.45 2.1-2.55 3.55-3.25 0.1-0.050 0.25-0.1 0.4-0.1 0.4 0 0.75 0.35 0.75 0.75 0 0.3-0.2 0.6-0.5 0.7zM25.25 20.15c-0.7 0-1.35-0.15-1.95-0.4-0.15 0.2-0.3 0.4-0.5 0.6l-1.2 5.4c-0.1 0.45-0.55 0.75-1 0.65v0c-0.45-0.1-0.75-0.55-0.65-1l0.85-3.75c-0.45 0.15-0.9 0.2-1.35 0.2-0.95 0-1.85-0.3-2.6-0.8v4.6c0 0.45-0.4 0.85-0.85 0.85s-0.85-0.4-0.85-0.85v-4.6c-0.75 0.5-1.65 0.8-2.6 0.8-0.45 0-0.9-0.050-1.35-0.2l0.85 3.75c0.1 0.45-0.2 0.9-0.65 1s-0.9-0.2-1-0.65l-1.2-5.4c-0.15-0.2-0.35-0.4-0.5-0.6-0.6 0.25-1.25 0.4-1.95 0.4-0.2 0-0.4 0-0.6-0.050l1.5 4.75c0.6 2.6 2.5 4.2 4.85 4.2h7c2.35 0 4.2-1.65 4.85-4.2l1.5-4.75c-0.2 0.050-0.4 0.050-0.6 0.050z"></path>
</svg>
