<!-- Generated by IcoMoon.io -->
<svg version="1.1" xmlns="http://www.w3.org/2000/svg" width="32" height="32" viewBox="0 0 32 32">
<title>multiple-radar-chart</title>
<path d="M14.203 3.155l-6.5-2.889c-0.13-0.057-0.277-0.057-0.407 0l-6.5 2.889c-0.18 0.080-0.296 0.259-0.296 0.457v7.778c0 0.198 0.117 0.377 0.297 0.457l6.5 2.889c0.064 0.029 0.134 0.043 0.203 0.043s0.138-0.014 0.203-0.043l6.5-2.889c0.181-0.081 0.297-0.259 0.297-0.457v-7.778c0-0.198-0.117-0.377-0.297-0.457zM13.5 11.065l-6 2.667-6-2.666v-7.129l6-2.667 6 2.667v7.129zM3 4.5l0.5 5 4 1.5 4.5-1-2.5-3-2-3zM31.203 3.155l-6.5-2.889c-0.13-0.057-0.277-0.057-0.407 0l-6.5 2.889c-0.18 0.080-0.296 0.259-0.296 0.457v7.778c0 0.198 0.116 0.377 0.297 0.457l6.5 2.889c0.064 0.029 0.134 0.043 0.203 0.043s0.139-0.014 0.203-0.043l6.5-2.889c0.18-0.081 0.297-0.259 0.297-0.457v-7.778c0-0.198-0.116-0.377-0.297-0.457zM30.5 11.065l-6 2.667-6-2.666v-7.129l6-2.667 6 2.667v7.129zM14.203 20.154l-6.5-2.889c-0.13-0.058-0.277-0.058-0.407 0l-6.5 2.889c-0.18 0.080-0.296 0.259-0.296 0.456v7.779c0 0.198 0.117 0.377 0.297 0.456l6.5 2.889c0.064 0.029 0.134 0.044 0.203 0.044s0.138-0.015 0.203-0.044l6.5-2.889c0.181-0.081 0.297-0.259 0.297-0.457v-7.778c0-0.198-0.117-0.377-0.297-0.456zM13.5 28.064l-6 2.666-6-2.666v-7.129l6-2.666 6 2.666v7.129zM31.203 20.154l-6.5-2.889c-0.13-0.058-0.277-0.058-0.407 0l-6.5 2.889c-0.18 0.080-0.296 0.259-0.296 0.456v7.779c0 0.198 0.116 0.377 0.297 0.456l6.5 2.889c0.064 0.029 0.134 0.044 0.203 0.044s0.139-0.015 0.203-0.044l6.5-2.889c0.18-0.081 0.297-0.259 0.297-0.457v-7.778c0-0.198-0.116-0.377-0.297-0.456zM30.5 28.064l-6 2.666-6-2.666v-7.129l6-2.666 6 2.666v7.129zM21.5 5l-2 5 5-1.5 4.5 1.5-3.5-3.5-1-4zM6.5 23.5l-4.5 4 5.5 2 5-2-3.5-3.5-1.5-3.5zM21 23l-0.541 2.833 4.041 3.167 4-2.5 1-5-5 1z"></path>
</svg>
