<!-- Generated by IcoMoon.io -->
<svg version="1.1" xmlns="http://www.w3.org/2000/svg" width="32" height="32" viewBox="0 0 32 32">
<title>multiple-bar-chart</title>
<path d="M14.505 13h-14.009c-0.274 0-0.495 0.222-0.495 0.495v0.043c0 0.274 0.222 0.461 0.495 0.461h14.009c0.274 0 0.495-0.204 0.495-0.478s-0.222-0.522-0.495-0.522zM17.495 14h14.009c0.274 0 0.495-0.204 0.495-0.478s-0.221-0.522-0.495-0.522h-14.009c-0.274 0-0.495 0.222-0.495 0.495v0.043c0 0.274 0.221 0.461 0.495 0.461zM14.505 31h-14.009c-0.274 0-0.495 0.221-0.495 0.495v0.044c0 0.273 0.222 0.461 0.495 0.461h14.009c0.274 0 0.495-0.204 0.495-0.478s-0.222-0.522-0.495-0.522zM31.505 31h-14.009c-0.274 0-0.495 0.221-0.495 0.495v0.044c0 0.273 0.221 0.461 0.495 0.461h14.009c0.274 0 0.495-0.204 0.495-0.478s-0.221-0.522-0.495-0.522zM2 12.5h1c0.552 0 1-0.448 1-1v-3.5c0-0.552-0.448-1-1-1h-1c-0.552 0-1 0.448-1 1v3.5c0 0.552 0.448 1 1 1zM7 12.5h1c0.552 0 1-0.448 1-1v-10.5c0-0.552-0.448-1-1-1h-1c-0.552 0-1 0.448-1 1v10.5c0 0.552 0.448 1 1 1zM12 12.5h1c0.552 0 1-0.448 1-1v-7c0-0.552-0.448-1-1-1h-1c-0.552 0-1 0.448-1 1v7c0 0.552 0.448 1 1 1zM3 30.5c0.552 0 1-0.448 1-1v-3.5c0-0.552-0.448-1-1-1h-1c-0.552 0-1 0.448-1 1v3.5c0 0.552 0.448 1 1 1h1zM8 30.5c0.552 0 1-0.448 1-1v-10.5c0-0.552-0.448-1-1-1h-1c-0.552 0-1 0.448-1 1v10.5c0 0.552 0.448 1 1 1h1zM13 30.5c0.552 0 1-0.448 1-1v-7c0-0.552-0.448-1-1-1h-1c-0.552 0-1 0.448-1 1v7c0 0.552 0.448 1 1 1h1zM19 12.5h1c0.552 0 1-0.448 1-1v-3.5c0-0.552-0.448-1-1-1h-1c-0.552 0-1 0.448-1 1v3.5c0 0.552 0.448 1 1 1zM24 12.5h1c0.552 0 1-0.448 1-1v-10.5c0-0.552-0.448-1-1-1h-1c-0.552 0-1 0.448-1 1v10.5c0 0.552 0.448 1 1 1zM29 12.5h1c0.552 0 1-0.448 1-1v-7c0-0.552-0.448-1-1-1h-1c-0.552 0-1 0.448-1 1v7c0 0.552 0.448 1 1 1zM19.5 25c-0.552 0-1 0.448-1 1v3.5c0 0.552 0.448 1 1 1h1c0.552 0 1-0.448 1-1v-3.5c0-0.552-0.448-1-1-1h-1zM24.5 18c-0.552 0-1 0.448-1 1v10.5c0 0.552 0.448 1 1 1h1c0.552 0 1-0.448 1-1v-10.5c0-0.552-0.448-1-1-1h-1zM29.5 21.5c-0.552 0-1 0.448-1 1v7c0 0.552 0.448 1 1 1h1c0.552 0 1-0.448 1-1v-7c0-0.552-0.448-1-1-1h-1z"></path>
</svg>
