<!-- Generated by IcoMoon.io -->
<svg version="1.1" xmlns="http://www.w3.org/2000/svg" width="32" height="32" viewBox="0 0 32 32">
<title>multiple-line-chart</title>
<path d="M14.505 13h-13.505v-12.505c0-0.274-0.205-0.495-0.478-0.495s-0.522 0.222-0.522 0.495v13.043c0 0.274 0.222 0.461 0.495 0.461h14.009c0.274 0 0.495-0.204 0.495-0.478s-0.222-0.522-0.495-0.522zM17.495 14h14.009c0.274 0 0.495-0.204 0.495-0.478s-0.221-0.522-0.495-0.522h-13.505v-12.505c0-0.274-0.204-0.495-0.478-0.495s-0.522 0.222-0.522 0.495v13.043c0 0.274 0.221 0.461 0.495 0.461zM14.505 31h-13.505v-12.505c0-0.274-0.205-0.495-0.478-0.495s-0.522 0.221-0.522 0.495v13.044c0 0.273 0.222 0.461 0.495 0.461h14.009c0.274 0 0.495-0.204 0.495-0.478s-0.222-0.522-0.495-0.522zM31.505 31h-13.505v-12.505c0-0.274-0.204-0.495-0.478-0.495s-0.522 0.221-0.522 0.495v13.044c0 0.273 0.221 0.461 0.495 0.461h14.009c0.274 0 0.495-0.204 0.495-0.478s-0.221-0.522-0.495-0.522zM3.030 6.348l3.493-2.183 6.481 3.704c0.156 0.090 0.327 0.131 0.495 0.131 0.347 0 0.684-0.181 0.869-0.504 0.274-0.479 0.107-1.091-0.372-1.364l-7-4c-0.32-0.183-0.714-0.175-1.026 0.021l-4 2.5c-0.469 0.293-0.611 0.91-0.318 1.378 0.293 0.469 0.911 0.611 1.378 0.318zM13.894 9.581l-7-3c-0.329-0.141-0.707-0.096-0.994 0.119l-4 3c-0.442 0.332-0.531 0.959-0.2 1.4s0.957 0.531 1.4 0.2l3.537-2.653 6.469 2.772c0.128 0.055 0.261 0.081 0.393 0.081 0.388 0 0.758-0.227 0.919-0.607 0.217-0.508-0.018-1.095-0.525-1.313zM18.886 6.79l1.472 1.145-1.73 3.075c-0.271 0.482-0.1 1.091 0.381 1.362 0.155 0.086 0.323 0.128 0.489 0.128 0.349 0 0.689-0.184 0.872-0.51l1.583-2.815 1.431 1.114c0.18 0.14 0.396 0.211 0.614 0.211 0.181 0 0.363-0.049 0.524-0.149l6.5-4c0.471-0.29 0.617-0.905 0.328-1.375s-0.907-0.617-1.375-0.327l-5.91 3.636-1.12-0.872 1.709-3.038 6.070-1.401c0.538-0.124 0.873-0.661 0.75-1.199-0.125-0.538-0.664-0.875-1.2-0.75l-6.5 1.5c-0.274 0.063-0.509 0.239-0.646 0.484l-1.779 3.162-1.236-0.961c-0.435-0.34-1.064-0.261-1.404 0.175-0.338 0.436-0.26 1.064 0.176 1.404zM14.309 23.412c-0.325-0.447-0.95-0.546-1.397-0.221l-1.461 1.063-2.627-3.82c-0.18-0.262-0.475-0.423-0.793-0.433-0.319-0.011-0.622 0.131-0.818 0.381l-1.726 2.198-2.163-3.146c-0.313-0.455-0.935-0.57-1.391-0.258s-0.571 0.936-0.258 1.39l2.516 3.661-2.478 3.154c-0.341 0.434-0.266 1.064 0.169 1.404 0.433 0.341 1.063 0.266 1.404-0.168l2.093-2.664 1.796 2.613c0.153 0.223 0.389 0.373 0.655 0.419 0.056 0.009 0.112 0.014 0.168 0.014 0.21 0 0.416-0.067 0.588-0.192l2.377-1.729 1.71 2.487c0.194 0.282 0.506 0.433 0.825 0.433 0.195 0 0.393-0.056 0.566-0.176 0.455-0.313 0.57-0.936 0.258-1.39l-1.739-2.532 1.504-1.094c0.446-0.324 0.545-0.95 0.22-1.396zM8.242 26.587l-1.569-2.282 1.272-1.619 1.886 2.744-1.59 1.157zM31.207 18.793c-0.39-0.39-1.023-0.39-1.414 0l-2.465 2.465-1.489-2.301c-0.189-0.293-0.518-0.468-0.864-0.457-0.348 0.009-0.666 0.198-0.84 0.499l-2.705 4.672-1.84-0.168c-0.552-0.050-1.036 0.355-1.087 0.905s0.355 1.037 0.906 1.087l0.916 0.083-1.691 2.92c-0.277 0.477-0.114 1.090 0.364 1.366 0.157 0.092 0.33 0.135 0.5 0.135 0.345 0 0.681-0.178 0.866-0.499l2.155-3.723 2.389 0.218c0.031 0.002 0.061 0.003 0.091 0.003 0.264 0 0.518-0.105 0.707-0.293l1.286-1.286 2.668 4.122c0.3 0.464 0.919 0.596 1.383 0.297 0.463-0.3 0.596-0.919 0.296-1.383l-2.9-4.483 2.767-2.767c0.39-0.39 0.39-1.023 0-1.414zM24.624 23.962l-0.999-0.091 1.422-2.457 0.834 1.29-1.258 1.258z"></path>
</svg>
