<!-- Generated by IcoMoon.io -->
<svg version="1.1" xmlns="http://www.w3.org/2000/svg" width="32" height="32" viewBox="0 0 32 32">
<title>multiple-pie-chart</title>
<path d="M7.5 0.074v5.979l5.239-2.716c-1.058-1.846-2.239-3.124-5.239-3.263zM8.032 7.806l3.84 4.452c1.277-1.188 2.076-2.881 2.076-4.763 0-0.886-0.178-1.729-0.498-2.498l-5.419 2.809zM6.612 13.998c1.419 0 2.792-0.456 3.86-1.226l-3.973-4.566v-7.202c-3 0.21-6.292 3.035-6.292 6.49 0 3.591 2.813 6.503 6.404 6.503zM25.5 0.074v5.979l5.239-2.716c-1.058-1.846-2.239-3.124-5.239-3.263zM29.872 12.257c1.277-1.188 2.076-2.882 2.076-4.763 0-0.886-0.177-1.729-0.497-2.498l-5.419 2.809 3.84 4.452zM24.613 13.998c1.419 0 2.791-0.456 3.86-1.226l-3.973-4.566v-7.202c-3 0.21-6.292 3.035-6.292 6.489 0 3.592 2.814 6.504 6.404 6.504zM12.739 21.337c-1.058-1.847-2.239-3.124-5.239-3.263v5.979l5.239-2.715zM8.032 25.805l3.84 4.451c1.277-1.188 2.076-2.881 2.076-4.762 0-0.886-0.178-1.73-0.498-2.498l-5.419 2.809zM6.5 19.004c-3 0.21-6.292 3.035-6.292 6.49 0 3.592 2.813 6.503 6.404 6.503 1.419 0 2.792-0.456 3.86-1.225l-3.973-4.566v-7.203zM25.5 18.074v5.979l5.239-2.716c-1.058-1.846-2.239-3.123-5.239-3.262zM26.032 25.805l3.84 4.451c1.277-1.188 2.076-2.881 2.076-4.762 0-0.886-0.177-1.73-0.497-2.498l-5.419 2.809zM24.5 19.004c-3 0.21-6.292 3.035-6.292 6.49 0 3.592 2.814 6.503 6.404 6.503 1.419 0 2.791-0.456 3.86-1.225l-3.973-4.566v-7.203z"></path>
</svg>
