<!-- Generated by IcoMoon.io -->
<svg version="1.1" xmlns="http://www.w3.org/2000/svg" width="32" height="32" viewBox="0 0 32 32">
<title>museum</title>
<path d="M31.536 26.5h-1.036v-14.928c0-0.656-0.773-1.572-1.428-1.572h-6.103c-0.278-2.5-2.444-5.203-5.287-5.865-0.173-0.706-0.809-1.135-1.569-1.135s-1.396 0.381-1.569 1.087c-2.843 0.663-5.008 3.413-5.285 5.913h-6.104c-0.655 0-1.155 0.915-1.155 1.572v14.928h-1.31c-0.381 0-0.691 0.241-0.691 0.622v1.878h32v-1.878c0-0.382-0.082-0.622-0.464-0.622zM8.5 26h-3.5v-3.434c0-0.929 0.821-1.683 1.75-1.683s1.75 0.753 1.75 1.683v3.434zM8.5 18h-3.5v-2.843c0-0.929 0.821-1.683 1.75-1.683s1.75 0.754 1.75 1.683v2.843zM14.5 26h-3.5v-3.434c0-0.929 0.821-1.683 1.75-1.683s1.75 0.753 1.75 1.683v3.434zM14.5 18h-3.5v-2.843c0-0.929 0.821-1.683 1.75-1.683s1.75 0.754 1.75 1.683v2.843zM21 26h-3.5v-3.434c0-0.929 0.821-1.683 1.75-1.683s1.75 0.753 1.75 1.683v3.434zM21 18h-3.5v-2.843c0-0.929 0.821-1.683 1.75-1.683s1.75 0.754 1.75 1.683v2.843zM27 26h-3.5v-3.434c0-0.929 0.821-1.683 1.75-1.683s1.75 0.753 1.75 1.683v3.434zM27 18h-3.5v-2.843c0-0.929 0.821-1.683 1.75-1.683s1.75 0.754 1.75 1.683v2.843z"></path>
</svg>
