<!-- Generated by IcoMoon.io -->
<svg version="1.1" xmlns="http://www.w3.org/2000/svg" width="32" height="32" viewBox="0 0 32 32">
<title>mushrooms</title>
<path d="M7 20.85v3.25c0 1.9 1.55 3.5 3.5 3.5h1.3c1.9 0 3.5-1.55 3.5-3.5v-3.25c-3.55 0.6-6.15 0.4-8.3 0zM25.5 10.85c-4.1-1-8.55 0.95-9.2 5.25-0.75 4.85 10.95 9.9 15.050 3.9 1.95-2.9-1.75-8.1-5.85-9.15zM23.4 12.85c-0.050 0.25-0.3 0.45-0.55 0.45-1.1 0.2-2.1 0.75-2.9 1.55-0.050 0.050-0.45 0.25-0.65 0.2-0.35-0.1-0.55-0.45-0.45-0.75 0.45-1.35 3.1-2.4 4.1-2.25 0.35 0.1 0.55 0.5 0.45 0.8zM21.1 9.5c-1.65-2.8-5.5-5.7-10.050-5.7-5.85 0-11.4 4.3-10.85 10.35 0.4 4.3 8.55 6.95 15.25 5.2-1.45-1.5-1.6-8.45 5.65-9.85zM8.35 7.95c-1.4 0.65-2.6 1.7-3.35 3.050-0.15 0.25-0.5 0.5-0.8 0.5-0.45 0-0.9-0.4-0.85-0.85 0.050-0.95 2.3-3.3 4-4.1 0.15-0.1 0.7-0.25 0.85-0.25 0.5 0 0.75 0.4 0.75 0.85-0.050 0.4-0.3 0.7-0.6 0.8zM18.85 24.85c-0.35 1.35 0.5 2.7 1.85 3.050l0.95 0.25c1.35 0.35 2.7-0.5 3.050-1.85l0.55-2.3c-2.5 0-4-0.5-5.8-1.55l-0.6 2.4z"></path>
</svg>
