<!-- Generated by IcoMoon.io -->
<svg version="1.1" xmlns="http://www.w3.org/2000/svg" width="32" height="32" viewBox="0 0 32 32">
<title>music</title>
<path d="M29.251 0.604c-0.088-0.069-0.25-0.104-0.359-0.104-0.043 0-0.086 0.005-0.128 0.016l-17.784 4.822c-0.22 0.058-0.48 0.256-0.48 0.484v17.784c-0.5-0.373-1.613-0.605-2.712-0.605-3.275 0-5.668 2.526-5.668 4.785 0 2.256 2.323 3.715 5.709 3.715 3.285 0 5.171-2.522 5.171-4.785v-14.56l14-3.599v11.292c-1-0.355-1.684-0.596-2.794-0.596-3.236 0-5.709 2.526-5.709 4.785 0 2.221 2.335 3.715 5.77 3.715 3.216-0 5.233-2.485 5.233-4.786v-21.965c0-0.155-0.126-0.302-0.249-0.396z"></path>
</svg>
