<!-- Generated by IcoMoon.io -->
<svg version="1.1" xmlns="http://www.w3.org/2000/svg" width="32" height="32" viewBox="0 0 32 32">
<title>music-player</title>
<path d="M23.072 0h-14.144c-1.341 0-2.428 1.087-2.428 2.428v27.572c0 1.34 1.087 2 2.428 2h14.144c1.341 0 2.428-0.66 2.428-2v-27.572c0-1.341-1.087-2.428-2.428-2.428zM15.999 29.669c-3.649 0-6.605-2.957-6.605-6.605s2.957-6.605 6.605-6.605c3.648 0 6.606 2.957 6.606 6.605 0 3.648-2.958 6.605-6.606 6.605zM23.5 12.9c0 0.332-0.268 0.6-0.6 0.6h-13.8c-0.332 0-0.6-0.268-0.6-0.6v-10.3c0-0.332 0.268-0.6 0.6-0.6h13.8c0.331 0 0.6 0.268 0.6 0.6v10.3zM16 19.271c-2.095 0-3.793 1.698-3.793 3.793s1.698 3.793 3.793 3.793c2.095 0 3.793-1.698 3.793-3.793s-1.698-3.793-3.793-3.793zM15 24.653v-2.907l2.517 1.453-2.518 1.453zM14.5 5v4.739c-0.244-0.147-0.555-0.239-0.9-0.239-0.774 0-1.4 0.448-1.4 1s0.627 1 1.4 1c0.773 0 1.4-0.448 1.4-1v-4.128l4-1.029v3.396c-0.244-0.147-0.555-0.239-0.9-0.239-0.773 0-1.4 0.448-1.4 1s0.627 1 1.4 1c0.773 0 1.4-0.448 1.4-1v-6l-5 1.285v0.215z"></path>
</svg>
