<!-- Generated by IcoMoon.io -->
<svg version="1.1" xmlns="http://www.w3.org/2000/svg" width="32" height="32" viewBox="0 0 32 32">
<title>my-location</title>
<path d="M20.917 16.027c0 2.719-2.205 4.924-4.924 4.924s-4.924-2.205-4.924-4.924c0-2.719 2.205-4.924 4.924-4.924s4.924 2.205 4.924 4.924zM30.007 14.5h-3.109c-0.679-4.5-4.398-8.698-9.898-9.377v-3.109c0-0.847-0.654-1.533-1.5-1.533s-1.5 0.687-1.5 1.533v3.109c-4 0.678-8.232 4.877-8.911 9.377h-3.109c-0.847 0-1.533 0.653-1.533 1.5s0.687 1.5 1.533 1.5h3.109c0.678 4.5 4.911 8.753 8.911 9.431v3.108c0 0.846 0.653 1.533 1.5 1.533s1.5-0.686 1.5-1.533v-3.108c5.5-0.678 9.22-4.931 9.898-9.431h3.109c0.846 0 1.533-0.654 1.533-1.5s-0.686-1.5-1.533-1.5zM15.993 24.298c-4.56 0-8.271-3.71-8.271-8.271s3.71-8.271 8.271-8.271c4.561 0 8.271 3.71 8.271 8.271s-3.71 8.27-8.271 8.27z"></path>
</svg>
