<!-- Generated by IcoMoon.io -->
<svg version="1.1" xmlns="http://www.w3.org/2000/svg" width="32" height="32" viewBox="0 0 32 32">
<title>nails</title>
<path d="M13.108 0.002c-0.4-0.029-6.753 0.28-7.577 0.238-0.747-0.040-0.867 0.802-0.646 1.132l2.115 3.436v20.89c0 1.055 0.946 6.002 2 6.002s2-4.947 2-6.002v-21.052l2.389-3.447c0.22-0.331 0.317-1.154-0.28-1.196zM29.021 6.872c-0.143-0.061-0.659-0.222-2.36-0.745-1.355-0.417-3.212-0.987-3.535-1.119-0.505-0.207-1.023-0.075-1.334 0.325-0.292 0.377-0.336 0.883-0.25 1.218l0.784 3.056-5.564 15.848c-0.167 0.474-0.413 1.727-0.521 2.923-0.172 1.897 0.064 2.815 0.788 3.070 0.104 0.036 0.217 0.053 0.323 0.054 1.587 0 3.614-4.52 3.63-4.566l5.607-15.973 2.531-1.903c0.379-0.285 0.614-0.835 0.558-1.308-0.047-0.399-0.287-0.721-0.657-0.881zM25.439 10.123l-5.744 16.363c-0.253 0.721-1.439 2.74-2.132 3.44-0.104-0.98 0.233-3.297 0.486-4.017l5.7-16.238-0.845-3.293c0.584 0.199 1.793 0.573 3.357 1.054 0.733 0.225 1.541 0.473 1.954 0.605l-2.776 2.088z"></path>
</svg>
