<!-- Generated by IcoMoon.io -->
<svg version="1.1" xmlns="http://www.w3.org/2000/svg" width="32" height="32" viewBox="0 0 32 32">
<title>nail-gun</title>
<path d="M30.925 8.5h-0.925v-0.71c0-0.848-0.509-1.29-1.357-1.29h-18.053c-0.849 0-1.59 0.442-1.59 1.29v0.71h-4.364c-1.188 0-2.136 0.473-2.136 1.222v0.778h-1.54c-0.53 0-0.961 0.47-0.961 1s0.43 1 0.961 1h1.54v0.273c0 0.518 0.454 0.982 1.131 1.209l1.503 12.518h6.059l-0.96-10.063c0.114 0.027 0.233 0.064 0.357 0.064h0.896l2.049 9.091c0 0.849 0.688 1.409 1.537 1.409h1.985c0.186 0 0.364 0 0.53 0h9.424c0.849 0 1.49-0.179 1.49-0.513v-1.286c0-0.268-0.5-0.495-1-0.575v-8.127h1.143c0.849 0 1.357-0.755 1.357-1.604v-0.396h0.925c0.494 0 1.075-0.592 1.075-1.087v-4.14c0-0.494-0.58-0.773-1.075-0.773zM5.449 14h2.768l0.19 2h-2.717l-0.24-2zM5.954 18.5h2.662l0.203 2h-2.607l-0.258-2zM6.723 24.5l-0.248-2h2.551l0.195 2h-2.498zM18.326 24.5l-0.907-8h4.269c-0.279 0.5-0.741 1.498-1.508 2.334 0 0 1.193 0.979 2.68 1.259l0.468 4.407h-5.003zM24.5 12.702c0 0.367-0.383 0.665-0.75 0.665s-0.75-0.298-0.75-0.665v-3.023c0-0.367 0.383-0.665 0.75-0.665s0.75 0.298 0.75 0.665v3.023zM27.5 12.702c0 0.367-0.383 0.665-0.75 0.665s-0.75-0.298-0.75-0.665v-3.023c0-0.367 0.383-0.665 0.75-0.665s0.75 0.298 0.75 0.665v3.023z"></path>
</svg>
