<!-- Generated by IcoMoon.io -->
<svg version="1.1" xmlns="http://www.w3.org/2000/svg" width="32" height="32" viewBox="0 0 32 32">
<title>necklace</title>
<path d="M26.648 13.246l0-0.157c0-0.709-0.474-1.293-1.122-1.476 0.601-0.31 0.95-0.989 0.811-1.685l-0.024-0.117c-0.143-0.687-0.718-1.172-1.382-1.232 0.512-0.432 0.703-1.165 0.421-1.811l-0.047-0.106c-0.288-0.65-0.968-1.005-1.64-0.909 0.406-0.55 0.413-1.324-0.030-1.886l-0.070-0.090c-0.45-0.564-1.212-0.734-1.844-0.455 0.241-0.654 0.020-1.412-0.581-1.823l-0.102-0.070c-0.614-0.41-1.415-0.325-1.93 0.161 0.002-0.715-0.491-1.359-1.217-1.522l-0.125-0.027c-0.735-0.153-1.454 0.24-1.742 0.901-0.286-0.667-1.011-1.063-1.748-0.909l-0.1 0.021c-0.733 0.152-1.239 0.797-1.24 1.517-0.514-0.49-1.315-0.578-1.931-0.171l-0.107 0.073c-0.6 0.409-0.822 1.164-0.584 1.817-0.633-0.281-1.399-0.114-1.85 0.453l-0.071 0.089c-0.442 0.561-0.436 1.332-0.034 1.882-0.673-0.096-1.356 0.257-1.645 0.908l-0.043 0.096c-0.287 0.646-0.099 1.383 0.413 1.818-0.665 0.058-1.243 0.545-1.386 1.233l-0.024 0.117c-0.136 0.685 0.2 1.355 0.784 1.671-0.633 0.193-1.096 0.779-1.103 1.476l-0 0.119c0 0.704 0.468 1.291 1.109 1.482-0.594 0.312-0.939 0.989-0.802 1.68l0.021 0.108c0.139 0.69 0.716 1.181 1.383 1.242-0.513 0.433-0.705 1.166-0.423 1.813l0.046 0.105c0.288 0.649 0.965 1.003 1.637 0.909-0.407 0.55-0.415 1.325 0.028 1.889l0.065 0.082c0.448 0.569 1.213 0.741 1.846 0.464-0.243 0.654-0.022 1.415 0.581 1.827l0.102 0.070c0.614 0.409 1.412 0.324 1.928-0.159-0.004 0.715 0.489 1.363 1.216 1.525l0.127 0.027c0.476 0.1 0.942-0.032 1.291-0.314l-2.405 3.735 2.899 2.363 2.898-2.363-2.319-3.601c0.239 0.145 0.515 0.23 0.806 0.23 0.097 0 0.197-0.010 0.296-0.029l0.125-0.026c0.732-0.152 1.236-0.795 1.24-1.514 0.508 0.488 1.301 0.582 1.919 0.184l0.123-0.082c0.599-0.409 0.822-1.163 0.585-1.814 0.628 0.281 1.39 0.119 1.844-0.441l0.079-0.099c0.441-0.561 0.436-1.329 0.035-1.88 0.667 0.098 1.344-0.247 1.639-0.89l0.052-0.113c0.287-0.645 0.099-1.381-0.412-1.817 0.666-0.058 1.245-0.544 1.389-1.233l0.024-0.117c0.136-0.684-0.2-1.354-0.782-1.671 0.636-0.192 1.101-0.779 1.105-1.478zM24.348 14.602c-0.532 0.162-0.96 0.604-1.076 1.187l-0.018 0.088c-0.12 0.576 0.095 1.145 0.513 1.503-0.546 0.048-1.050 0.383-1.288 0.919l-0.035 0.077c-0.244 0.531-0.164 1.127 0.157 1.567-0.532-0.076-1.091 0.124-1.448 0.577l-0.051 0.064c-0.357 0.439-0.434 1.014-0.255 1.511-0.477-0.212-1.052-0.18-1.514 0.137l-0.050 0.034c-0.459 0.296-0.711 0.791-0.715 1.299-0.358-0.342-0.87-0.509-1.392-0.399l-0.081 0.016c-0.521 0.101-0.931 0.45-1.13 0.902-0.194-0.453-0.597-0.806-1.115-0.913l-0.079-0.017c-0.114-0.026-0.229-0.038-0.341-0.038-0.401 0-0.78 0.156-1.063 0.421 0.002-0.505-0.242-1-0.694-1.302l-0.072-0.048c-0.459-0.314-1.027-0.349-1.502-0.142 0.182-0.491 0.113-1.064-0.236-1.506l-0.065-0.082c-0.354-0.451-0.907-0.651-1.438-0.579 0.322-0.436 0.406-1.028 0.171-1.558l-0.037-0.086c-0.235-0.538-0.738-0.877-1.283-0.927 0.42-0.355 0.639-0.921 0.522-1.498l-0.020-0.098c-0.116-0.586-0.547-1.030-1.082-1.189 0.496-0.262 0.835-0.788 0.835-1.388l0.001-0.069c0.005-0.595-0.325-1.117-0.815-1.383 0.531-0.162 0.958-0.604 1.073-1.187l0.018-0.087c0.12-0.577-0.095-1.146-0.515-1.504 0.545-0.049 1.049-0.383 1.286-0.918l0.043-0.096c0.235-0.528 0.152-1.116-0.166-1.551 0.532 0.076 1.090-0.125 1.447-0.578l0.059-0.075c0.35-0.439 0.424-1.011 0.245-1.502 0.476 0.212 1.050 0.178 1.511-0.138l0.066-0.045c0.45-0.298 0.696-0.789 0.698-1.292 0.357 0.341 0.868 0.505 1.389 0.397l0.104-0.022c0.512-0.107 0.913-0.454 1.108-0.901 0.195 0.451 0.597 0.803 1.114 0.91l0.078 0.017c0.523 0.115 1.044-0.045 1.407-0.385-0 0.503 0.242 0.998 0.694 1.298l0.071 0.048c0.461 0.316 1.030 0.35 1.506 0.141-0.181 0.494-0.109 1.067 0.243 1.51l0.059 0.074c0.355 0.452 0.913 0.654 1.441 0.579-0.32 0.436-0.405 1.027-0.169 1.556l0.038 0.086c0.235 0.539 0.738 0.877 1.285 0.928-0.422 0.357-0.639 0.928-0.518 1.507l0.017 0.087c0.117 0.592 0.556 1.039 1.1 1.194-0.505 0.263-0.849 0.798-0.849 1.403l-0 0.094c-0.003 0.594 0.326 1.113 0.813 1.378z"></path>
</svg>
