<!-- Generated by IcoMoon.io -->
<svg version="1.1" xmlns="http://www.w3.org/2000/svg" width="32" height="32" viewBox="0 0 32 32">
<title>neckline-dress</title>
<path d="M9.215 7.657c0.267 0.217 0.534 0.388 0.801 0.53 0.144 1.001 0.294 1.992 0.44 2.766h3.668c0.331-0.707 1.044-1.2 1.877-1.2s1.544 0.493 1.876 1.2h3.669c0.145-0.774 0.296-1.765 0.44-2.767 0.265-0.14 0.532-0.313 0.8-0.529 0 0 3.067-2.62-0.019-7.657 0 0-2.916 1.151-5.311 4.274h-2.909c-2.396-3.123-5.314-4.274-5.314-4.274-3.086 5.035-0.018 7.657-0.018 7.657zM25.285 26.636c-0.037-0.456-0.073-0.899-0.111-1.329-0.761-8.569-2.774-11.943-3.552-12.951h-3.623c-0.235 0.889-1.036 1.547-1.999 1.547s-1.764-0.659-2-1.547h-3.623c-0.777 1.009-2.79 4.382-3.551 12.951-0.039 0.43-0.075 0.873-0.112 1.329 1.842 0.407 4.924 0.775 9.286 0.775s7.444-0.368 9.286-0.775zM25.363 27.68c-3.378 0.734-8.525 0.766-9.363 0.766s-5.986-0.032-9.363-0.765c-0.093 1.393-0.16 2.814-0.196 3.657 2.697 0.416 5.982 0.663 9.529 0.663h0.058c3.549 0 6.832-0.247 9.53-0.663-0.036-0.843-0.103-2.264-0.196-3.657z"></path>
</svg>
