<!-- Generated by IcoMoon.io -->
<svg version="1.1" xmlns="http://www.w3.org/2000/svg" width="32" height="32" viewBox="0 0 32 32">
<title>network</title>
<path d="M20 18c0 2.209-1.791 4-4 4s-4-1.791-4-4c0-2.209 1.791-4 4-4s4 1.791 4 4zM5.938 8.531c0 1.64-1.329 2.969-2.969 2.969s-2.969-1.329-2.969-2.969c0-1.64 1.329-2.969 2.969-2.969s2.969 1.329 2.969 2.969zM31.438 23.532c0 1.364-1.105 2.469-2.469 2.469s-2.469-1.105-2.469-2.469c0-1.364 1.105-2.469 2.469-2.469s2.469 1.105 2.469 2.469zM24.438 2.031c0 1.087-0.882 1.969-1.969 1.969s-1.969-0.882-1.969-1.969c0-1.087 0.882-1.969 1.969-1.969s1.969 0.882 1.969 1.969zM12.938 1.532c0 0.811-0.658 1.469-1.469 1.469s-1.469-0.658-1.469-1.469c0-0.811 0.658-1.469 1.469-1.469s1.469 0.658 1.469 1.469zM22.438 11.531c0 0.811-0.658 1.469-1.469 1.469s-1.469-0.658-1.469-1.469c0-0.811 0.658-1.469 1.469-1.469s1.469 0.658 1.469 1.469zM31.438 9.031c0 1.087-0.882 1.969-1.969 1.969s-1.969-0.882-1.969-1.969c0-1.087 0.882-1.969 1.969-1.969s1.969 0.882 1.969 1.969zM5.438 24.532c0 1.087-0.882 1.969-1.969 1.969s-1.969-0.882-1.969-1.969c0-1.087 0.882-1.969 1.969-1.969s1.969 0.882 1.969 1.969zM19.52 1.941c-0.001 0.030-0.005 0.060-0.005 0.090 0 0.006 0 0.011 0 0.017 0.081-0.017 0.16-0.035 0.241-0.052-0.078-0.021-0.159-0.036-0.236-0.056zM27.691 20.059c-1.799-3.058-3.639-5.543-4.872-7.094-0.206 0.266-0.467 0.483-0.767 0.64 1.203 1.512 2.995 3.931 4.758 6.922 0.27-0.194 0.566-0.351 0.882-0.468zM19.396 14.068c0.16-0.167 0.313-0.33 0.453-0.482-0.297-0.162-0.555-0.383-0.758-0.653-0.16 0.172-0.337 0.359-0.521 0.551 0.294 0.168 0.57 0.364 0.825 0.584zM5.909 22.868c0.188 0.274 0.327 0.584 0.413 0.913 1.91-0.947 3.659-2 5.242-3.078-0.175-0.286-0.322-0.59-0.44-0.909-1.571 1.075-3.312 2.128-5.215 3.073zM25.696 21.8c-1.296-0.512-2.922-1.207-4.786-2.101-0.11 0.317-0.25 0.621-0.416 0.907 1.89 0.907 3.541 1.611 4.858 2.131 0.073-0.331 0.189-0.645 0.343-0.937zM6.146 10.72c-0.19 0.275-0.416 0.524-0.669 0.741 2.039 1.527 4.028 2.888 5.933 4.098 0.157-0.295 0.342-0.573 0.551-0.831-1.867-1.182-3.816-2.514-5.814-4.008zM13.44 3.643c-2.897 0.921-5.399 1.935-7.252 2.76 0.183 0.277 0.33 0.579 0.438 0.899 1.942-0.864 4.604-1.937 7.69-2.886 1.42 1.293 3.174 3.112 4.939 5.517 0.227-0.243 0.502-0.441 0.814-0.572-1.637-2.237-3.256-3.985-4.629-5.28 1.356-0.389 2.783-0.744 4.254-1.048-0.111-0.308-0.176-0.639-0.177-0.986-1.721 0.354-3.381 0.781-4.941 1.246-0.393-0.345-0.751-0.643-1.076-0.905-0.133 0.316-0.345 0.587-0.601 0.806 0.171 0.138 0.351 0.284 0.543 0.447zM18.619 11.531c0-0.242 0.047-0.471 0.115-0.691-2.55-0.251-6.989-0.79-11.938-1.839-0.042 0.338-0.125 0.663-0.248 0.969 5.016 1.066 9.518 1.613 12.102 1.866-0.013-0.101-0.030-0.201-0.030-0.306zM26.573 9.614c-0.873 0.269-2.009 0.582-3.479 0.931 0.139 0.297 0.221 0.626 0.223 0.975 1.529-0.361 2.71-0.688 3.621-0.971-0.17-0.284-0.297-0.598-0.364-0.934zM9.771 2.919c-0.211-0.259-0.37-0.562-0.446-0.898-1.657 0.794-3.152 1.873-4.42 3.175 0.294 0.171 0.566 0.377 0.803 0.617 1.171-1.184 2.543-2.167 4.063-2.894zM27.339 6.989c0.232-0.242 0.503-0.442 0.805-0.595-0.887-1.119-1.922-2.115-3.081-2.953-0.162 0.297-0.375 0.561-0.625 0.785 1.090 0.784 2.066 1.713 2.901 2.762zM2.675 21.689c-0.75-1.748-1.175-3.669-1.175-5.689 0-1.293 0.176-2.544 0.496-3.738-0.33-0.086-0.643-0.212-0.932-0.377-0.363 1.312-0.564 2.69-0.564 4.115 0 2.174 0.46 4.239 1.272 6.117 0.272-0.191 0.576-0.336 0.904-0.427zM16 0.5c-0.848 0-1.678 0.078-2.489 0.211 0.102 0.254 0.162 0.53 0.162 0.821 0 0.056-0.012 0.109-0.017 0.163 0.764-0.127 1.546-0.195 2.345-0.195 1.215 0 2.392 0.157 3.52 0.441 0.011-0.347 0.081-0.679 0.201-0.987-1.192-0.296-2.439-0.455-3.721-0.455zM26.341 26.14c-0.659 0.672-1.383 1.282-2.16 1.817-1.034-3.157-4.498-4.957-8.181-4.957-3.687 0-7.128 1.802-8.171 4.963-0.717-0.492-1.389-1.044-2.006-1.653-0.202 0.267-0.447 0.5-0.727 0.685 0.756 0.75 1.59 1.421 2.487 2.004-0.048 0.324-0.082 0.654-0.082 1.001 0 2 0 2 8.5 2s8.485 0 8.5-2c0.003-0.349-0.029-0.682-0.076-1.008 0.988-0.645 1.902-1.395 2.718-2.242-0.294-0.167-0.564-0.372-0.801-0.61zM22.941 4.943c-0.154 0.025-0.311 0.042-0.472 0.042-0.183 0-0.36-0.019-0.533-0.051-0.101 1.157-0.319 2.611-0.762 4.269 0.346 0.030 0.668 0.133 0.954 0.296 0.481-1.78 0.711-3.328 0.814-4.556zM30.867 20.355c0.407-1.383 0.633-2.843 0.633-4.355 0-1.517-0.22-2.983-0.629-4.37-0.291 0.157-0.611 0.264-0.95 0.316 0.375 1.287 0.579 2.647 0.579 4.054 0 1.374-0.197 2.702-0.556 3.962 0.328 0.090 0.637 0.223 0.923 0.393z"></path>
</svg>
