<!-- Generated by IcoMoon.io -->
<svg version="1.1" xmlns="http://www.w3.org/2000/svg" width="32" height="32" viewBox="0 0 32 32">
<title>Nigeria-naira</title>
<path d="M31.771 15.573v-3.366h-3.579v-10.838h-5.765v10.837h-5.637l-6.944-10.837h-6.038v10.837h-3.579v3.365h3.579v1.688h-3.579v3.366h3.579v10.003h5.766v-10.002h5.598l6.793 10.003h6.226v-10.003h3.579v-3.366h-3.579v-1.688h3.58zM9.573 11.571l0.394 0.637h-0.394v-0.637zM9.573 17.261v-1.688h2.475l1.043 1.688h-3.518zM22.427 21.405l-0.477-0.779h0.477v0.779zM22.427 17.261h-2.54l-1.034-1.688h3.573v1.688z"></path>
</svg>
