<!-- Generated by IcoMoon.io -->
<svg version="1.1" xmlns="http://www.w3.org/2000/svg" width="32" height="32" viewBox="0 0 32 32">
<title>night-moon</title>
<path d="M21.733 22.134c0.326-0.52 0.519-1.134 0.519-1.794 0-1.867-1.514-3.381-3.381-3.381-1.017 0-1.927 0.451-2.547 1.162-0.829-2.299-3.024-3.946-5.608-3.946-3.296 0-5.967 2.671-5.967 5.967 0 0.078 0.009 0.154 0.011 0.23-2.306 0.681-4.239 2.812-4.239 5.338 0 2.79 1.979 4.863 4.479 5.268 0.5 0.002 16.448 0 16.5 0 2.527 0 4.604-1.747 4.604-4.273 0-2.5-1.881-4.529-4.372-4.57zM31.16 16.5c-0.002 0-0.003 0-0.005 0-0.006 0-0.012 0-0.017 0-0.012 0-0.025 0.125-0.038 0.126-0.262 0.020-0.479 0.090-0.683 0.090-4.973 0-9.019-4.015-9.019-8.989 0-2.064 0.716-4.067 2.017-5.667 0.163-0.2 0.19-0.469 0.072-0.698-0.112-0.214-0.332-0.342-0.571-0.342-0.017 0-0.032 0.003-0.049 0.004-5.339 0.403-9.521 4.918-9.521 10.276 0 0.547 0.056 1.082 0.138 1.606 1.431 0.503 2.661 1.425 3.546 2.623 0.663-0.351 1.418-0.553 2.221-0.553 2.623 0 4.75 2.377 4.75 5 0 0.668 0 1 0 1.5 3.11 0 5.672-1.25 7.64-3.663 0.099-0.113 0.159-0.385 0.159-0.547 0-0.355-0.286-0.768-0.64-0.768zM1.869 7.122l1.156-0.608 1.157 0.608-0.221-1.287 0.936-0.912-1.292-0.188-0.579-1.172-0.578 1.172-1.293 0.188 0.935 0.912zM8.168 8.622l0.832-0.437 0.832 0.437-0.159-0.925 0.672-0.655-0.93-0.135-0.415-0.843-0.415 0.843-0.929 0.135 0.673 0.655z"></path>
</svg>
