<!-- Generated by IcoMoon.io -->
<svg version="1.1" xmlns="http://www.w3.org/2000/svg" width="32" height="32" viewBox="0 0 32 32">
<title>no-drinking</title>
<path d="M16 0c-8.822 0-16 7.178-16 16s7.178 16 16 16 16-7.178 16-16-7.178-16-16-16zM16 29.465c-7.425 0-13.466-6.041-13.466-13.466 0-3.428 1.29-6.437 3.406-8.816l7.694 7.816h-3.634v2.844c0 1.55 0.5 3.459 2.5 3.627v2.959c-1.5 0.137-1.891 0.57-2.092 1.070h4.178c-0.201-0.5-0.585-0.933-1.085-1.070v-2.959c1-0.168 2-2.077 2-3.627v-1.695l1.5 1.657v7.081c0 1.313 0.75 1.114 2.064 1.114h0.594c1.314 0 2.843 0.199 2.843-1.114v-1.73l2.671 2.902c-2.38 2.117-5.743 3.407-9.171 3.407zM26.291 24.939l-3.791-4.023v-6.134c0-1.038-1-1.919-1.5-2.243v-6.231c0-0.53-0.988-0.308-1.519-0.308h-0.24c-0.531 0-0.741-0.223-0.741 0.308v6.23c-1 0.324-1.5 1.204-1.5 2.243v0.784l-9.781-9.623c2.38-2.117 5.432-3.406 8.861-3.406 7.425 0 13.542 6.040 13.542 13.466-0 3.428-1.213 6.559-3.33 8.938z"></path>
</svg>
