<!-- Generated by IcoMoon.io -->
<svg version="1.1" xmlns="http://www.w3.org/2000/svg" width="32" height="32" viewBox="0 0 32 32">
<title>no-food</title>
<path d="M16 0c-8.823 0-16 7.178-16 16s7.177 16 16 16 16-7.178 16-16-7.177-16-16-16zM16 29.465c-7.425 0-13.466-6.041-13.466-13.466 0-3.428 1.29-6.559 3.406-8.938l11.817 11.817c0 0 0.523 0.461 0.66 1.34 0.218 1.406-0.689 2.232-0.689 2.232-0.355 0.938-0.862 2.050-1.842 2.55h5.923c0.279 0 0.506-0.227 0.506-0.506l0.075-0.983 2.549 2.548c-2.38 2.117-5.511 3.407-8.939 3.407zM26.059 24.939l-3.509-3.482 0.576-7.457h0.096c0.28 0 0.278-0.28 0.278-0.559v-0.928c0-0.28 0.002-0.512-0.278-0.512h-3.722v-5.5h-1.5v5.5h-3.933c-0.258 0-0.467 0.195-0.5 0.444l-6.506-6.504c2.38-2.118 5.511-3.407 8.939-3.407 7.425 0 13.465 6.041 13.465 13.466 0 3.428-1.29 6.559-3.407 8.939zM17.264 20.75c0-0.436-0.404-0.75-0.903-0.75h-8.614c-0.498 0-0.903 0.314-0.903 0.75s0.404 0.75 0.903 0.75h8.614c0.499 0 0.903-0.313 0.903-0.75zM12.053 16.819c-2.729 0-3.652 1.181-4.242 2.681h8.486c-0.591-1.5-1.514-2.681-4.244-2.681zM7.811 22.5c0.591 1 1.514 2.681 4.243 2.681s3.652-1.681 4.243-2.681h-8.486z"></path>
</svg>
