<!-- Generated by IcoMoon.io -->
<svg version="1.1" xmlns="http://www.w3.org/2000/svg" width="32" height="32" viewBox="0 0 32 32">
<title>no-littering</title>
<path d="M16 0c-8.822 0-16 7.178-16 16s7.178 16 16 16 16-7.178 16-16c0-8.822-7.178-16-16-16zM16 29.465c-7.425 0-13.466-6.041-13.466-13.466 0-3.428 1.29-6.559 3.406-8.939l7.092 7.092-0.666 0.172c-0.604 0.129-1.131 0.326-1.053 0.938 0.081 0.642 0.643 0.721 1.246 0.592l1.745-0.431 2.102 2.102c0.027 0.064 0.055 0.125 0.103 0.183-0 0.023-0.009 0.046-0.009 0.070v7.29c0 0.596 0.41 1.078 1.006 1.078 0.595 0 0.994-0.483 0.994-1.078v-5.455l0.5 0.744v4.711c0 0.596 0.387 1.078 0.983 1.078 0.595 0 1.017-0.483 1.017-1.078v-2.73l3.828 3.718c-2.38 2.117-5.401 3.407-8.828 3.407zM15.903 14.695c0.001-0.002 0.046-0.004 0.046-0.006 0.235-0.542 0.55-1.538 0.55-1.538v2.053l-0.597-0.509zM25.948 24.939l-4.948-4.838v-2.321c0-0.029 0.16-0.056 0.158-0.084 0.233-0.285 0.342-0.649 0.342-1.047v-3.819l0.608 1.669 0.046 2.886c0.017 0.589 0.211 0.925 0.739 0.907 0.439-0.015 0.666-0.378 0.649-0.967l-0.082-3.029c-0.006-0.192-0.037-0.604-0.139-0.854-0.038-0.080-1.231-2.461-1.231-2.461-0.274-0.514-0.583-0.865-1.2-0.865l-4.212 0.027c-0.821 0-1.033 0.479-1.198 0.954 0 0-0.611 1.892-0.785 2.473l-7.633-7.63c2.38-2.118 5.511-3.407 8.939-3.407 7.425 0 13.41 6.040 13.41 13.465 0 3.428-1.345 6.559-3.462 8.939zM20.669 7.693c0 1.039-0.842 1.88-1.881 1.88s-1.881-0.842-1.881-1.88c0-1.039 0.842-1.88 1.881-1.88s1.881 0.842 1.881 1.88zM13.184 25h-3.159l-0.711-7.5h-1.042l0.809 8.5h5.046l0.809-8.5h-1.041zM12 16.719c0-0.121-0.098-0.219-0.219-0.219h-1.063c-0.121 0-0.219 0.098-0.219 0.219v1.063c0 0.12 0.098 0.218 0.219 0.218h1.063c0.121 0 0.219-0.098 0.219-0.218v-1.063zM11.441 19.622l0.586 0.587c0.085 0.085 0.224 0.085 0.309 0l0.587-0.587c0.086-0.085 0.086-0.224 0-0.309l-0.587-0.587c-0.085-0.085-0.223-0.085-0.309 0l-0.587 0.587c-0.086 0.085-0.086 0.224 0 0.309zM11.156 24.644c0.085 0.085 0.224 0.085 0.309 0l0.587-0.587c0.085-0.085 0.085-0.224 0-0.309l-0.587-0.587c-0.085-0.085-0.223-0.085-0.309 0l-0.586 0.587c-0.086 0.085-0.086 0.224-0.001 0.309l0.588 0.587z"></path>
</svg>
