<!-- Generated by IcoMoon.io -->
<svg version="1.1" xmlns="http://www.w3.org/2000/svg" width="32" height="32" viewBox="0 0 32 32">
<title>no-pets</title>
<path d="M15.997 0c-8.807 0-15.972 7.165-15.972 15.972s7.165 15.972 15.972 15.972 15.972-7.165 15.972-15.972c0-8.806-7.165-15.972-15.972-15.972zM15.997 29.413c-7.412 0-13.441-6.029-13.441-13.441 0-3.422 1.287-6.548 3.401-8.923l6.427 6.427c-0.162-0.013-0.318-0.031-0.466-0.051-1.148-0.162-1.957 0.133-2.524 0.67-0.023-0.031-0.049-0.063-0.076-0.091l-1.872-1.872c-0.291-0.29-0.762-0.29-1.053 0s-0.29 0.761 0 1.052l1.871 1.871c0.102 0.102 0.159 0.168 0.29 0.198-0.538 1.277-0.553 2.894-0.553 3.805v3.588c0 0.526 0.475 0.951 1 0.951s1-0.425 1-0.951v-2.646h8v2.646c0 0.526 0.474 0.951 1 0.951s1-0.425 1-0.951v-1.569l4.927 4.934c-2.375 2.114-5.508 3.401-8.93 3.401zM26.046 24.895l-6.046-6.052v-1.861l-3.977-3.556c0 0-0.588 0.052-1.371 0.079l-7.575-7.575c2.375-2.114 5.5-3.401 8.922-3.401 7.412 0 13.445 6.030 13.445 13.441 0 3.422-1.284 6.548-3.397 8.923zM26.074 13.187c-0.924 0.028-5.086-2.542-5.090-2.697s-0.29-1.917-0.989-2.127c-0.7-0.21-0.492 1.556-0.492 1.556l-2.303 2.845 3.564 3.173 1.206-0.929c1.175 0.658 1.948 0.712 3.231-0.176 1.283-0.886 0.875-1.645 0.875-1.645z"></path>
</svg>
