<!-- Generated by IcoMoon.io -->
<svg version="1.1" xmlns="http://www.w3.org/2000/svg" width="32" height="32" viewBox="0 0 32 32">
<title>no-smoking</title>
<path d="M16 0c-8.822 0-16 7.178-16 16s7.178 16 16 16 16-7.178 16-16c0-8.822-7.178-16-16-16zM16 29.465c-7.425 0-13.466-6.041-13.466-13.466 0-3.428 1.29-6.557 3.406-8.938l8.435 8.438h-7.306c-0.711 0-1.069 0.572-1.069 1.283v1.286c0 0.711 0.359 1.431 1.069 1.431h11.166l6.703 6.631c-2.38 2.117-5.511 3.334-8.939 3.334zM26.058 25.012l-5.584-5.512h0.025v-4h-3.884l-9.555-9.556c2.38-2.118 5.511-3.408 8.938-3.408 7.425 0 13.466 6.076 13.466 13.501 0 3.428-1.29 6.595-3.407 8.975zM24.239 15.5h-2.239v3.5h2.239c0.655 0 1.261-0.325 1.261-0.98v-1.188c0-0.656-0.605-1.332-1.261-1.332zM23.596 14.16l0.554 0.012c0.002-0.081 0.030-1.998-1.242-3.299-0.745-0.762-1.764-1.149-3.026-1.149-3.518 0-4.279-0.524-4.285-2.954l-1.108 0.003c0.010 3.761 2.344 4.059 5.393 4.059 0.95 0 1.699 0.273 2.229 0.81 0.947 0.963 0.931 2.491 0.931 2.506l0.555 0.011z"></path>
</svg>
