<!-- Generated by IcoMoon.io -->
<svg version="1.1" xmlns="http://www.w3.org/2000/svg" width="32" height="32" viewBox="0 0 32 32">
<title>noodles</title>
<path d="M30.2 8.15l-13 0.1c-0.050-1-0.45-1.55-0.75-1.95-0.25-0.3-0.35-0.5-0.4-0.85l12.5-1.9c0.7-0.1 1.2-0.75 1.050-1.45-0.1-0.7-0.75-1.2-1.45-1.050l-11.9 2c-0.050-0.55-0.5-1-1.050-1-0.6 0-1.050 0.5-1.050 1.050v0.3l-2.3 0.4v-0.15c0-0.6-0.5-1.050-1.050-1.050-0.6 0-1.050 0.5-1.050 1.050v0.5l-2.3 0.4v-0.55c0-0.6-0.5-1.050-1.050-1.050-0.6 0-1.050 0.5-1.050 1.050v0.9l-2.5 0.4c-0.7 0.1-1.2 0.6-1.050 1.3 0.1 0.7 0.75 1 1.45 0.85l2.55-0.4c0.1 0.15 0.2 0.3 0.3 0.4 0.25 0.3 0.35 0.5 0.4 0.85h-1.3c-0.7 0-1.3 0.4-1.3 1.1s0.55 1.1 1.3 1.1h0.3c-0.1 0.25-0.15 0.6-0.15 0.95 0 1.1 0.45 1.7 0.75 2.1 0.25 0.35 0.4 0.5 0.4 0.95s-0.15 0.6-0.4 0.95c-0.3 0.45-0.75 1-0.75 2.1 0 0.050 0 0.15 0 0.2h-4.8v1.25c0 5.050 3.8 9.2 8.65 9.65v2.15h11.7v-2.15c4.85-0.45 8.65-4.65 8.65-9.65v-1.25h-13.5c0-0.050 0-0.1 0-0.2 0-0.45 0.15-0.6 0.4-0.95 0.3-0.45 0.75-1 0.75-2.1s-0.45-1.7-0.75-2.1c-0.25-0.35-0.4-0.5-0.4-0.95 0-0.4 0.1-0.6 0.35-0.9l13.8 0.1c0.7 0 1.3-0.55 1.3-1.3-0.050-0.6-0.6-1.2-1.3-1.2zM9.85 6.45c0.15 0.45 0.4 0.8 0.6 1.050 0.25 0.3 0.35 0.5 0.4 0.85h-2.55c0-0.7-0.25-1.2-0.45-1.6l2-0.3zM8.55 26c-0.2 0.25-0.55 0.3-0.85 0.1-2.2-1.3-3.95-3.4-4.9-6-0.15-0.4 0.15-0.9 0.65-0.9 0.3 0 0.55 0.2 0.65 0.45 0.95 2.6 2.65 4.3 4.35 5.25 0.3 0.25 0.4 0.75 0.1 1.1zM10.45 15.55c-0.3 0.45-0.75 1-0.75 2.1 0 0.050 0 0.15 0 0.2h-2.5c0-0.050 0-0.1 0-0.2 0-0.45 0.15-0.6 0.4-0.95 0.3-0.45 0.75-1 0.75-2.1s-0.45-1.7-0.75-2.1c-0.25-0.35-0.4-0.5-0.4-0.95s0.15-0.6 0.4-0.95h2.25c-0.1 0.25-0.15 0.55-0.15 0.95 0 1.1 0.45 1.7 0.75 2.1 0.25 0.35 0.4 0.5 0.4 0.95-0.050 0.4-0.15 0.6-0.4 0.95zM14.15 5.75c0.1 0.85 0.45 1.35 0.75 1.7 0.2 0.3 0.35 0.45 0.4 0.8h-2.5c-0.050-1-0.45-1.55-0.75-1.95-0.050-0.050-0.1-0.15-0.15-0.2l2.25-0.35zM14.9 15.55c-0.3 0.45-0.75 1-0.75 2.1 0 0.050 0 0.15 0 0.2h-2.5c0-0.050 0-0.1 0-0.2 0-0.45 0.15-0.6 0.4-0.95 0.3-0.45 0.75-1 0.75-2.1s-0.45-1.7-0.75-2.1c-0.25-0.35-0.4-0.5-0.4-0.95s0.1-0.6 0.35-0.9h2.3c-0.050 0.25-0.1 0.55-0.1 0.9 0 1.1 0.45 1.7 0.75 2.1 0.25 0.35 0.4 0.5 0.4 0.95-0.1 0.4-0.2 0.6-0.45 0.95z"></path>
</svg>
