<!-- Generated by IcoMoon.io -->
<svg version="1.1" xmlns="http://www.w3.org/2000/svg" width="32" height="32" viewBox="0 0 32 32">
<title>nurse</title>
<path d="M26.427 18.27c-0.346-1.307-0.896-2.534-1.607-3.636l-0.002 0.002-1.148-0.324c-0.035-0.009-3.162-1.034-7.666-1.034s-7.632 1.034-7.664 1.040l-1.149 0.329-0.003-0.005c-0.697 1.093-1.245 2.314-1.617 3.627-0.342 1.206-1.755 5.883-1.755 7.264 0 1.297 0.497 2.503 1.389 3.35 0.888 0.851 2.136 1.328 3.521 1.326h1.317c1.709 1.13 3.753 1.791 5.954 1.791s4.247-0.661 5.955-1.79h1.346c1.378 0 2.616-0.471 3.498-1.316 0.887-0.841 1.383-2.041 1.383-3.331 0-1.459-1.408-5.989-1.755-7.294zM16 30.146c-4.738-0.009-8.603-3.677-8.941-8.331 2.049-1.983 3.489-4.253 3.986-7.189 2.505 3.091 6.157 4.561 10.445 4.561 1.368 0 2.451-0.309 3.206-0.709 0.172 0.695 0.276 1.947 0.277 2.695-0.009 4.955-4.018 8.963-8.973 8.973zM19.447 20.065c-0.841 0-1.526 0.683-1.526 1.526s0.684 1.526 1.526 1.526c0.843 0 1.526-0.684 1.526-1.526s-0.683-1.526-1.526-1.526zM12.553 20.065c-0.842 0-1.527 0.683-1.527 1.526s0.684 1.526 1.527 1.526c0.841 0 1.525-0.683 1.525-1.526s-0.684-1.526-1.525-1.526zM16 11.793c4.798 0 8.068 1.091 8.068 1.091l3.814-7.117c-2.773-3.512-7.063-5.768-11.883-5.768s-9.11 2.259-11.883 5.77c0.243 0.45 3.813 7.122 3.813 7.122s3.277-1.099 8.072-1.099zM15.998 1.442c3.903 0 7.552 1.631 10.15 4.507l-2.806 5.241c-1.425-0.345-4.038-0.839-7.343-0.839-3.303 0-5.917 0.496-7.344 0.846-0.75-1.405-2.092-3.912-2.808-5.245 2.6-2.877 6.251-4.51 10.152-4.51zM15.056 9.037h1.883v-2.24h2.239v-1.88h-2.239v-2.24h-1.883v2.24h-2.237v1.88h2.237z"></path>
</svg>
