<!-- Generated by IcoMoon.io -->
<svg version="1.1" xmlns="http://www.w3.org/2000/svg" width="32" height="32" viewBox="0 0 32 32">
<title>nurse-with-mask</title>
<path d="M13.992 18.424c0 0.691-0.42 1.252-0.938 1.252s-0.938-0.56-0.938-1.252c0-0.691 0.42-1.252 0.938-1.252s0.938 0.56 0.938 1.252zM21 18.449c0 0.691-0.42 1.252-0.939 1.252s-0.939-0.56-0.939-1.252c0-0.691 0.42-1.252 0.939-1.252s0.939 0.56 0.939 1.252zM29.832 5.41c0.096-0.356-0.026-0.734-0.309-0.968-0.221-0.181-5.479-4.442-13.274-4.442-4.716 0-9.331 1.569-13.716 4.662-0.325 0.229-0.471 0.638-0.362 1.022l2.465 8.757c0.019 0.066 0.047 0.127 0.079 0.185-0.005 0.005-0.010 0.008-0.014 0.012 0.019 0.676 0.139 2.593 0.845 3.828-0.071 0.555-0.117 1.135-0.117 1.764 0 6.489 4.992 11.769 11.129 11.769s11.13-5.28 11.13-11.768c0-1.131-0.155-2.237-0.445-3.285 0.088-0.649 0.18-1.578 0.183-2.656-0.003-0.003-0.008-0.005-0.011-0.008 0.044-0.074 0.081-0.152 0.104-0.238l2.314-8.633zM10.022 27.074c-1.617-1.767-2.617-4.181-2.617-6.843 0-0.175 0.011-0.335 0.018-0.502l3.869 3.739-1.269 3.605zM20.937 21.875h-8.691c-0.105 0-0.205 0.032-0.291 0.085l-4.288-4.146c0.024-0.097 0.044-0.197 0.071-0.29 1.577-1.51 4.174-3.838 7.304-6.037 0 0 4.724 4.633 10.321 6.094 0.023 0.085 0.042 0.172 0.062 0.258l-4.24 4.1c-0.076-0.038-0.159-0.064-0.247-0.064zM23.319 26.807l-1.398-3.431 3.765-3.64c0.008 0.166 0.023 0.329 0.023 0.496-0 2.532-0.911 4.836-2.391 6.575zM26.056 12.244c-2.953-1.982-6.118-2.985-9.427-2.985-4.84 0-8.719 2.135-10.553 3.367l-1.917-6.805c3.897-2.618 7.961-3.943 12.088-3.943 5.832 0 10.204 2.685 11.604 3.663l-1.796 6.703zM17.634 2.811h-2.206v1.883h-1.847v2.207h1.847v1.773h2.206v-1.773h1.811v-2.207h-1.811z"></path>
</svg>
