<!-- Generated by IcoMoon.io -->
<svg version="1.1" xmlns="http://www.w3.org/2000/svg" width="32" height="32" viewBox="0 0 32 32">
<title>oat</title>
<path d="M14.35 7.15c-0.4 0-0.75 0.35-0.75 0.75v2.55h-1.6v-6.15c0-0.4-0.35-0.75-0.75-0.75s-0.75 0.35-0.75 0.75v6.15h-1.65v-6.25c0-0.4-0.35-0.75-0.75-0.75s-0.75 0.35-0.75 0.75v6.2h-1.75v-2.55c0-0.4-0.35-0.75-0.75-0.75s-0.75 0.35-0.75 0.75v14.55c0 2.4 1.8 4.4 4.1 4.7v3.4c0 0.8 0.65 1.4 1.4 1.4 0.8 0 1.4-0.65 1.4-1.4v-3.35c2.2-0.4 3.9-2.35 3.9-4.7v-14.55c0.15-0.4-0.15-0.75-0.55-0.75zM10.7 12.85v0c0.35 0.3 0.55 0.8 0.55 1.3s-0.2 0.95-0.55 1.3l-1.2 1.15-1.2-1.2c-0.35-0.3-0.55-0.8-0.55-1.3s0.2-0.95 0.55-1.3v0l1.2-1.2 1.2 1.25zM8.65 17.050c0.35 0.35 0.55 0.85 0.5 1.3v1.7h-1.7c-0.45 0-0.95-0.15-1.3-0.5s-0.55-0.85-0.5-1.3v0-1.7h1.7c0.45 0 0.95 0.15 1.3 0.5zM6.2 23.9c-0.35-0.35-0.55-0.85-0.5-1.3v0-1.7h1.7c0.45 0 0.95 0.15 1.3 0.5s0.55 0.85 0.5 1.3v1.7h-1.7c-0.45 0.050-0.95-0.1-1.3-0.5zM13.55 22.6v0c0 0.45-0.15 0.95-0.5 1.3s-0.85 0.55-1.3 0.5v0h-1.7v-1.7c0-0.45 0.15-0.95 0.5-1.3s0.85-0.55 1.3-0.5v0h1.7v1.7zM13.55 18.25v0c0 0.45-0.15 0.95-0.5 1.3s-0.85 0.55-1.3 0.5v0h-1.7v-1.7c0-0.45 0.15-0.95 0.5-1.3s0.85-0.55 1.3-0.5v0h1.7v1.7zM26.8 2.8c-0.4 0-0.75 0.35-0.75 0.75v3.4h-1.6v-6.050c0-0.4-0.35-0.75-0.75-0.75-0.35 0-0.7 0.35-0.7 0.75v6.050h-1.65v-6.1c0-0.4-0.35-0.75-0.75-0.75s-0.75 0.35-0.75 0.75v6.1h-1.75v-3.45c0-0.4-0.35-0.75-0.75-0.75s-0.75 0.35-0.75 0.75v19.050c0 2.4 1.8 4.4 4.1 4.7v3.25c0 0.8 0.65 1.4 1.4 1.4 0.8 0 1.4-0.65 1.4-1.4v-3.25c2.2-0.4 3.9-2.35 3.9-4.7v-19.050c0.1-0.4-0.2-0.7-0.6-0.7zM19.95 25.1v0c-0.45 0-0.95-0.15-1.3-0.5s-0.55-0.85-0.5-1.3v0-1.7h1.7c0.45 0 0.95 0.15 1.3 0.5s0.55 0.85 0.5 1.3v1.7h-1.7zM19.95 20.75v0c-0.45 0-0.95-0.15-1.3-0.5s-0.55-0.85-0.5-1.3v0-1.7h1.7c0.45 0 0.95 0.15 1.3 0.5s0.55 0.85 0.5 1.3v1.7h-1.7zM19.95 16.35v0c-0.45 0-0.95-0.15-1.3-0.5s-0.55-0.85-0.5-1.3v0-1.7h1.7c0.45 0 0.95 0.15 1.3 0.5s0.55 0.85 0.5 1.3v1.7h-1.7zM21.95 12.9l-1.2-1.2c-0.35-0.3-0.55-0.8-0.55-1.3s0.2-0.95 0.55-1.3v0l1.2-1.2 1.2 1.2c0.35 0.3 0.55 0.8 0.55 1.3s-0.2 0.95-0.55 1.3l-1.2 1.2zM26 23.25v0c0 0.45-0.15 0.95-0.5 1.3s-0.85 0.55-1.3 0.5v0h-1.7v-1.7c0-0.45 0.15-0.95 0.5-1.3s0.85-0.55 1.3-0.5v0h1.7v1.7zM26 18.9v0c0 0.45-0.15 0.95-0.5 1.3s-0.85 0.55-1.3 0.5v0h-1.7v-1.7c0-0.45 0.15-0.95 0.5-1.3s0.85-0.55 1.3-0.5v0h1.7v1.7zM26 14.55v0c0 0.45-0.15 0.95-0.5 1.3s-0.85 0.55-1.3 0.5v0h-1.7v-1.7c0-0.45 0.15-0.95 0.5-1.3s0.85-0.55 1.3-0.5v0h1.7v1.7z"></path>
</svg>
