<!-- Generated by IcoMoon.io -->
<svg version="1.1" xmlns="http://www.w3.org/2000/svg" width="32" height="32" viewBox="0 0 32 32">
<title>object-group</title>
<path d="M32 3v-2c0-0.552-0.448-1-1-1h-2c-0.552 0-1 0.448-1 1h-24c0-0.552-0.448-1-1-1h-2c-0.552 0-1 0.448-1 1v2c0 0.552 0.448 1 1 1v24c-0.552 0-1 0.448-1 1v2c0 0.552 0.448 1 1 1h2c0.552 0 1-0.448 1-1h24c0 0.552 0.448 1 1 1h2c0.552 0 1-0.448 1-1v-2c0-0.552-0.448-1-1-1v-24c0.552 0 1-0.448 1-1zM29 28c-0.552 0-1 0.448-1 1h-24c0-0.552-0.448-1-1-1v-24c0.552 0 1-0.448 1-1h24c0 0.552 0.448 1 1 1v24zM25 10.5h-3.5v-3.5c0-1.103-0.897-2-2-2h-12.5c-1.103 0-2 0.897-2 2v12.5c0 1.103 0.897 2 2 2h3.5v3.5c0 1.103 0.897 2 2 2h12.5c1.103 0 2-0.897 2-2v-12.5c0-1.103-0.897-2-2-2zM7 19.5v-12.5h12.5v3.5h-7c-1.103 0-2 0.897-2 2v7h-3.5zM19.501 19.5h-7.001v-7h7l0 7zM12.5 25v-3.5h7c1.103 0 2-0.897 2-2v-7h3.5l0.001 12.5h-12.501z"></path>
</svg>
