<!-- Generated by IcoMoon.io -->
<svg version="1.1" xmlns="http://www.w3.org/2000/svg" width="32" height="32" viewBox="0 0 32 32">
<title>object-ungroup</title>
<path d="M32 12v-2c0-0.552-0.448-1-1-1h-2c-0.552 0-1 0.448-1 1h-6v-6c0.552 0 1-0.448 1-1v-2c0-0.552-0.448-1-1-1h-2c-0.552 0-1 0.448-1 1h-15c0-0.552-0.448-1-1-1h-2c-0.552 0-1 0.448-1 1v2c0 0.552 0.448 1 1 1v15c-0.552 0-1 0.448-1 1v2c0 0.552 0.448 1 1 1h2c0.552 0 1-0.448 1-1h6v6c-0.552 0-1 0.448-1 1v2c0 0.552 0.448 1 1 1h2c0.552 0 1-0.448 1-1h15c0 0.552 0.448 1 1 1h2c0.552 0 1-0.448 1-1v-2c0-0.552-0.448-1-1-1v-15c0.552 0 1-0.448 1-1zM4 20c0-0.552-0.448-1-1-1v-15c0.552 0 1-0.448 1-1h15c0 0.552 0.448 1 1 1v6h-7c0-0.552-0.448-1-1-1h-2c-0.552 0-1 0.448-1 1v2c0 0.552 0.448 1 1 1v7h-6zM19 20h-7v-7c0.552 0 1-0.448 1-1h7v7c-0.552 0-1 0.448-1 1zM29 28c-0.552 0-1 0.448-1 1h-15c0-0.552-0.448-1-1-1v-6h7c0 0.552 0.448 1 1 1h2c0.552 0 1-0.448 1-1v-2c0-0.552-0.448-1-1-1v-7h6c0 0.552 0.448 1 1 1v15z"></path>
</svg>
