<!-- Generated by IcoMoon.io -->
<svg version="1.1" xmlns="http://www.w3.org/2000/svg" width="32" height="32" viewBox="0 0 32 32">
<title>oil-warning</title>
<path d="M28.050 20.95c0 1.050 0.85 1.9 1.9 1.9s1.9-0.85 1.9-1.85v0c0 0 0-0.050 0-0.1 0-1.45-1.9-3.25-1.9-3.25v0c0-0.050-2 1.85-1.9 3.3zM29.45 10.95l-10.1 3.4c-0.15 0.050-0.3 0-0.4-0.1l-0.6-0.8c-0.5-0.8-0.9-1.050-1.65-1.050h-1.95c-0.2 0-0.35-0.15-0.35-0.35v-0.65c0-0.2 0.15-0.35 0.35-0.35h0.65c0.3 0 0.55-0.25 0.55-0.6v-1.2c0-0.3-0.25-0.6-0.55-0.6h-4.2c-0.3 0-0.55 0.25-0.55 0.6v1.2c0 0.3 0.25 0.6 0.55 0.6h0.8c0.2 0 0.35 0.15 0.35 0.35v0.6c0 0.2-0.15 0.35-0.35 0.35h-3c-0.2 0-0.3-0.15-0.35-0.3l-0.2-2.25c0-0.15-0.1-0.25-0.25-0.3l-5.75-1.95c-0.2-0.050-0.35 0.050-0.45 0.25l-1.7 5.55c-0.050 0.2 0.050 0.35 0.2 0.45l5.35 1.75c0.15 0.050 0.2 0.15 0.25 0.3l1.55 7.65c0 1.050 0.8 1.65 2.050 1.5h10.55c0.65 0 1.2-0.15 1.55-0.7l4.35-8.8c0.050-0.050 0.1-0.1 0.15-0.15l2.55-1.3c0.15-0.050 0.3-0.050 0.4 0.050l0.9 0.85c0.15 0.15 0.35 0.1 0.5 0l1.25-1.35c0.15-0.15 0.15-0.35 0-0.45l-2.1-2.15c-0.1-0.1-0.25-0.1-0.35-0.050zM3.050 11.7l0.45-1.4c0.050-0.2 0.25-0.3 0.45-0.2l1.7 0.55c0.15 0.050 0.25 0.2 0.25 0.35l-0.15 1.5c0 0.2-0.25 0.35-0.45 0.3l-2.050-0.6c-0.2-0.1-0.3-0.3-0.2-0.5z"></path>
</svg>
