<!-- Generated by IcoMoon.io -->
<svg version="1.1" xmlns="http://www.w3.org/2000/svg" width="32" height="32" viewBox="0 0 32 32">
<title>onion</title>
<path d="M28.5 17.6c0-4.15-2.6-7.75-6.4-9.65v0c0 0 0 0-0.050 0-0.3-0.15-0.6-0.3-0.95-0.4 0 0 0 0-0.050 0-1.95-0.95-2.3-1.7-2.3-1.7-0.55-0.8-0.15-2.3 0.3-3.45 0.15-0.45-0.35-0.8-0.7-0.5-0.15 0.15-0.3 0.25-0.45 0.4-0.7 0.7-1.9 0.6-2.5-0.25s-1.3-1.5-1.9-1.9c-0.35-0.25-0.85 0.050-0.7 0.5 1.3 4.7 0.2 5.25 0.2 5.25-1.45 1.2-4.1 2.65-4.1 2.65h0.050c-3.3 1.95-5.45 5.25-5.45 9.050 0 4.65 3.3 8.65 7.95 10.25-0.3 0.55-0.5 1.1-0.55 1.65 0 0.050 0 0.15 0 0.2 0 0 0 0 0 0v0c0 0.3 0.050 0.55 0.25 0.75 0 0 0.6 0.55 1.35 0.1l1.1-0.75c0.1-0.050 0.2-0.1 0.3-0.1v0c0.35 0 0.5 0.5 0.5 0.5v0l0.2 0.7c0.3 0.9 1.8 1.85 2.75 0l0.2-0.7c0 0 0.1-0.35 0.4-0.45h0.25c0.050 0 0.1 0.050 0.2 0.050l1.1 0.8c0.75 0.45 1.3-0.1 1.3-0.1 0.2-0.2 0.3-0.45 0.25-0.75v0c0 0 0 0 0 0 0-0.050 0-0.1 0-0.15-0.050-0.55-0.25-1.15-0.55-1.7 4.7-1.65 8-5.65 8-10.3zM17.45 9.85c0.1-0.050 0.2-0.1 0.3-0.1 0.25 0 0.5 0.15 0.65 0.4 2.050 4.45 2.050 9.6 0 14.050-0.1 0.25-0.35 0.4-0.65 0.4-0.1 0-0.2-0.050-0.3-0.1-0.35-0.15-0.45-0.55-0.3-0.9 1.9-4.1 1.9-8.8 0-12.9-0.15-0.3 0-0.7 0.3-0.85zM13.55 10.15c0.1-0.25 0.35-0.4 0.65-0.4 0.1 0 0.2 0.050 0.3 0.1 0.35 0.15 0.45 0.55 0.3 0.9-1.9 4.1-1.9 8.8 0 12.9 0.15 0.35 0 0.75-0.3 0.9-0.1 0.050-0.2 0.1-0.3 0.1-0.25 0-0.5-0.15-0.65-0.4-2.1-4.5-2.1-9.6 0-14.1zM10.5 23.75c0.3 0.25 0.35 0.65 0.15 0.95-0.15 0.2-0.35 0.3-0.6 0.3-0.15 0-0.3-0.050-0.45-0.15-2.2-1.85-3.5-4.55-3.5-7.45s1.25-5.6 3.5-7.45c0.1-0.1 0.3-0.15 0.45-0.15 0.2 0 0.45 0.1 0.55 0.3 0.2 0.3 0.15 0.7-0.15 0.95-1.9 1.6-3 3.9-3 6.4s1.15 4.75 3.050 6.3zM15.9 31.6c0.050 0 0.050 0 0 0 0.050 0 0 0 0 0zM22.15 24.85c-0.1 0.1-0.3 0.15-0.45 0.15-0.2 0-0.45-0.1-0.55-0.3-0.2-0.3-0.15-0.7 0.1-0.95 1.9-1.6 3-3.9 3-6.4s-1.1-4.8-3-6.4c-0.3-0.25-0.35-0.65-0.1-0.95 0.15-0.2 0.35-0.3 0.55-0.3 0.15 0 0.3 0.050 0.45 0.15 2.2 1.85 3.5 4.55 3.5 7.45 0 3-1.3 5.7-3.5 7.55z"></path>
</svg>
