<!-- Generated by IcoMoon.io -->
<svg version="1.1" xmlns="http://www.w3.org/2000/svg" width="32" height="32" viewBox="0 0 32 32">
<title>Opened-medical-scissors</title>
<path d="M30.669 9.927c-1.738-1.738-4.558-1.738-6.297 0.001-0.791 0.791-1.218 1.806-1.288 2.842l-2.5 0.747-2.075-2.075 0.764-2.553c1.012-0.085 2-0.512 2.774-1.286 1.739-1.739 1.74-4.558 0.001-6.297s-4.558-1.74-6.297-0c-1.738 1.738-1.738 4.558 0 6.296 0.137 0.137 0.282 0.26 0.431 0.375l-1.398 4.678c0 0-15.193 7.385-14.748 10.501l13.853-4.969-5.015 13.806c3.114 0.445 10.239-14.671 10.239-14.671l4.927-1.473c0.103 0.13 0.213 0.256 0.334 0.376 1.739 1.739 4.558 1.739 6.296 0.001 1.738-1.739 1.74-4.558 0-6.297zM17.216 2.771c0.929-0.929 2.436-0.93 3.364-0.002 0.929 0.929 0.929 2.437 0 3.367-0.928 0.928-2.436 0.928-3.364-0.002s-0.928-2.436 0-3.363zM18.039 16.028c-0.563 0.563-1.477 0.563-2.041-0s-0.563-1.477 0-2.040c0.564-0.563 1.477-0.563 2.041 0 0.563 0.563 0.564 1.477 0 2.041zM29.204 14.758c-0.928 0.928-2.436 0.928-3.365-0.002-0.928-0.929-0.928-2.435 0-3.364s2.436-0.93 3.365-0.001 0.93 2.437 0 3.366z"></path>
</svg>
