<!-- Generated by IcoMoon.io -->
<svg version="1.1" xmlns="http://www.w3.org/2000/svg" width="32" height="32" viewBox="0 0 32 32">
<title>orange</title>
<path d="M17.45 6.9v-1.3c1.9 0.85 6.35 2.1 8.45-3.8-4.6-2.75-7.2-0.3-8.45 1.6v-1.55c0-0.8-0.65-1.45-1.45-1.45v0c-0.8 0-1.45 0.65-1.45 1.45v5.050c-6.15 0.7-10.95 5.95-10.95 12.3 0 6.85 5.55 12.4 12.4 12.4s12.4-5.55 12.4-12.4c0-6.35-4.8-11.6-10.95-12.3zM12.1 18.5c0.65 0 1.2 0.55 1.2 1.2s-0.55 1.2-1.2 1.2c-0.65 0-1.2-0.55-1.2-1.2s0.5-1.2 1.2-1.2zM8.4 22.45c-0.65 0-1.2-0.55-1.2-1.2s0.55-1.2 1.2-1.2c0.65 0 1.2 0.55 1.2 1.2s-0.5 1.2-1.2 1.2zM8.4 18c-0.65 0-1.2-0.55-1.2-1.2s0.55-1.2 1.2-1.2c0.65 0 1.2 0.55 1.2 1.2 0.050 0.65-0.5 1.2-1.2 1.2zM10.9 25.75c-0.35 0-0.6-0.3-0.6-0.6 0-0.35 0.3-0.6 0.6-0.6 0.35 0 0.6 0.3 0.6 0.6 0.050 0.35-0.25 0.6-0.6 0.6zM12.7 23.65c-0.35 0-0.6-0.3-0.6-0.6 0-0.35 0.3-0.6 0.6-0.6 0.35 0 0.6 0.3 0.6 0.6 0.050 0.35-0.25 0.6-0.6 0.6z"></path>
</svg>
