<!-- Generated by IcoMoon.io -->
<svg version="1.1" xmlns="http://www.w3.org/2000/svg" width="32" height="32" viewBox="0 0 32 32">
<title>org-chart</title>
<path d="M27.889 21h-2.389v-4.221c0-0.010-0.003-0.018-0.003-0.029s0.003-0.018 0.003-0.028v-0.445c0-0.43-0.348-0.777-0.778-0.777h-7.722v-4h3.288c2.322 0 4.212-1.889 4.212-4.211v-3.078c0-2.322-1.889-4.211-4.212-4.211h-8.577c-2.322 0-4.212 1.889-4.212 4.211v3.078c0 2.322 1.889 4.211 4.212 4.211h3.289v4h-7.722c-0.43 0-0.778 0.348-0.778 0.778v0.445c0 0.009 0.003 0.018 0.003 0.028s-0.003 0.018-0.003 0.028v4.221h-2.389c-2.267 0-4.111 1.844-4.111 4.111v2.777c0 2.267 1.844 4.111 4.111 4.111h7.279c2.267 0 4.111-1.844 4.111-4.111v-2.777c0-2.267-1.844-4.111-4.111-4.111h-2.889v-3.5h15v3.5h-2.889c-2.267 0-4.111 1.844-4.111 4.111v2.777c0 2.267 1.844 4.111 4.111 4.111h7.278c2.267 0 4.111-1.844 4.111-4.111v-2.777c0-2.267-1.844-4.111-4.111-4.111zM9.5 7.289v-3.078c0-1.219 0.992-2.211 2.212-2.211h8.577c1.22 0 2.212 0.992 2.212 2.211v3.078c0 1.219-0.992 2.211-2.212 2.211h-8.577c-1.22 0-2.211-0.992-2.211-2.211zM13.5 25.111v2.777c0 1.163-0.947 2.111-2.111 2.111h-7.278c-1.164 0-2.111-0.948-2.111-2.111v-2.777c0-1.163 0.947-2.111 2.111-2.111h7.278c1.164 0 2.111 0.948 2.111 2.111zM30 27.889c0 1.164-0.947 2.111-2.111 2.111h-7.278c-1.164 0-2.111-0.948-2.111-2.111v-2.777c0-1.163 0.947-2.111 2.111-2.111h7.277c1.165 0 2.111 0.948 2.111 2.111v2.777z"></path>
</svg>
