<!-- Generated by IcoMoon.io -->
<svg version="1.1" xmlns="http://www.w3.org/2000/svg" width="32" height="32" viewBox="0 0 32 32">
<title>overview-chart</title>
<path d="M29.5 10.5h-3c-1.654 0-3 1.345-3 3v0.681l-3 0.6v-0.28c0-1.008-0.501-1.899-1.265-2.444l0.959-2.556h2.307c1.654 0 3-1.345 3-3v-3c0-1.655-1.346-3-3-3h-3c-1.654 0-3 1.345-3 3v3c0 1.178 0.684 2.197 1.675 2.688l-0.867 2.313h-2.807c-0.027 0-0.055 0.004-0.082 0.004l-3.892-3.892c0.299-0.467 0.474-1.018 0.474-1.612v-3c0-1.655-1.345-3-3-3h-3c-1.655 0-3 1.345-3 3v3c0 1.654 1.345 3 3 3h3c0.326 0 0.64-0.054 0.935-0.152l3.489 3.49c-0.569 0.546-0.925 1.313-0.925 2.162v0.85l-2.502 1.112c-0.021-1.637-1.357-2.962-2.998-2.962h-3c-1.655 0-3 1.345-3 3v3c0 1.654 1.345 3 3 3h3c1.654 0 3-1.346 3-3v-0.85l2.502-1.112c0.014 1.063 0.582 1.991 1.428 2.514l-1.966 2.948h-0.965c-1.655 0-3 1.346-3 3v3c0 1.654 1.345 3 3 3h3c1.655 0 3-1.346 3-3v-3c0-1.535-1.159-2.802-2.646-2.977l1.681-2.523h2.465c0.282 0 0.552-0.042 0.811-0.114l2.243 2.884c-0.348 0.489-0.554 1.086-0.554 1.73v3c0 1.654 1.346 3 3 3h3c1.654 0 3-1.346 3-3v-3c0-1.654-1.346-3-3-3h-3c-0.282 0-0.552 0.042-0.811 0.114l-2.243-2.884c0.348-0.489 0.554-1.086 0.554-1.73v-0.68l3-0.599v0.28c0 1.654 1.346 3 3 3h3c1.654 0 3-1.346 3-3v-3c0-1.655-1.346-3-3-3zM5 7c-0.551 0-1-0.448-1-1v-3c0-0.552 0.449-1 1-1h3c0.552 0 1 0.448 1 1v3c0 0.189-0.056 0.364-0.146 0.514-0.205 0.030-0.402 0.121-0.56 0.279-0.059 0.059-0.105 0.124-0.146 0.192-0.049 0.006-0.097 0.014-0.146 0.014h-3zM18.5 3.5c0-0.552 0.448-1 1-1h3c0.552 0 1 0.448 1 1v3c0 0.552-0.448 1-1 1h-3c-0.552 0-1-0.448-1-1v-3zM6 20.5h-3c-0.551 0-1-0.448-1-1v-3c0-0.552 0.449-1 1-1h3c0.551 0 1 0.448 1 1v1.517c0 0 0 0.002 0 0.003v1.48c0 0.552-0.449 1-1 1zM14 26v3c0 0.552-0.448 1-1 1h-3c-0.552 0-1-0.448-1-1v-3c0-0.552 0.448-1 1-1h3c0.552 0 1 0.448 1 1zM14.5 18.5c-0.552 0-1-0.448-1-1v-1.517c0-0.001 0-0.002 0-0.002v-1.48c0-0.552 0.448-1 1-1h3c0.552 0 1 0.448 1 1v1.493c0 0.001 0 0.002 0 0.002v1.505c0 0.189-0.055 0.364-0.147 0.514-0.165 0.025-0.326 0.087-0.467 0.197-0.1 0.078-0.179 0.172-0.241 0.274-0.048 0.006-0.096 0.015-0.145 0.015h-3zM26 24c0.552 0 1 0.448 1 1v3c0 0.552-0.448 1-1 1h-3c-0.552 0-1-0.448-1-1v-3c0-0.194 0.058-0.372 0.152-0.525 0.163-0.025 0.323-0.078 0.462-0.186 0.1-0.078 0.179-0.172 0.241-0.274 0.048-0.006 0.096-0.015 0.145-0.015h3zM30.5 16.5c0 0.552-0.448 1-1 1h-3c-0.552 0-1-0.448-1-1v-1.494c0-0.001 0-0.002 0-0.002v-1.505c0-0.552 0.448-1 1-1h3c0.552 0 1 0.448 1 1v3z"></path>
</svg>
