<!-- Generated by IcoMoon.io -->
<svg version="1.1" xmlns="http://www.w3.org/2000/svg" width="32" height="32" viewBox="0 0 32 32">
<title>page-move</title>
<path d="M26.146 11.031c-0.076-0.040-1.357-0.835-2.198-1.357-0.095-0.061-0.204-0.066-0.294-0.017s-0.144 0.094-0.144 0.207l0.002 0.636h-1.512v-1.5h0.459c0.114 0 0.217-0.126 0.268-0.217 0.048-0.085 0.044-0.217-0.011-0.315-0.52-0.833-1.308-2.12-1.351-2.201-0.085-0.185-0.382-0.207-0.481-0.020-0.040 0.076-0.835 1.353-1.357 2.194-0.061 0.095-0.067 0.203-0.017 0.292 0.049 0.091 0.168 0.143 0.28 0.143l0.709-0.002v1.626h-2v-0.574c0-0.114 0.051-0.217-0.041-0.268-0.084-0.047-0.13-0.044-0.226 0.011-0.833 0.52-2.076 1.309-2.159 1.351-0.184 0.085-0.183 0.382 0.003 0.482 0.076 0.040 1.363 0.834 2.204 1.357 0.095 0.060 0.095 0.066 0.184 0.017 0.090-0.051 0.034-0.146 0.034-0.259v-0.616h2v1.5h-0.722c-0.113 0-0.217 0.142-0.267 0.234-0.047 0.085-0.044 0.226 0.011 0.322 0.52 0.833 1.308 2.124 1.351 2.207 0.085 0.183 0.383 0.208 0.482 0.021 0.041-0.076 0.834-1.351 1.357-2.192 0.060-0.095 0.066-0.281 0.016-0.37s-0.146-0.22-0.259-0.22h-0.468v-1.5h1.5v0.607c0 0.114 0.069 0.216 0.16 0.268 0.084 0.047 0.188 0.044 0.285-0.011 0.832-0.52 2.105-1.309 2.188-1.351 0.184-0.085 0.2-0.382 0.013-0.481zM21.814 18.602c-0.262 0-0.314 0.078-0.814 0.225v0.948c0 0.289-0.212 0.524-0.5 0.524s-0.5-0.235-0.5-0.524v-1.081c0-0.567-0.672-0.977-1.258-0.977-0.257 0-0.242 0.079-0.742 0.224v1.834c0 0.289-0.212 0.524-0.5 0.524-0.289 0-0.5-0.235-0.5-0.524v-2.067c0-0.567-0.672-0.977-1.257-0.977-0.261 0-0.243 0.077-0.743 0.224v2.819c0 0.289-0.211 0.524-0.5 0.524s-0.5-0.235-0.5-0.524v-8.117c0-0.567-0.649-0.976-1.233-0.976-0.698 0-1.267 0.569-1.267 1.267v8.052h-0.097c-1.486 0-1.903 0.622-1.903 2.055v4.688c0 0.291 0.171 0.571 0.356 0.811l0.065 0.046c0.098 0.157 1.585 1.843 2.454 2.864l0.125 0.070v0.092c0 0.913 0.229 1.375 0.868 1.375h7.607c0.638 0 1.025-0.463 1.025-1.375v-0.067l0.002-0.058c0.335-0.573 1.189-2.197 1.189-2.813l-0.076-8.008c-0.095-0.625-0.674-1.078-1.302-1.078z"></path>
</svg>
