<!-- Generated by IcoMoon.io -->
<svg version="1.1" xmlns="http://www.w3.org/2000/svg" width="32" height="32" viewBox="0 0 32 32">
<title>paint-blush</title>
<path d="M30.9 1.794c-1.317-1.097-2.32-0.123-3.416 1.195l-11.618 12.023c-1.096 1.317-0.917 3.274 0.401 4.37s3.274 0.916 4.37-0.401l9.709-13.611c1.096-1.317 1.872-2.48 0.554-3.576zM17.328 21.456c-0.705-0.076-1.396-0.352-1.982-0.839-0.733-0.61-1.168-1.442-1.298-2.316-0.867-0.332-1.826-0.464-2.813-0.34-3.039 0.382-5.232 3.035-5.102 6.041-0.909 1.010-2.272 1.847-4.309 1.932 0 0-2.73-0.11-0.611 2.34 0 0 4.572 3.953 11.534 1.72 3.509-0.894 5.412-3.768 5.010-6.968-0.070-0.555-0.22-1.080-0.43-1.57z"></path>
</svg>
