<!-- Generated by IcoMoon.io -->
<svg version="1.1" xmlns="http://www.w3.org/2000/svg" width="32" height="32" viewBox="0 0 32 32">
<title>paint-roller</title>
<path d="M28.778 3.025c-0.257-0.284-0.603-0.525-1.001-0.525h-1.777v-1.544c0-0.527-0.619-0.956-1.12-0.956h-21.46c-0.503 0-0.92 0.428-0.92 0.956v4.665c0 0.527 0.417 0.879 0.92 0.879h21.46c0.502 0 1.12-0.352 1.12-0.879v-1.621h1.735c0.041 0 0.068 0.386 0.054 0.55l-0.003 3.791c-0.063 0.634-0.38 0.659-0.494 0.659h-0.064l-11.112 2.074 0.025 0.061c-2.177 0.518-2.642 1.136-2.642 2.931v2.934h-1.745c-0.635 0-1.027 0.4-1.027 1.035s0.273 1.035 1.272 1.035v10.575c0 1.301 0.521 2.355 1.822 2.355h0.655c1.3 0 2.023-1.055 2.023-2.355v-10.575c0.5 0 1.172-0.4 1.172-1.035s-0.492-1.035-1.128-1.035h-1.544v-2.934c0-1.033-0.098-1.098 1.486-1.476l10.929-1.947c0.623-0.034 1.694-0.497 1.828-2.073l-0.009-3.907c0.018-0.24 0.026-1.107-0.457-1.638z"></path>
</svg>
