<!-- Generated by IcoMoon.io -->
<svg version="1.1" xmlns="http://www.w3.org/2000/svg" width="32" height="32" viewBox="0 0 32 32">
<title>paint-brush</title>
<path d="M8.574 11.453c-0.371 0.371-0.371 0.972 0 1.343l3.688 3.688-10.865 9.427c-1.081 1.081-1.993 4.524-0.912 5.605s4.524 0.168 5.604-0.913l9.427-10.864 3.688 3.688c0.371 0.37 0.972 0.37 1.343 0l3.771-3.771-11.973-11.973-3.771 3.771zM4.923 29.082c-0.553 0.554-1.452 0.554-2.006 0s-0.554-1.452 0-2.006c0.554-0.554 1.452-0.554 2.006 0s0.554 1.452 0 2.006zM31.364 10.613c-0.347-0.348-1.104-0.201-1.552-0.111 0.090-0.447 0.235-1.204-0.111-1.552s-1.104-0.201-1.552-0.111c0.090-0.448 0.236-1.204-0.111-1.551s-1.104-0.202-1.552-0.112c0.090-0.447 0.235-1.204-0.111-1.551-0.348-0.347-1.104-0.202-1.552-0.112 0.090-0.448 0.235-1.204-0.112-1.552-0.346-0.346-1.102-0.2-1.55-0.111 0.090-0.448 0.235-1.204-0.111-1.552s-1.104-0.202-1.552-0.111c0.090-0.448 0.236-1.204-0.111-1.552-0.55-0.551-1.718-0.278-2.269 0.273l-5.389 5.389 11.973 11.973 5.389-5.389c0.551-0.551 0.825-1.718 0.273-2.269z"></path>
</svg>
