<!-- Generated by IcoMoon.io -->
<svg version="1.1" xmlns="http://www.w3.org/2000/svg" width="32" height="32" viewBox="0 0 32 32">
<title>pantone</title>
<path d="M30.905 22.5h-6.779l4.791-2.346c0.425-0.202 0.747-0.599 0.907-1.044 0.159-0.443 0.136-0.942-0.064-1.367l-2.397-5.1c-0.289-0.614-0.915-1.016-1.595-1.016-0.262 0-0.513 0.053-0.75 0.165l-6.477 3.050 4.16-6.296c0.259-0.393 0.35-0.863 0.256-1.324s-0.363-0.859-0.755-1.118l-4.692-3.1c-0.567-0.375-1.308-0.389-1.888-0.035-0.223 0.135-0.409 0.315-0.553 0.534l-4.409 6.672 0.030-7.611c0.002-0.47-0.18-0.914-0.511-1.248-0.331-0.335-0.773-0.52-1.244-0.521l-5.625-0.021c-0.679-0.003-1.306 0.391-1.599 1.006-0.112 0.236-0.169 0.576-0.17 0.838l-0.075 19.883h-0.25c-0.67 0-1.214 0.366-1.214 1.037v6.748c0 0.671 0.544 1.215 1.214 1.215h29.691c0.671 0 1.095-0.544 1.095-1.215v-6.748c0-0.671-0.424-1.037-1.095-1.037zM16.319 4.329c0.022-0.034 0.049-0.060 0.082-0.080 0.066-0.040 0.179-0.063 0.282 0.005l4.692 3.1c0.079 0.052 0.105 0.127 0.113 0.167s0.014 0.117-0.039 0.197l-5.518 8.351-10.704 5.044 11.091-16.785zM3.039 2.534c0-0.039 0.009-0.076 0.025-0.111 0.033-0.070 0.115-0.151 0.239-0.151l5.625 0.022c0.095 0.001 0.157 0.049 0.185 0.078 0.030 0.030 0.077 0.091 0.076 0.186l-0.037 9.899-6.186 9.362 0.074-19.285zM4.681 28.959c-1.038 0-1.88-0.841-1.88-1.88s0.841-1.88 1.88-1.88c1.038 0 1.88 0.842 1.88 1.88s-0.841 1.88-1.88 1.88zM6.179 22.5l19.477-9.265c0.035-0.017 0.073-0.070 0.111-0.070 0.077 0 0.186 0.018 0.238 0.13l2.398 5.076c0.040 0.085 0.023 0.157 0.009 0.195s-0.049 0.195-0.135 0.235l-7.669 3.7h-14.43z"></path>
</svg>
