<!-- Generated by IcoMoon.io -->
<svg version="1.1" xmlns="http://www.w3.org/2000/svg" width="32" height="32" viewBox="0 0 32 32">
<title>pants</title>
<path d="M24.018 7.795v-3.825h-7.362v4.535c0 0.362-0.294 0.656-0.657 0.656s-0.655-0.294-0.655-0.656v-4.535h-7.363v3.826c0 0.006-0.004 0.012-0.004 0.019s0.004 0.012 0.004 0.019v23.009c0 0.639 0.519 1.158 1.158 1.158h4.559c0.604 0 1.113-0.473 1.155-1.075l1.146-19.349 1.145 19.348c0.042 0.603 0.55 1.075 1.155 1.075h4.559c0.639 0 1.158-0.52 1.158-1.158v-23.009c0-0.006 0.004-0.012 0.004-0.019s-0.004-0.013-0.004-0.019zM23.328 2.73h0.691v-1.571c0-0.639-0.52-1.159-1.158-1.159h-13.721c-0.639 0-1.158 0.519-1.158 1.159v1.571h15.347zM16.982 0.693c0.357 0 0.645 0.289 0.645 0.646s-0.289 0.646-0.645 0.646-0.646-0.289-0.646-0.646c0-0.357 0.29-0.646 0.646-0.646zM15.018 0.693c0.357 0 0.646 0.289 0.646 0.646s-0.289 0.646-0.646 0.646c-0.357 0-0.646-0.289-0.646-0.646s0.29-0.646 0.646-0.646z"></path>
</svg>
