<!-- Generated by IcoMoon.io -->
<svg version="1.1" xmlns="http://www.w3.org/2000/svg" width="32" height="32" viewBox="0 0 32 32">
<title>parking-sensor-fault</title>
<path d="M3.4 15.9c0-3.45 1.5-6.75 4.15-9l0.25-0.2-2.15-2.2-0.2 0.2c-0.25 0.2-0.45 0.4-0.65 0.6-1.4 1.35-2.5 2.95-3.25 4.75-0.8 1.85-1.2 3.8-1.2 5.85s0.4 4 1.2 5.85c0.75 1.75 1.85 3.35 3.2 4.75 0.2 0.2 0.35 0.35 0.6 0.55l0.2 0.2 2.15-2.15-0.2-0.25c-2.65-2.25-4.1-5.55-4.1-8.95zM28.6 15.9c0-3.45-1.5-6.75-4.15-9l-0.25-0.2 2.15-2.2 0.2 0.2c0.25 0.2 0.45 0.4 0.65 0.6 1.4 1.35 2.5 2.95 3.25 4.75 0.8 1.85 1.2 3.8 1.2 5.85s-0.4 4-1.2 5.85c-0.75 1.8-1.85 3.4-3.25 4.75-0.2 0.2-0.35 0.35-0.6 0.55l-0.2 0.2-2.15-2.15 0.25-0.2c2.65-2.3 4.1-5.6 4.1-9zM16.7 13h-1.4v3h1.4c1.15 0 2.050-0.3 2.050-1.5s-0.85-1.5-2.050-1.5zM16.050 5.3c-5.9 0-10.7 4.8-10.7 10.7s4.8 10.7 10.7 10.7 10.7-4.75 10.7-10.7-4.8-10.7-10.7-10.7zM17.050 18.5h-1.7v3.5h-2.5v-11.5h4.2c2.5 0 4.1 1.050 4.35 3.7 0.2 2.85-1.9 4.3-4.35 4.3z"></path>
</svg>
