<!-- Generated by IcoMoon.io -->
<svg version="1.1" xmlns="http://www.w3.org/2000/svg" width="32" height="32" viewBox="0 0 32 32">
<title>pasta</title>
<path d="M10.5 11.15c0.5 0 0.85-0.4 0.85-0.85v-7.8c0-0.5-0.4-0.85-0.85-0.85-0.5 0-0.85 0.4-0.85 0.85v7.8c0 0.5 0.4 0.85 0.85 0.85zM6.35 2.8l-0.75 0.050c-0.6 0-1.15 0.5-1.15 1.15v0.5h1.9v-1.7zM6.35 5.8h-1.9v1.6h1.9zM5.6 10.45l0.75 0.050v-1.8h-1.9v0.65c0 0.6 0.55 1.1 1.15 1.1zM18 10.1c0 0 1.5-1.15 3.4-1.2l6.4 0.45c0.1 0 0.25 0 0.35-0.050 1.25-0.25 2.2-1.35 2.2-2.65s-0.95-2.4-2.2-2.65c-0.15 0-0.25 0-0.4 0 0 0-0.5 0-0.65 0.050l-6 0.4c-1.45-0.15-2.6-0.85-3-1.15-0.8-0.75-1.9-1.2-3.050-1.2l-2.8 0.25v2.15h1.25c0.65 0 0.65 0.65 0.65 0.65 0 0.35-0.3 0.65-0.65 0.65h-1.3v1.6h1.3c0.65 0 0.65 0.65 0.65 0.65 0 0.35-0.3 0.65-0.65 0.65h-1.3v2.2l2.8 0.25c1.7 0 3-1.050 3-1.050zM28 24.35c-0.050-0.2-0.15-0.4-0.25-0.6 0.7-1.1 1.050-2.4 1.050-3.75 0-3.9-3.2-7.050-7.15-7.050h-0.050c-3.45 0-6.3 2.45-6.95 5.7h-2.4c-0.45-1.7-1.8-3.050-3.5-3.45 0-0.050 0-0.1 0-0.2v-12.7c0-0.5-0.4-0.85-0.85-0.85-0.5 0-0.85 0.4-0.85 0.85v12.7c0 0.050 0 0.050 0 0.1-2.3 0.3-4.1 2.3-4.1 4.7 0 1.2 0.45 2.3 1.2 3.1-0.25 0.45-0.45 0.9-0.65 1.4h-3.2c0.7 4.3 2.1 6.2 3.5 6.2h24.1c1.4 0 3-2.55 3.8-6.15h-3.7zM21.65 14.5v0c3.1 0 5.6 2.5 5.65 5.55 0 0.75-0.15 1.5-0.4 2.15-0.3-0.4-0.6-0.8-0.95-1.1 0.050-0.3 0.1-0.65 0.1-1 0-2.4-1.95-4.35-4.35-4.35-1.9 0-3.5 1.25-4.1 2.95h-1.35c0.6-2.4 2.8-4.2 5.4-4.2zM20.050 18.65h-1c0.5-0.95 1.5-1.55 2.6-1.55 1.65 0 2.95 1.3 2.95 2.95-1.3-0.85-2.85-1.4-4.55-1.4zM4.3 19.8c0-1.9 1.55-3.4 3.4-3.4 1.5 0 2.75 0.95 3.2 2.3-0.35 0-0.75 0.050-1.1 0.15v0c-0.1-0.2-0.25-0.4-0.4-0.6-0.45-0.5-1.15-0.75-1.8-0.75-0.55 0-1.1 0.25-1.5 0.65-0.75 0.7-0.95 1.85-0.5 2.75l0.050 0.1c-0.25 0.25-0.5 0.5-0.75 0.8-0.35-0.55-0.6-1.25-0.6-2zM6.7 20.15c-0.1-0.4 0-0.8 0.3-1.1 0.2-0.2 0.45-0.3 0.7-0.3 0.3 0 0.6 0.1 0.85 0.35 0 0.050 0.050 0.050 0.050 0.1-0.7 0.25-1.35 0.55-1.9 0.95zM11.45 20.3h8.6c2.75 0 5.15 1.65 6.2 4.050h-1.35c-1.1-1.7-3-2.8-5.2-2.8h-7.75c-2.15 0-4.1 1.1-5.2 2.8h-1.5c1.050-2.4 3.45-4.050 6.2-4.050zM22.65 24.35h-13.7c0.8-0.7 1.85-1.15 2.95-1.15h7.75c1.2 0 2.2 0.45 3 1.15zM4.85 29.050c-0.1 0.15-0.3 0.25-0.5 0.25-0.15 0-0.3-0.050-0.45-0.15-0.85-0.7-1.4-1.6-1.6-2.7-0.050-0.2 0-0.4 0.1-0.55s0.25-0.25 0.4-0.3c0.35-0.050 0.65 0.15 0.7 0.45 0.15 0.85 0.6 1.55 1.25 2.1 0.3 0.3 0.35 0.65 0.1 0.9z"></path>
</svg>
