<!-- Generated by IcoMoon.io -->
<svg version="1.1" xmlns="http://www.w3.org/2000/svg" width="32" height="32" viewBox="0 0 32 32">
<title>peach</title>
<path d="M28.45 14.9c-0.45-3.35-3.4-6.050-7.15-6.35-0.9-0.1-1.8 0.050-2.6 0.3-0.3 0.050-1.050 0.15-1.050 0.2 0.1-1.45-0.1-2.9-0.7-4.25 1.9 1.4 7 4.45 9.9-0.7-7.2-5.2-9.8-1.75-10.45-0.4-0.5-0.85-1.1-1.6-1.85-2.25-0.2-0.2-0.4-0.3-0.65-0.35-0.6-0.1-1.2 0.35-1.3 0.95-0.050 0.45 0.15 0.9 0.5 1.15 1.6 1.4 2.4 3.5 2.3 5.55-0.25-0.050-0.55-0.15-0.75-0.25-0.75-0.4-1.6-0.65-2.55-0.75-3.75-0.3-7.1 1.85-8.1 5.1-2.5 8.4 3.9 13.8 6.4 15v0c0 0 3 1.45 4 2.7 0.35 0.4 0.95 0.5 1.35 0.15 0.7-0.6 1.95-1.3 3.95-1.9 2.6-0.7 10.2-7 8.75-13.9zM10.7 11.25c-1.45 0.3-2.6 1.4-2.95 2.85 0 0 0 0 0 0-0.1 0.35-0.45 0.65-0.85 0.6-0.45-0.050-0.8-0.4-0.75-0.85 0-0.050 0-0.050 0-0.1 0 0 0 0 0 0 0.45-2.1 2.15-3.7 4.2-4.050 0 0 0 0 0 0 0.1 0 0.2-0.050 0.25-0.050 0.45 0.050 0.8 0.4 0.75 0.85 0.050 0.4-0.3 0.7-0.65 0.75zM15.9 11.95c-1.9 3.15-3 7.2-1.050 10.9 0.15 0.3 0 0.6-0.3 0.7 0 0 0 0 0 0-0.35 0.1-0.8-0.050-0.95-0.35-2.35-4.35-0.95-8.6 1.2-11.95 0.2-0.25 0.5-0.4 0.8-0.3 0.4 0.2 0.55 0.65 0.3 1z"></path>
</svg>
