<!-- Generated by IcoMoon.io -->
<svg version="1.1" xmlns="http://www.w3.org/2000/svg" width="32" height="32" viewBox="0 0 32 32">
<title>pear</title>
<path d="M26.45 24c0-2-0.95-3.8-2.5-5.2v0c-2.050-1.75-2.3-5-2.3-5 0-2.35-1.95-4.3-4.3-4.3h-0.1c-0.3-1.25-0.8-2.4-1.5-3.5 1.45 0.55 7.65 2.4 9.2-5.15-7.15-3-9.1 3.4-9.45 4.8-0.4-0.6-0.9-1.15-1.4-1.65-0.2-0.25-0.5-0.4-0.8-0.5-0.75-0.15-1.5 0.35-1.65 1.1-0.1 0.55 0.1 1.1 0.55 1.45 1.050 1 1.75 2.2 2.15 3.5-2.2 0.15-4 2-4 4.25 0 0-0.2 3.2-2.3 5v0c-1.55 1.4-2.5 3.2-2.5 5.2 0 0-0.2 4.95 4.35 7.2v0c0.8 0.45 1.75 0.75 2.8 0.75h6.6c1 0 1.95-0.25 2.8-0.75v0c4.55-1.75 4.35-7.2 4.35-7.2zM12.9 22c-0.55 0.4-0.95 0.95-1.2 1.6-0.25 0.6-0.85 1-1.6 0.85s-1.4-1.25-1-2.2c0.35-0.95 1-1.75 1.8-2.35s2-0.3 2.35 0.4c0.35 0.6 0.15 1.3-0.35 1.7zM14.55 14.050c-0.65 0-1.2-0.6-1.2-1.3s0.55-1.3 1.2-1.3c0.65 0 1.2 0.6 1.2 1.3s-0.5 1.3-1.2 1.3z"></path>
</svg>
