<!-- Generated by IcoMoon.io -->
<svg version="1.1" xmlns="http://www.w3.org/2000/svg" width="32" height="32" viewBox="0 0 32 32">
<title>pencil</title>
<path d="M31.165 3.099l-2.262-2.263c-0.539-0.539-1.256-0.836-2.019-0.836s-1.48 0.296-2.019 0.836l-3.378 3.377 6.302 6.301 3.377-3.377c1.113-1.113 1.113-2.925-0-4.038zM4.966 20.734l-0.21 0.228c-0.165 0.358-4.052 8.782-4.284 9.328-0.121 0.288-0.145 0.951 0.027 1.209 0.179 0.271 1.139 0.061 1.266 0.002 0.528-0.243 9.273-4.257 9.273-4.257l0.226-0.208 15.283-15.283-6.3-6.301-15.28 15.28zM9.898 26.178l-5.817 2.671-0.929-0.929 2.688-5.855 2.107-0.677c-0.405 1.113-0.807 2.566-0.354 3.020 0.139 0.139 0.353 0.207 0.652 0.207 0.655 0 1.707-0.332 2.362-0.564l-0.71 2.127z"></path>
</svg>
