<!-- Generated by IcoMoon.io -->
<svg version="1.1" xmlns="http://www.w3.org/2000/svg" width="32" height="32" viewBox="0 0 32 32">
<title>pepper</title>
<path d="M10.8 27.5l-2.35-12.45v-0.1c0-0.1-0.1-0.85-0.1-1.35 0-2.45 1.15-4.65 3-6.050-0.75-0.25-1.6-0.3-2.45-0.25-3.6 0.35-6.25 3.55-5.9 7.15 0.050 0.4 0.1 0.8 0.2 1.15v0l3.5 12.25c0.35 2.050 2.3 3.55 4.4 3.35 0.5-0.050 0.95-0.2 1.4-0.4 0 0 0 0 0 0-1-0.85-1.6-2.050-1.7-3.3zM23.15 7.35c-0.85-0.1-1.7 0-2.45 0.25 1.8 1.4 3 3.6 3 6.050 0 0.45-0.1 1.25-0.1 1.35v0.1l-2.4 12.4c-0.1 1.3-0.7 2.45-1.65 3.35 0 0 0 0 0 0 0.45 0.2 0.9 0.35 1.4 0.4 2.15 0.2 4.050-1.3 4.4-3.35v0l3.5-12.25c0.1-0.4 0.2-0.75 0.2-1.15 0.35-3.65-2.3-6.85-5.9-7.15zM15.95 5.9c1.2 0 2.35 0.35 3.3 0.9 0.35-0.2 0.65-0.35 1.050-0.45-1.45-0.6-1.8-1.85-1.85-2.6v-0.6c0 0 0 0 0 0v0 0c0-1.3-1.1-2.4-2.4-2.4s-2.4 1.1-2.4 2.4v0.6c-0.050 0.8-0.4 2.050-1.95 2.6 0.3 0.1 0.6 0.25 0.9 0.45 1-0.6 2.15-0.9 3.35-0.9zM20.1 27.5l2.35-12.5c0.050-0.4 0.1-0.8 0.1-1.2 0-3.6-2.95-6.55-6.55-6.55s-6.55 2.95-6.55 6.55c0 0.4 0.1 1.2 0.1 1.2l2.35 12.5c0.2 2.1 1.95 3.75 4.1 3.75s3.9-1.65 4.1-3.75v0zM14.7 10.8c-0.9 0.5-1.6 1.25-1.95 2.25-0.1 0.3-0.45 0.45-0.8 0.35s-0.55-0.55-0.4-0.9c0.45-1.15 1.3-2.1 2.4-2.7 0.35-0.2 0.8-0.050 0.95 0.25 0.2 0.25 0.1 0.6-0.2 0.75z"></path>
</svg>
