<!-- Generated by IcoMoon.io -->
<svg version="1.1" xmlns="http://www.w3.org/2000/svg" width="32" height="32" viewBox="0 0 32 32">
<title>percussion</title>
<path d="M31.596 6.316l-5.912-5.912c-0.538-0.538-1.412-0.538-1.95 0l-11.318 11.317 7.864 7.863 11.317-11.317c0.538-0.538 0.537-1.413-0.002-1.952zM20.273 7.606c-0.308 0.308-0.808 0.308-1.115 0s-0.308-0.808 0-1.116c0.308-0.308 0.807-0.308 1.115 0s0.308 0.808 0 1.116zM22.515 5.364c-0.308 0.308-0.807 0.308-1.115 0s-0.308-0.808 0-1.115c0.308-0.308 0.808-0.308 1.115 0 0.308 0.308 0.308 0.806 0 1.115zM23.642 2.006c0.308-0.308 0.808-0.308 1.115 0 0.308 0.308 0.308 0.807 0 1.115s-0.806 0.308-1.115 0c-0.308-0.308-0.308-0.806 0-1.115zM25.51 12.843c-0.308 0.309-0.807 0.309-1.115 0-0.308-0.307-0.308-0.806 0-1.114s0.807-0.308 1.115 0c0.308 0.307 0.308 0.806 0 1.114zM27.752 10.601c-0.308 0.308-0.807 0.308-1.115 0s-0.308-0.806 0-1.115c0.308-0.309 0.807-0.309 1.115 0s0.308 0.807 0 1.115zM29.994 8.359c-0.308 0.308-0.807 0.308-1.116 0-0.308-0.309-0.308-0.808 0-1.116s0.808-0.308 1.116 0 0.308 0.807 0 1.116zM0.404 23.733c-0.538 0.538-0.537 1.413 0.001 1.951l5.912 5.912c0.538 0.538 1.412 0.538 1.951 0l11.317-11.318-7.864-7.863-11.317 11.317zM3.121 24.758c-0.308 0.308-0.808 0.308-1.115 0-0.308-0.308-0.308-0.808 0-1.116s0.806-0.308 1.115 0c0.308 0.308 0.308 0.808 0 1.116zM5.364 22.515c-0.308 0.308-0.807 0.308-1.115 0s-0.308-0.807 0-1.115c0.308-0.308 0.807-0.308 1.115 0s0.308 0.806 0 1.115zM6.49 19.157c0.308-0.308 0.807-0.308 1.115 0s0.309 0.806 0 1.114c-0.308 0.308-0.807 0.308-1.115 0s-0.308-0.806 0-1.114zM8.358 29.994c-0.309 0.308-0.808 0.308-1.115 0-0.309-0.308-0.309-0.807 0-1.114 0.308-0.308 0.806-0.308 1.115 0 0.307 0.308 0.307 0.806 0 1.114zM10.601 27.753c-0.308 0.308-0.807 0.308-1.115 0s-0.309-0.807 0-1.116c0.307-0.308 0.807-0.308 1.115 0s0.309 0.808 0 1.116zM12.843 24.395c0.308 0.308 0.308 0.808 0 1.116s-0.807 0.308-1.115 0c-0.309-0.308-0.309-0.808 0-1.116 0.307-0.308 0.807-0.308 1.115 0z"></path>
</svg>
