<!-- Generated by IcoMoon.io -->
<svg version="1.1" xmlns="http://www.w3.org/2000/svg" width="32" height="32" viewBox="0 0 32 32">
<title>percent</title>
<path d="M13.744 9.098c0-1.994-0.604-3.589-1.812-4.785s-2.86-1.795-4.956-1.795c-1.425 0-2.657 0.282-3.7 0.846s-1.817 1.37-2.324 2.418c-0.507 1.048-0.76 2.154-0.76 3.316 0 1.174 0.254 2.284 0.76 3.332s1.282 1.854 2.324 2.418 2.276 0.846 3.7 0.846c2.096 0 3.748-0.598 4.956-1.794s1.812-2.796 1.812-4.802zM8.258 12.209c-0.285 0.421-0.712 0.633-1.282 0.633s-1.003-0.21-1.299-0.633c-0.456-0.638-0.684-1.663-0.684-3.076s0.228-2.438 0.684-3.076c0.296-0.41 0.729-0.615 1.299-0.615s0.997 0.205 1.281 0.615c0.456 0.649 0.684 1.675 0.684 3.076 0 1.412-0.228 2.438-0.684 3.076zM21.463 2.5l-14.435 27h3.573l14.473-27zM29.997 17.857c-1.208-1.202-2.866-1.803-4.973-1.803-1.413 0-2.643 0.285-3.692 0.855s-1.823 1.375-2.324 2.418c-0.502 1.043-0.752 2.151-0.752 3.324s0.25 2.282 0.752 3.324c0.501 1.043 1.276 1.849 2.324 2.418s2.279 0.855 3.692 0.855c2.107 0 3.765-0.601 4.973-1.803s1.811-2.8 1.811-4.793c0-1.994-0.604-3.591-1.811-4.794zM26.323 25.761c-0.296 0.41-0.729 0.615-1.299 0.615s-0.997-0.205-1.282-0.615c-0.456-0.638-0.683-1.663-0.683-3.076s0.228-2.438 0.683-3.076c0.285-0.421 0.712-0.633 1.282-0.633s1.003 0.205 1.299 0.615c0.456 0.649 0.683 1.68 0.683 3.093s-0.228 2.439-0.683 3.076z"></path>
</svg>
