<!-- Generated by IcoMoon.io -->
<svg version="1.1" xmlns="http://www.w3.org/2000/svg" width="32" height="32" viewBox="0 0 32 32">
<title>perfume</title>
<path d="M25.618 26.11c0.931-1.755 3.323-8.289 3.296-11.362-0.032-3.865-2.974-5.294-4.598-5.53v-4.141c0-0.476-0.386-0.863-0.863-0.863h-0.863v-3.352c0-0.476-0.387-0.863-0.862-0.863h-0.671c-0.476 0-0.863 0.387-0.863 0.863v0.575c-2.413-0.109-9.748 0.44-12.277 10.534-1.316 0.694-3.569 2.22-4.449 4.865-1.127 3.386 0.38 6.061 2.543 6.588 2.163 0.529 4.718-1.156 5.291-4.678 0.493-3.030-0.958-5.439-1.81-6.554 2.351-9.094 8.823-9.321 10.703-9.184v1.205h-0.862c-0.477 0-0.863 0.387-0.863 0.863v4.12h-0.191c-0.039 0-0.078 0.003-0.116 0.008-1.485 0.2-4.292 1.619-4.292 5.55 0 3.773 2.509 10.187 3.323 11.611l-2.216 2.691c-0.127 0.155-0.197 0.348-0.197 0.549v1.532c0 0.477 0.386 0.863 0.863 0.863h11.497c0.477 0 0.863-0.386 0.863-0.863v-2.203c0-0.223-0.087-0.438-0.241-0.598l-2.145-2.228z"></path>
</svg>
