<!-- Generated by IcoMoon.io -->
<svg version="1.1" xmlns="http://www.w3.org/2000/svg" width="32" height="32" viewBox="0 0 32 32">
<title>person-pin-circle</title>
<path d="M18.928 7.811c0 1.617-1.311 2.929-2.928 2.929s-2.928-1.311-2.928-2.928c0-1.617 1.311-2.928 2.928-2.928s2.928 1.311 2.928 2.928zM16 11.239c-2.53 0-4.675 1.638-5.441 3.91 1.284 1.585 3.243 2.601 5.441 2.601s4.157-1.014 5.44-2.599c-0.765-2.273-2.91-3.912-5.44-3.912zM16 0.254c-5.835 0-10.566 4.731-10.566 10.566 0 0.901 0.125 1.771 0.337 2.604l0.086 0.333c0.343 1.188 7.983 16.273 7.983 16.273s0.442 1.718 2.159 1.718 2.159-1.718 2.159-1.718 7.64-15.084 7.983-16.273l0.086-0.333c0.212-0.834 0.337-1.704 0.337-2.604 0-5.835-4.73-10.566-10.566-10.566zM16 18.852c-4.436 0-8.033-3.596-8.033-8.033s3.596-8.033 8.033-8.033 8.032 3.596 8.032 8.033c0 4.437-3.596 8.033-8.033 8.033z"></path>
</svg>
