<!-- Generated by IcoMoon.io -->
<svg version="1.1" xmlns="http://www.w3.org/2000/svg" width="32" height="32" viewBox="0 0 32 32">
<title>person-pin</title>
<path d="M15.75 0.254c-5.835 0-10.566 4.731-10.566 10.566 0 0.901 0.125 1.771 0.337 2.604l0.086 0.333c0.343 1.188 7.983 16.273 7.983 16.273s0.442 1.718 2.159 1.718 2.159-1.718 2.159-1.718 7.64-15.084 7.983-16.273l0.086-0.333c0.212-0.834 0.337-1.704 0.337-2.604 0-5.835-4.73-10.566-10.566-10.566zM16 4.882c1.616 0 2.928 1.312 2.928 2.928s-1.311 2.929-2.928 2.929c-1.617 0-2.929-1.312-2.929-2.928s1.312-2.929 2.929-2.929zM16 17.75c-2.198 0-4.157-1.015-5.441-2.601 0.766-2.272 2.91-3.91 5.441-3.91s4.675 1.639 5.44 3.912c-1.284 1.584-3.242 2.599-5.44 2.599z"></path>
</svg>
