<!-- Generated by IcoMoon.io -->
<svg version="1.1" xmlns="http://www.w3.org/2000/svg" width="32" height="32" viewBox="0 0 32 32">
<title>petrol</title>
<path d="M24.75 27.55c-0.15-0.050-0.3-0.1-0.45-0.1h-19.6c-0.6 0-1.1 0.65-1.1 1.45v1.7c0.050 0.050 0.1 0.1 0.2 0.2h21.6c0 0 0 0 0.050-0.050v-1.85c0-0.45-0.15-0.85-0.4-1.15-0.1-0.1-0.2-0.15-0.3-0.2zM24.5 4.9h-0.15c0 0-0.050 0-0.050-0.050v-0.5c0-1.75-1.4-3.15-3.15-3.15h-13.35c-1.75 0-3.15 1.4-3.15 3.15v22c0 0 0 0 0.050 0.050h19.6c0 0 0 0 0.050-0.050v-1.35c0 0 0-0.050 0.050-0.050h0.1c2.15 0 3.95-1.75 3.95-3.95v-12.15c-0.050-2.2-1.8-3.95-3.95-3.95zM17.7 18.95c0 0.2 0 0.45-0.050 0.7s-0.15 0.5-0.35 0.75c-0.15 0.25-0.45 0.4-0.8 0.6-0.35 0.15-0.85 0.25-1.45 0.25h-1.85c0 0-0.050 0-0.050 0.050v3.25h-0.6c-0.3 0-0.45-0.050-0.6-0.15-0.1-0.1-0.2-0.3-0.2-0.55v-8.25c0 0 0-0.050 0.050-0.050h3.25c0.4 0 0.8 0.050 1.1 0.1 0.3 0.1 0.6 0.2 0.85 0.4s0.4 0.4 0.5 0.7c0.1 0.3 0.2 0.65 0.2 1.050v1.15zM21.75 12.2c0 0.55-0.45 0.95-0.95 0.95h-12.6c-0.55 0-0.95-0.45-0.95-0.95v-7.5c0-0.55 0.45-0.95 0.95-0.95h12.6c0.55 0 0.95 0.45 0.95 0.95v7.5zM26.4 21.050c0 1.050-0.85 1.9-1.9 1.9h-0.15c0 0-0.050 0-0.050-0.050v-15.95c0 0 0-0.050 0.050-0.050h0.15c1.050 0 1.9 0.85 1.9 1.9v12.25zM16.6 9.15c0-1.7-2.2-3.85-2.2-3.85v0c0 0-2.3 2.25-2.25 3.95 0 1.25 1 2.25 2.25 2.25 1.2 0 2.2-1 2.2-2.2v0c0 0 0 0 0 0s0 0 0 0c0-0.050 0-0.1 0-0.15zM15.050 16.75h-1.85c0 0-0.050 0-0.050 0.050v3.25c0 0 0 0.050 0.050 0.050h1.85c0.8 0 1.25-0.35 1.25-1.1v-1.1c0-0.35-0.1-0.6-0.3-0.8-0.15-0.25-0.5-0.35-0.95-0.35z"></path>
</svg>
