<!-- Generated by IcoMoon.io -->
<svg version="1.1" xmlns="http://www.w3.org/2000/svg" width="32" height="32" viewBox="0 0 32 32">
<title>Philippine-peso</title>
<path d="M30.814 7.811h-3.411c-0.297-1.238-0.795-1.846-1.506-2.771-1.223-1.588-2.739-2.619-4.55-3.094-1.177-0.316-2.752-0.474-6.633-0.474h-10.24v6.338h-3.289v2.872h3.289v1.062h-3.289v2.871h3.289v15.912h6.381v-9.372h4.161c2.889 0 4.139-0.151 5.663-0.453 1.121-0.244 2.224-0.744 3.309-1.498s1.98-1.793 2.684-3.115c0.314-0.588 0.553-0.764 0.727-1.473h3.414v-2.871h-3.097c0.006-0.181 0.013-0.362 0.013-0.549 0-0.175-0.011-0.342-0.017-0.514h3.101v-2.872zM10.856 6.819h3.083c2.3 0 2.875 0.072 3.636 0.216 0.96 0.173 1.28 0.121 1.931 0.776h-8.65v-0.992zM18.438 15.291c-0.848 0.331-1.573 0.496-4.088 0.496h-3.494v-1.171h8.778c-0.443 0.502-0.52 0.412-1.197 0.675zM21.154 11.282c0 0.159-0.017 0.31-0.030 0.462h-10.268v-1.062h10.261c0.023 0.194 0.037 0.393 0.037 0.6z"></path>
</svg>
