<!-- Generated by IcoMoon.io -->
<svg version="1.1" xmlns="http://www.w3.org/2000/svg" width="32" height="32" viewBox="0 0 32 32">
<title>phone-slash</title>
<path d="M31.799 4.157c0.426 0.426 0.101 0.734-0.29 1.125l-23.971 23.97c-0.39 0.39-0.988 0.427-1.414 0l-2.092-2.092c-0.426-0.426-0.42-1.053-0.030-1.444l23.971-23.97c0.39-0.391 0.698-0.716 1.125-0.289l2.701 2.7zM6.33 18.963l3.518-3.518c-1.060-2.594-0.138-4.194-0.138-4.194s1.653-1.452 2.295-2.21c1.229-1.452 0.207-2.684 0.207-2.684l-2.902-5.026c0 0-0.573-1.474-2.699-1.069-1.018 0.195-2.663 0.336-4.5 1.095-1.043 0.431-2.067 2.933-1.905 3.505 1.105 3.928 2.784 9.436 6.125 14.1zM31.11 22.358l-6.5-2.5c0 0-0.5-0.5-2 0.5-0.825 0.551-1.878 1.917-1.878 1.917s-3.223 1.834-7.921-2.723l-3.167 3.167c6.875 6.325 11.030 7.157 17.477 9.060 0.57 0.169 2.988-0.422 3.488-1.922 0.628-1.886 0.915-3.482 1.113-4.5 0.387-2-0.613-3-0.613-3z"></path>
</svg>
