<!-- Generated by IcoMoon.io -->
<svg version="1.1" xmlns="http://www.w3.org/2000/svg" width="32" height="32" viewBox="0 0 32 32">
<title>phone</title>
<path d="M31.11 22.358l-6.5-2.5c0 0-0.5-0.5-2 0.5-0.826 0.55-1.878 1.917-1.878 1.917s-3.314 1.892-8.123-2.917c-4.808-4.808-2.9-8.107-2.9-8.107s1.654-1.453 2.295-2.21c1.229-1.452 0.207-2.684 0.207-2.684l-2.903-5.025c0 0-0.573-1.474-2.699-1.069-1.018 0.194-2.663 0.336-4.5 1.095-1.043 0.431-2.067 2.933-1.905 3.505 1.405 4.995 3.724 12.552 9.233 17.668 7 6.5 11.172 7.328 17.683 9.249 0.57 0.168 2.989-0.422 3.489-1.922 0.628-1.886 0.915-3.482 1.112-4.5 0.389-2-0.611-3-0.611-3z"></path>
</svg>
