<!-- Generated by IcoMoon.io -->
<svg version="1.1" xmlns="http://www.w3.org/2000/svg" width="32" height="32" viewBox="0 0 32 32">
<title>piano</title>
<path d="M0 32h2.942c0-1 0.964-2 2.157-2h5.901v0.65c0 0.755 0.494 1.368 1.25 1.368s1.25-0.613 1.25-1.369v-0.65h1v0.65c0 0.755 0.494 1.369 1.251 1.369 0.755 0 1.249-0.613 1.249-1.369v-0.65h1v0.65c0 0.755 0.743 1.369 1.5 1.369 0.756 0 1.5-0.613 1.5-1.369v-0.65h5.553c1.192 0 2.157 1 2.157 2h3.29v-10.5h-32v10.5zM0 0v20.5h32v-20.5h-32zM26.5 13.5v4.5h-4v-4.5h1v-4h2v4h1zM6.5 13.5v-4h2.5v4h0.5v4.5h-4v-4.5h1zM10 13.5h1v-4h2.5v8.5h-3.5v-4.5zM14 9.5h2.5v4h1v4.5h-3.5v-8.5zM18 13.5h1v-4h2v4h1v4.5h-4v-4.5zM10.126 5.5h11.748c0.434 0 0.786 0.316 0.786 0.75 0 0.433-0.352 0.75-0.786 0.75h-11.748c-0.434 0-0.787-0.316-0.787-0.75s0.352-0.75 0.787-0.75zM2 9.5h2.5v4h0.5v4.5h-3v-8.5zM30 18h-3v-4.5h1v-4h2v8.5z"></path>
</svg>
