<!-- Generated by IcoMoon.io -->
<svg version="1.1" xmlns="http://www.w3.org/2000/svg" width="32" height="32" viewBox="0 0 32 32">
<title>pickles</title>
<path d="M25.1 3c0-0.050 0-0.1 0-0.1 0-1.1-0.9-2-2-2h-14.050c-1.1 0-2 0.9-2 2-0.050 0-0.050 0.1-0.050 0.1 0 0.35 0 0.7-0.050 1h18.2c-0.050-0.3-0.050-0.65-0.050-1zM28.65 9.6c0-1-0.75-1.8-1.75-1.85v0c0 0-1.3-0.15-1.7-2.15h-18.3c-0.4 2-1.7 2.15-1.7 2.15-1 0-1.85 0.8-1.85 1.85 0 0.9 0.65 1.65 1.5 1.8v15.8c0 2.15 1.9 3.9 4.3 3.9h13.8c2.35 0 4.3-1.75 4.3-3.9v-15.8c0.8-0.15 1.4-0.9 1.4-1.8zM8.6 10.75c0.4 0.3 0.9 0.7 1.9 0.7 0.95 0 1.5-0.4 1.9-0.7 0.3-0.25 0.45-0.35 0.85-0.35s0.55 0.1 0.85 0.35c0.4 0.3 0.9 0.7 1.9 0.7 0.95 0 1.5-0.4 1.9-0.7 0.3-0.25 0.45-0.35 0.85-0.35s0.55 0.1 0.85 0.35c0.4 0.3 0.9 0.7 1.9 0.7 0.95 0 1.5-0.4 1.9-0.7 0.3-0.25 0.45-0.35 0.85-0.35s0.55 0.1 0.85 0.35c0.1 0.050 0.2 0.15 0.3 0.2v3.7h-17.050v8.050c0 0.35-0.3 0.6-0.6 0.6h-0.3c-0.35 0-0.6-0.3-0.6-0.6v-8.050c0 0-0.050-3.85 0-3.85 0.3-0.25 0.55-0.35 0.95-0.35 0.35-0.050 0.5 0.050 0.8 0.3zM11.35 18.6c-0.050 0-0.1 0-0.15 0l0.2-1.35c0.15-0.95 1.050-1.65 2-1.5s1.65 1.050 1.5 2l-0.050 0.35c-0.050 0-0.050 0-0.1 0-0.25 0-0.45 0.2-0.45 0.45s0.2 0.45 0.45 0.45l-0.5 3.3c-0.15 0.95-1.050 1.65-2 1.5s-1.65-1.050-1.5-2l0.35-2.35c0.050 0.050 0.15 0.1 0.25 0.1 0.25 0 0.45-0.2 0.45-0.45 0-0.3-0.2-0.5-0.45-0.5zM11.45 24.95c1.050 0 1.95 0.85 1.95 1.95 0 1.050-0.85 1.95-1.95 1.95s-1.95-0.9-1.95-1.95c0-1.050 0.9-1.95 1.95-1.95zM19.5 23.55c0.050 0 0.1 0 0.15 0l0.25 2.3c0.1 0.95-0.6 1.85-1.55 1.95s-1.85-0.6-1.95-1.55l-0.15-1.55c0 0 0.050 0 0.050 0 0.25 0 0.45-0.2 0.45-0.45s-0.2-0.45-0.45-0.45c-0.050 0-0.1 0-0.15 0.050l-0.35-3.050c-0.1-0.95 0.6-1.85 1.55-1.95s1.85 0.6 1.95 1.55l0.25 2.25c0 0-0.050 0-0.050 0-0.25 0-0.45 0.2-0.45 0.45-0.050 0.25 0.15 0.45 0.45 0.45zM24.95 16.7l-0.8 2.35c-0.1 0.25-0.35 0.4-0.65 0.3l-2.35-0.8c-0.25-0.1-0.4-0.35-0.3-0.65l0.8-2.35c0.1-0.25 0.35-0.4 0.65-0.3l2.35 0.8c0.25 0.15 0.4 0.4 0.3 0.65zM24.85 24.2c0 1.050-0.85 1.95-1.95 1.95-1.050 0-1.95-0.85-1.95-1.95 0-1.050 0.85-1.95 1.95-1.95 1.1 0.050 1.95 0.9 1.95 1.95zM12.75 22.25c0 0.249-0.201 0.45-0.45 0.45s-0.45-0.201-0.45-0.45c0-0.249 0.201-0.45 0.45-0.45s0.45 0.201 0.45 0.45zM18.5 20.55c0 0.249-0.201 0.45-0.45 0.45s-0.45-0.201-0.45-0.45c0-0.249 0.201-0.45 0.45-0.45s0.45 0.201 0.45 0.45zM19 25.85c0 0.249-0.201 0.45-0.45 0.45s-0.45-0.201-0.45-0.45c0-0.249 0.201-0.45 0.45-0.45s0.45 0.201 0.45 0.45z"></path>
</svg>
