<!-- Generated by IcoMoon.io -->
<svg version="1.1" xmlns="http://www.w3.org/2000/svg" width="32" height="32" viewBox="0 0 32 32">
<title>pie-chart</title>
<path d="M17.5 13.548l11.837-6.138c-2.39-4.171-6.837-7.058-11.837-7.371v13.509zM18.63 17.506l8.674 10.056c2.886-2.683 4.692-6.511 4.692-10.761 0-2.001-0.401-3.906-1.125-5.645l-12.242 6.349zM14.318 17.919c-0.174-0.202-0.318-1.089-0.318-1.117v-14.664c-7 0.475-13.633 6.856-13.633 14.664 0 8.115 6.649 14.694 14.765 14.694 3.204 0 6.13-1.029 8.544-2.768l-9.358-10.809z"></path>
</svg>
