<!-- Generated by IcoMoon.io -->
<svg version="1.1" xmlns="http://www.w3.org/2000/svg" width="32" height="32" viewBox="0 0 32 32">
<title>pie</title>
<path d="M26.6 23.1c-0.5 0-0.7 0.15-1.1 0.4-0.5 0.35-1.2 0.8-2.45 0.8s-1.95-0.45-2.45-0.8c-0.4-0.25-0.6-0.4-1.1-0.4s-0.7 0.15-1.1 0.4c-0.5 0.35-1.2 0.8-2.45 0.8s-1.95-0.45-2.45-0.8c-0.4-0.25-0.6-0.4-1.1-0.4s-0.7 0.15-1.1 0.4c-0.5 0.35-1.2 0.8-2.45 0.8s-1.95-0.45-2.45-0.8c-0.4-0.25-0.6-0.4-1.1-0.4s-0.6 0.1-0.95 0.4c-0.3 0.2-0.65 0.45-1.15 0.6 0.85 1.85 2.15 4.75 4.1 4.75h17.6c1.95 0 3.050-2.9 4-4.75-0.5-0.15-0.85-0.4-1.15-0.6-0.4-0.3-0.6-0.4-1.15-0.4zM30.3 18.25h-0.6c0 0-0.95-0.050-1.85-1.8v0c-2.050-3.85-6.5-6.5-11.65-6.5s-9.6 2.65-11.65 6.5v0c-0.9 1.75-1.85 1.8-1.85 1.8h-0.95c-0.85 0-1.6 0.9-1.6 1.95v0.25c0 1 0.6 1.85 1.4 1.95 0.3-0.050 0.5-0.25 0.8-0.5 0.5-0.45 1.25-1.050 2.55-1.050s2.050 0.6 2.55 1.050c0.4 0.35 0.6 0.55 1.15 0.55s0.75-0.2 1.15-0.55c0.5-0.45 1.25-1.050 2.55-1.050s2.050 0.6 2.55 1.050c0.4 0.35 0.6 0.55 1.15 0.55s0.75-0.2 1.15-0.55c0.5-0.45 1.25-1.050 2.55-1.050s2.050 0.6 2.55 1.050c0.4 0.35 0.6 0.55 1.15 0.55s0.75-0.2 1.15-0.55c0.5-0.45 1.25-1.050 2.55-1.050s2.050 0.6 2.55 1.050c0.3 0.25 0.5 0.4 0.8 0.5 0.8-0.1 1.4-0.95 1.4-1.95v-0.25c0.050-1.050-0.7-1.95-1.55-1.95zM11.15 15.25c-0.5 0.45-1.15 0.6-1.45 0.25s-0.2-1 0.3-1.45c0.65-0.65 2.1-0.9 2.15-0.9-0.050 0.050-0.35 1.5-1 2.1zM16.050 15.85c-0.55 0-1-0.45-1-1-0.050-0.75 1-1.8 1-1.8s1.050 1.050 1 1.8c0 0.55-0.45 1-1 1zM22.45 15.5c-0.3 0.35-0.95 0.25-1.45-0.25-0.7-0.6-1-2.050-1-2.1 0 0 1.5 0.25 2.15 0.9 0.45 0.45 0.6 1.1 0.3 1.45zM13.1 8c0.65 0 1.3 0 1.9 0-2.3-2 2.3-4 0-5.95-0.65 0-1.3 0-1.9 0 2.3 1.95-2.3 3.95 0 5.95zM17.2 8c0.65 0 1.3 0 1.9 0-1.55-1.45 1.55-2.9 0-4.4-0.65 0-1.3 0-1.9 0 1.55 1.5-1.5 2.95 0 4.4z"></path>
</svg>
