<!-- Generated by IcoMoon.io -->
<svg version="1.1" xmlns="http://www.w3.org/2000/svg" width="32" height="32" viewBox="0 0 32 32">
<title>pin-tool</title>
<path d="M22.569 4.918c0 0 4.429-4.327 4.277-4.379-2.934-0.996-6.277-0.645-8.604 1.68-3.065 3.065-3.065 8.034 0 11.098 2.927 2.927 7.591 3.056 10.674 0.391l-6.348-6.346c-0.675-0.675-0.675-1.769 0-2.443zM18.749 9.822c-0.221-0.22-0.179-0.622 0.094-0.896l0.875-0.874c0.274-0.274 0.674-0.316 0.896-0.094s0.179 0.622-0.094 0.895l-0.875 0.875c-0.273 0.273-0.675 0.315-0.896 0.094zM20.298 11.371c-0.221-0.221-0.18-0.622 0.094-0.896l0.875-0.875c0.274-0.274 0.675-0.316 0.896-0.094s0.179 0.621-0.095 0.896l-0.875 0.875c-0.274 0.274-0.674 0.316-0.895 0.094zM23.711 11.055c0.221 0.22 0.179 0.622-0.094 0.896l-0.875 0.875c-0.273 0.274-0.675 0.316-0.896 0.095s-0.178-0.623 0.094-0.896l0.875-0.876c0.273-0.273 0.674-0.315 0.895-0.094zM30.247 4.147l-4.479 4.479 4.010 4.010c0.009-0.009 0.018-0.017 0.027-0.025 2.314-2.316 2.462-5.976 0.442-8.463zM16.992 14.57c-0.865-0.864-1.53-1.854-1.999-2.908l-8.938 8.937c-1.588-0.165-3.232 0.36-4.449 1.576-2.143 2.143-2.143 5.616 0 7.759s5.616 2.142 7.76 0c1.216-1.216 1.741-2.861 1.576-4.448l8.93-8.93c-1.044-0.469-2.023-1.13-2.881-1.987zM6.974 27.757c-0.88 0.881-2.308 0.881-3.189 0s-0.881-2.308 0-3.189c0.881-0.881 2.308-0.881 3.189 0 0.881 0.88 0.881 2.308 0 3.189z"></path>
</svg>
