<!-- Generated by IcoMoon.io -->
<svg version="1.1" xmlns="http://www.w3.org/2000/svg" width="32" height="32" viewBox="0 0 32 32">
<title>pin-drop</title>
<path d="M7.29 11.595c0.295 1.020 6.855 13.972 6.855 13.972s0.38 1.476 1.854 1.476 1.855-1.476 1.855-1.476 6.56-12.951 6.855-13.972l0.074-0.286c0.181-0.716 0.288-1.463 0.288-2.237 0-5.011-4.061-9.072-9.072-9.072s-9.072 4.061-9.072 9.072c0 0.774 0.107 1.521 0.288 2.237l0.074 0.286zM16 3.893c2.861 0 5.18 2.319 5.18 5.179 0 2.862-2.319 5.181-5.18 5.181s-5.18-2.319-5.18-5.181c0-2.861 2.319-5.179 5.18-5.179zM25.5 30h-19.5c-0.552 0-1 0.448-1 1s0.448 1 1 1h19.5c0.552 0 1-0.448 1-1s-0.448-1-1-1z"></path>
</svg>
