<!-- Generated by IcoMoon.io -->
<svg version="1.1" xmlns="http://www.w3.org/2000/svg" width="32" height="32" viewBox="0 0 32 32">
<title>pineapple</title>
<path d="M24.25 13.85c1.3 0.15 2.8 0.4 4.2 0.95 0 0-0.85-2.35-4.15-4.15 1.2-0.6 3.6-1.25 6.050-0.65 0 0-2.35-2-5-2.4 1.85-1 3.3-1 5.3-1.4 0 0-2.3-2.35-5.15-1.4 0.4-3-2.35-4.8-2.35-4.8-0.050 2.050 0.2 3.5-0.4 5.45-0.9-2.5-3.3-4.45-3.3-4.45 1.050 2.35 0.85 4.8 0.5 6.1-2.4-2.9-4.85-3.3-4.85-3.3 0.75 1.35 1.3 2.7 1.65 3.95-3.45-0.65-7.15 0.55-9.5 3.4l-3.65 4.45c-3.5 4.2-2.85 10.55 1.4 14.050v0c4.25 3.5 10.6 2.95 14.050-1.3l3.65-4.45c2.4-2.85 2.85-6.75 1.55-10.050zM18.45 16.35l-0.45 0.050c-0.2 0-0.35-0.050-0.5-0.15s-0.25-0.3-0.25-0.5l-0.1-0.85-0.85 0.1c-0.35 0.050-0.75-0.25-0.75-0.65l-0.050-0.4c0-0.2 0.050-0.35 0.15-0.5s0.3-0.25 0.45-0.25l1.95-0.2c0.35-0.050 0.75 0.25 0.75 0.65l0.2 1.95c0.1 0.4-0.2 0.75-0.55 0.75zM9.55 12.5l1.95-0.2c0.35-0.050 0.75 0.25 0.75 0.65l0.2 1.95c0.050 0.4-0.25 0.75-0.65 0.75l-0.4 0.050c-0.35 0.050-0.75-0.25-0.75-0.65l-0.1-0.85-0.85 0.1c-0.2 0-0.35-0.050-0.5-0.15s-0.25-0.3-0.25-0.5l-0.050-0.4c0-0.2 0.050-0.35 0.15-0.5 0.15-0.15 0.3-0.25 0.5-0.25zM7.55 20.9l-0.4 0.050c-0.35 0.050-0.75-0.25-0.75-0.65l-0.1-0.85-0.85 0.050c-0.2 0-0.35-0.050-0.5-0.15s-0.25-0.3-0.25-0.5l-0.050-0.35c0-0.2 0.050-0.35 0.15-0.5s0.3-0.25 0.45-0.25l1.95-0.2c0.35-0.050 0.75 0.25 0.75 0.65l0.2 1.95c0 0.2-0.050 0.35-0.15 0.5s-0.25 0.2-0.45 0.25zM9.5 27.2l-0.4 0.050c-0.2 0-0.35-0.050-0.5-0.15s-0.25-0.3-0.25-0.5l-0.1-0.85-0.85 0.1c-0.35 0.050-0.75-0.25-0.75-0.65l-0.050-0.4c0-0.2 0.050-0.35 0.15-0.5s0.3-0.25 0.45-0.25l1.95-0.2c0.35-0.050 0.75 0.25 0.75 0.65l0.2 1.95c0.050 0.4-0.25 0.75-0.6 0.75zM13.95 21.8l-0.4 0.050c-0.2 0-0.35-0.050-0.5-0.15s-0.25-0.3-0.25-0.5l-0.1-0.85-0.85 0.1c-0.35 0.050-0.75-0.25-0.75-0.65l-0.050-0.4c0-0.2 0.050-0.35 0.15-0.5s0.3-0.25 0.5-0.25l1.95-0.2c0.35-0.050 0.75 0.25 0.75 0.65l0.2 1.95c0 0.2-0.050 0.35-0.15 0.5-0.15 0.15-0.3 0.25-0.5 0.25zM16.050 27.9l-0.4 0.050c-0.2 0-0.35-0.050-0.5-0.15s-0.25-0.3-0.25-0.5l-0.1-0.85-0.85 0.1c-0.35 0.050-0.75-0.25-0.75-0.65l-0.050-0.4c0-0.2 0.050-0.35 0.15-0.5s0.3-0.25 0.45-0.25l1.95-0.2c0.35-0.050 0.75 0.25 0.75 0.65l0.2 1.95c0 0.2-0.050 0.35-0.15 0.5s-0.25 0.25-0.45 0.25zM20.35 22.7l-0.4 0.050c-0.2 0-0.35-0.050-0.5-0.15s-0.25-0.3-0.25-0.5l-0.1-0.85-0.85 0.1c-0.35 0.050-0.75-0.25-0.75-0.65l-0.050-0.4c-0.050-0.4 0.25-0.75 0.65-0.75l1.95-0.2c0.35-0.050 0.75 0.25 0.75 0.65l0.2 1.95c0 0.2-0.050 0.35-0.15 0.5-0.15 0.15-0.3 0.25-0.5 0.25z"></path>
</svg>
