<!-- Generated by IcoMoon.io -->
<svg version="1.1" xmlns="http://www.w3.org/2000/svg" width="32" height="32" viewBox="0 0 32 32">
<title>pint</title>
<path d="M7.75 12.3c1.4 0 2.55-1.1 2.55-2.45 0-0.1 0-0.2 0-0.3 0.5-0.050 0.95-0.2 1.4-0.35 0.25 0.6 0.85 1 1.5 1h8.95c0 0 2.4-0.6 2.4-2.9 0-1.6-1.35-2.9-3-2.9-0.55 0-1.1 0.15-1.5 0.4 0-0.1 0-0.2 0-0.3 0-1.85-1.55-3.35-3.45-3.35-1.050 0-2 0.45-2.65 1.2-0.85-1.35-2.4-2.3-4.2-2.3-2.7 0-4.9 2.1-4.95 4.7-1.35 0.2-2.4 1.35-2.4 2.7 0 1.5 1.25 2.75 2.8 2.75 0.25 1.2 1.3 2.1 2.55 2.1zM24.75 12.6h-0.45v-1.65c-0.8 0.55-1.75 0.95-2.8 0.95h-8.6c-0.5 0-1-0.15-1.45-0.4-0.5 1.65-2.050 2.85-3.85 2.85-0.7 0-1.4-0.2-2-0.55v13.4h3.1v-10.3c0-0.5 0.45-0.95 0.95-0.95s0.95 0.4 0.95 0.95v10.3h3.4v-10.3c0-0.5 0.45-0.95 0.95-0.95s0.95 0.4 0.95 0.95v10.3h3.35v-10.3c0-0.5 0.45-0.95 0.95-0.95s0.95 0.4 0.95 0.95v10.3h3.1v-0.7h0.45c2.6 0 4.8-2.2 4.8-4.8v-4.45c0.050-2.65-2.1-4.65-4.75-4.65zM27.15 21.65c0 1.25-1.15 2.4-2.4 2.4h-0.45v-9.050h0.45c1.25 0 2.4 0.95 2.4 2.2v4.45zM8.95 32h12c1.75 0 3.2-1.4 3.35-3.1h-18.7c0.15 1.7 1.6 3.1 3.35 3.1z"></path>
</svg>
