<!-- Generated by IcoMoon.io -->
<svg version="1.1" xmlns="http://www.w3.org/2000/svg" width="32" height="32" viewBox="0 0 32 32">
<title>pipeline-analysis</title>
<path d="M2.75 1.5c0.414 0 0.75-0.336 0.75-0.75s-0.336-0.75-0.75-0.75h-1.5c-0.022 0-0.042 0.004-0.063 0.006-0.021-0.002-0.041-0.006-0.063-0.006h-0.25c-0.483 0-0.875 0.392-0.875 0.875v30.25c0 0.483 0.392 0.875 0.875 0.875h0.25c0.022 0 0.042-0.005 0.063-0.006 0.021 0.002 0.041 0.006 0.063 0.006h1.5c0.414 0 0.75-0.336 0.75-0.75s-0.336-0.75-0.75-0.75h-0.75v-4.5h0.75c0.414 0 0.75-0.336 0.75-0.75s-0.336-0.75-0.75-0.75h-0.75v-4.5h0.75c0.414 0 0.75-0.336 0.75-0.75s-0.336-0.75-0.75-0.75h-0.75v-5h0.75c0.414 0 0.75-0.336 0.75-0.75s-0.336-0.75-0.75-0.75h-0.75v-4.5h0.75c0.414 0 0.75-0.336 0.75-0.75s-0.336-0.75-0.75-0.75h-0.75v-4.5h0.75zM11.084 12h15.833l1.759-4.5h-19.352zM15.97 24.5h6.060l1.759-4.5h-9.578zM13.624 18.5h10.751l1.954-5h-14.66zM6.979 1.5l1.759 4.5h20.524l1.759-4.5zM18.316 30.5h1.368l1.759-4.5h-4.887z"></path>
</svg>
