<!-- Generated by IcoMoon.io -->
<svg version="1.1" xmlns="http://www.w3.org/2000/svg" width="32" height="32" viewBox="0 0 32 32">
<title>pipe</title>
<path d="M18.5 0v3.5h2v7.975c0 1.317-0.326 2.525-1.046 2.525h-6.954v-10.5h1.5v-3.5h-10v3.5h1.5v25h-1.5v3.5h10v-3.5h-1.5v-7h6.538c0.093 0 0.204-0.048 0.331-0.048 1.052-0 2.968-0.271 4.848-1.959 1.97-1.77 2.784-4.486 2.784-8.018v-7.975h1.5v-3.5h-10zM11 16.233c0 0.291-0.21 0.526-0.5 0.526s-0.5-0.235-0.5-0.526v-1.366c0-0.29 0.21-0.525 0.5-0.525s0.5 0.236 0.5 0.525v1.366zM11 11.925c0 0.29-0.21 0.525-0.5 0.525s-0.5-0.235-0.5-0.525v-6.096c0-0.29 0.21-0.526 0.5-0.526s0.5 0.236 0.5 0.526v6.096zM25.5 11.925c0 0.29-0.209 0.525-0.5 0.525-0.29 0-0.5-0.235-0.5-0.525v-6.096c0-0.29 0.21-0.526 0.5-0.526 0.291 0 0.5 0.236 0.5 0.526v6.096z"></path>
</svg>
