<!-- Generated by IcoMoon.io -->
<svg version="1.1" xmlns="http://www.w3.org/2000/svg" width="32" height="32" viewBox="0 0 32 32">
<title>piston</title>
<path d="M8.5 14h2.527l0.995-2h1.18l-0.486 10.049c-1.514 0.951-2.524 2.646-2.524 4.566 0 2.968 2.405 5.381 5.373 5.381s5.373-2.402 5.373-5.369c0-1.919-1.010-3.63-2.523-4.579l-0.487-10.047h1.18l0.994 2h2.398v-7.5h-14v7.5zM15.565 7.851c0.714 0 1.293 0.579 1.293 1.293s-0.579 1.293-1.293 1.293c-0.715 0-1.294-0.579-1.294-1.293s0.579-1.293 1.294-1.293zM15.565 24.043c1.429 0 2.588 1.159 2.588 2.587s-1.158 2.587-2.588 2.587-2.588-1.158-2.588-2.587c0-1.429 1.159-2.587 2.588-2.587zM8.5 3h14v2h-14v-2zM8.5 0h14v2h-14v-2z"></path>
</svg>
