<!-- Generated by IcoMoon.io -->
<svg version="1.1" xmlns="http://www.w3.org/2000/svg" width="32" height="32" viewBox="0 0 32 32">
<title>pizza</title>
<path d="M21.95 5.6c-2.050-0.85-3-0.85-3-0.85v0c-0.15 0-0.35-0.050-0.5-0.050-1.7 0-3.050 1-3.050 2.25 0 0.15 0 0.3 0.050 0.45l-13.6 9.7c-1.45 1.1-1.6 2.4-1.6 3v1.4c0 1.7 1.25 3.1 2.85 3.1h6.35v1.15c0 0.85 0.65 1.55 1.45 1.55s1.45-0.7 1.45-1.55v-1.15h16.55c1.55 0 2.85-1.4 2.85-3.1v-2.65c0-0.050 0-0.1 0-0.15 0.1-2.3-0.25-9.75-9.8-13.1zM9.45 22.7h-6.35c-0.6 0-1.1-0.55-1.1-1.25v-2.1h7.45v3.35zM22.35 13.65c1 0 1.85 0.7 1.85 1.5 0 0.85-0.8 1.5-1.85 1.5-1 0-1.85-0.7-1.85-1.5 0-0.85 0.85-1.5 1.85-1.5zM18.3 9.45c0.8 0 1.45 0.55 1.45 1.2s-0.65 1.2-1.45 1.2c-0.8 0-1.45-0.55-1.45-1.2s0.65-1.2 1.45-1.2zM10.45 14.2c0-1.15 1.15-2.050 2.55-2.050s2.55 0.95 2.55 2.050c0 1.15-1.15 2.050-2.55 2.050s-2.55-0.9-2.55-2.050zM30 21.45c0 0.7-0.5 1.25-1.1 1.25h-16.55v-3.35h3.3v1.050c0 0.85 0.65 1.55 1.45 1.55s1.45-0.7 1.45-1.55v-1.050h11.45v2.1z"></path>
</svg>
