<!-- Generated by IcoMoon.io -->
<svg version="1.1" xmlns="http://www.w3.org/2000/svg" width="32" height="32" viewBox="0 0 32 32">
<title>plier</title>
<path d="M19.142 9.97c-0.253-1.7-1.8-2.888-3.493-2.713-2.251-2.574-0.725-3.873-0.725-3.873l-0.459-3.083c-2.148 1.597-3.412 3.973-2.64 7.436 0.229 1.029 0.601 1.787 0.971 2.33-0.032 0.275-0.030 0.559 0.013 0.846 0.261 1.749 1.889 2.956 3.638 2.695s2.956-1.89 2.695-3.639zM16.149 11.608c-0.645 0.096-1.245-0.348-1.341-0.992s0.348-1.245 0.992-1.341c0.644-0.095 1.245 0.348 1.341 0.993s-0.349 1.244-0.993 1.341zM16.992 6.511c1.427 0.354 2.541 1.479 2.889 2.898 0.262-0.565 0.491-1.305 0.579-2.247 0.329-3.533-1.224-5.731-3.555-7.045l-0.068 3.116c0 0.001 1.433 0.727 0.155 3.278zM23.844 17.93c-1.805-4.545-4.334-5.511-4.334-5.511-0.483 1.006-1.395 1.793-2.558 2.079 0 0 2.527 1.663 4.108 5.953 1.893 5.134-0.128 9.645-0.128 9.645s-0.439 1.027 0.428 1.502c0.866 0.474 1.405-0.009 2.093-1.154 1.521-2.539 2.454-7.318 0.39-12.513zM12.367 12.43c0 0-2.534 0.955-4.36 5.492-2.085 5.186-1.174 9.969 0.337 12.514 0.682 1.149 1.219 1.634 2.088 1.163 0.869-0.47 0.435-1.5 0.435-1.5s-2.002-4.519-0.086-9.645c1.6-4.283 4.135-5.934 4.135-5.934-1.162-0.29-2.071-1.082-2.549-2.090z"></path>
</svg>
