<!-- Generated by IcoMoon.io -->
<svg version="1.1" xmlns="http://www.w3.org/2000/svg" width="32" height="32" viewBox="0 0 32 32">
<title>plug</title>
<path d="M21.5 9v-7.854c0-0.621-0.379-1.125-1-1.125s-1 0.503-1 1.125v7.854h-7v-7.854c0-0.621-0.379-1.125-1-1.125s-1 0.503-1 1.125v7.854h-3v2.5h0.5v5.417c0.5 2.743 1.703 3.475 3.285 4.287s2.023 2.796 2.312 3.296h4.821c0.289-0.5 0.721-2.485 2.303-3.297s2.779-1.544 3.279-4.287v-5.417h0.5v-2.5h-3zM16.008 17.204c-0.997 0-1.805-0.808-1.805-1.805s0.808-1.805 1.805-1.805c0.997 0 1.805 0.808 1.805 1.805s-0.808 1.805-1.805 1.805zM19 26.082c0-0.322-0.261-0.582-0.582-0.582h-4.336c-0.322 0-0.582 0.261-0.582 0.582v1.835c0 0.322 0.261 0.582 0.582 0.582h4.336c0.322 0 0.582-0.261 0.582-0.582v-1.835zM19 29.582c0-0.322-0.261-0.582-0.582-0.582h-4.336c-0.322 0-0.582 0.261-0.582 0.582v1.837c0 0.321 0.261 0.581 0.582 0.581h4.336c0.322 0 0.582-0.261 0.582-0.582v-1.836z"></path>
</svg>
