<!-- Generated by IcoMoon.io -->
<svg version="1.1" xmlns="http://www.w3.org/2000/svg" width="32" height="32" viewBox="0 0 32 32">
<title>plug2</title>
<path d="M27.5 5v-4c0-0.552-0.448-1-1-1s-1 0.448-1 1v4h-3.5v-4c0-0.552-0.448-1-1-1s-1 0.448-1 1v4c-1 0-2 0.896-2 2v7c0 1.104 1 4 5 4v5.5c0 3.5-3 6.5-6.5 6.5s-6-3-6-6.5v-3h4c0.483 0 1-0.392 1-0.875v-11.126c0-0.483-0.517-1-1-1h-10.5c-0.483 0-1 0.517-1 1v11.126c0 0.483 0.517 0.875 1 0.875h4.5v3c0 4.5 3.444 8.5 8 8.5s8.5-4 8.5-8.5v-5.5c3.5 0 4.5-2.896 4.5-4v-7c0-1.104-1-2-2-2zM8 18.5c-1.933 0-3.5-2.014-3.5-4.5s1.567-4.5 3.5-4.5h2.5c1.933 0 3.5 2.014 3.5 4.5s-1.567 4.5-3.5 4.5h-2.5zM6.5 11.5h1.5v2.5h-1.5v-2.5zM10.5 11.5h1.5v2.5h-1.5v-2.5zM9.25 15c-0.415 0-0.75 0.336-0.75 0.75v1.25h1.5v-1.25c0-0.414-0.335-0.75-0.75-0.75z"></path>
</svg>
