<!-- Generated by IcoMoon.io -->
<svg version="1.1" xmlns="http://www.w3.org/2000/svg" width="32" height="32" viewBox="0 0 32 32">
<title>plus-square</title>
<path d="M27.5 1h-23.5c-1.657 0-3 1.343-3 3v24c0 1.657 1.343 3 3 3h24c1.657 0 3-1.343 3-3v-24c0-1.657-1.843-3-3.5-3zM28 18.634c0 0.479-0.387 0.866-0.866 0.866h-8.134v8.134c0 0.479-0.388 0.866-0.866 0.866h-4.767c-0.479 0-0.867-0.387-0.867-0.866v-8.134h-7.634c-0.479 0-0.866-0.388-0.866-0.866v-4.767c0-0.479 0.387-0.867 0.866-0.867h7.634v-7.634c0-0.479 0.388-0.866 0.867-0.866h4.766c0.479 0 0.867 0.388 0.867 0.866v7.634h8.134c0.479 0 0.866 0.388 0.866 0.867v4.767z"></path>
</svg>
