<!-- Generated by IcoMoon.io -->
<svg version="1.1" xmlns="http://www.w3.org/2000/svg" width="32" height="32" viewBox="0 0 32 32">
<title>podcast</title>
<path d="M20.707 14.5c0 2.6-2.108 4.707-4.707 4.707s-4.707-2.108-4.707-4.707c0-2.6 2.108-4.707 4.707-4.707s4.707 2.108 4.707 4.707zM17.8 20.5h-3.6c-1.492 0-2.7 1.5-2.2 3l1.5 7c0 0 0.509 1.5 2 1.5h1.084c1.491 0 1.916-1.5 1.916-1.5l1.5-7c0.5-1.5-0.709-3-2.2-3zM16 0.5c-7.732 0-14 6.268-14 14 0 6.084 3.881 11.258 9.302 13.19l-0.651-3.014c-3.654-1.928-6.151-5.765-6.151-10.176 0-6.341 5.159-11.5 11.5-11.5s11.5 5.159 11.5 11.5c0 4.411-2.497 8.247-6.151 10.175l-0.651 3.014c5.421-1.931 9.302-7.106 9.302-13.19 0-7.732-6.268-14-14-14zM21.653 21.842c2.199-1.696 3.622-4.35 3.622-7.342 0-5.122-4.153-9.275-9.275-9.275s-9.274 4.152-9.274 9.275c0 2.992 1.423 5.646 3.622 7.342 0.2-0.88 0.678-1.627 1.325-2.134-1.494-1.244-2.448-3.116-2.448-5.208 0-3.736 3.039-6.775 6.774-6.775s6.775 3.040 6.775 6.775c0 2.091-0.953 3.964-2.448 5.208 0.648 0.507 1.125 1.253 1.326 2.134z"></path>
</svg>
