<!-- Generated by IcoMoon.io -->
<svg version="1.1" xmlns="http://www.w3.org/2000/svg" width="32" height="32" viewBox="0 0 32 32">
<title>Poison-bottle</title>
<path d="M23.144 10.701c0 0-1.372 0.062-1.559-1.186v-0.791c0.707-0.088 1.259-0.685 1.259-1.417 0-0.792-0.642-1.435-1.435-1.435h-10.816c-0.793 0-1.435 0.643-1.435 1.435 0 0.754 0.584 1.365 1.323 1.423v0.661c0 0-0.187 1.371-1.871 1.621 0 0-1.747 0.374-1.747 2.37v16.307c0 0-0.125 1.872 1.809 2.309h14.349c0 0 2.121-0.312 2.121-2.371v-16.743c-0 0 0.061-1.81-1.997-2.184zM22.843 29.345h-13.687v-13.685h13.686v13.685zM20.674 0.738c0-0.407-0.33-0.738-0.736-0.738h-7.874c-0.406 0-0.736 0.33-0.736 0.737v4.37h9.346v-4.369zM13.482 24.944c-0.043 1.535 0.564 2.177 1.177 2.433 0-0.012-0.002-0.024-0.002-0.037v-0.902c0-0.2 0.117-0.361 0.261-0.361s0.261 0.161 0.261 0.361v0.902c0 0.063-0.012 0.12-0.033 0.171 0.239 0.038 0.448 0.032 0.581 0.020-0.015-0.045-0.027-0.094-0.027-0.149v-0.87c0-0.192 0.117-0.348 0.261-0.348s0.261 0.157 0.261 0.348v0.87c0 0.047-0.008 0.088-0.017 0.128 0.172-0.009 0.332-0.026 0.48-0.053-0.017-0.042-0.027-0.091-0.027-0.142v-0.823c0-0.183 0.117-0.329 0.261-0.329s0.261 0.146 0.261 0.329v0.823c0 0.002 0 0.005 0 0.008 1.493-0.584 1.262-2.29 1.262-2.29 2.088-0.782 1-2.090 1-2.090 1.87-3.046-0.87-4.569-0.87-4.569-2.045-1.783-4.874-0.391-4.874-0.391-3.133 1.872-1.219 5.003-1.219 5.003-1.086 1.48 1.003 1.957 1.003 1.957zM17.53 21.551c0.552 0 1 0.448 1 1.002 0 0.551-0.448 1-1 1s-1.001-0.448-1.001-1c0-0.555 0.448-1.002 1.001-1.002zM15.919 23.944c0 0 0.348-0.174 0.826 1.132 0 0-0.783 0.262-0.783-0.392 0 0-0.392 0.913-0.826 0.305-0.001 0 0.043-1.132 0.784-1.045zM14.396 21.551c0.553 0 1 0.448 1 1.002 0 0.551-0.447 1-1 1s-1.001-0.448-1.001-1c0-0.555 0.448-1.002 1.001-1.002z"></path>
</svg>
