<!-- Generated by IcoMoon.io -->
<svg version="1.1" xmlns="http://www.w3.org/2000/svg" width="32" height="32" viewBox="0 0 32 32">
<title>polisher</title>
<path d="M31.774 10.698c-0.445-0.445-1.166-0.445-1.611 0l-0.686 0.686-2.957-0.66c-0.16-0.159-0.419-0.159-0.579 0l-1.702 1.703-1.55-1.55 2.013-2.013c0.163-0.162 0.163-0.427 0-0.589l-4.447-2.259c-0.163-0.163-0.427-0.162-0.59 0l-2.841 2.841-0.784-0.492c-0.195-0.195-0.511-0.195-0.707 0.001l-4.436 4.435c-0.195 0.194-0.195 0.511 0 0.706l0.844 0.844-1.22 1.22-0.531-0.531c-0.286-0.286-0.75-0.286-1.036 0l-0.593 0.593-0.809-0.507c-0.072-0.072-0.189-0.072-0.26 0l-1.631 1.631c-0.072 0.072-0.072 0.188 0 0.26l0.657 0.658-6.255 6.256c-0.286 0.286-0.286 0.75 0 1.036l3.433 3.433c0.285 0.285 0.75 0.286 1.035 0l8.89-8.891c0.286-0.285 0.286-0.75 0-1.035l-0.531-0.53 1.22-1.22 1.012 1.012c0.195 0.195 0.511 0.195 0.707 0l3.995-3.995 1.55 1.55-1.702 1.702c-0.16 0.16-0.16 0.419 0 0.578l0.66 2.957-0.686 0.686c-0.445 0.445-0.445 1.166 0 1.611s1.166 0.445 1.611-0l10.515-10.516c0.445-0.444 0.445-1.165 0.001-1.611zM4.692 26.004l-0.407 0.406c-0.074 0.075-0.196 0.075-0.271 0l-2.047-2.047c-0.075-0.075-0.075-0.196 0-0.27l0.406-0.407c0.075-0.075 0.196-0.075 0.271 0l2.048 2.047c0.074 0.075 0.074 0.196 0 0.271zM6.191 24.505l-0.407 0.407c-0.074 0.075-0.196 0.075-0.271 0l-2.048-2.048c-0.074-0.074-0.074-0.196 0-0.271l0.406-0.406c0.075-0.075 0.196-0.075 0.271 0l2.048 2.048c0.075 0.074 0.074 0.195 0 0.27z"></path>
</svg>
