<!-- Generated by IcoMoon.io -->
<svg version="1.1" xmlns="http://www.w3.org/2000/svg" width="32" height="32" viewBox="0 0 32 32">
<title>polo-shirt</title>
<path d="M31.778 9.617l-6.491-6.503c-0.108-0.087-0.242-0.135-0.381-0.135l-2.9-0.001-2.55 5.47c-0.072 0.153-0.253 0.219-0.406 0.148l-2.465-1.149v5.118c0 0.323-0.262 0.585-0.585 0.585s-0.585-0.262-0.585-0.585v-5.118l-2.466 1.15c-0.152 0.071-0.334 0.005-0.405-0.148l-2.551-5.47-2.9 0.001c-0.138 0-0.272 0.047-0.38 0.135l-6.49 6.503c-0.249 0.204-0.295 0.568-0.104 0.826l4.801 4.632c0.098 0.132 0.246 0.219 0.409 0.239s0.328-0.027 0.456-0.131l1.62-1.637 0.001 16.323c0 0.16 0.064 0.313 0.176 0.426s0.266 0.177 0.426 0.177h15.985c0.16 0 0.313-0.064 0.426-0.177s0.177-0.266 0.177-0.426l0.001-16.323 1.62 1.637c0.128 0.104 0.291 0.152 0.456 0.131 0.163-0.021 0.311-0.107 0.41-0.239l4.8-4.631c0.191-0.258 0.146-0.623-0.104-0.826zM12.934 7.377c0.072 0.152 0.253 0.219 0.405 0.147l2.533-1.181c0.057-0.027 0.098-0.072 0.128-0.122 0.030 0.051 0.070 0.096 0.128 0.122l2.532 1.181c0.153 0.072 0.334 0.005 0.406-0.147l1.974-4.233c0.071-0.152 0.005-0.334-0.148-0.406l-2.532-1.181c-0.152-0.071-0.334-0.005-0.405 0.147l-1.954 4.191-1.954-4.191c-0.072-0.153-0.253-0.219-0.406-0.147l-2.533 1.181c-0.152 0.071-0.219 0.253-0.148 0.405l1.974 4.233z"></path>
</svg>
