<!-- Generated by IcoMoon.io -->
<svg version="1.1" xmlns="http://www.w3.org/2000/svg" width="32" height="32" viewBox="0 0 32 32">
<title>port</title>
<path d="M30.508 21h-0.508v-18.49c0-0.244-0.055-0.51-0.299-0.51h-22.869c-0.244 0-0.333 0.265-0.333 0.51v2.405c0 0.244 0.089 0.585 0.333 0.585h0.776l0.512 1.399c0 0.112 0.091 0.101 0.204 0.101h0.675v2.5h-1.478c-0.482 0-1.022 0.658-1.022 1.14v3.64c0 0.482 0.54 0.72 1.022 0.72h3.641c0.483 0 0.837-0.237 0.837-0.719v-3.641c0-0.482-0.354-1.14-0.836-1.14h-1.663v-2.5h0.861c0.113 0 0.204 0.011 0.204-0.101l0.511-1.399h13.697l2.226 2.145v13.355h-0.262c-0.815 0-1.238 0.846-1.238 1.662v7.338h6.5v-7.338c0-0.815-0.677-1.662-1.492-1.662zM5.774 27.032c0 0.395-0.32 0.715-0.715 0.715s-0.716-0.32-0.716-0.715c0-0.395 0.32-0.715 0.716-0.715s0.716 0.32 0.716 0.715zM13.142 27.032c0 0.395-0.32 0.715-0.716 0.715s-0.716-0.32-0.716-0.715c0-0.395 0.32-0.715 0.716-0.715s0.716 0.32 0.716 0.715zM20.502 23.729l-1.535-3.692-0.018 0.127c-0.421-0.843-1.203-1.163-2.142-1.163h-3.399c-0.884 0-1.908 0.372-1.908 1.256v3.744h-1.5v-2.693c0-0.483 0.166-0.807-0.317-0.807h-3.64c-0.341 0-0.633 0.164-0.777 0.448-0.102-0.2-0.208-0.372-0.421-0.448 0.341-0.119 0.655-0.457 0.655-0.838v-3.64c0-0.483-0.529-1.022-1.011-1.022h-3.64c-0.483 0-0.849 0.539-0.849 1.022v3.64c0 0.383 0.247 0.704 0.589 0.822-0.342 0.119-0.589 0.441-0.589 0.823v8.693h17.375c4.838 0 6.488-6 6.488-6h-3.284c-0.021 0-0.046-0.194-0.078-0.271zM5.059 28.736c-0.941 0-1.704-0.764-1.704-1.704s0.762-1.704 1.704-1.704c0.941 0 1.704 0.763 1.704 1.704s-0.763 1.704-1.704 1.704zM12.426 28.736c-0.941 0-1.705-0.764-1.705-1.704s0.764-1.704 1.705-1.704c0.941 0 1.704 0.763 1.704 1.704s-0.764 1.704-1.704 1.704zM13 24v-3.744c0-0.203 0.205 0.244 0.408 0.244h3.4c0.468 0 0.814-0.058 1.028 0.36l1.425 3.14h-6.261z"></path>
</svg>
