<!-- Generated by IcoMoon.io -->
<svg version="1.1" xmlns="http://www.w3.org/2000/svg" width="32" height="32" viewBox="0 0 32 32">
<title>post-office</title>
<path d="M30.043 15h-4.543v-5c-0.046-5.5-4.105-9.823-9.549-9.823s-9.862 4.323-9.908 9.823h-0.043v5h-4.043c-0.942 0-1.957 0.764-1.957 1.708v15.292h11.5v-4.12c0-0.567 0.299-0.88 0.866-0.88h7.172c0.567 0 0.962 0.312 0.962 0.88v4.12h11.5v-15.292c0-0.944-1.014-1.708-1.957-1.708zM8.5 22.81c0 0.381-0.309 0.69-0.689 0.69h-2.621c-0.381 0-0.689-0.309-0.689-0.69v-2.62c0-0.381 0.308-0.69 0.689-0.69h2.621c0.381 0 0.69 0.309 0.69 0.69v2.62zM20.75 6l-4.799 4.645-4.797-4.645h9.597zM17.163 11.325l3.059 2.675h-8.54l3.060-2.675 0.431 0.396c0.211 0.195 0.488 0.302 0.779 0.302 0.292 0 0.568-0.107 0.78-0.302l0.431-0.396zM10 7.19l3.761 3.235-3.761 2.972v-6.207zM15 22.81c0 0.381-0.309 0.69-0.69 0.69h-2.62c-0.381 0-0.69-0.309-0.69-0.69v-2.62c0-0.381 0.309-0.69 0.69-0.69h2.62c0.381 0 0.69 0.309 0.69 0.69v2.62zM21 22.81c0 0.381-0.309 0.69-0.69 0.69h-2.62c-0.381 0-0.69-0.309-0.69-0.69v-2.62c0-0.381 0.309-0.69 0.69-0.69h2.62c0.381 0 0.69 0.309 0.69 0.69v2.62zM22 13.397l-3.858-2.972 3.858-3.236v6.207zM27.5 22.81c0 0.381-0.309 0.69-0.69 0.69h-2.62c-0.381 0-0.69-0.309-0.69-0.69v-2.62c0-0.381 0.309-0.69 0.69-0.69h2.62c0.381 0 0.69 0.309 0.69 0.69v2.62z"></path>
</svg>
