<!-- Generated by IcoMoon.io -->
<svg version="1.1" xmlns="http://www.w3.org/2000/svg" width="32" height="32" viewBox="0 0 32 32">
<title>pot</title>
<path d="M25.8 7.75h-4.6c-0.1-2.2-1.95-4-4.2-4h-2.3c-2.25 0-4.1 1.75-4.2 4h-4.6c-1.25 0-3.75 3.4-3.7 3.65h27.3c0.050-0.25-2.5-3.65-3.7-3.65zM14.7 5.75h2.3c1.15 0 1.9 0.9 2 2h-6.35c0.15-1.15 0.85-2 2.050-2zM30.65 16.2h-2.35v-0.4l1.050-3.1h-27l1.050 3.1c0 0.050 0 0.4 0 0.4h-2.050c-0.75 0-1.4 0.65-1.4 1.4s0.65 1.4 1.4 1.4h2.050v7c0 1.2 1 2.2 2.2 2.2h20.45c1.2 0 2.2-1 2.2-2.2v-7h2.35c0.75 0 1.4-0.65 1.4-1.4 0.050-0.75-0.6-1.4-1.35-1.4zM8.15 25c0 0.45-0.35 0.8-0.8 0.8s-0.8-0.35-0.8-0.8v-8c0 0 0-0.050 0-0.050l-0.5-1.5c-0.15-0.4 0.1-0.85 0.5-1s0.85 0.1 1 0.5l0.55 1.65c0.050 0.1 0.050 0.25 0.050 0.35 0 0.050 0 0.050 0 0.1v7.95z"></path>
</svg>
