<!-- Generated by IcoMoon.io -->
<svg version="1.1" xmlns="http://www.w3.org/2000/svg" width="32" height="32" viewBox="0 0 32 32">
<title>potato</title>
<path d="M27.050 13c-1.15 0.3-2.35 0.3-3.5 0-0.45-0.1-0.75-0.6-0.6-1s0.5-0.6 0.9-0.5c0.9 0.25 1.85 0.25 2.75 0.050-0.65-1.6-1.65-3.3-3.1-5.050 0 0-1.9-3.1-6.55-4.2-4.45-1-8.65 1.95-9.2 5.7 0 0.1-0.050 0.35-0.050 0.35-0.2 2.55-2.5 7.2-2.75 7.7 0 0-0.55 1.45-0.65 2.25-0.8 5.35 3.7 10.45 10 11.4 6.35 0.95 12-2.65 12.9-7.95 0.2-1.15 1.1-4.55-0.15-8.75zM14.4 19.1c-0.7 0.2-1.4 0.2-2.1 0-1.1-0.3-0.8-1.15-0.8-1.15 0.2-0.45 0.75-0.35 1.15-0.3 0.45 0.1 1 0.1 1.45-0.050 0.75-0.3 1.050 0.35 1.050 0.35 0.25 0.45-0.050 1-0.75 1.15zM20.45 14.9c0.75-0.3 1.050 0.35 1.050 0.35 0.2 0.4-0.1 0.95-0.75 1.1-0.7 0.2-1.4 0.2-2.1 0-1.1-0.3-0.8-1.15-0.8-1.15 0.2-0.45 0.75-0.35 1.15-0.3 0.45 0.15 1.050 0.15 1.45 0zM16 10c0.2-0.45 0.75-0.35 1.15-0.3 0.45 0.1 1 0.1 1.45-0.050 0.75-0.3 1.050 0.35 1.050 0.35 0.2 0.4-0.1 0.95-0.75 1.1-0.7 0.2-1.4 0.2-2.1 0-1.1-0.3-0.8-1.1-0.8-1.1zM20.9 25.65c-1.45 0.45-2.95 0.45-4.4-0.050-0.45-0.15-0.7-0.65-0.5-1 0.15-0.4 0.55-0.55 0.95-0.4 1.15 0.4 2.45 0.45 3.6 0.050 0.35-0.1 0.75 0.050 0.9 0.45 0.15 0.3-0.050 0.8-0.55 0.95zM23.95 20.8c-0.7 0.2-1.4 0.2-2.1 0-1.1-0.3-0.8-1.15-0.8-1.15 0.2-0.45 0.75-0.35 1.15-0.3 0.45 0.1 1 0.1 1.45-0.050 0.75-0.3 1.050 0.35 1.050 0.35 0.25 0.45-0.050 1-0.75 1.15z"></path>
</svg>
