<!-- Generated by IcoMoon.io -->
<svg version="1.1" xmlns="http://www.w3.org/2000/svg" width="32" height="32" viewBox="0 0 32 32">
<title>Pound</title>
<path d="M12.755 26.189c1.261-1.483 1.852-2.683 2.261-3.597 0.411-0.918 0.617-1.919 0.617-3.003 0-0.192-0.012-0.384-0.028-0.576h6.107l-1.029-5.016h-6.107c-0.265-0.744-0.494-1.558-0.68-2.448-0.199-0.946-0.299-1.706-0.299-2.282 0-1.111 0.364-2.032 1.090-2.765 0.727-0.733 1.638-1.1 2.735-1.1 1.029 0 1.884 0.322 2.57 0.966s1.158 1.7 1.419 3.166l5.572-0.823c-0.357-2.55-1.336-4.506-2.94-5.87s-3.756-2.046-6.457-2.046c-1.768 0-3.4 0.353-4.894 1.059s-2.649 1.738-3.464 3.095c-0.816 1.357-1.224 2.782-1.224 4.277 0 1.61 0.271 3.2 0.8 4.771h-3.787v5.016h4.912c0.030 0.291 0.049 0.574 0.049 0.843 0 1.139-0.34 2.334-1.018 3.588-0.674 1.244-2.479 2.52-3.909 2.744h-0.035v5.016h21.439l-1.029-5.016h-12.671z"></path>
</svg>
