<!-- Generated by IcoMoon.io -->
<svg version="1.1" xmlns="http://www.w3.org/2000/svg" width="32" height="32" viewBox="0 0 32 32">
<title>power-off</title>
<path d="M18.5 2.396c0-1.323-1.073-2.396-2.395-2.396h-0.209c-1.323 0-2.396 1.073-2.396 2.396v10.709c0 1.323 1.072 2.396 2.396 2.396h0.209c1.323 0 2.395-1.072 2.395-2.396v-10.708zM24.029 6.035c-0.424-0.33-0.951-0.535-1.529-0.535-1.381 0-2.5 1.12-2.5 2.5 0 0.886 0.464 1.66 1.159 2.104l-0.015 0.021c2.327 1.629 3.856 4.325 3.856 7.375 0 4.962-4.038 9-9 9s-9-4.038-9-9c0-2.881 1.366-5.444 3.479-7.093l-0.051-0.090c0.92-0.37 1.572-1.265 1.572-2.317 0-1.381-1.119-2.5-2.5-2.5-0.579 0-1.107 0.205-1.53 0.535-3.607 2.533-5.97 6.721-5.97 11.465 0 7.732 6.268 14 14 14s14-6.268 14-14c0-4.743-2.362-8.932-5.971-11.464z"></path>
</svg>
