<!-- Generated by IcoMoon.io -->
<svg version="1.1" xmlns="http://www.w3.org/2000/svg" width="32" height="32" viewBox="0 0 32 32">
<title>Pregnancy</title>
<path d="M16 0c-2.933 0-5.681 0.796-8.046 2.179 1.16 0.64 2.652 1.722 3.369 3.322 0.585 1.303 0.563 2.71-0.062 4.183-1.524 3.588-1.002 5.418 4.981 8.18 1.401-0.875 3.136-1.090 4.652-1.037-1.085-0.291-2.145-0.979-2.808-2.038-1.338-2.114-0.693-4.974 1.428-6.309 2.125-1.343 4.978-0.7 6.317 1.414 1.335 2.122 0.871 4.966-1.245 6.356 1.7 2.735 0.375 7.276-3.433 9.678-3.704 2.179-8.866 1.835-10.883 0.334-1.704-1.438-2.086-3.055-1.719-4.358l0.62-1.212c1.107-1.398 3.236-1.902 4.958-0.274 0.225-0.561 0.512-1.037 0.845-1.444-5.83-2.823-7.069-5.341-5.135-9.893 0.456-1.073 0.481-2.035 0.076-2.941-0.701-1.569-2.514-2.555-3.453-2.978-3.919 2.92-6.463 7.588-6.463 12.84 0 8.823 7.178 16 16 16s15.999-7.177 15.999-16c0-8.823-7.177-16-15.999-16z"></path>
</svg>
