<!-- Generated by IcoMoon.io -->
<svg version="1.1" xmlns="http://www.w3.org/2000/svg" width="32" height="32" viewBox="0 0 32 32">
<title>press-brake-pedal</title>
<path d="M4.2 16.050c0-3.3 1.45-6.45 4-8.6l0.25-0.2-2.050-2.050-0.2 0.2c-0.2 0.2-0.45 0.4-0.6 0.6-1.35 1.3-2.35 2.85-3.1 4.55-0.75 1.75-1.15 3.65-1.15 5.6s0.4 3.8 1.15 5.6c0.75 1.7 1.75 3.25 3.1 4.55 0.15 0.15 0.35 0.35 0.55 0.5l0.2 0.2 2.050-2.050-0.25-0.2c-2.55-2.3-3.95-5.45-3.95-8.7zM28.3 16.050c0-3.3-1.45-6.45-4-8.6l-0.25-0.2 2.050-2.050 0.2 0.2c0.2 0.2 0.45 0.4 0.6 0.6 1.35 1.3 2.35 2.85 3.1 4.55 0.75 1.75 1.15 3.65 1.15 5.6s-0.4 3.8-1.15 5.6c-0.75 1.7-1.75 3.25-3.1 4.55-0.15 0.15-0.35 0.35-0.55 0.5l-0.2 0.2-2.050-2.050 0.25-0.2c2.55-2.3 3.95-5.45 3.95-8.7zM16.3 5.8c-5.65 0-10.25 4.6-10.25 10.25s4.6 10.25 10.25 10.25 10.25-4.6 10.25-10.25c0-5.65-4.6-10.25-10.25-10.25zM22.8 16.7c-0.050 0.85-0.8 1.65-0.8 2.35v0c0 0-0.050 0-0.050 0 0 0.050-0.050 0.1-0.050 0.15-0.15 0.4-0.75 1.65-2.15 1.25-0.4-0.1-0.8-0.3-1.35-0.6-1.2-0.65-1.25-0.8-1.6-1.75 0 0-0.1-0.35-0.6-0.25s-0.85 0.4-2-0.2-2.85-1.15-4-3.050c-1.15-1.9 0.2-2.45 0.65-2.2s1.95 1.2 2.65 1.2c0 0 0.25 0 0.7 0 0.15 0 0.55 0 0.55 0 0.4 0 0.85-0.050 1.45-0.15 0.2 0 0.55-0.1 0.55-0.1 0.25-0.050 1.15-0.2 1.15-0.2 0.3-0.050 0.6-0.15 0.9-0.2 0.050 0 0.1 0 0.15 0 0.2 0 0.3 0.15 0.2 0.45s-0.3 0.55-0.3 0.55 0.050 0.25 0.6 0.9c0.55 0.7 0.8 0.95 1.35 1.1s1.2-0.5 1.4-0.4c0-0.1 0.65 0.2 0.6 1.15z"></path>
</svg>
