<!-- Generated by IcoMoon.io -->
<svg version="1.1" xmlns="http://www.w3.org/2000/svg" width="32" height="32" viewBox="0 0 32 32">
<title>pretty-dress</title>
<path d="M8.333 8.65c0.152 0.123 0.303 0.231 0.453 0.331 0.222 1.136 0.451 2.76 0.713 4.132h13.001c0.262-1.373 0.491-2.997 0.714-4.132 0.151-0.101 0.302-0.207 0.453-0.331 0 0 3.466-2.96-0.021-8.65l-0.227 0.224c-0.001-0.006-0.001-0.009-0.001-0.012 0 0-4.282 1.583-7.065 6.591h-0.705c-2.784-5.008-7.065-6.591-7.065-6.591 0 0.004 0 0.007-0.001 0.012l-0.227-0.224c-3.487 5.691-0.021 8.65-0.021 8.65zM27.42 28.352c-0.84-9.466-4.076-12.694-5.023-13.447h-2.627c0.742 0.563 1.253 1.403 1.515 1.914-0.689 0.37-2.101 0.982-3.335 0.596-0.861-0.269-1.512-0.985-1.951-1.631-0.438 0.646-1.090 1.362-1.951 1.631-1.235 0.386-2.646-0.227-3.335-0.596 0.262-0.511 0.774-1.351 1.515-1.914h-2.627c-0.947 0.752-4.183 3.98-5.023 13.447h2.453c-0.081 1.175-0.138 2.404-0.17 3.116 2.166 0.334 6.278 0.532 9.125 0.532h0.023c2.847 0 6.96-0.198 9.125-0.532-0.030-0.713-0.087-1.942-0.169-3.116h2.453z"></path>
</svg>
