<!-- Generated by IcoMoon.io -->
<svg version="1.1" xmlns="http://www.w3.org/2000/svg" width="32" height="32" viewBox="0 0 32 32">
<title>pretzel</title>
<path d="M9.85 20.75c-1.65-0.85-5.25-3.7-5.35-7.1-0.050-1.5 0.45-2.9 1.5-4.050 1.15-1.25 2.8-2 4.5-2 0.55 0 1.1 0.1 1.6 0.2 0.5-0.95 1.35-2.2 2.7-3.1-1.3-0.65-2.75-1-4.3-1-5.5 0-9.95 4.45-9.95 9.85 0 3.95 2.8 8.15 6.4 9.75l2.9-2.55zM9.4 4.95c0.3 0 0.5 0.2 0.5 0.5s-0.2 0.5-0.5 0.5c-0.3 0-0.5-0.2-0.5-0.5 0-0.25 0.2-0.5 0.5-0.5zM5.6 6.65c0.3 0 0.5 0.2 0.5 0.5s-0.2 0.5-0.5 0.5c-0.3 0-0.5-0.2-0.5-0.5s0.2-0.5 0.5-0.5zM3.1 10.45c-0.3 0-0.5-0.2-0.5-0.5s0.2-0.5 0.5-0.5c0.3 0 0.5 0.2 0.5 0.5s-0.25 0.5-0.5 0.5zM22.25 21l2.7 2.35c3.65-1.6 6.5-5.8 6.5-9.75 0-5.45-4.45-9.85-9.95-9.85s-9.95 4.45-9.95 9.85c0 2 0.6 3.95 1.7 5.55l-6 5.65c-0.4 0.35-0.6 0.85-0.65 1.4 0 0.55 0.2 1.050 0.55 1.45s0.85 0.6 1.35 0.6c0.45 0 0.9-0.2 1.25-0.5l2.2-2.050c1.15 0.35 2.4 0.55 3.65 0.55 1.5 0 2.95-0.25 4.25-0.75l2.4 2.25c0.35 0.3 0.8 0.5 1.25 0.5 0.5 0 1-0.2 1.35-0.6s0.55-0.9 0.55-1.45c0-0.55-0.25-1.050-0.65-1.4l-5.35-4.95c-0.4 0.65-1.25 1.7-2.7 2.65-0.35 0.050-0.75 0.050-1.15 0.050-0.1 0-0.15 0-0.25 0l1.2-1.1c2.5-1.9 3.9-4.75 3.9-7.85 0-1.65-0.4-3.25-1.15-4.6-0.9 0.5-2.050 1.55-2.85 3.6 0.050 0.35 0.1 0.65 0.1 1 0 0.85-0.2 1.65-0.5 2.4-0.35-0.75-0.5-1.6-0.5-2.4 0-3.3 2.7-6 6-6 1.7 0 3.35 0.7 4.5 2 1.050 1.1 1.55 2.55 1.5 4.050-0.1 3.4-3.6 6.45-5.25 7.35zM18.75 13.050c0.3 0 0.5 0.2 0.5 0.5s-0.2 0.5-0.5 0.5c-0.3 0-0.5-0.2-0.5-0.5s0.2-0.5 0.5-0.5zM15.8 8.6c-0.3 0-0.5-0.2-0.5-0.5s0.2-0.5 0.5-0.5c0.3 0 0.5 0.2 0.5 0.5 0 0.25-0.2 0.5-0.5 0.5zM19.75 5.95c-0.3 0-0.5-0.2-0.5-0.5s0.2-0.5 0.5-0.5c0.3 0 0.5 0.2 0.5 0.5s-0.25 0.5-0.5 0.5zM23.5 6.15c-0.3 0-0.5-0.2-0.5-0.5s0.2-0.5 0.5-0.5c0.3 0 0.5 0.2 0.5 0.5 0 0.25-0.25 0.5-0.5 0.5z"></path>
</svg>
