<!-- Generated by IcoMoon.io -->
<svg version="1.1" xmlns="http://www.w3.org/2000/svg" width="32" height="32" viewBox="0 0 32 32">
<title>printer</title>
<path d="M32 24.111v-12.332c0-1.022-0.828-1.779-1.849-1.779h-4.151v-5.93c0-1.3-1.23-2.57-2.53-2.57h-14.958c-1.3 0-2.512 1.27-2.512 2.57v5.93h-4.194c-1.022 0-1.806 0.757-1.806 1.778v12.332c0 0.422-0.084 0.889 0.682 0.889h5.317v2.398c0 1.3 1.212 2.602 2.512 2.602h14.958c1.3 0 2.53-1.302 2.53-2.602v-2.398h5.273c0.766 0 0.727-0.467 0.727-0.889zM24 26.654c0 0.445-0.194 0.846-0.591 0.846h-14.836c-0.397 0-0.573-0.401-0.573-0.846v-1.654h16v1.654zM24 15.5h-16v-10.5c0-0.445 0.176-1 0.573-1h14.837c0.397 0 0.59 0.555 0.59 1v10.5zM28.73 14.617c-0.866 0-1.567-0.701-1.567-1.567s0.701-1.567 1.567-1.567c0.865 0 1.567 0.701 1.567 1.567s-0.702 1.567-1.567 1.567z"></path>
</svg>
