<!-- Generated by IcoMoon.io -->
<svg version="1.1" xmlns="http://www.w3.org/2000/svg" width="32" height="32" viewBox="0 0 32 32">
<title>prison</title>
<path d="M30.418 18.5l-0.421-8.406c0-0.406-0.329-0.594-0.736-0.594h-0.629l0.232-2.88 0.404-0.052c0 0 0.666-0.296 0.114-0.686-0.912-0.644-4.282-2.709-4.883-3.2-0.142-0.118-0.379-0.182-0.617-0.182h-0.020c-0.006 0-0.011 0-0.016 0s-0.011 0-0.016 0h-0.020c-0.239 0-0.474 0.054-0.617 0.171-0.601 0.492-3.971 2.547-4.883 3.191-0.552 0.389 0.114 0.666 0.114 0.666l0.404 0.093 0.231 2.879h-0.63c-0.407 0-0.736 0.188-0.736 0.594l-0.421 8.406h-2.277v-1.026c0-0.342-0.158-0.619-0.5-0.619s-0.5 0.277-0.5 0.619v1.026h-3v-1.026c0-0.342-0.158-0.619-0.5-0.619s-0.5 0.277-0.5 0.619v1.026h-3v-1.026c0-0.342-0.158-0.619-0.5-0.619s-0.5 0.277-0.5 0.619v1.026h-2.5v-1.026c0-0.342-0.408-0.619-0.75-0.619s-0.75 0.277-0.75 0.619v1.026h-2v11h32v-11h-1.582zM23.5 8.598c0 0.223-0.18 0.402-0.402 0.402h-1.697c-0.222 0-0.401-0.18-0.401-0.402v-1.696c0-0.223 0.18-0.402 0.402-0.402h1.697c0.222 0 0.401 0.179 0.401 0.402v1.695zM27 8.598c0 0.223-0.18 0.402-0.402 0.402h-1.695c-0.223 0-0.402-0.18-0.402-0.402v-1.696c0-0.223 0.18-0.402 0.402-0.402h1.695c0.223 0 0.402 0.179 0.402 0.402v1.695z"></path>
</svg>
