<!-- Generated by IcoMoon.io -->
<svg version="1.1" xmlns="http://www.w3.org/2000/svg" width="32" height="32" viewBox="0 0 32 32">
<title>projector</title>
<path d="M0 24.659c0-0.003 0.001-0.005 0.001-0.007s-0.001-0.004-0.001-0.007v0.014zM32 24.645c0 0.003-0 0.005-0 0.008s0 0.005 0 0.006v-0.014zM30.892 23.5h-29.784c-0.61 0-1.103 0.638-1.107 1.25 0.003 0.611 0.497 1.25 1.107 1.25h29.784c0.61 0 1.104-0.637 1.107-1.25-0.003-0.613-0.497-1.25-1.107-1.25zM22.422 17.474c1.617 0 2.928-1.311 2.928-2.928s-1.311-2.928-2.928-2.928-2.928 1.312-2.928 2.928c-0 1.617 1.311 2.928 2.928 2.928zM22.422 13.009c0.849 0 1.537 0.688 1.537 1.537s-0.688 1.536-1.537 1.536c-0.849 0-1.537-0.688-1.537-1.536s0.688-1.537 1.537-1.537zM1.843 21.5h16.546c1.187 0.69 2.561 1.092 4.033 1.092s2.847-0.402 4.034-1.092h4.031c0.717 0 0.513-0.32 0.513-0.715v-11.053c0-0.957-1.543-1.732-2.5-1.732h-1.41c-1.317-0.941-2.925-1.5-4.668-1.5s-3.349 0.559-4.666 1.5h-14.255c-0.957 0-2.5 0.775-2.5 1.732v11.053c0 0.395 0.127 0.715 0.844 0.715zM22.422 8.793c3.177 0 5.753 2.576 5.753 5.753s-2.576 5.753-5.753 5.753-5.753-2.575-5.753-5.753c0-3.177 2.576-5.753 5.753-5.753zM11 12c0-0.552 0.448-1 1-1s1 0.448 1 1v5c0 0.552-0.448 1-1 1s-1-0.448-1-1v-5zM7.5 12c0-0.552 0.448-1 1-1s1 0.448 1 1v5c0 0.552-0.448 1-1 1s-1-0.448-1-1v-5zM4 12c0-0.552 0.448-1 1-1s1 0.448 1 1v5c0 0.552-0.448 1-1 1s-1-0.448-1-1v-5z"></path>
</svg>
