<!-- Generated by IcoMoon.io -->
<svg version="1.1" xmlns="http://www.w3.org/2000/svg" width="32" height="32" viewBox="0 0 32 32">
<title>pumpkin</title>
<path d="M23.55 9.15c-0.85 0-1.7 0.2-2.5 0.5 2.95 2.2 4.95 6.050 4.95 10.4s-2 8.2-4.95 10.4c0.8 0.35 1.6 0.5 2.5 0.5 4.55 0 8.2-4.9 8.2-10.9 0.050-6.050-3.65-10.9-8.2-10.9zM6.050 20.050c0-4.35 2-8.2 4.95-10.4-0.8-0.35-1.6-0.5-2.5-0.5-4.55 0-8.2 4.85-8.2 10.9 0 6 3.7 10.9 8.2 10.9 0.85 0 1.7-0.2 2.5-0.5-3-2.2-4.95-6.050-4.95-10.4zM4.8 15c-0.1 0.35-0.4 0.55-0.8 0.45-0.2-0.050-0.4-0.2-0.5-0.4-0.1-0.15-0.1-0.35-0.050-0.5 0.25-1.15 0.9-2.1 1.85-2.8 0.15-0.1 0.35-0.15 0.55-0.15 0.2 0.050 0.35 0.15 0.45 0.3 0.2 0.3 0.15 0.7-0.1 0.9-0.65 0.55-1.15 1.3-1.4 2.2zM12.4 8.55c1.050-0.6 2.25-0.95 3.55-0.95s2.5 0.35 3.55 0.95c0.35-0.2 0.7-1 1.1-1.1-1.55-0.6-2.5-1.95-2.55-2.75l-0.25-1.7c-0.050-0.45-0.35-0.8-0.75-0.95l-1.7-0.95c-0.45-0.15-0.95 0.15-1 0.6-0.15 1.15-0.4 3-0.4 3-0.050 0.85-0.85 2.2-2.5 2.75 0.3 0.15 0.65 0.9 0.95 1.1zM16 9.15c-4.75 0-8.65 4.9-8.65 10.9s3.85 10.9 8.65 10.9c4.75 0 8.65-4.9 8.65-10.9 0-6.050-3.9-10.9-8.65-10.9zM11.9 26.2c-0.35 0.4-0.95 0.35-1.2-0.1-1.4-2.65-1.85-5.65-1.35-8.4 0.050-0.35 0.35-0.6 0.7-0.6 0.45-0.050 0.85 0.4 0.75 0.85-0.45 2.15-0.25 4.75 1.15 7.4 0.15 0.3 0.15 0.65-0.050 0.85zM13.15 13.3c-0.7 0.5-1.2 1.25-1.45 2.1-0.1 0.35-0.4 0.5-0.75 0.4-0.2-0.050-0.35-0.2-0.4-0.4-0.050-0.15-0.050-0.35-0.050-0.5 0.3-1.1 0.95-2.050 1.9-2.7 0.15-0.1 0.35-0.15 0.55-0.1s0.35 0.15 0.4 0.3c0.15 0.35 0.1 0.75-0.2 0.9z"></path>
</svg>
