<!-- Generated by IcoMoon.io -->
<svg version="1.1" xmlns="http://www.w3.org/2000/svg" width="32" height="32" viewBox="0 0 32 32">
<title>qrcode</title>
<path d="M1.046 11.5h9.409c0.578 0 1.046-0.468 1.046-1.046v-9.409c0-0.578-0.468-1.046-1.046-1.046h-9.409c-0.578 0-1.046 0.468-1.046 1.046v9.409c0 0.578 0.468 1.046 1.046 1.046zM2.5 2.5h6.5v6.5h-6.5v-6.5zM4.5 4.5h2.5v2.5h-2.5v-2.5zM0 13.5h2.5v2.5h-2.5v-2.5zM2.5 16h2.5v2.5h-2.5v-2.5zM16 2.5h2.5v-2.5h-5v6h2.5v-2.5zM16 6h2.5v2.5h-2.5v-2.5zM16 11v-2.5h-2.5v5h5v-2.5zM18.5 18.5v-2.5h-6.5v-2.5h-7v2.5h4.5v2.5h4v2.5h2.5v-2.5zM18.5 13.5h2.5v2.5h-2.5v-2.5zM23.5 13.5h2.5v2.5h-2.5v-2.5zM26 29.5h2.5v2.5h-2.5v-2.5zM26 23.5h2.5v2h2.5v-4.5h-2.5v-2.5h2.5v-5h-2.5v2.5h-2.5v5h-2.5v2.5zM23.5 27v-3.5h-5v2.5h2.5v3.5h-2.5v-3.5h-2.5v-2.5h-2.5v5h2.5v3.5h5.5v-2.5h4.5v-2.5zM29.5 27h-1v2.5h3.5v-2.5h-1zM16 21h2.5v2.5h-2.5v-2.5zM21 21h2.5v-2.5h-5v2.5zM10.454 20.5h-9.409c-0.578 0-1.046 0.468-1.046 1.046v9.409c0 0.578 0.468 1.045 1.046 1.045h9.409c0.578 0 1.046-0.468 1.046-1.046v-9.409c0-0.578-0.468-1.046-1.046-1.046zM9 29.5h-6.5v-6.5h6.5v6.5zM4.5 25h2.5v2.5h-2.5v-2.5zM30.954 0h-9.409c-0.578 0-1.046 0.468-1.046 1.046v9.409c0 0.578 0.468 1.046 1.046 1.046h9.409c0.578 0 1.046-0.468 1.046-1.046v-9.409c0-0.578-0.468-1.046-1.046-1.046zM29.5 9h-6.5v-6.5h6.5v6.5zM25 4.5h2.5v2.5h-2.5v-2.5z"></path>
</svg>
