<!-- Generated by IcoMoon.io -->
<svg version="1.1" xmlns="http://www.w3.org/2000/svg" width="32" height="32" viewBox="0 0 32 32">
<title>quesion</title>
<path d="M18 24.5h-5c-0.829 0-1.5 0.672-1.5 1.5v4.5c0 0.828 0.671 1.5 1.5 1.5h5c0.828 0 1.5-0.672 1.5-1.5v-4.5c0-0.828-0.672-1.5-1.5-1.5zM23.971 2.872c-2.011-1.779-4.706-2.681-8.008-2.681-3.158 0-5.769 0.893-7.761 2.653-2.020 1.783-3.124 3.994-3.282 6.57-0.048 0.791 0.526 1.483 1.313 1.581l4.7 0.583c0.063 0.008 0.124 0.011 0.186 0.011 0.697 0 1.314-0.486 1.465-1.184 0.255-1.181 0.694-2.041 1.307-2.561 0.601-0.508 1.35-0.756 2.292-0.756 0.975 0 1.7 0.224 2.216 0.685 0.479 0.428 0.692 0.872 0.692 1.441 0 0.39-0.118 0.728-0.371 1.063-0.045 0.058-0.422 0.496-2.427 2.127-1.672 1.359-2.777 2.589-3.377 3.759-0.605 1.18-0.912 2.66-0.912 4.4 0 0.149 0.006-0.328 0.018 0.355 0.015 0.817 0.682 1.58 1.5 1.58h4.646c0.402 0 0.788-0.269 1.070-0.556s0.437-0.729 0.43-1.131c-0.029-1.675 0.169-1.203 0.209-1.287 0.043-0.089 0.316-0.593 1.619-1.676 2.232-1.855 3.671-3.324 4.399-4.476 0.788-1.245 1.189-2.598 1.189-4.011-0.001-2.478-1.048-4.665-3.112-6.491z"></path>
</svg>
