<!-- Generated by IcoMoon.io -->
<svg version="1.1" xmlns="http://www.w3.org/2000/svg" width="32" height="32" viewBox="0 0 32 32">
<title>question-circle</title>
<path d="M16 1c-8.284 0-15 6.715-15 15s6.715 15 15 15 15-6.715 15-15-6.715-15-15-15zM18 24.107c0 0.494-0.4 0.893-0.893 0.893h-3.214c-0.493 0-0.893-0.4-0.893-0.893v-2.713c0-0.493 0.4-0.893 0.893-0.893h3.214c0.493 0 0.893 0.4 0.893 0.893v2.713zM21.893 14.281c-0.433 0.686-1.291 1.562-2.62 2.667-0.776 0.645-0.939 0.948-0.964 1-0.023 0.050-0.142-0.227-0.124 0.771 0.003 0.239-0.088 0.637-0.256 0.808s-0.398 0.474-0.637 0.474h-2.767c-0.487 0-0.884-0.597-0.893-1.084-0.008-0.407-0.011-0.203-0.011-0.291 0-1.036 0.182-1.949 0.543-2.652 0.357-0.697 1.014-1.445 2.010-2.255 1.195-0.971 1.419-1.24 1.445-1.274 0.151-0.2 0.221-0.405 0.221-0.637 0-0.338-0.127-0.605-0.412-0.86-0.308-0.274-0.739-0.409-1.32-0.409-0.561 0-1.008 0.147-1.364 0.45-0.364 0.309-0.627 0.822-0.778 1.524-0.090 0.415-0.457 0.705-0.873 0.705-0.037 0-0.073-0.002-0.111-0.007l-2.8-0.347c-0.469-0.058-0.81-0.47-0.781-0.941 0.094-1.534 0.752-2.851 1.955-3.914 1.187-1.048 2.742-1.58 4.623-1.58 1.967 0 3.572 0.537 4.77 1.597 1.229 1.088 1.853 2.39 1.853 3.867-0 0.841-0.239 1.648-0.709 2.389z"></path>
</svg>
