<!-- Generated by IcoMoon.io -->
<svg version="1.1" xmlns="http://www.w3.org/2000/svg" width="32" height="32" viewBox="0 0 32 32">
<title>quote-left</title>
<path d="M7.335 12.63c-1.28 0-2.481 0.336-3.523 0.921 0.403-1.254 1.001-2.473 1.89-3.46 1.392-1.544 3.274-2.296 5.756-2.296 0.789 0 1.429-0.64 1.429-1.429s-0.64-1.429-1.429-1.429c-3.296 0-5.949 1.094-7.888 3.25-2.954 3.287-3.405 8.198-3.406 10.873-0.028 0.259-0.044 0.52-0.044 0.785 0 3.985 3.231 7.216 7.216 7.216s7.215-3.23 7.215-7.216c-0.001-3.985-3.231-7.215-7.216-7.215zM24.785 12.63c-1.28 0-2.48 0.336-3.523 0.921 0.402-1.254 1-2.473 1.89-3.46 1.392-1.544 3.274-2.296 5.756-2.296 0.789 0 1.429-0.64 1.429-1.429s-0.64-1.429-1.429-1.429c-3.296 0-5.95 1.094-7.887 3.25-2.954 3.287-3.404 8.198-3.407 10.873-0.028 0.259-0.044 0.52-0.044 0.785 0 3.985 3.23 7.216 7.215 7.216s7.215-3.23 7.215-7.216c0-3.985-3.23-7.215-7.215-7.215z"></path>
</svg>
