<!-- Generated by IcoMoon.io -->
<svg version="1.1" xmlns="http://www.w3.org/2000/svg" width="32" height="32" viewBox="0 0 32 32">
<title>quote-right</title>
<path d="M24.784 19.42c1.28 0 2.48-0.337 3.523-0.922-0.402 1.254-1.001 2.473-1.89 3.46-1.392 1.544-3.274 2.296-5.756 2.296-0.789 0-1.429 0.64-1.429 1.429s0.64 1.429 1.429 1.429c3.296 0 5.95-1.094 7.887-3.25 2.953-3.287 3.404-8.198 3.407-10.873 0.028-0.258 0.044-0.52 0.044-0.785 0-3.985-3.23-7.216-7.216-7.216s-7.215 3.231-7.215 7.216c0.001 3.984 3.232 7.216 7.216 7.216zM7.335 19.42c1.28 0 2.481-0.337 3.523-0.922-0.402 1.254-1.001 2.473-1.89 3.46-1.392 1.544-3.274 2.296-5.756 2.296-0.789 0-1.429 0.64-1.429 1.429s0.64 1.429 1.429 1.429c3.296 0 5.949-1.094 7.888-3.25 2.954-3.287 3.405-8.198 3.406-10.873 0.028-0.258 0.044-0.52 0.044-0.785 0-3.985-3.231-7.216-7.215-7.216s-7.215 3.231-7.215 7.216c0 3.984 3.231 7.216 7.215 7.216z"></path>
</svg>
