<!-- Generated by IcoMoon.io -->
<svg version="1.1" xmlns="http://www.w3.org/2000/svg" width="32" height="32" viewBox="0 0 32 32">
<title>racing-helmet</title>
<path d="M19.299 2.625c-0.44 0-0.875 0.022-1.303 0.066-0.432-0.042-0.87-0.066-1.314-0.066-4.057 0-7.683 1.846-10.082 4.745l-6.35 14.71c-0.083 0.483-0.141 0.973-0.141 1.479 0 3.534 1.049 4.444 4.071 5.815 0 0 21.506-3.373 22.679-4.070 2.837-0.349 5.14-7.939 5.14-9.845 0-7.066-5.636-12.834-12.701-12.834zM19.974 13.582c-1.744 2.908-5.234 5.28-6.397 5.28l-11.142 0.512 4.072-9.373h11.723c0 0 3.489 0.674 1.744 3.582z"></path>
</svg>
