<!-- Generated by IcoMoon.io -->
<svg version="1.1" xmlns="http://www.w3.org/2000/svg" width="32" height="32" viewBox="0 0 32 32">
<title>radar-chart</title>
<path d="M30.442 7.527l-14-6.888c-0.279-0.137-0.604-0.137-0.883 0l-14 6.888c-0.341 0.168-0.558 0.517-0.558 0.898v15.676c0 0.381 0.217 0.73 0.558 0.898l14 6.886c0.139 0.069 0.29 0.103 0.442 0.103s0.302-0.034 0.442-0.103l14-6.886c0.341-0.169 0.558-0.517 0.558-0.898v-15.675c0-0.381-0.217-0.729-0.558-0.897zM29 23.479l-13 6.395-13-6.395v-14.431l13-6.396 13 6.396v14.431zM17.4 13.5c0 0.773-0.627 1.4-1.4 1.4s-1.4-0.627-1.4-1.4c0-0.773 0.627-1.4 1.4-1.4s1.4 0.627 1.4 1.4zM9.9 11.5c0 0.773-0.627 1.4-1.4 1.4s-1.4-0.627-1.4-1.4c0-0.773 0.627-1.4 1.4-1.4s1.4 0.627 1.4 1.4zM28.4 11c0 0.773-0.627 1.4-1.4 1.4s-1.4-0.627-1.4-1.4c0-0.773 0.627-1.4 1.4-1.4s1.4 0.627 1.4 1.4zM24.4 21c0 0.773-0.627 1.4-1.4 1.4s-1.4-0.627-1.4-1.4c0-0.773 0.627-1.4 1.4-1.4s1.4 0.627 1.4 1.4zM17.4 26.5c0 0.773-0.627 1.4-1.4 1.4s-1.4-0.627-1.4-1.4c0-0.773 0.627-1.4 1.4-1.4s1.4 0.627 1.4 1.4zM16 16c-1.381 0-2.5-1.119-2.5-2.5 0-0.223 0.039-0.435 0.094-0.642l-2.688-0.717c-0.285 1.068-1.249 1.858-2.406 1.858-0.228 0-0.445-0.040-0.655-0.098l-1.689 6.196c1.061 0.289 1.845 1.25 1.845 2.402 0 0.314-0.064 0.611-0.17 0.887l5.84 2.224c0.359-0.941 1.263-1.612 2.33-1.612 0.798 0 1.5 0.381 1.957 0.962l3.085-2.424c-0.334-0.425-0.543-0.955-0.543-1.538 0-1.381 1.119-2.5 2.5-2.5 0.328 0 0.64 0.067 0.927 0.182l2.145-5.364c-0.754-0.302-1.323-0.959-1.507-1.764l-6.132 1.393c0.041 0.178 0.067 0.363 0.067 0.553 0 1.381-1.119 2.5-2.5 2.5zM6.9 22.5c0 0.773-0.627 1.4-1.4 1.4s-1.4-0.627-1.4-1.4c0-0.773 0.627-1.4 1.4-1.4s1.4 0.627 1.4 1.4z"></path>
</svg>
