<!-- Generated by IcoMoon.io -->
<svg version="1.1" xmlns="http://www.w3.org/2000/svg" width="32" height="32" viewBox="0 0 32 32">
<title>radish</title>
<path d="M20.45 27.3c3.1-3.65 3.45-8.85 1.1-12.8l0.7-0.050c0.35 0.25 0.75 0.55 1.25 0.75 0.6 0.3 1.35 0.45 2.15 0.4 1.8-0.1 3.25-1.1 3.2-2.25s-1.55-2.050-3.4-1.95c-0.25 0-0.55 0.050-0.75 0.1-1.2 0.15-2.1 0.9-2.7 1.45l-1.5 0.050c-0.25-0.3-0.5-0.55-0.75-0.8-0.1-0.1-0.2-0.2-0.35-0.3 0.5-0.5 1.050-0.95 1.65-1.35 0.9 0.15 2.4 0.3 4 0.050 1.2-0.15 2.5-0.7 3.7-1.55 2.75-2 3.95-5 2.7-6.75s-4.5-1.6-7.25 0.4c-0.4 0.3-0.75 0.6-1.1 0.95-1.9 1.65-2.6 4.2-2.8 5.6-0.75 0.5-1.45 1.050-2.050 1.7l0.050-2.25c0.4-0.45 1-1.1 1.4-1.95 0.35-0.7 0.55-1.6 0.55-2.55 0-2.2-1.2-3.95-2.6-3.95s-2.5 1.8-2.5 4c0 0.3 0.050 0.65 0.1 0.95 0.15 1.35 0.9 2.45 1.55 3.15l-0.050 1.75c-4.3-2-9.55-1.050-12.9 2.65-1.8 2-2.75 4.5-2.8 7.050 0 0 0 0 0 0 2.75 0.35 5.6 1.75 8 3.9 2.35 2.1 4 4.75 4.7 7.4 2.45-0.4 4.85-1.65 6.7-3.8zM14.65 14.050c-1.5-0.5-3.15-0.5-4.65 0-0.050 0.050-0.1 0.050-0.15 0.050 0 0 0 0 0 0v0c-0.25 0.050-0.55 0-0.8-0.2-0.35-0.35-0.4-0.9-0.050-1.25 0.1-0.1 0.15-0.15 0.25-0.2 0 0 0 0 0 0s0 0 0 0c0.050-0.050 0.15-0.050 0.2-0.050 1.85-0.6 3.85-0.6 5.7-0.050 0.15 0.050 0.3 0.1 0.45 0.2 0.35 0.35 0.4 0.9 0.050 1.25-0.25 0.3-0.65 0.4-1 0.25zM1.050 21.55c0.1 0.85 0.3 1.7 0.65 2.5 0.35 1.85 1.7 4.1-0.35 7.55-0.1 0.2 0.1 0.4 0.3 0.25 3.2-2.4 5.75-1.2 7.65-1.050 0.85 0.2 1.75 0.35 2.65 0.35-0.65-2.15-2.1-4.35-4.1-6.2-2.15-1.8-4.55-2.95-6.8-3.4z"></path>
</svg>
