<!-- Generated by IcoMoon.io -->
<svg version="1.1" xmlns="http://www.w3.org/2000/svg" width="32" height="32" viewBox="0 0 32 32">
<title>radio-station</title>
<path d="M29.4 19.5h-4.34l-2.529-11.124c0.398-0.2 0.672-0.656 0.672-1.133 0-0.673-0.545-1.24-1.218-1.24s-1.218 0.535-1.218 1.208c0 0.476 0.273 0.971 0.672 1.171l-2.528 11.119h-16.178c-0.957 0-1.732 0.597-1.732 1.555v10.945h4.5v-7.372c0-0.557 0.51-1.128 1.067-1.128h3.657c0.556 0 0.775 0.57 0.775 1.128v7.372h20v-10.945c0-0.957-0.642-1.555-1.599-1.555zM21.869 12.379c0.064-0.318 0.166-0.334 0.23-0.015l0.728 3.636h-1.685l0.727-3.621zM20.5 27.73c0 0.425-0.345 0.77-0.77 0.77h-2.96c-0.425 0-0.77-0.345-0.77-0.77v-3.96c0-0.425 0.345-0.77 0.77-0.77h2.96c0.425 0 0.77 0.345 0.77 0.77v3.96zM20.495 19.5c0.003 0 0.006-0.063 0.010-0.082l0.378-1.918h2.203l0.378 1.918c0.004 0.020 0.007 0.082 0.010 0.082h-2.979zM28 27.73c0 0.425-0.345 0.77-0.77 0.77h-2.96c-0.425 0-0.77-0.345-0.77-0.77v-3.96c0-0.425 0.345-0.77 0.77-0.77h2.96c0.425 0 0.77 0.345 0.77 0.77v3.96zM23.853 9.399l0.308 1.344c1.175-0.73 1.96-2.033 1.96-3.516 0-2.281-1.855-4.136-4.136-4.136s-4.136 1.856-4.136 4.136c0 1.482 0.785 2.786 1.96 3.516l0.308-1.344c-0.611-0.527-1-1.304-1-2.172 0-1.582 1.287-2.869 2.869-2.869s2.869 1.287 2.869 2.869c0 0.868-0.389 1.646-1 2.172zM19.096 13.848l0.289-1.261c-1.986-0.967-3.36-3.006-3.36-5.361 0-3.285 2.673-5.958 5.959-5.958s5.959 2.673 5.959 5.958c0 2.354-1.373 4.394-3.36 5.361l0.289 1.261c2.551-1.117 4.338-3.664 4.338-6.622 0-3.985-3.241-7.226-7.226-7.226s-7.226 3.241-7.226 7.226c0 2.957 1.787 5.505 4.338 6.622z"></path>
</svg>
