<!-- Generated by IcoMoon.io -->
<svg version="1.1" xmlns="http://www.w3.org/2000/svg" width="32" height="32" viewBox="0 0 32 32">
<title>rainny01</title>
<path d="M25.233 8.156c0.326-0.521 0.519-1.134 0.519-1.794 0-1.867-1.514-3.381-3.381-3.381-1.017 0-1.927 0.451-2.547 1.162-0.829-2.299-3.023-3.946-5.608-3.946-3.296 0-5.967 2.671-5.967 5.967 0 0.078 0.009 0.154 0.011 0.231-2.306 0.681-4.239 2.812-4.239 5.338 0 2.79 1.979 4.862 4.479 5.268 0.5 0.002 16.448 0 16.5 0 2.527 0 4.604-1.747 4.604-4.274 0-2.501-1.881-4.528-4.372-4.571zM7.447 19.105c-0.494-0.247-1.095-0.047-1.342 0.448l-2.5 5c-0.247 0.494-0.046 1.095 0.447 1.342 0.144 0.072 0.296 0.105 0.447 0.105 0.367 0 0.72-0.203 0.896-0.553l2.5-5c0.246-0.494 0.046-1.095-0.447-1.341zM11.447 22.105c-0.493-0.247-1.095-0.047-1.342 0.448l-2.5 5c-0.247 0.494-0.046 1.095 0.447 1.342 0.143 0.072 0.296 0.105 0.447 0.105 0.367 0 0.72-0.203 0.896-0.553l2.5-5c0.246-0.494 0.046-1.095-0.447-1.341zM17.948 19.105c-0.494-0.247-1.095-0.047-1.342 0.448l-2.5 5c-0.247 0.494-0.046 1.095 0.447 1.342 0.143 0.072 0.296 0.105 0.447 0.105 0.367 0 0.72-0.203 0.896-0.553l2.5-5c0.247-0.494 0.046-1.095-0.448-1.341zM23.466 19.115c-0.489-0.256-1.093-0.070-1.351 0.419l-5 9.5c-0.257 0.489-0.070 1.093 0.419 1.351 0.148 0.078 0.308 0.115 0.465 0.115 0.36 0 0.706-0.195 0.886-0.535l5-9.5c0.258-0.488 0.070-1.093-0.419-1.351zM26.448 23.605c-0.494-0.247-1.095-0.047-1.342 0.448l-1.5 3c-0.247 0.494-0.047 1.095 0.448 1.342 0.143 0.072 0.296 0.105 0.447 0.105 0.366 0 0.72-0.203 0.895-0.553l1.5-3c0.247-0.494 0.046-1.095-0.448-1.341z"></path>
</svg>
