<!-- Generated by IcoMoon.io -->
<svg version="1.1" xmlns="http://www.w3.org/2000/svg" width="32" height="32" viewBox="0 0 32 32">
<title>rake</title>
<path d="M24.213 24h-0.746c-0.033 0-0.067-0.052-0.103-0.088l-6.368-6.431c-0.023-0.023 0.003-0.036 0.003-0.058v-16.46c0-0.532-0.468-0.964-1-0.964s-1 0.431-1 0.964v16.46c0 0.021-0.079 0.044-0.102 0.067l-6.456 6.422c-0.036 0.035-0.088 0.088-0.12 0.088h-0.747c-2.256 0-4.074 1.451-4.074 3.26v3.825c0 0.505 0.495 0.915 1.001 0.915 0.504 0 0.999-0.41 0.999-0.915v-3.585h2.5v3.343c0 0.506 0.495 0.915 1 0.915 0.506 0 1-0.41 1-0.915v-3.343h2.5v3.343c0 0.506 0.495 0.915 1 0.915s1-0.41 1-0.915v-3.343h3v3.343c0 0.506 0.244 0.915 0.75 0.915 0.505 0 0.75-0.41 0.75-0.915v-3.343h3v3.343c0 0.506 0.244 0.915 0.75 0.915s0.75-0.41 0.75-0.915v-3.343h3v3.585c0 0.505 0.495 0.915 0.999 0.915 0.506 0 1.001-0.41 1.001-0.915v-3.825c0-1.808-2.030-3.26-4.287-3.26zM10.085 24l4.915-4.809v4.813c0 0.011-0.067-0.003-0.067-0.003h-4.848zM16.855 24c0 0 0.145 0.014 0.145 0.003v-4.813l4.702 4.809h-4.847z"></path>
</svg>
