<!-- Generated by IcoMoon.io -->
<svg version="1.1" xmlns="http://www.w3.org/2000/svg" width="32" height="32" viewBox="0 0 32 32">
<title>random</title>
<path d="M25.555 18.684c-0.399-0.399-1.555-0.756-1.555 0.267v3.049h-4.119c-0.16 0-0.321 0.151-0.478 0.183-0.203 0.041-0.482 0.104-0.668-0.366-0.552-1.39-5.804-11.021-7.428-13.966-0.271-0.518-1.823-3.35-4.587-3.35h-6.22v5h5.732c0.145 0 0.487 0.065 0.747 0.661 0.013 0.028 0.029 0.099 0.043 0.126 2.752 4.988 6.799 12.427 7.18 13.354 1.12 2.826 3.518 3.491 5.189 3.491 0.242 0 0.471-0.133 0.677-0.133h3.931v3.714c0 1.023 1.157 0.666 1.557 0.267l5.457-5.425c0.399-0.399 0.397-1.047-0.003-1.447l-5.457-5.425zM18.558 10.409c0.438-0.729 0.794-0.872 0.886-0.877 0.145 0.027 0.291-0.032 0.437-0.032h4.119v3.694c0 1.035 1.165 0.674 1.569 0.27l5.526-5.489c0.405-0.404 0.41-1.059 0.006-1.463l-5.535-5.489c-0.404-0.403-1.566-0.765-1.566 0.27v3.206h-3.905c-1.469 0-3.988 0.387-5.716 3.268-0.137 0.229-0.444 0.851-0.857 1.608 0.875 1.596 1.835 3.408 2.787 5.162 1.141-2.13 2.024-3.751 2.25-4.128zM7.003 21.665c-0.009 0.017-0.018-0.125-0.026-0.108-0.071 0.142-0.258 0.444-0.745 0.444h-5.732v5h6.22c2.807 0 4.363-2.706 4.6-3.168 0.242-0.457 0.496-0.889 0.759-1.385-0.839-1.569-1.79-3.293-2.781-5.12-1.123 2.113-2.051 3.878-2.295 4.337z"></path>
</svg>
