<!-- Generated by IcoMoon.io -->
<svg version="1.1" xmlns="http://www.w3.org/2000/svg" width="32" height="32" viewBox="0 0 32 32">
<title>raspberry</title>
<path d="M8.45 11.7c0.3-0.050 0.65-0.1 1-0.1 0.4 0 0.8 0.050 1.15 0.1 1-1.95 3.050-3.25 5.35-3.25s4.35 1.3 5.35 3.25c0.4-0.1 0.85-0.15 1.25-0.15 0.35 0 0.65 0.050 1 0.1 3.7-2.2 3.95-6.55 3.95-6.55s-4.85-1.55-8.3 2.050c0.3-4.25-3.2-6.95-3.2-6.95s-3.5 2.7-3.15 7.050c-3.45-3.6-8.3-2.050-8.3-2.050s0.2 4.3 3.9 6.5zM27.050 17.55c0-2.5-2-4.5-4.5-4.5-0.8 0-1.55 0.2-2.15 0.55-0.4-2.1-2.2-3.7-4.45-3.7-2.2 0-4 1.55-4.4 3.65-0.6-0.3-1.35-0.5-2.1-0.5-2.5 0-4.5 2-4.5 4.5 0 1.65 0.85 3.050 2.15 3.85-0.45 0.7-0.7 1.5-0.7 2.35 0 2.5 2 4.5 4.5 4.5 0.2 0 0.4 0 0.6-0.050 0.4 2.050 2.25 3.6 4.4 3.6 2.2 0 4-1.55 4.4-3.6 0.2 0.050 0.4 0.050 0.6 0.050 2.5 0 4.5-2 4.5-4.5 0-0.85-0.25-1.65-0.65-2.3 1.4-0.8 2.3-2.25 2.3-3.9zM7.5 16.65c-0.3-0.1-0.5-0.6-0.3-1s0.55-0.7 0.95-0.9c0.4-0.2 0.85 0 1 0.3 0.1 0.3-0.050 0.6-0.25 0.7-0.25 0.15-0.45 0.35-0.6 0.6-0.2 0.25-0.5 0.4-0.8 0.3zM9.65 22.45c-0.25 0.15-0.45 0.35-0.6 0.6s-0.45 0.4-0.75 0.25c-0.3-0.1-0.5-0.6-0.3-1s0.55-0.7 0.95-0.9c0.4-0.2 0.85 0 1 0.3 0.1 0.35-0.050 0.6-0.3 0.75zM12.85 18.9c0.2-0.4 0.55-0.7 0.95-0.9s0.85 0 1 0.3c0.1 0.3-0.050 0.6-0.25 0.7-0.25 0.15-0.45 0.35-0.6 0.6s-0.45 0.4-0.75 0.25c-0.35-0.050-0.55-0.55-0.35-0.95zM14.55 26.050c-0.25 0.15-0.45 0.35-0.6 0.6s-0.45 0.4-0.75 0.25c-0.3-0.1-0.5-0.6-0.3-1s0.55-0.7 0.95-0.9c0.4-0.2 0.85 0 1 0.3 0.050 0.35-0.1 0.6-0.3 0.75zM15.15 12.65c-0.25 0.15-0.45 0.35-0.6 0.6s-0.45 0.4-0.75 0.25c-0.3-0.1-0.5-0.6-0.3-1s0.55-0.7 0.95-0.9c0.4-0.2 0.85 0 1 0.3 0.1 0.35-0.050 0.65-0.3 0.75z"></path>
</svg>
