<!-- Generated by IcoMoon.io -->
<svg version="1.1" xmlns="http://www.w3.org/2000/svg" width="32" height="32" viewBox="0 0 32 32">
<title>rate-review</title>
<path d="M10.757 15.989c-0.204-0.204-0.023-0.861 0.159-1.363l-0.95 0.306-0.214 1.635 0.419 0.419 1.626-0.2 0.32-0.96c-0.296 0.104-0.77 0.254-1.066 0.254-0.135 0-0.232-0.030-0.293-0.092zM16 1.245c-8.836 0-16 5.484-16 12.25 0 4.091 2.622 7.711 6.647 9.936-0.226 1.060-0.962 3.215-3.354 5.607-0.276 0.276-0.366 0.686-0.232 1.052s0.469 0.62 0.857 0.652c0.027 0.003 0.175 0.013 0.422 0.013 1.457 0 6.247-0.387 9.7-5.105 0.643 0.060 1.296 0.095 1.96 0.095 8.837 0 16-5.485 16-12.25s-7.163-12.25-16-12.25zM16.781 7.132c0.244-0.243 0.567-0.377 0.911-0.377s0.668 0.134 0.911 0.377l1.020 1.021c0.502 0.502 0.502 1.32 0 1.822l-1.523 1.523-2.843-2.843 1.524-1.523zM11.811 17.779c0 0-2.946 0.805-3.184 0.916-0.057 0.026-0.491 0.122-0.572-0.001-0.077-0.116-0.066-0.415-0.011-0.546 0.104-0.247 0.859-3.042 0.934-3.204l0.094-0.102 5.627-5.628 2.842 2.843-5.628 5.628-0.102 0.094zM24 18.5h-10.155l1.924-2h8.231v2z"></path>
</svg>
