<!-- Generated by IcoMoon.io -->
<svg version="1.1" xmlns="http://www.w3.org/2000/svg" width="32" height="32" viewBox="0 0 32 32">
<title>ready-mixed-concrete</title>
<path d="M9.849 23.167c0 1.145-0.928 2.073-2.073 2.073s-2.073-0.928-2.073-2.073c0-1.145 0.928-2.073 2.073-2.073s2.073 0.928 2.073 2.073zM15.508 23.167c0 1.145-0.928 2.073-2.073 2.073s-2.073-0.928-2.073-2.073c0-1.145 0.928-2.073 2.073-2.073s2.073 0.928 2.073 2.073zM32 16.959c0-0.367-0.631-0.666-0.998-0.666l-1.247-0.22-2.328-5.286c-0.305-0.665-0.742-0.787-1.053-0.787h-7.113c-0.311 0-0.759 0.121-0.759 0.432v7.567h-10v-1.189c3 0.648 7.077-0.386 7.077-0.386l2.33-7.383c0 0-3.174-3.676-6.241-4.595-3.069-0.919-7.75 0.199-7.75 0.199l-2.197 7.383c0 0 1.282 1.827 3.782 3.239v2.73h-1.218c-0.368 0-0.783 0.253-0.783 0.62v3.714c0 0.367 0.415 0.666 0.783 0.666h0.599c0.088-1.5 1.348-2.735 2.894-2.735 1.383 0 2.538 0.968 2.829 2.264 0.29-1.296 1.446-2.264 2.829-2.264 1.546 0 2.805 1.235 2.893 2.735h7.32c0.087-1.5 1.348-2.734 2.893-2.734s2.807 1.234 2.895 2.734h1.678c0.367 0 0.887-0.258 0.887-0.625v-5.416zM23.5 18.326c0 0.096-0.078 0.174-0.175 0.174h-2.15c-0.097 0-0.175-0.078-0.175-0.174v-0.651c0-0.096 0.078-0.174 0.175-0.174h2.151c0.096 0 0.175 0.078 0.175 0.174v0.651zM27.025 16h-5.174c-0.196 0-0.352-0.202-0.352-0.398v-3.831c0-0.197 0.155-0.271 0.352-0.271h3.404c0.197 0 0.517 0.030 0.721 0.492l1.386 3.511c0.166 0.425-0.14 0.497-0.337 0.497zM26.541 21.094c-1.145 0-2.073 0.928-2.073 2.073s0.928 2.073 2.073 2.073 2.073-0.928 2.073-2.073-0.928-2.073-2.073-2.073zM26.541 23.886c-0.397 0-0.719-0.322-0.719-0.718s0.322-0.718 0.719-0.718c0.396 0 0.719 0.322 0.719 0.718s-0.323 0.718-0.719 0.718zM2.404 5.607l-0.758-0.242c-0.139-0.045-0.286 0.026-0.328 0.156l-1.306 4.101c-0.042 0.13 0.037 0.273 0.177 0.317l0.758 0.241c0.139 0.044 0.286-0.025 0.328-0.156l1.307-4.101c0.041-0.13-0.038-0.271-0.178-0.316z"></path>
</svg>
