<!-- Generated by IcoMoon.io -->
<svg version="1.1" xmlns="http://www.w3.org/2000/svg" width="32" height="32" viewBox="0 0 32 32">
<title>recirculation</title>
<path d="M29.95 12.85h-1.5l-4.4-5.050c-0.3-0.45-0.85-0.6-1.45-0.6h-9.2c-0.55 0-1 0.2-1.3 0.55v-0.050c0 0 0 0-0.050 0.050l-4.4 5.35c-1.75 0-6.7-0.050-7.3 4v2.8c0 0.95 0.8 1.7 1.75 1.7h2.4c0.15 1.75 1.6 3.15 3.4 3.15s3.3-1.4 3.4-3.15h9.3c0.15 1.75 1.6 3.15 3.4 3.15s3.3-1.4 3.4-3.15h2.6c0.95 0 1.7-0.75 1.7-1.7v-5c0-0.95-0.75-2.050-1.75-2.050zM25.25 17.85c0.050-0.050-2.35 1.7-3.3 2.35-0.6 0.2-0.65-0.5-0.65-0.5v-1.1c0 0-7.9 0-7.95 0-0.7 0-1.25-0.55-1.25-1.25v-6.45c0-0.7 0.55-1.25 1.25-1.25 0.050 0 0.1 0 0.15 0s0.15 0 0.2 0h8.15c0.6 0 1.1 0.5 1.1 1.1s-0.5 1.1-1.1 1.1h-7.2v4.5h6.75v-1.2c0 0 0.050-0.7 0.65-0.5 0 0 3.2 2.4 3.2 2.4 0.25 0.25 0.2 0.6 0 0.8z"></path>
</svg>
