<!-- Generated by IcoMoon.io -->
<svg version="1.1" xmlns="http://www.w3.org/2000/svg" width="32" height="32" viewBox="0 0 32 32">
<title>referee-uniform</title>
<path d="M28 4l-7.958-4-4.042 4.5-4.062-4.5-7.928 4-4.005 8.042 5.498 3.958 0.997-0.5v16.5h19v-16.5l1 0.5 5.5-3.958-4-8.042zM9 31h-1.5v-19.768l1.5-3.258v23.026zM13 31h-2v-27.371l0.75-1.629 1.25 1.251v27.749zM17 31h-2v-25.747l0.999 1 1.001-0.946v25.693zM21 31h-2v-27.583l1.5-1.417 0.5 1.155v27.846zM24.5 31h-1.5v-23.23l1.5 3.462v19.768z"></path>
</svg>
