<!-- Generated by IcoMoon.io -->
<svg version="1.1" xmlns="http://www.w3.org/2000/svg" width="32" height="32" viewBox="0 0 32 32">
<title>refresh</title>
<path d="M29.561 19h-4.206c-0.203 0-0.387 0.123-0.463 0.312-1.212 2.98-4.511 6.188-8.892 6.188-4.128 0-7.294-2.848-8.659-5.67l2.438-2.438c0.707-0.707-0.312-1.232-0.864-1.232l-7.518-0.017c-0.552 0-0.995 0.453-0.995 1.005l0.010 7.511c0 0.552 0.527 1.573 1.234 0.866l1.982-1.982c2.582 4.232 7.218 6.957 12.371 6.957 6.598 0 12.364-4.456 14.034-10.84 0.017-0.050 0.026-0.104 0.026-0.16 0-0.276-0.223-0.5-0.499-0.5zM31.51 7.25c0-0.552-0.527-1.572-1.235-0.865l-1.892 1.893c-2.502-4.215-7.008-6.777-12.383-6.777-6.951 0-12.464 4.272-14.046 10.884-0.036 0.149-0.001 0.306 0.094 0.426s0.24 0.19 0.393 0.19h4.204c0.212 0 0.401-0.133 0.471-0.332 1.354-3.804 4.758-6.168 8.884-6.168 3.89 0 7.137 2.101 8.63 5.529l-2.486 2.486c-0.707 0.707 0.311 1.232 0.863 1.232l7.518 0.017c0.552 0 0.994-0.453 0.995-1.005l-0.009-7.51z"></path>
</svg>
