<!-- Generated by IcoMoon.io -->
<svg version="1.1" xmlns="http://www.w3.org/2000/svg" width="32" height="32" viewBox="0 0 32 32">
<title>remote-control</title>
<path d="M23 1c0-0.552-0.448-1-1-1h-12c-0.552 0-1 0.448-1 1v30c0 0.552 0.448 1 1 1h12c0.552 0 1-0.448 1-1v-30zM17.5 16.5c0 0.552-0.448 1-1 1h-1c-0.552 0-1-0.448-1-1v-1c0-0.552 0.448-1 1-1h1c0.552 0 1 0.448 1 1v1zM13.5 16.5c0 0.552-0.448 1-1 1h-1c-0.552 0-1-0.448-1-1v-1c0-0.552 0.448-1 1-1h1c0.552 0 1 0.448 1 1v1zM10.5 20.5v-1c0-0.552 0.448-1 1-1h1c0.552 0 1 0.448 1 1v1c0 0.552-0.448 1-1 1h-1c-0.552 0-1-0.448-1-1zM17.5 24.5c0 0.552-0.448 1-1 1h-1c-0.552 0-1-0.448-1-1v-1c0-0.552 0.448-1 1-1h1c0.552 0 1 0.448 1 1v1zM16.5 21.5h-1c-0.552 0-1-0.448-1-1v-1c0-0.552 0.448-1 1-1h1c0.552 0 1 0.448 1 1v1c0 0.552-0.448 1-1 1zM21.5 19.5v1c0 0.552-0.448 1-1 1h-1c-0.552 0-1-0.448-1-1v-1c0-0.552 0.448-1 1-1h1c0.552 0 1 0.448 1 1zM21.5 16.5c0 0.552-0.448 1-1 1h-1c-0.552 0-1-0.448-1-1v-1c0-0.552 0.448-1 1-1h1c0.552 0 1 0.448 1 1v1zM18.5 6c0.552 0 1 0.298 1 0.667v0.667c0 0.368-0.448 0.667-1 0.667h-1.5v1.5c0 0.553-0.165 1-0.534 1h-0.666c-0.368 0-0.8-0.448-0.8-1v-1.5h-1.5c-0.552 0-1-0.298-1-0.667v-0.667c0-0.368 0.448-0.667 1-0.667h1.5v-1.5c0-0.552 0.431-1 0.8-1h0.666c0.369 0 0.534 0.447 0.534 1v1.5h1.5z"></path>
</svg>
