<!-- Generated by IcoMoon.io -->
<svg version="1.1" xmlns="http://www.w3.org/2000/svg" width="32" height="32" viewBox="0 0 32 32">
<title>reply-all</title>
<path d="M15 6.197v-3.622c0-1.188-1.569-0.773-2.033-0.31l-6.55 6.305c-0.464 0.464-0.438 1.216 0.027 1.681l6.51 6.305c0.463 0.464 2.046 0.879 2.046-0.309v-3.595c3.5-0.303 17.776-0.501 10.989 16.729 0 0-0.538 1.189 0.651 0.595-0-0 16.861-24.257-11.639-23.777zM3.835 8.57l5.665-5.388v-0.607c0-1.188-1.624-0.773-2.088-0.31l-6.546 6.305c-0.465 0.464-0.485 1.216-0.021 1.681l6.577 6.305c0.465 0.464 2.078 0.879 2.078-0.309v-0.598l-5.633-5.398c-0.464-0.464-0.498-1.216-0.033-1.681z"></path>
</svg>
