<!-- Generated by IcoMoon.io -->
<svg version="1.1" xmlns="http://www.w3.org/2000/svg" width="32" height="32" viewBox="0 0 32 32">
<title>restaurant-menu</title>
<path d="M0.261 24.5c0.107 2 4.463 2.567 5.385 2.567l3.467 1.933h14.382l2.861-1.933c0.922 0 5.279-0.567 5.385-2.567h-31.48zM10.971 11.082c0 0 0.552 0.398 0.94 0.398s1.85 0.186 1.85 0.186l1.553 2.078-5.149 6.114c-1.26 1.532-1.204 2.419-0.627 2.895 0.578 0.474 1.46 0.358 2.719-1.174l4.415-6.017 5.007 6.698c0.572 0.698 1.538 0.852 2.16 0.344s0.664-1.487 0.094-2.184l-5.881-6.828 1.010-1.441 0.927 0.762 4.629-5.701c2.236-2.719 0.414-5.357 0.414-5.357l-6.967 8.543-1.349 1.641-1.411-1.637c0 0 0.175-1.367 0.175-1.97s-0.193-0.755-0.193-0.755v-0l-4.649-5.585c-0.188-0.231-0.572-0.265-0.803-0.076s-0.286 0.53-0.097 0.76l3.172 3.896-0.834 0.677-3.186-3.896c-0.188-0.232-0.53-0.265-0.761-0.076-0.231 0.188-0.266 0.528-0.076 0.76l3.183 3.896-0.829 0.677-3.184-3.895c-0.189-0.232-0.529-0.266-0.76-0.077s-0.255 0.529-0.066 0.76l4.574 5.583z"></path>
</svg>
