<!-- Generated by IcoMoon.io -->
<svg version="1.1" xmlns="http://www.w3.org/2000/svg" width="32" height="32" viewBox="0 0 32 32">
<title>restaurant</title>
<path d="M31.288 25.5h-0.788v-4.66c0-0.84-0.5-1.040-0.5-1.040v-10.973c-0.261 0-0.271-0.002-0.285-0.002-0.802 0-2.215 1.988-2.215 3.821v5.855h1v1.3c-0.5 0.224-0.5 0.605-0.5 1.040v4.66h-2.5v-17.193c0-0.9-0.838-1.807-1.739-1.807h-13.13c-0.9 0-1.63 0.907-1.63 1.807v17.193h-3.162l-0.018-4.852c-0.002-0.438-0.234-0.82-0.577-1.040l0.021-2.742 1.236-0.009v-0.010c0 0.001-0.005 0.010 0.013 0.009 0.281-0.002 0.488-0.232 0.361-0.637l-0.040-6.378c0.123-0.156-0.111-0.383-0.393-0.382-0.282 0.002-0.51 0.232-0.508 0.513l0.016 4.14-0.919 0.007-0.018-4.141c-0.002-0.281-0.232-0.508-0.513-0.505-0.282 0.002-0.508 0.231-0.506 0.512l0.018 4.14-0.969 0.007-0.017-4.139c-0.002-0.282-0.232-0.508-0.513-0.506s-0.507 0.232-0.506 0.514l0.033 6.379c0.002 0.282 0.179 0.508 0.461 0.506 0.018 0-0.001-0.009-0.001-0.010v0.011l1.3-0.009 0.043 2.753c-0.33 0.227-0.532 0.608-0.53 1.038l0.030 4.834h-1.843c-0.379 0-1.5 0.306-1.5 0.686v1.314h32v-1.314c0-0.379-0.334-0.686-0.712-0.686zM16 15.162c0 0.187-0.152 0.338-0.338 0.338h-3.323c-0.187 0-0.338-0.152-0.338-0.338v-3.323c0-0.187 0.152-0.338 0.338-0.338h3.323c0.187 0 0.338 0.152 0.338 0.338v3.323zM20 25.5h-5v-5.139c0-0.329 0.063-0.361 0.391-0.361h3.906c0.328 0 0.703 0.032 0.703 0.361v5.139zM22.5 15.162c0 0.187-0.151 0.338-0.338 0.338h-3.323c-0.187 0-0.338-0.152-0.338-0.338v-3.323c0-0.187 0.151-0.338 0.338-0.338h3.323c0.187 0 0.338 0.152 0.338 0.338v3.323z"></path>
</svg>
