<!-- Generated by IcoMoon.io -->
<svg version="1.1" xmlns="http://www.w3.org/2000/svg" width="32" height="32" viewBox="0 0 32 32">
<title>retail</title>
<path d="M29.45 15.55l-2.65-5.6c0 0-0.7-1.95-3.7-1.9h-6.2c-0.45-1.65-1.4-3.1-2.7-4.25-1.55-1.3-3.5-2.050-5.55-2.050-4.7 0-8.55 3.85-8.55 8.55 0 4.1 2.9 7.6 6.9 8.4v7.15h2.1v2.35c0 1.15 0.9 2.050 2.050 2.050h0.2c1.15 0 2.050-0.9 2.050-2.050v-2.35h12.1v2.35c0 1.15 0.9 2.050 2.050 2.050h0.2c1.15 0 2.050-0.9 2.050-2.050v-2.35h2.1v-7.55c0 0 0-2.15-2.45-2.75zM2.35 10.3c0-3.5 2.85-6.3 6.3-6.3 2.7 0 5.050 1.7 5.95 4.15-2 0.4-2.5 1.8-2.5 1.8l-1.25 2.7c-0.5 0.4-1.1 0.6-1.8 0.6-1.050 0-2-0.55-2.5-1.4h3.65l0.5-1.15h-4.55c0-0.15-0.050-0.3-0.050-0.45s0-0.3 0.050-0.45h4.1l0.5-1.15h-4.25c0.55-0.85 1.45-1.4 2.5-1.4 0.7 0 1.35 0.25 1.85 0.65l0.7-1.5c-0.75-0.5-1.6-0.75-2.55-0.75-2 0-3.65 1.25-4.3 3h-1l-0.5 1.15h1.2c0 0.15 0 0.3 0 0.45s0 0.3 0 0.45h-0.65l-0.5 1.15h1.45c0.65 1.75 2.35 3 4.3 3 0.25 0 0.5 0 0.75-0.050l-0.35 0.75c-0.8 0.2-1.35 0.6-1.75 1-3-0.45-5.3-3.1-5.3-6.25zM11.35 21.9c-1.1 0-2-0.9-2-2s0.9-2 2-2c1.1 0 2 0.9 2 2s-0.9 2-2 2zM19.85 15.5h-7.95l1.75-3.8c0.6-1.6 2.7-1.25 2.7-1.25h6.2c0 0 2.1-0.35 2.7 1.25l1.75 3.8h-7.15zM27.55 21.9c-1.1 0-2-0.9-2-2s0.9-2 2-2c1.1 0 2 0.9 2 2-0.050 1.1-0.9 2-2 2z"></path>
</svg>
