<!-- Generated by IcoMoon.io -->
<svg version="1.1" xmlns="http://www.w3.org/2000/svg" width="32" height="32" viewBox="0 0 32 32">
<title>retweet</title>
<path d="M31.123 18h-3.623v-10.489c0-0.486-0.514-1.011-0.959-1.011h-15.355c-0.446 0-0.806 0.439-0.806 0.925l2.015 2.327c0 0 0.4 0.748 0.845 0.748h10.26v7.5h-3.675c-0.983 0-0.639 1.264-0.256 1.646l5.211 5.337c0.384 0.384 1.006 0.419 1.389 0.035l5.21-5.389c0.383-0.382 0.727-1.628-0.256-1.628zM18.523 21.5h-10.024v-7.5h3.438c0.983 0 0.639-1.213 0.257-1.596l-5.211-5.311c-0.383-0.383-1.005-0.405-1.389-0.022l-5.21 5.344c-0.384 0.383-0.727 1.585 0.256 1.585h3.86v10.591c0 0.485 0.278 0.909 0.723 0.909h15.355c0.446 0 0.806-0.389 0.806-0.875l-2.015-2.353c0 0-0.4-0.773-0.846-0.773z"></path>
</svg>
