<!-- Generated by IcoMoon.io -->
<svg version="1.1" xmlns="http://www.w3.org/2000/svg" width="32" height="32" viewBox="0 0 32 32">
<title>rice-cooker</title>
<path d="M16.265 3.272c2.201 0 3.986 0.247 3.986-0.854s-1.785-1.992-3.986-1.992-3.986 0.892-3.986 1.992c0.001 1.101 1.785 0.854 3.986 0.854zM10.493 16.662c0 0 3.761 1.37 6.044 1.37s5.523-1.37 5.523-1.37 1.913-0.818 1.913-1.826l-1.063-8.813c0-1.009-0.989-2.022-1.998-2.022h-9.291c-1.009 0-1.998 1.013-1.998 2.022l-1.063 8.813c0 1.008 1.934 1.826 1.934 1.826zM14.5 16.5c-0.552 0-1-0.448-1-1s0.448-1 1-1 1 0.448 1 1-0.448 1-1 1zM18 16.5c-0.552 0-1-0.448-1-1s0.448-1 1-1 1 0.448 1 1-0.448 1-1 1zM21.5 13c0.552 0 1 0.448 1 1s-0.448 1-1 1-1-0.448-1-1 0.448-1 1-1zM12.944 6.516c0-0.505 0.495-1.016 0.999-1.016h4.646c0.504 0 0.999 0.511 0.999 1.016l0.532 4.41c0 0.505-0.956 0.913-0.956 0.913s-1.62 0.685-2.762 0.685-3.022-0.685-3.022-0.685-0.967-0.409-0.967-0.913l0.531-4.41zM11 13c0.552 0 1 0.448 1 1s-0.448 1-1 1-1-0.448-1-1 0.448-1 1-1zM31.413 20.851l-1.285-9.398c0-0.105-0.008-0.209-0.020-0.309-0.018 0.005-0.034 0.017-0.053 0.020l-3.946 0.658c-0.273 0.045-0.53-0.139-0.575-0.411s0.138-0.53 0.41-0.575l3.828-0.638c-0.155-0.249-0.352-0.469-0.585-0.649 0.064-0.174 0.1-0.35 0.1-0.53 0-1.35-1.849-2.558-4.761-3.37l0.51 9.784c0 1.175-2.126 2.126-2.126 2.126s-3.721 1.594-6.378 1.594c-2.658 0-6.91-1.594-6.91-1.594s-2.126-0.952-2.126-2.127l0.524-10.056c-3.527 0.8-5.838 2.133-5.838 3.643 0 0.299 0.096 0.591 0.269 0.873-0.075 0.088-0.14 0.182-0.203 0.28 0.159-0.033 0.292-0.051 0.361-0.040l3.946 0.68c0.272 0.046 0.456 0.325 0.41 0.598s-0.303 0.456-0.575 0.411l-3.946-0.703c-0.096-0.016-0.307-0.036-0.535-0.076-0.023 0.133-0.038 0.268-0.038 0.41l-1.285 9.397c0 0.132 0.019 0.229 0.039 0.355-0.023 0.085-0.039 0.157-0.039 0.244 0 0.244 0.384 1.945 0.835 3.566 0.026-0.005 0.050-0.015 0.077-0.015 0 0 10.5 2.5 15 2.5 3.93 0 12.052-1.907 14.049-2.389 0.465-1.654 0.864-3.427 0.864-3.675 0-0.087-0.015-0.174-0.039-0.259 0.020-0.125 0.039-0.194 0.039-0.325zM1.726 26.055c0.32 1.036 0.639 1.877 0.857 2.026 0.237 0.198 0.508 0.349 0.806 0.451 0.293 0.141 0.61 0.289 0.944 0.439-0.336 0.241-0.557 0.634-0.557 1.079 0 0.734 0.595 1.328 1.328 1.328 0.734 0 1.329-0.595 1.329-1.328 0-0.078-0.011-0.153-0.023-0.227 2.425 0.89 5.585 1.677 9.59 1.677s7.165-0.788 9.59-1.68c-0.012 0.075-0.023 0.151-0.023 0.23 0 0.734 0.595 1.329 1.329 1.329 0.733 0 1.329-0.595 1.329-1.328 0-0.447-0.222-0.84-0.56-1.081 0.335-0.151 0.651-0.3 0.946-0.441 0.299-0.102 0.57-0.257 0.807-0.454 0.207-0.141 0.506-0.91 0.81-1.878-2.359 0.588-9.584 2.303-13.727 2.303-4.559 0-13.271-2.078-14.774-2.445z"></path>
</svg>
