<!-- Generated by IcoMoon.io -->
<svg version="1.1" xmlns="http://www.w3.org/2000/svg" width="32" height="32" viewBox="0 0 32 32">
<title>ring</title>
<path d="M20.294 6.731l2.843-2.536-2.727-4.195h-2.117l0.73 2.723c0.064 0.238-0.077 0.483-0.315 0.546s-0.482-0.076-0.546-0.314l-0.791-2.954h-2.742l-0.792 2.954c-0.063 0.238-0.308 0.378-0.546 0.315s-0.379-0.308-0.315-0.546l0.73-2.723h-2.117l-2.726 4.195 2.842 2.536c-5.069 1.774-8.705 6.596-8.705 12.27-0.001 7.179 5.82 12.999 12.999 12.999s12.999-5.82 12.999-12.999c0-5.674-3.636-10.496-8.705-12.27zM16 27.996c-4.968 0-8.995-4.027-8.995-8.995s4.027-8.995 8.995-8.995 8.995 4.028 8.995 8.995c0 4.968-4.027 8.995-8.995 8.995z"></path>
</svg>
