<!-- Generated by IcoMoon.io -->
<svg version="1.1" xmlns="http://www.w3.org/2000/svg" width="32" height="32" viewBox="0 0 32 32">
<title>road</title>
<path d="M31.050 24.6v0 0c-0.050-0.1-0.050-0.2-0.1-0.3l-7.2-18.2c-0.15-0.5-0.6-0.8-1.15-0.8h-5.35c0.2 0 0.4 0.15 0.4 0.4l0.25 3.45c0 0.2-0.2 0.4-0.45 0.4h-3.1c-0.25 0-0.45-0.15-0.45-0.4l0.25-3.45c0-0.2 0.2-0.4 0.4-0.4h-5.2c-0.55 0-1 0.35-1.15 0.8h-0.050l-7.1 18.2c-0.1 0.2-0.2 0.45-0.2 0.7 0 0.85 0.7 1.55 1.55 1.55h10.75c-0.25 0-0.45-0.2-0.45-0.4l0.4-4.55c0-0.2 0.2-0.4 0.45-0.4h4.75c0.2 0 0.4 0.2 0.45 0.4l0.4 4.55c0 0.2-0.2 0.4-0.45 0.4h10.85c0.85 0 1.55-0.7 1.55-1.55 0.050-0.15 0-0.3-0.050-0.4zM18.1 18h-4.3c-0.25 0-0.5-0.2-0.45-0.4l0.45-5.6c0-0.2 0.2-0.4 0.45-0.4h3.45c0.2 0 0.4 0.2 0.45 0.4l0.45 5.6c0 0.25-0.25 0.4-0.5 0.4z"></path>
</svg>
