<!-- Generated by IcoMoon.io -->
<svg version="1.1" xmlns="http://www.w3.org/2000/svg" width="32" height="32" viewBox="0 0 32 32">
<title>rocket</title>
<path d="M30.844 1.224c-0.384-0.383-8.717-1.89-13.404 2.796-1.66 1.66-3.662 3.918-5.366 6.33l-4.092-0.799c-0.566-0.111-1.23 0.198-1.485 0.688l-3.921 7.541c-0.255 0.49-0.003 0.977 0.562 1.087l4.604 0.899c0.207 0.041 0.426 0.023 0.634-0.036 0.107 1.026 0.494 1.948 1.254 2.707s1.681 1.146 2.707 1.253c-0.059 0.209-0.076 0.427-0.036 0.634l0.899 4.605c0.111 0.565 0.597 0.817 1.088 0.562l7.541-3.921c0.489-0.255 0.798-0.919 0.688-1.485l-0.799-4.092c2.413-1.704 4.67-3.706 6.331-5.366 4.685-4.688 3.119-13.080 2.796-13.404zM26.248 10.063c-1.172 1.171-3.072 1.171-4.242 0-1.172-1.171-1.172-3.071 0-4.242s3.071-1.171 4.242 0c1.171 1.171 1.171 3.072 0 4.242zM10.373 24.846c-0.081-0.081-0.188-0.134-0.307-0.145-0.22-0.020-0.428 0.107-0.511 0.313-0.143 0.36-0.358 0.684-0.638 0.965-0.711 0.711-3.022 1.311-4.431 1.604 0.293-1.41 0.893-3.721 1.603-4.431 0.28-0.28 0.605-0.495 0.965-0.639 0.206-0.082 0.333-0.29 0.313-0.511-0.011-0.119-0.064-0.227-0.144-0.308-0.069-0.069-0.157-0.117-0.258-0.137-1.475-0.29-2.99 0.172-4.052 1.233-1.643 1.643-2.207 7.432-2.265 8.087-0.013 0.148 0.039 0.294 0.144 0.398s0.251 0.157 0.398 0.145c0.655-0.059 6.444-0.623 8.087-2.265 1.062-1.062 1.522-2.576 1.233-4.052-0.021-0.101-0.069-0.189-0.137-0.258z"></path>
</svg>
