<!-- Generated by IcoMoon.io -->
<svg version="1.1" xmlns="http://www.w3.org/2000/svg" width="32" height="32" viewBox="0 0 32 32">
<title>roken-arm</title>
<path d="M21.403 5.403c0 2.984-2.419 5.403-5.403 5.403s-5.403-2.419-5.403-5.403c0-2.984 2.419-5.403 5.403-5.403s5.403 2.419 5.403 5.403zM24.713 11.787v16.358c0 0.14-0.114 0.255-0.255 0.255h-13.254c-0.14 0-0.422 0-0.255-0.255l11.893-16.378h-15.133c-2.572 0-4.657 2.085-4.657 4.657v14.797c0 0.431 0.35 0.78 0.781 0.78h24.331c0.431 0 0.781-0.349 0.781-0.78v-14.796c0-2.429-1.86-4.421-4.233-4.636zM7.559 28.395c-0.479 0.030-0.833-0.145-0.844-0.446-0.013-0.337 0.431-0.445 0.431-0.445l1.538-0.301c0 0-1.891 0.101-2.319 0.083s-0.731-0.253-0.689-0.552c0.048-0.348 0.583-0.389 0.583-0.389l2.205-0.157-0.003-0.013c0 0-2.046-0.107-2.441-0.12s-0.684-0.207-0.606-0.561c0.079-0.356 0.647-0.343 0.647-0.343 0.327-0.050 2.53-0.047 2.53-0.047l-0.002-0.052c-0.322-0.011-1.005-0.178-2.010-0.389-0.652-0.138-0.518-0.517-0.518-0.517 0.061-0.421 0.742-0.342 0.742-0.342 0.74 0.006 1.138 0.082 1.552 0.114 0.642 0.047 1.146 0.096 1.381 0.13-0.186-0.221-0.466-0.511-0.797-0.7-0.565-0.32-0.844-0.709-0.504-1.070 0.321-0.34 1.377 0.177 1.377 0.177 0.751 0.373 1.334 0.904 1.746 1.38-0.004 0.041 0.156 0.072 0.412 0.093l-3.274 4.368c-0.481 0.049-0.919 0.087-1.141 0.101z"></path>
</svg>
