<!-- Generated by IcoMoon.io -->
<svg version="1.1" xmlns="http://www.w3.org/2000/svg" width="32" height="32" viewBox="0 0 32 32">
<title>roller-skate</title>
<path d="M29 23.039v-1.438c-2 0.727-7.111 1.8-24.174 0.987 0 0-0.281-0.054-0.635-0.235l-0.159 0.636c-0.072-0.005-0.143-0.011-0.216-0.011-2.043 0-3.699 1.657-3.699 3.698s1.656 3.698 3.699 3.698 3.698-1.657 3.698-3.698c0-0.82-0.27-1.575-0.721-2.189l1.114-1.112 1.164 1.038c-0.485 0.625-0.777 1.409-0.777 2.261 0 2.043 1.655 3.698 3.698 3.698s3.698-1.657 3.698-3.698c0-0.851-0.29-1.633-0.774-2.258l1.163-1.033 1.163 1.033c-0.483 0.625-0.773 1.407-0.773 2.258 0 2.043 1.655 3.698 3.698 3.698s3.698-1.657 3.698-3.698c0-0.777-0.241-1.497-0.65-2.093l1.040-0.809 0.997 0.873c-0.384 0.583-0.608 1.279-0.608 2.029 0 2.043 1.655 3.698 3.698 3.698s3.698-1.657 3.698-3.698c0.002-1.818-1.311-3.327-3.040-3.637zM6.406 26.677c0 1.43-1.159 2.59-2.59 2.59s-2.589-1.159-2.589-2.59c0-1.409 1.127-2.55 2.53-2.582l-0.339 1.357c-0.519 0.169-0.896 0.651-0.896 1.226 0 0.715 0.579 1.294 1.294 1.294s1.295-0.579 1.295-1.294c0-0.152-0.031-0.296-0.079-0.43l0.963-0.96c0.258 0.402 0.412 0.878 0.412 1.391zM14.581 26.677c0 1.43-1.159 2.59-2.589 2.59s-2.589-1.159-2.589-2.59c0-0.57 0.19-1.091 0.501-1.518l0.974 0.869c-0.112 0.192-0.181 0.411-0.181 0.649 0 0.715 0.58 1.294 1.295 1.294s1.294-0.579 1.294-1.294c0-0.237-0.069-0.456-0.179-0.648l0.976-0.867c0.31 0.427 0.498 0.947 0.498 1.515zM22.758 26.677c0 1.43-1.16 2.59-2.59 2.59s-2.589-1.159-2.589-2.59c0-0.568 0.189-1.089 0.498-1.515l0.976 0.867c-0.112 0.192-0.18 0.41-0.18 0.648 0 0.715 0.58 1.294 1.294 1.294s1.295-0.579 1.295-1.294c0-0.22-0.060-0.425-0.157-0.607l1.031-0.802c0.264 0.406 0.421 0.889 0.421 1.409zM28.344 29.265c-1.43 0-2.59-1.159-2.59-2.59 0-0.469 0.134-0.903 0.352-1.282l1.011 0.884c-0.041 0.127-0.069 0.259-0.069 0.398 0 0.715 0.579 1.294 1.295 1.294s1.294-0.579 1.294-1.294c0-0.474-0.258-0.886-0.639-1.111v-1.384c1.111 0.291 1.933 1.293 1.933 2.494 0 1.43-1.158 2.59-2.588 2.59zM4.173 20.8l0.634-2.422-0.615 2.419c0.354 0.18 0.644 0.235 0.644 0.235 17.063 0.813 22.164-0.26 24.164-0.988 0.5-0.318 0.743-0.57 0.743-0.57 0-2.726-2.354-3.114-2.354-3.114-1.067-0.237-2.023-0.511-2.866-0.806l-1.35 1.572c-0.14 0.163-0.388 0.183-0.552 0.043s-0.183-0.386-0.044-0.549l1.159-1.354c-0.523-0.207-1-0.419-1.433-0.635l-1.471 1.717c-0.14 0.163-0.386 0.183-0.55 0.043-0.163-0.14-0.181-0.386-0.041-0.55l1.355-1.582c-0.605-0.339-1.109-0.674-1.523-0.986l-1.967 2.296c-0.14 0.163-0.387 0.181-0.549 0.042s-0.182-0.386-0.043-0.549l1.954-2.281c-0.764-0.671-1.058-1.238-1.058-1.238-0.473-0.335-0.817-2.541-1.059-4.042h-6.527c0 0-0.324 0-0.324-0.5s0.324-0.5 0.324-0.5h6.334c-0.029 0-0.054-1-0.078-1h-6.256c0 0-0.324 0-0.324-0.5s0.324-0.5 0.324-0.5h6.131c-0.068-1-0.097-1.836-0.097-2.052 0-0.779-0.389-1.22-0.389-1.22-5.451-1.946-10.293-0.415-10.836 0.125-0.542 0.54-0.455 5.285-0.455 5.285-0.389 4.673-1.946 6.953-1.946 6.953-2.051 4.944-0.134 6.66 0.941 7.209z"></path>
</svg>
