<!-- Generated by IcoMoon.io -->
<svg version="1.1" xmlns="http://www.w3.org/2000/svg" width="32" height="32" viewBox="0 0 32 32">
<title>Rolled-paper</title>
<path d="M11.435 2.79c-6.316 0-11.435 1.563-11.435 3.489s5.12 3.489 11.435 3.489c6.315 0 11.435-1.562 11.435-3.489 0-1.926-5.12-3.489-11.435-3.489zM11.435 7.348c-1.934 0-3.503-0.479-3.503-1.069s1.569-1.069 3.503-1.069 3.504 0.479 3.504 1.069c0 0.59-1.569 1.069-3.503 1.069zM11.435 11.5c-2.12 0-4.096-0.179-5.798-0.486v2.874c0 0.313-0.253 0.565-0.566 0.565s-0.564-0.252-0.564-0.565v-3.106c-2.735-0.638-4.507-1.64-4.507-2.772v17.428c0 1.927 5.12 3.771 11.435 3.771s11.435-1.844 11.435-3.771v-17.428c0 1.928-5.12 3.49-11.435 3.49zM5.637 26.081c0 0.313-0.253 0.566-0.566 0.566s-0.564-0.253-0.564-0.566v-3.454c0-0.311 0.253-0.565 0.564-0.565 0.313 0 0.566 0.253 0.566 0.565v3.454zM5.637 19.985c0 0.312-0.253 0.566-0.566 0.566s-0.564-0.253-0.564-0.566v-3.456c0-0.313 0.253-0.566 0.564-0.566 0.313 0 0.566 0.253 0.566 0.566v3.456zM31.384 4.263h-8.786c1.634 0.458 1.648 1.454 1.648 3.13v18.348h7.137c0.34 0 0.616-0.277 0.616-0.617v-20.243c0-0.341-0.276-0.617-0.616-0.617z"></path>
</svg>
