<!-- Generated by IcoMoon.io -->
<svg version="1.1" xmlns="http://www.w3.org/2000/svg" width="32" height="32" viewBox="0 0 32 32">
<title>rouble</title>
<path d="M27.224 3.93c-1.108-1.442-2.485-2.377-4.128-2.808-0.958-0.258-2.901-0.399-5.823-0.425l-0.003-0.005h-10.354v12.93h-3.802v4.957h3.802v1.529h-3.802v4.956h3.802v6.244h5.792v-6.244h11.416v-4.956h-11.416v-1.529h4.386l0.014-0.027c2.314-0.020 4.113-0.155 5.383-0.407 1.017-0.222 2.018-0.675 3.003-1.36s1.797-1.627 2.436-2.828c0.64-1.2 0.959-2.68 0.959-4.441 0-2.282-0.554-4.144-1.663-5.585zM22.264 11.825c-0.437 0.639-1.040 1.108-1.809 1.409-0.486 0.19-1.276 0.319-2.366 0.389h-5.381v-7.973h6.238c0.293 0.026 0.538 0.056 0.727 0.092 0.939 0.17 1.715 0.593 2.328 1.271s0.919 1.54 0.919 2.583c0 0.848-0.218 1.591-0.655 2.23z"></path>
</svg>
