<!-- Generated by IcoMoon.io -->
<svg version="1.1" xmlns="http://www.w3.org/2000/svg" width="32" height="32" viewBox="0 0 32 32">
<title>rss-sqaure</title>
<path d="M27.5 1h-23.5c-1.657 0-3 1.343-3 3v24c0 1.657 1.343 3 3 3h24c1.657 0 3-1.343 3-3v-24c0-1.657-1.843-3-3.5-3zM8.525 25.983c-1.357 0-2.457-1.1-2.457-2.457s1.1-2.457 2.457-2.457 2.457 1.099 2.457 2.457c-0.001 1.357-1.101 2.457-2.457 2.457zM18.59 25.357c-0.132 0.134-0.312 0.143-0.5 0.143h-2.914c-0.382 0-0.704-0.119-0.701-0.5 0.018-4.927-3.006-7-7.103-7-0.016 0-0.191 0-0.225 0-0.005 0-0.009 0-0.013 0-0.184 0-0.327-0.284-0.458-0.413-0.135-0.133-0.176-0.524-0.176-0.713v-2.216c0-0.384 0.274-0.697 0.659-0.702l0.024-0.001c0.038-0.002 0.076-0.004 0.115-0.002 3.684 0.097 5.468 0.412 7.896 2.537 2.809 2.457 3.51 5.6 3.598 8.398 0.006 0.188-0.070 0.335-0.201 0.469zM26.215 25.358c-0.131 0.134-0.311 0.142-0.498 0.142h-2.54c-0.386 0-0.706-0.264-0.703-0.649 0.092-8.773-5.997-14.851-15.102-14.851-0.026 0-0.229 0-0.229 0-0.003 0-0.006 0-0.008 0-0.185 0-0.328-0.112-0.459-0.242-0.134-0.132-0.175-0.35-0.175-0.538v-2.541c0-0.386 0.277-0.7 0.663-0.702l0.030-0.001c0.035-0.001 0.070-0.002 0.105-0.002 5.265 0 9.776 1.558 13.514 5.266 3.734 3.705 5.561 8.392 5.607 13.651 0.002 0.187-0.072 0.334-0.203 0.467z"></path>
</svg>
