<!-- Generated by IcoMoon.io -->
<svg version="1.1" xmlns="http://www.w3.org/2000/svg" width="32" height="32" viewBox="0 0 32 32">
<title>Running-with-obstacles</title>
<path d="M25.166 4c0 2.025-1.642 3.667-3.666 3.667s-3.666-1.642-3.666-3.667c0-2.025 1.642-3.667 3.666-3.667s3.666 1.642 3.666 3.667zM30.27 19.771c-0.561-0.087-1.441-0.43-2.372-0.794-1.053-0.41-2.247-0.876-3.483-1.177-2.365-0.577-4.95-1.073-6.983-1.43 1.42-1.158 2.312-2.22 2.68-3.182 0.666 0.146 1.483 0.259 2.412 0.259 2.23 0 5.106-0.655 8.084-3.092 0.748-0.612 0.858-1.714 0.247-2.463s-1.715-0.857-2.462-0.247c-4.058 3.319-7.677 2.164-8.459 1.854-7.37-6.101-12.277-2.555-12.483-2.399-0.773 0.58-0.93 1.677-0.35 2.45s1.677 0.931 2.45 0.35c0.027-0.020 2.638-1.771 7.274 1.613-0.055 0.191-0.083 0.392-0.070 0.594-0.195 0.336-1.017 1.432-4.181 3.409-2.346 1.466-4.421 2.001-6.167 1.591-1.935-0.455-2.865-1.941-2.894-1.989-0.487-0.835-1.559-1.117-2.393-0.63s-1.117 1.558-0.63 2.393c0.165 0.283 1.71 2.791 5.028 3.61 0.676 0.166 1.369 0.25 2.079 0.25 1.757 0 3.618-0.519 5.558-1.535 0.031 0.006 0.061 0.019 0.093 0.023 0.057 0.009 5.736 0.846 10.339 1.969 1.011 0.247 2.043 0.649 3.041 1.038 1.114 0.434 2.166 0.845 3.103 0.991 0.091 0.015 0.183 0.021 0.273 0.021 0.847 0 1.592-0.616 1.727-1.48 0.149-0.954-0.504-1.849-1.459-1.998zM14.75 22.25c-0.415 0-0.75 0.335-0.75 0.75v7.5h-1.5c-0.415 0-0.75 0.335-0.75 0.75s0.335 0.75 0.75 0.75h2.25c0.415 0 0.75-0.335 0.75-0.75v-8.25c0-0.415-0.335-0.75-0.75-0.75z"></path>
</svg>
