<!-- Generated by IcoMoon.io -->
<svg version="1.1" xmlns="http://www.w3.org/2000/svg" width="32" height="32" viewBox="0 0 32 32">
<title>rupee</title>
<path d="M20.146 5.934c-0.219-0.431-0.445-0.785-0.677-1.065h6.496l1.097-4.33h-22.124v4.33h3.78c0.231 0.009 0.464 0.016 0.691 0.027 0.784 0.043 1.492 0.146 2.127 0.31s1.181 0.41 1.636 0.738c0.457 0.328 0.771 0.994 0.941 1.564h-9.176v4.33h9.197c-0.185 0.627-0.527 1.303-1.027 1.666s-1.052 0.642-1.657 0.835c-0.607 0.193-1.216 0.317-1.829 0.374s-1.12 0.085-1.518 0.085h-3.166v4.727l10.738 11.935h7.573l-11.637-12.277c1.127-0.099 2.196-0.338 3.209-0.716s1.918-0.873 2.717-1.486c0.799-0.613 1.464-1.337 1.999-2.171s0.889-1.945 1.059-2.971h5.369l1.097-4.33h-6.466c-0.072-0.457-0.221-1.126-0.45-1.575z"></path>
</svg>
