<!-- Generated by IcoMoon.io -->
<svg version="1.1" xmlns="http://www.w3.org/2000/svg" width="32" height="32" viewBox="0 0 32 32">
<title>sahare-alt-square</title>
<path d="M27.5 1h-23.5c-1.657 0-3 1.343-3 3v24c0 1.657 1.343 3 3 3h24c1.657 0 3-1.343 3-3v-24c0-1.657-1.843-3-3.5-3zM13.756 16.024c0 0.226-0.023 0.445-0.057 0.66l5.699 2.849c0.749-0.779 1.8-1.265 2.966-1.265 2.276 0 4.119 1.844 4.119 4.119s-1.844 4.12-4.119 4.12c-2.275 0-4.119-1.845-4.119-4.12 0-0.165 0.012-0.326 0.032-0.485l-5.799-2.899c-0.739 0.704-1.738 1.14-2.84 1.14-2.276 0-4.119-1.844-4.119-4.119s1.844-4.12 4.119-4.12c1.13 0 2.154 0.456 2.898 1.193l5.758-2.75c-0.029-0.195-0.048-0.394-0.048-0.597 0-2.275 1.844-4.12 4.119-4.12s4.119 1.845 4.119 4.12-1.844 4.119-4.119 4.119c-1.125 0-2.144-0.452-2.887-1.184l-5.766 2.755c0.027 0.191 0.046 0.385 0.046 0.584z"></path>
</svg>
