<!-- Generated by IcoMoon.io -->
<svg version="1.1" xmlns="http://www.w3.org/2000/svg" width="32" height="32" viewBox="0 0 32 32">
<title>salami</title>
<path d="M8.85 11.85c0 0.663-0.492 1.2-1.1 1.2s-1.1-0.537-1.1-1.2c0-0.663 0.492-1.2 1.1-1.2s1.1 0.537 1.1 1.2zM6.050 19.55c0 0.663-0.492 1.2-1.1 1.2s-1.1-0.537-1.1-1.2c0-0.663 0.493-1.2 1.1-1.2s1.1 0.537 1.1 1.2zM10.35 16.4c0 0.663-0.492 1.2-1.1 1.2s-1.1-0.537-1.1-1.2c0-0.663 0.492-1.2 1.1-1.2s1.1 0.537 1.1 1.2zM5.65 15.2c0 0.414-0.313 0.75-0.7 0.75s-0.7-0.336-0.7-0.75c0-0.414 0.313-0.75 0.7-0.75s0.7 0.336 0.7 0.75zM12.45 12.6c0 0.414-0.313 0.75-0.7 0.75s-0.7-0.336-0.7-0.75c0-0.414 0.313-0.75 0.7-0.75s0.7 0.336 0.7 0.75zM9.55 20.55c0 0.414-0.313 0.75-0.7 0.75s-0.7-0.336-0.7-0.75c0-0.414 0.313-0.75 0.7-0.75s0.7 0.336 0.7 0.75zM31 15.2l-0.5-0.2c0 0-0.55-0.1-0.3-0.5l0.6-0.95c0.35-0.6-0.1-1.1-0.1-1.1-0.15-0.15-0.7-0.2-0.75-0.2-0.85 0.1-1.8 0.6-2.6 1.2-0.35-1.3-1-2.65-1.1-2.9-1.5-2.65-4-4.4-6.85-4.4h-9.15c0 0-0.25 0-0.4 0-3.15 0-6.4 2.5-8.25 6.35-1.15 2.4-1.65 5-1.3 7.35 0.35 2.5 1.5 4.4 3.25 5.35 0.8 0.45 1.5 0.7 2.4 0.7 0 0 0.2 0 0.2 0h13.25c2.95 0 5.55-1.9 7-4.7 0.25-0.45 0.55-1.1 1.050-2.050 0.8 0.55 1.7 1.050 2.55 1.15 0.050 0 0.6-0.050 0.75-0.2 0 0 0.45-0.5 0.1-1.1l-0.7-1c-0.2-0.45 0.3-0.5 0.3-0.5l0.55-0.15c0.45-0.1 0.9-0.55 1-1.050-0.050-0.55-0.55-1-1-1.1zM12.5 18.5c-1.5 3.050-4.050 5.1-6.4 5.1-0.6 0-1.15-0.15-1.65-0.4-1.15-0.65-1.9-1.95-2.15-3.7-0.25-1.9 0.15-4 1.1-6 1.5-3.050 4.050-5.1 6.4-5.1 0.6 0 1.15 0.15 1.65 0.4 1.15 0.65 1.9 1.95 2.15 3.7 0.3 1.85-0.1 4-1.1 6zM23.35 11.6c-0.35 0.2-0.7 0.15-0.9-0.1-0.65-0.95-1.35-1.7-2.6-1.8h-4.8c-0.4 0-0.7-0.35-0.7-0.7s0.3-0.7 0.7-0.7h5.050c0 0 0.050 0 0.050 0s0.050 0 0.050 0c1.35 0 2.75 1 3.4 2.2 0.15 0.3 0.25 0.8-0.25 1.1z"></path>
</svg>
