<!-- Generated by IcoMoon.io -->
<svg version="1.1" xmlns="http://www.w3.org/2000/svg" width="32" height="32" viewBox="0 0 32 32">
<title>salad</title>
<path d="M3.85 16.15l1.45-1c0.35-0.25 0.25-0.75-0.2-0.85l-1.75-0.3c-0.3-0.050-0.55 0.15-0.55 0.45 0 0.55 0.1 1.050 0.3 1.5 0.15 0.25 0.5 0.35 0.75 0.2zM3.45 13.5l1.65 0.3c0.4 0.1 0.7-0.4 0.45-0.75l-0.95-1.4c-0.15-0.25-0.55-0.25-0.75-0.050-0.35 0.35-0.6 0.75-0.8 1.25-0.050 0.3 0.15 0.6 0.4 0.65zM6 12.8c0.25 0.35 0.75 0.25 0.85-0.2l0.3-1.7c0.050-0.3-0.15-0.55-0.45-0.55-0.5 0-1 0.15-1.5 0.35-0.25 0.1-0.35 0.45-0.2 0.7l1 1.4zM31.15 17.65c0.5-0.65 0.8-1.45 0.8-2.3 0-2-1.65-3.65-3.65-3.65-0.3 0-0.55 0.050-0.85 0.1-0.7-1.45-2.15-2.35-3.8-2.25-1.5 0.050-2.8 0.95-3.45 2.3-0.25-0.050-0.55-0.1-0.8-0.1-2 0-3.65 1.65-3.65 3.65 0 0.7 0.2 1.35 0.55 1.95h-1.45c0.15-0.35 0.25-0.75 0.25-1.15 0-1.55-1.25-2.8-2.8-2.8s-2.8 1.25-2.8 2.8c0 0.4 0.1 0.8 0.25 1.15h-1.45l1.7-9.1-1.2-0.35c-0.15-0.050-0.35-0.1-0.55-0.15-0.4-0.1-0.8-0.1-1.25-0.1-1.35 0-2.65 0.4-3.75 1.2-1.45 1-2.45 2.55-2.8 4.3v0.050c-0.25 1.45 0 2.9 0.6 4.15-0.6 0.050-1.1 0.65-1.1 1.25 0 0.65 0.55 1.25 1.2 1.25h0.35c0.2 1.35 1.050 4.9 5.2 8h-0.050v0.7c0 0.5 0.5 1.1 1 1.1h16.15c0.5 0 1.050-0.6 1.050-1.1v-0.55c3.9-3.4 4.8-6.75 5-8.15h0.6c0.65 0 1.2-0.6 1.2-1.25-0.050-0.3-0.2-0.7-0.5-0.95zM11.050 15.4c0.15-0.3 0.35-0.55 0.65-0.7s0.65-0.050 0.75 0.2c0.1 0.25 0 0.45-0.15 0.55-0.2 0.1-0.35 0.3-0.45 0.5s-0.3 0.3-0.55 0.25c-0.2-0.15-0.35-0.5-0.25-0.8zM2.050 13.55v-0.050c0.45-2.4 2.55-4.15 5-4.15 0.3 0 0.65 0.050 0.95 0.1 0.1 0 0.15 0.050 0.25 0.050l-1.45 7.95h-0.8l0.25-1.3c0.1-0.4-0.4-0.7-0.75-0.45l-1.35 0.95c-0.25 0.15-0.3 0.5-0.050 0.7 0.050 0.050 0.1 0.1 0.15 0.1h-1.3c-0.8-1.15-1.15-2.5-0.9-3.9zM9.6 26.9c-0.2 0.25-0.55 0.3-0.85 0.1-2.25-1.3-4.050-3.5-5-6.1-0.15-0.45 0.15-0.9 0.65-0.9 0.3 0 0.55 0.2 0.65 0.5 0.95 2.65 2.7 4.35 4.4 5.35 0.4 0.2 0.45 0.7 0.15 1.050zM18.75 17.4c-0.8-0.3-1.35-1.050-1.35-1.95 0-1.15 0.95-2.050 2.050-2.050 0.35 0 0.65 0.1 0.95 0.25l0.9 0.45 0.2-1c0.25-1.050 1.15-1.85 2.25-1.9 1.15-0.050 2.2 0.75 2.45 1.85l0.25 1 0.9-0.45c0.3-0.15 0.6-0.25 0.95-0.25 1.15 0 2.050 0.95 2.050 2.050 0 0.95-0.65 1.75-1.55 2h-10.050zM23.9 13c-0.25 0-0.5 0.2-0.5 0.5v2.25c0 0.25 0.2 0.5 0.5 0.5 0.25 0 0.5-0.2 0.5-0.5v-2.25c-0.050-0.25-0.25-0.5-0.5-0.5zM19.75 14.75c-0.2-0.2-0.5-0.15-0.7 0-0.2 0.2-0.15 0.5 0 0.7l0.95 0.85c0.2 0.2 0.5 0.15 0.7 0 0.2-0.2 0.15-0.5 0-0.7l-0.95-0.85zM28.7 14.75c-0.2-0.2-0.5-0.2-0.7 0l-0.95 0.85c-0.2 0.2-0.2 0.5 0 0.7s0.5 0.2 0.7 0l0.95-0.85c0.15-0.2 0.2-0.5 0-0.7zM12.6 12.050l4.15-6.8c0.15-0.25 0.5-0.3 0.7-0.15 0.25 0.15 0.3 0.5 0.15 0.7l-3.95 6.4c0.6 0.2 1.15 0.5 1.55 0.95 0.050 0 0.050-0.050 0.1-0.050 0.5-1.55 1.95-2.65 3.65-2.7 1.3-1.75 1.95-4.3 1.050-8.15-9.050 0.4-9.45 7.050-9.1 10.2 0.5-0.3 1.050-0.4 1.7-0.4z"></path>
</svg>
