<!-- Generated by IcoMoon.io -->
<svg version="1.1" xmlns="http://www.w3.org/2000/svg" width="32" height="32" viewBox="0 0 32 32">
<title>salon</title>
<path d="M31.32 30h-1.32v-14.5h1.5v-2.5h-9.889c0.127 0 0.23-0.319 0.305-0.52 0.203-0.54 0.183-1.111-0.055-1.637-0.35-0.771-1.123-1.261-1.97-1.261-0.309 0-0.61 0.070-0.892 0.198-0.433 0.197-0.781 0.524-1.004 0.934l-0.945-2.081 2.788-6.143c0.212-0.469-0.288-1.86-0.447-2.276-0.041-0.108-0.052-0.134-0.107-0.158l-0.126-0.056-3.013 6.641-3.013-6.641-0.127 0.056c-0.055 0.025-0.065 0.050-0.106 0.159-0.159 0.415-0.659 1.807-0.447 2.276l2.788 6.144-0.944 2.082c-0.223-0.41-0.572-0.736-1.004-0.931-0.283-0.129-0.583-0.194-0.893-0.194-0.847 0-1.62 0.498-1.97 1.269-0.239 0.527-0.258 1.080-0.055 1.62 0.075 0.201 0.178 0.52 0.306 0.52h-9.182v2.5h0.5v14.5h-1.026c-0.375 0-0.974 0.093-0.974 0.469v1.531h32v-1.532c0-0.376-0.304-0.468-0.68-0.468zM6.581 16.171c0.689 0 1.25 0.559 1.25 1.25s-0.56 1.25-1.25 1.25c-0.691 0-1.25-0.559-1.25-1.25s0.559-1.25 1.25-1.25zM10 28.111c0 0.491-0.399 0.889-0.889 0.889h-3.22c-0.492 0-0.89-0.398-0.89-0.889v-6.722c0-0.491 0.399-0.889 0.889-0.889h3.221c0.492 0 0.89 0.398 0.89 0.889v6.722zM14.37 12.613c0.034-0.075 0.065-0.139 0.095-0.238l1.268-2.781 0.415-0.217 0.414 0.223 1.268 2.79c0.031 0.098 0.061 0.146 0.095 0.222 0.070 0.152 0.155 0.388 0.254 0.388h-4.060c0.099 0 0.184-0.235 0.253-0.387zM16.5 20.348c1.5 0.208 2.897 1.652 3.264 2.652h-3.264v-2.652zM11.357 12.146c-0.105-0.28-0.095-0.582 0.028-0.854 0.18-0.398 0.579-0.655 1.017-0.655 0.159 0 0.314 0.033 0.46 0.1 0.272 0.123 0.479 0.345 0.584 0.624s0.095 0.582-0.029 0.854c-0.18 0.399-0.579 0.655-1.017 0.655-0.159 0-0.313-0.034-0.46-0.1-0.272-0.123-0.479-0.345-0.584-0.623zM11.708 17.42c0-0.69 0.559-1.25 1.25-1.25s1.25 0.559 1.25 1.25c0 0.691-0.56 1.25-1.25 1.25s-1.25-0.559-1.25-1.25zM15.5 30h-3.5v-2.5h3.5v2.5zM15.5 26h-3.5v-1.5h3.5v1.5zM15.5 23h-2.97c0.367-1 1.47-2.444 2.97-2.652v2.652zM20 30h-3.5v-2.5h3.5v2.5zM20 26h-3.5v-1.5h3.5v1.5zM19.335 18.67c-0.691 0-1.25-0.559-1.25-1.25s0.559-1.25 1.25-1.25c0.69 0 1.25 0.559 1.25 1.25s-0.559 1.25-1.25 1.25zM20.938 12.146c-0.105 0.278-0.312 0.501-0.584 0.623-0.146 0.066-0.3 0.1-0.46 0.1-0.438 0-0.837-0.257-1.017-0.655-0.123-0.271-0.134-0.575-0.029-0.854s0.312-0.501 0.584-0.624c0.146-0.067 0.302-0.1 0.46-0.1 0.438 0 0.837 0.257 1.017 0.655 0.123 0.271 0.134 0.574 0.029 0.854zM25.712 16.171c0.691 0 1.25 0.559 1.25 1.25s-0.559 1.25-1.25 1.25c-0.691 0-1.25-0.559-1.25-1.25s0.559-1.25 1.25-1.25zM27.5 28.111c0 0.491-0.398 0.889-0.89 0.889h-3.22c-0.491 0-0.89-0.398-0.89-0.889v-6.722c0-0.491 0.398-0.889 0.89-0.889h3.22c0.491 0 0.89 0.398 0.89 0.889v6.722z"></path>
</svg>
