<!-- Generated by IcoMoon.io -->
<svg version="1.1" xmlns="http://www.w3.org/2000/svg" width="32" height="32" viewBox="0 0 32 32">
<title>sandwich</title>
<path d="M5.15 22.25c0.5 0 0.7 0.15 1.1 0.45 0.5 0.4 1.2 0.9 2.45 0.9s1.95-0.5 2.45-0.9c0.4-0.3 0.6-0.45 1.1-0.45s0.7 0.15 1.1 0.45c0.5 0.4 1.2 0.9 2.45 0.9s1.95-0.5 2.45-0.9c0.4-0.3 0.6-0.45 1.1-0.45s0.7 0.15 1.1 0.45c0.5 0.4 1.2 0.9 2.45 0.9s1.95-0.5 2.45-0.9c0.4-0.3 0.6-0.45 1.1-0.45s0.7 0.15 1.1 0.45c0.5 0.4 1.2 0.9 2.45 0.9v-2.25c-0.5 0-0.7-0.15-1.1-0.45-0.5-0.4-1.2-0.9-2.45-0.9s-1.95 0.5-2.45 0.9c-0.4 0.3-0.6 0.45-1.1 0.45s-0.7-0.15-1.1-0.45c-0.35-0.4-1-0.9-2.3-0.9-1.25 0-1.95 0.5-2.45 0.9-0.4 0.3-0.6 0.45-1.1 0.45s-0.7-0.15-1.1-0.45c-0.5-0.4-1.2-0.9-2.45-0.9s-1.95 0.5-2.45 0.9c-0.4 0.3-0.6 0.45-1.1 0.45s-0.7-0.15-1.1-0.45c-0.5-0.4-1.2-0.9-2.45-0.9s-1.95 0.5-2.45 0.9c-0.4 0.3-0.6 0.45-1.1 0.45v2.25c1.25 0 1.95-0.5 2.45-0.9 0.25-0.3 0.45-0.45 0.95-0.45zM3 15h25.85c1.1 0 1.6-1.35 0.75-2.050l-10.55-9.2c-1-0.85-2.45-0.95-3.5-0.2l-13.2 9.3c-0.95 0.65-0.5 2.15 0.65 2.15zM1.8 16.7h28.7v2h-28.7v-2zM29.65 24.75h-27c-0.5 0-0.85 0.4-0.85 0.85v2.45c0 0.5 0.4 0.85 0.85 0.85h26.95c0.5 0 0.85-0.4 0.85-0.85v-2.45c0.050-0.5-0.35-0.85-0.8-0.85z"></path>
</svg>
