<!-- Generated by IcoMoon.io -->
<svg version="1.1" xmlns="http://www.w3.org/2000/svg" width="32" height="32" viewBox="0 0 32 32">
<title>sandals</title>
<path d="M23.834 0.302c-2.345-0.697-7.253-0.615-7.309 5.037-0.055 5.652 2.081 8.259 1.018 12.971-0.848 3.758-2.722 7.785 2.629 8.509 5.664 0.766 5.366-2.837 5.642-6.453 0.274-3.615 1.587-8.377 2.39-10.575 1.462-4.002-0.012-8.194-4.37-9.488zM26.032 14.331c-0.047 0.182-0.211 0.303-0.391 0.303-0.034 0-0.067-0.005-0.102-0.013-0.217-0.056-0.346-0.277-0.291-0.493 0.8-3.089 0.636-5.469-0.489-7.077-0.607-0.867-1.386-1.342-2.021-1.609-0.159 0.545-0.657 0.948-1.253 0.948-0.488 0-0.908-0.269-1.134-0.664-0.502 0.341-0.89 0.78-1.155 1.321-1.204 2.456 0.346 6.167 0.363 6.205 0.087 0.206-0.009 0.443-0.215 0.53-0.206 0.086-0.443-0.008-0.531-0.214-0.070-0.165-1.709-4.092-0.345-6.878 0.382-0.779 0.962-1.386 1.726-1.822 0.101-0.623 0.637-1.101 1.291-1.101 0.536 0 0.995 0.323 1.198 0.785 0.794 0.271 1.903 0.843 2.739 2.037 1.268 1.81 1.473 4.415 0.61 7.745zM15.474 10.416c-0.056-5.652-4.963-5.733-7.309-5.037-4.359 1.295-5.833 5.486-4.37 9.488 0.803 2.198 2.115 6.96 2.39 10.575 0.276 3.616-0.022 7.219 5.642 6.454 5.351-0.724 3.476-4.752 2.628-8.508-1.063-4.712 1.072-7.319 1.018-12.972zM13.186 18.643c-0.088 0.206-0.324 0.3-0.53 0.215-0.206-0.087-0.302-0.325-0.214-0.53 0.016-0.038 1.566-3.757 0.363-6.207-0.264-0.539-0.653-0.977-1.155-1.318-0.226 0.395-0.646 0.664-1.134 0.664-0.598 0-1.095-0.402-1.254-0.948-0.639 0.27-1.426 0.756-2.029 1.621-1.118 1.607-1.282 3.985-0.482 7.066 0.056 0.216-0.074 0.437-0.291 0.493-0.034 0.009-0.068 0.013-0.101 0.013-0.18 0-0.344-0.12-0.392-0.303-0.862-3.328-0.657-5.934 0.612-7.744 0.835-1.194 1.944-1.765 2.739-2.036 0.203-0.461 0.662-0.785 1.198-0.785 0.653 0 1.19 0.479 1.29 1.102 0.762 0.436 1.344 1.043 1.725 1.822 1.366 2.784-0.273 6.711-0.344 6.877z"></path>
</svg>
