<!-- Generated by IcoMoon.io -->
<svg version="1.1" xmlns="http://www.w3.org/2000/svg" width="32" height="32" viewBox="0 0 32 32">
<title>satellite</title>
<path d="M23.854 21.643l-8.47-5.931 1.394-1.917-1.617-1.177-1.416 1.947-7.458-5.222c-0.441-0.309-1.013-0.252-1.279 0.126-3.050 4.354-1.582 10.707 3.226 14.48l-0.816 2.651c-2.245 0.364-3.969 2.232-3.968 4.578-0.001 0.216 0.176 0.323 0.393 0.323h8.64c0.217 0 0.393-0.107 0.393-0.323 0-2.145-1.441-3.927-3.404-4.504l0.498-1.593c5.097 2.872 11.251 2.009 14.202-2.206 0.265-0.379 0.122-0.922-0.318-1.231zM24.179 2.317c-4.288-3.114-10.29-2.582-13.958 1.237-0.383 0.398-0.37 1.031 0.028 1.414 0.399 0.383 1.031 0.37 1.414-0.029 2.98-3.103 7.856-3.534 11.341-1.004 3.549 2.575 4.619 7.402 2.488 11.229-0.269 0.482-0.096 1.092 0.387 1.36 0.154 0.086 0.321 0.127 0.485 0.127 0.351 0 0.692-0.185 0.875-0.514 2.623-4.71 1.308-10.652-3.061-13.82zM21.822 5.565c-3.139-2.28-7.573-1.756-10.095 1.191-0.359 0.42-0.31 1.051 0.11 1.41s1.051 0.309 1.41-0.11c1.848-2.16 5.1-2.543 7.402-0.873 2.342 1.699 2.96 4.947 1.409 7.391-0.296 0.466-0.157 1.084 0.308 1.38 0.166 0.105 0.352 0.156 0.535 0.156 0.331 0 0.655-0.164 0.845-0.464 2.116-3.334 1.271-7.762-1.922-10.081zM18.965 15.035c0.177 0.129 0.383 0.191 0.587 0.191 0.309 0 0.614-0.143 0.811-0.412 1.376-1.897 0.953-4.56-0.944-5.937s-4.559-0.954-5.938 0.943c-0.325 0.447-0.226 1.072 0.221 1.397 0.448 0.325 1.073 0.225 1.397-0.221 0.73-1.005 2.14-1.229 3.144-0.499 1.004 0.729 1.228 2.139 0.499 3.143-0.324 0.447-0.224 1.072 0.223 1.396z"></path>
</svg>
