<!-- Generated by IcoMoon.io -->
<svg version="1.1" xmlns="http://www.w3.org/2000/svg" width="32" height="32" viewBox="0 0 32 32">
<title>sausage</title>
<path d="M31.4 5.3c-1.35-2.6-6.1-3.4-7.65-3.4v0c-0.55-0.050-1.1-0.050-1.7-0.1 0.9 0.9 1.65 1.95 2.2 3.15 0.3 0.65-0.050 1.4-0.75 1.6-0.6 0.2-1.2-0.1-1.45-0.65-0.75-1.65-2.1-3-3.7-3.85-2.15 0.35-4.3 0.95-6.3 1.85-0.1 0.050-0.2 0.1-0.3 0.15 1.2 0.65 2.2 1.6 2.95 2.75 0.4 0.6 0.3 1.4-0.3 1.75-0.5 0.35-1.2 0.25-1.55-0.25-0.95-1.35-2.25-2.3-3.75-2.7-1.8 1.2-3.45 2.6-4.9 4.25 1.5 0.5 2.75 1.4 3.7 2.65 0.4 0.55 0.35 1.35-0.2 1.75-0.45 0.35-1.1 0.3-1.5-0.1-1.050-1.1-2.35-1.85-3.8-2.15-1.15 1.65-2.95 5-2 7.35 1 2.55 4.050 3.6 6.55 2.45 0.9-0.4 1.65-1.1 2.15-1.9v0c0 0 1.7-2.45 1.75-2.5 0.75-1.050 1.7-2 2.7-2.8l-0.3 3.15c0 1.75 1.1 2.75 1.1 2.75s1.1 0.75 1.25 2.45v0.050c0 0-0.45 4.75-0.4 4.85 0.1 1.4 1.4 2.3 2.75 2.3s2.65-0.8 2.75-2.3c0.050-0.1-0.45-4.95-0.45-4.95 0.15-1.5 0.9-1.95 1.2-2.3 0.8-0.85 1.25-1.65 1.25-2.85l-0.55-5.95c0.3 0 0.6 0.050 0.9 0.050 0.1 0 3.050 0.35 3.050 0.35v0c0.95 0.15 1.9 0.050 2.8-0.4 2.5-1.1 3.7-4.050 2.5-6.5zM16.5 15.95v0c-0.4 0-0.7-0.3-0.7-0.65v-2.15c0.1-0.050 0.25-0.1 0.35-0.2 0.35-0.15 0.65-0.25 1-0.4v2.75c0.050 0.35-0.25 0.65-0.65 0.65zM19.55 15.95v0c-0.4 0-0.7-0.3-0.7-0.65v-3.2c0.45-0.1 0.9-0.15 1.35-0.2v3.4c0 0.35-0.3 0.65-0.65 0.65z"></path>
</svg>
