<!-- Generated by IcoMoon.io -->
<svg version="1.1" xmlns="http://www.w3.org/2000/svg" width="32" height="32" viewBox="0 0 32 32">
<title>saw</title>
<path d="M31.343 4.066l-7.998-3.595c-1.446-0.735-2.897-0.515-3.84 0.427l-17.117 15.434c-0.85 0.851-1.744 2.52-1.407 4.145-0.252 0.345-0.353 0.726-0.24 1.072l1.933 5.878c0.111 0.334 0.401 0.577 0.79 0.709l0.939 2.872c0.663 1.66 2.47 0.943 3.413 0l4.338-4.338c1.685-1.685 2.010-3.098 1.61-4.5l1.255 1.256 0.489-3.619 1.565 1.565 0.489-3.619 1.564 1.565 0.489-3.619 1.565 1.565 0.489-3.619 1.565 1.565 0.498-3.693 1.529 1.529 0.489-3.619 1.565 1.565 0.489-3.619 1.566 1.565 0.398-2.95 1.968 0.863c-0.002-0.003 0.438-1.95-0.396-2.785zM10.572 24.674l-2.481 2.481c-0.383 0.382-1.031 1.196-1.674 0.102 0.304-0.368 0.433-0.785 0.309-1.163l-1.933-5.878c-0.093-0.282-0.314-0.5-0.613-0.639-0.080-0.773 0.125-1.512 0.46-1.846l2.418-2.134c0.423-0.424 1.387-1.030 1.886 1.032l1.884 5.44c0.569 1.422 0.167 2.181-0.256 2.605zM26.332 4.715l-13.876 13.876-2.126-5.839 10.038-9.14c1.067-1.067 1.672-0.888 2.743-0.545l3.424 1.501c-0.073 0.039-0.142 0.086-0.204 0.147z"></path>
</svg>
