<!-- Generated by IcoMoon.io -->
<svg version="1.1" xmlns="http://www.w3.org/2000/svg" width="32" height="32" viewBox="0 0 32 32">
<title>saxophone</title>
<path d="M29.141 17.142l-11.397-4.861c-0.642-0.274-1.384 0.025-1.657 0.668s0.025 1.386 0.668 1.658l0.297 0.127-1.857 10.557c0 0.629-0.513 1.14-1.142 1.14s-1.142-0.511-1.142-1.14v-6.105c0.007 0 0.013 0.002 0.020 0.002 0.67 0 1.213-0.544 1.213-1.213 0-0.671-0.543-1.213-1.213-1.213-0.007 0-0.013 0.002-0.020 0.002v-1.106c0.007 0 0.013 0.002 0.020 0.002 0.67 0 1.213-0.544 1.213-1.213 0-0.671-0.543-1.213-1.213-1.213-0.007 0-0.013 0.002-0.020 0.002v-1.107c0.007 0 0.013 0.002 0.020 0.002 0.67 0 1.213-0.544 1.213-1.213 0-0.671-0.543-1.213-1.213-1.213-0.007 0-0.013 0.001-0.020 0.001v-1.104c0.007 0 0.013 0.002 0.020 0.002 0.67 0 1.213-0.545 1.213-1.214 0-0.67-0.543-1.213-1.213-1.213-0.007 0-0.013 0.002-0.020 0.002v-3.391c0-0.38-0.077-0.741-0.215-1.071-0.42-1.006-1.412-1.714-2.57-1.714-0.83 0-1.198 0.043-2.117 0.527-0.785 0.414-1.223 1.354-2.712 1.278-0.734-0.038-0.97-0.345-2.19-0.413-0.032-0.252-0.24-0.452-0.502-0.452-0.284 0-0.515 0.231-0.515 0.514v1.544c0 0.285 0.231 0.516 0.515 0.516 0.268 0 0.479-0.206 0.505-0.468 1.287 0.129 2 0.635 2.534 0.844 1.196 0.493 3.090 0.927 4.191-0.806 0.003 0 0.006-0.001 0.009-0.001l-2.505 22.204c0 3.7 3.011 6.71 6.712 6.71s5.69-2.063 7.018-4.988c2.189-4.821 5.447-7.053 6.628-7.739l0.452 0.194c0.643 0.273 1.384-0.025 1.658-0.668 0.273-0.642-0.025-1.383-0.668-1.657z"></path>
</svg>
