<!-- Generated by IcoMoon.io -->
<svg version="1.1" xmlns="http://www.w3.org/2000/svg" width="32" height="32" viewBox="0 0 32 32">
<title>Scale-tool-to-control-body-weight</title>
<path d="M27.455 3.362h-4.465v2.429h-0.003c-0.035 3.83-3.148 6.925-6.987 6.925s-6.952-3.095-6.987-6.926h-0.004v-2.429h-4.465c-1.582 0-2.864 1.282-2.864 2.864v22.91c0 1.581 1.282 2.864 2.864 2.864h22.91c1.582 0 2.864-1.283 2.864-2.864v-22.91c0-1.582-1.282-2.864-2.864-2.864zM12.52 28.189h-6.628c-0.466 0-0.844-0.378-0.844-0.845s0.378-0.844 0.844-0.844h6.628c0.467 0 0.845 0.378 0.845 0.844s-0.377 0.845-0.845 0.845zM12.52 18.085h-6.628c-0.466 0-0.844-0.378-0.844-0.845s0.378-0.844 0.844-0.844h6.628c0.467 0 0.845 0.378 0.845 0.844s-0.377 0.845-0.845 0.845zM26.108 28.189h-6.628c-0.467 0-0.845-0.378-0.845-0.845s0.378-0.844 0.845-0.844h6.628c0.466 0 0.844 0.378 0.844 0.844s-0.378 0.845-0.844 0.845zM26.108 18.085h-6.628c-0.467 0-0.845-0.378-0.845-0.845s0.378-0.844 0.845-0.844h6.628c0.466 0 0.844 0.378 0.844 0.844s-0.378 0.845-0.844 0.845zM13.299 3.987l-0.75-0.434c-0.053 0.090-0.104 0.179-0.155 0.267l0.75 0.435c0.053-0.090 0.104-0.179 0.155-0.267zM12.794 5.566c-0.288 0-0.578 0-0.867 0 0 0.103 0 0.207 0 0.31 0.289 0 0.578 0 0.867 0 0-0.103 0-0.207 0-0.31zM13.146 7.199l-0.75 0.434c0.052 0.088 0.104 0.177 0.155 0.266l0.75-0.433c-0.052-0.088-0.103-0.178-0.155-0.267zM13.829 9.174c0.089 0.052 0.178 0.102 0.268 0.156l0.434-0.751c-0.088-0.052-0.178-0.104-0.268-0.155l-0.434 0.75zM15.838 9.8c0.104 0 0.207 0 0.311 0v-0.867c-0.104 0-0.207 0-0.31 0v0.867zM18.169 9.177l-0.434-0.749c-0.089 0.052-0.177 0.103-0.267 0.154l0.433 0.751c0.090-0.053 0.178-0.104 0.268-0.155zM19.603 7.63l-0.75-0.434c-0.052 0.090-0.104 0.178-0.155 0.269l0.752 0.433c0.051-0.090 0.103-0.178 0.154-0.268zM19.204 5.881c0.29 0 0.578 0 0.867 0 0-0.104 0-0.207 0-0.312-0.29 0-0.578 0-0.867 0 0 0.104 0 0.208 0 0.312zM19.603 3.825c-0.051-0.088-0.103-0.176-0.155-0.266l-0.75 0.431c0.052 0.090 0.104 0.178 0.155 0.268l0.75-0.433zM18.174 2.279c-0.088-0.051-0.179-0.103-0.267-0.154l-0.433 0.75c0.089 0.051 0.178 0.102 0.267 0.154l0.433-0.75zM14.527 2.872l-0.433-0.751c-0.089 0.053-0.178 0.103-0.268 0.156l0.432 0.748c0.089-0.050 0.179-0.101 0.268-0.153zM16 11.453c3.177 0 5.724-2.55 5.724-5.726 0-3.172-2.55-5.726-5.724-5.726s-5.724 2.554-5.724 5.726c0 3.178 2.547 5.726 5.724 5.726zM16 1.25c2.487 0 4.474 1.991 4.474 4.476 0 2.488-1.988 4.475-4.474 4.475-2.488 0-4.474-1.988-4.474-4.476 0-2.485 1.987-4.476 4.474-4.476zM16 6.434c0.39 0 0.707-0.317 0.707-0.707s-0.707-4.026-0.707-4.026-0.707 3.635-0.707 4.026c0 0.39 0.317 0.707 0.707 0.707z"></path>
</svg>
