<!-- Generated by IcoMoon.io -->
<svg version="1.1" xmlns="http://www.w3.org/2000/svg" width="32" height="32" viewBox="0 0 32 32">
<title>Scalpel-</title>
<path d="M17.399 28.951h-2.722c-0.294 0-0.53 0.238-0.53 0.53 0 0.291 0.236 0.529 0.53 0.529h2.722c0.292 0 0.529-0.237 0.529-0.529s-0.237-0.53-0.529-0.53zM21.886 28.951h-2.723c-0.291 0-0.529 0.238-0.529 0.53 0 0.291 0.238 0.529 0.529 0.529h2.723c0.294 0 0.529-0.237 0.529-0.529s-0.236-0.53-0.529-0.53zM26.375 28.951h-2.722c-0.294 0-0.53 0.238-0.53 0.53 0 0.291 0.236 0.529 0.53 0.529h2.722c0.292 0 0.529-0.237 0.529-0.529s-0.237-0.53-0.529-0.53zM30.863 28.951h-2.724c-0.291 0-0.529 0.238-0.529 0.53 0 0.291 0.238 0.529 0.529 0.529h2.724c0.291 0 0.529-0.237 0.529-0.529s-0.238-0.53-0.529-0.53zM31.42 4.614l-2.064-2.063c-0.747-0.747-2.050-0.747-2.795 0l-25.162 25.162c-0.242 0.241-0.325 0.606-0.21 0.93 0.042 0.119 0.115 0.22 0.201 0.309h-0.86c-0.293 0-0.53 0.238-0.53 0.53 0 0.291 0.237 0.529 0.53 0.529h12.38c0.293 0 0.53-0.237 0.53-0.529s-0.236-0.53-0.53-0.53h-6.918c2.041-0.398 4.915-1.369 7.284-3.739 0.107-0.108 0.185-0.243 0.228-0.393l0.513-1.872c0.090-0.325 0.263-0.622 0.499-0.861 0.268-0.269 0.607-0.451 0.981-0.527l0.986-0.203c0.814-0.168 1.557-0.568 2.148-1.157l12.787-12.788c0.375-0.373 0.581-0.87 0.581-1.398s-0.206-1.024-0.58-1.397zM16.082 20.105l-0.987 0.203c-0.617 0.128-1.178 0.43-1.624 0.875-0.393 0.395-0.68 0.885-0.828 1.422l-0.487 1.776c-2.165 2.127-4.806 2.989-6.649 3.336-1.115 0.21-2.079 0.263-2.727 0.269l12.729-12.728 1.469 4.502c-0.277 0.162-0.579 0.278-0.896 0.343zM18.435 18.515l-1.456-4.655 0.611-0.611 1.456 4.655-0.61 0.61z"></path>
</svg>
