<!-- Generated by IcoMoon.io -->
<svg version="1.1" xmlns="http://www.w3.org/2000/svg" width="32" height="32" viewBox="0 0 32 32">
<title>scanner</title>
<path d="M4.399 4.921l25.864 11.973c0.501 0.232 1.095 0.014 1.327-0.488s0.014-1.095-0.488-1.328l-25.863-11.973c-0.501-0.232-1.095-0.014-1.327 0.487s-0.014 1.096 0.487 1.327zM30 18h-28c-1.105 0-2 0.895-2 2v7.5c0 0.552 0.448 1 1 1h30c0.552 0 1-0.448 1-1v-7.5c0-1.105-0.895-2-2-2zM3.5 23.5c-0.828 0-1.5-0.672-1.5-1.5s0.672-1.5 1.5-1.5 1.5 0.672 1.5 1.5-0.672 1.5-1.5 1.5zM3.75 17h17c0.414 0 0.75-0.335 0.75-0.75s-0.336-0.75-0.75-0.75h-17c-0.414 0-0.75 0.335-0.75 0.75s0.336 0.75 0.75 0.75z"></path>
</svg>
