<!-- Generated by IcoMoon.io -->
<svg version="1.1" xmlns="http://www.w3.org/2000/svg" width="32" height="32" viewBox="0 0 32 32">
<title>scarf</title>
<path d="M5.912 19.596l-1.383 3.339c-0.239 0.579 0.035 1.24 0.612 1.48 0.579 0.24 1.241-0.034 1.481-0.614l1.383-3.338-2.092-0.867zM8.88 20.825l-1.383 3.34c-0.239 0.577 0.035 1.24 0.613 1.479 0.579 0.24 1.24-0.034 1.48-0.613l1.383-3.34-2.094-0.866zM10.463 25.393c-0.239 0.579 0.034 1.241 0.613 1.48s1.242-0.035 1.481-0.613l1.383-3.339-2.094-0.867-1.383 3.339zM13.963 21.96v-20.056l-7.708 16.862zM26.212 19.746c-0.424 0-0.614 0.145-0.877 0.346-0.299 0.227-0.671 0.512-1.37 0.512s-1.070-0.284-1.369-0.512c-0.263-0.201-0.453-0.346-0.877-0.346s-0.614 0.145-0.878 0.346c-0.299 0.227-0.671 0.512-1.37 0.512s-1.071-0.284-1.37-0.512c-0.262-0.201-0.453-0.346-0.876-0.346-0.425 0-0.615 0.145-0.878 0.346-0.159 0.121-0.343 0.255-0.582 0.357v1.678c0.030-0.021 0.058-0.041 0.088-0.066 0.298-0.227 0.67-0.512 1.371-0.512 0.698 0 1.071 0.284 1.369 0.512 0.263 0.201 0.453 0.346 0.877 0.346s0.614-0.145 0.878-0.346c0.299-0.227 0.671-0.512 1.37-0.512 0.698 0 1.071 0.284 1.369 0.514 0.262 0.199 0.452 0.345 0.877 0.345s0.614-0.145 0.877-0.346c0.299-0.227 0.671-0.512 1.37-0.512 0.683 0 1.052 0.27 1.347 0.496v-1.649c-0.184-0.093-0.337-0.203-0.47-0.305-0.264-0.201-0.453-0.346-0.878-0.346zM26.087 0h-8.849c-0.813 0-1.471 0.659-1.471 1.472v17.502c0.030-0.021 0.058-0.041 0.088-0.066 0.299-0.227 0.671-0.512 1.37-0.512 0.698 0 1.071 0.284 1.369 0.512 0.263 0.201 0.453 0.346 0.877 0.346s0.614-0.145 0.878-0.346c0.299-0.227 0.671-0.512 1.37-0.512 0.698 0 1.071 0.284 1.369 0.512 0.262 0.201 0.452 0.346 0.877 0.346s0.614-0.145 0.877-0.346c0.299-0.227 0.671-0.512 1.37-0.512 0.683 0 1.052 0.27 1.347 0.495v-17.42c-0-0.813-0.66-1.472-1.473-1.472zM26.212 22.899c-0.424 0-0.614 0.145-0.877 0.345-0.299 0.23-0.671 0.512-1.37 0.512s-1.070-0.283-1.369-0.512c-0.263-0.2-0.453-0.345-0.877-0.345s-0.614 0.145-0.878 0.345c-0.299 0.23-0.671 0.512-1.37 0.512s-1.071-0.283-1.37-0.512c-0.262-0.2-0.453-0.345-0.876-0.345-0.425 0-0.615 0.145-0.878 0.345-0.159 0.122-0.343 0.256-0.582 0.358v2.753h11.792v-2.805c-0.184-0.094-0.337-0.204-0.47-0.305-0.263-0.201-0.453-0.345-0.877-0.345zM15.766 30.867c0 0.626 0.507 1.133 1.132 1.133s1.134-0.507 1.134-1.133v-3.614h-2.266v3.614zM18.942 30.867c0 0.626 0.507 1.133 1.133 1.133 0.627 0 1.134-0.507 1.134-1.133v-3.614h-2.266v3.614zM22.116 30.867c0 0.626 0.506 1.133 1.133 1.133s1.134-0.507 1.134-1.133v-3.614h-2.266v3.614zM25.292 30.867c0 0.626 0.507 1.133 1.132 1.133 0.627 0 1.134-0.507 1.134-1.133v-3.614h-2.266v3.614z"></path>
</svg>
