<!-- Generated by IcoMoon.io -->
<svg version="1.1" xmlns="http://www.w3.org/2000/svg" width="32" height="32" viewBox="0 0 32 32">
<title>scatter-chart</title>
<path d="M31.032 30h-29.032v-29.063c0-0.517-0.42-0.938-0.938-0.938h-0.125c-0.517 0-0.938 0.42-0.938 0.938v30.125c0 0.517 0.42 0.937 0.938 0.937h30.095c0.535 0 0.968-0.433 0.968-0.968v-0.063c0-0.535-0.433-0.969-0.968-0.969zM31.032 13.5h-12.532v-12.563c0-0.517-0.42-0.938-0.938-0.938h-0.125c-0.517 0-0.938 0.42-0.938 0.938v12.563h-12.531c-0.535 0-0.969 0.434-0.969 0.969v0.063c0 0.535 0.433 0.969 0.969 0.969h12.531v12.563c0 0.517 0.42 0.938 0.938 0.938h0.125c0.517 0 0.938-0.42 0.938-0.938v-12.563h12.532c0.535 0 0.968-0.434 0.968-0.969v-0.063c0-0.536-0.433-0.969-0.968-0.969zM5.576 4.149l0.175 0.101-0.174 0.101c-0.359 0.207-0.482 0.665-0.274 1.024s0.665 0.481 1.024 0.274l0.174-0.101v0.201c0 0.414 0.336 0.75 0.75 0.75s0.75-0.336 0.75-0.75v-0.201l0.175 0.101c0.359 0.207 0.818 0.085 1.025-0.274s0.084-0.817-0.275-1.024l-0.175-0.101 0.175-0.101c0.358-0.207 0.482-0.665 0.274-1.024s-0.665-0.482-1.024-0.275l-0.175 0.1v-0.201c0-0.414-0.336-0.75-0.75-0.75s-0.75 0.336-0.75 0.75v0.201l-0.174-0.1c-0.359-0.207-0.817-0.084-1.024 0.275s-0.083 0.817 0.274 1.024zM11.076 10.149l0.175 0.101-0.174 0.101c-0.359 0.207-0.482 0.665-0.274 1.024s0.665 0.482 1.024 0.274l0.174-0.101v0.201c0 0.414 0.336 0.75 0.75 0.75s0.75-0.336 0.75-0.75v-0.201l0.175 0.101c0.359 0.207 0.818 0.085 1.025-0.274 0.207-0.358 0.084-0.817-0.275-1.024l-0.175-0.101 0.175-0.101c0.358-0.207 0.482-0.665 0.274-1.024s-0.665-0.482-1.024-0.274l-0.175 0.101v-0.201c0-0.414-0.336-0.75-0.75-0.75s-0.75 0.336-0.75 0.75v0.201l-0.174-0.101c-0.358-0.207-0.818-0.084-1.024 0.274-0.207 0.36-0.084 0.818 0.274 1.024zM20.576 3.15l0.174 0.1-0.174 0.1c-0.359 0.207-0.482 0.666-0.274 1.025s0.666 0.481 1.024 0.274l0.174-0.101v0.201c0 0.414 0.336 0.75 0.75 0.75s0.75-0.336 0.75-0.75v-0.201l0.174 0.101c0.359 0.207 0.817 0.085 1.025-0.274s0.084-0.817-0.275-1.024l-0.174-0.1 0.175-0.1c0.358-0.207 0.482-0.665 0.274-1.024s-0.666-0.482-1.024-0.274l-0.175 0.101v-0.201c0-0.414-0.336-0.75-0.75-0.75s-0.75 0.336-0.75 0.75v0.201l-0.174-0.101c-0.358-0.207-0.817-0.084-1.024 0.274s-0.084 0.817 0.274 1.024zM28.076 8.649l0.174 0.101-0.174 0.101c-0.359 0.207-0.482 0.665-0.274 1.024s0.666 0.482 1.024 0.274l0.174-0.101v0.201c0 0.414 0.336 0.75 0.75 0.75s0.75-0.336 0.75-0.75v-0.201l0.174 0.101c0.359 0.207 0.817 0.085 1.025-0.274 0.207-0.358 0.084-0.817-0.275-1.024l-0.174-0.101 0.175-0.101c0.358-0.207 0.482-0.665 0.274-1.024s-0.666-0.481-1.024-0.274l-0.175 0.101v-0.201c0-0.414-0.336-0.75-0.75-0.75s-0.75 0.336-0.75 0.75v0.201l-0.174-0.101c-0.358-0.207-0.817-0.084-1.024 0.274-0.207 0.359-0.084 0.818 0.274 1.024zM28.25 16.5c-0.414 0-0.75 0.336-0.75 0.75v0.201l-0.174-0.101c-0.358-0.207-0.817-0.084-1.024 0.274-0.207 0.36-0.084 0.817 0.274 1.024l0.175 0.101-0.174 0.101c-0.359 0.207-0.482 0.666-0.274 1.024s0.666 0.482 1.024 0.274l0.174-0.101v0.201c0 0.414 0.336 0.75 0.75 0.75s0.75-0.336 0.75-0.75v-0.201l0.174 0.101c0.359 0.207 0.817 0.085 1.025-0.274 0.207-0.358 0.084-0.817-0.275-1.024l-0.174-0.101 0.175-0.101c0.358-0.207 0.482-0.666 0.274-1.024s-0.666-0.482-1.024-0.274l-0.175 0.101v-0.201c0-0.414-0.336-0.75-0.75-0.75zM22.75 22.5c-0.414 0-0.75 0.336-0.75 0.75v0.201l-0.174-0.101c-0.358-0.207-0.817-0.084-1.024 0.274-0.207 0.36-0.084 0.817 0.274 1.024l0.175 0.101-0.174 0.101c-0.359 0.207-0.482 0.666-0.274 1.024s0.666 0.482 1.024 0.274l0.174-0.101v0.201c0 0.414 0.336 0.75 0.75 0.75s0.75-0.336 0.75-0.75v-0.201l0.174 0.101c0.359 0.207 0.817 0.085 1.025-0.274 0.207-0.358 0.084-0.817-0.275-1.024l-0.174-0.101 0.175-0.101c0.358-0.207 0.482-0.666 0.274-1.024s-0.666-0.482-1.024-0.274l-0.175 0.101v-0.201c0-0.414-0.336-0.75-0.75-0.75zM9.25 16.5c-0.414 0-0.75 0.336-0.75 0.75v0.201l-0.174-0.101c-0.359-0.207-0.817-0.084-1.024 0.274-0.207 0.36-0.084 0.817 0.274 1.024l0.175 0.101-0.175 0.101c-0.359 0.207-0.482 0.666-0.274 1.024s0.665 0.482 1.024 0.274l0.174-0.101v0.201c0 0.414 0.336 0.75 0.75 0.75s0.75-0.336 0.75-0.75v-0.201l0.175 0.101c0.359 0.207 0.818 0.085 1.025-0.274 0.207-0.358 0.084-0.817-0.275-1.024l-0.175-0.101 0.175-0.101c0.358-0.207 0.482-0.666 0.274-1.024s-0.665-0.482-1.024-0.274l-0.175 0.101v-0.201c0-0.414-0.336-0.75-0.75-0.75zM13.25 20.5c-0.414 0-0.75 0.336-0.75 0.75v0.201l-0.174-0.101c-0.358-0.207-0.818-0.084-1.024 0.274-0.207 0.36-0.084 0.817 0.274 1.024l0.175 0.101-0.175 0.101c-0.359 0.207-0.482 0.666-0.274 1.024s0.665 0.482 1.024 0.274l0.174-0.101v0.201c0 0.414 0.336 0.75 0.75 0.75s0.75-0.336 0.75-0.75v-0.201l0.175 0.101c0.359 0.207 0.818 0.085 1.025-0.274 0.207-0.358 0.084-0.817-0.275-1.024l-0.175-0.101 0.175-0.101c0.358-0.207 0.482-0.666 0.274-1.024s-0.665-0.482-1.024-0.274l-0.175 0.101v-0.201c0-0.414-0.336-0.75-0.75-0.75z"></path>
</svg>
