<!-- Generated by IcoMoon.io -->
<svg version="1.1" xmlns="http://www.w3.org/2000/svg" width="32" height="32" viewBox="0 0 32 32">
<title>school</title>
<path d="M28.445 12h-6.945v-7.806c0 0.72-0.064 0.239-0.41-0.101l-4.437-3.882c-0.441-0.44-1.153-0.44-1.594 0l-4.734 3.882c-0.204 0.204-0.312 0.465-0.326 0.731 0.134-0.612 0.059-0.705 0.004 7.175h-6.689c-0.726 0-1.315 0.588-1.315 1.314v18.686h10.5v-3.584c0-0.23 0.271-0.416 0.5-0.416h5.686c0.23 0 0.314 0.186 0.314 0.416v3.584h11v-18.686c0-0.726-0.829-1.314-1.555-1.314zM8.5 22.931c0 0.314-0.255 0.569-0.569 0.569h-1.864c-0.314 0-0.568-0.255-0.568-0.569v-1.863c0-0.314 0.255-0.569 0.569-0.569h1.864c0.313 0 0.568 0.255 0.568 0.569v1.863zM8.5 17.931c0 0.314-0.255 0.569-0.569 0.569h-1.864c-0.314 0-0.568-0.255-0.568-0.569v-1.863c0-0.314 0.255-0.569 0.569-0.569h1.864c0.313 0 0.568 0.255 0.568 0.569v1.863zM14.5 22.931c0 0.314-0.255 0.569-0.569 0.569h-1.864c-0.313 0-0.568-0.255-0.568-0.569v-1.863c0-0.314 0.255-0.569 0.569-0.569h1.864c0.313 0 0.568 0.255 0.568 0.569v1.863zM14.5 17.931c0 0.314-0.255 0.569-0.569 0.569h-1.864c-0.313 0-0.568-0.255-0.568-0.569v-1.863c0-0.314 0.255-0.569 0.569-0.569h1.864c0.313 0 0.568 0.255 0.568 0.569v1.863zM13.618 7.935c0-1.25 1.012-2.262 2.262-2.262s2.26 1.013 2.26 2.262c0 1.249-1.012 2.261-2.261 2.261s-2.262-1.012-2.262-2.261zM20 22.931c0 0.314-0.255 0.569-0.569 0.569h-1.863c-0.314 0-0.568-0.255-0.568-0.569v-1.863c0-0.314 0.255-0.569 0.569-0.569h1.863c0.314 0 0.568 0.255 0.568 0.569v1.863zM20 17.931c0 0.314-0.255 0.569-0.569 0.569h-1.863c-0.314 0-0.568-0.255-0.568-0.569v-1.863c0-0.314 0.255-0.569 0.569-0.569h1.863c0.314 0 0.568 0.255 0.568 0.569v1.863zM26 22.931c0 0.314-0.255 0.569-0.569 0.569h-1.863c-0.314 0-0.568-0.255-0.568-0.569v-1.863c0-0.314 0.255-0.569 0.569-0.569h1.863c0.314 0 0.568 0.255 0.568 0.569v1.863zM26 17.931c0 0.314-0.255 0.569-0.569 0.569h-1.863c-0.314 0-0.568-0.255-0.568-0.569v-1.863c0-0.314 0.255-0.569 0.569-0.569h1.863c0.314 0 0.568 0.255 0.568 0.569v1.863z"></path>
</svg>
