<!-- Generated by IcoMoon.io -->
<svg version="1.1" xmlns="http://www.w3.org/2000/svg" width="32" height="32" viewBox="0 0 32 32">
<title>screwdriver</title>
<path d="M30.455 1.914l-0.369-0.371c-1.843-1.843-4.829-1.843-6.673 0 0 0-10.393 10.393-10.775 10.774-0.712 0.713-0.217 2.229-0.217 2.229l-0.813-0.813c-0.429-0.429-0.858 0-1.387 0.53s-0.941 0.975-0.53 1.387l2.311 2.311-7.541 7.54 2.037 2.037 7.541-7.541 2.311 2.311c0.374 0.373 0.858-0 1.387-0.53s0.919-0.997 0.529-1.387l-0.814-0.814c0 0 1.56 0.451 2.229-0.218 0.5-0.501 10.774-10.775 10.774-10.775 1.843-1.842 1.843-4.829 0-6.671zM17.574 12.87c-0.252 0.251-0.68 0.232-0.958-0.046s-0.298-0.706-0.046-0.958l8.11-8.108c0.252-0.252 0.681-0.232 0.959 0.045s0.297 0.707 0.046 0.958l-8.11 8.109zM28.242 7.319l-8.109 8.109c-0.252 0.252-0.68 0.232-0.958-0.045s-0.297-0.707-0.046-0.958l8.109-8.109c0.252-0.252 0.681-0.232 0.958 0.045 0.277 0.277 0.297 0.707 0.046 0.958zM0.789 28.362l-0.413 2.67 0.592 0.593 2.668-0.415 2.019-2.924-1.942-1.942z"></path>
</svg>
