<!-- Generated by IcoMoon.io -->
<svg version="1.1" xmlns="http://www.w3.org/2000/svg" width="32" height="32" viewBox="0 0 32 32">
<title>screw</title>
<path d="M18.896 13.913c0.556-0.206 0.89-0.873 0.704-1.489-0.163-0.539-1.1-0.86-1.1-0.794v-3.206l0.396 0.008c0.078-0.028 0.081 0.067 0.148 0.067h5.040c-0.119-4.5-3.084-7.798-7.084-8.5v2.55c0 0.839-0.661 1.519-1.5 1.519s-1.5-0.68-1.5-1.519v-2.55c-3.5 0.703-6.846 4-6.966 8.5h5.408l-0.152-0.124c-0.556 0.207-0.733 0.783-0.547 1.399 0.164 0.538 0.758 0.77 1.258 0.704v3.207l-0.587 0.172c-0.556 0.206-0.795 0.873-0.609 1.489 0.164 0.538 0.696 0.859 1.196 0.794v3.206l-0.587 0.172c-0.556 0.206-0.795 0.872-0.609 1.488 0.164 0.538 0.696 0.86 1.196 0.794v3.206l-0.587 0.172c-0.556 0.206-0.918 0.873-0.732 1.489s0.758 0.948 1.315 0.741l0.006-0.009c0.548 1.837 1.986 4.415 2.633 4.601 0.584-0.117 2.865-4.294 2.865-5.843v-0.75l0.396-0.172c0.556-0.206 0.89-0.873 0.704-1.488-0.163-0.538-1.1-0.86-1.1-0.794v-3.206l0.396-0.172c0.556-0.206 0.89-0.873 0.704-1.489-0.163-0.538-1.1-0.86-1.1-0.794v-3.206l0.396-0.172z"></path>
</svg>
