<!-- Generated by IcoMoon.io -->
<svg version="1.1" xmlns="http://www.w3.org/2000/svg" width="32" height="32" viewBox="0 0 32 32">
<title>scythe</title>
<path d="M25.064 6.582l-2.761 2.761c1.237 1.091 7.742 7.604 9.078 14.855 0 0 3.435-7.876-6.316-17.616zM24.189 4.154c-0.555-0.555-1.454-0.555-2.009 0l-3.91 3.91 0.306 0.306-8.115 8.116-3.364-3.364c-0.383-0.383-1.002-0.383-1.385 0s-0.383 1.002 0 1.385l3.364 3.364-4.226 4.226-0.307-0.306-3.91 3.91c-0.555 0.555-0.555 1.454 0 2.009s1.454 0.555 2.010 0l3.91-3.91-0.306-0.306 13.726-13.726 0.307 0.306 3.91-3.909c0.555-0.556 0.555-1.455 0-2.010z"></path>
</svg>
