<!-- Generated by IcoMoon.io -->
<svg version="1.1" xmlns="http://www.w3.org/2000/svg" width="32" height="32" viewBox="0 0 32 32">
<title>sea-dyke</title>
<path d="M2.748 3.5h-1.012c-0.958 0-1.736 0.347-1.736 1.306v24.194h9.712l-5.229-24.148c-0.176-0.989-0.776-1.351-1.735-1.351zM11.791 29h20.209v-4h-20.994zM21.114 17.5c-0.677 0-1.302-0.619-1.485-1.405-0.335-1.427 1.075-3.069 1.075-3.069s-1.531-0.441-2.837 0.493c-1.465 1.049-1.864 2.607-1.588 3.833-1.021-0.299-2.003-0.892-2.28-2.067-0.466-1.983 1.495-4.291 1.495-4.291s-2.128-0.625-3.945 0.675c-2.556 1.829-2.192 5.761-2.192 5.761l-0.008 0.149 1.29 5.921h21.363v-6h-10.886z"></path>
</svg>
