<!-- Generated by IcoMoon.io -->
<svg version="1.1" xmlns="http://www.w3.org/2000/svg" width="32" height="32" viewBox="0 0 32 32">
<title>search-plus</title>
<path d="M30.75 26.802l-7.518-7.633c1.198-1.925 1.852-4.141 1.857-6.463 0.008-3.294-1.268-6.396-3.591-8.729-2.895-2.909-7.030-4.184-11.065-3.413-2.42 0.462-4.625 1.628-6.38 3.373-2.333 2.324-3.623 5.418-3.631 8.713s1.268 6.394 3.593 8.729c2.893 2.907 7.030 4.184 11.064 3.413 1.472-0.281 2.864-0.826 4.126-1.602l7.511 7.627c1.108 1.114 2.912 1.119 4.026 0.009 1.113-1.109 1.117-2.911 0.008-4.025zM18.779 18.73c-1.213 1.208-2.739 2.015-4.412 2.335-2.796 0.534-5.66-0.35-7.663-2.364-1.61-1.616-2.492-3.763-2.487-6.044 0.006-2.28 0.898-4.422 2.515-6.031 1.214-1.208 2.739-2.016 4.413-2.335 2.793-0.533 5.659 0.35 7.663 2.363 1.608 1.616 2.492 3.762 2.487 6.043s-0.898 4.424-2.514 6.032zM18 11h-3.5v-3.5c0-0.552-0.448-1-1-1h-1c-0.552 0-1 0.448-1 1v3.5h-3.5c-0.552 0-1 0.448-1 1v1c0 0.552 0.448 1 1 1h3.5v3.5c0 0.552 0.448 1 1 1h1c0.552 0 1-0.448 1-1v-3.5h3.5c0.552 0 1-0.448 1-1v-1c0-0.552-0.448-1-1-1z"></path>
</svg>
