<!-- Generated by IcoMoon.io -->
<svg version="1.1" xmlns="http://www.w3.org/2000/svg" width="32" height="32" viewBox="0 0 32 32">
<title>seatbelt</title>
<path d="M22.1 10.55l3.95-3.95-2.050-2.050-4.5 4.45c0.95 0.35 1.85 0.85 2.6 1.55zM9.2 23.45l-2.3 0.050c0-0.3 0-2 0-2l-4 4.1 2.1 2.050 2.15-2.15c0 0 1.050 3.8 1.8 5.2s2.3 1.3 2.95 0.5c0 0 0.8-1 0-2.7-0.4-0.8-0.7-1.65-0.9-2.55 1.1-0.6 2.9-1.050 4.95-1.050s3.85 0.4 4.9 1c-0.2 0.9-0.55 1.75-0.9 2.55-0.85 1.7 0 2.7 0 2.7 0.65 0.8 2.25 0.9 2.95-0.5 0.85-1.65 1.45-4.1 1.7-6.25-4.7-2.75-10.45-3.050-15.4-0.95zM17.8 8.55c1.5-0.7 2.5-2.25 2.5-4 0-2.45-2-4.45-4.45-4.45s-4.45 2-4.45 4.45c0 1.75 0.8 3.3 2.3 4-3.9 0.55-7.2 3.9-7.2 7.95v5l12.75-12.5c-0.55-0.2-0.9-0.35-1.45-0.45zM24.5 21.5v-5c0-2.4-0.9-4.5-2.55-6l-9.050 9.1c4-0.6 8.1 0.050 11.75 1.9 0 0-0.050 2.35-0.1 2.95 1.1 0.65 2.45 1.6 3.4 2.5l1.45-2.2c-1.35-1.3-2.4-2.45-4.9-3.25z"></path>
</svg>
