<!-- Generated by IcoMoon.io -->
<svg version="1.1" xmlns="http://www.w3.org/2000/svg" width="32" height="32" viewBox="0 0 32 32">
<title>security-light</title>
<path d="M16.15 1.45c-8.050 0-14.6 6.55-14.6 14.65 0 4.8 2.3 9.050 5.85 11.7l-0.95 1.1c0 0-0.75 0.9 0.25 1.3 0.050 0 0.25 0.050 0.75 0l4.95-0.1c0.45-0.050 0.85-0.5 0.85-0.95l-0.6-5.15c0-0.25-0.1-0.45-0.1-0.45-0.55-0.9-1.3-0.1-1.3-0.1l-1.050 1.2-0.25 0.25c-2.75-1.95-4.55-5.15-4.55-8.8 0-5.95 4.8-10.75 10.75-10.75s10.75 4.8 10.75 10.75c0 4.1-2.3 7.7-5.7 9.5l1.9 3.35c4.55-2.5 7.65-7.3 7.65-12.85 0.050-8.1-6.5-14.65-14.6-14.65zM25.050 19.35c-0.1-0.25-0.35-0.65-0.35-0.65l-7.25-11c-0.35-0.45-0.8-0.7-1.25-0.7s-0.9 0.25-1.25 0.7l-7.2 11c-0.15 0.2-0.35 0.4-0.4 0.65-0.25 1.95 1.85 1.65 1.85 1.65h13.95c0.050 0 2.35 0.2 1.9-1.65zM15 11.15c0-0.6 0.5-0.65 1.1-0.65h0.050c0.6 0 1.3 0.050 1.3 0.65v4.15c0 0.6-0.7 0.7-1.3 0.7h-0.050c-0.6 0-1.1-0.1-1.1-0.7v-4.15zM16.2 19.6c-0.65 0-1.15-0.5-1.15-1.15 0-0.6 0.5-1.15 1.15-1.15s1.15 0.5 1.15 1.15c0 0.65-0.5 1.15-1.15 1.15z"></path>
</svg>
