<!-- Generated by IcoMoon.io -->
<svg version="1.1" xmlns="http://www.w3.org/2000/svg" width="32" height="32" viewBox="0 0 32 32">
<title>send</title>
<path d="M30.802 0.5h-0.003c-0.006 0-0.299 0-0.299 0v0.071c0 0.002-0.023 0.061-0.093 0.101l-29.508 14.813c-0.161 0.085-0.23 0.258-0.239 0.441-0.008 0.183 0.097 0.36 0.249 0.46l6.998 4.296c0.087 0.057 0.19 0.087 0.289 0.087 0.117 0 0.236-0.039 0.331-0.117l19.536-15.502-16.797 17.947c-0.082 0.094-0.254 0.214-0.254 0.338l-0.71 6.596c0 0.207 0.252 0.394 0.443 0.476 0.066 0.028 0.198 0.041 0.268 0.041 0.13 0 0.291-0.049 0.39-0.143l4.259-4.067 7.75 4.992c0.085 0.055 0.188 0.084 0.286 0.084 0.070 0 0.142-0.014 0.207-0.043 0.159-0.069 0.274-0.212 0.305-0.383l7.089-29.7c0.011-0.040 0.017-0.155 0.017-0.198 0-0.285-0.23-0.588-0.515-0.588z"></path>
</svg>
