<!-- Generated by IcoMoon.io -->
<svg version="1.1" xmlns="http://www.w3.org/2000/svg" width="32" height="32" viewBox="0 0 32 32">
<title>server</title>
<path d="M29.5 0.5h-27c-1.103 0-2 0.897-2 2v5c0 1.103 0.897 2 2 2h27c1.103 0 2-0.897 2-2v-5c0-1.103-0.897-2-2-2zM17.5 7.5h-15v-5h15v5zM26 7c-1.105 0-2-0.896-2-2s0.895-2 2-2 2 0.896 2 2-0.895 2-2 2zM29.5 11.5h-27c-1.103 0-2 0.897-2 2v5c0 1.103 0.897 2 2 2h27c1.103 0 2-0.897 2-2v-5c0-1.103-0.897-2-2-2zM17.5 18.5h-15v-5h15v5zM26 18c-1.105 0-2-0.895-2-2s0.895-2 2-2 2 0.896 2 2-0.895 2-2 2zM29.5 22.5h-27c-1.103 0-2 0.897-2 2v5c0 1.103 0.897 2 2 2h27c1.103 0 2-0.897 2-2v-5c0-1.103-0.897-2-2-2zM17.5 29.5h-15v-5h15v5zM26 29c-1.105 0-2-0.895-2-2s0.895-2 2-2 2 0.895 2 2-0.895 2-2 2z"></path>
</svg>
