<!-- Generated by IcoMoon.io -->
<svg version="1.1" xmlns="http://www.w3.org/2000/svg" width="32" height="32" viewBox="0 0 32 32">
<title>servicedealer</title>
<path d="M29.95 15.5l-1.95-4.1c0 0-0.5-1.4-2.7-1.35h-4.8c-2.2-0.050-2.7 1.35-2.7 1.35l-1 2.45 0.050-0.050c0.45 0.15 0.9 0.35 1.3 0.6l0.8-1.7c0.45-1.15 2-0.9 2-0.9h3.95c0 0 1.55-0.25 2 0.9l1.3 2.75h-8.7c0.5 0.6 0.8 1.35 0.8 2.1l0.35 5.5h6.4v1.3c0 0.85 0.7 1.5 1.5 1.5h0.15c0.85 0 1.5-0.7 1.5-1.5v-1.3h1.55v-5.5c0 0 0-1.55-1.8-2.050zM28.55 20.15c-0.8 0-1.45-0.65-1.45-1.45s0.65-1.45 1.45-1.45c0.8 0 1.45 0.65 1.45 1.45s-0.65 1.45-1.45 1.45zM5.2 10.5h0.6c0 0 0 0.050 0 0.050 0 2.45 1.8 4.45 4 4.45s4-2 4-4.45c0-0.1 0-0.2 0-0.3 0.2-0.2 0.35-0.45 0.35-0.75v-0.75c0 0 0 0 0 0v0-0.050c0-0.25-0.1-1.6-0.35-2.2-0.050-0.15-0.45-1.050-2.050-1.55v0 0c-0.6-0.15-1.15-0.25-1.75-0.25-0.8 0-1.4 0.15-1.65 0.2-1.65 0.5-2.1 1.45-2.15 1.6-0.2 0.45-0.3 1.35-0.35 1.85h-0.65c-0.6 0-1.050 0.45-1.050 1.050v0c0 0.65 0.45 1.1 1.050 1.1zM12.45 10.5c0 0.1 0 0.2 0 0.3 0 1.65-1.2 2.95-2.65 2.95s-2.65-1.35-2.65-2.95c0-0.1 0-0.2 0-0.3 0.050 0 0.050 0 0.1 0h5.2zM12.1 24.7c0.8-0.1 1.5-0.7 1.75-1.5 0.2-0.8-0.1-1.65-0.7-2.15l-0.45 1.7-1 0.55-0.6-1 0.45-1.7c-0.8 0.1-1.45 0.7-1.7 1.5-0.25 0.85 0.1 1.7 0.75 2.2l-0.4 1.45h-5.050v0.9h9.25v-0.9h-2.55l0.25-1.050zM5.35 14.5c-3.1-0.1-4.7 2.75-4.7 4.7l-0.5 8.050h3.8v-4.4c0.9-0.2 0.9-1.55 0.9-1.55v-1.7h0.5v-5.1zM9.9 15.9c0 0-0.050 0-0.050 0s-0.050 0-0.050 0c-1.25 0-2.35-0.55-3.1-1.4h-0.3l0.7 5.1h5.5l0.7-5.1h-0.3c-0.75 0.85-1.85 1.4-3.1 1.4zM14.3 14.5l0.050 5.1h0.5v1.7c0 0 0 1.3 0.85 1.55v4.45h3.8l-0.5-8.050c0-2-1.6-4.85-4.7-4.75z"></path>
</svg>
