<!-- Generated by IcoMoon.io -->
<svg version="1.1" xmlns="http://www.w3.org/2000/svg" width="32" height="32" viewBox="0 0 32 32">
<title>sewing-machine</title>
<path d="M3 6h-0.5c-0.552 0-1 0.448-1 1v7.5c0 0.552 0.448 1 1 1h0.5c0.552 0 1-0.448 1-1v-7.5c0-0.552-0.448-1-1-1zM31 8c0-2-1-3-3-3h-0.5v-1.5c0-0.276-0.224-0.5-0.5-0.5s-0.5 0.224-0.5 0.5v1.5h-18v-1.5c0-0.276-0.223-0.5-0.5-0.5s-0.5 0.224-0.5 0.5v1.5h-2c-0.552 0-1 0.448-1 1v3h26.5v-1zM29 24c-0.337 0-0.659 0.058-0.961 0.16-0.155-0.101-0.34-0.16-0.539-0.16h-0.5v-3.5h3c0.276 0 0.5-0.224 0.5-0.5s-0.224-0.5-0.5-0.5h-7c-0.276 0-0.5 0.224-0.5 0.5s0.224 0.5 0.5 0.5h3v3.5h-12.5v-9.5h7.334l1.166 3.5c0 0.552 0.448 1 1 1h7c0.552 0 1-0.448 1-1v-8.5h-26.5v4c0 0.088 0.015 0.172 0.036 0.254-0.021 0.079-0.036 0.161-0.036 0.246v10c0 0.18 0.054 0.346 0.143 0.492-0.088 0.149-0.143 0.322-0.143 0.508v4c0 0.552 0.448 1 1 1h22c0.199 0 0.384-0.059 0.539-0.16 0.302 0.102 0.625 0.16 0.961 0.16 1.657 0 3-1.343 3-3s-1.343-3-3-3zM9 19c-1.657 0-3-1.343-3-3s1.343-3 3-3 3 1.344 3 3-1.344 3-3 3zM9 13.75c-0.44 0-0.847 0.131-1.194 0.349l3.094 3.094c0.219-0.346 0.35-0.753 0.35-1.193 0-1.242-1.008-2.25-2.25-2.25zM6.75 16c0 1.242 1.008 2.25 2.25 2.25 0.44 0 0.847-0.131 1.194-0.349l-3.094-3.094c-0.218 0.347-0.349 0.753-0.349 1.193zM0.5 9c-0.277 0-0.5 0.223-0.5 0.5v2.5c0 0.277 0.224 0.5 0.5 0.5s0.5-0.223 0.5-0.5v-2.5c0-0.277-0.224-0.5-0.5-0.5zM29 30.5h-23c-0.277 0-0.5 0.224-0.5 0.5s0.223 0.5 0.5 0.5h23c0.276 0 0.5-0.224 0.5-0.5s-0.224-0.5-0.5-0.5z"></path>
</svg>
