<!-- Generated by IcoMoon.io -->
<svg version="1.1" xmlns="http://www.w3.org/2000/svg" width="32" height="32" viewBox="0 0 32 32">
<title>share-square</title>
<path d="M27.5 1h-23.5c-1.657 0-3 1.343-3 3v24c0 1.657 1.343 3 3 3h24c1.657 0 3-1.343 3-3v-24c0-1.657-1.843-3-3.5-3zM26.719 11.892l-5.537 5.445c-0.401 0.401-1.682 0.759-1.682-0.267v-3.105c-3-0.261-15.447-2.431-9.586 12.447 0 0 0.514 1.027-0.513 0.513 0 0-14.401-18.947 10.099-18.532v-3.127c0-1.027 1.258-0.668 1.658-0.268l5.608 5.444c0.401 0.4 0.354 1.050-0.047 1.451z"></path>
</svg>
