<!-- Generated by IcoMoon.io -->
<svg version="1.1" xmlns="http://www.w3.org/2000/svg" width="32" height="32" viewBox="0 0 32 32">
<title>share-alt</title>
<path d="M25.713 19.425c-1.78 0-3.384 0.742-4.527 1.931l-8.699-4.349c0.053-0.329 0.088-0.663 0.088-1.007 0-0.303-0.029-0.598-0.070-0.89l8.801-4.204c1.135 1.116 2.69 1.806 4.407 1.806 3.472 0 6.287-2.815 6.287-6.287s-2.815-6.287-6.287-6.287c-3.473 0-6.288 2.815-6.288 6.287 0 0.31 0.030 0.613 0.073 0.911l-8.788 4.197c-1.136-1.125-2.698-1.821-4.423-1.821-3.472-0.001-6.287 2.814-6.287 6.287s2.815 6.288 6.287 6.288c1.683 0 3.206-0.665 4.335-1.74l8.851 4.425c-0.029 0.243-0.047 0.489-0.047 0.74 0 3.472 2.815 6.287 6.288 6.287s6.287-2.815 6.287-6.288-2.815-6.287-6.287-6.287z"></path>
</svg>
