<!-- Generated by IcoMoon.io -->
<svg version="1.1" xmlns="http://www.w3.org/2000/svg" width="32" height="32" viewBox="0 0 32 32">
<title>shaver</title>
<path d="M11.781 9.5h8.5c1.105 0 2-1.396 2-2.5l-0.64-3.5c-0-0.739-0.141-1.376-1.141-1.722v2.123c0 0.607-0.212 1.099-0.819 1.099h-7.3c-0.607 0-1.381-0.492-1.381-1.099v-2.123c-0.5 0.346-0.86 0.984-0.86 1.723l-0.43 3.5c0 1.104 0.966 2.5 2.070 2.5zM12.781 4.5h6.5c0.552 0 0.718-0.448 0.718-1v-2.5c0-0.552 0-1-1-1v0.75c0 0.138-0.112 0.25-0.25 0.25s-0.25-0.112-0.25-0.25v-0.75h-0.5v0.75c0 0.138-0.112 0.25-0.25 0.25s-0.25-0.112-0.25-0.25v-0.75h-0.5v0.75c0 0.138-0.112 0.25-0.25 0.25s-0.25-0.112-0.25-0.25v-0.75h-0.5v0.75c0 0.138-0.112 0.25-0.25 0.25s-0.25-0.112-0.25-0.25v-0.75h-0.5v0.75c0 0.138-0.112 0.25-0.25 0.25s-0.25-0.112-0.25-0.25v-0.75h-0.5v0.75c0 0.138-0.112 0.25-0.25 0.25s-0.25-0.112-0.25-0.25v-0.75h-0.5v0.75c0 0.138-0.112 0.25-0.25 0.25s-0.25-0.112-0.25-0.25v-0.75c-0.5 0-1 0.448-1 1v2.5c0 0.552 0.729 1 1.281 1zM17.081 13.45c0 0.58-0.47 1.050-1.050 1.050s-1.050-0.47-1.050-1.050c0-0.58 0.47-1.050 1.050-1.050s1.050 0.47 1.050 1.050zM19.594 10h-7.125c-1.208 0-2.188 1.479-2.188 2.688l0.86 7.625c0 0.524 0.36 1 0.36 1.376v6.061c0 2.347 1.903 4.25 4.25 4.25s4.25-1.903 4.25-4.25v-6.061c0.5-0.377 0.64-0.852 0.64-1.376l1.070-7.625c-0-1.208-0.91-2.688-2.117-2.688zM16.032 30c-0.579 0-1.050-0.47-1.050-1.050s0.47-1.050 1.050-1.050 1.050 0.47 1.050 1.050c-0 0.58-0.471 1.050-1.050 1.050zM17.5 16.75c0 0.967-0.783 1.75-1.75 1.75s-1.75-0.783-1.75-1.75v-3.5c0-0.967 0.783-1.75 1.75-1.75s1.75 0.783 1.75 1.75v3.5z"></path>
</svg>
