<!-- Generated by IcoMoon.io -->
<svg version="1.1" xmlns="http://www.w3.org/2000/svg" width="32" height="32" viewBox="0 0 32 32">
<title>Shooting</title>
<path d="M30.234 4.346c-0.085-0.405-0.484-0.665-0.888-0.579l-11.664 2.456c-0.038-0.035-0.070-0.074-0.112-0.106-0.765-0.591-1.864-0.45-2.455 0.314-0.103 0.133-0.209 0.266-0.316 0.399l-3.258 0.686c1.518-0.449 2.626-1.851 2.626-3.514 0-2.026-1.641-3.667-3.666-3.667s-3.667 1.641-3.667 3.667 1.641 3.667 3.667 3.667c0.169 0 0.334-0.016 0.496-0.037l-0.651 0.137c-0.371 0.078-0.617 0.418-0.591 0.786-0.072-0.034-0.145-0.068-0.22-0.091-0.169-0.12-0.321-0.231-0.441-0.327-0.525-0.42-1.245-0.502-1.851-0.211s-0.992 0.905-0.992 1.578c0 2.244 0.524 3.78 1.545 4.606 0.297 7.88-4.331 15.105-4.384 15.186-0.352 0.538-0.381 1.226-0.075 1.791s0.896 0.917 1.539 0.917h3.125c0.967 0 1.75-0.784 1.75-1.75s-0.783-1.75-1.75-1.75h-0.152c1.252-2.527 2.893-6.588 3.347-11.201l2.363 4.009-2.687 6.799c-0.213 0.539-0.145 1.148 0.181 1.627s0.869 0.765 1.447 0.765h2.5c0.967 0 1.75-0.784 1.75-1.75 0-0.942-0.744-1.71-1.678-1.748l2.056-5.202c0.198-0.502 0.154-1.067-0.12-1.532l-3.697-6.274c1.412 0.325 2.93 0.414 4.421 0.021 2.631-0.694 4.614-2.667 5.893-5.865 0.221-0.553 0.139-1.149-0.166-1.612l6.195-1.304c0.405-0.085 0.665-0.484 0.579-0.888zM13.129 8.713c-0.4 0.412-0.797 0.794-1.175 1.131-0.436-0.198-0.845-0.414-1.22-0.627l2.394-0.505zM16.846 10.629c-0.261 0.069-0.529 0.113-0.802 0.134 0.699-0.762 1.326-1.528 1.84-2.193 0.217-0.28 0.332-0.605 0.358-0.934l1.969-0.415c-0.838 1.905-1.939 3.028-3.365 3.407z"></path>
</svg>
