<!-- Generated by IcoMoon.io -->
<svg version="1.1" xmlns="http://www.w3.org/2000/svg" width="32" height="32" viewBox="0 0 32 32">
<title>shop</title>
<path d="M28.907 15.765c-0.159-0.272-2.323-3.303-2.323-3.303-0.203-0.404-0.309-0.463-0.87-0.463h-5.815l-1.264-3.89 4.284-3.11h-5.296l-1.637-5.037-1.636 5.037h-5.296l4.285 3.11-1.264 3.89h-5.814c-0.561 0-0.667 0.079-0.87 0.483 0 0-2.163 2.999-2.324 3.271-0.352 0.596 0.034 0.745 0.211 0.745 0.014 0 0.725 0 1.724 0v8h-0.239c-0.444 0-0.761 0.142-0.761 0.587v1.006c0 0.445 0.316 0.907 0.761 0.907h0.239v5h8.5v-4.547c0-0.468 0.478-0.953 0.947-0.953h3.078c0.469 0 0.976 0.485 0.976 0.953v4.547h8.5v-5h0.21c0.445 0 0.79-0.462 0.79-0.907v-1.006c0-0.445-0.345-0.587-0.79-0.587h-0.21v-8c1 0 1.682 0 1.697 0 0.174 0 0.561-0.138 0.209-0.735zM15.986 10.031l2.711 1.969h-5.421l2.71-1.969zM14.5 21.905c0 0.605-0.489 1.095-1.094 1.095h-3.812c-0.605 0-1.095-0.49-1.095-1.095v-2.311c0-0.605 0.489-1.095 1.094-1.095h3.812c0.605 0 1.095 0.49 1.095 1.095v2.311zM23 21.905c0 0.605-0.489 1.095-1.093 1.095h-3.813c-0.605 0-1.094-0.49-1.094-1.095v-2.311c0-0.605 0.489-1.095 1.094-1.095h3.813c0.604 0 1.093 0.49 1.093 1.095v2.311z"></path>
</svg>
