<!-- Generated by IcoMoon.io -->
<svg version="1.1" xmlns="http://www.w3.org/2000/svg" width="32" height="32" viewBox="0 0 32 32">
<title>short-sleeve-dress</title>
<path d="M26.294 6.329c-1.027-3.277-2.91-5.644-2.91-5.644h-0.013c0-0-0.002-0.004-0.002-0.004l-1.866-0.616c-0.283-0.093-0.588-0.086-0.866 0.024-0.733 0.29-1.92 3.287-4.639 3.365-2.719-0.078-3.906-3.074-4.639-3.365-0.277-0.11-0.582-0.117-0.866-0.024l-1.865 0.616c0 0-0.002 0.003-0.002 0.004h-0.014c0 0-1.883 2.368-2.909 5.644 0 0-0.255 0.9 1.309 1.545 0.606 0.251 1.938 0.868 2.451 0.184l0.664-0.962c0.236 1.165 0.66 2.615 1.417 3.716 0.21 0.306 0.191 1.225 0.070 1.675-0.056 0.211-0.133 0.434-0.223 0.664-0.279 0.72-2.338 2.7-2.117 9.393 0.071 2.137 1.611 8.277 1.611 8.277s0.678 0.773 4.186 1.128c0.412 0.041 0.645 0.058 0.925 0.049 0.28 0.010 0.512-0.007 0.925-0.049 3.509-0.355 4.186-1.128 4.186-1.128s1.541-6.139 1.611-8.276c0.22-6.692-1.837-8.673-2.116-9.393-0.090-0.23-0.166-0.453-0.223-0.664-0.12-0.45-0.139-1.37 0.070-1.675 0.757-1.101 1.181-2.55 1.417-3.716l0.663 0.962c0.514 0.684 1.845 0.066 2.451-0.184 1.561-0.646 1.306-1.546 1.306-1.546z"></path>
</svg>
