<!-- Generated by IcoMoon.io -->
<svg version="1.1" xmlns="http://www.w3.org/2000/svg" width="32" height="32" viewBox="0 0 32 32">
<title>short-pants</title>
<path d="M5.739 6.461v-0.655h-3.592l0.102 3.981c0.061-0.014 0.123-0.025 0.188-0.025 1.821 0 3.302-1.48 3.302-3.3zM26.426 6.461c0 1.82 1.48 3.3 3.302 3.3 0.008 0 0.016 0.002 0.024 0.002l0.102-3.957h-3.427v0.654zM24.873 6.461v-0.655h-8.081v7.579c0 0.438-0.355 0.793-0.792 0.793s-0.793-0.355-0.793-0.793v-7.579h-7.917v0.655c0 2.675-2.177 4.853-4.854 4.853-0.051 0-0.102-0.005-0.15-0.015l0.476 18.665c0 1.123 0.913 2.037 2.037 2.037h7.39c1.608 0 2.732-0.321 2.933-2.439l0.861-13.186 0.947 13.211c0.247 2.145 1.294 2.413 2.902 2.413h7.364c1.122 0 2.037-0.913 2.037-2.037l0.476-18.651c-2.669-0.008-4.838-2.181-4.838-4.852zM27.913 0h-23.826c-1.123 0-2.036 0.913-2.036 2.037l0.058 2.274h27.782l0.058-2.273c-0-1.123-0.914-2.037-2.036-2.037z"></path>
</svg>
