<!-- Generated by IcoMoon.io -->
<svg version="1.1" xmlns="http://www.w3.org/2000/svg" width="32" height="32" viewBox="0 0 32 32">
<title>showroom</title>
<path d="M29.75 26.25v-21c0-0.7-0.55-1.25-1.25-1.25h-26.45c-0.65 0-1.2 0.55-1.2 1.2v6.45h23.25c0.65 0 1.2 0.55 1.2 1.2v13.35h-3.8c0.2-0.2 0.3-0.45 0.3-0.75v-1.25h1.15v-4.050c0 0 0-1.15-1.3-1.5l-1.45-3c0 0-0.35-1.050-2-1h-4.050c-1.6-0.050-2 1-2 1l-1.4 3c-1.3 0.35-1.3 1.5-1.3 1.5v4.050h1.15v1.25c0 0.25 0.1 0.5 0.25 0.7h-5.5c0.2-0.2 0.35-0.5 0.35-0.8v-1.15h2.6v-3.9c0 0 0-0.15 0.050-0.35 0.15-0.65 0.5-1.15 1-1.35h-4.35l0.95-1.85c0.3-0.8 1.35-0.75 1.35-0.75h3.6l0.050-0.050c0.1-0.5 0.35-0.95 0.75-1.2 0 0 0 0 0 0h-4.7c-1.65-0.050-2 1-2 1l-1.45 2.85c-1.35 0.35-1.35 1.5-1.35 1.5v4.050h1.15v1.15c0 0.3 0.15 0.6 0.35 0.8h-2.95v1.9h31.25v-1.75h-2.25zM8.55 8.35c0 0.1 0 0.2 0.050 0.3 0 0.1 0.050 0.15 0.050 0.15 0 0.050 0.050 0.1 0.1 0.15s0.1 0.1 0.15 0.1c0.050 0.050 0.15 0.050 0.25 0.050s0.2 0 0.25-0.050c0.050-0.050 0.15-0.1 0.2-0.15 0.050-0.1 0.1-0.15 0.1-0.25v-0.050l0.050-0.15h1.15l-0.050 0.2v0.1c-0.050 0.25-0.1 0.45-0.2 0.6-0.1 0.2-0.25 0.35-0.4 0.45-0.15 0.15-0.3 0.2-0.5 0.3-0.2 0.050-0.4 0.1-0.6 0.1-0.15 0-0.3 0-0.45-0.050s-0.3-0.1-0.4-0.2c-0.15-0.1-0.25-0.15-0.35-0.25v0 0c-0.15-0.15-0.25-0.3-0.35-0.5-0.050-0.15-0.1-0.35-0.1-0.55s0-0.45 0-0.75c0-0.25 0-0.45 0-0.6s0-0.3 0.050-0.45c0.050-0.15 0.050-0.3 0.15-0.4 0.050-0.15 0.15-0.25 0.25-0.35 0.15-0.15 0.35-0.3 0.55-0.4s0.45-0.15 0.7-0.15c0.45 0 0.8 0.15 1.1 0.4s0.5 0.6 0.6 1.1v0.1l0.050 0.2h-1.15l-0.050-0.15v-0.050c-0.050-0.15-0.1-0.3-0.2-0.35-0.1-0.1-0.2-0.1-0.35-0.1-0.1 0-0.15 0-0.25 0.050-0.050 0.050-0.1 0.050-0.15 0.1s-0.050 0.1-0.1 0.1c0 0.050-0.050 0.1-0.050 0.15 0 0.1-0.050 0.2-0.050 0.3s0 0.3 0 0.5c-0.050 0.15-0.050 0.3-0.050 0.45zM14.85 10.15h-0.95l-0.1-0.15-0.25-0.7h-1.2l-0.2 0.7-0.050 0.1h-1.2l0.1-0.25 1.55-4.2 0.050-0.1h0.8l0.050 0.1 1.55 4.2 0.1 0.25h-0.25zM18.75 10.15h-1.050l-0.85-1.7h-0.35v1.65h-1.1v-4.5h1.8c0.3 0 0.55 0.050 0.8 0.2 0.25 0.1 0.4 0.3 0.55 0.5s0.2 0.45 0.2 0.75c0 0.35-0.1 0.65-0.3 0.85-0.1 0.15-0.25 0.25-0.4 0.35l0.85 1.65 0.15 0.25h-0.3zM22.4 9.3c-0.1 0.2-0.2 0.35-0.4 0.45-0.15 0.1-0.35 0.2-0.55 0.3-0.2 0.050-0.4 0.1-0.65 0.1-0.35 0-0.65-0.050-0.9-0.15s-0.5-0.25-0.7-0.45l-0.2-0.2 0.75-0.75 0.15 0.15c0.050 0.050 0.15 0.15 0.25 0.2s0.15 0.1 0.25 0.1c0.1 0 0.2 0.050 0.35 0.050 0.2 0 0.35-0.050 0.45-0.1s0.1-0.15 0.1-0.25c0-0.15-0.050-0.2-0.050-0.2v0 0 0 0 0c0 0-0.050-0.050-0.1-0.050 0 0-0.1-0.050-0.2-0.050l-0.45-0.050c-0.4-0.050-0.7-0.2-0.9-0.4-0.25-0.25-0.4-0.55-0.4-0.95 0-0.3 0.050-0.55 0.2-0.75s0.35-0.4 0.6-0.5c0.25-0.1 0.5-0.15 0.85-0.15 0.3 0 0.55 0.050 0.8 0.15s0.45 0.2 0.65 0.4l0.050 0.050 0.15 0.1-0.15 0.15-0.55 0.5-0.1 0.1-0.15-0.15c-0.050-0.050-0.1-0.1-0.2-0.15-0.050-0.050-0.15-0.050-0.2-0.050-0.1 0-0.2 0-0.3 0s-0.2 0-0.3 0.050c-0.050 0.050-0.1 0.050-0.15 0.1s-0.050 0.1-0.050 0.2c0 0.1 0.050 0.15 0.050 0.15s0.050 0.050 0.1 0.050c0.050 0 0.1 0.050 0.2 0.050l0.45 0.050c0.2 0.050 0.4 0.050 0.5 0.15 0.15 0.050 0.25 0.15 0.4 0.25 0.3 0.25 0.4 0.6 0.4 1 0.1 0.15 0.050 0.35-0.050 0.5zM3.5 21.050c0-0.6 0.5-1.050 1.1-1.050s1.050 0.5 1.050 1.050c0 0.6-0.5 1.050-1.050 1.050s-1.1-0.45-1.1-1.050zM21.7 21.050c0 0.6-0.45 1.050-1.050 1.050s-1.050-0.45-1.050-1.050c0-0.6 0.45-1.050 1.050-1.050 0.55 0 1.050 0.5 1.050 1.050zM13.050 16.7c0.3-0.85 1.45-0.75 1.45-0.75h3.45c0 0 1.1-0.1 1.45 0.75l0.9 2h-8.15l0.9-2zM11.8 20.050c0.6 0 1.050 0.45 1.050 1.050s-0.45 1.050-1.050 1.050c-0.6 0-1.050-0.45-1.050-1.050 0-0.55 0.5-1.050 1.050-1.050zM12.95 25.55v-1.25h6.65v1.25c0 0.3 0.1 0.55 0.3 0.75h-7.25c0.2-0.25 0.3-0.5 0.3-0.75zM12.75 8.25h0.45l-0.2-0.7zM17.5 6.75c-0.050-0.050-0.2-0.1-0.3-0.1h-0.65v0.7h0.65c0.15 0 0.25-0.050 0.3-0.1s0.1-0.15 0.1-0.25c0-0.15-0.050-0.2-0.1-0.25z"></path>
</svg>
