<!-- Generated by IcoMoon.io -->
<svg version="1.1" xmlns="http://www.w3.org/2000/svg" width="32" height="32" viewBox="0 0 32 32">
<title>shrimp</title>
<path d="M14.2 27.45c0.65 0.25 1.4 0.4 2.15 0.4 0.65 0 1.25-0.1 1.8-0.3 0.25-0.1 0.55-0.050 0.7 0.15 1 0.95 2.2 1.75 3.6 2.4 0.6 0.3 0.55 1.15-0.1 1.35-1.1 0.3-2.25 0.45-3.45 0.45-1.5 0-2.9-0.25-4.2-0.7-0.15-0.050-0.3-0.2-0.4-0.35-0.4-0.8-0.75-1.65-1.050-2.55-0.15-0.5 0.4-1.050 0.95-0.85zM19.75 26.1c0.75-0.7 1.35-1.65 1.65-2.7 0.050-0.15 0.2-0.3 0.35-0.3 3.8-0.65 7-2.55 8.65-5.15 0.25-0.35 0.75-0.2 0.8 0.2 0 0.25 0 0.5 0 0.75 0 4.3-2.1 8.1-5.35 10.45-0.1 0.050-0.2 0.1-0.35 0.050-2.3-0.45-4.3-1.4-5.75-2.7-0.15-0.15-0.15-0.45 0-0.6zM5.6 17.5c1.2 0.8 2.9 1.6 3.3 3.3 0 0 0.8-1.6 2.95-1.9 0.3-0.1 0.55 0.25 0.35 0.5-0.75 1-1.2 2.2-1.2 3.5 0 0.85 0.15 1.6 0.5 2.3 0 0.050-0.4 2 0.85 4.8 0.15 0.3-0.25 0.55-0.5 0.35-2.6-1.9-4.45-4.7-5.050-7.95v0c0 0 0 0 0-0.050-0.050-0.25-0.1-0.55-0.15-0.8-0.2-0.85-0.65-2.2-1.65-3.45-0.3-0.35 0.2-0.85 0.6-0.6zM5.35 10c0.3 0.7 0.7 1.35 1.15 1.95 0 0 0 0 0 0.050 1.7 2.25 4.3 3.8 7.3 4 0 0 0.050 0 0.050 0 0.2 0 0.45 0 0.65 0 0.35 0 0.75 0 1.1-0.050 0 0 0.050 0 0.050 0 0.65-0.1 1.35-0.2 1.95-0.45 0 0 0 0 0 0s0 0 0 0c2.9-0.95 5.2-3.2 6.25-6.1h-0.050c0.15-0.5 0.3-1 0.4-1.5-1.85-1.15-4.050-1.9-6.45-1.95v0h-13.2c0 0.050 0 0.1 0 0.15 0 0.65 0.050 1.3 0.2 1.95-1.65-0.95-2.55-2-2.45-2.9 0.15-1.55 3.2-3.2 8.6-3.55v0c0 0 0 0 0 0 0.75-0.1 1.5-0.1 2.3-0.1 1.050 0 2.15 0.050 3.25 0.15 0 0 0 0 0.050 0 7.9 0.5 11.9 2.75 13.55 4 0.1 0.050 0.2-0.050 0.1-0.1-1.6-1.6-5.65-4.7-13.55-5.35-1.15-0.1-2.25-0.15-3.4-0.15-7.15 0-12.1 2-12.4 4.9-0.15 1.9 1.55 3.65 4.55 5.050zM10.15 8.55c0-0.65 0.55-1.2 1.2-1.2s1.2 0.55 1.2 1.2-0.55 1.2-1.2 1.2c-0.65-0.050-1.2-0.55-1.2-1.2zM30 13.8c-0.85-1.8-2.050-3.35-3.6-4.55-0.3-0.25-0.75-0.1-0.85 0.25-0.5 1.6-2.1 5.25-6.45 6.85-0.4 0.15-0.45 0.7-0.1 0.95 1.35 0.9 2.3 2.3 2.55 3.95 0.050 0.3 0.35 0.5 0.65 0.45 6.4-1.6 7.65-6.55 7.8-7.55 0.050-0.15 0.050-0.25 0-0.35zM27.6 14.75c-0.35 0.1-0.65-0.1-0.8-0.4-0.1-0.3-0.3-0.6-0.6-0.8-0.25-0.2-0.35-0.55-0.2-0.85 0.2-0.35 0.8-0.5 1.2-0.2s0.7 0.7 0.85 1.2c0.25 0.45-0.050 0.95-0.45 1.050z"></path>
</svg>
