<!-- Generated by IcoMoon.io -->
<svg version="1.1" xmlns="http://www.w3.org/2000/svg" width="32" height="32" viewBox="0 0 32 32">
<title>shuffle</title>
<path d="M15.354 4c0.092 0 0.175 0.226 0.215 0.152 0.037-0.066 0.034-0.010-0.009-0.087-0.413-0.663-1.043-1.607-1.076-1.673-0.068-0.147-0.305-0.123-0.384 0.025-0.033 0.061-0.663 1.097-1.082 1.768-0.047 0.074-0.051-0.105-0.011-0.034s0.116-0.152 0.205-0.152h0.789v4h-0.781c-0.092 0-0.172 0.232-0.214 0.305-0.037 0.069-0.034 0.239 0.009 0.316 0.415 0.664 1.043 1.723 1.079 1.789 0.068 0.146 0.304 0.181 0.383 0.032 0.033-0.061 0.664-1.070 1.082-1.739 0.046-0.075 0.050-0.339 0.011-0.411s-0.116-0.29-0.207-0.29h-0.362v-4h0.354zM31.619 19.702l-0.119-0.049v-0.057c0-0.528 0.011-1.991-0.239-2.409l-5.532-9.29c-0.275-0.457-0.884-0.619-1.347-0.341-0.17 0.102-0.295 0.255-0.379 0.438l2.761 4.59c0.058 0.097 0.078 0.212 0.052 0.323-0.028 0.112-0.096 0.206-0.195 0.265-0.194 0.116-0.47 0.049-0.588-0.147l-3.631-6.052c-0.265-0.272-0.823-0.375-1.215-0.138-0.172 0.103-0.308 0.255-0.392 0.438l3.927 6.54c0.122 0.201 0.057 0.466-0.146 0.588-0.195 0.118-0.47 0.049-0.588-0.146l-4.523-7.533c-0.265-0.273-0.82-0.374-1.213-0.138-0.401 0.24-0.581 0.736-0.43 1.178l4.503 7.491c0.122 0.204 0.056 0.467-0.146 0.589-0.197 0.118-0.475 0.047-0.59-0.15l-3.633-6.050c-0.198-0.015-0.398 0.037-0.57 0.139-0.471 0.283-0.625 0.896-0.342 1.368l5.34 8.896-3.305-2.94c-0.18-0.157-0.413-0.245-0.655-0.245-0.288 0-0.561 0.125-0.75 0.341-0.361 0.413-0.319 1.046 0.094 1.407l4.192 3.729c0.093 0.079 0.202 0.143 0.323 0.186 0.239 0.11 2.117 0.748 2.823 0.987l0.073 0.024 0.040 0.067c0.18 0.3 0.471 0.657 0.831 0.657 0.119 0 0.245-0.040 0.375-0.117l5.151-3.119c0.43-0.259 0.416-0.701 0.046-1.318zM14.543 15.211c-0.172-0.104-0.371-0.152-0.571-0.14l-3.634 6.053c-0.118 0.195-0.396 0.265-0.589 0.148-0.098-0.060-0.168-0.154-0.195-0.265s-0.009-0.227 0.050-0.325l4.521-7.53c0.133-0.402-0.049-0.897-0.449-1.137-0.393-0.236-0.931-0.157-1.239 0.174l-4.497 7.497c-0.118 0.195-0.395 0.265-0.589 0.147-0.096-0.057-0.167-0.151-0.195-0.261-0.029-0.113-0.011-0.229 0.048-0.327l3.927-6.541c-0.083-0.182-0.217-0.332-0.391-0.437-0.393-0.236-0.931-0.158-1.242 0.174l-3.606 6.016c-0.114 0.195-0.392 0.265-0.589 0.146-0.097-0.057-0.167-0.151-0.195-0.263-0.027-0.11-0.011-0.225 0.048-0.323l2.756-4.59c-0.083-0.182-0.218-0.332-0.391-0.438-0.155-0.094-0.332-0.143-0.511-0.143-0.354 0-0.675 0.181-0.856 0.485l-5.449 9.287c-0.251 0.418-0.203 1.88-0.203 2.409v0.057l-0.156 0.049c-0.176 0.294-0.328 0.563-0.32 0.78 0.007 0.227 0.089 0.403 0.314 0.538l5.182 3.12c0.129 0.077 0.247 0.116 0.365 0.116 0.361 0 0.646-0.358 0.827-0.658l0.037-0.067 0.072-0.024c0.705-0.238 2.582-0.875 2.805-0.979 0.14-0.051 0.249-0.114 0.34-0.195l4.191-3.727c0.415-0.363 0.458-0.994 0.097-1.408-0.348-0.397-1.008-0.444-1.406-0.094l-3.306 2.939 5.341-8.896c0.137-0.229 0.177-0.497 0.113-0.755s-0.225-0.476-0.454-0.614z"></path>
</svg>
