<!-- Generated by IcoMoon.io -->
<svg version="1.1" xmlns="http://www.w3.org/2000/svg" width="32" height="32" viewBox="0 0 32 32">
<title>shuttlecock</title>
<path d="M30.639 1.79c-1.79-1.754-4.693-1.754-6.482 0l-2.917 2.857c-0.108 0.106-0.146 0.263-0.154 0.431l-11.27 5.147c0 0-5.896 0.973-9.497 3.549l-0.227 2.215 1.952 1.029c-0.149 0.121-0.296 0.244-0.438 0.37l0.024 2.226 2.046 0.811c-0.207 0.197-0.406 0.398-0.595 0.605l0.249 2.213 2.181 0.625c0.027-0.016 0.053-0.034 0.080-0.050l0.423 2.109 1.971 0.368 0.637 2.131 2.259 0.244c0.31-0.273 0.611-0.567 0.901-0.877-0.064 0.116-0.133 0.232-0.193 0.349l0.847 2.066 2.273 0.029c0.131-0.14 0.258-0.285 0.384-0.433l1.047 1.904 2.261-0.221c2.629-3.526 3.623-9.302 3.623-9.302l5.257-11.037c0.172-0.008 0.332-0.046 0.441-0.15l2.916-2.857c1.79-1.754 1.79-4.596-0-6.35zM23.111 8.369l-9.487 9.292c0 0-1.652 0.8-3.578 2.108 1.454-1.719 2.383-3.197 2.383-3.197l10.68-8.204c0 0 0 0.001 0.001 0.001zM14.434 18.455l9.566-8.955-8.566 10.014c0 0-1.267 0.763-2.83 1.988 1.143-1.683 1.831-3.047 1.831-3.047zM10.408 11.318l11.040-5.045c0.020 0.032 0.041 0.065 0.064 0.1l-10.861 6.47c0 0-1.477 0.411-3.361 1.199 1.847-1.417 3.119-2.725 3.119-2.725zM11.36 13.864l10.883-6.483c0.014 0.018 0.028 0.035 0.043 0.052l-10.667 8.194c0 0-1.539 0.596-3.43 1.634 1.883-1.744 3.171-3.396 3.171-3.396zM14.328 24.354c1.308-2.151 2.073-4.045 2.073-4.045l8.575-10.261c0.076 0.060-0.072-0.055 0 0l-6.64 10.645c0 0-2.043 1.518-4.008 3.662zM20.912 21.605c0 0-1.308 1.221-2.738 2.999 0.788-1.808 1.2-3.213 1.2-3.213l6.633-10.632c0.018 0.011 0.037 0.023 0.053 0.032l-5.148 10.814zM29.765 7.409l-0.26 0.254c-0.286 0.281-0.811 0-0.811 0s-1.134-0.318-2.43-1.588c-1.297-1.269-1.62-2.381-1.62-2.381s-0.287-0.513 0-0.794l0.259-0.254c1.433-1.403 3.592-1.562 5.024-0.159 1.431 1.403 1.27 3.518-0.163 4.921z"></path>
</svg>
