<!-- Generated by IcoMoon.io -->
<svg version="1.1" xmlns="http://www.w3.org/2000/svg" width="32" height="32" viewBox="0 0 32 32">
<title>side-light</title>
<path d="M9.5 9.050c-0.3 0-0.6 0.050-0.9 0.1-1.4 2.2-3.65 7.25-0.15 13.75 0.35 0.050 0.7 0.1 1.050 0.1 3.25 0 5.9-3.1 5.9-6.95s-2.65-7-5.9-7zM5 15.55c0-0.3-0.25-0.55-0.55-0.55h-3.9c-0.3 0-0.55 0.25-0.55 0.55v1.4c0 0.3 0.25 0.55 0.55 0.55h3.9c0.3 0 0.55-0.25 0.55-0.55v-1.4zM5.95 9.9l-3.9-1.2c-0.25-0.1-0.55 0.050-0.65 0.3l-0.35 1.2c-0.050 0.25 0.1 0.55 0.35 0.6l3.9 1.2c0.25 0.1 0.55-0.050 0.65-0.35l0.35-1.2c0.050-0.2-0.1-0.5-0.35-0.55zM5.95 20.4c-0.1-0.3-0.35-0.45-0.65-0.35l-3.9 1.2c-0.25 0.1-0.4 0.35-0.35 0.6l0.3 1.1c0.1 0.3 0.35 0.45 0.65 0.35l3.9-1.2c0.25-0.1 0.4-0.35 0.35-0.6l-0.3-1.1zM22.9 9.050c-3.25 0-5.9 3.1-5.9 6.95s2.65 6.95 5.9 6.95c0.35 0 0.7-0.050 1.050-0.1 3.5-6.5 1.25-11.55-0.15-13.75-0.3-0.050-0.6-0.050-0.9-0.050zM32 15.55c0-0.3-0.25-0.55-0.55-0.55h-3.9c-0.3 0-0.55 0.25-0.55 0.55v1.4c0 0.3 0.25 0.55 0.55 0.55h3.9c0.3 0 0.55-0.25 0.55-0.55v-1.4zM26.45 11.65c0.1 0.3 0.35 0.45 0.65 0.35l3.9-1.2c0.25-0.1 0.4-0.35 0.35-0.6l-0.4-1.2c-0.1-0.3-0.35-0.45-0.65-0.35l-3.9 1.2c-0.25 0.1-0.4 0.35-0.35 0.6l0.4 1.2zM30.95 21.25l-3.9-1.2c-0.25-0.1-0.55 0.050-0.65 0.35l-0.3 1.1c-0.050 0.25 0.1 0.55 0.35 0.6l3.9 1.2c0.25 0.1 0.55-0.050 0.65-0.35l0.3-1.1c0.050-0.25-0.1-0.5-0.35-0.6z"></path>
</svg>
