<!-- Generated by IcoMoon.io -->
<svg version="1.1" xmlns="http://www.w3.org/2000/svg" width="32" height="32" viewBox="0 0 32 32">
<title>sign-out</title>
<path d="M31.479 14.839l-10.037-10.22c-0.752-0.752-2.442-1.425-2.442 0.502v6.879h-10.323c-0.374 0-0.677 0.303-0.677 0.678v7.145c0 0.375 0.303 0.677 0.677 0.677h10.323v6.782c0 1.927 1.735 1.255 2.488 0.503l9.9-10.22c0.752-0.753 0.845-1.972 0.091-2.726zM12.5 24.5h-8c-0.276 0-0.5-0.224-0.5-0.5v-16c0-0.276 0.224-0.5 0.5-0.5h8c0.277 0 0.5-0.224 0.5-0.5v-3c0-0.276-0.223-0.5-0.5-0.5h-9c-1.929 0-3.5 1.57-3.5 3.5v18c0 1.93 1.571 3.5 3.5 3.5h9c0.277 0 0.5-0.224 0.5-0.5v-3c0-0.276-0.223-0.5-0.5-0.5z"></path>
</svg>
