<!-- Generated by IcoMoon.io -->
<svg version="1.1" xmlns="http://www.w3.org/2000/svg" width="32" height="32" viewBox="0 0 32 32">
<title>signal</title>
<path d="M3.5 29h-2.5c-0.552 0-1 0.448-1 1v1c0 0.552 0.448 1 1 1h2.5c0.552 0 1-0.448 1-1v-1c0-0.552-0.448-1-1-1zM10.5 25h-2.5c-0.552 0-1 0.448-1 1v5c0 0.552 0.448 1 1 1h2.5c0.552 0 1-0.448 1-1v-5c0-0.552-0.448-1-1-1zM17 19h-2.5c-0.552 0-1 0.448-1 1v11c0 0.552 0.448 1 1 1h2.5c0.552 0 1-0.448 1-1v-11c0-0.552-0.448-1-1-1zM24 10h-2.5c-0.552 0-1 0.448-1 1v20c0 0.552 0.448 1 1 1h2.5c0.552 0 1-0.448 1-1v-20c0-0.552-0.448-1-1-1zM31 0h-2.5c-0.552 0-1 0.448-1 1v30c0 0.552 0.448 1 1 1h2.5c0.552 0 1-0.448 1-1v-30c0-0.552-0.448-1-1-1z"></path>
</svg>
