<!-- Generated by IcoMoon.io -->
<svg version="1.1" xmlns="http://www.w3.org/2000/svg" width="32" height="32" viewBox="0 0 32 32">
<title>sign-in</title>
<path d="M22.979 14.839l-10.037-10.22c-0.752-0.752-2.442-1.425-2.442 0.502v6.879h-9.823c-0.374 0-0.677 0.303-0.677 0.678v7.145c0 0.375 0.303 0.677 0.677 0.677h9.823v6.782c0 1.927 1.735 1.255 2.488 0.503l9.899-10.22c0.753-0.753 0.845-1.972 0.091-2.726zM28.5 3.5h-8.5c-0.276 0-0.5 0.224-0.5 0.5v3c0 0.276 0.224 0.5 0.5 0.5h7.5c0.276 0 0.5 0.224 0.5 0.5v16c0 0.276-0.224 0.5-0.5 0.5h-7.5c-0.276 0-0.5 0.224-0.5 0.5v3c0 0.276 0.224 0.5 0.5 0.5h8.5c1.93 0 3.5-1.57 3.5-3.5v-18c0-1.93-1.57-3.5-3.5-3.5z"></path>
</svg>
