<!-- Generated by IcoMoon.io -->
<svg version="1.1" xmlns="http://www.w3.org/2000/svg" width="32" height="32" viewBox="0 0 32 32">
<title>sitar</title>
<path d="M21.115 7.121l-0.919-0.919c-0.235-0.236-0.614-0.236-0.849 0-0.235 0.234-0.236 0.614 0 0.848l0.919 0.92-0.692 0.694-0.921-0.92c-0.233-0.234-0.614-0.235-0.849 0s-0.235 0.615-0 0.849l0.921 0.921-0.694 0.693-0.92-0.919c-0.234-0.235-0.614-0.236-0.848 0-0.235 0.233-0.235 0.614-0 0.849l0.92 0.919-0.694 0.694-0.919-0.919c-0.236-0.235-0.615-0.235-0.849 0s-0.235 0.616-0.001 0.849l0.92 0.92-0.693 0.693-0.921-0.92c-0.233-0.233-0.614-0.234-0.849 0s-0.235 0.614-0.001 0.849l0.921 0.921-2.32 2.319c-0.878 0.552-3.104 0.489-4.39 0.67-0.53 0.076-0.99 0.14-1.324 0.215-1.312 0.253-2.494 0.875-3.418 1.798-2.748 2.747-2.53 7.434 0.483 10.447s7.699 3.231 10.447 0.485c0.928-0.929 1.552-2.112 1.798-3.407 0.075-0.346 0.139-0.796 0.213-1.317 0.188-1.32 0.122-3.622 0.721-4.459l10.417-10.415-4.482-4.481-1.126 1.125zM8.208 28.992c-0.234 0.235-0.615 0.235-0.848 0l-3.635-3.635c-0.236-0.234-0.235-0.614 0.001-0.849s0.614-0.235 0.848 0l3.635 3.634c0.235 0.236 0.236 0.615 0 0.849zM10.040 27.161c-0.236 0.235-0.616 0.235-0.85 0l-3.636-3.636c-0.234-0.233-0.234-0.613 0-0.849 0.236-0.235 0.615-0.234 0.849 0l3.635 3.635c0.234 0.233 0.235 0.615 0.001 0.849zM30.977 4.744l-3.005-3.005c-0.407-0.407-1.069-0.407-1.477 0l-0.305 0.305-0.592-0.591c0.096-0.385-0.003-0.809-0.305-1.111-0.457-0.457-1.198-0.457-1.655 0s-0.457 1.198 0 1.655c0.302 0.302 0.724 0.399 1.11 0.303l0.593 0.593-1.134 1.134-0.591-0.591c0.096-0.385-0.003-0.809-0.303-1.11-0.456-0.458-1.198-0.458-1.655 0-0.456 0.457-0.456 1.197 0 1.655 0.3 0.301 0.724 0.399 1.109 0.303l0.593 0.592-0.776 0.776 4.482 4.482 3.913-3.913c0.408-0.409 0.408-1.071 0-1.478z"></path>
</svg>
