<!-- Generated by IcoMoon.io -->
<svg version="1.1" xmlns="http://www.w3.org/2000/svg" width="32" height="32" viewBox="0 0 32 32">
<title>Skating-race</title>
<path d="M26.837 3.849c0 1.796-1.456 3.252-3.252 3.252s-3.252-1.456-3.252-3.252c0-1.796 1.456-3.252 3.252-3.252s3.252 1.456 3.252 3.252zM31.837 15.349c0 1.796-1.456 3.252-3.252 3.252s-3.252-1.456-3.252-3.252c0-1.796 1.456-3.252 3.252-3.252s3.252 1.456 3.252 3.252zM25.488 17.555l-8.095-5.539c0.019-0.162 0.028-0.324 0.026-0.489-0.007-0.688-0.198-1.294-0.486-1.822l2.627-0.188c0.744-0.053 1.372-0.572 1.566-1.292s-0.091-1.484-0.708-1.902l-8.512-5.772c-0.799-0.542-1.887-0.334-2.431 0.466-0.542 0.8-0.334 1.888 0.466 2.43l4.333 2.939-1.236 0.088c-0.453 0.032-0.883 0.249-1.187 0.587-0.104 0.114-2.582 2.809-6.953 2.448-0.396-0.032-0.787 0.069-1.116 0.288l-2.688 1.792c-0.804 0.536-1.022 1.623-0.486 2.427 0.337 0.506 0.892 0.78 1.458 0.78 0.333 0 0.671-0.095 0.969-0.294l2.2-1.466c3.666 0.123 6.343-1.311 7.846-2.424 0.281 0.197 0.544 0.425 0.698 0.634-0.082 0.079-0.157 0.168-0.224 0.266-0.213 0.312-0.309 0.668-0.302 1.020-0.56 0.529-1.59 1.252-3.506 2.127-0.749 0.342-1.158 1.159-0.983 1.964 0.175 0.804 0.886 1.378 1.71 1.378h3.525c0.966 0 1.75-0.784 1.75-1.75 0-0.366-0.113-0.706-0.304-0.987 0.073-0.065 0.137-0.131 0.207-0.197l3.72 2.545-1.997 0.142c-0.451 0.032-0.873 0.238-1.176 0.575-0.006 0.007-0.113 0.12-0.29 0.294-0.118-0.077-0.258-0.123-0.409-0.123h-6c-0.415 0-0.75 0.336-0.75 0.75s0.335 0.75 0.75 0.75h4.752c-1.642 1.177-4.184 2.505-7.107 2.256-0.393-0.032-0.787 0.069-1.116 0.288l-3 2c-0.804 0.536-1.022 1.622-0.486 2.427 0.337 0.506 0.893 0.779 1.458 0.779 0.333 0 0.67-0.095 0.969-0.294l2.514-1.677c4.611 0.146 8.297-2.404 10.106-3.957 0.517 0.372 0.968 0.839 0.968 1.198 0.001 0.543-1.005 1.919-4.784 3.636-0.75 0.341-1.161 1.159-0.986 1.964s0.887 1.38 1.71 1.38h4c0.966 0 1.75-0.784 1.75-1.75 0-0.443-0.165-0.847-0.436-1.156 1.515-1.294 2.256-2.652 2.245-4.102-0.006-0.767-0.224-1.441-0.553-2.024l3.119-0.223c0.742-0.053 1.37-0.57 1.564-1.288s-0.087-1.482-0.701-1.902zM20 30.5h-6.5c-0.415 0-0.75 0.336-0.75 0.75s0.335 0.75 0.75 0.75h6.5c0.415 0 0.75-0.336 0.75-0.75s-0.335-0.75-0.75-0.75z"></path>
</svg>
