<!-- Generated by IcoMoon.io -->
<svg version="1.1" xmlns="http://www.w3.org/2000/svg" width="32" height="32" viewBox="0 0 32 32">
<title>skate-board</title>
<path d="M22.5 1.5c0 0-6.5 8-9.5 11s-11.5 10-11.5 10c-1.5 1.282-2 5.5-0.157 7.596l0.609 0.608c2.048 1.795 6.569 1.274 8.048-0.205 0 0 5.5-7 9.5-11.5s10-8.5 11-9.5 2.5-5.5 0.206-7.548l-0.608-0.609c-2.597-1.843-6.12-1.321-7.597 0.157zM12.287 25.512c0.286 0.286 0.049 0.991-0.156 1.196l-0.787 0.788c-0.204 0.204-0.91 0.442-1.196 0.157l-0.356-0.357c-0.287-0.286-0.049-0.991 0.156-1.195l0.788-0.788c0.204-0.204 0.909-0.443 1.196-0.157l0.357 0.357zM8.864 24.988l-1.47 0.037c-0.096 0.069-0.243 0.058-0.326-0.026l-0.018-0.017c-0.083-0.084-0.096-0.232-0.027-0.328l-0.013-1.513c0.031-0.042 0.028-0.103-0.010-0.141l-0.859-0.881 0.614-0.614 3.788 3.788-0.614 0.613-0.928-0.907c-0.036-0.037-0.094-0.041-0.136-0.012zM4.397 21.901c-0.285-0.285-0.048-0.991 0.157-1.195l0.788-0.788c0.205-0.203 0.909-0.442 1.195-0.157l0.357 0.357c0.285 0.285 0.048 0.991-0.157 1.195l-0.788 0.788c-0.204 0.204-0.909 0.442-1.195 0.157l-0.357-0.358zM27.652 10.146c0.285 0.286 0.049 0.991-0.157 1.197l-0.788 0.787c-0.203 0.204-0.91 0.443-1.195 0.156l-0.357-0.357c-0.287-0.286-0.049-0.991 0.157-1.195l0.788-0.788c0.204-0.204 0.91-0.443 1.196-0.156l0.356 0.357zM23.141 7.010l1.513 0.014c0.096-0.069 0.243-0.058 0.326 0.026l0.018 0.018c0.084 0.083 0.095 0.231 0.026 0.327l-0.037 1.469c-0.029 0.042-0.024 0.099 0.012 0.136l0.907 0.929-0.614 0.614-3.788-3.789 0.614-0.614 0.881 0.859c0.038 0.038 0.099 0.042 0.141 0.010zM19.762 6.536c-0.285-0.284-0.048-0.99 0.157-1.194l0.788-0.787c0.204-0.205 0.91-0.443 1.196-0.157l0.357 0.357c0.285 0.286 0.047 0.992-0.157 1.196l-0.788 0.788c-0.203 0.204-0.909 0.442-1.195 0.157l-0.357-0.358z"></path>
</svg>
