<!-- Generated by IcoMoon.io -->
<svg version="1.1" xmlns="http://www.w3.org/2000/svg" width="32" height="32" viewBox="0 0 32 32">
<title>Skating</title>
<path d="M31.666 8c0 2.025-1.642 3.666-3.666 3.666s-3.666-1.642-3.666-3.667c0-2.025 1.642-3.667 3.666-3.667s3.666 1.642 3.666 3.667zM25.032 11.586l-10.274-7.5c-0.78-0.57-1.875-0.398-2.446 0.382s-0.399 1.875 0.382 2.446l6.594 4.814-3.276 0.338c-0.468 0.049-0.902 0.29-1.195 0.658-0.136 0.171-3.403 4.185-9.44 3.678-0.42-0.032-0.835 0.082-1.175 0.329l-3.232 2.354c-0.781 0.569-0.954 1.663-0.385 2.445 0.343 0.471 0.876 0.72 1.417 0.72 0.357 0 0.718-0.109 1.028-0.335l2.723-1.983c5.18 0.219 8.727-2.131 10.505-3.703 0.845 0.61 1.887 1.601 1.863 2.611-0.017 0.666-0.607 2.47-5.718 4.82-0.747 0.343-1.155 1.16-0.979 1.964s0.887 1.375 1.71 1.375h4.866c0.966 0 1.75-0.784 1.75-1.75 0-0.623-0.326-1.171-0.817-1.481 1.764-1.512 2.65-3.122 2.686-4.86 0.032-1.508-0.605-2.767-1.412-3.758l3.972-0.41c0.721-0.074 1.321-0.585 1.51-1.284s-0.073-1.443-0.658-1.87zM19.5 28h-7.5c-0.414 0-0.75 0.336-0.75 0.75s0.336 0.75 0.75 0.75h7.5c0.414 0 0.75-0.336 0.75-0.75s-0.336-0.75-0.75-0.75z"></path>
</svg>
