<!-- Generated by IcoMoon.io -->
<svg version="1.1" xmlns="http://www.w3.org/2000/svg" width="32" height="32" viewBox="0 0 32 32">
<title>Ski-Race</title>
<path d="M24.166 6c0 2.025-1.642 3.666-3.666 3.666s-3.666-1.642-3.666-3.667c0-2.025 1.642-3.667 3.666-3.667s3.666 1.642 3.666 3.667zM31.738 24.288c-0.393-0.133-0.819 0.081-0.948 0.474-0.197 0.589-0.469 0.777-0.607 0.759-0.084-0.031-0.093-0.022-0.183-0.023h-8.278c0.325-0.317 0.528-0.76 0.528-1.25 0-0.966-0.784-1.75-1.75-1.75h-0.428l1.434-2.421c0.464-0.782 0.251-1.79-0.489-2.317l-3.707-2.642c0.846-1.688 1.282-2.871 1.338-3.028 0.294-0.818-0.056-1.728-0.823-2.137-2.825-1.507-5.372-1.786-7.572-0.829-2.070 0.9-3.26 2.694-3.878 3.973l-4.006-2.253c-0.361-0.204-0.818-0.075-1.022 0.286s-0.075 0.819 0.286 1.021l4.188 2.355c-0.004 0.014-0.010 0.034-0.011 0.040-0.248 0.93 0.303 1.881 1.231 2.134 0.651 0.177 1.311-0.044 1.741-0.509l0.851 0.479c0.116 0.066 0.242 0.096 0.367 0.096 0.261 0 0.517-0.137 0.655-0.383 0.203-0.361 0.075-0.819-0.286-1.021l-0.938-0.527c0.332-0.756 1.030-1.974 2.234-2.489 0.843-0.361 1.866-0.335 3.056 0.071-0.266 0.58-0.618 1.302-1.056 2.106-0.030 0.035-0.063 0.065-0.091 0.104-0.107 0.15-0.178 0.313-0.232 0.479-2.101 3.705-5.87 8.816-11.421 10.759-0.893 0.313-1.367 1.276-1.088 2.172-0.334 0.076-0.584 0.373-0.584 0.73 0 0.415 0.336 0.75 0.75 0.75h23.43c0.073 0.011 0.151 0.017 0.235 0.017 0.636 0 1.574-0.363 2.046-1.78 0.088-0.265 0.017-0.543-0.157-0.737h3.375c0.073 0.011 0.151 0.017 0.235 0.017 0.636 0 1.574-0.363 2.046-1.78 0.13-0.393-0.081-0.817-0.474-0.948zM15.588 18.193l2.086 1.486-2.18 3.678c-0.321 0.541-0.326 1.212-0.015 1.759 0.082 0.143 0.183 0.271 0.298 0.384h-6.394c2.668-2.227 4.718-4.918 6.204-7.307zM25.288 27.263c-0.197 0.589-0.469 0.774-0.607 0.759-0.084-0.031-0.093-0.022-0.182-0.023h-18.809c0.581-0.309 1.14-0.643 1.679-1h18.072c-0.067 0.074-0.119 0.163-0.153 0.263z"></path>
</svg>
