<!-- Generated by IcoMoon.io -->
<svg version="1.1" xmlns="http://www.w3.org/2000/svg" width="32" height="32" viewBox="0 0 32 32">
<title>skiing-sticks</title>
<path d="M31.442 27.774c-0.224-0.224-0.587-0.224-0.811 0l-1.218 1.218-20.949-20.95 0.812-0.811c0.224-0.224 0.224-0.588 0-0.811s-0.588-0.224-0.812 0l-0.406 0.406-6.088-6.087c-0.448-0.448-1.175-0.448-1.623 0s-0.448 1.175 0 1.623l0.948 0.948c-0.058 0.268 0.125 0.69 0.487 1.052s0.784 0.545 1.052 0.487l0.084 0.085c-0.058 0.269 0.125 0.691 0.487 1.052s0.783 0.545 1.052 0.487l0.085 0.085c-0.059 0.269 0.125 0.691 0.487 1.052s0.784 0.546 1.052 0.487l0.354 0.354-0.406 0.406c-0.224 0.224-0.224 0.587 0 0.811 0.219 0.22 0.57 0.221 0.795 0.011 0.066 1.948 0.635 7.226 3.236 6.159 1.156-0.473 0.916-2.461 0.617-3.341-0.136-0.398-0.318-0.772-0.52-1.136l18.446 18.446-1.217 1.218c-0.224 0.224-0.225 0.587 0 0.811 0.224 0.224 0.587 0.224 0.811 0l1.217-1.218 0.811 0.811c0.224 0.224 0.587 0.224 0.811 0s0.225-0.587 0-0.811l-0.811-0.811 1.218-1.218c0.224-0.224 0.224-0.588-0-0.812zM10.079 13.876c0.021 0.553-0.277 1.568-0.956 1.014-0.451-0.368-0.681-0.926-0.855-1.461-0.431-1.325-0.598-2.781-0.591-4.169 0-0.134-0.051-0.235-0.126-0.303l0.101-0.101 0.203 0.203c0.754 1.591 2.156 3.023 2.224 4.819zM0.57 28.585l1.218 1.218-0.811 0.811c-0.225 0.224-0.225 0.587 0 0.811s0.587 0.224 0.811 0l0.812-0.811 1.217 1.218c0.224 0.224 0.587 0.224 0.812 0s0.224-0.587 0-0.811l-1.217-1.218 18.446-18.446c-0.203 0.364-0.384 0.739-0.52 1.136-0.3 0.88-0.54 2.867 0.616 3.341 2.601 1.067 3.169-4.21 3.235-6.159 0.224 0.21 0.576 0.209 0.794-0.011 0.224-0.224 0.224-0.587 0-0.811l-0.406-0.406 0.354-0.354c0.268 0.059 0.691-0.125 1.052-0.487s0.546-0.784 0.487-1.052l0.084-0.085c0.268 0.059 0.69-0.125 1.052-0.487s0.546-0.783 0.487-1.052l0.084-0.085c0.268 0.059 0.69-0.125 1.052-0.487s0.546-0.784 0.487-1.052l0.948-0.948c0.448-0.448 0.448-1.175 0-1.623s-1.175-0.448-1.623 0l-6.088 6.087-0.406-0.406c-0.224-0.224-0.587-0.224-0.811 0s-0.224 0.588 0 0.811l0.812 0.811-20.949 20.95-1.218-1.218c-0.224-0.224-0.588-0.224-0.811 0-0.225 0.224-0.224 0.588 0 0.812zM24.157 9.057l0.203-0.203 0.102 0.101c-0.076 0.069-0.127 0.169-0.126 0.303 0.008 1.388-0.16 2.844-0.591 4.169-0.174 0.536-0.404 1.094-0.855 1.462-0.679 0.553-0.977-0.462-0.956-1.014 0.069-1.796 1.471-3.229 2.224-4.819z"></path>
</svg>
