<!-- Generated by IcoMoon.io -->
<svg version="1.1" xmlns="http://www.w3.org/2000/svg" width="32" height="32" viewBox="0 0 32 32">
<title>Skiing-Racing</title>
<path d="M20.337 3.849c0 1.796-1.456 3.252-3.252 3.252s-3.252-1.456-3.252-3.252c0-1.796 1.456-3.252 3.252-3.252s3.252 1.456 3.252 3.252zM31.837 7.349c0 1.796-1.456 3.252-3.252 3.252s-3.252-1.456-3.252-3.252c0-1.796 1.456-3.252 3.252-3.252s3.252 1.456 3.252 3.252zM29.5 29.25c-0.414 0-0.75 0.335-0.75 0.75 0 0.206-0.043 0.291-0.054 0.302-0.044 0.037-0.244 0.041-0.41 0l-5.588-3.034c0.094-0.089 0.183-0.186 0.258-0.297 0.536-0.804 0.319-1.89-0.485-2.427l-0.699-0.466 5.129-3.077c0.53-0.319 0.854-0.893 0.849-1.512s-0.334-1.189-0.868-1.501l-3.206-1.87 3.107-1.553c0.842-0.421 1.2-1.433 0.811-2.29-1.102-2.424-2.782-3.346-3.998-3.694-3.082-0.88-6.215 0.922-6.941 1.38l-3.186-2.549c-0.085-0.067-0.18-0.113-0.278-0.138 0.186-0.173 0.337-0.383 0.434-0.623 0.178-0.444 0.167-0.941-0.031-1.376-0.968-2.129-2.384-3.497-4.208-4.065-2.858-0.89-5.495 0.614-5.786 0.788-0.063 0.038-0.115 0.084-0.172 0.128l-1.934-1.692c-0.311-0.273-0.785-0.24-1.058 0.071-0.273 0.312-0.241 0.786 0.071 1.058l2.252 1.97c0.006 0.296 0.079 0.594 0.241 0.866 0.385 0.642 1.117 0.942 1.813 0.816 0.062 0.016 0.124 0.033 0.188 0.033 0.209 0 0.417-0.087 0.565-0.256 0.032-0.037 0.059-0.075 0.082-0.116 0.492-0.226 1.639-0.654 2.698-0.325 0.367 0.114 0.707 0.321 1.019 0.617l-3.014 1.205c-0.63 0.252-1.056 0.844-1.097 1.521s0.314 1.316 0.909 1.64l2.896 1.579-2.998 1.908c-0.532 0.338-0.841 0.937-0.808 1.566 0.010 0.19 0.053 0.373 0.12 0.545l-4.001-2.287c-0.359-0.204-0.818-0.081-1.024 0.279s-0.081 0.818 0.28 1.023l14 8c0.043 0.024 0.088 0.044 0.135 0.061 0.059 0.020 0.371 0.117 0.762 0.117 0.329 0 0.713-0.069 1.048-0.311 0.309-0.222 0.677-0.666 0.677-1.517 0-0.415-0.336-0.75-0.75-0.75s-0.75 0.335-0.75 0.75c0 0.206-0.043 0.291-0.054 0.302-0.043 0.037-0.239 0.041-0.403 0.002l-6.226-3.558c0.617-0.024 1.203-0.372 1.498-0.963 0.312-0.623 0.216-1.344-0.185-1.86l3.059-1.947c0.522-0.332 0.831-0.916 0.809-1.535s-0.367-1.181-0.911-1.477l-2.236-1.22 1.187-0.475c-0.094 0.288-0.008 0.616 0.242 0.816l3.25 2.6c-0.079 0.431 0.001 0.892 0.263 1.285 0.536 0.804 1.622 1.021 2.427 0.486 0.598-0.399 2.645-1.442 4.164-1.008 0.279 0.079 0.534 0.21 0.767 0.394l-4.185 2.092c-0.575 0.287-0.946 0.867-0.966 1.509s0.312 1.244 0.867 1.568l3.445 2.009-4.964 2.978c-0.514 0.309-0.835 0.86-0.849 1.459-0 0.028 0.003 0.055 0.003 0.084l-5.896-3.2c-0.364-0.198-0.819-0.063-1.017 0.302s-0.063 0.82 0.302 1.017l17.5 9.5c0.038 0.021 0.079 0.038 0.12 0.052 0.058 0.020 0.372 0.117 0.762 0.117 0.329 0 0.712-0.069 1.047-0.311 0.309-0.223 0.677-0.667 0.677-1.518 0-0.415-0.336-0.75-0.75-0.75z"></path>
</svg>
