<!-- Generated by IcoMoon.io -->
<svg version="1.1" xmlns="http://www.w3.org/2000/svg" width="32" height="32" viewBox="0 0 32 32">
<title>Skiing-Race</title>
<path d="M28.166 5.5c0 2.025-1.642 3.666-3.666 3.666s-3.666-1.642-3.666-3.667c0-2.025 1.642-3.667 3.666-3.667s3.666 1.642 3.666 3.667zM30.671 10.199c-0.206-0.185-0.445-0.306-0.695-0.377-0.079-0.328-0.374-0.572-0.727-0.572-0.414 0-0.75 0.335-0.75 0.75v0.068c-0.108 0.075-0.209 0.16-0.301 0.261-0.822 0.912-1.657 1.344-2.541 1.309-1.809-0.064-3.672-1.946-4.256-2.687-1.885-2.626-4.052-4.002-6.44-4.090-2.552-0.096-4.578 1.373-5.595 2.297l-7.926-5.764c-0.333-0.244-0.804-0.171-1.048 0.165-0.243 0.335-0.17 0.804 0.165 1.048l7.842 5.703c-0.3 0.694-0.131 1.527 0.479 2.035 0.672 0.559 1.636 0.525 2.271-0.034l0.408 0.296c0.133 0.097 0.287 0.143 0.441 0.143 0.232 0 0.46-0.107 0.607-0.309 0.243-0.335 0.169-0.804-0.165-1.047l-0.151-0.11c0.645-0.472 1.556-0.961 2.541-0.925 0.77 0.028 1.541 0.379 2.303 1.036l-4.369 2.017c-0.585 0.271-0.975 0.841-1.014 1.485s0.281 1.256 0.83 1.595l3.968 2.442-5.409 3.042c-0.386 0.218-0.666 0.57-0.802 0.979l-8.944-5.589c-0.351-0.22-0.814-0.114-1.034 0.239-0.219 0.351-0.112 0.814 0.239 1.033l24 15c0.020 0.012 0.041 0.024 0.062 0.035 0.224 0.113 0.561 0.208 0.954 0.208 0.572 0 1.264-0.202 1.911-0.849 0.293-0.293 0.293-0.767 0-1.061s-0.767-0.293-1.061 0c-0.533 0.533-1.001 0.409-1.116 0.366l-8.759-5.473c0.166-0.134 0.313-0.298 0.425-0.494 0.48-0.839 0.188-1.908-0.651-2.387l-0.82-0.469 5.309-2.986c0.541-0.303 0.88-0.871 0.892-1.491s-0.304-1.2-0.832-1.524l-3.719-2.289 2.364-1.091c1.179 1.181 3.334 2.905 5.953 3.006 0.074 0.003 0.151 0.005 0.23 0.005 0.776 0 1.735-0.153 2.756-0.668v10.527c0 0.414 0.336 0.75 0.75 0.75s0.75-0.336 0.75-0.75v-11.544c0.267-0.232 0.535-0.489 0.801-0.785 0.646-0.719 0.588-1.825-0.13-2.472z"></path>
</svg>
