<!-- Generated by IcoMoon.io -->
<svg version="1.1" xmlns="http://www.w3.org/2000/svg" width="32" height="32" viewBox="0 0 32 32">
<title>Skiing</title>
<path d="M22.666 4c0 2.025-1.642 3.667-3.666 3.667s-3.666-1.642-3.666-3.667c0-2.025 1.642-3.667 3.666-3.667s3.666 1.642 3.666 3.667zM30.335 6.329c-0.37-0.184-0.82-0.035-1.006 0.335-0.185 0.37-0.035 0.821 0.335 1.006 0.004 0.002 0.386 0.219 0.148 1.015l-3.813 6.213v-3.714c0.064-0.027 0.125-0.050 0.189-0.077 0.888-0.381 1.3-1.409 0.919-2.298-0.212-0.496-0.629-0.835-1.108-0.979v-0.832c0-0.414-0.335-0.75-0.75-0.75s-0.75 0.336-0.75 0.75v1.019c-3.909 1.616-6.95 1.745-9.040 0.374-1.816-1.191-2.621-3.313-2.968-4.698l1.141-1.793c0.223-0.349 0.12-0.813-0.23-1.036s-0.813-0.119-1.036 0.23l-0.347 0.545c-0.325-0.575-0.957-0.947-1.655-0.886-0.963 0.074-1.684 0.915-1.611 1.879 0.008 0.112 0.12 1.421 0.682 3.067l-7.57 11.895c-0.222 0.349-0.119 0.813 0.23 1.035 0.125 0.079 0.264 0.117 0.402 0.117 0.248 0 0.49-0.122 0.634-0.347l7.010-11.014c0.439 0.873 1.017 1.761 1.771 2.56-1.44 1.642-3.426 4.627-3.782 8.906-0.050 0.59 0.204 1.166 0.671 1.529s1.088 0.466 1.647 0.27c0.1-0.035 2.099-0.733 5.505-2.119l0.551 6.612c0.063 0.747 0.593 1.372 1.321 1.552 0.14 0.035 0.282 0.052 0.423 0.052 0.185 0 0.363-0.039 0.537-0.095l-2.426 3.953c-0.217 0.353-0.106 0.814 0.247 1.032 0.122 0.075 0.258 0.111 0.392 0.111 0.252 0 0.498-0.127 0.64-0.358l13.5-22c0.030-0.049 0.054-0.101 0.073-0.155 0.558-1.675-0.329-2.636-0.876-2.909zM21.447 20.028c-0.582-0.374-1.302-0.36-1.857-0.023l-0.346-4.151c-0.047-0.559-0.358-1.061-0.837-1.351s-1.069-0.333-1.585-0.116c-1.833 0.771-3.389 1.395-4.601 1.866 0.695-2.035 1.8-3.46 2.55-4.258 1.242 0.56 2.621 0.841 4.131 0.841 1.701 0 3.572-0.361 5.598-1.073v5.58l-2.301 3.75c-0.102-0.424-0.357-0.811-0.753-1.066z"></path>
</svg>
