<!-- Generated by IcoMoon.io -->
<svg version="1.1" xmlns="http://www.w3.org/2000/svg" width="32" height="32" viewBox="0 0 32 32">
<title>Skiing-jump</title>
<path d="M16.166 28c0 2.025-1.642 3.666-3.666 3.666s-3.666-1.642-3.666-3.666c0-2.025 1.642-3.666 3.666-3.666s3.666 1.642 3.666 3.666zM29.030 10.97c-0.043-0.043-0.092-0.081-0.145-0.113l-17.5-10.5c-0.354-0.214-0.816-0.098-1.029 0.258s-0.098 0.816 0.258 1.029l6.11 3.666c-0.393 0.421-0.563 1.015-0.427 1.592 0.018 0.077 0.032 0.155 0.049 0.232l-10.461-6.276c-0.356-0.214-0.816-0.098-1.029 0.258s-0.098 0.815 0.258 1.028l5.168 3.101c-0.584 0.566-0.702 1.458-0.284 2.156 3.864 6.44 3.684 10.771 3.287 12.678-5.16-0.863-9.793 1.229-10.020 1.333-0.876 0.404-1.258 1.441-0.856 2.317s1.439 1.261 2.318 0.863c0.052-0.024 5.274-2.355 9.999-0.512 2.675 1.043 4.747 3.264 6.16 6.604 0.282 0.668 0.93 1.069 1.613 1.069 0.227 0 0.458-0.044 0.68-0.139 0.89-0.377 1.306-1.404 0.93-2.294-1.498-3.544-3.651-6.119-6.41-7.687 0.954-1.902 2.504-5.701 2.56-10.399l2.197 1.317c0.024 0.089 0.037 0.284-0.129 0.615-0.185 0.37-0.035 0.821 0.335 1.007 0.108 0.053 0.222 0.079 0.335 0.079 0.275 0 0.54-0.152 0.672-0.415 0.585-1.171 0.187-2.038-0.14-2.366-0.043-0.043-0.092-0.081-0.145-0.113l-1.942-1.165c0.399-0.105 0.764-0.35 1.012-0.721 0.12-0.181 0.198-0.377 0.244-0.576l5.258 3.155c0.024 0.089 0.037 0.284-0.129 0.615-0.185 0.37-0.035 0.821 0.335 1.006 0.108 0.053 0.222 0.079 0.335 0.079 0.275 0 0.54-0.152 0.672-0.415 0.585-1.172 0.186-2.039-0.141-2.367zM16.512 13.964c-0.27-1.188-0.668-2.486-1.244-3.89 0.27-0.132 0.51-0.335 0.688-0.603 0.138-0.207 0.225-0.433 0.265-0.663l0.441 0.264c0.182 1.749 0.087 3.402-0.15 4.892z"></path>
</svg>
