<!-- Generated by IcoMoon.io -->
<svg version="1.1" xmlns="http://www.w3.org/2000/svg" width="32" height="32" viewBox="0 0 32 32">
<title>skirt</title>
<path d="M24.81 0.943c0-0.519-0.423-0.943-0.942-0.943h-15.698c-0.521 0-0.944 0.423-0.944 0.943v2.999h17.585v-2.999zM26.012 7.976c-0.166-0.731-0.637-1.551-0.948-2.472h-18.087c-0.298 0.925-0.754 1.75-0.954 2.472-1.239 4.449-1.948 9.864-0.47 23.183 0.053 0.478 0.457 0.84 0.938 0.84h12.713c0.397 0 0.754-0.252 0.888-0.627l0.665-9.047 0.664 9.047c0.134 0.375 0.493 0.627 0.89 0.627h3.23c0.482 0 0.886-0.362 0.939-0.84 1.478-13.32 0.64-18.297-0.469-23.183zM20.709 20.543c-0.632 0-1.142-0.511-1.142-1.142s0.511-1.142 1.142-1.142c0.631 0 1.14 0.511 1.14 1.142 0 0.63-0.51 1.142-1.14 1.142zM20.709 16.762c-0.632 0-1.142-0.511-1.142-1.142s0.511-1.143 1.142-1.143c0.631 0 1.14 0.511 1.14 1.143s-0.51 1.142-1.14 1.142zM20.709 12.982c-0.632 0-1.142-0.511-1.142-1.141 0-0.632 0.511-1.143 1.142-1.143s1.14 0.511 1.14 1.143c0 0.63-0.51 1.141-1.14 1.141zM20.709 9.203c-0.632 0-1.142-0.511-1.142-1.142s0.511-1.143 1.142-1.143c0.631 0 1.14 0.511 1.14 1.143s-0.51 1.142-1.14 1.142z"></path>
</svg>
