<!-- Generated by IcoMoon.io -->
<svg version="1.1" xmlns="http://www.w3.org/2000/svg" width="32" height="32" viewBox="0 0 32 32">
<title>Slalom</title>
<path d="M31.666 9.5c0 2.025-1.642 3.666-3.666 3.666s-3.666-1.642-3.666-3.666c0-2.025 1.642-3.667 3.666-3.667s3.666 1.642 3.666 3.667zM31.754 17.82l-0.75-0.442c0.202-0.348 0.293-0.764 0.215-1.192-0.174-0.948-1.086-1.576-2.032-1.407-0.020 0.003-1.352 0.23-2.732-0.081l-2.279-1.342c-0.61-0.786-0.924-1.907-0.924-3.356 0-0.464-0.184-0.909-0.512-1.238-1.399-1.399-4.752-3.070-8.947-1.521l-4.537-2.672c-0.238-0.14-0.544-0.061-0.684 0.177s-0.061 0.545 0.177 0.684l3.908 2.301c-0.716 0.355-1.452 0.804-2.204 1.368-0.45 0.338-0.71 0.87-0.7 1.433s0.291 1.085 0.754 1.405l4.070 2.818-4.357 2.178c-0.549 0.275-0.913 0.817-0.962 1.428-0.007 0.088-0.005 0.176 0.001 0.262l-8.501-5.055c-0.238-0.143-0.544-0.063-0.685 0.175s-0.064 0.544 0.174 0.685l12.223 7.268 1.015 0.726c0.216 0.154 0.454 0.248 0.698 0.294l9.566 5.689c0.161 0.137 0.689 0.538 1.331 0.538 0.038 0 0.078-0.002 0.118-0.005 0.428-0.033 0.813-0.251 1.113-0.63 0.172-0.217 0.135-0.532-0.081-0.703s-0.531-0.135-0.703 0.081c-0.166 0.21-0.31 0.245-0.403 0.253-0.297 0.019-0.637-0.217-0.741-0.31-0.026-0.024-0.053-0.045-0.083-0.063l-8.732-5.192c0.132-0.102 0.256-0.218 0.357-0.361 0.562-0.787 0.38-1.88-0.406-2.441l-1.135-0.811 4.4-2.2c0.553-0.277 0.919-0.825 0.963-1.441s-0.241-1.211-0.75-1.563l-4.252-2.944c0.723-0.3 1.382-0.444 1.975-0.492l3.202 1.886c0.334 1.912 1.163 3.438 2.494 4.542 2.968 2.463 7.227 1.7 7.407 1.666 0.146-0.027 0.282-0.077 0.41-0.137l1.014 0.597c0.080 0.047 0.167 0.070 0.253 0.070 0.172 0 0.338-0.088 0.431-0.246 0.141-0.238 0.061-0.544-0.177-0.684z"></path>
</svg>
