<!-- Generated by IcoMoon.io -->
<svg version="1.1" xmlns="http://www.w3.org/2000/svg" width="32" height="32" viewBox="0 0 32 32">
<title>sliders</title>
<path d="M20.5 12c-0.552 0-1 0.448-1 1v6c0 0.552 0.448 1 1 1h6c0.552 0 1-0.448 1-1v-6c0-0.552-0.448-1-1-1h-6zM15 22h-6c-0.552 0-1 0.448-1 1v6c0 0.552 0.448 1 1 1h6c0.552 0 1-0.448 1-1v-6c0-0.552-0.448-1-1-1zM5.5 10h6c0.552 0 1-0.448 1-1v-6c0-0.552-0.448-1-1-1h-6c-0.552 0-1 0.448-1 1v6c0 0.552 0.448 1 1 1zM1 7h2v-2h-2c-0.552 0-1 0.448-1 1s0.448 1 1 1zM32 6c0-0.552-0.448-1-1-1h-17v2h17c0.552 0 1-0.448 1-1zM31 15h-2v2h2c0.552 0 1-0.448 1-1s-0.448-1-1-1zM1 17h17v-2h-17c-0.552 0-1 0.448-1 1s0.448 1 1 1zM0 26c0 0.552 0.448 1 1 1h5.5v-2h-5.5c-0.552 0-1 0.448-1 1zM31 25h-13.5v2h13.5c0.552 0 1-0.448 1-1s-0.448-1-1-1z"></path>
</svg>
