<!-- Generated by IcoMoon.io -->
<svg version="1.1" xmlns="http://www.w3.org/2000/svg" width="32" height="32" viewBox="0 0 32 32">
<title>slippers</title>
<path d="M29.169 15.448c-1.657-6.917-5.796-8.566-7.139-8.925-1.506 1.829-2.648 6.124-2.977 7.726-0.070 0.339-0.32 0.591-0.628 0.688 0.706 2.275 1.252 4.42 0.902 7.291-0.554 4.552-2.293 9.547 4.132 9.762 6.8 0.229 6.015-4.003 5.909-8.318-0.058-2.323 0.202-5.073 0.561-7.54-0.36-0.055-0.67-0.309-0.76-0.684zM24.622 0.147c-2.861-0.543-8.664 0.14-8.053 6.84 0.191 2.086 0.597 3.797 1.046 5.337 0.558-2.14 1.725-5.835 3.46-7.478l0.313-0.296 0.427 0.051c0.261 0.031 5.985 0.796 8.613 8.57 0.173-0.896 0.347-1.688 0.506-2.309 1.253-4.915-0.994-9.703-6.311-10.714zM12.948 14.249c-0.331-1.603-1.475-5.902-2.979-7.729-1.351 0.351-5.471 1.976-7.136 8.928-0.090 0.376-0.401 0.629-0.76 0.685 0.359 2.468 0.619 5.218 0.561 7.54-0.107 4.315-0.891 8.547 5.909 8.318 6.425-0.216 4.686-5.21 4.132-9.762-0.35-2.872 0.196-5.016 0.902-7.291-0.309-0.097-0.558-0.35-0.628-0.688zM7.378 0.147c-5.317 1.012-7.564 5.8-6.311 10.714 0.159 0.622 0.333 1.414 0.506 2.309 2.627-7.774 8.352-8.54 8.612-8.57l0.427-0.051 0.313 0.296c1.736 1.642 2.902 5.338 3.46 7.478 0.448-1.54 0.855-3.251 1.046-5.337 0.611-6.7-5.193-7.383-8.053-6.84z"></path>
</svg>
