<!-- Generated by IcoMoon.io -->
<svg version="1.1" xmlns="http://www.w3.org/2000/svg" width="32" height="32" viewBox="0 0 32 32">
<title>smart-watch</title>
<path d="M1.722 17.004l0-0.006-0-0.006zM30.436 16.934c0 0.001-0 0.003-0 0.003 0 0.003 0.001 0.006 0.001 0.009l-0-0.012zM29.492 16h-3.852c-0.017-3-1.204-5.249-3.085-6.997-0.008-0.019-0.009-0.039-0.017-0.057-0.34-0.738-1.402-6.425-1.402-7.768 0-1.192-0.419-1.179-1.177-1.179h-7.96c-0.649 0-1.177 0.002-1.177 1.179 0 1.145-1.113 6.978-1.382 7.797-1.893 1.761-3.083 4.524-3.085 7.024h-3.688c-0.52 0-0.941 0.481-0.945 0.999 0.004 0.52 0.424 1 0.945 1h3.879c0.406 2 1.454 3.823 2.929 5.181 0.355 0.861 1.387 6.361 1.387 7.684 0 1.192 0.42 1.134 1.177 1.134h7.96c0.649 0 1.177 0.028 1.177-1.149 0-1.109 1.044-6.571 1.354-7.66 1.486-1.37 2.535-3.19 2.931-5.19h4.030c0.52 0 0.941-0.482 0.943-1.003-0.006-0.517-0.425-0.998-0.944-0.998zM16 8.934c3.899 0 7.063 3.066 7.096 7.066h-0.869l-2.116-4.247c-0.072-0.177-0.195-0.334-0.369-0.443-0.118-0.072-0.245-0.114-0.375-0.13-0.017-0.002-0.035-0.002-0.052-0.004-0.038-0.002-0.075-0.005-0.113-0.004-0.049 0.002-0.099 0.009-0.148 0.019-0.006 0.001-0.012 0.002-0.017 0.003-0.073 0.016-0.146 0.038-0.217 0.073-0.181 0.092-0.32 0.236-0.407 0.403l-3.227 5.127-1.62-3.252c-0.065-0.169-0.179-0.322-0.339-0.434-0.076-0.052-0.158-0.088-0.242-0.114-0.002-0.001-0.005-0.001-0.007-0.002-0.050-0.016-0.099-0.028-0.15-0.035-0.020-0.003-0.039-0.005-0.059-0.007-0.033-0.002-0.066-0.005-0.1-0.004-0.037 0.001-0.075 0.005-0.114 0.009-0.016 0.002-0.031 0.005-0.048 0.008-0.050 0.009-0.1 0.024-0.149 0.041-0.004 0.002-0.008 0.003-0.011 0.005-0.027 0.011-0.055 0.018-0.082 0.031-0.173 0.088-0.307 0.191-0.396 0.348l-1.832 2.607h-1.134c0.002-4 3.18-7.066 7.099-7.066zM16 23.253c-3.27 0-6.017-2.253-6.84-5.253h1.351c0.006 0 0.011-0.033 0.017-0.033 0.297-0.001 0.589-0.157 0.771-0.419l1.255-1.812 1.662 3.331c0.070 0.18 0.194 0.338 0.368 0.45 0.12 0.074 0.249 0.115 0.38 0.131 0.018 0.003 0.037 0.002 0.055 0.003 0.037 0.003 0.073 0.006 0.11 0.003 0.052-0.002 0.104-0.009 0.156-0.020 0.002-0 0.005-0 0.008-0.001 0.073-0.016 0.146-0.038 0.217-0.073 0.185-0.093 0.324-0.239 0.412-0.41l3.224-5.124 1.659 3.33c0.008 0.015 0.018 0.027 0.026 0.042 0.018 0.032 0.038 0.064 0.059 0.095 0.017 0.022 0.034 0.043 0.052 0.063 0.023 0.025 0.044 0.049 0.070 0.072 0.021 0.020 0.043 0.037 0.066 0.054 0.026 0.020 0.052 0.038 0.079 0.055 0.024 0.015 0.049 0.027 0.074 0.040 0.029 0.015 0.058 0.028 0.089 0.040 0.027 0.011 0.055 0.018 0.084 0.026 0.030 0.008 0.059 0.015 0.090 0.021 0.033 0.006 0.067 0.068 0.101 0.070 0.019 0.002 0.037 0.067 0.056 0.067h1.206c-0.803 3-3.564 5.253-6.855 5.253zM15.517 19.557l-0.008 0.003-0.004 0.003zM12.26 13.046l0.003-0.002 0.007-0.004zM18.814 11.269l0.005-0.002 0.006-0.004zM13.222 13.11l0.003 0.002 0.008 0.004zM14.588 19.517l-0.005-0.003-0.006-0.003zM19.739 11.309c0 0 0 0.001 0.001 0.001 0.003 0.002 0.006 0.002 0.009 0.005l-0.011-0.005z"></path>
</svg>
