<!-- Generated by IcoMoon.io -->
<svg version="1.1" xmlns="http://www.w3.org/2000/svg" width="32" height="32" viewBox="0 0 32 32">
<title>smartphone</title>
<path d="M22.335 0h-13.171c-1.471 0-2.664 1.192-2.664 2.664v26.672c0 1.471 1.193 2.664 2.664 2.664h13.171c1.471 0 2.665-1.193 2.665-2.665v-26.672c0-1.472-1.193-2.664-2.665-2.664zM14 3.425c0 0.001 0 0.002 0 0.003 0-0.193-0.011-0.428 0.183-0.428h3.634c0.194 0 0.183 0.235 0.183 0.428 0-0.001 0-0.002 0-0.003v0.005c0-0.001 0-0.001 0-0.002 0 0.195 0.010 0.572-0.183 0.572h-3.634c-0.193 0-0.183-0.377-0.183-0.572 0 0.001 0 0.001 0 0.002v-0.005zM16 31.020c-1.002 0-1.814-0.813-1.814-1.814s0.812-1.814 1.814-1.814c1.002 0 1.814 0.813 1.814 1.814s-0.813 1.814-1.814 1.814zM23.5 25.067c0 0.515-0.372 0.933-0.832 0.933h-13.835c-0.46 0-0.832-0.418-0.832-0.933v-18.598c0-0.516 0.373-0.968 0.832-0.968h13.835c0.46 0 0.832 0.453 0.832 0.968v18.598z"></path>
</svg>
