<!-- Generated by IcoMoon.io -->
<svg version="1.1" xmlns="http://www.w3.org/2000/svg" width="32" height="32" viewBox="0 0 32 32">
<title>snow</title>
<path d="M29.024 21.951l-1.882-1.087 1.331-0.605c0.754-0.343 1.087-1.232 0.744-1.986s-1.232-1.087-1.986-0.744l-3.282 1.492-5.232-3.021 5.233-3.021 3.282 1.492c0.201 0.092 0.413 0.136 0.62 0.136 0.57 0 1.114-0.326 1.366-0.88 0.343-0.754 0.010-1.643-0.744-1.986l-1.331-0.605 1.882-1.087c0.718-0.415 0.963-1.332 0.549-2.049s-1.331-0.963-2.049-0.549l-1.881 1.086 0.141-1.454c0.080-0.825-0.524-1.558-1.348-1.638-0.821-0.082-1.558 0.523-1.638 1.348l-0.348 3.589-5.45 3.146v-6.013l3.149-2.249c0.674-0.481 0.831-1.418 0.349-2.092s-1.418-0.831-2.093-0.349l-1.406 1.005v-2.328c0-0.829-0.671-1.5-1.5-1.5s-1.5 0.671-1.5 1.5v2.018l-0.973-0.695c-0.676-0.481-1.611-0.325-2.093 0.349s-0.325 1.611 0.348 2.092l2.717 1.941v6.071l-5.016-2.896-0.348-3.588c-0.080-0.824-0.816-1.431-1.638-1.348-0.824 0.080-1.428 0.813-1.349 1.638l0.141 1.455-1.882-1.087c-0.718-0.415-1.635-0.168-2.049 0.549s-0.169 1.635 0.549 2.049l1.882 1.086-1.33 0.605c-0.754 0.343-1.087 1.232-0.744 1.986 0.252 0.553 0.796 0.88 1.366 0.88 0.208 0 0.419-0.043 0.62-0.135l3.281-1.492 5.232 3.021-5.232 3.021-3.281-1.492c-0.754-0.345-1.643-0.011-1.986 0.744s-0.010 1.643 0.744 1.986l1.331 0.605-1.883 1.087c-0.716 0.414-0.962 1.331-0.548 2.049 0.278 0.481 0.781 0.75 1.3 0.75 0.255 0 0.512-0.065 0.748-0.201l1.882-1.087-0.141 1.455c-0.080 0.825 0.524 1.558 1.348 1.637 0.049 0.005 0.098 0.007 0.146 0.007 0.763 0 1.416-0.58 1.491-1.355l0.348-3.588 5.017-2.896v6.072l-2.717 1.941c-0.674 0.482-0.83 1.419-0.348 2.093 0.293 0.41 0.754 0.628 1.222 0.628 0.302 0 0.606-0.090 0.87-0.279l0.973-0.694v2.018c0 0.828 0.671 1.5 1.5 1.5s1.5-0.672 1.5-1.5v-2.328l1.407 1.005c0.674 0.482 1.61 0.325 2.093-0.349s0.325-1.611-0.349-2.093l-3.15-2.25v-6.013l5.449 3.146 0.348 3.588c0.075 0.776 0.728 1.355 1.491 1.355 0.049 0 0.098-0.002 0.146-0.007 0.825-0.080 1.428-0.813 1.349-1.637l-0.141-1.455 1.882 1.087c0.236 0.137 0.494 0.201 0.748 0.201 0.518 0 1.023-0.269 1.3-0.75 0.415-0.718 0.169-1.635-0.549-2.049z"></path>
</svg>
