<!-- Generated by IcoMoon.io -->
<svg version="1.1" xmlns="http://www.w3.org/2000/svg" width="32" height="32" viewBox="0 0 32 32">
<title>snowing</title>
<path d="M24.42 8.156c0.326-0.521 0.518-1.134 0.518-1.794 0-1.867-1.514-3.381-3.381-3.381-1.017 0-1.927 0.451-2.546 1.162-0.828-2.299-3.024-3.946-5.608-3.946-3.296 0-5.967 2.671-5.967 5.967 0 0.078 0.009 0.154 0.011 0.231-2.306 0.681-4.24 2.812-4.24 5.338 0 2.79 1.979 4.862 4.479 5.268 0.5 0.002 16.448 0 16.5 0 2.527 0 4.604-1.747 4.604-4.274 0-2.501-1.881-4.528-4.372-4.571zM10.136 23c0.207-0.358 0.085-0.817-0.274-1.024l-0.39-0.226 0.39-0.226c0.359-0.207 0.482-0.666 0.274-1.024s-0.761-0.48-1.118-0.274l-0.518 0.244v-0.47c0-0.415-0.336-0.75-0.75-0.75s-0.75 0.335-0.75 0.75v0.431l-0.263-0.206c-0.358-0.207-0.771-0.084-0.978 0.274s-0.061 0.817 0.298 1.024l0.402 0.226-0.385 0.226c-0.359 0.207-0.479 0.666-0.271 1.024 0.138 0.241 0.393 0.375 0.651 0.375 0.128 0 0.163-0.032 0.282-0.101l0.263-0.206v0.431c0 0.415 0.336 0.75 0.75 0.75s0.75-0.335 0.75-0.75v-0.47l0.518 0.244c0.118 0.069 0.294 0.101 0.421 0.101 0.259-0 0.558-0.135 0.697-0.375zM18.355 23c0.207-0.358 0.116-0.817-0.243-1.024l-0.39-0.226 0.39-0.226c0.359-0.207 0.482-0.666 0.274-1.024s-0.886-0.48-1.243-0.274l-0.643 0.244v-0.47c0-0.415-0.336-0.75-0.75-0.75s-0.75 0.335-0.75 0.75v0.431l-0.138-0.206c-0.358-0.207-0.708-0.084-0.915 0.274s-0.030 0.817 0.329 1.024l0.418 0.226-0.377 0.226c-0.359 0.207-0.475 0.666-0.268 1.024 0.139 0.241 0.395 0.375 0.653 0.375 0.127 0 0.040-0.032 0.158-0.101l0.139-0.206v0.431c0 0.415 0.336 0.75 0.75 0.75s0.75-0.335 0.75-0.75v-0.47l0.642 0.244c0.118 0.069 0.357 0.101 0.484 0.101 0.259-0 0.59-0.135 0.728-0.375zM26.636 20.5c-0.207-0.359-0.761-0.48-1.118-0.274l-0.517 0.244v-0.47c0-0.415-0.336-0.75-0.75-0.75s-0.75 0.335-0.75 0.75v0.431l-0.263-0.206c-0.358-0.207-0.77-0.084-0.977 0.274s-0.061 0.817 0.298 1.024l0.402 0.226-0.384 0.226c-0.359 0.207-0.479 0.666-0.271 1.024 0.139 0.241 0.392 0.375 0.651 0.375 0.128 0 0.163-0.032 0.282-0.101l0.264-0.206v0.431c0 0.415 0.336 0.75 0.75 0.75s0.75-0.335 0.75-0.75v-0.47l0.517 0.244c0.118 0.069 0.294 0.101 0.421 0.101 0.259 0 0.535-0.135 0.674-0.375 0.207-0.358 0.096-0.817-0.262-1.024l-0.384-0.226 0.393-0.226c0.359-0.207 0.485-0.666 0.277-1.024zM13.886 27.5c-0.207-0.359-0.886-0.48-1.243-0.274l-0.643 0.244v-0.47c0-0.415-0.336-0.75-0.75-0.75s-0.75 0.335-0.75 0.75v0.431l-0.138-0.206c-0.358-0.207-0.708-0.084-0.915 0.274s-0.030 0.817 0.329 1.024l0.418 0.226-0.377 0.226c-0.359 0.207-0.475 0.666-0.268 1.024 0.139 0.241 0.395 0.375 0.653 0.375 0.127 0 0.040-0.032 0.158-0.101l0.139-0.206v0.431c0 0.415 0.336 0.75 0.75 0.75s0.75-0.335 0.75-0.75v-0.47l0.643 0.244c0.118 0.069 0.357 0.101 0.484 0.101 0.259 0 0.566-0.135 0.704-0.375 0.207-0.358 0.127-0.817-0.232-1.024l-0.384-0.226 0.393-0.226c0.359-0.207 0.485-0.666 0.277-1.024zM22.136 27.5c-0.207-0.359-0.761-0.48-1.118-0.274l-0.517 0.244v-0.47c0-0.415-0.336-0.75-0.75-0.75s-0.75 0.335-0.75 0.75v0.431l-0.263-0.206c-0.358-0.207-0.77-0.084-0.977 0.274s-0.061 0.817 0.298 1.024l0.402 0.226-0.384 0.226c-0.359 0.207-0.479 0.666-0.271 1.024 0.139 0.241 0.392 0.375 0.651 0.375 0.128 0 0.163-0.032 0.282-0.101l0.264-0.206v0.431c0 0.415 0.336 0.75 0.75 0.75s0.75-0.335 0.75-0.75v-0.47l0.517 0.244c0.118 0.069 0.294 0.101 0.421 0.101 0.259 0 0.535-0.135 0.674-0.375 0.207-0.358 0.096-0.817-0.262-1.024l-0.384-0.226 0.393-0.226c0.359-0.207 0.485-0.666 0.277-1.024z"></path>
</svg>
