<!-- Generated by IcoMoon.io -->
<svg version="1.1" xmlns="http://www.w3.org/2000/svg" width="32" height="32" viewBox="0 0 32 32">
<title>Snowboard-Race</title>
<path d="M18.837 3.349c0 1.796-1.456 3.252-3.252 3.252s-3.252-1.456-3.252-3.252c0-1.796 1.456-3.252 3.252-3.252s3.252 1.456 3.252 3.252zM31.837 8.849c0 1.796-1.456 3.252-3.252 3.252s-3.252-1.456-3.252-3.252c0-1.796 1.456-3.252 3.252-3.252s3.252 1.456 3.252 3.252zM29.5 29.25c-0.415 0-0.75 0.335-0.75 0.75 0 0.206-0.043 0.291-0.054 0.302-0.043 0.037-0.238 0.040-0.402 0.003l-3.279-1.886c0.128-0.091 0.249-0.196 0.352-0.325 0.604-0.755 0.482-1.856-0.273-2.459l-1.488-1.191c0.922-2.748 0.558-5.090-0.361-6.959-0.002-0.199-0.032-0.401-0.105-0.599-0.159-0.423-0.466-0.742-0.838-0.935-0.34-0.453-0.706-0.866-1.084-1.235l1.769-0.982c1.264 1.869 2.303 4.171 2.855 5.82 0.244 0.733 0.927 1.197 1.66 1.197 0.183 0 0.37-0.029 0.553-0.090 0.916-0.305 1.413-1.297 1.107-2.213-0.314-0.941-3.21-9.249-8.23-11.074-1.773-0.645-3.622-0.424-5.346 0.637-0.823 0.507-1.079 1.585-0.573 2.408s1.584 1.079 2.407 0.573c0.816-0.502 1.55-0.607 2.314-0.329 0.27 0.098 0.538 0.249 0.805 0.428l-3.387 1.88c-0.564 0.313-0.909 0.911-0.9 1.555s0.372 1.232 0.944 1.528c0.063 0.032 0.543 0.29 1.123 0.771l-4.747 1.78-2.364-1.351c0.068-0.064 0.136-0.127 0.194-0.203 0.58-0.773 0.424-1.87-0.35-2.45l-0.572-0.43c0.225-0.525 0.3-1.033 0.306-1.454 0.024-1.385-0.678-2.763-1.556-3.938-0.021-0.169-0.060-0.338-0.134-0.502-0.204-0.448-0.573-0.766-1.002-0.92 0.546-0.058 1.148-0.095 1.727-0.103 0.518 0.809 1.050 1.787 1.588 2.971 0.293 0.645 0.929 1.027 1.594 1.027 0.242 0 0.489-0.050 0.723-0.157 0.88-0.4 1.269-1.438 0.869-2.318-2.203-4.845-4.864-7.708-7.911-8.511-2.913-0.768-4.984 0.655-5.21 0.82-0.781 0.569-0.954 1.663-0.386 2.445s1.663 0.955 2.445 0.386c0.009-0.006 0.951-0.611 2.26-0.267 0.268 0.071 0.564 0.185 0.883 0.355-1.497 0.274-2.508 0.766-3.019 1.475-0.437 0.606-0.551 1.362-0.313 2.074 0.11 0.331 0.317 0.621 0.594 0.834 0.081 0.063 0.165 0.129 0.25 0.198l-2.906 1.322c-0.556 0.253-0.94 0.778-1.012 1.385-0.169 0.056-0.32 0.17-0.415 0.337-0.205 0.36-0.081 0.818 0.279 1.023l2.059 1.177 0.763 0.572c0.249 0.187 0.531 0.294 0.82 0.332l8.312 4.749c-0.171 0.238-0.285 0.517-0.319 0.819-0.020 0.172-0.012 0.343 0.018 0.508l-3.405-1.958c-0.358-0.207-0.817-0.083-1.024 0.276s-0.083 0.817 0.277 1.024l20 11.5c0.043 0.025 0.089 0.046 0.137 0.061 0.058 0.020 0.372 0.117 0.762 0.117 0.329 0 0.712-0.069 1.047-0.311 0.309-0.223 0.677-0.667 0.677-1.518 0-0.415-0.335-0.75-0.75-0.75zM5.358 11.896l1.353-0.614c0.353 0.524 0.58 1.010 0.574 1.373-0.002 0.083-0.004 0.209-0.302 0.421-0.439 0.313-0.702 0.813-0.726 1.35l-0.805-0.46c0.431-0.647 0.381-1.487-0.094-2.070zM17.471 21.044l-0.157-0.105 3.069-1.151c0.367 1.198 0.361 2.686-0.47 4.475-0.173 0.373-0.203 0.782-0.11 1.159l-2.443-1.405c0.23-0.131 0.438-0.311 0.596-0.547 0.537-0.804 0.32-1.89-0.485-2.427z"></path>
</svg>
