<!-- Generated by IcoMoon.io -->
<svg version="1.1" xmlns="http://www.w3.org/2000/svg" width="32" height="32" viewBox="0 0 32 32">
<title>Snowboard-</title>
<path d="M27.166 5.5c0 2.025-1.642 3.666-3.666 3.666s-3.666-1.642-3.666-3.667c0-2.025 1.642-3.667 3.666-3.667s3.666 1.642 3.666 3.667zM24.5 27.166c-0.414 0-0.75 0.336-0.75 0.75 0 0.253-0.055 0.36-0.087 0.384-0.084 0.061-0.325 0.054-0.505 0.011l-3.774-2.17c0.178-0.105 0.345-0.234 0.482-0.405 0.604-0.755 0.482-1.856-0.273-2.46l-1.712-1.369c1.037-3.008 0.643-5.568-0.363-7.602 0.003-0.213-0.029-0.431-0.108-0.643-0.165-0.439-0.488-0.77-0.881-0.959-0.415-0.556-0.867-1.059-1.335-1.498l1.849-1.027c1.085 1.614 2.12 3.735 3.087 6.344 0.261 0.706 0.93 1.142 1.641 1.142 0.202 0 0.407-0.035 0.608-0.11 0.907-0.336 1.369-1.343 1.033-2.249-1.398-3.774-2.977-6.705-4.692-8.712-3.884-4.546-7.87-3.597-9.434-2.46-0.781 0.569-0.972 1.676-0.403 2.457s1.646 0.966 2.427 0.398c0.168-0.109 1.438-0.841 3.32 0.526l-3.529 1.961c-0.563 0.313-0.909 0.911-0.9 1.555s0.372 1.232 0.944 1.528c0.078 0.040 0.722 0.386 1.459 1.037l-6.178 2.317c-0.614 0.231-1.049 0.786-1.124 1.439-0.029 0.253-0.001 0.504 0.074 0.738l-3.963-2.279c-0.359-0.206-0.818-0.082-1.024 0.276s-0.083 0.818 0.276 1.024l21.821 12.546c0.044 0.025 0.090 0.046 0.137 0.061 0.062 0.021 0.395 0.125 0.811 0.125 0.346 0 0.75-0.073 1.102-0.326 0.323-0.234 0.71-0.701 0.71-1.601 0-0.415-0.335-0.751-0.75-0.751zM11.287 18.278l-0.431-0.287 3.802-1.426c0.463 1.364 0.491 3.082-0.473 5.16-0.213 0.457-0.212 0.969-0.027 1.412l-3.144-1.808c0.298-0.13 0.566-0.333 0.76-0.623 0.536-0.804 0.319-1.89-0.486-2.427zM32.014 19.378c-0.004-0.012-0.009-0.024-0.014-0.036v-4.841c0-0.414-0.336-0.75-0.75-0.75s-0.75 0.336-0.75 0.75v4.634c-2.341 0.896-6.503 2.805-5.982 4.889 0.527 2.107 5.46 4.259 6.444 4.669 0.093 0.038 0.191 0.058 0.288 0.058 0.146 0 0.291-0.043 0.416-0.126 0.209-0.139 0.334-0.373 0.334-0.624v-8.075c0.071-0.168 0.081-0.362 0.014-0.547z"></path>
</svg>
