<!-- Generated by IcoMoon.io -->
<svg version="1.1" xmlns="http://www.w3.org/2000/svg" width="32" height="32" viewBox="0 0 32 32">
<title>soccer-goal-nets</title>
<path d="M31.25 4h-30.5c-0.414 0-0.75 0.303-0.75 0.679v22.642c0 0.375 0.336 0.679 0.75 0.679 0.307 0 0.57-0.167 0.686-0.406 0.125 0.005 0.244 0.063 0.327-0.012l2.944-2.582h22.793c0.012 0 0.023-0.091 0.035-0.092l2.951 2.631c0.014 0.012 0.035-0.006 0.050 0.005 0.095 0.276 0.377 0.466 0.712 0.466 0.414 0 0.75-0.314 0.75-0.689v-22.642c0-0.375-0.336-0.679-0.75-0.679zM4 23.742c-0.003 0.003-0.009 0.003-0.013 0.006l-2.487 2.253v-19.776l2.487 2.253c0.003 0.004 0.009 0.004 0.013 0.007v15.258zM5 24v-2.216l0.394-0.319 2.757 2.535h-3.151zM18.828 14.383l-2.828 2.561-2.829-2.562 2.829-2.562 2.828 2.562zM16.707 11.181l2.828-2.562 2.829 2.562-2.828 2.562-2.828-2.562zM12.464 13.742l-2.829-2.562 2.829-2.562 2.829 2.562-2.829 2.562zM11.758 14.383l-2.829 2.562-2.829-2.562 2.829-2.562 2.829 2.562zM11.758 20.787l-2.829 2.561-2.829-2.561 2.829-2.561 2.829 2.561zM9.636 17.585l2.829-2.562 2.829 2.562-2.829 2.561-2.829-2.561zM16 18.226l2.828 2.561-2.828 2.561-2.829-2.561 2.829-2.561zM16.707 17.585l2.828-2.562 2.828 2.562-2.828 2.561-2.828-2.561zM23.072 18.226l2.828 2.561-2.828 2.561-2.828-2.561 2.828-2.561zM20.242 14.383l2.828-2.562 2.828 2.562-2.828 2.562-2.828-2.562zM20.849 8.5h4.444l-2.221 2.012-2.222-2.012zM16 10.512l-2.222-2.012h4.443l-2.221 2.012zM8.929 10.512l-2.221-2.012h4.443l-2.222 2.012zM8.222 11.167l-2.829 2.569-0.393-0.35v-4.886h0.292l2.929 2.667zM5.394 15.024l2.829 2.562-2.829 2.561-0.394-0.357v-4.41l0.394-0.357zM9.707 24l2.758-2.497 2.757 2.497h-5.514zM16.779 24l2.757-2.497 2.758 2.497h-5.515zM27 24h-3.151l2.757-2.535 0.393 0.318v2.216zM27 19.79l-0.393 0.357-2.828-2.561 2.828-2.562 0.393 0.357v4.41zM27 13.386l-0.393 0.356-2.828-2.575 2.928-2.667h0.293v4.886zM26.805 7.62c-0.003 0.003-21.786-0.059-21.786-0.059-0.003-0.003-0.037 0.093-0.041 0.090l-2.522-2.151h26.836l-2.488 2.12zM30.5 25.5l-2.5-2v-15.237l2.5-2.264v19.501z"></path>
</svg>
