<!-- Generated by IcoMoon.io -->
<svg version="1.1" xmlns="http://www.w3.org/2000/svg" width="32" height="32" viewBox="0 0 32 32">
<title>soccer-shoe</title>
<path d="M16.477 18.648c-1.605 0.561-2.52 1.195-3.042 1.733-0.252 0.022-0.507 0.042-0.762 0.061 0.498-0.693 1.518-1.571 3.624-2.307 2.739-0.957 6.076-1.375 8.989-1.689 2.229-0.241 4.956-0.745 6.71-2.47 0.006-0.261 0.005-0.531-0.003-0.807-1.718 1.783-4.441 2.434-7.177 2.724-2.858 0.303-6.529 0.634-9.332 1.677-2.733 1.015-3.624 2.369-3.892 2.95-1.517 0.095-2.937 0.129-3.839 0.035 0.603-1.675 4.289-3.769 8.484-4.462 5.194-0.857 6.005-0.62 10.221-1.184 3.087-0.413 4.86-1.892 5.495-2.529-0.105-1.47-0.395-2.965-0.914-3.823-0.667-1.104-1.213 3.419-4.258 3.425-4.689 0.008-5.557-3.591-6.098-3.417-0.074 0.024-0.855 0.508-2.020 1.197l0.611 1.195c0.119 0.232 0.026 0.517-0.206 0.635l-0.003 0.002c-0.232 0.119-0.516 0.027-0.635-0.205l-0.584-1.145c-0.386 0.225-0.801 0.464-1.232 0.709l0.593 1.16c0.119 0.232 0.027 0.517-0.206 0.635l-0.002 0.002c-0.233 0.117-0.516 0.026-0.636-0.207l-0.576-1.127c-0.386 0.214-0.781 0.429-1.181 0.643l0.527 1.033c0.118 0.232 0.027 0.516-0.206 0.636l-0.002 0.002c-0.232 0.118-0.516 0.027-0.636-0.206l-0.522-1.024c-0.401 0.207-0.803 0.408-1.203 0.602l0.495 0.97c0.119 0.232 0.027 0.517-0.206 0.635l-0.002 0.002c-0.232 0.118-0.515 0.026-0.635-0.206l-0.509-0.996c-0.375 0.172-0.743 0.334-1.101 0.482-0.047 0.019-0.091 0.034-0.136 0.053l0.515 1.010c0.118 0.232 0.027 0.517-0.206 0.636l-0.002 0.002c-0.232 0.118-0.516 0.026-0.636-0.206l-0.567-1.111c-3.61 1.22-5.946 0.597-8.001 1.454-1.526 0.636-1.938 3.191-1.261 3.813 0.070 0.064 0.164 0.134 0.273 0.207v1.097c0 0.647 0.526 1.173 1.173 1.173h0.081c0.648 0 1.173-0.526 1.173-1.173v-0.029c0.317 0.104 0.658 0.206 1.022 0.304v0.841c0 0.647 0.526 1.173 1.173 1.173h0.080c0.647 0 1.173-0.526 1.173-1.173v-0.308c0.354 0.061 0.718 0.119 1.098 0.172 0.569 0.077 1.402 0.090 2.355 0.064v0.465c0 0.647 0.526 1.173 1.173 1.173h0.081c0.647 0 1.174-0.526 1.174-1.173v-0.594c0.292-0.021 0.584-0.044 0.874-0.069v0.663c0 0.647 0.526 1.173 1.173 1.173h0.081c0.647 0 1.174-0.526 1.174-1.173v-0.893c0.94-0.101 1.72-0.198 2.17-0.264 0.979-0.143 2.52-0.339 2.52-0.339l4.93-0.023v0.637c0 0.647 0.526 1.173 1.173 1.173h0.081c0.647 0 1.173-0.526 1.173-1.173v-0.649l0.926-0.005v0.654c0 0.647 0.526 1.173 1.173 1.173h0.081c0.648 0 1.173-0.526 1.173-1.173v-0.665c-0.016-0.063 0.747-2.827 0.928-6.166-1.861 1.545-4.469 2.021-6.625 2.255-2.883 0.311-6.183 0.722-8.868 1.66z"></path>
</svg>
