<!-- Generated by IcoMoon.io -->
<svg version="1.1" xmlns="http://www.w3.org/2000/svg" width="32" height="32" viewBox="0 0 32 32">
<title>socket</title>
<path d="M29.523 0h-27.045c-1.368 0-2.478 1.109-2.478 2.478v27.045c0 1.369 1.109 2.477 2.478 2.477h27.045c1.368 0 2.477-1.109 2.477-2.477v-27.045c0-1.368-1.11-2.478-2.477-2.478zM18 27.948v-3.292c0-0.464-0.287-0.657-0.61-0.657h-2.781c-0.323 0-0.609 0.192-0.609 0.657v3.292c-5.5-0.944-10.136-5.933-10.136-11.948s4.636-11.005 10.136-11.948v3.292c0 0.463 0.286 0.656 0.61 0.656h2.782c0.323 0 0.609-0.193 0.609-0.657v-3.292c5.5 0.944 10.136 5.933 10.136 11.948s-4.636 11.005-10.136 11.948zM12.478 16c0 1.139-0.923 2.061-2.062 2.061s-2.062-0.923-2.062-2.062c0-1.139 0.923-2.062 2.062-2.062s2.062 0.923 2.062 2.062zM23.645 16c0 1.139-0.923 2.061-2.061 2.061s-2.061-0.923-2.061-2.062c0-1.139 0.923-2.062 2.061-2.062s2.061 0.923 2.061 2.062z"></path>
</svg>
