<!-- Generated by IcoMoon.io -->
<svg version="1.1" xmlns="http://www.w3.org/2000/svg" width="32" height="32" viewBox="0 0 32 32">
<title>sock</title>
<path d="M16.701 17.531l-8.239 4.296c1.772 0.91 3.79 2.887 4.127 7.195 0.029 0.36-0.241 0.675-0.601 0.703-0.017 0.001-0.034 0.002-0.052 0.002-0.338 0-0.624-0.26-0.652-0.604-0.354-4.532-2.743-6.026-4.293-6.52-2.226 1.325-3.111 4.154-1.967 6.532 1.212 2.517 4.234 3.575 6.75 2.364l11.792-5.594c-0.156-0.294-0.389-0.727-0.742-1.361-1.098-1.974-1.308-3.564-0.623-4.724 0.972-1.648 3.334-1.668 3.434-1.66l1.84-0.009v-8.648h-10.774v8.029zM23.326 20.488c-0.422 0.721-0.2 1.904 0.643 3.42 0.362 0.651 0.607 1.105 0.776 1.426 1.725-0.896 2.726-2.654 2.724-4.489 0.002-0.020 0.006-0.040 0.006-0.059v-1.326l-1.837 0.010c-0.48 0-1.824 0.187-2.313 1.019zM26.773 1.806v-1.005c0-0.443-0.358-0.8-0.799-0.8h-7.771c-0.441 0-0.799 0.357-0.799 0.8v1.006c-0.402 0.098-0.702 0.459-0.702 0.891v1.535h10.774v-1.535c0-0.433-0.3-0.792-0.703-0.891zM16.701 6.048h10.774v1.638h-10.774v-1.638z"></path>
</svg>
