<!-- Generated by IcoMoon.io -->
<svg version="1.1" xmlns="http://www.w3.org/2000/svg" width="32" height="32" viewBox="0 0 32 32">
<title>sort-amount-desc</title>
<path d="M13.802 24.5c1 0 0.651 1.105 0.261 1.495l-5.303 5.323c-0.39 0.39-1.024 0.4-1.414 0.009l-5.303-5.337c-0.391-0.39-0.74-1.49 0.26-1.49h11.5zM6.143 26c-0.602 0-0.643-0.5-0.643-1.052v-24c0-0.552 0.040-0.948 0.643-0.948h3.819c0.602 0 0.539 0.396 0.539 0.948v24c0 0.552 0.063 1.052-0.539 1.052h-3.819zM16.5 26.5h5c0.276 0 0.5 0.224 0.5 0.5v3.5c0 0.276-0.224 0.5-0.5 0.5h-5c-0.276 0-0.5-0.224-0.5-0.5v-3.5c0-0.276 0.224-0.5 0.5-0.5zM16.5 18h8c0.276 0 0.5 0.224 0.5 0.5v3.5c0 0.276-0.224 0.5-0.5 0.5h-8c-0.276 0-0.5-0.224-0.5-0.5v-3.5c0-0.276 0.224-0.5 0.5-0.5zM16.5 9h11c0.276 0 0.5 0.223 0.5 0.5v3.5c0 0.277-0.224 0.5-0.5 0.5h-11c-0.276 0-0.5-0.223-0.5-0.5v-3.5c0-0.277 0.224-0.5 0.5-0.5zM31 5h-14.5c-0.276 0-0.5-0.223-0.5-0.5v-3.5c0-0.276 0.224-0.5 0.5-0.5h14.5c0.276 0 0.5 0.224 0.5 0.5v3.5c0 0.277-0.224 0.5-0.5 0.5z"></path>
</svg>
