<!-- Generated by IcoMoon.io -->
<svg version="1.1" xmlns="http://www.w3.org/2000/svg" width="32" height="32" viewBox="0 0 32 32">
<title>sort-alpha-desc</title>
<path d="M13.802 24.5h-3.302v-23.552c0-0.552 0.063-0.948-0.539-0.948h-3.819c-0.603 0-0.643 0.396-0.643 0.948v23.552h-3.198c-1 0-0.651 1.099-0.26 1.49l5.303 5.337c0.391 0.39 1.023 0.381 1.414-0.009l5.303-5.322c0.39-0.39 0.739-1.495-0.261-1.495zM29.5 10.5h-7.252l6.752-7.237v-2.263h-10.5v2.5h6.042l-6.542 6.976v2.524h11.5zM26.2 19h-4.101l-4.573 12h3.84l0.593-2h4.27l0.608 2h3.938l-4.573-12zM22.774 26.5l1.329-4.375 1.343 4.375h-2.672z"></path>
</svg>
