<!-- Generated by IcoMoon.io -->
<svg version="1.1" xmlns="http://www.w3.org/2000/svg" width="32" height="32" viewBox="0 0 32 32">
<title>sort-numeric-desc</title>
<path d="M13.802 24.5h-3.302v-23.552c0-0.552 0.063-0.948-0.539-0.948h-3.819c-0.603 0-0.643 0.396-0.643 0.948v23.552h-3.198c-1 0-0.651 1.099-0.26 1.49l5.303 5.337c0.391 0.39 1.023 0.381 1.414-0.009l5.303-5.322c0.39-0.39 0.739-1.495-0.261-1.495zM27.457 3.242c-0.44-0.91-1.028-1.574-1.764-1.992s-1.713-0.626-2.93-0.626c-1.012 0-1.854 0.17-2.523 0.51-0.669 0.341-1.195 0.843-1.577 1.507s-0.573 1.4-0.573 2.208c0 1.184 0.375 2.163 1.125 2.938s1.669 1.162 2.76 1.162c0.559 0 1.052-0.097 1.477-0.29s0.841-0.498 1.245-0.913c-0.111 1.306-0.277 2.161-0.498 2.565-0.305 0.548-0.728 0.822-1.27 0.822-0.305 0-0.562-0.097-0.772-0.29s-0.36-0.526-0.448-0.996l-3.362 0.424c0.199 0.648 0.484 1.187 0.855 1.619s0.835 0.76 1.395 0.983c0.559 0.225 1.323 0.337 2.291 0.337 1.638 0 2.919-0.511 3.843-1.531s1.386-2.63 1.386-4.827c-0-1.495-0.221-2.697-0.66-3.608zM24.099 6.335c-0.316 0.348-0.711 0.523-1.187 0.523-0.459 0-0.843-0.179-1.149-0.54s-0.46-0.88-0.46-1.561c0-0.676 0.148-1.181 0.444-1.519s0.668-0.506 1.116-0.506c0.476 0 0.88 0.187 1.212 0.56s0.498 0.89 0.498 1.549c0 0.647-0.158 1.146-0.474 1.494zM21.625 20.488c-0.637 0.52-1.625 1.027-2.625 1.398v2.773c0.5-0.238 1.402-0.487 1.92-0.747s1.080-0.601 1.58-1.021v8.11h3.5v-12.5h-2.939c-0.36 1-0.801 1.468-1.437 1.988z"></path>
</svg>
