<!-- Generated by IcoMoon.io -->
<svg version="1.1" xmlns="http://www.w3.org/2000/svg" width="32" height="32" viewBox="0 0 32 32">
<title>sort-amount-asc</title>
<path d="M13.802 24.5h-3.302v-23.552c0-0.552 0.063-0.948-0.539-0.948h-3.819c-0.603 0-0.643 0.396-0.643 0.948v23.552h-3.198c-1 0-0.651 1.099-0.26 1.49l5.303 5.337c0.391 0.39 1.023 0.381 1.414-0.009l5.303-5.322c0.39-0.39 0.739-1.495-0.261-1.495zM16.5 5h5c0.276 0 0.5-0.223 0.5-0.5v-3.5c0-0.276-0.224-0.5-0.5-0.5h-5c-0.276 0-0.5 0.224-0.5 0.5v3.5c0 0.277 0.224 0.5 0.5 0.5zM16.5 13.5h8c0.276 0 0.5-0.223 0.5-0.5v-3.5c0-0.277-0.224-0.5-0.5-0.5h-8c-0.276 0-0.5 0.223-0.5 0.5v3.5c0 0.277 0.224 0.5 0.5 0.5zM16.5 22.5h11c0.276 0 0.5-0.224 0.5-0.5v-3.5c0-0.276-0.224-0.5-0.5-0.5h-11c-0.276 0-0.5 0.224-0.5 0.5v3.5c0 0.276 0.224 0.5 0.5 0.5zM31 26.5h-14.5c-0.276 0-0.5 0.224-0.5 0.5v3.5c0 0.276 0.224 0.5 0.5 0.5h14.5c0.276 0 0.5-0.224 0.5-0.5v-3.5c0-0.276-0.224-0.5-0.5-0.5z"></path>
</svg>
