<!-- Generated by IcoMoon.io -->
<svg version="1.1" xmlns="http://www.w3.org/2000/svg" width="32" height="32" viewBox="0 0 32 32">
<title>speakers</title>
<path d="M18.106 6.84c0 1.163-0.943 2.106-2.107 2.106s-2.107-0.943-2.107-2.107c0-1.163 0.943-2.107 2.107-2.107s2.107 0.943 2.107 2.107zM22.5 0h-13c-1.657 0-3 1.343-3 3v28c0.021 1 1.343 1 3 1h13c1.657 0 3.021 0 3-1v-28c0-1.657-1.343-3-3-3zM15.999 2.615c2.334 0 4.226 1.892 4.226 4.225 0 2.335-1.892 4.226-4.226 4.226s-4.226-1.891-4.226-4.226c0-2.333 1.892-4.225 4.226-4.225zM16 30.765c-0.69 0-1.249-0.558-1.249-1.248s0.559-1.248 1.249-1.248c0.689 0 1.249 0.559 1.249 1.248s-0.559 1.248-1.249 1.248zM15.999 26.947c-4.066 0-7.362-3.295-7.362-7.362 0-4.065 3.296-7.361 7.361-7.361s7.363 3.296 7.363 7.361c0 4.067-3.297 7.362-7.364 7.362zM19.669 19.585c0 2.027-1.643 3.67-3.67 3.67s-3.67-1.643-3.67-3.67c0-2.027 1.643-3.67 3.67-3.67s3.67 1.643 3.67 3.67z"></path>
</svg>
