<!-- Generated by IcoMoon.io -->
<svg version="1.1" xmlns="http://www.w3.org/2000/svg" width="32" height="32" viewBox="0 0 32 32">
<title>Sperm</title>
<path d="M29.837 15.107c0 0-4.014-2.273-4.040-4.493 0 0 0.102-1.608-0.657-2.901 0.582-3.727-2.802-5.188-2.802-5.188-3.767-2.408-4.986-0.213-4.986-0.213-2.415 2.599 2.102 7.482 2.102 7.482 1.324 1.162 2.718 0.967 3.726 0.537 0.169 0.895 0.608 2.274 1.745 3.053 0 0 1.224 1.168 4.291 2.635 0 0 2.46 0.464 1.262 3.223 0 0 0.301 0.925 0.612 0.023 0 0 1.735-2.407-1.255-4.159zM10.909 11.572c0.293 0.137 0.694 0.33 0.853 0.408 1.024 0.492 2.21 1.107 3.346 1.852 0.553 0.377 1.117 0.781 1.578 1.214 0.493 0.432 0.805 0.876 1.008 1.241 0.004 0.076 0.024 0.149 0.060 0.235 0.046 0.112 0.011 0.363 0.020 0.536 0.003 0.395-0.017 0.753 0.002 1.166 0.023 0.83 0.090 1.64 0.246 2.421 0.041 0.381 0.193 0.77 0.303 1.137 0.115 0.368 0.22 0.722 0.419 1.049 0.177 0.323 0.349 0.639 0.512 0.947 0.223 0.27 0.438 0.526 0.642 0.775 0.369 0.518 0.899 0.82 1.273 1.151 0.377 0.343 0.785 0.516 1.101 0.691 0.63 0.334 0.989 0.523 0.989 0.523s-0.307-0.262-0.849-0.712c-0.262-0.229-0.611-0.47-0.883-0.864-0.28-0.378-0.692-0.733-0.902-1.262-0.128-0.242-0.262-0.494-0.396-0.756-0.075-0.281-0.157-0.57-0.236-0.867-0.106-0.285-0.119-0.604-0.141-0.92-0.018-0.321-0.076-0.631-0.029-0.972 0.022-0.665 0.125-1.338 0.264-2.014 0.067-0.343 0.173-0.73 0.26-1.094 0.040-0.207 0.107-0.328 0.122-0.601 0.027-0.304 0.044-0.613 0.036-0.924-0.169-1.149-0.669-2.095-1.197-2.855-0.534-0.78-1.12-1.425-1.698-2.031-1.16-1.188-2.327-2.142-3.337-2.929-0.046-0.034-0.264-0.168-0.453-0.283 0.242-1.331 0.049-2.902-1.38-4.325 0 0-7.409-5.996-10.897-2.297 0 0-3.024 1.95 0.777 7.109 0.001-0.001 2.687 5.228 8.585 3.257zM23.031 30.677c-0.178-0.246-0.327-0.578-0.629-0.831-0.143-0.136-0.29-0.279-0.442-0.427-0.181-0.116-0.367-0.235-0.558-0.358-0.19-0.139-0.407-0.22-0.631-0.306-0.221-0.085-0.454-0.198-0.694-0.242-0.479-0.136-0.983-0.218-1.506-0.273-0.26-0.032-0.488-0.040-0.735-0.061-0.111-0.012-0.27-0.005-0.338-0.038-0.049-0.023-0.094-0.041-0.142-0.050-0.213-0.139-0.473-0.352-0.707-0.671-0.237-0.302-0.451-0.662-0.648-1.017-0.386-0.727-0.685-1.476-0.921-2.12-0.028-0.079-0.188-0.43-0.332-0.752 0.721-1.001 1.313-2.515 0.304-4.266 0 0-4.303-5.949-7.641-3.899 0 0-2.641 0.843-0.853 5.444 0 0 0.926 4.334 5.576 4.157 0.14 0.284 0.302 0.613 0.322 0.64 0.422 0.654 0.937 1.405 1.598 2.172 0.341 0.378 0.706 0.768 1.155 1.13 0.44 0.358 0.999 0.709 1.714 0.872 0.192 0.017 0.389 0.026 0.581 0.023 0.174 0.006 0.256-0.030 0.387-0.043 0.237-0.035 0.492-0.081 0.709-0.103 0.436-0.047 0.87-0.079 1.291-0.058 0.217-0.010 0.407 0.041 0.61 0.069 0.198 0.032 0.398 0.055 0.57 0.134 0.18 0.064 0.358 0.125 0.529 0.186 0.154 0.098 0.305 0.189 0.448 0.279 0.316 0.155 0.509 0.421 0.728 0.608 0.227 0.188 0.356 0.409 0.478 0.581 0.248 0.348 0.387 0.546 0.387 0.546s-0.093-0.227-0.255-0.619c-0.087-0.201-0.168-0.459-0.355-0.704z"></path>
</svg>
