<!-- Generated by IcoMoon.io -->
<svg version="1.1" xmlns="http://www.w3.org/2000/svg" width="32" height="32" viewBox="0 0 32 32">
<title>spinner</title>
<path d="M31.484 16.516c0 1.14-0.924 2.064-2.064 2.064s-2.064-0.924-2.064-2.064c0-1.14 0.924-2.064 2.064-2.064s2.064 0.924 2.064 2.064zM27.871 25.549c0 1.14-0.924 2.064-2.064 2.064s-2.064-0.924-2.064-2.064c0-1.14 0.924-2.064 2.064-2.064s2.064 0.924 2.064 2.064zM18.064 29.936c0 1.14-0.924 2.064-2.064 2.064s-2.064-0.924-2.064-2.064c0-1.14 0.924-2.064 2.064-2.064s2.064 0.924 2.064 2.064zM8 25.549c0 1.14-0.924 2.064-2.064 2.064s-2.064-0.924-2.064-2.064c0-1.14 0.924-2.064 2.064-2.064s2.064 0.924 2.064 2.064zM4.645 16.516c0 1.14-0.924 2.064-2.064 2.064s-2.064-0.924-2.064-2.064c0-1.14 0.924-2.064 2.064-2.064s2.064 0.924 2.064 2.064zM9.033 7.226c0 1.425-1.156 2.581-2.581 2.581s-2.581-1.156-2.581-2.581c0-1.425 1.156-2.581 2.581-2.581s2.581 1.156 2.581 2.581zM19.096 3.096c0 1.71-1.386 3.096-3.096 3.096s-3.096-1.386-3.096-3.096c0-1.71 1.386-3.096 3.096-3.096s3.096 1.386 3.096 3.096zM29.419 7.742c0 1.995-1.618 3.613-3.613 3.613s-3.613-1.618-3.613-3.613c0-1.995 1.618-3.613 3.613-3.613s3.613 1.618 3.613 3.613z"></path>
</svg>
