<!-- Generated by IcoMoon.io -->
<svg version="1.1" xmlns="http://www.w3.org/2000/svg" width="32" height="32" viewBox="0 0 32 32">
<title>sport-shoe</title>
<path d="M30.163 21.367c0.051-0 1.242-0.036 1.559-1.119 0.087-2.088 0.092-5.399 0.093-5.77 0.136-1.703-0.064-2.819-0.608-3.41-0.267-0.288-0.613-0.447-0.974-0.447-0.133 0-0.232 0.021-0.279 0.034-0.108 0.030-0.206 0.086-0.287 0.163-1.174 1.115-3.449 1.486-3.73 1.527-3.074 0.104-4.605-2.151-4.642-2.252-0.137-0.367-0.076-0.501 0.292-0.943 1.020-1.231-0.273-3.131-2.636-1.062-0.635 0.556-1.389 1.139-1.882 1.541-0.178-0.272-0.485-0.451-0.833-0.451-0.551 0-0.998 0.446-0.998 0.997 0 0.303 0.137 0.571 0.351 0.754-0.313 0.261-0.631 0.516-0.954 0.764-0.17-0.309-0.493-0.521-0.871-0.521-0.551 0-0.998 0.447-0.998 0.997 0 0.267 0.107 0.508 0.277 0.687-0.289 0.201-0.573 0.396-0.848 0.581-0.159-0.341-0.502-0.578-0.902-0.578-0.551 0-0.998 0.447-0.998 0.997 0 0.246 0.094 0.47 0.242 0.644-0.924 0.569-1.543 0.915-1.559 0.924-1.761 0.979-3.831 1.127-3.883 1.132-4.354 0.484-4.834 3.519-4.88 4.401 0.339 0.196 1.032 0.41 2.45 0.41h27.501zM19.507 12.979l6.098 7.394h-3.415l-4.96-5.814 2.277-1.581zM15.802 15.527l4.175 4.839h-3.155l-3.059-3.463 2.040-1.376zM31.949 21.615c-0.576 0.52-1.329 0.691-1.786 0.691h-27.501c-1.155 0-2.030-0.133-2.648-0.401-0.002 0.035-0.013 0.068-0.013 0.105v1.070c0 0.965 0.784 1.751 1.747 1.751h28.507c0.962 0 1.746-0.785 1.746-1.751v-1.070c0-0.137-0.020-0.267-0.051-0.395z"></path>
</svg>
