<!-- Generated by IcoMoon.io -->
<svg version="1.1" xmlns="http://www.w3.org/2000/svg" width="32" height="32" viewBox="0 0 32 32">
<title>spray-gun</title>
<path d="M29.532 13.5h-1.95c-0.275 0-0.581 0.159-0.581 0.434v0.566h-1.451l-0.035-0.095c0-0.761-0.616-1.351-1.377-1.351l-10.915-1.135c-0.761 0-1.22 0.63-1.22 1.39v0.692h-1v-2.397c1.5-0.379 2.5-1.778 2.5-3.447v-6.655h0.101c0.444 0 0.803-0.306 0.803-0.75s-0.36-0.75-0.803-0.75h-8.607c-0.443 0-0.803 0.306-0.803 0.75s0.359 0.75 0.803 0.75h0.005v6.656c0 1.669 1.5 3.068 3 3.447v2.397h-0.811c-0.457 0-0.689 0.022-0.689 0.478v0.022h-1.553c-0.264 0-0.447 0.454-0.447 0.718v0.021l-2.423 0.772c-0.082 0.030-0.074 0.415 0.008 0.445l2.415 0.772v0.021c0 0.264 0.183 0.25 0.447 0.25h1.553v0.489c0 0.456 0.232 0.511 0.689 0.511h4.811v0.66c0 0.76 0.303 1.34 1.063 1.34h2.030l0.020 0.052-1.335 6.341-0.777 0.273v1.334h2.524l2.296-8h2.365l2 10.141c0 0.669 0.616 1.359 1.378 1.359h2.151c0.761 0 1.377-0.691 1.377-1.359l-2-10.141h0.194c0.761 0 1.377-0.684 1.377-1.445l-0.729-3.056h1.069v0.839c0 0.275 0.306 0.16 0.581 0.16h1.951c0.275 0 0.468 0.114 0.468-0.16v-2.905c0-0.275-0.194-0.434-0.468-0.434z"></path>
</svg>
