<!-- Generated by IcoMoon.io -->
<svg version="1.1" xmlns="http://www.w3.org/2000/svg" width="32" height="32" viewBox="0 0 32 32">
<title>stadium</title>
<path d="M31.797 16.66c-0.047-0.186-0.116-0.34-0.209-0.45-0.497-0.848-1.663-1.562-3.095-2.14-0.011-2.392-0.026-5.862-0.032-5.875l-0.793-2.128c-0.090-0.241-0.341-0.367-0.561-0.281l-0.501 0.195-0.077-0.208c-0.148-0.396-0.56-0.602-0.921-0.462l-1.258 0.49 1.834 4.927 1.221-0.476-0.28 3.341c-2.988-0.908-7.073-1.366-11.23-1.366s-8.242 0.459-11.23 1.366l-0.28-3.341 1.221 0.476 1.834-4.926-1.258-0.49c-0.361-0.141-0.774 0.066-0.921 0.462l-0.077 0.208-0.501-0.195c-0.22-0.086-0.471 0.040-0.561 0.281l-0.792 2.129c-0.006 0.014-0.021 3.484-0.031 5.875-1.432 0.579-2.482 1.293-2.979 2.14-0.092 0.11-0.161 0.264-0.208 0.45-0.073 0.215-0.113 0.433-0.113 0.653 0 0.122 0.013 0.244 0.036 0.364 0.056 1.361 0.681 3.228 1.335 4.296 1.494 2.443 5.628 4.64 12.629 5.026v-2.041c0-1.186 0.841-1.889 2-1.889 1.158 0 2 0.703 2 1.889v2.041c7-0.386 11.147-2.583 12.642-5.026 0.654-1.069 1.178-2.936 1.234-4.296 0.023-0.121 0.035-0.242 0.035-0.364 0-0.221-0.040-0.439-0.113-0.654zM7.136 17.947c0.325-0.107 0.71-0.216 1.166-0.323 0.916-0.214 1.973-0.384 3.122-0.506l0.131 1.721c-1.764-0.195-3.287-0.505-4.419-0.892zM19.218 18.938c-1.047 0.085-2.162 0.131-3.32 0.131s-2.273-0.047-3.32-0.132l-0.146-1.912c1.101-0.087 2.267-0.133 3.466-0.133s2.365 0.046 3.465 0.133l-0.145 1.913zM20.24 18.84l0.131-1.721c1.148 0.122 2.205 0.292 3.122 0.506 0.456 0.106 0.84 0.215 1.166 0.323-1.133 0.387-2.655 0.698-4.419 0.892zM25.966 17.361c-1.311-0.65-3.411-1.044-5.517-1.265l0.064-0.845c0.021-0.285-0.186-0.534-0.465-0.556-0.284-0.024-0.522 0.191-0.544 0.476l-0.063 0.832c-1.288-0.104-2.532-0.146-3.543-0.146s-2.255 0.042-3.543 0.146l-0.063-0.832c-0.021-0.285-0.259-0.5-0.543-0.476-0.279 0.023-0.487 0.271-0.466 0.556l0.065 0.845c-2.107 0.221-4.207 0.615-5.518 1.265-0.535-0.328-0.832-0.686-0.832-1.063 0-1.531 4.881-2.771 10.901-2.771 6.021 0 10.902 1.24 10.902 2.771-0.001 0.377-0.298 0.736-0.834 1.063z"></path>
</svg>
