<!-- Generated by IcoMoon.io -->
<svg version="1.1" xmlns="http://www.w3.org/2000/svg" width="32" height="32" viewBox="0 0 32 32">
<title>stationary-bike</title>
<path d="M15.582 17.558c-3.989 0-6.246-0.68-7.922 0.395l-1.345-5.299c2.1-0.215 4.232-1.092 3.312-1.277-2.207-0.441-1.877-1.324-4.192-1.324s-2.869 0.739-2.869 1.471c0 0.62 0.403 1.034 1.94 1.146l1.353 5.329h-2.107c-0.414 0-0.75 0.335-0.75 0.75s0.336 0.75 0.75 0.75h2.488l0.006 0.022c-1.053 1.767-1.981 4.898-3.244 10.395 0 0 0 0.477 0 0.662 0 0.854 0.698 1.421 1.551 1.421h24.275c0.853 0 1.544-0.63 1.544-1.483-0-7.678-6.622-12.959-14.788-12.959zM17.25 29.5h-1.183c-0.092 0.028-0.187 0.026-0.28 0h-1.037c-0.414 0-0.75-0.335-0.75-0.75 0-0.269 0.143-0.503 0.355-0.635l-2.736-2.854c-0.257 0.148-0.55 0.239-0.869 0.239-0.967 0-1.75-0.784-1.75-1.75s0.783-1.75 1.75-1.75 1.75 0.784 1.75 1.75c0 0.283-0.073 0.547-0.193 0.782l3.323 3.468h1.62c0.414 0 0.75 0.335 0.75 0.75s-0.336 0.75-0.75 0.75zM23.425 4.496l2.229 8.781c0 0-0.154 3.223-2.787 4.281 0 0 4.855 2.133 7.503 6.584 0 0-0.851-5.059-3.381-12.747l-1.751-6.895h0.98c0.78 0 0.78-0.5 0.962-0.712l1.382-2.763c0.163-0.327 0.032-0.725-0.296-0.888-0.326-0.164-0.724-0.031-0.888 0.296l-1.284 2.567h-2.616c-0.366 0-0.979 0.343-0.979 0.709v0.199c0 0.349 0.555 0.569 0.925 0.588z"></path>
</svg>
