<!-- Generated by IcoMoon.io -->
<svg version="1.1" xmlns="http://www.w3.org/2000/svg" width="32" height="32" viewBox="0 0 32 32">
<title>steak</title>
<path d="M31.65 16.7c0-1.050-0.4-1.85-0.5-2.050-1.050-2.050-4.7-3.1-4.7-3.1-2.75-0.5-4.95-3.5-4.95-3.55-0.15-0.2-3.75-4.95-9.65-4.8-6.45 0.15-11.5 4.85-11.5 10.65 0 0.15 0.15 7.15 0.15 7.15 0.5 4.45 7.15 7.8 15.5 7.8 8.65 0 15.2-3.25 15.7-7.55-0.050 0-0.050-4.55-0.050-4.55zM11.85 5.3c0.050 0 0.15 0 0.2 0 4.7 0 7.7 3.95 7.7 3.95 0.1 0.15 2.65 3.7 6.25 4.4 0.7 0.2 2.75 1 3.25 2.050l0.050 0.050c0 0 0.35 0.65 0.25 1.4v0.050c-0.35 3.35-6.2 6.1-13 6.1-4.1 0-7.6-0.8-10.050-2.25-2.7-1.6-4.050-4-4.050-7.15-0.050-4.75 4.1-8.5 9.4-8.6zM1 17.65c0-0.050 0-0.050-0.050-0.1 0.050 0.050 0.050 0.1 0.050 0.1zM8.9 20.15c0.55 0.1 4.2 0.75 4.25 0.75 8.3 1.45 7.55-9.9 4.1-11.9-0.3-0.15-0.6-0.25-0.85-0.050l-3.15 3.4c-0.55 0.4-1.3-0.2-1-0.8l1.5-3.6c0.2-0.4-0.1-0.8-0.5-0.95-2.7-0.85-8.4 2.1-9.15 6.050 0 0-1.050 6.050 4.8 7.1zM23.3 19.9c0 0 3.2 0.3 3.55-2.65 0.3-2.2-3.4-2.6-3.4-2.6-3.15-0.3-3.6 5.25-0.15 5.25z"></path>
</svg>
