<!-- Generated by IcoMoon.io -->
<svg version="1.1" xmlns="http://www.w3.org/2000/svg" width="32" height="32" viewBox="0 0 32 32">
<title>Stethoscope</title>
<path d="M25.017 16.674c-2.188 0-3.962 1.774-3.962 3.962 0 1.912 1.355 3.508 3.156 3.881-0.2 1.828-1.097 5.797-5.145 5.797-4.029 0-5.988-2.313-5.988-7.070v-4.485c3.319-0.295 6.339-2.316 8.195-5.538 0.274-0.476 0.215-1.050-0.102-1.46l-0.155-0.165-1.169-8.536c-0.041-0.298-0.248-0.546-0.534-0.64l-2.535-0.836c-0.137-0.894-0.902-1.581-1.835-1.581-1.029 0-1.863 0.835-1.863 1.863s0.834 1.862 1.863 1.862c0.554 0 1.048-0.248 1.389-0.633l2.021 0.666 0.967 7.055c-0.125 0.065-0.236 0.159-0.321 0.307-1.539 2.671-4.067 4.402-6.764 4.402s-5.226-1.731-6.765-4.402c-0.128-0.223-0.258-0.337-0.417-0.395l0.955-6.968 2.022-0.666c0.341 0.385 0.834 0.634 1.389 0.634 1.028 0 1.863-0.835 1.863-1.863s-0.835-1.863-1.863-1.863c-0.932 0-1.698 0.688-1.835 1.581l-2.535 0.836c-0.287 0.094-0.494 0.342-0.535 0.64l-1.188 8.675-0.027 0.024c-0.318 0.409-0.378 0.986-0.103 1.461 1.856 3.223 4.876 5.244 8.195 5.538v4.486c0 7.238 4.174 8.758 7.675 8.758 4.944 0 6.584-4.505 6.848-7.509 1.756-0.407 3.067-1.977 3.067-3.857 0-2.187-1.775-3.961-3.962-3.961zM25.017 18.784c-0.841 0-1.585 0.384-2.093 0.977 0.262-0.914 1.096-1.587 2.093-1.587s1.831 0.674 2.093 1.587c-0.508-0.593-1.252-0.977-2.093-0.977z"></path>
</svg>
