<!-- Generated by IcoMoon.io -->
<svg version="1.1" xmlns="http://www.w3.org/2000/svg" width="32" height="32" viewBox="0 0 32 32">
<title>Stomach-shape</title>
<path d="M31.499 10.266c-1.994-6.649-8.114-7.134-11.28-4.971-0.201-0.238-0.402-0.479-0.604-0.721-0.124-0.154-0.253-0.306-0.377-0.463-0.125-0.156-0.253-0.31-0.374-0.468-0.25-0.307-0.503-0.637-0.737-0.918l-2.884 1.173c0.087 0.503 0.2 0.943 0.334 1.394 0.065 0.223 0.134 0.446 0.212 0.663 0.073 0.221 0.152 0.439 0.239 0.654 0.334 0.864 0.731 1.707 1.198 2.516 0.221 0.412 0.483 0.803 0.735 1.2 0.028 0.043 0.058 0.084 0.085 0.126-1.593 9.48-6.967 10.403-6.967 10.403-0.862 0.126-1.411 0.66-1.876 0.959-0.024-0.002-0.050-0.004-0.074-0.006-0.335-0.040-0.671-0.084-1.003-0.155-0.663-0.139-1.321-0.337-1.96-0.614-0.161-0.067-0.315-0.148-0.476-0.221-0.159-0.078-0.314-0.162-0.472-0.242l-0.465-0.267c-0.151-0.099-0.304-0.194-0.46-0.291l-0.215-0.143c-0.681-0.449-1.602-0.435-2.279 0.098-0.040 0.032-0.089 0.073-0.122 0.103l-0.054 0.052c-0.033 0.033-0.075 0.074-0.101 0.102-0.050 0.055-0.099 0.112-0.149 0.169-0.041 0.053-0.079 0.102-0.117 0.154s-0.079 0.105-0.108 0.151c-0.061 0.096-0.129 0.197-0.18 0.29l-0.152 0.282c-0.044 0.093-0.084 0.183-0.126 0.273-0.041 0.092-0.080 0.183-0.111 0.27-0.067 0.177-0.133 0.357-0.179 0.529-0.050 0.174-0.102 0.348-0.136 0.516s-0.081 0.341-0.102 0.505l-0.074 0.497-0.046 0.485c-0.018 0.163-0.025 0.322-0.029 0.48l-0.017 0.474 0.007 0.465c0.004 0.154 0.002 0.31 0.012 0.462l0.033 0.454c0.012 0.152 0.017 0.305 0.035 0.453l0.103 0.89 3.124-0.241 0.012-0.767c0-0.128 0.015-0.252 0.021-0.377l0.023-0.375c0.009-0.125 0.028-0.245 0.039-0.367l0.044-0.364 0.059-0.353c0.020-0.117 0.041-0.233 0.070-0.344l0.050-0.218c0.156 0.103 0.312 0.206 0.473 0.3 0.863 0.519 1.793 0.955 2.766 1.27 0.766 0.255 1.557 0.43 2.355 0.54 9.581 8.068 25.833-4.594 22.273-16.465zM29.090 15.053c-0.184 1.058-0.626 2.253-1.311 3.402-0.334 0.57-0.752 1.157-1.173 1.678-0.224 0.267-0.463 0.539-0.701 0.805-0.249 0.251-0.489 0.512-0.746 0.756-0.523 0.481-1.065 0.941-1.625 1.355-0.278 0.21-0.557 0.413-0.85 0.591-0.284 0.19-0.573 0.365-0.861 0.527-0.572 0.339-1.151 0.615-1.711 0.852-0.556 0.243-1.101 0.433-1.613 0.573-0.253 0.078-0.498 0.142-0.735 0.188-0.239 0.047-0.46 0.099-0.675 0.122-0.213 0.027-0.41 0.060-0.595 0.076-0.185 0.008-0.355 0.016-0.511 0.023-0.305 0.026-0.548-0.017-0.709-0.018-0.163-0.011-0.249-0.015-0.249-0.015s0.086-0.012 0.248-0.038c0.159-0.030 0.396-0.048 0.689-0.121 0.147-0.034 0.307-0.070 0.484-0.11 0.173-0.049 0.36-0.104 0.561-0.162 0.2-0.052 0.407-0.134 0.625-0.213 0.219-0.075 0.448-0.158 0.683-0.263 0.236-0.097 0.479-0.198 0.724-0.323 0.247-0.119 0.506-0.234 0.759-0.378 0.259-0.136 0.522-0.275 0.781-0.438 0.261-0.157 0.532-0.31 0.795-0.489 0.538-0.334 1.061-0.733 1.587-1.135 0.529-0.403 1.035-0.85 1.523-1.313 0.251-0.227 0.481-0.471 0.721-0.706 0.221-0.246 0.444-0.491 0.662-0.733 0.212-0.259 0.421-0.517 0.628-0.771 0.198-0.255 0.382-0.517 0.556-0.777 0.701-1.044 1.203-2.111 1.495-3.073 0.132-0.482 0.238-0.934 0.276-1.344 0.030-0.204 0.041-0.397 0.044-0.575 0.011-0.18 0.014-0.344 0-0.491-0.009-0.296-0.035-0.537-0.060-0.697-0.023-0.162-0.034-0.248-0.034-0.248s0.030 0.082 0.084 0.236c0.056 0.154 0.142 0.375 0.201 0.681 0.040 0.152 0.068 0.32 0.090 0.505 0.032 0.185 0.047 0.387 0.049 0.604 0.023 0.435-0.017 0.927-0.105 1.457z"></path>
</svg>
