<!-- Generated by IcoMoon.io -->
<svg version="1.1" xmlns="http://www.w3.org/2000/svg" width="32" height="32" viewBox="0 0 32 32">
<title>stop-alert</title>
<path d="M16 5.45c-5.85 0-10.6 4.75-10.6 10.6s4.7 10.65 10.6 10.65 10.6-4.75 10.6-10.6-4.75-10.65-10.6-10.65zM16 23.4c-0.95 0-1.7-0.75-1.7-1.7s0.75-1.7 1.7-1.7c0.95 0 1.7 0.75 1.7 1.7s-0.75 1.7-1.7 1.7zM17 17.5c0 0.85-0.65 1.5-1.5 1.5v0c-0.85 0-1.5-0.65-1.5-1.5v-6.5c0-0.85 0.65-1.5 1.5-1.5v0c0.85 0 1.5 0.65 1.5 1.5v6.5zM3.45 16.050c0-3.45 1.5-6.7 4.1-8.95l0.25-0.2-2.15-2.15-0.15 0.2c-0.25 0.2-0.45 0.4-0.65 0.6-1.4 1.35-2.45 2.95-3.2 4.7-0.8 1.85-1.2 3.8-1.2 5.8s0.4 3.95 1.2 5.8c0.75 1.75 1.85 3.35 3.2 4.7 0.2 0.2 0.35 0.35 0.55 0.55l0.2 0.2 2.15-2.15-0.25-0.2c-2.55-2.25-4.050-5.5-4.050-8.9zM28.45 16.050c0-3.45-1.5-6.7-4.1-8.95l-0.25-0.2 2.15-2.15 0.2 0.2c0.25 0.2 0.45 0.4 0.65 0.6 1.4 1.35 2.45 2.95 3.2 4.7 0.8 1.85 1.2 3.8 1.2 5.8s-0.4 3.95-1.2 5.8c-0.75 1.75-1.85 3.35-3.2 4.7-0.2 0.2-0.35 0.35-0.55 0.55l-0.2 0.2-2.15-2.15 0.25-0.2c2.55-2.25 4-5.5 4-8.9z"></path>
</svg>
