<!-- Generated by IcoMoon.io -->
<svg version="1.1" xmlns="http://www.w3.org/2000/svg" width="32" height="32" viewBox="0 0 32 32">
<title>stopwatch</title>
<path d="M26.326 11.106l1.927-1.928c0.367-0.367 0.349-0.982-0.041-1.373l-1.768-1.768c-0.39-0.39-1.005-0.409-1.372-0.042l-2.059 2.059c-1.491-0.957-3.188-1.621-5.012-1.902v-1.654h1.058c0.52 0 0.942-0.448 0.942-1v-2.5c0-0.552-0.422-1-0.942-1h-6.117c-0.52 0-0.941 0.448-0.941 1v2.5c0 0.552 0.421 1 0.941 1h1.059v1.654c-6.23 0.962-11 6.347-11 12.847 0 7.18 5.821 13 13 13s13-5.82 13-13c0-2.97-0.998-5.705-2.674-7.894zM16 28.4c-5.192 0-9.4-4.209-9.4-9.4s4.208-9.4 9.4-9.4c5.191 0 9.4 4.208 9.4 9.4s-4.209 9.4-9.4 9.4zM18.523 20.255c0.189-0.378 0.297-0.803 0.297-1.255 0-1.205-0.758-2.23-1.82-2.634v-4.116c0-0.691-0.559-1.25-1.25-1.25s-1.25 0.559-1.25 1.25v4.365c-0.792 0.499-1.32 1.379-1.32 2.385 0 1.558 1.262 2.82 2.82 2.82 0.172 0 0.34-0.018 0.505-0.047l2.63 2.63c0.488 0.488 1.28 0.488 1.768 0s0.488-1.28 0-1.768l-2.379-2.379z"></path>
</svg>
