<!-- Generated by IcoMoon.io -->
<svg version="1.1" xmlns="http://www.w3.org/2000/svg" width="32" height="32" viewBox="0 0 32 32">
<title>store-mall-directory</title>
<path d="M31.39 15.908c-0.177-0.3-3.62-8.969-3.62-8.969-0.224-0.445-0.341-0.439-0.96-0.439h-21.459c-0.619 0-0.736-0.125-0.96 0.321 0 0-3.594 8.882-3.77 9.181-0.388 0.657 0.232 0.998 0.732 0.998 0.016 0 0.147 0 1.647 0v13.5h16.5v-11.25c0-0.517 0.483-0.75 1-0.75h4.5c0.517 0 1 0.233 1 0.75v11.25h3v-13.5c1.5 0 0.938 0 1.549 0 0.5 0 1.23-0.434 0.842-1.092zM16 25.293c0 0.666-0.54 1.207-1.207 1.207h-7.586c-0.667 0-1.207-0.541-1.207-1.207v-5.586c0-0.666 0.54-1.207 1.207-1.207h7.586c0.666 0 1.207 0.541 1.207 1.207v5.586zM28 3c0-0.552-0.448-1-1-1h-21.5c-0.552 0-1 0.448-1 1v1c0 0.552 0.448 1 1 1h21.5c0.552 0 1-0.448 1-1v-1z"></path>
</svg>
