<!-- Generated by IcoMoon.io -->
<svg version="1.1" xmlns="http://www.w3.org/2000/svg" width="32" height="32" viewBox="0 0 32 32">
<title>store</title>
<path d="M31.047 16h-1.047v-11h1.047c0.466 0 0.843-0.284 0.843-0.75s-0.378-0.75-0.843-0.75h-30.204c-0.466 0-0.843 0.284-0.843 0.75s0.377 0.75 0.843 0.75h0.657v11h-0.657c-0.466 0-0.843 0.285-0.843 0.75s0.377 0.75 0.843 0.75h0.657v11h3.5v-7.352c0-0.479 1.032-1.148 1.51-1.148h3.138c0.477 0 0.852 0.669 0.852 1.148v7.352h19.5v-11h1.047c0.466 0 0.843-0.285 0.843-0.75s-0.378-0.75-0.843-0.75zM17 24.273c0 0.401-0.325 0.727-0.727 0.727h-1.547c-0.402 0-0.726-0.325-0.726-0.727v-3.547c0-0.401 0.325-0.727 0.726-0.727h1.547c0.401 0 0.727 0.325 0.727 0.727v3.547zM21.5 24.273c0 0.401-0.325 0.727-0.727 0.727h-1.547c-0.401 0-0.727-0.325-0.727-0.727v-3.547c0-0.401 0.325-0.727 0.727-0.727h1.547c0.401 0 0.727 0.325 0.727 0.727v3.547zM27 24.273c0 0.401-0.325 0.727-0.726 0.727h-1.549c-0.401 0-0.726-0.325-0.726-0.727v-3.547c0-0.401 0.325-0.727 0.726-0.727h1.549c0.401 0 0.726 0.325 0.726 0.727v3.547zM26.5 13.646c0 0.472-0.383 0.854-0.855 0.854h-19.791c-0.471 0-0.854-0.383-0.854-0.854v-5.292c0-0.471 0.383-0.854 0.854-0.854h19.791c0.471 0 0.855 0.383 0.855 0.854v5.292z"></path>
</svg>
