<!-- Generated by IcoMoon.io -->
<svg version="1.1" xmlns="http://www.w3.org/2000/svg" width="32" height="32" viewBox="0 0 32 32">
<title>stovertical-stacked-chartve</title>
<path d="M5 28h4c0.552 0 1-0.448 1-1v-3.5c0-0.552-0.448-1-1-1h-4c-0.552 0-1 0.448-1 1v3.5c0 0.552 0.448 1 1 1zM15 28h4c0.552 0 1-0.448 1-1v-9.5c0-0.552-0.448-1-1-1h-4c-0.552 0-1 0.448-1 1v9.5c0 0.552 0.448 1 1 1zM25 28h4c0.552 0 1-0.448 1-1v-6c0-0.552-0.448-1-1-1h-4c-0.552 0-1 0.448-1 1v6c0 0.552 0.448 1 1 1zM25 18h4c0.552 0 1-0.448 1-1v-3.5c0-0.552-0.448-1-1-1h-4c-0.552 0-1 0.448-1 1v3.5c0 0.552 0.448 1 1 1zM25 10.5h4c0.552 0 1-0.448 1-1v-5c0-0.552-0.448-1-1-1h-4c-0.552 0-1 0.448-1 1v5c0 0.552 0.448 1 1 1zM15 14.5h4c0.552 0 1-0.448 1-1v-5.5c0-0.552-0.448-1-1-1h-4c-0.552 0-1 0.448-1 1v5.5c0 0.552 0.448 1 1 1zM15 5h4c0.552 0 1-0.448 1-1v-2.5c0-0.552-0.448-1-1-1h-4c-0.552 0-1 0.448-1 1v2.5c0 0.552 0.448 1 1 1zM5 20.5h4c0.552 0 1-0.448 1-1v-2c0-0.552-0.448-1-1-1h-4c-0.552 0-1 0.448-1 1v2c0 0.552 0.448 1 1 1zM5 15h4c0.552 0 1-0.448 1-1v-5c0-0.552-0.448-1-1-1h-4c-0.552 0-1 0.448-1 1v5c0 0.552 0.448 1 1 1zM31.125 30h-29.125v-29c0-0.552-0.448-1-1-1s-1 0.448-1 1v30.125c0 0.483 0.392 0.875 0.875 0.875h30.25c0.483 0 0.875-0.392 0.875-0.875v-0.25c0-0.483-0.392-0.875-0.875-0.875z"></path>
</svg>
