<!-- Generated by IcoMoon.io -->
<svg version="1.1" xmlns="http://www.w3.org/2000/svg" width="32" height="32" viewBox="0 0 32 32">
<title>stove</title>
<path d="M6.25 2h8.5c0.138 0 0.25-0.112 0.25-0.25s-0.112-0.25-0.25-0.25h-8.5c-0.138 0-0.25 0.112-0.25 0.25s0.112 0.25 0.25 0.25zM17.25 2h8.5c0.138 0 0.25-0.112 0.25-0.25s-0.112-0.25-0.25-0.25h-8.5c-0.138 0-0.25 0.112-0.25 0.25s0.112 0.25 0.25 0.25zM13 0h-5c-0.652 0-1.202 0.418-1.408 1h7.816c-0.207-0.582-0.756-1-1.409-1zM24 0h-5c-0.652 0-1.201 0.418-1.408 1h7.816c-0.207-0.582-0.756-1-1.409-1zM26 2.5h-20c-1.104 0-2 0.896-2 2v24.5c0 1.105 0.896 2 2 2h0.040c-0.024 0.073-0.040 0.149-0.040 0.23v0.041c0 0.403 0.326 0.729 0.729 0.729h0.541c0.404 0 0.729-0.326 0.729-0.73v-0.041c0-0.081-0.016-0.157-0.040-0.23h16.081c-0.024 0.073-0.041 0.149-0.041 0.23v0.041c0 0.403 0.326 0.73 0.73 0.73h0.541c0.404 0 0.73-0.326 0.73-0.73v-0.041c0-0.081-0.016-0.157-0.041-0.23h0.041c1.105 0 2-0.895 2-2v-24.5c0-1.104-0.895-2-2-2zM23.5 4.035v-0.285c0-0.138 0.112-0.25 0.25-0.25s0.25 0.112 0.25 0.25v0.285c0.5 0.112 0.797 0.5 0.797 0.965 0 0.552-0.401 1-0.953 1s-1.032-0.448-1.032-1c0-0.466 0.188-0.853 0.688-0.965zM18.5 4.035v-0.285c0-0.138 0.112-0.25 0.25-0.25s0.25 0.112 0.25 0.25v0.285c0.5 0.112 0.797 0.5 0.797 0.965 0 0.552-0.401 1-0.953 1s-1.032-0.448-1.032-1c0-0.466 0.188-0.853 0.688-0.965zM13.5 4.035v-0.285c0-0.138 0.112-0.25 0.25-0.25s0.25 0.112 0.25 0.25v0.285c0.5 0.112 0.797 0.5 0.797 0.965 0 0.552-0.401 1-0.953 1s-1.031-0.448-1.031-1c0-0.466 0.188-0.853 0.688-0.965zM8.5 4.035v-0.285c0-0.138 0.112-0.25 0.25-0.25s0.25 0.112 0.25 0.25v0.285c0.5 0.112 0.797 0.5 0.797 0.965 0 0.552-0.401 1-0.953 1s-1.032-0.448-1.032-1c0-0.466 0.187-0.853 0.687-0.965zM27.25 26h-22.5c-0.138 0-0.25-0.112-0.25-0.25s0.112-0.25 0.25-0.25h22.5c0.138 0 0.25 0.112 0.25 0.25s-0.112 0.25-0.25 0.25zM5.5 22v-11c0-1.104 0.896-2 2-2h17c1.105 0 2 0.896 2 2v11c0 1.105-0.895 2-2 2h-17c-1.104 0-2-0.895-2-2zM27.25 7.5h-22.5c-0.138 0-0.25-0.112-0.25-0.25s0.112-0.25 0.25-0.25h22.5c0.138 0 0.25 0.112 0.25 0.25s-0.112 0.25-0.25 0.25zM24.5 11.5c0.276 0 0.5-0.223 0.5-0.5s-0.224-0.5-0.5-0.5h-17c-0.277 0-0.5 0.223-0.5 0.5s0.223 0.5 0.5 0.5h17z"></path>
</svg>
