<!-- Generated by IcoMoon.io -->
<svg version="1.1" xmlns="http://www.w3.org/2000/svg" width="32" height="32" viewBox="0 0 32 32">
<title>strawberry</title>
<path d="M26.75 15.85c0-0.7-0.4-2.1-0.4-2.1v0c-0.75-2.15-2.6-3.95-5.050-5 3-1.55 3.2-5 3.2-5s-3.6-1.15-6.15 1.55c0.25-3.3-2.35-5.3-2.35-5.3s-2.6 2-2.35 5.2c-2.55-2.65-6.15-1.5-6.15-1.5s0.2 3.45 3.2 5c-2.45 1.1-4.3 2.85-5.050 5v0c0 0-0.35 1.4-0.4 2.1-0.2 3 0.55 8.75 7.75 14.8 0.85 0.85 1.9 1.3 3 1.35 1.1-0.1 2.15-0.55 3-1.35 7.15-6 7.95-11.8 7.75-14.75zM9.5 14.45c-0.45 0.9-1.2 0.65-1.2 0.65-0.5-0.1-0.75-0.8-0.4-1.5 0.5-0.95 1.15-1.75 2.050-2.3 1.1-0.7 1.55 0.2 1.55 0.2 0.25 0.5-0.1 1-0.5 1.3-0.7 0.45-1.2 1-1.5 1.65zM11.4 24.5c0 0-0.75-0.75-0.75-1.35 0-0.4 0.35-0.75 0.75-0.75s0.75 0.35 0.75 0.75c0.050 0.6-0.75 1.35-0.75 1.35zM11.4 19.35c0 0-0.75-0.75-0.75-1.35 0-0.4 0.35-0.75 0.75-0.75s0.75 0.35 0.75 0.75c0.050 0.55-0.75 1.3-0.75 1.35zM16 27.1c0 0-0.75-0.75-0.75-1.35 0-0.4 0.35-0.75 0.75-0.75s0.75 0.35 0.75 0.75c0 0.6-0.75 1.35-0.75 1.35zM16 21.9c0 0-0.75-0.75-0.75-1.35 0-0.4 0.35-0.75 0.75-0.75s0.75 0.35 0.75 0.75c0 0.6-0.75 1.35-0.75 1.35zM16 16.75c0 0-0.75-0.75-0.75-1.35 0-0.4 0.35-0.75 0.75-0.75s0.75 0.35 0.75 0.75c0 0.6-0.75 1.35-0.75 1.35zM21.2 24.5c0 0-0.75-0.75-0.75-1.35 0-0.4 0.35-0.75 0.75-0.75s0.75 0.35 0.75 0.75c0 0.6-0.75 1.35-0.75 1.35zM21.2 19.35c0 0-0.75-0.75-0.75-1.35 0-0.4 0.35-0.75 0.75-0.75s0.75 0.35 0.75 0.75c0 0.55-0.75 1.3-0.75 1.35z"></path>
</svg>
