<!-- Generated by IcoMoon.io -->
<svg version="1.1" xmlns="http://www.w3.org/2000/svg" width="32" height="32" viewBox="0 0 32 32">
<title>streetview</title>
<path d="M27.45 28.098l-0.024-6.724c0 0-0.008-1.904-2.194-2.456l-2.37-4.989c0 0-0.597-1.723-3.284-1.657l-1.578 0.007v-0.778h0.5v-1.5h-0.5v-0.495c1-0.492 2.405-1.543 2.935-2.875-0.659-0.359-1.12-1.056-1.12-1.861s0.442-1.503 1.102-1.861c-0.512-1.286-1.54-2.31-2.825-2.822-0.358 0.66-1.058 1.109-1.863 1.109-0.803 0-1.504-0.449-1.862-1.109-1.286 0.511-2.309 1.535-2.822 2.821 0.66 0.358 1.109 1.057 1.109 1.861 0 0.803-0.453 1.503-1.114 1.861 0.531 1.333 1.46 2.383 2.96 2.875v0.495h-0.5v1.5h0.5v0.792l-1.693 0.008c-2.688-0.047-3.295 1.681-3.295 1.681l-2.335 5.006c-2.18 0.569-2.173 2.473-2.173 2.473l0.026 6.723 1.889-0.008 0.007 2.038c0.004 1.005 0.83 1.787 1.835 1.787h0.168c1.005 0 1.823-0.796 1.819-1.8l-0.008-2.125 5.284-0.074 5.713 0.049 0.008 2.106c0.004 1.004 0.829 1.842 1.834 1.837l0.168 0.008c1.005-0.003 1.824-0.823 1.821-1.828l-0.008-2.069 1.889-0.005zM14.112 4.769c0-1.168 0.948-2.115 2.115-2.115 1.169 0 2.115 0.948 2.115 2.115s-0.946 2.115-2.115 2.115c-1.168 0-2.116-0.947-2.116-2.115zM8.921 24.675c-0.975 0.008-1.771-0.775-1.78-1.748s0.774-1.771 1.749-1.779c0.973-0.009 1.77 0.775 1.78 1.749 0.007 0.974-0.775 1.771-1.749 1.779zM15.992 19.5h-0.154l-6.408-0.276 1.489-3.518c0.539-1.424 2.404-1.336 2.404-1.336l2.498-0.049 0.155-0.020 3.079-0.022c0 0 1.863-0.181 2.413 1.238l1.515 3.657-6.991 0.327zM23.546 24.581c-0.973 0.003-1.767-0.783-1.77-1.758s0.782-1.768 1.758-1.771c0.974-0.003 1.767 0.784 1.77 1.758s-0.784 1.767-1.757 1.771z"></path>
</svg>
