<!-- Generated by IcoMoon.io -->
<svg version="1.1" xmlns="http://www.w3.org/2000/svg" width="32" height="32" viewBox="0 0 32 32">
<title>subway</title>
<path d="M23 11.691c0-0.302-0.511-0.191-0.811-0.191h-4.689v5h4.689c0.301 0 0.811-0.273 0.811-0.574v-4.235zM12.997 21.451c0 0.986-0.8 1.786-1.786 1.786s-1.786-0.8-1.786-1.786c0-0.986 0.8-1.786 1.786-1.786s1.786 0.8 1.786 1.786zM9.5 11.691v4.235c0 0.301 0.092 0.574 0.393 0.574h5.107v-5h-5.107c-0.301 0-0.393-0.111-0.393 0.191zM10.026 29.901l-0.476 0.529c1.978 0.902 4.175 1.409 6.491 1.409 2.317 0 4.514-0.507 6.493-1.41l-0.401-0.451-12.107-0.078zM16.041 0.5c-8.655 0-15.669 7.016-15.669 15.669 0 5.151 2.486 9.72 6.322 12.576l3.059-2.944c-1.862-0.903-2.753-2.155-2.753-3.244v-12.268c0-1.58 1.5-3.505 5.5-4.206v-0.117c0-0.732 1.354-1.665 3.749-1.665 2.254 0 3.751 0.932 3.751 1.665v0.144c3.5 0.723 5.5 2.619 5.5 4.179v12.268c0 1.109-1.012 2.389-2.908 3.296l2.877 2.89c3.837-2.856 6.282-7.425 6.282-12.576 0-8.654-7.055-15.669-15.709-15.669zM22.657 21.451c0 0.986-0.8 1.786-1.786 1.786s-1.786-0.8-1.786-1.786c0-0.986 0.8-1.786 1.786-1.786s1.786 0.8 1.786 1.786zM12.956 26.794l-1.478 1.564 9.079-0.047-1.413-1.498c-0.919 0.143-1.95 0.224-3.102 0.224-1.133 0-2.162-0.088-3.086-0.243z"></path>
</svg>
