<!-- Generated by IcoMoon.io -->
<svg version="1.1" xmlns="http://www.w3.org/2000/svg" width="32" height="32" viewBox="0 0 32 32">
<title>summer-dress</title>
<path d="M26.269 27.962c-0.492-0.376-0.858-0.647-1.66-0.647-0.813 0-1.177 0.278-1.68 0.663-0.573 0.438-1.286 0.981-2.625 0.981s-2.052-0.544-2.624-0.981c-0.503-0.384-0.867-0.663-1.68-0.663s-1.177 0.278-1.68 0.663c-0.573 0.438-1.286 0.981-2.625 0.981s-2.053-0.544-2.625-0.981c-0.504-0.384-0.867-0.663-1.68-0.663-0.802 0-1.168 0.271-1.661 0.647l-0.987 2.659c-0.077 0.336 0.002 0.684 0.218 0.954s0.537 0.424 0.883 0.424h20.315c0.345 0 0.666-0.155 0.882-0.425 0.215-0.27 0.294-0.617 0.217-0.953l-0.988-2.659zM27.337 6.216l-5.601-5.62c-0.067-0.053-0.149-0.083-0.235-0.083l-2.506-0.514c-0.038 1.399-1.36 2.525-2.994 2.525s-2.955-1.126-2.994-2.525l-2.506 0.514c-0.086 0-0.169 0.029-0.235 0.083l-5.601 5.62c-0.154 0.125-0.182 0.35-0.064 0.51l2.3 2.286c0.061 0.082 0.152 0.135 0.253 0.148s0.202-0.017 0.282-0.081l2.706-2.709 1.214 6.45-4.838 13.029c0.26-0.055 0.548-0.088 0.876-0.088 1.339 0 2.051 0.544 2.625 0.981 0.504 0.384 0.867 0.663 1.681 0.663s1.177-0.278 1.681-0.663c0.573-0.438 1.285-0.981 2.625-0.981s2.052 0.544 2.625 0.982c0.503 0.384 0.867 0.662 1.68 0.662s1.177-0.278 1.68-0.663c0.573-0.438 1.285-0.981 2.625-0.981 0.327 0 0.615 0.034 0.875 0.088l-4.838-13.030 1.213-6.449 2.706 2.709c0.079 0.064 0.18 0.094 0.282 0.081s0.192-0.066 0.253-0.148l2.3-2.286c0.118-0.16 0.090-0.384-0.064-0.51z"></path>
</svg>
