<!-- Generated by IcoMoon.io -->
<svg version="1.1" xmlns="http://www.w3.org/2000/svg" width="32" height="32" viewBox="0 0 32 32">
<title>sunny02</title>
<path d="M22 16c0 3.314-2.686 6-6 6s-6-2.686-6-6c0-3.314 2.686-6 6-6s6 2.686 6 6zM16 6.678c0.532 0 1-0.431 1-0.964v-1c0-0.533-0.468-0.965-1-0.965s-1 0.431-1 0.965v1c0 0.532 0.467 0.964 1 0.964zM16 25.322c-0.533 0-1 0.431-1 0.964v1c0 0.532 0.467 0.965 1 0.965s1-0.431 1-0.965v-1c0-0.532-0.468-0.964-1-0.964zM5.715 15h-1c-0.533 0-0.965 0.467-0.965 1s0.431 1 0.965 1h1c0.532 0 0.964-0.468 0.964-1s-0.431-1-0.964-1zM27.285 15h-1c-0.532 0-0.964 0.467-0.964 1s0.431 1 0.964 1h1c0.532 0 0.965-0.468 0.965-1s-0.431-1-0.965-1zM8.727 7.313c-0.377-0.377-1.013-0.351-1.389 0.026s-0.402 1.012-0.025 1.389l0.707 0.707c0.377 0.377 1.011 0.351 1.389-0.025s0.402-1.012 0.025-1.389l-0.707-0.707zM23.98 22.566c-0.377-0.377-1.012-0.352-1.389 0.026s-0.402 1.012-0.026 1.389l0.707 0.707c0.377 0.377 1.012 0.352 1.389-0.025s0.402-1.012 0.026-1.389l-0.707-0.707zM8.021 22.566l-0.707 0.707c-0.377 0.377-0.351 1.012 0.025 1.389s1.012 0.402 1.389 0.026l0.707-0.707c0.377-0.377 0.351-1.012-0.025-1.389s-1.012-0.402-1.389-0.026zM23.273 7.313l-0.707 0.707c-0.377 0.377-0.352 1.012 0.026 1.389s1.012 0.402 1.389 0.025l0.707-0.707c0.377-0.377 0.352-1.013-0.026-1.389s-1.012-0.402-1.389-0.026z"></path>
</svg>
