<!-- Generated by IcoMoon.io -->
<svg version="1.1" xmlns="http://www.w3.org/2000/svg" width="32" height="32" viewBox="0 0 32 32">
<title>sunny01</title>
<path d="M22 16c0 3.314-2.686 6-6 6s-6-2.686-6-6c0-3.314 2.686-6 6-6s6 2.686 6 6zM16 6.678c0.532 0 1-0.431 1-0.964v-4.5c0-0.533-0.468-0.965-1-0.965s-1 0.431-1 0.965v4.5c0 0.532 0.467 0.964 1 0.964zM16 25.322c-0.533 0-1 0.431-1 0.964v4.5c0 0.532 0.467 0.965 1 0.965s1-0.431 1-0.965v-4.5c0-0.532-0.468-0.964-1-0.964zM6.678 16c0-0.533-0.431-1-0.964-1h-4.5c-0.533 0-0.965 0.467-0.965 1s0.431 1 0.965 1h4.5c0.532 0 0.964-0.468 0.964-1zM30.785 15h-4.5c-0.532 0-0.964 0.467-0.964 1s0.431 1 0.964 1h4.5c0.532 0 0.965-0.468 0.965-1s-0.431-1-0.965-1zM8.045 22.913l-3.182 3.182c-0.377 0.377-0.377 0.987 0 1.363 0.188 0.189 0.435 0.282 0.681 0.282s0.494-0.094 0.682-0.282l3.182-3.182c0.377-0.376 0.377-0.987 0-1.363s-0.987-0.377-1.364 0zM23.273 10.012c0.247 0 0.494-0.094 0.681-0.283l3.181-3.182c0.377-0.377 0.377-0.987 0-1.364s-0.988-0.377-1.363 0l-3.181 3.182c-0.377 0.377-0.377 0.987 0 1.364 0.189 0.188 0.436 0.283 0.682 0.283zM23.955 22.913c-0.377-0.377-0.987-0.377-1.364 0s-0.377 0.987 0 1.363l3.182 3.183c0.188 0.188 0.435 0.282 0.681 0.282s0.494-0.094 0.682-0.282c0.377-0.377 0.377-0.987 0-1.363l-3.181-3.183zM8.045 9.729c0.188 0.188 0.435 0.283 0.682 0.283s0.493-0.094 0.681-0.283c0.377-0.377 0.377-0.988 0-1.364l-3.182-3.181c-0.377-0.377-0.987-0.377-1.364 0s-0.377 0.987 0 1.364l3.182 3.182z"></path>
</svg>
