<!-- Generated by IcoMoon.io -->
<svg version="1.1" xmlns="http://www.w3.org/2000/svg" width="32" height="32" viewBox="0 0 32 32">
<title>sunrise</title>
<path d="M15 15.116v1c0 0.532 0.467 0.964 1 0.964s1-0.431 1-0.964v-1c0-0.533-0.468-0.964-1-0.964s-1 0.432-1 0.964zM4.715 27.5h1c0.532 0 0.964-0.468 0.964-1s-0.431-1-0.964-1h-1c-0.533 0-0.965 0.468-0.965 1s0.431 1 0.965 1zM26.285 27.5h1c0.532 0 0.965-0.468 0.965-1s-0.431-1-0.965-1h-1c-0.532 0-0.964 0.468-0.964 1s0.431 1 0.964 1zM8.021 19.835c0.377 0.377 1.011 0.351 1.389-0.026s0.402-1.012 0.025-1.389l-0.707-0.707c-0.377-0.377-1.013-0.351-1.389 0.026s-0.402 1.012-0.025 1.389l0.707 0.707zM23.98 19.835l0.707-0.707c0.377-0.377 0.352-1.012-0.026-1.389s-1.012-0.402-1.389-0.026l-0.707 0.707c-0.377 0.377-0.352 1.012 0.026 1.389s1.012 0.402 1.389 0.026zM30.5 29h-29c-0.552 0-1 0.448-1 1s0.448 1 1 1h29c0.552 0 1-0.448 1-1s-0.448-1-1-1zM21.91 27.5c0.055-0.5 0.090-0.708 0.090-1.050 0-3.314-2.686-6.024-6-6.024s-6 2.723-6 6.037c0 0.341 0.035 0.537 0.090 1.037h11.82zM12.227 7h2.273v3.402c0 0.827 0.673 1.5 1.5 1.5s1.5-0.673 1.5-1.5v-3.402h2.273c0.404 0 0.768-0.292 0.923-0.665s0.071-0.827-0.213-1.114l-3.773-3.815c-0.188-0.189-0.444-0.302-0.71-0.302s-0.522 0.103-0.71 0.293l-3.773 3.8c-0.284 0.287-0.368 0.765-0.213 1.138s0.519 0.665 0.923 0.665z"></path>
</svg>
