<!-- Generated by IcoMoon.io -->
<svg version="1.1" xmlns="http://www.w3.org/2000/svg" width="32" height="32" viewBox="0 0 32 32">
<title>sweater</title>
<path d="M16.005 7.473c3.134 0 4.783-2.071 5.624-3.865l-1.288-0.473c-0.448-0.185-0.965 0.013-1.177 0.45-0.345 0.71-1.206 1.89-3.086 1.924h-0.156c-1.88-0.034-2.741-1.213-3.085-1.923-0.213-0.438-0.729-0.635-1.177-0.45l-1.29 0.473c0.829 1.792 2.47 3.864 5.636 3.864zM23.634 25.192c-0.374-0.285-0.643-0.491-1.247-0.491s-0.872 0.206-1.247 0.491c-0.425 0.323-0.953 0.727-1.948 0.727-0.992 0-1.521-0.404-1.946-0.727-0.373-0.285-0.643-0.491-1.247-0.491-0.602 0-0.873 0.206-1.246 0.491-0.425 0.323-0.954 0.727-1.947 0.727s-1.523-0.404-1.947-0.727c-0.373-0.285-0.643-0.491-1.246-0.491s-0.873 0.206-1.247 0.491c-0.267 0.204-0.575 0.439-1.014 0.585l-0.17 2.238c0 0.506 0.411 0.918 0.917 0.918h15.8c0.506 0 0.916-0.412 0.916-0.918l-0.169-2.239c-0.438-0.146-0.747-0.381-1.012-0.585zM31.985 21.105l-5.995-15.418c-0.056-0.308-0.262-0.563-0.552-0.681l-2.599-0.953c-0.004 0.011-0.003 0.022-0.008 0.033-0.803 1.78-2.76 4.765-6.828 4.765-4.103 0-6.046-2.986-6.838-4.764-0.005-0.011-0.004-0.023-0.008-0.034l-2.597 0.953c-0.288 0.119-0.495 0.374-0.552 0.681l-5.994 15.418c-0.088 0.479 0.214 0.942 0.686 1.056l3.269 1.32c0.073 0.017 0.145 0.026 0.218 0.026 0.17 0 0.338-0.047 0.484-0.14 0.211-0.131 0.356-0.338 0.409-0.581l3.145-8.54-0.712 9.379c0.050-0.036 0.099-0.073 0.151-0.113 0.425-0.325 0.954-0.728 1.947-0.728s1.522 0.404 1.947 0.728c0.374 0.285 0.643 0.491 1.246 0.491s0.873-0.206 1.246-0.491c0.425-0.325 0.953-0.728 1.947-0.728s1.523 0.404 1.948 0.728c0.373 0.285 0.642 0.491 1.245 0.491 0.604 0 0.873-0.206 1.247-0.491 0.425-0.324 0.953-0.728 1.948-0.728s1.523 0.404 1.947 0.728c0.052 0.039 0.101 0.076 0.149 0.113l-0.711-9.379 3.144 8.54c0.053 0.243 0.198 0.45 0.41 0.581 0.148 0.093 0.314 0.14 0.485 0.14 0.073 0 0.145-0.009 0.218-0.026l3.271-1.32c0.471-0.114 0.773-0.578 0.686-1.056z"></path>
</svg>
