<!-- Generated by IcoMoon.io -->
<svg version="1.1" xmlns="http://www.w3.org/2000/svg" width="32" height="32" viewBox="0 0 32 32">
<title>Swimming</title>
<path d="M11.666 17c0 2.025-1.642 3.666-3.667 3.666s-3.667-1.642-3.667-3.666c0-2.025 1.642-3.666 3.667-3.666s3.667 1.642 3.667 3.666zM31.55 21.479c-0.075-0.080-7.57-7.9-16.492-0.585-0.361 0.229-4.13 2.543-7.989 1.741-2.163-0.45-3.993-1.81-5.439-4.043-0.226-0.348-0.691-0.447-1.037-0.221-0.347 0.225-0.447 0.689-0.222 1.037 1.675 2.585 3.829 4.166 6.404 4.698 0.676 0.14 1.344 0.2 1.993 0.2 3.824 0 6.993-2.078 7.148-2.181 0.021-0.014 0.041-0.029 0.060-0.045 7.838-6.456 14.209 0.139 14.478 0.425 0.284 0.302 0.758 0.317 1.059 0.035s0.318-0.757 0.035-1.059zM13.804 19.386c0.254 0.128 0.524 0.189 0.79 0.189 0.591 0 1.159-0.303 1.486-0.831 1.694-1.046 3.762-2.201 4.404-2.383 0.219-0.061 0.424-0.166 0.603-0.306 0.023-0.018 2.34-1.764 6.041 1.27 0.747 0.613 1.85 0.505 2.463-0.243s0.504-1.85-0.243-2.463c-4.689-3.845-8.438-2.465-9.834-1.692 0.55-0.744 2.052-2.079 5.556-1.566 0.962 0.143 1.845-0.522 1.985-1.478s-0.521-1.845-1.478-1.985c-6.453-0.947-8.862 2.734-9.454 3.901-1.091 1.339-2.748 4.564-3.087 5.233-0.438 0.862-0.092 1.915 0.77 2.352z"></path>
</svg>
