<!-- Generated by IcoMoon.io -->
<svg version="1.1" xmlns="http://www.w3.org/2000/svg" width="32" height="32" viewBox="0 0 32 32">
<title>Syringe-with-medicine</title>
<path d="M28.615 23.717l1.965-2.265c0.343-0.395 0.297-0.996-0.102-1.341-0.398-0.345-0.998-0.305-1.341 0.090l-0.604 0.698-14.15-12.272c-0.132-0.114-0.304-0.169-0.477-0.151l-4.567 0.47-1.698-1.476c-0.314-0.273-0.79-0.239-1.062 0.075s-0.239 0.79 0.076 1.063l1.706 1.483-0.155 4.912c-0.005 0.191 0.074 0.373 0.217 0.497l14.151 12.271-0.615 0.709c-0.343 0.395-0.296 0.995 0.101 1.341 0.399 0.345 1 0.305 1.343-0.090l1.954-2.253 3.384 2.939 3.26-3.759-3.385-2.939zM23.251 26.688l-13.777-11.945 0.143-4.559 4.145-0.426 13.796 11.963-4.306 4.966zM23.133 25.802l3.514-4.051-1.381-1.176-0.985 1.136c-0.126 0.145-0.347 0.157-0.495 0.030-0.149-0.128-0.167-0.35-0.041-0.494l0.98-1.131-2.18-1.858-0.965 1.113c-0.125 0.144-0.346 0.157-0.494 0.029-0.148-0.128-0.166-0.349-0.041-0.494l0.96-1.108-2.161-1.841-0.91 1.050c-0.126 0.145-0.347 0.157-0.495 0.029-0.148-0.128-0.167-0.349-0.041-0.494l0.907-1.044-0.749-0.637-5.625 2.154 10.203 8.788zM5.008 3.566c-0.17-0.465-0.363-0.991-0.824-1.409-0.406-0.369-0.932-0.572-1.48-0.572-0.62 0-1.215 0.263-1.632 0.722-0.816 0.9-0.748 2.295 0.151 3.11 0.026 0.024 0.052 0.046 0.097 0.081l0.040 0.032c0.33 0.256 0.678 0.401 1.127 0.55l3.451 1.22c0.034 0.012 0.069 0.018 0.105 0.018 0.084 0 0.167-0.034 0.227-0.097 0.086-0.090 0.112-0.221 0.066-0.335l-1.328-3.318zM4.585 8.803l-2.16-0.751c-0.373-0.142-0.689-0.246-1.080-0.2-0.405 0.048-0.765 0.251-1.018 0.571s-0.364 0.719-0.316 1.123c0.092 0.766 0.741 1.344 1.512 1.344 0.060 0 0.121-0.004 0.182-0.011 0.023-0.002 0.046-0.007 0.085-0.014 0.003 0 0.033-0.005 0.036-0.006 0.277-0.056 0.502-0.168 0.773-0.327l2.040-1.156c0.107-0.062 0.17-0.18 0.158-0.303s-0.093-0.229-0.21-0.27z"></path>
</svg>
