<!-- Generated by IcoMoon.io -->
<svg version="1.1" xmlns="http://www.w3.org/2000/svg" width="32" height="32" viewBox="0 0 32 32">
<title>syrup-medicine-bottle</title>
<path d="M24.318 7.505h-2.387v-1.465h1.169c0.544 0 0.986-0.438 0.986-0.985v-4.069c0-0.548-0.442-0.987-0.985-0.987h-14.201c-0.543 0-0.986 0.439-0.986 0.987v4.069c0 0.547 0.441 0.985 0.986 0.985h1.169v1.465h-2.386c-1.027 0-1.861 0.833-1.861 1.86v20.776c0 1.027 0.833 1.858 1.861 1.858h16.636c1.027 0 1.861-0.831 1.861-1.858v-20.777c0-1.027-0.834-1.86-1.861-1.86zM21.713 2.029c0-0.157 0.127-0.282 0.284-0.282 0.156 0 0.282 0.126 0.282 0.282v1.983c0 0.157-0.127 0.282-0.282 0.282-0.157 0-0.284-0.125-0.284-0.282v-1.983zM20.381 2.029c0-0.157 0.126-0.282 0.282-0.282s0.284 0.126 0.284 0.282v1.983c0 0.157-0.128 0.282-0.284 0.282s-0.282-0.125-0.282-0.282v-1.983zM19.049 2.029c0-0.157 0.127-0.282 0.284-0.282 0.156 0 0.282 0.126 0.282 0.282v1.983c0 0.157-0.127 0.282-0.282 0.282-0.157 0-0.284-0.125-0.284-0.282v-1.983zM17.716 2.029c0-0.157 0.126-0.282 0.282-0.282s0.284 0.126 0.284 0.282v1.983c0 0.157-0.128 0.282-0.284 0.282-0.157 0-0.282-0.125-0.282-0.282v-1.983zM16.383 2.029c0-0.157 0.128-0.282 0.284-0.282s0.284 0.126 0.284 0.282v1.983c0 0.157-0.127 0.282-0.284 0.282s-0.284-0.125-0.284-0.282v-1.983zM15.051 2.029c0-0.157 0.127-0.282 0.283-0.282s0.283 0.126 0.283 0.282v1.983c0 0.157-0.126 0.282-0.283 0.282s-0.283-0.125-0.283-0.282v-1.983zM13.719 2.029c0-0.157 0.127-0.282 0.283-0.282s0.284 0.126 0.284 0.282v1.983c0 0.157-0.128 0.282-0.284 0.282s-0.283-0.125-0.283-0.282v-1.983zM12.386 2.029c0-0.157 0.127-0.282 0.284-0.282s0.284 0.126 0.284 0.282v1.983c0 0.157-0.128 0.282-0.284 0.282s-0.284-0.125-0.284-0.282v-1.983zM11.053 2.029c0-0.157 0.127-0.282 0.284-0.282s0.283 0.126 0.283 0.282v1.983c0 0.157-0.127 0.282-0.283 0.282s-0.284-0.125-0.284-0.282v-1.983zM10.004 4.295c-0.156 0-0.284-0.125-0.284-0.282v-1.983c0-0.157 0.127-0.282 0.284-0.282s0.283 0.126 0.283 0.282v1.983c0.001 0.157-0.126 0.282-0.283 0.282zM23.028 26.781h-14.056v-14.056h14.056v14.056zM13.944 24.719h4.11v-2.913h2.911v-4.11h-2.911v-2.909h-4.11v2.909h-2.91v4.111h2.91z"></path>
</svg>
