<!-- Generated by IcoMoon.io -->
<svg version="1.1" xmlns="http://www.w3.org/2000/svg" width="32" height="32" viewBox="0 0 32 32">
<title>t-shirt</title>
<path d="M31.788 10.307l-6.899-6.905c-0.103-0.083-0.231-0.128-0.364-0.128l-3.881-0.796c-0.059 2.166-2.105 3.909-4.634 3.909h-0.020c-2.529 0-4.575-1.743-4.634-3.909l-3.881 0.796c-0.133 0-0.261 0.046-0.364 0.128l-6.898 6.905c-0.238 0.194-0.281 0.542-0.099 0.79l3.631 3.598c0.094 0.126 0.235 0.209 0.391 0.229 0.157 0.021 0.313-0.025 0.436-0.125l2.966-2.939c0 0 0.526 5.99 0.483 8.372-0.054 2.976-0.656 8.469-0.656 8.469-0.027 0.251-0.019 0.497 0.136 0.654 0.107 0.109 0.255 0.169 0.407 0.169h16.186c0.152 0 0.3-0.059 0.407-0.169 0.154-0.157 0.163-0.403 0.136-0.654 0 0-0.602-5.494-0.657-8.469-0.044-2.381 0.483-8.371 0.483-8.371l2.966 2.94c0.122 0.1 0.279 0.146 0.436 0.125 0.157-0.020 0.297-0.102 0.392-0.229l3.63-3.598c0.184-0.248 0.14-0.595-0.099-0.79z"></path>
</svg>
