<!-- Generated by IcoMoon.io -->
<svg version="1.1" xmlns="http://www.w3.org/2000/svg" width="32" height="32" viewBox="0 0 32 32">
<title>table-tennis-racket</title>
<path d="M29.367 5.013c-3.276-3.276-8.56-3.513-12.882-0.936 0.924 0.551 1.808 1.224 2.614 2.031 1.89 1.89 2.917 4.020 3.197 6.149 0.056 0.432 0.082 0.864 0.078 1.293-0.008 0.802-0.115 1.597-0.324 2.371l0.009 0.002c0 0-0.009 0.017-0.021 0.043-0.119 0.437-0.264 0.868-0.446 1.289-0.213 0.895-0.277 2.039 0.467 2.782l2.85 2.851c1.168-0.538 2.303-1.322 3.362-2.381 4.581-4.582 5.072-11.52 1.096-15.496zM10 25c-0.428 0.003-0.57 0.058-1 0-0.934-0.125-1.964-0.72-2.877-1.142l-1.609 1.608c-0.379 0.378-0.379 0.992 0 1.372l2.057 2.057c0.378 0.378 0.992 0.378 1.372 0l3.558-3.895c-0.5 0-0.774-0.005-1.5 0zM9.872 24.198l11.455-11.455c-0.28-2.13-1.307-4.26-3.197-6.15-0.807-0.808-1.691-1.48-2.614-2.031-4.322-2.577-9.606-2.34-12.883 0.936-3.976 3.976-3.486 10.915 1.096 15.496 1.059 1.059 2.196 1.84 3.364 2.38 0.914 0.421 1.846 0.7 2.78 0.825zM4.847 7.67c0-1.607 1.303-2.909 2.91-2.909s2.909 1.303 2.909 2.909-1.303 2.909-2.909 2.909c-1.606 0-2.91-1.303-2.91-2.909zM23.939 23.375l-2.851-2.851c-0.744-0.744-0.679-1.888-0.466-2.782 0.182-0.421 0.326-0.852 0.446-1.289 0.012-0.026 0.020-0.043 0.020-0.043l-0.008-0.003c0.209-0.774 0.317-1.569 0.324-2.371l-10.243 10.243c0.725-0.005 1.444-0.097 2.149-0.267 0.079-0.019 0.159-0.035 0.238-0.056 0.456-0.123 0.905-0.282 1.344-0.472 0.198-0.047 0.409-0.084 0.625-0.109 0.22 0.026 0.434 0.064 0.635 0.112 0.421 0.181 0.852 0.326 1.289 0.445 0.026 0.012 0.043 0.021 0.043 0.021l0.003-0.008c0.072 0.020 0.144 0.033 0.216 0.050l4.415 4.415c0.379 0.378 0.992 0.378 1.371 0l2.058-2.057c0.379-0.379 0.379-0.993 0-1.372l-1.607-1.608z"></path>
</svg>
