<!-- Generated by IcoMoon.io -->
<svg version="1.1" xmlns="http://www.w3.org/2000/svg" width="32" height="32" viewBox="0 0 32 32">
<title>tablet</title>
<path d="M29.296 4h-26.591c-1.494 0-2.704 1.21-2.704 2.704v18.592c0 1.494 1.21 2.704 2.704 2.704h26.591c1.494 0 2.704-1.21 2.704-2.704v-18.592c0-1.494-1.21-2.704-2.704-2.704zM16 4.5c0.43 0 1 0.571 1 1 0 0.5-0.57 1-1 1s-1-0.57-1-1c0-0.429 0.57-1 1-1zM29.5 24.268c0 0.456-0.552 0.732-1.063 0.732h-24.875c-0.511 0-1.063-0.276-1.063-0.732v-16.44c0-0.455 0.551-0.829 1.063-0.829h24.875c0.512 0 1.063 0.373 1.063 0.829v16.44z"></path>
</svg>
