<!-- Generated by IcoMoon.io -->
<svg version="1.1" xmlns="http://www.w3.org/2000/svg" width="32" height="32" viewBox="0 0 32 32">
<title>Table-Tennis</title>
<path d="M16.166 5c0 2.025-1.642 3.666-3.666 3.666s-3.666-1.642-3.666-3.667c0-2.025 1.642-3.667 3.666-3.667s3.666 1.642 3.666 3.667zM31.162 18.256c-0.52-0.318-1.169-0.341-1.712-0.063l-4.611 2.372-1.239-3.799c0.046-0.104 0.084-0.212 0.109-0.324 0.107-0.479 0.008-0.982-0.273-1.384l-3.674-5.255c2.049-1.454 4.588-2.883 6.441-2.812 0.643 0.027 1.104 0.234 1.491 0.67 0.642 0.722 1.748 0.788 2.471 0.146s0.788-1.748 0.145-2.471c-1.011-1.136-2.378-1.774-3.956-1.841-5.094-0.211-11.358 5.573-12.090 6.266-1.579 1.579-3.124 2.344-4.587 2.287-1.947-0.082-3.288-1.62-3.329-1.667-0.614-0.739-1.71-0.845-2.455-0.237-0.748 0.612-0.859 1.714-0.247 2.463 0.092 0.113 2.296 2.76 5.824 2.935 0.127 0.007 0.253 0.009 0.379 0.009 2.371 0 4.685-1.113 6.855-3.283 0.091-0.086 0.195-0.182 0.311-0.286l2.456 3.512-6.341 3.642c-0.7 0.402-1.034 1.231-0.809 2.006l1.85 6.355h-1.168c-0.966 0-1.75 0.784-1.75 1.75s0.784 1.75 1.75 1.75h3.5c0.55 0 1.069-0.259 1.399-0.7s0.434-1.011 0.281-1.54l-2.116-7.273 4.542-2.608 1.542 4.725c0.159 0.488 0.524 0.881 0.998 1.075 0.213 0.087 0.439 0.131 0.666 0.131 0.276 0 0.55-0.065 0.8-0.194l3.891-2.002c0.060 0.912 0.819 1.634 1.746 1.634 0.966 0 1.75-0.784 1.75-1.75v-2.75c0-0.61-0.318-1.175-0.838-1.493zM3.837 7.279c0.511 1.005 0.326 2.124-0.413 2.499s-1.751-0.136-2.262-1.141c-0.511-1.005-0.326-2.124 0.413-2.499s1.751 0.136 2.262 1.141zM5.5 2.75c0 0.414-0.336 0.75-0.75 0.75s-0.75-0.336-0.75-0.75c0-0.414 0.336-0.75 0.75-0.75s0.75 0.336 0.75 0.75z"></path>
</svg>
