<!-- Generated by IcoMoon.io -->
<svg version="1.1" xmlns="http://www.w3.org/2000/svg" width="32" height="32" viewBox="0 0 32 32">
<title>table-chart</title>
<path d="M1 6c-0.552 0-1 0.448-1 1v4.5c0 0.552 0.448 1 1 1s1-0.448 1-1v-4.5c0-0.552-0.448-1-1-1zM1 14.5c-0.552 0-1 0.448-1 1v5c0 0.552 0.448 1 1 1s1-0.448 1-1v-5c0-0.552-0.448-1-1-1zM1 23.5c-0.552 0-1 0.448-1 1v4.5c0 0.552 0.448 1 1 1s1-0.448 1-1v-4.5c0-0.552-0.448-1-1-1zM7 2h4.5c0.552 0 1-0.448 1-1s-0.448-1-1-1h-4.5c-0.552 0-1 0.448-1 1s0.448 1 1 1zM15.5 2h5c0.552 0 1-0.448 1-1s-0.448-1-1-1h-5c-0.552 0-1 0.448-1 1s0.448 1 1 1zM24.5 2h4.5c0.552 0 1-0.448 1-1s-0.448-1-1-1h-4.5c-0.552 0-1 0.448-1 1s0.448 1 1 1zM32 4.907c0-0.5-0.406-0.907-0.906-0.907h-26.188c-0.5 0-0.907 0.406-0.907 0.907v0.188c0 0.161 0.046 0.311 0.12 0.442-0.074 0.139-0.12 0.295-0.12 0.465v6.5c0 0.169 0.046 0.325 0.12 0.465-0.074 0.13-0.12 0.28-0.12 0.441v0.188c0 0.161 0.046 0.31 0.12 0.441-0.074 0.139-0.12 0.296-0.12 0.464v6.5c0 0.286 0.122 0.543 0.314 0.725-0.191 0.166-0.314 0.409-0.314 0.681v0.188c0 0.161 0.046 0.311 0.12 0.442-0.074 0.139-0.12 0.296-0.12 0.464v6.5c0 0.169 0.046 0.325 0.12 0.465-0.074 0.131-0.12 0.28-0.12 0.442v0.188c0 0.5 0.406 0.906 0.907 0.906h26.188c0.5 0 0.906-0.406 0.906-0.906v-0.188c0-0.161-0.046-0.311-0.119-0.442 0.073-0.14 0.119-0.296 0.119-0.465v-6.5c0-0.169-0.046-0.325-0.119-0.465 0.073-0.131 0.119-0.28 0.119-0.442v-0.188c0-0.273-0.123-0.515-0.314-0.681 0.192-0.183 0.314-0.439 0.314-0.726v-6.5c0-0.169-0.046-0.325-0.119-0.465 0.073-0.13 0.119-0.28 0.119-0.441v-0.188c0-0.161-0.046-0.31-0.119-0.441 0.073-0.14 0.119-0.296 0.119-0.465v-6.5c0-0.169-0.046-0.325-0.119-0.465 0.073-0.13 0.119-0.28 0.119-0.441v-0.188zM30.139 21.5h-6.777c0.086-0.148 0.139-0.317 0.139-0.5v-6.5h6.5v6.5c0 0.183 0.052 0.352 0.139 0.5zM6 21v-6.5h6.5v6.5c0 0.183 0.053 0.352 0.139 0.5h-6.777c0.086-0.148 0.138-0.317 0.138-0.5zM14.5 21v-6.5h7v6.5c0 0.183 0.052 0.352 0.139 0.5h-7.277c0.086-0.148 0.139-0.317 0.139-0.5zM30 6v6.5h-6.5v-6.5h6.5zM21.5 6v6.5h-7v-6.5h7zM12.5 6v6.5h-6.5v-6.5h6.5zM6 30v-6.5h6.5v6.5h-6.5zM14.5 30v-6.5h7v6.5h-7zM23.5 30v-6.5h6.5v6.5h-6.5z"></path>
</svg>
