<!-- Generated by IcoMoon.io -->
<svg version="1.1" xmlns="http://www.w3.org/2000/svg" width="32" height="32" viewBox="0 0 32 32">
<title>taco</title>
<path d="M29.5 13.25c0.050-0.050 0.050-0.050 0.050-0.1v0c1.15-1.2 0-3.2-1.55-2.6v0c-0.45 0.15-0.9 0.1-1.25-0.1-0.050-0.050-0.15-0.1-0.2-0.15-0.45-0.4-0.7-1.050-0.45-1.75 0.55-1.6-1.35-2.85-2.5-1.65v0c-0.9 0.95-2.45 0.4-2.55-0.95-0.15-1.7-2.4-1.95-2.9-0.35-0.4 1.3-2.050 1.5-2.7 0.35v0c-0.85-1.45-2.95-0.65-2.8 1.050v0c0.050 0.55-0.15 1.050-0.5 1.35-0.6 0.050-1.15 0.1-1.7 0.25-0.050 0-0.1-0.050-0.1-0.050-0.9-0.6-1.95-0.050-2.25 0.85-4.5 2-7.85 6.6-7.85 12.5 0 2.6 1.95 5 3.95 5h17.6l-0.050-0.050 7.45-0.050c0 0 0 0 0 0 2 0 2.95-2.4 2.95-5-0.050-3.2-1-6.2-2.65-8.55zM29.15 25.15l-17.4 0.1h-7.55c-1.95 0-2.5-2.3-2.5-3.35 0-3.3 1.2-6.35 3.4-8.55 0.95-1 2.1-1.8 3.3-2.35 0.45 1.1-0.4 2.35-1.6 2.2v0c-1.6-0.2-2.35 2.050-1 2.95 0.6 0.4 0.8 1.1 0.65 1.7 0 0-0.15 0.7-1.4 1.4v0c-0.55 0.35-0.9 0.95-0.9 1.65 0 1.050 0.85 1.95 1.9 1.95s1.9-0.85 1.9-1.95c0-0.050 0-0.15 0-0.2 0.25-2.8 1.4-5.55 3.25-7.5 1.35-1.45 3.050-2.45 4.85-3l0.45-0.15c0.85-0.2 1.75-0.35 2.65-0.35v0c3.35 0 6.25 1.2 8.35 3.55 2 2.2 3.1 5.25 3.1 8.5 0.050 1.2-0.25 3.4-1.45 3.4zM18.2 11.15c-0.25-0.25-0.7-0.25-1 0l-6.5 6.5c-0.25 0.25-0.25 0.7 0 1s0.7 0.25 1 0l6.5-6.5c0.25-0.3 0.25-0.75 0-1zM23.050 12.5c-0.25-0.25-0.7-0.25-1 0l-9.95 9.95c-0.25 0.25-0.25 0.7 0 1 0.25 0.25 0.7 0.25 1 0l9.95-9.95c0.25-0.3 0.25-0.7 0-1zM26.95 14.65v0c-0.25-0.25-0.7-0.25-1 0l-7.9 7.9c-0.25 0.25-0.25 0.7 0 1s0.7 0.25 1 0l7.9-7.9c0.25-0.3 0.25-0.75 0-1zM24 23.65c0.25 0.25 0.7 0.25 1 0l3.8-3.8c0.25-0.25 0.25-0.7 0-1-0.25-0.25-0.7-0.25-1 0l-3.8 3.8c-0.25 0.25-0.25 0.7 0 1z"></path>
</svg>
