<!-- Generated by IcoMoon.io -->
<svg version="1.1" xmlns="http://www.w3.org/2000/svg" width="32" height="32" viewBox="0 0 32 32">
<title>tag-cloud-chart</title>
<path d="M26.495 10.838c0-0.030 0.005-0.058 0.005-0.088 0-2.347-1.903-4.25-4.25-4.25-0.942 0-1.81 0.311-2.514 0.829-1.459-2.582-4.224-4.329-7.402-4.329-4.694 0-8.5 3.806-8.5 8.5 0 0.694 0.092 1.364 0.248 2.009-2.268 0.088-4.082 1.95-4.082 4.241 0 2.347 1.903 4.25 4.25 4.25 0.085 0 0.167-0.008 0.25-0.012v0.012h3v6.5l7.15-6.5h11.35v-0.021c0.138 0.011 0.276 0.021 0.416 0.021 3.084 0 5.584-2.5 5.584-5.583 0-3.057-2.457-5.537-5.505-5.579z"></path>
</svg>
