<!-- Generated by IcoMoon.io -->
<svg version="1.1" xmlns="http://www.w3.org/2000/svg" width="32" height="32" viewBox="0 0 32 32">
<title>tambourine</title>
<path d="M19.326 3.237c-0.050-1.796-1.519-3.236-3.326-3.236-1.806 0-3.277 1.441-3.326 3.236 1.063-0.279 2.177-0.428 3.326-0.428 1.148 0 2.264 0.149 3.326 0.428zM16 29.093c-1.151 0-2.267-0.15-3.332-0.429 0 0.002 0 0.003 0 0.005 0 1.84 1.494 3.331 3.332 3.331 1.84 0 3.331-1.491 3.331-3.331 0-0.002 0-0.003 0-0.004-1.064 0.279-2.18 0.428-3.331 0.428zM28.727 12.672c0.27 1.049 0.414 2.148 0.414 3.28 0 1.168-0.155 2.301-0.443 3.38 1.826-0.017 3.302-1.501 3.302-3.331 0-1.819-1.461-3.298-3.273-3.329zM3.272 12.671c-1.813 0.031-3.272 1.51-3.272 3.329 0 1.83 1.474 3.314 3.301 3.331-0.288-1.079-0.443-2.212-0.443-3.38 0-1.132 0.143-2.231 0.414-3.28zM9.336 4.631c-1.304-1.242-3.369-1.226-4.65 0.056-1.285 1.285-1.3 3.361-0.043 4.665 1.135-1.946 2.754-3.575 4.694-4.72zM22.597 27.309c0.001 0.002 0.003 0.003 0.005 0.005 1.302 1.302 3.411 1.3 4.712 0 1.297-1.298 1.301-3.4 0.009-4.702-1.146 1.941-2.776 3.562-4.725 4.697zM27.358 9.351c1.255-1.304 1.241-3.378-0.044-4.665-1.28-1.28-3.345-1.298-4.65-0.056 1.939 1.146 3.558 2.774 4.694 4.72zM4.678 22.611c-1.292 1.302-1.288 3.405 0.008 4.703 1.302 1.302 3.41 1.302 4.712 0 0.002-0.001 0.003-0.003 0.004-0.005-1.947-1.136-3.578-2.757-4.724-4.698zM26.474 21.992c0.508-0.876 0.908-1.82 1.183-2.817 0.285-1.027 0.44-2.107 0.44-3.224 0-1.084-0.145-2.134-0.415-3.134-0.268-1.001-0.663-1.95-1.165-2.831-1.068-1.877-2.623-3.441-4.494-4.52-0.881-0.508-1.83-0.908-2.832-1.183-1.017-0.279-2.087-0.43-3.191-0.43s-2.174 0.152-3.191 0.43c-1.002 0.274-1.951 0.675-2.832 1.183-1.871 1.079-3.427 2.643-4.495 4.52-0.502 0.881-0.896 1.829-1.165 2.83s-0.414 2.050-0.414 3.135c0 1.116 0.155 2.197 0.44 3.224 0.276 0.997 0.675 1.941 1.184 2.817 1.074 1.856 2.627 3.401 4.489 4.466 0.877 0.503 1.824 0.898 2.822 1.169 1.009 0.273 2.067 0.422 3.162 0.422 1.094 0 2.153-0.149 3.162-0.422 0.997-0.27 1.944-0.666 2.822-1.169 1.862-1.065 3.415-2.61 4.489-4.466zM16 26.415c-5.77 0-10.463-4.694-10.463-10.463s4.694-10.463 10.463-10.463c5.769 0 10.463 4.694 10.463 10.463s-4.694 10.463-10.463 10.463zM16 6.516c-5.203 0-9.435 4.233-9.435 9.436s4.233 9.435 9.435 9.435 9.435-4.233 9.435-9.435-4.233-9.435-9.435-9.435z"></path>
</svg>
