<!-- Generated by IcoMoon.io -->
<svg version="1.1" xmlns="http://www.w3.org/2000/svg" width="32" height="32" viewBox="0 0 32 32">
<title>tap</title>
<path d="M13.132 7.706c1.97 0 3.572 1.603 3.572 3.571 0 0.438 0.357 0.796 0.796 0.796s0.797-0.357 0.797-0.796c0-2.848-2.317-5.165-5.165-5.165s-5.163 2.317-5.163 5.165c0 0.438 0.357 0.796 0.797 0.796 0.438 0 0.796-0.357 0.796-0.796-0.001-1.97 1.601-3.572 3.57-3.572zM23.403 19.679c-0.095-0.624-0.588-1.078-1.215-1.078-0.261 0-0.688 0.078-0.688 0.225v0.948c0 0.289-0.212 0.524-0.5 0.524s-0.5-0.235-0.5-0.524v-1.081c0-0.567-0.672-0.977-1.258-0.977-0.256 0-0.742 0.079-0.742 0.224v1.834c0 0.289-0.212 0.524-0.5 0.524s-0.5-0.235-0.5-0.524v-2.067c0-0.567-0.672-0.977-1.258-0.977-0.257 0-0.742 0.079-0.742 0.224v2.819c0 0.289-0.212 0.524-0.501 0.524s-0.499-0.235-0.499-0.524v-8.117c0-0.567-0.648-0.976-1.232-0.976-0.698 0-1.268 0.569-1.268 1.267v8.052h-0.35c-1.486 0-1.65 0.622-1.65 2.055v4.688c0 0.291 0.045 0.572 0.229 0.811l0.001 0.046c0.098 0.157 1.43 1.843 2.3 2.864l-0.030 0.070v0.092c0 0.913 0.476 1.375 1.114 1.375h7.607c0.639 0 0.779-0.463 0.779-1.375v-0.067l0.126-0.058c0.335-0.573 1.25-2.197 1.25-2.813l0.026-8.008z"></path>
</svg>
