<!-- Generated by IcoMoon.io -->
<svg version="1.1" xmlns="http://www.w3.org/2000/svg" width="32" height="32" viewBox="0 0 32 32">
<title>tap2</title>
<path d="M31.573 26.5h-1.073v-3.069c0-6.338-3.711-9.931-10.209-9.931h-0.791v-3.444c0-0.325-0.058-0.556-0.384-0.556h-1.616v-2.793c1.5 0.248 2.189 0.865 3.045 0.865 2.011 0 3.647-1.314 3.647-2.933s-1.63-2.933-3.641-2.933c-1.072 0-1.557 0.968-4.268 0.968s-3.197-0.968-4.268-0.968c-2.011 0-3.642 1.313-3.642 2.933s1.604 2.933 3.616 2.933c0.857 0 1.511-0.617 3.011-0.865v2.793h-1.549c-0.325 0-0.451 0.232-0.451 0.556v3.444h-6.5v-1.18c0-0.308-0.096-0.32-0.393-0.32h-5.521c-0.296 0-0.586 0.011-0.586 0.32v9.39c0 0.308 0.289 0.79 0.586 0.79h5.521c0.296 0 0.393-0.482 0.393-0.79v-1.21h13.79c3.029 0 3.209 0.451 3.209 2.931v3.069h-1.221c-0.236 0-0.279 0.306-0.279 0.491v3.236c0 0.186 0.042 0.272 0.279 0.272h9.294c0.236 0 0.427-0.087 0.427-0.272v-3.236c0-0.186-0.192-0.491-0.427-0.491z"></path>
</svg>
