<!-- Generated by IcoMoon.io -->
<svg version="1.1" xmlns="http://www.w3.org/2000/svg" width="32" height="32" viewBox="0 0 32 32">
<title>target-board</title>
<path d="M16.5 28.688v3.3c8.438-0.26 15.227-7.049 15.488-15.488h-3.3c-0.256 6.616-5.572 11.931-12.188 12.188zM3.313 16.5h-3.3c0.26 8.438 7.050 15.227 15.488 15.488v-3.3c-6.616-0.256-11.931-5.572-12.188-12.188zM28.688 15.5h3.3c-0.26-8.438-7.049-15.227-15.488-15.488v3.3c6.616 0.257 11.931 5.572 12.188 12.188zM15.5 3.313v-3.3c-8.438 0.26-15.228 7.049-15.488 15.488h3.3c0.257-6.616 5.572-11.931 12.188-12.188zM16.5 22.57v3.026c4.912-0.253 8.842-4.183 9.095-9.095h-3.026c-0.244 3.242-2.826 5.825-6.069 6.069zM22.57 15.5h3.026c-0.253-4.912-4.183-8.841-9.095-9.095v3.026c3.242 0.244 5.825 2.828 6.069 6.069zM9.431 15.5c0.244-3.241 2.828-5.825 6.069-6.069v-3.026c-4.912 0.253-8.841 4.183-9.095 9.095h3.026zM9.431 16.5h-3.026c0.253 4.912 4.183 8.842 9.095 9.095v-3.026c-3.241-0.244-5.825-2.826-6.069-6.069zM19.256 16.5h-2.756v2.756c1.42-0.217 2.539-1.336 2.756-2.756zM16.5 12.745v2.755h2.756c-0.217-1.419-1.336-2.538-2.756-2.755zM15.5 19.256v-2.756h-2.755c0.216 1.42 1.336 2.539 2.755 2.756zM12.745 15.5h2.755v-2.755c-1.419 0.217-2.538 1.336-2.755 2.755zM15.5 15.528c0.008-0.001 0.014-0.005 0.022-0.007 0.002-0.008 0.005-0.014 0.007-0.022h-0.028v0.028zM15.5 16.471v0.029h0.028c-0.002-0.008-0.005-0.014-0.007-0.022-0.008-0.002-0.014-0.006-0.022-0.006zM16.5 15.528v-0.028h-0.029c0.002 0.008 0.005 0.014 0.006 0.022 0.008 0.002 0.014 0.005 0.022 0.007zM16.5 16.471c-0.008 0.001-0.014 0.005-0.022 0.006-0.002 0.008-0.005 0.014-0.006 0.022h0.029v-0.029z"></path>
</svg>
