<!-- Generated by IcoMoon.io -->
<svg version="1.1" xmlns="http://www.w3.org/2000/svg" width="32" height="32" viewBox="0 0 32 32">
<title>target-customer</title>
<path d="M16 0c-8.837 0-16 7.163-16 16s7.163 16 16 16 16-7.163 16-16-7.163-16-16-16zM17.491 28.912c-0.047-0.787-0.693-1.412-1.491-1.412s-1.444 0.625-1.491 1.412c-5.979-0.686-10.735-5.442-11.421-11.421 0.787-0.047 1.412-0.693 1.412-1.491s-0.625-1.444-1.412-1.491c0.687-5.979 5.442-10.735 11.421-11.421 0.046 0.787 0.693 1.412 1.491 1.412s1.445-0.625 1.491-1.412c5.979 0.686 10.735 5.442 11.421 11.421-0.787 0.047-1.412 0.694-1.412 1.491s0.625 1.445 1.412 1.491c-0.686 5.979-5.442 10.735-11.421 11.421zM19.86 10.36c0 2.132-1.728 3.86-3.86 3.86s-3.86-1.728-3.86-3.86c0-2.132 1.728-3.86 3.86-3.86s3.86 1.728 3.86 3.86zM16 14.815c-4.181 0-7.572 3.391-7.572 7.572 0 2.614 0.185 2.117 7.758 2.117 7.61 0 7.387 0.495 7.387-2.117 0-4.182-3.39-7.572-7.572-7.572zM10.5 12.738c0.213 0 0.42-0.027 0.619-0.073-0.332-0.699-0.524-1.479-0.524-2.305 0-1.080 0.321-2.084 0.866-2.928-0.3-0.112-0.623-0.177-0.962-0.177-1.514 0-2.741 1.228-2.741 2.741s1.228 2.742 2.742 2.742zM20.849 12.73c0.050 0.002 0.101 0.008 0.151 0.008 1.514 0 2.741-1.227 2.741-2.741s-1.227-2.741-2.741-2.741c-0.184 0-0.365 0.019-0.54 0.054 0.595 0.868 0.945 1.918 0.945 3.051 0 0.852-0.204 1.654-0.556 2.37zM12.297 14.29c-0.329-0.31-0.614-0.665-0.857-1.047-0.304-0.054-0.618-0.082-0.94-0.082-2.97 0-5.377 2.408-5.377 5.377 0 1.634 0.063 2.071 1.747 2.182 0.697-2.898 2.737-5.274 5.427-6.43zM21 13.159c-0.134 0-0.266 0.008-0.398 0.018-0.252 0.409-0.552 0.784-0.898 1.113 2.682 1.152 4.717 3.518 5.42 6.405 1.316-0.146 1.254-0.625 1.254-2.157 0-2.97-2.408-5.378-5.378-5.378z"></path>
</svg>
