<!-- Generated by IcoMoon.io -->
<svg version="1.1" xmlns="http://www.w3.org/2000/svg" width="32" height="32" viewBox="0 0 32 32">
<title>tasks</title>
<path d="M26.581 18.003l-13.722-13.722c-0.453-0.453-1.010-0.707-1.842-0.781l-9.113 0.703c-0.639-0.085-1.786 1.063-1.702 1.702l-0.199 8.608c-0.046 0.953 0.309 1.406 0.763 1.859l13.722 13.723c0.511 0.511 1.053 0.521 1.446 0.129l10.824-10.824c0.392-0.392 0.334-0.886-0.177-1.397zM7.335 10.8c-0.788 0.788-2.066 0.788-2.853 0s-0.788-2.064 0-2.853c0.787-0.787 2.064-0.787 2.852 0s0.789 2.064 0.001 2.853zM31.567 18.003l-13.723-13.722c-0.453-0.453-1.009-0.707-1.843-0.781l-1.771 0.136c0.454 0.131 0.816 0.338 1.121 0.644l13.722 13.722c0.511 0.511 0.57 1.005 0.177 1.397l-10.236 10.236 0.459 0.459c0.511 0.511 1.053 0.521 1.446 0.129l10.824-10.824c0.392-0.392 0.334-0.886-0.177-1.397z"></path>
</svg>
