<!-- Generated by IcoMoon.io -->
<svg version="1.1" xmlns="http://www.w3.org/2000/svg" width="32" height="32" viewBox="0 0 32 32">
<title>taxi</title>
<path d="M31.75 18.9c-0.3-1.75-1.85-3.1-3.7-3.1h-0.25l-1.5-6.1c-0.35-2.1-2.2-3.7-4.4-3.7h-2.050v-3.4c0-0.3-0.25-0.5-0.5-0.5h-6.7c-0.3 0-0.5 0.25-0.5 0.5v3.4h-2.050c-2 0-3.7 1.35-4.3 3.15v0 0c-0.050 0.15-0.1 0.3-0.1 0.5l-1.55 6.15h-0.25c-1.85 0-3.4 1.35-3.7 3.1-0.050 0.050-0.050 0.1-0.050 0.2v6.3c0 0.2 0.15 0.35 0.35 0.35h1.6v1.2c0 1.6 1.35 2.95 2.95 2.95v0c1.6 0 2.95-1.35 2.95-2.95v-1.2h15.85v1.2c0 1.6 1.35 2.95 2.95 2.95v0c1.6 0 2.95-1.35 2.95-2.95v-1.2h1.65c0.2 0 0.35-0.15 0.35-0.35v-6.3c0.050-0.050 0.050-0.15 0-0.2zM5.050 23.35c-1.4 0-2.5-1.15-2.5-2.5 0-1.4 1.15-2.5 2.5-2.5s2.5 1.15 2.5 2.5c0 1.4-1.1 2.5-2.5 2.5zM8.2 15.8l1.35-5.45c0-0.2 0.15-0.35 0.35-0.35h12.2c0.2 0 0.35 0.15 0.35 0.35v0l1.35 5.45h-15.6zM26.85 23.35c-1.4 0-2.5-1.15-2.5-2.5 0-1.4 1.15-2.5 2.5-2.5 1.4 0 2.5 1.15 2.5 2.5 0 1.4-1.1 2.5-2.5 2.5z"></path>
</svg>
