<!-- Generated by IcoMoon.io -->
<svg version="1.1" xmlns="http://www.w3.org/2000/svg" width="32" height="32" viewBox="0 0 32 32">
<title>tea</title>
<path d="M0.15 27.35c-0.050 0.25-0.1 0.5-0.1 0.75 0 1.45 1.6 3.15 2.95 3.15h24.35c1.35 0 2.95-1.7 2.95-3.15 0-0.25-0.050-0.5-0.1-0.75h-30.050zM26.5 10.7h-7.85v3.3c0.4 0.4 1.4 1.45 1.4 1.5 0.050 0.050 0.050 0.15 0.050 0.25v2.9c0 0.25-0.2 0.5-0.5 0.5h-3c-0.25 0-0.5-0.2-0.5-0.5v-2.9c0-0.1 0-0.15 0.050-0.25 0-0.050 1.050-1.1 1.4-1.5v-3.3h-14.2c-0.65 0-1.2 0.6-1.2 1.3v4.5c0 5.2 3.95 9.45 8.75 9.45h6.1c3.65 0 6.8-2.45 8.1-5.95h1.4c3.050 0 5.5-2.1 5.5-4.65 0.050-2.55-2.45-4.65-5.5-4.65zM26.5 17.55h-0.85c0.050-0.35 0.050-0.65 0.050-1v-3.3h0.8c1.4 0 2.55 0.95 2.55 2.15 0.050 1.15-1.1 2.15-2.55 2.15zM13 8.8c-0.85 0-1.7 0-2.55 0-3.050-2.7 3.050-5.35 0-8.050 0.85 0 1.7 0 2.55 0 3.050 2.7-3.050 5.35 0 8.050zM18.5 8.8c-0.85 0-1.7 0-2.55 0-2.050-1.95 2.050-3.95 0-5.9 0.85 0 1.7 0 2.55 0 2 1.95-2.050 3.9 0 5.9z"></path>
</svg>
