<!-- Generated by IcoMoon.io -->
<svg version="1.1" xmlns="http://www.w3.org/2000/svg" width="32" height="32" viewBox="0 0 32 32">
<title>Teeth-silhouette</title>
<path d="M22.589 0c-2.394 0-5.030 1.099-6.589 2.98-1.559-1.881-4.195-2.98-6.589-2.98-4.55 0-8.251 3.898-8.251 8.69 0 2.014 0.669 3.966 1.891 5.525 0.144 2.672 0.988 15.275 5.338 17.613 0.030 0.015 0.061 0.029 0.094 0.041 0.038 0.012 0.387 0.13 0.8 0.13 0.723 0 1.121-0.343 1.33-0.628 0.386-0.534 0.44-1.3 0.177-2.294-0.012-0.056-1.026-7.715 2.573-10.791 0.194-0.117 1.284-0.958 2.636-0.958s2.442 0.84 2.637 0.958c3.599 3.075 2.585 10.734 2.573 10.791-0.262 0.994-0.209 1.761 0.177 2.294 0.209 0.286 0.607 0.628 1.33 0.628 0.413 0 0.761-0.117 0.799-0.131 0.033-0.012 0.064-0.026 0.094-0.041 4.351-2.338 5.194-14.941 5.338-17.613 1.221-1.559 1.892-3.511 1.892-5.525 0-4.792-3.701-8.69-8.251-8.69zM22.478 6.92c-0.744 0.742-3.975 1.715-6.503 0.364-1.296 0.668-4.149 1.198-6.326-0.208-0.342-0.218-0.45-0.667-0.254-1.016 0.011-0.011 0.018-0.027 0.024-0.040 0.229-0.354 0.701-0.455 1.056-0.227 2.118 1.365 4.819 0.187 4.969 0.045 0.291-0.288 0.744-0.288 1.043-0.017 2.11 1.314 4.768 0.157 4.917 0.017 0.3-0.297 0.778-0.293 1.075 0.005 0.3 0.298 0.299 0.78-0.001 1.078z"></path>
</svg>
