<!-- Generated by IcoMoon.io -->
<svg version="1.1" xmlns="http://www.w3.org/2000/svg" width="32" height="32" viewBox="0 0 32 32">
<title>television</title>
<path d="M25.25 28.995c0 0.003-0.001 0.006-0.001 0.009s0.001 0.006 0.001 0.009v-0.019zM6.75 29.015c0-0.003 0.001-0.006 0.001-0.009s-0.001-0.006-0.001-0.009v0.019zM29.133 2.053l-26.266-0.053c-1.583 0-2.867 1.62-2.867 3.223v16.823c0 1.602 1.284 2.902 2.867 2.902l8.133 0.017v2.536h-2.753c-0.824 0-1.49 0.673-1.496 1.505 0.005 0.831 0.672 1.495 1.496 1.495h15.507c0.823 0 1.491-0.663 1.496-1.495-0.005-0.832-0.672-1.505-1.496-1.505h-2.753v-2.517l8.133 0.017c1.584 0 2.867-1.299 2.867-2.902v-16.823c0-1.603-1.284-3.223-2.867-3.223zM29.5 20.5c0 1.105-0.895 2-2 2h-23c-1.104 0-2-0.895-2-2v-14c0-1.104 0.896-2 2-2h23c1.105 0 2 0.896 2 2v14z"></path>
</svg>
