<!-- Generated by IcoMoon.io -->
<svg version="1.1" xmlns="http://www.w3.org/2000/svg" width="32" height="32" viewBox="0 0 32 32">
<title>temperature</title>
<path d="M16 13.536v-8.367c0-2.854-2.314-5.169-5.169-5.169h-0.162c-2.854 0-5.169 2.314-5.169 5.169v8.215c-2.917 1.747-4.875 4.928-4.875 8.575 0 5.523 4.477 10 10 10s10-4.477 10-10c0-3.543-1.846-6.647-4.625-8.424zM10.805 28.834c-3.797 0-6.875-3.079-6.875-6.875 0-2.796 1.673-5.199 4.070-6.273v-10.668c0-1.391 1.127-2.518 2.518-2.518h0.464c1.39 0 2.518 1.128 2.518 2.518v10.614c2.457 1.049 4.18 3.486 4.18 6.326 0 3.797-3.079 6.876-6.875 6.876zM12 17.613v-5.857c0-0.694-0.469-1.256-1.046-1.256h-0.407c-0.578 0-1.046 0.563-1.046 1.256v5.825c-1.867 0.52-3.239 2.23-3.239 4.262 0 2.446 1.983 4.428 4.428 4.428s4.429-1.983 4.429-4.428c0-1.989-1.312-3.671-3.117-4.23zM21.25 4.5h9.5c0.691 0 1.25-0.559 1.25-1.25s-0.559-1.25-1.25-1.25h-9.5c-0.691 0-1.25 0.559-1.25 1.25s0.559 1.25 1.25 1.25zM21.25 8.5h4.5c0.691 0 1.25-0.559 1.25-1.25s-0.559-1.25-1.25-1.25h-4.5c-0.691 0-1.25 0.559-1.25 1.25s0.559 1.25 1.25 1.25zM30.75 10h-9.5c-0.691 0-1.25 0.559-1.25 1.25s0.559 1.25 1.25 1.25h9.5c0.691 0 1.25-0.559 1.25-1.25s-0.559-1.25-1.25-1.25zM25.75 14h-4.5c-0.691 0-1.25 0.559-1.25 1.25s0.559 1.25 1.25 1.25h4.5c0.691 0 1.25-0.559 1.25-1.25s-0.559-1.25-1.25-1.25z"></path>
</svg>
