<!-- Generated by IcoMoon.io -->
<svg version="1.1" xmlns="http://www.w3.org/2000/svg" width="32" height="32" viewBox="0 0 32 32">
<title>tennis-ball</title>
<path d="M6.532 18.45l1.621 1.62c0.165 0.165 0.45 0.507 0.752 0.869 0.29 0.349 0.591 0.709 0.751 0.868 3.368 3.369 8.855 3.363 12.23-0.013 3.43-3.43 3.433-8.8 0.006-12.226-0.314-0.315-1.326-1.171-1.724-1.472-0.192-0.189-0.567-0.465-0.929-0.732-0.375-0.277-0.73-0.537-0.906-0.713-1.919-1.919-2.901-4.362-2.958-6.814-3.909 0.134-7.778 1.689-10.761 4.673-3.046 3.046-4.603 7.015-4.679 11.007 2.382 0.104 4.739 1.075 6.598 2.934zM27.24 4.51c-2.89-2.891-6.613-4.441-10.396-4.657 0.094 2.032 0.953 4.056 2.592 5.694 0.155 0.155 0.494 0.44 0.823 0.715 0.352 0.296 0.718 0.603 0.904 0.79 0.366 0.282 1.432 1.174 1.778 1.519 3.922 3.922 3.948 10.33 0.026 14.252l0.033 0.070c0 0-0 0-0.001 0.001-3.956 3.957-10.398 3.915-14.319-0.006-0.172-0.172-0.514-0.557-0.818-0.904-0.291-0.331-0.617-0.7-0.77-0.852-0.324-0.324-1.288-1.289-1.62-1.62-1.555-1.555-3.512-2.387-5.498-2.515 0.27 3.695 1.813 7.316 4.639 10.142 6.248 6.249 16.379 6.249 22.628 0s6.248-16.379-0.001-22.628z"></path>
</svg>
