<!-- Generated by IcoMoon.io -->
<svg version="1.1" xmlns="http://www.w3.org/2000/svg" width="32" height="32" viewBox="0 0 32 32">
<title>Tennis</title>
<path d="M31.738 15.776c-0.322-0.896-1.23-1.476-2.315-1.476-0.36 0-0.72 0.063-1.069 0.189-1.069 0.384-1.788 1.272-1.897 2.207l-1.258 0.411c-0.059-0.256-0.169-0.503-0.348-0.72l-5.683-6.899c-0.061-0.199-0.154-0.392-0.29-0.565-0.157-0.2-0.349-0.354-0.559-0.466l-0.469-0.569c-0.018-0.022-0.037-0.043-0.056-0.064-2.047-2.252-4.248-3.421-6.542-3.476-2.925-0.064-4.787 1.712-4.99 1.915-0.677 0.677-0.675 1.764-0.008 2.45s1.771 0.699 2.467 0.040c0.041-0.040 1.031-0.952 2.491-0.905 1.181 0.043 2.411 0.716 3.659 1.984l-3.818 2.982c-0.508 0.135-0.952 0.489-1.169 1.012l-2.176 5.222-6.189 1.768c-0.929 0.265-1.468 1.234-1.202 2.163 0.22 0.769 0.92 1.27 1.681 1.27 0.159 0 0.321-0.022 0.481-0.068l7-2c0.512-0.146 0.93-0.518 1.135-1.009l1.808-4.34c1.152 0.483 2.763 1.419 3.486 3.056 0.834 1.888 0.354 4.406-1.425 7.484-0.313 0.541-0.313 1.209 0 1.75s0.89 0.875 1.515 0.875h3c0.966 0 1.75-0.784 1.75-1.75s-0.784-1.75-1.75-1.75h-0.189c1.226-3.032 1.323-5.732 0.287-8.053-0.933-2.088-2.611-3.428-4.117-4.258l2.146-1.676 5.023 6.1c0.237 0.288 0.549 0.473 0.882 0.566l0.064 0.195 0.385-0.125c0.007 0 0.014 0.002 0.021 0.002 0.363 0 0.726-0.118 1.037-0.348l2.303-0.753c0.434 0.595 1.177 0.962 2.035 0.962 0.36 0 0.72-0.064 1.069-0.189 0.663-0.238 1.216-0.677 1.558-1.234 0.369-0.602 0.454-1.3 0.234-1.912zM30.225 16.903c-0.162 0.264-0.448 0.485-0.787 0.607-0.628 0.225-1.316 0.035-1.465-0.381-0.157-0.436 0.25-0.998 0.887-1.227 0.186-0.066 0.375-0.101 0.562-0.101 0.444 0 0.799 0.19 0.904 0.483 0.090 0.249-0.024 0.495-0.101 0.619zM26.666 6c0 2.025-1.642 3.666-3.666 3.666s-3.666-1.642-3.666-3.667c0-2.025 1.642-3.667 3.666-3.667s3.666 1.642 3.666 3.667zM30.5 11.25c0 0.69-0.56 1.25-1.25 1.25s-1.25-0.56-1.25-1.25c0-0.69 0.56-1.25 1.25-1.25s1.25 0.56 1.25 1.25z"></path>
</svg>
