<!-- Generated by IcoMoon.io -->
<svg version="1.1" xmlns="http://www.w3.org/2000/svg" width="32" height="32" viewBox="0 0 32 32">
<title>tennis-racket</title>
<path d="M6.934 7.028c0.030 0.030 0.082 0.093 0.137 0.159 0.053 0.064 0.108 0.13 0.137 0.158 0.615 0.615 1.675 0.771 2.291 0.155 0.626-0.626 0.569-1.764-0.057-2.39-0.057-0.058-0.242-0.213-0.315-0.269-0.035-0.035-0.104-0.085-0.17-0.134-0.069-0.051-0.133-0.098-0.165-0.13-0.351-0.351-0.53-0.796-0.54-1.244-0.714 0.025-1.42 0.308-1.965 0.854-0.556 0.556-0.84 1.28-0.854 2.010 0.434 0.019 0.865 0.196 1.204 0.535l0.296 0.296zM9.559 4.638c0.072 0.061 0.146 0.122 0.184 0.16 0.074 0.057 0.29 0.238 0.361 0.308 0.796 0.796 0.802 2.096 0.005 2.892l0.007 0.014h-0.001c-0.803 0.803-2.11 0.794-2.906-0.002-0.035-0.035-0.104-0.113-0.166-0.184-0.059-0.067-0.125-0.142-0.157-0.173-0.066-0.066-0.261-0.262-0.329-0.329-0.315-0.316-0.713-0.484-1.115-0.51 0.054 0.75 0.368 1.485 0.941 2.058 1.268 1.268 3.324 1.268 4.592 0s1.268-3.324 0-4.591c-0.587-0.587-1.342-0.901-2.11-0.945 0.019 0.412 0.194 0.823 0.526 1.155 0.031 0.032 0.1 0.090 0.166 0.146zM29.782 2.219c-3.511-3.511-9.056-2.070-12.838 1.712-2.092 2.092-3.442 4.704-3.641 7.214-0.176 0.409-0.334 1.292-0.334 1.292s-1.060 5.33-4.091 9.687c-0.316-0.035-0.676 0.093-0.955 0.372l-6.321 6.32c-0.218-0.218-0.571-0.218-0.789 0l-0.395 0.395c-0.218 0.218-0.218 0.572 0 0.79l1.58 1.581c0.218 0.218 0.572 0.218 0.79 0l0.395-0.395c0.218-0.218 0.218-0.572 0-0.791l6.321-6.32c0.274-0.274 0.404-0.628 0.375-0.941 4.361-2.948 9.684-4.104 9.684-4.104s0.883-0.157 1.292-0.334c2.511-0.199 5.123-1.55 7.215-3.642 3.782-3.781 5.223-9.328 1.712-12.838zM10.688 21.311c1.168-1.815 2.696-4.689 3.011-7.107 0.328 0.898 0.844 1.745 1.597 2.498 0.756 0.756 1.607 1.273 2.509 1.601-2.399 0.332-5.205 1.933-7.117 3.008zM27.042 13.859c-3.024 3.025-7.566 4.283-10.376 1.475s-1.55-7.351 1.475-10.376c3.026-3.026 7.462-4.178 10.271-1.369s1.656 7.245-1.37 10.271z"></path>
</svg>
