<!-- Generated by IcoMoon.io -->
<svg version="1.1" xmlns="http://www.w3.org/2000/svg" width="32" height="32" viewBox="0 0 32 32">
<title>terrain</title>
<path d="M8.102 14.246c-0.192-0.341-0.603-0.556-0.603-0.652v-0.024c-0.5-0.023-0.215-0.032-0.288-0.035-0.018-0.002-0.072 0.001-0.090 0-0.019 0.001-0.212-0.002-0.23 0-0.072 0.003-0.392 0.012-0.392 0.036v0.023c0 0.097-0.324 0.312-0.516 0.653l-5.585 8.316c-0.673 1.058-0.023 1.936 0.86 1.936h6.101l5.556 0.109c0.883 0.001 1.489-0.933 0.818-1.99l-5.63-8.373zM31.515 21.474l-8.966-13.368c-0.305-0.542-0.548-0.883-1.048-1.035v-0.035c0-0.037-0.249-0.052-0.364-0.056-0.029-0.003-0.068 0.001-0.097-0-0.029 0.002-0.111-0.002-0.14 0-0.117 0.005 0.101 0.019-0.399 0.056v0.035c-0.5 0.154-0.716 0.495-1.020 1.036l-6.582 9.825 2.4 3.689c0 0 0.846 1.095 1.046 1.603 0.335 0.855-0.090 1.279-0.090 1.279h5.205l8.814 0.108c1.401 0.002 2.306-1.457 1.241-3.135z"></path>
</svg>
