<!-- Generated by IcoMoon.io -->
<svg version="1.1" xmlns="http://www.w3.org/2000/svg" width="32" height="32" viewBox="0 0 32 32">
<title>testdrive</title>
<path d="M16 2.35c-7.55 0-13.65 6.1-13.65 13.65s6.1 13.65 13.65 13.65c7.55 0 13.65-6.1 13.65-13.65s-6.1-13.65-13.65-13.65zM6.55 12.15c1.5-3.75 5.15-6.35 9.45-6.35s7.95 2.65 9.45 6.4v0c0 0 0.55 1.6-0.45 2 0 0-0.5 0.45-3.6-0.65 0 0-2.1-0.55-4.050-0.8-1.45-0.15-2.5 0-2.65 0-1.95 0.25-4.050 0.8-4.050 0.8-3.1 1.1-3.6 0.65-3.6 0.65-1.050-0.4-0.5-2-0.5-2.050zM14 26c-3.9-0.75-7-3.75-7.9-7.55v0c0 0 0-0.050 0-0.050-0.15-0.7 0.6-0.8 0.6-0.8h3.9c0.1 1.35 1.9 3.25 1.9 3.25 1 0.9 1.4 2.1 1.4 2.1 0.2 0.8 0.15 2.15 0.1 3.050zM16.65 21.35c-0.2 0.15-0.4 0.25-0.65 0.25s-0.45-0.1-0.65-0.25c-0.15-0.15-0.25-0.4-0.25-0.65s0.1-0.45 0.25-0.65c0.15-0.15 0.4-0.25 0.65-0.25s0.45 0.1 0.65 0.25c0.2 0.2 0.25 0.4 0.25 0.65 0 0.3-0.050 0.5-0.25 0.65zM17.35 18.55c-0.2 0.1-0.35 0.2-0.4 0.25-0.050 0.1-0.050 0.25-0.050 0.5h-1.9v-0.3c0-0.45 0.050-0.75 0.15-0.95s0.25-0.35 0.55-0.5l0.35-0.15c0.25-0.1 0.4-0.3 0.4-0.5 0-0.1-0.050-0.25-0.15-0.3-0.1-0.1-0.2-0.15-0.3-0.15-0.35 0-0.5 0.25-0.5 0.7h-1.8c0-0.65 0.15-1.15 0.45-1.55 0.2-0.3 0.5-0.55 0.85-0.7s0.7-0.25 1.050-0.25c0.65 0 1.2 0.2 1.65 0.65s0.65 0.95 0.65 1.6c-0.050 0.8-0.35 1.35-1 1.65zM17.95 26c-0.050-0.9-0.1-2.25 0.1-3.1 0 0 0.4-1.2 1.4-2.1 0 0 1.75-1.95 1.9-3.25h3.9c0 0 0.8 0.15 0.6 0.9l0.1-0.25c-0.85 3.9-4 7-8 7.8z"></path>
</svg>
