<!-- Generated by IcoMoon.io -->
<svg version="1.1" xmlns="http://www.w3.org/2000/svg" width="32" height="32" viewBox="0 0 32 32">
<title>Three-hexagons-cell</title>
<path d="M23.487 4.357l-7.488-4.322-7.486 4.322v8.643l7.486 4.322 7.488-4.322zM0 19v8.644l7.486 4.322 7.486-4.322v-8.644l-7.486-4.322zM24.514 14.677l-7.485 4.323v8.644l7.485 4.322 7.486-4.322v-8.644l-7.486-4.322zM30.026 26.503l-5.512 3.182-5.511-3.182v-6.365l5.511-3.182 5.512 3.182v6.365zM20.128 20.566h1.052v5.511h-1.052v-5.511zM28.587 21.799l-4.668-2.644 0.518-0.915 4.668 2.644-0.518 0.915zM24.418 28.557l-0.546-0.899 4.71-2.863 0.546 0.899-4.71 2.863z"></path>
</svg>
