<!-- Generated by IcoMoon.io -->
<svg version="1.1" xmlns="http://www.w3.org/2000/svg" width="32" height="32" viewBox="0 0 32 32">
<title>thunder-storm</title>
<path d="M20.27 21.501l-4.159-0.798 3.943-4.703c0.456-0.5 0.456-1 0.456-1 0-0.181-0.149-0.5-0.314-0.5h-6.082c-0.914 0-0.914 0-1.371 0.5l-2.714 8.454c-0.046 0.134-0.033 0.242 0.036 0.365s0.184 0.182 0.315 0.198l3.085 0.37-2.613 6.392c-0.082 0.202-0.024 0.436 0.14 0.566 0.075 0.058 0.162 0.087 0.249 0.087 0.104 0 0.207-0.042 0.287-0.123l8.957-9.005c0.119-0.12 0.166-0.304 0.12-0.474s-0.175-0.298-0.334-0.328zM24.233 8.156c0.326-0.521 0.518-1.134 0.518-1.794 0-1.867-1.514-3.381-3.381-3.381-1.017 0-1.927 0.451-2.546 1.162-0.828-2.299-3.024-3.946-5.608-3.946-3.296 0-5.967 2.671-5.967 5.967 0 0.078 0.009 0.154 0.011 0.231-2.306 0.681-4.24 2.812-4.24 5.338 0.001 2.79 1.98 4.862 4.48 5.268 0.138 0 0.452 0 2.281 0l1.246-3.277c0.177-0.469 0.595-0.761 1.095-0.761 0.128 0 0.236 0.019 0.307 0.031l0.030 0.005 8.809-0.001c0.078-0.018 0.074 0.002 0.233 0.002 0.449 0 0.984 0.204 1.177 0.616 0.235 0.503 0.182 1.009-0.177 1.384l-1.5 2c1.893 0 2.985 0 3 0 2.527 0 4.604-1.747 4.604-4.274 0-2.501-1.882-4.528-4.372-4.571z"></path>
</svg>
