<!-- Generated by IcoMoon.io -->
<svg version="1.1" xmlns="http://www.w3.org/2000/svg" width="32" height="32" viewBox="0 0 32 32">
<title>tie</title>
<path d="M14.573 4.938h2.855c0.238 0 0.375-0.22 0.431-0.431l1.117-4.075c0-0.238-0.193-0.431-0.431-0.431h-5.089c-0.238 0-0.431 0.193-0.431 0.431l1.117 4.075c0.077 0.245 0.193 0.431 0.431 0.431zM19.829 24.174l-0.41-3.605-7.561 7.561-0.031 0.387c0 0.238 0.13 0.323 0.39 0.523l3.782 2.961 3.781-2.96c0.261-0.199 0.391-0.285 0.391-0.523l-0.343-4.343zM19.064 17.436l-6.907 6.907-0.171 2.168 7.282-7.282zM17.834 6.6c0-0.238-0.193-0.431-0.431-0.431h-2.806c-0.238 0-0.431 0.193-0.431 0.431l-1.825 16.068 6.571-6.57-1.078-9.498z"></path>
</svg>
