<!-- Generated by IcoMoon.io -->
<svg version="1.1" xmlns="http://www.w3.org/2000/svg" width="32" height="32" viewBox="0 0 32 32">
<title>tire-pressure</title>
<path d="M18.2 21.1c0 1.243-1.007 2.25-2.25 2.25s-2.25-1.007-2.25-2.25c0-1.243 1.007-2.25 2.25-2.25s2.25 1.007 2.25 2.25zM15.9 17.6c1.15 0 2.1-0.95 2.1-2.1v-8.35c0-1.15-0.95-2.1-2.1-2.1s-2.1 0.95-2.1 2.1v8.35c0 1.15 0.95 2.1 2.1 2.1zM25.55 6.35l-0.050-2.2c0-0.95-0.75-1.7-1.65-1.7s-1.65 0.75-1.65 1.7v2.6c0 0.4 0.15 0.8 0.45 1.1v0 0c0.1 0.1 4.65 3.5 4.35 8-0.25 2.85-1.3 5.65-3.5 7.55-2.25 0.95-4.7 1.5-7.25 1.5 0 0 0 0 0 0s-0.4 0-0.5 0c0 0 0 0 0 0s0 0 0 0c-2.55 0-5-0.55-7.25-1.5-2.15-1.9-3.25-4.7-3.4-7.55-0.3-4.55 4.25-7.9 4.35-8v0 0c0.25-0.3 0.45-0.7 0.45-1.1v-2.6c0-0.95-0.75-1.7-1.65-1.7s-1.75 0.75-1.75 1.7l-0.050 2.2c0 0-4.8 4.1-4.75 9.45 0 7 5.4 13.050 5.4 13.050 0.35 0.45 0.65 0.75 1.2 0.75h0.85c0.75 0 1.4-0.55 1.4-1.3h1.35c0 0.75 0.35 1.3 1.1 1.3h1.15c0.75 0 1.1-0.55 1.1-1.3h1.55c0 0.75 0.5 1.3 1.2 1.3h1.050c0.75 0 1.1-0.55 1.1-1.3h1.35c0 0.75 0.65 1.3 1.4 1.3h0.85c0.55 0 0.85-0.3 1.2-0.75 0 0 5.4-6.050 5.4-13.050-0.050-5.4-4.8-9.45-4.8-9.45z"></path>
</svg>
