<!-- Generated by IcoMoon.io -->
<svg version="1.1" xmlns="http://www.w3.org/2000/svg" width="32" height="32" viewBox="0 0 32 32">
<title>toaster</title>
<path d="M24 7.584v-6.031c0-0.605-0.529-1.053-1.134-1.053h-14.802c-0.606 0-1.064 0.448-1.064 1.053v6.153c2-0.386 4.566-0.67 8.819-0.67 3.791 0 6.681 0.226 8.181 0.548zM28.257 29h-25.014c-0.41 0-0.743 0.332-0.743 0.743v0.014c0 0.411 0.333 0.744 0.743 0.744h1.044c-0.006 0.048-0.014 0.096-0.014 0.145 0 0.611 0.497 1.108 1.107 1.108 0.612 0 1.109-0.497 1.109-1.108 0-0.050-0.008-0.098-0.014-0.145h18.645c-0.006 0.048-0.015 0.096-0.015 0.145 0 0.611 0.497 1.108 1.107 1.108 0.613 0 1.108-0.497 1.108-1.108 0-0.050-0.009-0.098-0.015-0.145h0.951c0.41 0 0.742-0.332 0.742-0.743v-0.014c0-0.411-0.332-0.744-0.743-0.744zM31.204 16h-1.204v-0.757c0-0.411-0.332-0.743-0.743-0.743h-0.014c-0.411 0-0.744 0.332-0.744 0.743v11.014c0 0.411 0.332 0.744 0.743 0.744h0.014c0.411 0 0.744-0.332 0.744-0.743v-9.257h1.204c0.315 0 0.57-0.186 0.57-0.5 0-0.317-0.256-0.5-0.57-0.5zM23.898 23.071c0-1.352-1.096-2.448-2.448-2.448-0.501 0-0.966 0.152-1.354 0.41l3.393 3.392c0.258-0.388 0.41-0.852 0.41-1.354zM21.45 25.52c0.453 0 0.872-0.132 1.236-0.346l-3.339-3.339c-0.214 0.364-0.346 0.783-0.346 1.236 0 1.352 1.096 2.448 2.449 2.448zM3.679 28.5h24.122c0.555 0 1.096-0.029 1.182-0.501-0.543-0.005-0.982-0.445-0.982-0.989v-13.019c0-0.547 0.444-0.991 0.991-0.991h0.009v-1.031c0-0.605-0.524-1.096-1.13-1.096 0 0 0.63-1.393-3.87-2.192-1.5-0.322-4.389-0.549-8.181-0.549-4.253 0-6.819 0.285-8.819 0.671-4 0.812-3.346 2.070-3.346 2.070-0.606 0-1.154 0.492-1.154 1.096v15.899c0 0.605 0.573 0.633 1.179 0.633zM21.45 19.599c1.918 0 3.473 1.555 3.473 3.471s-1.555 3.473-3.473 3.473-3.472-1.555-3.472-3.473c0-1.916 1.555-3.471 3.472-3.471z"></path>
</svg>
