<!-- Generated by IcoMoon.io -->
<svg version="1.1" xmlns="http://www.w3.org/2000/svg" width="32" height="32" viewBox="0 0 32 32">
<title>toast</title>
<path d="M30.85 11.3c-0.45-4.8-5.9-8.55-12.55-8.55-0.7 0-3.8-0.050-4.65-0.050-6.65 0-12.15 3.8-12.55 8.6v0.1c0 1.65 0.35 2.55 0.35 2.65 0.35 0.9 0.85 1.7 1.55 2.3 0.8 0.7 1.25 1.75 1.25 2.9v6.4c0 2.050 1.65 3.7 3.65 3.7l16.2-0.050c2 0 3.6-1.65 3.6-3.65v-6c0.1-0.8 0.2-1 0.7-1.55 0.2-0.25 0.45-0.55 0.7-0.95 1.45-2 2.050-4.050 1.75-5.85zM4.5 15.15c-0.1-0.1-0.2-0.2-0.25-0.25-0.3-0.25-0.55-0.6-0.75-0.95l9.3-9.3c0.3 0 0.55 0 0.85 0 0.45 0 0.9 0 1.35 0.050l-10.5 10.45zM6.15 19.35l13.5-13.5c0.5 0.25 1 0.5 1.4 0.8l-14.9 14.95v-2.25zM7.9 27.4c-0.45 0-0.9-0.2-1.2-0.5l17.15-17.15c0.25 0.55 0.4 1.15 0.45 1.75 0 0 0 0 0 0l-15.9 15.9h-0.5zM21.15 20.45v2.2l-4.7 4.7h-2.2l6.9-6.9zM27.6 16.1c-0.25 0.35-0.45 0.6-0.65 0.85-0.6 0.75-0.95 1.25-1.1 2.6v6.050c0 1-0.8 1.8-1.8 1.8h-1.5c0.3-0.55 0.5-1.15 0.5-1.8v-6.4c0-1.15 0.45-2.2 1.25-2.9 0.25-0.25 0.5-0.5 0.7-0.8 0.5-0.65 0.85-1.45 1-2.35 0.15-0.7 0.2-1.3 0.15-1.8v-0.1c-0.2-2.5-1.8-4.7-4.2-6.25 3.95 1 6.8 3.5 7.050 6.45v0.1c0.25 1.35-0.25 2.95-1.4 4.55z"></path>
</svg>
