<!-- Generated by IcoMoon.io -->
<svg version="1.1" xmlns="http://www.w3.org/2000/svg" width="32" height="32" viewBox="0 0 32 32">
<title>Toboggan</title>
<path d="M31.666 20.5c0 2.025-1.642 3.666-3.666 3.666s-3.666-1.642-3.666-3.666c0-2.025 1.642-3.666 3.666-3.666s3.666 1.642 3.666 3.666zM23.691 18.575c-0.2-0.797-0.942-1.358-1.753-1.323-0.121 0.008-3.027 0.056-5.346-2.402-2.394-2.537-3.352-6.81-2.847-12.7 0.082-0.963-0.632-1.81-1.594-1.893s-1.81 0.631-1.893 1.594c-0.323 3.765-0.088 7.011 0.688 9.72-2.111-1.976-4.27-4.683-5.264-8.065-0.273-0.928-1.247-1.46-2.173-1.185-0.927 0.272-1.458 1.245-1.185 2.172 2.684 9.126 12.001 13.874 12.396 14.072 0.252 0.125 0.518 0.185 0.781 0.185 0.089 0 0.178-0.009 0.265-0.022 0.433 0.302 0.866 0.568 1.293 0.787l-3.84 1.919c-0.553 0.277-0.919 0.825-0.963 1.442s0.241 1.211 0.749 1.563l1.114 0.771-8.209-5.339c-0.347-0.226-0.812-0.128-1.037 0.22s-0.128 0.811 0.22 1.038l15.331 9.971c0.551 0.473 1.057 0.594 1.432 0.594 0.069 0 0.134-0.005 0.194-0.011 0.785-0.090 1.226-0.682 1.273-0.75 0.235-0.331 0.156-0.781-0.169-1.024s-0.792-0.176-1.044 0.143c-0.001 0.001-0.107 0.13-0.236 0.141-0.122 0.022-0.303-0.082-0.497-0.254-0.028-0.025-0.058-0.048-0.090-0.069l-0.977-0.636c0.064 0.007 0.127 0.014 0.191 0.014 0.555 0 1.101-0.263 1.44-0.754 0.55-0.794 0.352-1.885-0.442-2.435l-4.070-2.817 5.357-2.678c0.733-0.366 1.107-1.194 0.907-1.99z"></path>
</svg>
