<!-- Generated by IcoMoon.io -->
<svg version="1.1" xmlns="http://www.w3.org/2000/svg" width="32" height="32" viewBox="0 0 32 32">
<title>toffee</title>
<path d="M27.85 4.2l-0.8 0.35c0 0-0.4 0.15-0.7-0.050l-0.15-0.2c-0.050-0.050-0.050-0.15-0.050-0.2l0.050-1.45c-0.1-1-1.1-1.15-1.1-1.15-0.35-0.050-0.65 0.1-0.9 0.3v0c0 0 0 0 0 0-0.050 0.050-0.1 0.1-0.15 0.1-1.050 1-1.75 2.65-2.2 4.2-3.75-2.2-8.65-2-12.3 0.9-3.75 2.95-5 7.85-3.6 12.1-1.75 0.050-3.85 0.25-5.2 1.2-0.050 0.050-0.1 0.050-0.15 0.1 0 0 0 0 0 0v0c-0.25 0.2-0.45 0.45-0.5 0.8 0 0-0.1 0.95 0.85 1.3l1.45 0.3c0.1 0.050 0.15 0.050 0.2 0.1l0.15 0.2c0.15 0.3-0.15 0.7-0.15 0.7v0l-0.5 0.7c-1.050 2.25 0.95 3 2 2.55l0.8-0.3c0 0 0.55-0.2 0.8 0.1v0c0.050 0.1 0.1 0.2 0.15 0.35l-0.050 1.4c0.1 1 1.1 1.15 1.1 1.15 0.35 0.050 0.65-0.1 0.9-0.3v0c0 0 0 0 0 0 0.050-0.050 0.1-0.1 0.15-0.15 1.15-1.1 1.85-3.050 2.3-4.65 3.85 2.55 9.050 2.5 12.85-0.55 3.7-2.9 5-7.8 3.6-12 1.55-0.1 3.25-0.4 4.4-1.1 0.050-0.050 0.15-0.1 0.2-0.1 0 0 0 0 0 0v0c0.25-0.2 0.45-0.45 0.5-0.8 0 0 0.1-0.95-0.9-1.3l-1.3-0.3c-0.15-0.050-0.25-0.15-0.3-0.2v0c-0.25-0.35 0.1-0.8 0.1-0.8v0l0.5-0.7c0.6-0.95 0.35-3.050-2.050-2.6zM2.55 26.4c0 0 0 0 0 0s0 0 0 0zM7.15 17.1c-0.35-1.1-0.25-2.25 0.2-3.3 0.15-0.35 0.55-0.5 0.85-0.35s0.4 0.45 0.3 0.7c-0.35 0.85-0.4 1.8-0.15 2.75 0.1 0.3-0.050 0.6-0.4 0.7-0.3 0.050-0.7-0.15-0.8-0.5zM25.6 15.35c-2.55-1.65-5.8-1.65-8.1 0.1 2.55 1.85 3.75 5.1 3.15 8.35-0.55 0.3-1.1 0.5-1.65 0.7 0.95-2.9 0.050-6.050-2.25-7.75-1.1 2.95-3.95 4.95-7.2 5.2-0.15-0.2-0.35-0.4-0.5-0.6-0.2-0.25-0.4-0.55-0.6-0.85 3.050 0.15 5.85-1.55 6.9-4.2-3.15-0.3-5.8-2.5-6.95-5.55 0.3-0.5 0.65-0.95 1.050-1.4 0.65 2.95 2.95 5.15 5.75 5.5-0.85-3 0.2-6.25 2.6-8.4 0.6 0.1 1.15 0.25 1.7 0.45-2.45 1.7-3.65 4.7-2.95 7.4 2.45-1.9 5.85-2.15 8.75-0.75 0.2 0.6 0.3 1.2 0.3 1.8zM29.55 5c0 0 0.050 0.050 0 0 0.050 0 0 0 0 0z"></path>
</svg>
