<!-- Generated by IcoMoon.io -->
<svg version="1.1" xmlns="http://www.w3.org/2000/svg" width="32" height="32" viewBox="0 0 32 32">
<title>tools-opportunity</title>
<path d="M8 18c-0.040 0 0 0 0 0v0zM16 0c-8.836 0-16 7.163-16 16 0 4.817 2.132 9.134 5.5 12.067 1.718 1.495 3.756 2.631 6 3.287 0.491 0.143 0.991 0.264 1.5 0.361 0.972 0.184 1.974 0.285 3 0.285s2.028-0.101 3-0.285c0.509-0.096 1.009-0.218 1.5-0.361 2.244-0.657 4.282-1.791 6-3.287 3.368-2.933 5.5-7.25 5.5-12.067 0-8.837-7.163-16-16-16zM26.5 23.867v-10.367c0-0.552-0.448-1-1-1h-4c-0.552 0-1 0.448-1 1v14.828c-0.487 0.177-0.988 0.324-1.5 0.444v-10.771c0-0.552-0.448-1-1-1h-4c-0.552 0-1 0.448-1 1v10.771c-0.511-0.119-1.013-0.266-1.5-0.444v-5.828c0-0.552-0.448-1-1-1h-4c-0.552 0-1 0.448-1 1v1.367c-1.266-1.686-2.129-3.689-2.463-5.867h4.963c5.064 0 9.315-4.007 9.596-9 1.035 0 1.856 0 2.020 0 0.497 0 0.349-0.236 0.166-0.419 0 0-3.244-4.16-3.645-4.561s-0.479-0.205-0.663-0.022l-3.312 4.593c-0.182 0.184-0.165 0.408 0.165 0.408 0.13 0 1.193 0 2.47 0-0.275 3.353-2.873 6-6.298 6-0.098 0-0.5 0.004-0.5 0h-5.078c0.511-6.778 6.169-12.12 13.078-12.12 7.246 0 13.12 5.874 13.12 13.12 0 2.952-0.975 5.676-2.62 7.867z"></path>
</svg>
