<!-- Generated by IcoMoon.io -->
<svg version="1.1" xmlns="http://www.w3.org/2000/svg" width="32" height="32" viewBox="0 0 32 32">
<title>tornado</title>
<path d="M15.733 9.325c2.026-0.131 3.724-1.838 3.724-3.889 0-2.139-1.741-3.921-3.88-3.921s-3.881 1.845-3.881 3.985c0 0.694 0.175 1.5 0.481 2h-8.124c-0.531 0-0.963 0.468-0.963 1s0.431 1 0.963 1h11.552c0.044 0 0.086-0.168 0.127-0.175zM13.623 5.281c0-1.078 0.877-1.917 1.955-1.917s1.954 0.896 1.954 1.974c0 0.988-0.739 1.732-1.691 1.863l-0.718-0.098c-0.858 0-1.5-0.901-1.5-1.822zM25.433 12.871c1.951-0.203 3.477-1.96 3.477-3.963 0-2.139-1.741-3.882-3.881-3.882-2.139 0-3.88 1.811-3.88 3.95 0 0.713 0.197 1.524 0.534 2.024h-15.31c-0.532 0-0.963 0.469-0.963 1s0.431 1 0.963 1h18.861c0.069-0.001 0.134-0.116 0.199-0.129zM23.074 8.905c0-1.078 0.877-1.955 1.954-1.955s1.955 0.877 1.955 1.955-0.878 1.955-1.955 1.955c-1.078-0.001-1.954-0.877-1.954-1.955zM27.909 14.5h-18c-0.552 0-1 0.448-1 1s0.448 1 1 1h18c0.552 0 1-0.448 1-1s-0.448-1-1-1zM24.409 18h-11.5c-0.552 0-1 0.448-1 1s0.448 1 1 1h11.5c0.552 0 1-0.448 1-1s-0.448-1-1-1zM21.909 21.5h-6.5c-0.552 0-1 0.448-1 1s0.448 1 1 1h6.5c0.552 0 1-0.448 1-1s-0.448-1-1-1zM18.909 25h-2.5c-0.552 0-1 0.448-1 1s0.448 1 1 1h2.5c0.552 0 1-0.448 1-1s-0.448-1-1-1zM15.409 28.5h-1c-0.552 0-1 0.448-1 1s0.448 1 1 1h1c0.552 0 1-0.448 1-1s-0.447-1-1-1z"></path>
</svg>
