<!-- Generated by IcoMoon.io -->
<svg version="1.1" xmlns="http://www.w3.org/2000/svg" width="32" height="32" viewBox="0 0 32 32">
<title>touch-n-hold</title>
<path d="M12.286 7.706c1.969 0 3.572 1.602 3.572 3.571 0 0.439 0.357 0.796 0.796 0.796s0.797-0.357 0.797-0.796c0-2.847-2.317-5.164-5.165-5.164s-5.165 2.317-5.165 5.164c0 0.439 0.357 0.796 0.796 0.796s0.797-0.357 0.797-0.796c0-1.969 1.602-3.571 3.572-3.571zM25.039 8.598c-2.332 0-4.231 1.899-4.231 4.232s1.898 4.232 4.231 4.232c2.334 0 4.233-1.899 4.233-4.232s-1.899-4.232-4.233-4.232zM25.039 15.539c-1.492 0-2.707-1.215-2.707-2.708s1.215-2.709 2.707-2.709c1.494 0 2.709 1.215 2.709 2.709s-1.215 2.709-2.709 2.709zM26.457 12.5h-0.957v-1.215c0-0.28-0.22-0.508-0.5-0.508-0.282 0-0.5 0.227-0.5 0.508v2.215h1.957c0.282 0 0.509-0.22 0.509-0.5s-0.227-0.5-0.509-0.5zM21.265 18.602c-0.261 0-0.265 0.078-0.765 0.225v0.948c0 0.288-0.212 0.523-0.5 0.523s-0.5-0.235-0.5-0.523v-1.081c0-0.567-0.672-0.977-1.257-0.977-0.257 0-0.243 0.079-0.743 0.224v1.834c0 0.288-0.212 0.523-0.5 0.523s-0.5-0.235-0.5-0.523v-2.067c0-0.567-0.672-0.977-1.258-0.977-0.257 0-0.242 0.079-0.742 0.225v2.819c0 0.288-0.211 0.523-0.5 0.523s-0.5-0.235-0.5-0.523v-8.116c0-0.567-0.648-0.976-1.233-0.976-0.698 0-1.267 0.568-1.267 1.267v7.916l-0.216 0.027c-1.518 0.002-1.784 0.73-1.784 2.163v4.688c0 0.291 0.121 0.571 0.306 0.811l0.040 0.046c0.099 0.157 1.622 1.843 2.492 2.864l0.162 0.070v0.091c0 0.913 0.13 1.375 0.768 1.375h7.607c0.638 0 1.125-0.462 1.125-1.375v-0.067l-0.047-0.058c0.335-0.573 1.164-2.197 1.164-2.813l-0.064-8.008c-0.094-0.624-0.661-1.077-1.288-1.077z"></path>
</svg>
