<!-- Generated by IcoMoon.io -->
<svg version="1.1" xmlns="http://www.w3.org/2000/svg" width="32" height="32" viewBox="0 0 32 32">
<title>Toxic</title>
<path d="M16 0c-8.836 0-16 7.163-16 16 0 8.836 7.163 16 16 16s16-7.164 16-16c0-8.837-7.163-16-16-16zM19.752 16c0 2.072-1.68 3.752-3.752 3.752s-3.752-1.68-3.752-3.752 1.68-3.751 3.752-3.751 3.752 1.679 3.752 3.751zM3.544 16.508v0c-0.114 0-0.222-0.045-0.302-0.125s-0.125-0.188-0.125-0.302v-0.012c0-4.58 2.462-8.852 6.426-11.149 0.204-0.119 0.465-0.049 0.584 0.155l3.239 5.589c0.022 0.039 0.037 0.078 0.047 0.118l0.036 0.062c-1.899 0.944-3.21 2.897-3.21 5.157 0 0.169 0.011 0.335 0.025 0.501l-6.721 0.007zM22.48 27.203c-1.963 1.143-4.203 1.748-6.48 1.748h-0.003c-2.246 0-4.462-0.591-6.407-1.707-0.205-0.117-0.276-0.378-0.158-0.583l3.37-5.873c0.915 0.613 2.015 0.973 3.198 0.973 1.194 0 2.302-0.365 3.223-0.989l0.117 0.202c0.017 0.020 0.032 0.041 0.044 0.064l3.25 5.582c0.119 0.204 0.049 0.465-0.154 0.584zM28.457 16.468l-6.721 0.014c0.012-0.158 0.024-0.319 0.024-0.482 0-2.27-1.323-4.232-3.235-5.169l3.326-5.769c0.056-0.098 0.149-0.17 0.259-0.198 0.11-0.030 0.226-0.013 0.323 0.042 3.968 2.289 6.44 6.555 6.449 11.135 0.001 0.236-0.19 0.427-0.425 0.427z"></path>
</svg>
