<!-- Generated by IcoMoon.io -->
<svg version="1.1" xmlns="http://www.w3.org/2000/svg" width="32" height="32" viewBox="0 0 32 32">
<title>traction-control</title>
<path d="M7.15 18.9c0 1.15 0.95 2.050 2.050 2.050h0.1c1.15 0 2.050-0.95 2.050-2.050v-0.85h11.65v0.85c0 1.15 0.95 2.050 2.050 2.050h0.1c1.15 0 2.050-0.95 2.050-2.050v-0.85h2v-6.6c0 0-0.1-2.050-2.45-2.65l-2.5-5.55c0 0-0.8-1.85-3.55-1.75h-7c-2.6-0.1-3.5 1.75-3.5 1.75l-2.65 5.45c-2.35 0.6-2.5 2.75-2.5 2.75v6.6h2.050l0.050 0.85zM24.85 11.1c1.050 0 1.9 0.85 1.9 1.9s-0.85 1.9-1.9 1.9c-1.050 0-1.9-0.85-1.9-1.9 0.050-1.050 0.85-1.9 1.9-1.9zM11.7 5.25c0.8-1.8 2.35-1.7 2.35-1.7h6.3c0 0 1.55-0.050 2.3 1.7l1.45 3.15h-13.95l1.55-3.15zM9.5 11.1c1.050 0 1.9 0.85 1.9 1.9s-0.85 1.9-1.9 1.9c-1.050 0-1.9-0.85-1.9-1.9 0.050-1.050 0.9-1.9 1.9-1.9zM12 21.55h-3.9c3.65 1.4 2.35 2.1 2.35 2.1-0.5 0.65-4.2 1.25-4.2 1.25-4.2 0.95-3.85 2.45-3.85 2.45 0.15 1.2 4.5 3.1 4.5 3.1h5.7c-2.85-1.4-5.050-2.55-5.050-2.55-0.95-0.5-0.1-1 0.75-1.35 0.7-0.25 1.4-0.4 1.4-0.4 5.15-1.3 5-2.2 5-2.2 0.15-1.3-2.7-2.4-2.7-2.4zM23.2 26.6c0.7-0.25 1.4-0.4 1.4-0.4 5.15-1.3 5-2.2 5-2.2 0.2-1.35-2.7-2.5-2.7-2.5h-3.9c3.65 1.4 2.35 2.1 2.35 2.1-0.5 0.65-4.2 1.25-4.2 1.25-4.2 0.95-3.85 2.45-3.85 2.45 0.15 1.2 4.5 3.1 4.5 3.1h5.7c-2.85-1.4-5.050-2.55-5.050-2.55-0.95-0.4-0.15-0.9 0.75-1.25z"></path>
</svg>
