<!-- Generated by IcoMoon.io -->
<svg version="1.1" xmlns="http://www.w3.org/2000/svg" width="32" height="32" viewBox="0 0 32 32">
<title>tradicional-hat</title>
<path d="M25.803 16.461l-0.611-5.061c-0.148-1.333-0.874-2.521-1.994-3.26s-2.497-0.941-3.782-0.553l-2.583 0.781c-0.546 0.165-1.123 0.165-1.668 0l-2.585-0.781c-1.284-0.388-2.662-0.186-3.781 0.552s-1.845 1.927-1.994 3.26l-0.611 5.061c2.249 0.601 5.546 1.076 9.805 1.076s7.554-0.475 9.803-1.076zM26.108 18.009c-2.82 0.737-6.532 1.088-10.108 1.088s-7.288-0.351-10.109-1.088c-3.592 0.681-5.891 1.717-5.891 2.878 0 2.053 7.163 3.717 16 3.717s16-1.664 16-3.717c0-1.162-2.299-2.197-5.892-2.878z"></path>
</svg>
