<!-- Generated by IcoMoon.io -->
<svg version="1.1" xmlns="http://www.w3.org/2000/svg" width="32" height="32" viewBox="0 0 32 32">
<title>traffic</title>
<path d="M26.348 9h-4.348v-1.871c3.5-1.166 4.348-4.629 4.348-4.629h-4.348v-1.262c0-0.846-0.421-1.238-1.266-1.238h-9.695c-0.845 0-1.538 0.393-1.538 1.238v1.262h-4.075c0 0 0.075 3.463 4.075 4.629v1.871h-4.075c0 0 0.075 3.845 4.075 5.011v2.489h-4.075c0 0 0.075 3.227 4.075 4.392v4.099c0 0.846 0.693 1.509 1.538 1.509h1.462v5.091c0 0.429 0.497 0.409 0.926 0.409h4.92c0.428 0 0.154 0.020 0.154-0.409v-5.091h2.234c0.846 0 1.266-0.663 1.266-1.509v-4.099c3.5-1.166 4.348-4.392 4.348-4.392h-4.348v-2.489c3.5-1.166 4.348-5.011 4.348-5.011zM15.886 23.553c-1.441 0-2.61-1.169-2.61-2.61s1.169-2.609 2.61-2.609 2.61 1.168 2.61 2.609c0 1.442-1.169 2.61-2.61 2.61zM15.886 15.912c-1.441 0-2.61-1.168-2.61-2.61s1.169-2.61 2.61-2.61 2.61 1.169 2.61 2.61c0 1.441-1.169 2.61-2.61 2.61zM15.886 8.31c-1.441 0-2.61-1.168-2.61-2.61 0-1.441 1.169-2.61 2.61-2.61s2.61 1.169 2.61 2.61c0 1.442-1.169 2.61-2.61 2.61z"></path>
</svg>
