<!-- Generated by IcoMoon.io -->
<svg version="1.1" xmlns="http://www.w3.org/2000/svg" width="32" height="32" viewBox="0 0 32 32">
<title>train</title>
<path d="M24.814 25.672c2.774-1.191 4.151-2.899 4.151-4.383l-1.885-16.058c0-2.579-2.77-5.234-10.712-5.234-8.441 0-10.71 2.656-10.71 5.237l-1.885 16.061c0 1.458 1.488 3.126 4.215 4.314l-6.55 6.39h6.048l1.586-1.5h14.596l1.585 1.5h6.048l-6.486-6.328zM17.5 6.5h6.289c0.395 0 0.715 0.247 0.715 0.641l0.628 5.593c0 0.395-0.32 0.765-0.715 0.765h-6.917v-7zM8.235 7.141c0-0.394 0.32-0.641 0.716-0.641h6.050v7h-6.678c-0.396 0-0.716-0.37-0.716-0.765l0.628-5.593zM7.446 21.5c-0.494 0-0.894-0.63-0.894-1.5s0.4-1.5 0.894-1.5h2.925c0.493 0 0.893 0.63 0.893 1.5s-0.4 1.5-0.893 1.5h-2.925zM10.742 28.5l1.582-1.672c1.232 0.198 2.584 0.322 4.048 0.322 1.49 0 2.843-0.12 4.067-0.303l1.559 1.654h-11.256zM22.367 21.5c-0.494 0-0.893-0.63-0.893-1.5s0.4-1.5 0.893-1.5h2.925c0.494 0 0.894 0.63 0.894 1.5s-0.4 1.5-0.894 1.5h-2.925z"></path>
</svg>
