<!-- Generated by IcoMoon.io -->
<svg version="1.1" xmlns="http://www.w3.org/2000/svg" width="32" height="32" viewBox="0 0 32 32">
<title>tram</title>
<path d="M22.906 26.688c2.056-0.983 3.094-2.367 3.094-3.57v-13.3c0-2.004-3-4.521-9-4.825v-2.993h4.587c0.575 0 1.041-0.426 1.041-1s-0.466-1-1.041-1h-11.445c-0.575 0-1.041 0.425-1.041 1s0.466 1 1.041 1h4.858v2.99c-6.5 0.288-9 2.816-9 4.828v13.3c0 1.18 0.997 2.534 3.016 3.514l-5.516 5.369h5.008l1.313-1.5h12.086l1.313 1.5h5.008l-5.322-5.312zM22.529 10.5c0.327 0 0.471 0.509 0.471 0.836v4.591c0 0.328-0.145 0.573-0.471 0.573h-13.329c-0.328 0-0.7-0.245-0.7-0.573v-4.591c0-0.327 0.373-0.836 0.7-0.836zM8.691 21.918c0-1.069 0.867-1.936 1.936-1.936s1.936 0.867 1.936 1.936c0 1.070-0.867 1.936-1.936 1.936s-1.936-0.866-1.936-1.936zM11.204 29l1.316-1.349c1.002 0.169 2.117 0.294 3.345 0.294 1.25 0 2.367-0.133 3.363-0.287l1.297 1.343h-9.32zM21.101 23.854c-1.070 0-1.936-0.866-1.936-1.936s0.866-1.936 1.936-1.936c1.069 0 1.936 0.867 1.936 1.936s-0.867 1.936-1.936 1.936z"></path>
</svg>
