<!-- Generated by IcoMoon.io -->
<svg version="1.1" xmlns="http://www.w3.org/2000/svg" width="32" height="32" viewBox="0 0 32 32">
<title>transfer-within-a-station</title>
<path d="M17.965 3.744c0 1.883-1.526 3.409-3.409 3.409s-3.409-1.527-3.409-3.409c0-1.883 1.527-3.409 3.409-3.409s3.409 1.526 3.409 3.409zM21.418 16.177l-3.27-1.302-2.425-5.361c-0.027-0.061-0.060-0.118-0.095-0.174-0.188-0.389-0.524-0.706-0.966-0.857l-2.77-0.947c-0.062-0.021-0.124-0.037-0.187-0.051-0.203-0.055-0.421-0.063-0.637-0.014-0.118 0.020-0.233 0.054-0.344 0.099l-5.889 1.8c-0.061 0.018-0.118 0.043-0.173 0.068-0.278 0.059-0.54 0.206-0.738 0.438l-2.68 3.033c-0.478 0.561-0.41 1.405 0.151 1.883s1.405 0.411 1.883-0.151l2.425-2.743 3.273-0.999-2.184 6.383c-0.205 0.599-0.050 1.234 0.348 1.67l-3.767 10.345c-0.362 0.923 0.094 1.965 1.017 2.327 0.923 0.363 1.965-0.093 2.327-1.015l3.47-9.531 2.553 2.18 0.076 6.794c0.005 0.991 0.816 1.79 1.807 1.784 0.993-0.006 1.792-0.816 1.784-1.807l-0.078-7.193c-0.001-0.111-0.013-0.218-0.032-0.323 0.033-0.55-0.183-1.106-0.637-1.487l-2.723-2.325 1.728-5.051 1.269 2.806c0.117 0.258 0.305 0.46 0.531 0.595 0.078 0.050 0.163 0.094 0.253 0.128l3.761 1.497c0.689 0.261 1.46-0.087 1.72-0.779 0.262-0.689-0.087-1.459-0.777-1.72zM32 26.030c-0.001 0.024-0.003-0.008-0.011-0.008 0.007 0 0.009 0.017 0.011 0.042 0.001 0.006 0-0.020 0-0.012 0 0.006 0-0.029 0-0.022zM31.798 25.784l-2.305-1.919c-0.3-0.227-0.494-0.039-0.494 0.259v0.876h-5.5c-0.215 0-0.5 0.308-0.5 0.523v1.436c0 0.214 0.285 0.542 0.5 0.542h5.5v0.56c0 0.298 0.193 0.491 0.494 0.263l2.348-1.992c0.096-0.065 0.114-0.308 0.142-0.308-0.027 0-0.088-0.174-0.185-0.239zM23.396 20.846l2.458 1.962c0.3 0.227 0.645 0.082 0.645-0.216v-0.591h4.902c0.215 0 0.598-0.297 0.598-0.511v-1.404c0-0.215-0.384-0.585-0.598-0.585h-4.902v-0.845c0-0.299-0.345-0.491-0.645-0.264l-2.425 1.908c-0.098 0.064-0.191 0.223-0.218 0.223 0.028 0.5 0.088 0.259 0.186 0.323zM23.195 20.6c0.001-0.024 0.003-0.078 0.010-0.078-0.007 0-0.009 0.046-0.010 0.021-0.001-0.006 0 0.083 0 0.077s-0.001-0.015 0-0.021z"></path>
</svg>
