<!-- Generated by IcoMoon.io -->
<svg version="1.1" xmlns="http://www.w3.org/2000/svg" width="32" height="32" viewBox="0 0 32 32">
<title>trash</title>
<path d="M29 6.5c0-1 0-1.5-1.5-1.5h-4l-1-3.5c-0.5-1-0.673-1-1.5-1h-9.5c-0.827 0-1 0-1.5 1l-1 3.5h-4c-1.5 0-1.5 0.5-1.5 1.5 0 0.814 0.337 0.963 1.001 0.991 0 0.003-0.001 0.005-0.001 0.009l1 21c0 1.105 0.896 3 2 3h17.5c1.105 0 2-0.895 2-2l1-22c0-0.003-0.001-0.005-0.001-0.009 0.663-0.027 1.001-0.176 1.001-0.991zM12 3c0-0.276 0.223-0.5 0.5-0.5h7.5c0.276 0 0.5 0.224 0.5 0.5l0.5 2h-9.5l0.5-2zM12.5 28c0 0.276-0.223 0.5-0.5 0.5h-1.5c-0.277 0-0.5-0.224-0.5-0.5v-18.5c0-0.277 0.223-0.5 0.5-0.5h1.5c0.277 0 0.5 0.223 0.5 0.5v18.5zM17.5 28c0 0.276-0.224 0.5-0.5 0.5h-1.5c-0.277 0-0.5-0.224-0.5-0.5v-18.5c0-0.277 0.223-0.5 0.5-0.5h1.5c0.276 0 0.5 0.223 0.5 0.5v18.5zM22.5 28c0 0.276-0.224 0.5-0.5 0.5h-1.5c-0.276 0-0.5-0.224-0.5-0.5v-18.5c0-0.277 0.224-0.5 0.5-0.5h1.5c0.276 0 0.5 0.223 0.5 0.5v18.5z"></path>
</svg>
