<!-- Generated by IcoMoon.io -->
<svg version="1.1" xmlns="http://www.w3.org/2000/svg" width="32" height="32" viewBox="0 0 32 32">
<title>tread-mill</title>
<path d="M8 31h-5c-0.276 0-0.5 0.224-0.5 0.5s0.224 0.5 0.5 0.5h5c0.277 0 0.5-0.224 0.5-0.5s-0.223-0.5-0.5-0.5zM29 31h-5c-0.276 0-0.5 0.224-0.5 0.5s0.224 0.5 0.5 0.5h5c0.276 0 0.5-0.224 0.5-0.5s-0.224-0.5-0.5-0.5zM29.25 25c-0.084 0-0.168 0.005-0.25 0.012v-0.012h-25.090l1.465-16.557c0-0.007 0-0.012 0.001-0.020l4.585-0.55c0.623-0.102 1.127-0.373 1.026-0.996s-0.609-0.73-1.232-0.628l-5.164-0.032c-0.063 0.011-0.122 0.029-0.18 0.048l-2.711-5.518c-0.321-0.543-0.756-0.915-1.3-0.595-0.544 0.322-0.46 0.833-0.138 1.376l2.568 6.688c0.011 0.020 0.027 0.036 0.039 0.054l-2.706 18.557c-0.102 0.288-0.162 0.598-0.162 0.922 0 0.047 0.005 0.093 0.007 0.139l-0.007 0.049c-0.042 0.471 0.14 0.942 0.447 1.313 0.448 0.686 1.192 1.16 2.053 1.238v0.012l26.5-0.012c0.082 0.008 0.166 0.012 0.25 0.012 1.519 0 2.75-1.232 2.75-2.75s-1.231-2.75-2.75-2.75zM2.75 29.099c-0.745 0-1.349-0.604-1.349-1.349s0.604-1.35 1.349-1.35 1.35 0.605 1.35 1.35-0.604 1.349-1.35 1.349zM29.25 29.099c-0.745 0-1.349-0.604-1.349-1.349s0.604-1.35 1.349-1.35 1.35 0.605 1.35 1.35-0.605 1.349-1.35 1.349z"></path>
</svg>
