<!-- Generated by IcoMoon.io -->
<svg version="1.1" xmlns="http://www.w3.org/2000/svg" width="32" height="32" viewBox="0 0 32 32">
<title>tree</title>
<path d="M27.259 24.27l-7.277-7.27h4.912c1.537 0 1.001-1.794 0.401-2.395l-6.482-6.606h3.705c1.125 0 0.732-1.247 0.293-1.685l-5.964-6c-0.439-0.44-1.151-0.437-1.591 0.002l-5.963 5.997c-0.438 0.439-0.831 1.687 0.293 1.687h3.733l-6.512 6.582c-0.6 0.601-1.136 2.418 0.401 2.418h4.92l-7.29 7.259c-0.728 0.729-1.379 2.741 0.486 2.741h8.176v3.948c0 0.552 0.439 1.052 1.041 1.052h3.042c0.602 0 0.916-0.5 0.916-1.052v-3.948h8.273c1.864 0 1.213-2.002 0.486-2.73z"></path>
</svg>
