<!-- Generated by IcoMoon.io -->
<svg version="1.1" xmlns="http://www.w3.org/2000/svg" width="32" height="32" viewBox="0 0 32 32">
<title>triangle</title>
<path d="M31.037 23.526h-0.020v-17.283c0-0.464-0.381-0.843-0.845-0.843s-0.843 0.38-0.843 0.843v17.282h-0.020c-0.529 0-0.963 0.433-0.963 0.962v6.171c0 0.529 0.433 0.962 0.963 0.962h1.727c0.53 0 0.963-0.433 0.963-0.962v-6.171c0-0.529-0.433-0.962-0.963-0.962zM24.159 29.061h-20.672l9.659-16.871 7.825 13.669c0.229 0.398 0.652 0.643 1.111 0.643 0.985 0 1.6-1.061 1.111-1.916l-8.925-15.586c-0.085-0.15-0.199-0.281-0.332-0.389v-2.908c1.116-0.339 1.931-1.376 1.931-2.603 0-1.502-1.219-2.72-2.721-2.72s-2.722 1.218-2.722 2.72c0 1.228 0.815 2.264 1.931 2.603v2.909c-0.127 0.1-0.236 0.223-0.319 0.367l-11.867 20.726c-0.31 0.544-0.193 1.259 0.354 1.671 0.223 0.168 0.503 0.244 0.781 0.244h22.829c0.28 0 0.559-0.076 0.782-0.244 0.546-0.413 0.665-1.128 0.354-1.672-0.227-0.398-0.651-0.644-1.11-0.644z"></path>
</svg>
