<!-- Generated by IcoMoon.io -->
<svg version="1.1" xmlns="http://www.w3.org/2000/svg" width="32" height="32" viewBox="0 0 32 32">
<title>trip-report</title>
<path d="M27 7.5h-4.5v-4c0-1.104-0.895-2-2-2h-9c-1.104 0-2 0.896-2 2v4h-4.5c-2.761 0-5 2.239-5 5v13c0 2.761 2.239 5 5 5h22c2.761 0 5-2.239 5-5v-13c0-2.761-2.239-5-5-5zM22.533 14.739l-6.033 3.128v-6.885c2.5 0.159 4.815 1.631 6.033 3.757zM11.5 4.899c0-0.773 0.627-1.399 1.4-1.399h6.2c0.773 0 1.4 0.627 1.4 1.399v2.601h-9v-2.601zM15.322 27.015c-4.136 0-7.607-3.353-7.607-7.489 0-3.978 3.285-7.231 6.785-7.473v7.473c0 0.015 0.237 0.467 0.325 0.57l4.811 5.509c-1.23 0.886-2.681 1.41-4.314 1.41zM21.608 25.011l-4.421-5.125 6.239-3.236c0.369 0.886 0.573 1.858 0.573 2.877 0 2.167-0.921 4.117-2.392 5.485z"></path>
</svg>
