<!-- Generated by IcoMoon.io -->
<svg version="1.1" xmlns="http://www.w3.org/2000/svg" width="32" height="32" viewBox="0 0 32 32">
<title>trousers</title>
<path d="M10.16 3.95v-0.44h-2.178v2.656c1.205-0.023 2.178-1.006 2.178-2.216zM21.95 2.505h2.069v-1.347c0-0.638-0.52-1.158-1.158-1.158h-13.721c-0.639 0-1.158 0.519-1.158 1.158v1.346h13.968zM24.018 7.795v-0.588c-1.73-0.080-3.113-1.508-3.113-3.256v-0.44h-4.373v5.096c0 0.294-0.239 0.533-0.533 0.533s-0.533-0.239-0.533-0.533v-5.096h-4.262v0.44c0 1.786-1.442 3.24-3.223 3.261v0.583c0 0.006-0.004 0.012-0.004 0.019s0.004 0.013 0.004 0.019v23.010c0 0.639 0.519 1.158 1.158 1.158h4.559c0.605 0 1.113-0.473 1.156-1.075l1.145-19.348 1.145 19.348c0.044 0.604 0.551 1.076 1.156 1.076h4.559c0.639 0 1.158-0.52 1.158-1.158v-23.010c0-0.006 0.004-0.011 0.004-0.019s-0.004-0.013-0.004-0.019zM21.95 3.95c0 1.173 0.916 2.125 2.069 2.204v-2.644h-2.069v0.44z"></path>
</svg>
