<!-- Generated by IcoMoon.io -->
<svg version="1.1" xmlns="http://www.w3.org/2000/svg" width="32" height="32" viewBox="0 0 32 32">
<title>trowel</title>
<path d="M31.296 0.588c-0.788-0.788-8.687-1.179-11.271 1.463-0.135 0.138-7.216 7.313-7.216 7.313-1.755 1.796-1.15 2.555 0.894 4.564l0.446 0.441-1.656 2.94-1.133-1.134c-0.457-0.457-1.198-0.457-1.656 0s-0.458 1.198 0 1.656l0.364 0.364-9.274 9.273c-0.877 0.878-1.159 2.551 0 3.71s2.897 0.944 3.776 0.066l9.274-9.273 0.364 0.364c0.457 0.457 1.198 0.457 1.656 0s0.457-1.198 0-1.657l-1.133-1.134 2.969-1.674 0.559 0.552c2.044 2.010 2.801 2.555 4.555 0.761l7.124-7.229c0.030-0.030 0.064-0.054 0.092-0.085 2.584-2.642 2.194-10.356 1.268-11.283zM3.177 30.515c-0.285 0.286-0.749 0.286-1.035 0l-0.621-0.62c-0.286-0.286-0.286-0.749 0-1.035 0.285-0.285 0.749-0.285 1.034 0l0.621 0.621c0.286 0.285 0.286 0.749 0 1.035z"></path>
</svg>
