<!-- Generated by IcoMoon.io -->
<svg version="1.1" xmlns="http://www.w3.org/2000/svg" width="32" height="32" viewBox="0 0 32 32">
<title>truck</title>
<path d="M29.95 3.5h-17.8c-0.7 0-1.3 0.55-1.3 1.3v3.35h-2.65c-1.35-0.050-2.1 0.85-2.1 0.85l-3.25 3.25c-0.65 0.65-0.85 1.4-0.85 1.4-0.050 0.15-0.1 0.35-0.1 0.5v7.4c0 0.050 0 0.1 0 0.15h-0.1c-0.55 0-1.050 0.45-1.050 1.050v0.1c0 0.55 0.45 1.050 1.050 1.050h2.35c0 2.5 2.050 4.55 4.55 4.55s4.55-2.050 4.55-4.55c0-0.050 0-0.1 0-0.1h6.6c0 0.050 0 0.1 0 0.1 0 2.5 2.050 4.55 4.55 4.55s4.55-2.050 4.55-4.55c0-0.050 0-0.1 0-0.1h0.95c0.7 0 1.3-0.55 1.3-1.3v-17.7c0.050-0.7-0.55-1.3-1.25-1.3zM4.2 14.95v-0.8l3.7-3.75h3v4.6h-6.7zM8.7 26.25c-1.3 0-2.35-1.050-2.35-2.35s1.050-2.35 2.35-2.35 2.35 1.050 2.35 2.35c0 1.3-1.050 2.35-2.35 2.35zM24.45 26.25c-1.050 0-1.95-0.7-2.25-1.65-0.050-0.2-0.1-0.45-0.1-0.7 0-0.050 0-0.1 0-0.1v0c0.050-1.25 1.1-2.2 2.35-2.2s2.25 1 2.35 2.2v0c0 0.050 0 0.1 0 0.1 0 0.4-0.1 0.8-0.3 1.1-0.4 0.8-1.2 1.25-2.050 1.25z"></path>
</svg>
