<!-- Generated by IcoMoon.io -->
<svg version="1.1" xmlns="http://www.w3.org/2000/svg" width="32" height="32" viewBox="0 0 32 32">
<title>trumpet</title>
<path d="M32 10.161c0-0.007 0-0.012 0-0.020v-2.614c0-0.523-0.424-0.946-0.947-0.946s-0.947 0.423-0.945 0.946v0.019c-2.257 3.825-7.21 5.019-9.073 5.34h-0.151v-1.338c0-0.049-0.010-0.095-0.014-0.143 0.355-0.168 0.602-0.527 0.602-0.947 0-0.582-0.471-1.052-1.052-1.052l-2.216 0.001c-0.581 0-1.052 0.47-1.052 1.052 0 0.419 0.247 0.778 0.602 0.947-0.005 0.048-0.015 0.094-0.015 0.143v1.338h-1.52v-1.338c0-0.049-0.010-0.095-0.015-0.143 0.355-0.168 0.603-0.527 0.603-0.947 0-0.582-0.471-1.052-1.052-1.052l-2.216 0.001c-0.581 0-1.052 0.47-1.052 1.052 0 0.419 0.247 0.778 0.602 0.947-0.005 0.048-0.014 0.094-0.014 0.143v1.338h-1.52v-1.338c0-0.049-0.010-0.095-0.014-0.143 0.355-0.168 0.602-0.527 0.602-0.947 0-0.582-0.47-1.052-1.052-1.052l-2.216 0.001c-0.581 0-1.052 0.47-1.052 1.052 0 0.419 0.246 0.778 0.601 0.947-0.004 0.048-0.014 0.094-0.014 0.143v1.338h-6.41c-0.165-0.363-0.53-0.614-0.954-0.614-0.581 0-1.052 0.47-1.052 1.052v2.216c-0.001 0.581 0.47 1.052 1.052 1.052 0.424 0 0.787-0.253 0.954-0.614h2.851c-0.505 0.779-0.802 1.705-0.802 2.701 0 2.538 1.907 4.636 4.361 4.942v0.224c-0.001 0.869 0.703 1.573 1.572 1.573s1.572-0.704 1.572-1.573v-0.181h1.52v0.181c-0.001 0.869 0.703 1.573 1.572 1.573s1.573-0.704 1.573-1.573v-0.181h1.518v0.181c-0 0.869 0.703 1.573 1.573 1.573 0.868 0 1.573-0.704 1.573-1.573v-0.224c2.454-0.309 4.361-2.405 4.361-4.942 0-0.947-0.27-1.829-0.73-2.584 2.073 0.704 4.341 1.869 5.59 3.945v0.004c-0 0.523 0.423 0.946 0.945 0.946s0.945-0.425 0.945-0.948v-2.628c0-0.002 0-0.003 0-0.006v-7.248zM7.169 18.678c0-0.811 0.522-1.497 1.247-1.756v3.512c-0.724-0.258-1.247-0.944-1.247-1.756zM11.559 20.55v-3.743h1.52v3.743h-1.52zM16.223 20.55l-0-3.744h1.52v3.744h-1.519zM20.887 20.434l-0-3.513c0.724 0.259 1.247 0.945 1.247 1.758 0 0.811-0.521 1.497-1.247 1.755z"></path>
</svg>
