<!-- Generated by IcoMoon.io -->
<svg version="1.1" xmlns="http://www.w3.org/2000/svg" width="32" height="32" viewBox="0 0 32 32">
<title>trunk-open</title>
<path d="M29.95 13.5h-1.9l3.4-2.85c0.55-0.45 0.6-1.2 0.1-1.75v0c-1-0.55-1.25-0.6-1.8-0.15l-3.65 3.1-2.75-3.6c-0.3-0.5-1.1-0.75-1.65-0.75h-8c-0.75 0-1.45 0.4-1.75 0.75l-4.35 5.35c-1.65 0-6.55-0.1-7.050 4v2.8c-0.050 1 1.2 1.6 2.1 1.6h2.35c0.25 2 1.55 2.85 3.1 2.85 1.6 0 2.9-0.85 3.1-2.85h8.85c0.25 2 1.55 2.85 3.1 2.85 1.6 0 2.9-0.85 3.1-2.85h3.5c0.9 0 1.65-0.6 1.65-1.55v-5.1c0.1-1.2-0.55-1.85-1.45-1.85zM17 12.5c0 0.35-0.15 0.6-0.45 0.6 0 0-4.3 0-5.15 0-0.15 0-0.2 0-0.2 0-0.65-0.2-0.1-0.95-0.1-0.95l1.85-2.6c0.050-0.25 0.55-0.55 0.85-0.55h2.7c0.3 0 0.45 0.3 0.45 0.65v2.85zM24.1 13.050c-0.15 0.1-4.55 0.050-4.55 0.050-0.3 0-0.55-0.3-0.55-0.6v-2.75c0-0.4 0.050-0.7 0.5-0.7h1.95c0.35 0 0.55 0.2 0.75 0.5l1.7 2.4c0-0.050 0.75 0.75 0.2 1.1z"></path>
</svg>
