<!-- Generated by IcoMoon.io -->
<svg version="1.1" xmlns="http://www.w3.org/2000/svg" width="32" height="32" viewBox="0 0 32 32">
<title>tuning-fork</title>
<path d="M31.486 7.090c-0.686-0.685-1.796-0.685-2.48 0l-10.718 10.716c-0.546 0.547-1.271 0.849-2.044 0.849-0.001 0-0.002 0-0.003 0-0.774 0-1.502-0.302-2.050-0.849-1.129-1.13-1.127-2.969 0.003-4.098l10.715-10.716c0.685-0.684 0.685-1.796 0-2.481s-1.797-0.685-2.48 0l-10.714 10.715c-2.068 2.067-2.42 5.205-1.066 7.642l-5.595 5.595c-1.337-0.432-2.861-0.122-3.923 0.94-1.508 1.509-1.508 3.954 0 5.463s3.954 1.509 5.463 0c1.061-1.061 1.372-2.587 0.941-3.922l5.591-5.591c0.943 0.526 2.006 0.811 3.115 0.811 0.003 0 0.005 0 0.006 0 1.71-0.002 3.318-0.669 4.524-1.88l10.715-10.715c0.685-0.684 0.685-1.796 0-2.48z"></path>
</svg>
