<!-- Generated by IcoMoon.io -->
<svg version="1.1" xmlns="http://www.w3.org/2000/svg" width="32" height="32" viewBox="0 0 32 32">
<title>turkey</title>
<path d="M6.65 8.35c-0.8 0-1.65 0-2.45 0-2.95-2.55 2.95-5.1 0-7.6 0.8 0 1.65 0 2.45 0 2.9 2.55-2.95 5.1 0 7.6zM12.15 6.65c-0.8 0-1.65 0-2.45 0-1.95-1.85 1.95-3.75 0-5.6 0.8 0 1.65 0 2.45 0 1.95 1.85-1.95 3.75 0 5.6zM0.25 24.7c-0.050 0.25-0.1 0.55-0.1 0.8 0 1.6 1.55 3.5 2.9 3.5h24.1c1.35 0 2.9-1.85 2.9-3.5 0-0.3-0.050-0.55-0.1-0.8h-29.7zM17.35 11.35c0 0 0.4 0 1.1 0.050l0.4-2c0.050-0.3 0.2-0.55 0.45-0.75l1.35-1.2c0.5 0.45 1.25 0.45 1.75-0.050 0.45-0.45 0.5-1.2 0.1-1.7-0.25-0.3-0.6-0.5-1-0.5 0.050-0.35-0.1-0.75-0.4-1.050-0.45-0.45-1.2-0.45-1.7-0.1-0.55 0.45-0.65 1.2-0.25 1.75l-1.35 1.2c-0.2 0.2-0.5 0.3-0.8 0.35l-3.8 0.35c-1.2 0-2.4 0.45-3.3 1.4-1.050 1.050-1.5 2.5-1.35 3.9 1.45-0.5 4.65-1.55 8.8-1.65zM27.25 19.35c-0.9 0.45-1.85 0.7-2.9 0.7-1.7 0-3.25-0.65-4.4-1.9-1.45-1.5-1.95-3.55-1.6-5.45-0.7-0.050-1.15-0.050-1.15-0.050-5.65 0.1-9.55 2-9.55 2v0c-3.3 1.4-5.7 5-5.7 8.7h26.3c-0.3-1.75-0.65-3.050-1-4zM7.85 17.85c-0.95 0.45-1.65 1.2-2.1 2.15-0.15 0.3-0.45 0.45-0.8 0.3s-0.5-0.55-0.35-0.95c0.5-1.15 1.4-2.1 2.55-2.65 0.35-0.2 0.8 0 0.95 0.3 0.15 0.35 0.050 0.7-0.25 0.85zM31.55 5.9c-0.3-0.25-0.7-0.35-1.050-0.25-0.050-0.35-0.25-0.7-0.55-0.9-0.5-0.3-1.2-0.2-1.6 0.25-0.4 0.5-0.35 1.25 0.1 1.7l-1 1.4c-0.15 0.25-0.4 0.4-0.7 0.5l-3.5 1.1c-1.1 0.25-2.15 0.95-2.8 2-1.25 1.9-0.85 4.5 0.9 6 2.050 1.7 5.1 1.35 6.65-0.8 0.55-0.75 0.85-2.45 0.85-2.45l-0.050-4.25c0-0.3 0.1-0.55 0.25-0.8l1-1.4c0.55 0.3 1.3 0.15 1.65-0.4 0.45-0.6 0.35-1.3-0.15-1.7zM23.15 12.95c-0.25 0.25-0.35 0.55-0.4 0.9-0.050 0.3-0.3 0.6-0.7 0.6s-0.8-0.45-0.75-1c0.1-0.5 0.3-0.95 0.65-1.35s0.95-0.35 1.2-0.050c0.25 0.3 0.2 0.65 0 0.9z"></path>
</svg>
