<!-- Generated by IcoMoon.io -->
<svg version="1.1" xmlns="http://www.w3.org/2000/svg" width="32" height="32" viewBox="0 0 32 32">
<title>turn-signal</title>
<path d="M31.6 15.050l-6.25-6.25c0 0-0.4-0.35-0.8-0.3v0c-0.7 0-1.3 0.6-1.3 1.3v2.65h-5.35c-0.35 0-0.7 0.3-0.7 0.7v5.6c0 0.35 0.3 0.7 0.7 0.7h5.3v2.8c0 0.7 0.6 1.3 1.3 1.3 0 0 0.6 0 1.050-0.55l6-6c0.6-0.6 0.6-1.45 0.050-1.95zM14.1 12.4h-5.35v-2.65c0-0.7-0.6-1.3-1.3-1.3v0c-0.45-0.050-0.8 0.3-0.8 0.3l-6.25 6.3c-0.5 0.5-0.5 1.4 0 1.9l6 6c0.5 0.55 1.1 0.55 1.1 0.55 0.7 0 1.3-0.6 1.3-1.3v-2.8h5.3c0.35 0 0.7-0.3 0.7-0.7v-5.6c-0.050-0.35-0.35-0.7-0.7-0.7z"></path>
</svg>
