<!-- Generated by IcoMoon.io -->
<svg version="1.1" xmlns="http://www.w3.org/2000/svg" width="32" height="32" viewBox="0 0 32 32">
<title>tv-station</title>
<path d="M30.36 30h-0.36v-15.168c0-0.884-0.848-1.832-1.733-1.832h-2.941l-0.91-3.744c1.464-2.008 1.136-4.758-0.764-6.375l-2.25 2.834c-0.462-0.219-1.030-0.086-1.361 0.333-0.328 0.413-0.315 0.992-0.005 1.391l-2.343 2.925c1.369 1.036 3.128 1.107 4.628 0.514l-0.527 2.121h-17.939c-0.885 0-1.854 0.948-1.854 1.832v15.168h-0.49c-0.353 0-0.51 0.433-0.51 0.788v1.212h30v-1.212c0-0.354-0.287-0.788-0.64-0.788zM8.5 24.996c0 0.279-0.226 0.504-0.504 0.504h-1.992c-0.279 0-0.504-0.226-0.504-0.504v-1.992c0-0.279 0.226-0.504 0.504-0.504h1.992c0.279 0 0.504 0.226 0.504 0.504v1.992zM8.5 19.496c0 0.279-0.226 0.504-0.504 0.504h-1.992c-0.279 0-0.504-0.226-0.504-0.504v-1.992c0-0.279 0.226-0.504 0.504-0.504h1.992c0.279 0 0.504 0.226 0.504 0.504v1.992zM13.5 24.996c0 0.279-0.226 0.504-0.504 0.504h-1.992c-0.278 0-0.504-0.226-0.504-0.504v-1.992c0-0.279 0.226-0.504 0.504-0.504h1.992c0.278 0 0.504 0.226 0.504 0.504v1.992zM13.5 19.496c0 0.279-0.226 0.504-0.504 0.504h-1.992c-0.278 0-0.504-0.226-0.504-0.504v-1.992c0-0.279 0.226-0.504 0.504-0.504h1.992c0.278 0 0.504 0.226 0.504 0.504v1.992zM18 24.996c0 0.279-0.226 0.504-0.504 0.504h-1.992c-0.278 0-0.504-0.226-0.504-0.504v-1.992c0-0.279 0.226-0.504 0.504-0.504h1.992c0.279 0 0.504 0.226 0.504 0.504v1.992zM18 19.496c0 0.279-0.226 0.504-0.504 0.504h-1.992c-0.278 0-0.504-0.226-0.504-0.504v-1.992c0-0.279 0.226-0.504 0.504-0.504h1.992c0.279 0 0.504 0.226 0.504 0.504v1.992zM22.5 24.996c0 0.279-0.226 0.504-0.503 0.504h-1.993c-0.278 0-0.503-0.226-0.503-0.504v-1.992c0-0.279 0.226-0.504 0.503-0.504h1.993c0.278 0 0.503 0.226 0.503 0.504v1.992zM22.5 19.496c0 0.279-0.226 0.504-0.503 0.504h-1.993c-0.278 0-0.503-0.226-0.503-0.504v-1.992c0-0.279 0.226-0.504 0.503-0.504h1.993c0.278 0 0.503 0.226 0.503 0.504v1.992zM27 24.996c0 0.279-0.226 0.504-0.504 0.504h-1.992c-0.279 0-0.504-0.226-0.504-0.504v-1.992c0-0.279 0.226-0.504 0.504-0.504h1.992c0.279 0 0.504 0.226 0.504 0.504v1.992zM27 19.496c0 0.279-0.226 0.504-0.504 0.504h-1.992c-0.279 0-0.504-0.226-0.504-0.504v-1.992c0-0.279 0.226-0.504 0.504-0.504h1.992c0.279 0 0.504 0.226 0.504 0.504v1.992zM17.948 4.41c-0.648 0.821-0.904 1.827-0.794 2.793l1.236 0.263c-0.212-0.782-0.065-1.65 0.474-2.333s1.35-1.027 2.159-1.001l-0.543-1.143c-0.965 0.118-1.884 0.599-2.533 1.42zM16.631 3.369c0.811-1.026 1.916-1.685 3.104-1.95l-0.512-1.076c-1.342 0.357-2.584 1.131-3.509 2.303s-1.391 2.559-1.427 3.947l1.165 0.248c-0.017-1.216 0.367-2.444 1.179-3.471z"></path>
</svg>
