<!-- Generated by IcoMoon.io -->
<svg version="1.1" xmlns="http://www.w3.org/2000/svg" width="32" height="32" viewBox="0 0 32 32">
<title>ugg-boots</title>
<path d="M11.539 17.199c-0.086 0.741-0.293 1.295-0.594 1.719 1.488 0.648 3.959 1.478 7.037 1.576 0.316-4.558-0.677-15.2-0.689-15.316-0.083-0.907 0.553-1.754 1.448-1.928l0.108-0.022h5.564c0.044-0.945 0.071-1.744 0.071-2.127 0-0.846-0.806-0.808-0.806-0.808h-12.236c-0.322 0.063-0.56 0.381-0.531 0.707 0 0 1.125 11.934 0.629 16.199zM9.473 24.556c1.688-0.765 3.344-0.973 4.804-1.157 2.113-0.266 3.087-0.451 3.474-1.491-3.783-0.155-6.66-1.301-8.101-2.012-1.78 0.719-4.543 0.41-7.225 1.625-3.256 1.475-2.292 5.21-2.292 5.21 0.839 0.631 3.76 0.871 6.546 0.899 0.396-1.198 1.223-2.363 2.793-3.074zM18.448 23.012c1.055 0.515 3.335 1.393 6.782 1.544v-20.188h-6.271c-0.322 0.063-0.561 0.38-0.532 0.707 0 0 1.125 11.934 0.628 16.199-0.087 0.753-0.299 1.313-0.608 1.738zM32 5.176c0-0.846-0.806-0.809-0.806-0.809h-4.54v23.712c0 0.393-0.319 0.712-0.712 0.712s-0.712-0.319-0.712-0.712v-2.099c-4.572-0.186-7.263-1.564-8.035-2.021-1.78 0.733-4.556 0.414-7.25 1.636-3.256 1.475-2.293 5.21-2.293 5.21 1.587 1.191 10.613 0.992 12.1 0.595 1.488-0.396 3.757-0.128 3.757-0.128 0.32 0.070 0.849 0.128 1.177 0.128h5.95c0.326 0 0.622-0.267 0.654-0.593 0 0 0.305-4.108-0.258-6.956-0.354-1.788 0.11-7.103 0.607-12.153 0.194-1.97 0.362-5.561 0.362-6.521z"></path>
</svg>
