<!-- Generated by IcoMoon.io -->
<svg version="1.1" xmlns="http://www.w3.org/2000/svg" width="32" height="32" viewBox="0 0 32 32">
<title>ukelele</title>
<path d="M31.806 3.039l-2.846-2.846c-0.258-0.258-0.677-0.258-0.933 0l-0.546 0.656-0.242-0.243c-0.241-0.24-0.63-0.24-0.869 0-0.241 0.24-0.241 0.629 0 0.869l0.323 0.323-0.322 0.385-0.355-0.355c-0.241-0.24-0.63-0.24-0.87 0-0.239 0.24-0.239 0.629 0 0.869l0.436 0.435-0.815 0.98c-0.258 0.257-0.259 0.673-0.003 0.931l-8.998 8.297c-1.958-0.917-4.244-0.664-5.725 0.822-0.383 0.383-0.693 0.822-0.919 1.317-0.111 0.24-0.236 0.532-0.361 0.864-0.115 0.305-0.512 0.573-0.854 0.578-0.351 0.009-0.679 0.005-0.971 0-1.927-0.047-3.7 0.642-4.994 1.94-2.787 2.787-2.542 7.568 0.545 10.655 3.085 3.086 7.869 3.331 10.655 0.545 1.293-1.294 1.986-3.067 1.94-4.995-0.005-0.291-0.009-0.619-0.005-0.975 0.004-0.337 0.277-0.739 0.582-0.855 0.332-0.125 0.624-0.245 0.865-0.357 0.495-0.226 0.939-0.535 1.317-0.919 1.48-1.481 1.733-3.768 0.82-5.725l8.299-9c0.258 0.255 0.674 0.255 0.929-0.002l0.98-0.816 0.436 0.436c0.239 0.24 0.628 0.24 0.869 0 0.239-0.24 0.24-0.63 0-0.87l-0.356-0.356 0.386-0.321 0.323 0.323c0.239 0.24 0.628 0.24 0.869 0 0.239-0.24 0.239-0.629 0-0.869l-0.244-0.244 0.656-0.546c0.258-0.259 0.258-0.677 0-0.935zM10.066 26.939c-0.321 0.322-0.841 0.323-1.163 0l-3.844-3.843c-0.321-0.321-0.321-0.841 0-1.163s0.841-0.322 1.163 0l3.843 3.843c0.322 0.321 0.322 0.842 0.001 1.163zM15.502 20.191c-1.018 1.019-2.675 1.018-3.692 0-1.024-1.018-1.024-2.674-0.001-3.697 1.018-1.019 2.675-1.019 3.692 0 1.023 1.023 1.023 2.68 0 3.697z"></path>
</svg>
