<!-- Generated by IcoMoon.io -->
<svg version="1.1" xmlns="http://www.w3.org/2000/svg" width="32" height="32" viewBox="0 0 32 32">
<title>Ukraine-HRYVNIA</title>
<path d="M21.287 15.114h6.005v-3.495h-3.243c1.761-3.287 1.709-7.598-3.617-9.887-5.834-2.509-12.621 0-12.621 0l1.361 5.080c0.891-0.838 5.447-1.362 8.379-0.681 2.721 0.632 3.092 2.797 0.039 5.489h-12.88v3.495h8.663c-1.127 1.023-2.159 2.076-3.024 3.149h-5.639v3.494h3.529c-0.038 0.098-0.081 0.195-0.115 0.293-1.204 3.456 0.89 9.113 8.222 9.322 6.13 0.175 10.946-1.466 10.946-1.466l-1.519-4.976c0 0-4.889 2.245-9.376 1.309-4.060-0.846-3.438-2.936-2.328-4.482h13.223v-3.494h-9.508c1.123-0.942 2.369-2.012 3.503-3.149z"></path>
</svg>
