<!-- Generated by IcoMoon.io -->
<svg version="1.1" xmlns="http://www.w3.org/2000/svg" width="32" height="32" viewBox="0 0 32 32">
<title>umbrella</title>
<path d="M16.5 3.073v-1.573c0-0.276-0.224-0.5-0.5-0.5s-0.5 0.224-0.5 0.5v1.583c-8.074 0.308-14.5 5.574-14.5 12.024 0 0.271 0.016 0.54 0.038 0.807 0.25-1.21 1.848-2.145 3.787-2.145 2.112 0 3.825 1.108 3.825 2.475 0-1.367 1.713-2.475 3.825-2.475 1.232 0 2.326 0.379 3.025 0.964v10.904c-0.297 0.174-0.5 0.492-0.5 0.861v2c0 1.834 1.495 2.5 2.5 2.5 1.834 0 2.5-1.495 2.5-2.5 0-0.552-0.448-1-1-1s-1 0.448-1 1c0 0.5-0.376 0.5-0.5 0.5-0.5 0-0.5-0.376-0.5-0.5v-2c0-0.369-0.203-0.688-0.5-0.861v-10.181c0.509-0.981 1.938-1.688 3.625-1.688 2.113 0 3.825 1.108 3.825 2.475 0-1.367 1.712-2.475 3.825-2.475 1.794 0 3.296 0.8 3.709 1.879 0.011-0.18 0.018-0.36 0.018-0.541 0-6.583-6.694-11.929-15-12.034z"></path>
</svg>
