<!-- Generated by IcoMoon.io -->
<svg version="1.1" xmlns="http://www.w3.org/2000/svg" width="32" height="32" viewBox="0 0 32 32">
<title>Unhealthy-medical-condition</title>
<path d="M27.979 22.7c0.649-3.486 4.106-5.477 4.020-11.162-0.186-12.178-16.962-14.764-22.215-6.533-1.995 3.125-1.163 5.83-1.227 6.992-0.093 1.691-1.223 3.189-1.827 4.248-1.357 2.381 1.625 1.744 1.305 2.345-0.921 1.73 0.467 1.311 0.467 1.311s1.573-0.382 2.146 0.34c0.492 0.62 0.544 2.275-1.014 2.529-0.231 0.038-0.72 0.091-0.743 0.206-0.86 4.123 2.080 3.274 5.513 2.755 1.818-0.276 1.946 3.875 2.077 6.029h12.482c-1.369-3.15-1.494-6.337-0.986-9.063zM7.378 23.24l-0.802 0.54c-0.258 0.174-0.325 0.524-0.151 0.782 0.109 0.16 0.286 0.247 0.467 0.247 0.109 0 0.218-0.032 0.314-0.096l0.802-0.54c0.258-0.174 0.325-0.523 0.15-0.782s-0.524-0.325-0.782-0.151zM5.11 24.773l-0.978 0.662c-0.257 0.174-0.325 0.524-0.15 0.782 0.108 0.16 0.286 0.247 0.467 0.247 0.109 0 0.218-0.032 0.315-0.096l0.978-0.662c0.258-0.174 0.324-0.524 0.151-0.782s-0.524-0.325-0.782-0.151zM2.666 26.428l-0.978 0.662c-0.257 0.174-0.325 0.524-0.151 0.782 0.109 0.16 0.286 0.247 0.466 0.247 0.108 0 0.219-0.032 0.315-0.096l0.978-0.662c0.257-0.174 0.325-0.524 0.151-0.782s-0.524-0.325-0.781-0.151zM2.885 22.784c-0.062-0.305-0.358-0.502-0.663-0.441l-1.103 0.223c-0.304 0.061-0.501 0.358-0.441 0.663 0.054 0.267 0.288 0.451 0.551 0.451 0.037 0 0.074-0.003 0.112-0.011l1.103-0.223c0.304-0.062 0.502-0.359 0.441-0.663zM7.738 21.23l-1.103 0.223c-0.305 0.061-0.502 0.358-0.441 0.663 0.054 0.267 0.289 0.451 0.551 0.451 0.037 0 0.074-0.003 0.112-0.011l1.103-0.223c0.305-0.061 0.502-0.358 0.441-0.663s-0.357-0.501-0.663-0.441zM4.099 23.113l1.103-0.223c0.304-0.062 0.502-0.358 0.441-0.663-0.062-0.305-0.356-0.5-0.663-0.441l-1.103 0.223c-0.304 0.061-0.502 0.358-0.441 0.663 0.054 0.267 0.289 0.451 0.551 0.451 0.037 0 0.075-0.003 0.112-0.011zM5.614 20.43l1.050 0.403c0.066 0.026 0.135 0.038 0.202 0.038 0.226 0 0.439-0.137 0.526-0.361 0.112-0.291-0.034-0.616-0.324-0.727l-1.051-0.403c-0.29-0.112-0.616 0.034-0.727 0.323s0.034 0.616 0.324 0.727zM2.988 19.422l1.051 0.403c0.066 0.026 0.135 0.038 0.201 0.038 0.226 0 0.439-0.137 0.526-0.362 0.111-0.29-0.034-0.616-0.324-0.727l-1.051-0.403c-0.29-0.113-0.615 0.034-0.727 0.324s0.034 0.616 0.324 0.727zM1.613 18.854c0.226 0 0.44-0.137 0.525-0.361 0.111-0.29-0.034-0.616-0.324-0.727l-1.051-0.403c-0.291-0.113-0.616 0.034-0.727 0.323s0.034 0.616 0.324 0.727l1.051 0.403c0.067 0.026 0.134 0.038 0.202 0.038z"></path>
</svg>
