<!-- Generated by IcoMoon.io -->
<svg version="1.1" xmlns="http://www.w3.org/2000/svg" width="32" height="32" viewBox="0 0 32 32">
<title>uniform</title>
<path d="M27.971 4l-7.958-4-4.042 4.5-4.062-4.5-7.927 4-4.005 8.042 5.512 3.958 1.011-0.5v16.5h19v-16.5l0.986 0.5 5.492-3.958-4.008-8.042zM7.5 11.232l4.25-9.232 4.249 4.253 4.501-4.253 4 9.232v12.768h-17v-12.768zM7.5 25.5h17v1h-17v-1zM7.5 31v-3h17v3h-17zM18.948 14.319c0.433-0.58 0.651-1.216 0.651-1.907 0-1.025-0.338-1.866-1.015-2.522s-1.543-0.985-2.597-0.985c-1.043 0-1.902 0.329-2.575 0.989s-1.011 1.495-1.011 2.509c0 0.703 0.217 1.342 0.65 1.916-0.48 0.498-0.819 0.973-1.015 1.424s-0.294 0.979-0.294 1.582c0 1.189 0.406 2.183 1.217 2.98s1.825 1.195 3.044 1.195c1.213 0 2.225-0.398 3.037-1.195s1.218-1.79 1.218-2.98c0-0.621-0.094-1.148-0.282-1.582s-0.53-0.908-1.029-1.424zM15.28 11.771c0.191-0.194 0.418-0.29 0.681-0.29 0.282 0 0.518 0.095 0.712 0.286s0.29 0.427 0.29 0.707c0 0.27-0.095 0.504-0.285 0.703s-0.418 0.299-0.681 0.299c-0.293 0-0.533-0.097-0.72-0.29s-0.281-0.44-0.281-0.739c-0.001-0.258 0.095-0.483 0.286-0.677zM17.024 18.446c-0.276 0.284-0.621 0.427-1.037 0.427s-0.761-0.142-1.037-0.427-0.413-0.64-0.413-1.068c0-0.392 0.142-0.728 0.427-1.006s0.626-0.418 1.024-0.418c0.392 0 0.733 0.14 1.020 0.422s0.43 0.615 0.43 1.002c-0 0.427-0.138 0.784-0.413 1.068z"></path>
</svg>
