<!-- Generated by IcoMoon.io -->
<svg version="1.1" xmlns="http://www.w3.org/2000/svg" width="32" height="32" viewBox="0 0 32 32">
<title>United-heterosexual-symbols</title>
<path d="M19.379 18.994c2.009-1.474 3.319-3.845 3.319-6.527 0-0.127-0.013-0.252-0.020-0.379-0.259-0.053-0.524-0.081-0.795-0.081-0.852 0-1.64 0.274-2.285 0.736-0.075 1.364-0.693 2.582-1.645 3.441-0.301 0.271-0.631 0.509-0.991 0.702-0.704 0.377-1.508 0.591-2.362 0.591-0.23 0-0.454-0.021-0.677-0.051-0.389-0.052-0.765-0.15-1.121-0.288-1.879-0.724-3.213-2.54-3.213-4.673 0-2.768 2.244-5.012 5.011-5.012 0.915 0 1.771 0.25 2.51 0.678 1.027-0.63 2.164-1.047 3.363-1.231-1.475-1.556-3.558-2.532-5.872-2.532-1.694 0-3.266 0.521-4.567 1.41l-2.696-2.696h1.594c0.261-0.003 0.473-0.216 0.473-0.477v-2.126c0-0.263-0.212-0.475-0.473-0.477v-0.005l-6.434 0.005c-0.264 0-0.478 0.214-0.478 0.478 0 0.001 0.001 0.001 0.001 0.002h0.001v6.426c0 0-0.001 0-0.001 0.001 0 0.264 0.215 0.478 0.478 0.478h2.131c0.264 0 0.478-0.214 0.478-0.478v-1.692l2.757 2.756c-0.86 1.285-1.361 2.83-1.361 4.493 0 4.252 3.28 7.732 7.447 8.064 0.216 0.017 0.431 0.033 0.65 0.033 0.207 0 0.411-0.016 0.614-0.032 1.163-0.087 2.26-0.413 3.234-0.94 0.326-0.177 0.633-0.381 0.93-0.599zM27.608 21.677c3.163-3.162 3.163-8.289 0-11.451-0.791-0.791-1.704-1.384-2.678-1.779-0.773-0.313-1.584-0.497-2.404-0.563-0.214-0.017-0.428-0.031-0.643-0.031-0.203 0-0.407 0.014-0.611 0.029-0.572 0.043-1.14 0.14-1.694 0.305-0.53 0.156-1.045 0.373-1.54 0.64-0.322 0.174-0.631 0.377-0.933 0.598-0.329 0.242-0.649 0.502-0.948 0.8-1.678 1.677-2.456 3.906-2.354 6.103 0.258 0.053 0.524 0.081 0.796 0.081 0.852 0 1.64-0.274 2.286-0.736 0.074-1.364 0.694-2.582 1.645-3.441 0.301-0.271 0.631-0.51 0.99-0.703 0.704-0.377 1.508-0.592 2.363-0.592 0.229 0 0.453 0.021 0.674 0.050 0.391 0.053 0.767 0.15 1.124 0.287 1.878 0.723 3.215 2.54 3.213 4.674 0 2.768-2.242 5.012-5.011 5.012-0.918 0-1.776-0.25-2.515-0.681-1.009 0.618-2.143 1.044-3.358 1.233 0.051 0.053 0.095 0.11 0.148 0.163 1.177 1.177 2.627 1.916 4.147 2.216v2.503h-1.639c-0.122 0-0.244 0.047-0.338 0.14-0.094 0.094-0.14 0.216-0.14 0.338v2.131c0 0.263 0.215 0.477 0.479 0.478 0.001 0 0.001 0 0.001 0h1.638v2.039c0 0.233 0.167 0.427 0.389 0.469v0.008h0.088c0.001 0 0 0 0.001 0h2.13c0.264 0 0.478-0.213 0.478-0.478h0v-2.039h1.709c0.262 0 0.477-0.214 0.477-0.478v-2.13c0-0.122-0.047-0.244-0.139-0.338-0.094-0.093-0.216-0.14-0.338-0.14h-1.709v-2.49c1.546-0.291 3.021-1.034 4.217-2.23z"></path>
</svg>
