<!-- Generated by IcoMoon.io -->
<svg version="1.1" xmlns="http://www.w3.org/2000/svg" width="32" height="32" viewBox="0 0 32 32">
<title>university</title>
<path d="M30.384 9.5h-10.384v-4.123c0 0.479-0.134 0.159-0.364-0.067l-3.146-2.591c-0.294-0.293-0.793-0.293-1.087 0l-3.111 2.591c-0.136 0.136-0.213 0.372-0.223 0.55 0.063-0.287 0.051 1.14 0.028 3.64h-10.603c-0.825 0-1.494 0.649-1.494 1.602v18.398h10.5v-3.861c0-0.342 0.447-0.639 0.789-0.639h8.907c0.343 0 0.804 0.297 0.804 0.639v3.861h11v-18.398c0-0.954-0.791-1.602-1.616-1.602zM6.5 21.404c0 0.329-0.198 0.596-0.442 0.596h-1.615c-0.245 0-0.442-0.267-0.442-0.596v-2.306c0-0.33 0.198-0.597 0.442-0.597h1.615c0.245 0 0.442 0.267 0.442 0.596v2.307zM6.5 15.903c0 0.33-0.198 0.597-0.442 0.597h-1.615c-0.245 0-0.442-0.267-0.442-0.597v-2.306c0-0.33 0.198-0.597 0.442-0.597h1.615c0.245 0 0.442 0.267 0.442 0.597v2.307zM12 21.404c0 0.329-0.198 0.596-0.442 0.596h-1.616c-0.244 0-0.442-0.267-0.442-0.596v-2.306c0-0.33 0.198-0.597 0.442-0.597h1.616c0.244 0 0.442 0.267 0.442 0.596v2.307zM12 15.903c0 0.33-0.198 0.597-0.442 0.597h-1.616c-0.244 0-0.442-0.267-0.442-0.597v-2.306c0-0.33 0.198-0.597 0.442-0.597h1.616c0.244 0 0.442 0.267 0.442 0.597v2.307zM17 21.404c0 0.329-0.198 0.596-0.442 0.596h-1.615c-0.245 0-0.443-0.267-0.443-0.596v-2.306c0-0.33 0.198-0.597 0.443-0.597h1.615c0.244 0 0.442 0.267 0.442 0.596v2.307zM17 15.903c0 0.33-0.198 0.597-0.442 0.597h-1.615c-0.245 0-0.443-0.267-0.443-0.597v-2.306c0-0.33 0.198-0.597 0.443-0.597h1.615c0.244 0 0.442 0.267 0.442 0.597v2.307zM15.928 8.313c-0.707 0-1.28-0.573-1.28-1.28s0.573-1.28 1.28-1.28 1.28 0.573 1.28 1.28-0.573 1.28-1.28 1.28zM22.5 21.404c0 0.329-0.198 0.596-0.442 0.596h-1.617c-0.244 0-0.442-0.267-0.442-0.596v-2.306c0-0.33 0.198-0.597 0.442-0.597h1.617c0.244 0 0.442 0.267 0.442 0.596v2.307zM22.5 15.903c0 0.33-0.198 0.597-0.442 0.597h-1.617c-0.244 0-0.442-0.267-0.442-0.597v-2.306c0-0.33 0.198-0.597 0.442-0.597h1.617c0.244 0 0.442 0.267 0.442 0.597v2.307zM28 21.404c0 0.329-0.198 0.596-0.442 0.596h-1.616c-0.244 0-0.442-0.267-0.442-0.596v-2.306c0-0.33 0.198-0.597 0.442-0.597h1.616c0.244 0 0.442 0.267 0.442 0.596v2.307zM28 15.903c0 0.33-0.198 0.597-0.442 0.597h-1.616c-0.244 0-0.442-0.267-0.442-0.597v-2.306c0-0.33 0.198-0.597 0.442-0.597h1.616c0.244 0 0.442 0.267 0.442 0.597v2.307z"></path>
</svg>
