<!-- Generated by IcoMoon.io -->
<svg version="1.1" xmlns="http://www.w3.org/2000/svg" width="32" height="32" viewBox="0 0 32 32">
<title>unlock</title>
<path d="M26.839 13.5h-16.839v-4.21c0-3.415 2.542-6.194 5.957-6.194s6.043 2.779 6.043 6.194c0 0 0-0.29 0 0.21 0 1 1 1 1 1h1.5c0 0 1 0 1-1 0-0.5 0-0.21 0-0.21 0-5.131-4.412-9.29-9.543-9.29s-9.457 4.16-9.457 9.29v4.21h-1.339c-0.569 0-1.161 0.382-1.161 0.951v16.516c0 0.57 0.592 1.032 1.161 1.032h21.677c0.57 0 1.162-0.462 1.162-1.032v-16.517c0-0.57-0.591-0.951-1.161-0.951z"></path>
</svg>
