<!-- Generated by IcoMoon.io -->
<svg version="1.1" xmlns="http://www.w3.org/2000/svg" width="32" height="32" viewBox="0 0 32 32">
<title>upload</title>
<path d="M4.919 13h7.081v8.16c0 0.374 0.303 0.84 0.678 0.84h7.144c0.375 0 0.678-0.466 0.678-0.84v-8.16h6.581c1.927 0 1.255-1.727 0.503-2.48l-10.22-9.852c-0.753-0.753-1.972-0.89-2.726-0.137l-10.22 10.056c-0.752 0.752-1.425 2.413 0.502 2.413zM31 22h-9v0.378c0 0.515-0.215 1.122-0.732 1.122h-9.848c-0.516 0-0.921-0.607-0.921-1.122v-0.378h-9.5c-0.552 0-1 0.448-1 1v8c0 0.552 0.448 1 1 1h30c0.552 0 1-0.448 1-1v-8c0-0.552-0.448-1-1-1zM22.5 28.5c-0.828 0-1.5-0.672-1.5-1.5s0.672-1.5 1.5-1.5 1.5 0.672 1.5 1.5-0.672 1.5-1.5 1.5zM28.072 28.5c-0.828 0-1.5-0.672-1.5-1.5s0.672-1.5 1.5-1.5c0.828 0 1.5 0.672 1.5 1.5s-0.672 1.5-1.5 1.5z"></path>
</svg>
