<!-- Generated by IcoMoon.io -->
<svg version="1.1" xmlns="http://www.w3.org/2000/svg" width="32" height="32" viewBox="0 0 32 32">
<title>upstacked-chart</title>
<path d="M6 24.5h-5c-0.552 0-1 0.448-1 1v5.5c0 0.552 0.448 1 1 1h5c0.552 0 1-0.448 1-1v-5.5c0-0.552-0.448-1-1-1zM18.5 20.5h-5c-0.552 0-1 0.448-1 1v9.5c0 0.552 0.448 1 1 1h5c0.552 0 1-0.448 1-1v-9.5c0-0.552-0.448-1-1-1zM31 22h-5c-0.552 0-1 0.448-1 1v8c0 0.552 0.448 1 1 1h5c0.552 0 1-0.448 1-1v-8c0-0.552-0.448-1-1-1zM31 13.5h-5c-0.552 0-1 0.448-1 1v4.5c0 0.552 0.448 1 1 1h5c0.552 0 1-0.448 1-1v-4.5c0-0.552-0.448-1-1-1zM31 0h-5c-0.552 0-1 0.448-1 1v9.5c0 0.552 0.448 1 1 1h5c0.552 0 1-0.448 1-1v-9.5c0-0.552-0.448-1-1-1zM18.5 10h-5c-0.552 0-1 0.448-1 1v6.5c0 0.552 0.448 1 1 1h5c0.552 0 1-0.448 1-1v-6.5c0-0.552-0.448-1-1-1zM18.5 2.5h-5c-0.552 0-1 0.448-1 1v3.5c0 0.552 0.448 1 1 1h5c0.552 0 1-0.448 1-1v-3.5c0-0.552-0.448-1-1-1zM6 18.5h-5c-0.552 0-1 0.448-1 1v2c0 0.552 0.448 1 1 1h5c0.552 0 1-0.448 1-1v-2c0-0.552-0.448-1-1-1zM6 8h-5c-0.552 0-1 0.448-1 1v7c0 0.552 0.448 1 1 1h5c0.552 0 1-0.448 1-1v-7c0-0.552-0.448-1-1-1z"></path>
</svg>
