<!-- Generated by IcoMoon.io -->
<svg version="1.1" xmlns="http://www.w3.org/2000/svg" width="32" height="32" viewBox="0 0 32 32">
<title>usb</title>
<path d="M20.5 8.351v-7.412c0-0.518-0.431-0.94-0.951-0.94h-7.098c-0.518 0-0.951 0.421-0.951 0.94v7.412c-1.5 0.228-2.5 0.957-2.5 3.089v13.352c0 3.848 3.157 7.184 7 7.207 3.844-0.024 7-3.361 7-7.208v-13.352c0-2.132-1-2.861-2.5-3.089zM16.5 2.6c0-0.332 0.268-0.6 0.6-0.6h1.3c0.331 0 0.6 0.268 0.6 0.6v1.3c0 0.332-0.268 0.6-0.6 0.6h-1.3c-0.331 0-0.6-0.269-0.6-0.6v-1.3zM13 2.6c0-0.332 0.268-0.6 0.6-0.6h1.3c0.332 0 0.6 0.268 0.6 0.6v1.3c0 0.332-0.268 0.6-0.6 0.6h-1.3c-0.332 0-0.6-0.269-0.6-0.6v-1.3zM19.5 15.9c0 0.296-0.218 0.531-0.5 0.58v2.52h-0.249c0.044 0.117 0.020 0.255-0.075 0.35l-2.177 2.176v3.066c0.586 0.207 1.009 0.761 1.009 1.416 0 0.834-0.676 1.508-1.509 1.508s-1.508-0.675-1.508-1.508c0.001-0.657 0.423-1.209 1.008-1.416v-1.871l-1.914-1.914c-0.083-0.084-0.107-0.2-0.082-0.306h-0.504v-2.639c-0.298-0.174-0.5-0.492-0.5-0.861 0-0.552 0.448-1 1-1s1 0.448 1 1c0 0.369-0.202 0.688-0.5 0.861v2.445c0.017 0.012 0.037 0.020 0.052 0.035l1.448 1.448v-8.116c-0.411-0.001-0.948-0.002-1.127-0.001-0.301 0.003-0.093-0.206-0.093-0.206l0.806-1.398 0.829-1.443c0 0 0.091-0.178 0.192-0.002 0.102 0.175 0.825 1.406 0.825 1.406s0.695 1.179 0.818 1.373c0.124 0.194-0.078 0.095-0.078 0.095h-1.171v7.097l1.596-1.597h-0.096v-2.521c-0.282-0.049-0.5-0.284-0.5-0.58v-0.8c0-0.332 0.268-0.6 0.6-0.6h0.8c0.331 0 0.6 0.268 0.6 0.6v0.8z"></path>
</svg>
