<!-- Generated by IcoMoon.io -->
<svg version="1.1" xmlns="http://www.w3.org/2000/svg" width="32" height="32" viewBox="0 0 32 32">
<title>user-times</title>
<path d="M18.913 7.409c0 3.527-2.859 6.386-6.386 6.386s-6.386-2.859-6.386-6.386c0-3.527 2.859-6.386 6.386-6.386s6.386 2.859 6.386 6.386zM15.957 26.094l3.094-3.094-3.448-3.447c-0.927-0.927-0.794-2.21 0.133-3.137l0.853-0.852c-1.274-0.437-2.639-0.677-4.061-0.677-6.918 0-12.527 5.609-12.527 12.527 0 4.323 0.307 3.503 12.834 3.503 1.629 0 3.037 0.014 4.261 0.029l-1.36-1.36c-0.927-0.927-0.706-2.564 0.222-3.491zM20.974 30.976c3.375-0.023 3.964-0.343 4.061-1.99l-1.035-1.036-3.026 3.026zM31.366 26.831l-3.831-3.831 3.829-3.83c0.619-0.618 0.53-1.709-0.088-2.328l-1.12-1.12c-0.617-0.618-1.709-0.707-2.327-0.088l-3.83 3.83-3.83-3.83c-0.618-0.618-1.709-0.53-2.328 0.088l-1.119 1.12c-0.618 0.618-0.706 1.709-0.089 2.327l3.831 3.831-3.829 3.83c-0.619 0.618-0.53 1.709 0.088 2.328l1.12 1.119c0.617 0.618 1.709 0.706 2.327 0.088l3.83-3.83 3.83 3.83c0.618 0.618 1.709 0.53 2.328-0.088l1.119-1.119c0.619-0.618 0.707-1.709 0.089-2.327z"></path>
</svg>
