<!-- Generated by IcoMoon.io -->
<svg version="1.1" xmlns="http://www.w3.org/2000/svg" width="32" height="32" viewBox="0 0 32 32">
<title>user-plus</title>
<path d="M18.913 7.409c0 3.527-2.859 6.386-6.386 6.386s-6.386-2.859-6.386-6.386c0-3.527 2.859-6.386 6.386-6.386s6.386 2.859 6.386 6.386zM19 25h-4.375c-1.312 0-2.625-1.001-2.625-2.312v-2.376c0-1.311 1.313-2.312 2.625-2.312h4.375v-1.314c-1.889-1.143-4.104-1.801-6.473-1.801-6.918 0.001-12.527 5.609-12.527 12.527 0 4.323 0.307 3.503 12.834 3.503 2.831 0 5.001 0.041 6.673 0.056-0.319-0.461-0.507-1.029-0.507-1.596v-4.375zM30.416 19h-5.416v-5.417c0-0.874-0.834-1.583-1.709-1.583h-1.583c-0.875 0-1.709 0.709-1.709 1.583v5.417h-5.416c-0.874 0-1.584 0.834-1.584 1.708v1.584c0 0.874 0.709 1.708 1.584 1.708h5.416v5.417c0 0.874 0.834 1.583 1.709 1.583h1.583c0.875 0 1.709-0.709 1.709-1.583v-5.417h5.416c0.875 0 1.584-0.834 1.584-1.708v-1.584c0-0.874-0.709-1.708-1.584-1.708z"></path>
</svg>
