<!-- Generated by IcoMoon.io -->
<svg version="1.1" xmlns="http://www.w3.org/2000/svg" width="32" height="32" viewBox="0 0 32 32">
<title>vacuum-cleaner</title>
<path d="M7.5 23.75c0 2.071-1.679 3.75-3.75 3.75s-3.75-1.679-3.75-3.75c0-2.071 1.679-3.75 3.75-3.75s3.75 1.679 3.75 3.75zM11.438 11.226c-0.005-0.068-0.026 0.010 0 0v0zM31.719 26.744c-0.248-0.239-1.937-1.175-4.219-1.483v-0.165c0-0.184-0.206-0.349-0.536-0.349 0 0-0.628-0.034-1.36-0.056l-5.604-17.692c-0.683-2.546-6-4-8.639-3.888 0 0-0.282 0.029-0.425 0.046-2.468 0.297-4.213 2.659-3.896 5.275 0.315 2.616 2.571 4.495 5.039 4.198 1.582-0.492 3.393 0.152 4.024 1.814 0.655 1.726-0.134 3.623-1.761 4.241-0.131 0.049-1.181 0.209-1.64 0.282-0.547-0.18-1.114-0.316-1.7-0.389v-0.303c0-0.679-0.448-1.23-1-1.23 0 0-4.972-0.541-6 0-0.977 0.515-1.602 1.461-1.998 2.557 0.536-0.227 1.127-0.352 1.747-0.352 2.486 0 4.5 2.014 4.5 4.5 0 1.566-0.801 2.944-2.014 3.75h12.764c0.552 0 1-0.474 1-1.058 0 0 0-0.529 0-1.058s-0.5-1.057-0.5-1.057c-0.319-0.674-2.061-2.849-4.575-4.338 2.271-0.913 3.363-3.587 2.439-6.023-0.934-2.465-3.602-3.623-5.927-2.742-1.534-0.057-2.858-1.292-3.059-2.954-0.221-1.832 1.001-3.486 2.728-3.694 0.169-0.020 0.46-0.091 0.625-0.083 0 0-0.1-0 0 0 1.768 0.005 5.268 0.505 6.768 2.505l5.53 17.68c-0.259 0.009-0.469 0.026-0.59 0.054-2.091 0.503-1.494 2.484-1.494 2.484 0 0.184 0.267 0.282 0.598 0.282h8.858c0.329 0 0.597-0.021 0.597-0.18 0 0 0-0.144 0-0.288s-0.281-0.288-0.281-0.288zM18 26.75c0 0.138-0.112 0.25-0.25 0.25h-8.5c-0.138 0-0.25-0.112-0.25-0.25s0.112-0.25 0.25-0.25h8.5c0.138 0 0.25 0.112 0.25 0.25zM29.75 27h-6.5c-0.138 0-0.25-0.112-0.25-0.25s0.112-0.25 0.25-0.25h6.5c0.138 0 0.25 0.112 0.25 0.25s-0.112 0.25-0.25 0.25z"></path>
</svg>
