<!-- Generated by IcoMoon.io -->
<svg version="1.1" xmlns="http://www.w3.org/2000/svg" width="32" height="32" viewBox="0 0 32 32">
<title>vertical-bullet-chart</title>
<path d="M31.125 30h-30.25c-0.483 0-0.875 0.392-0.875 0.875v0.25c0 0.483 0.392 0.875 0.875 0.875h30.25c0.483 0 0.875-0.392 0.875-0.875v-0.25c0-0.483-0.392-0.875-0.875-0.875zM2.853 28h4c0.553 0 1.146-0.593 1.146-1.146v-8.348l-1.809-0.298-2.83 2.354-0.491-3.253-0.894-0.72c-0.024 0.085 0.024 0.172 0.024 0.265v10c0 0.553 0.302 1.146 0.853 1.146zM13.944 7.309l-0.944-0.739v20.284c0 0.553 0.302 1.146 0.854 1.146h4c0.553 0 1.146-0.593 1.146-1.146v-18.349l-1.808-0.298-2.831 2.354-0.418-3.253zM24.944 13.309l-0.944-0.739v14.284c0 0.553 0.302 1.146 0.854 1.146h4c0.553 0 1.146-0.593 1.146-1.146v-12.348l-1.808-0.298-2.831 2.355-0.418-3.253zM3.824 19.561l2.294-2.354 3.24 0.555-1.53-2.909 1.53-2.909-3.24 0.556-2.294-2.354-0.473 3.253-2.947 1.454 2.947 1.455zM14.824 9.562l2.294-2.354 3.241 0.556-1.53-2.909 1.53-2.909-3.241 0.555-2.294-2.353-0.473 3.253-2.947 1.454 2.947 1.455zM25.824 15.562l2.294-2.354 3.241 0.556-1.53-2.909 1.53-2.909-3.241 0.555-2.294-2.354-0.473 3.253-2.947 1.454 2.947 1.455z"></path>
</svg>
