<!-- Generated by IcoMoon.io -->
<svg version="1.1" xmlns="http://www.w3.org/2000/svg" width="32" height="32" viewBox="0 0 32 32">
<title>vertical-scroll</title>
<path d="M19.784 8.875l0.716-0.001v4.626h-0.736c-0.114 0-0.217 0.142-0.268 0.234-0.047 0.085-0.044 0.226 0.012 0.322 0.519 0.833 1.308 2.124 1.351 2.207 0.085 0.183 0.382 0.208 0.482 0.021 0.041-0.076 0.834-1.351 1.357-2.192 0.061-0.095 0.066-0.281 0.017-0.37-0.050-0.091-0.145-0.221-0.259-0.221h-0.454v-4.5h0.445c0.114 0 0.216-0.126 0.268-0.217 0.047-0.085 0.044-0.217-0.011-0.315-0.52-0.833-1.308-2.12-1.352-2.201-0.085-0.185-0.382-0.207-0.48-0.020-0.041 0.076-0.835 1.353-1.357 2.194-0.061 0.095-0.052 0.203-0.003 0.292 0.049 0.091 0.16 0.143 0.273 0.143zM23.142 19.679c-0.095-0.624-0.707-1.078-1.335-1.078-0.261 0-0.306 0.078-0.806 0.225v0.948c0 0.289-0.212 0.524-0.5 0.524s-0.5-0.235-0.5-0.524v-1.081c0-0.567-0.673-0.977-1.258-0.977-0.257 0-0.242 0.079-0.742 0.224v1.834c0 0.289-0.211 0.524-0.5 0.524-0.288 0-0.5-0.235-0.5-0.524v-2.067c0-0.567-0.672-0.977-1.256-0.977-0.261 0-0.243 0.077-0.744 0.224v2.819c0 0.289-0.211 0.524-0.499 0.524s-0.501-0.235-0.501-0.524v-8.117c0-0.567-0.649-0.976-1.233-0.976-0.698 0-1.267 0.569-1.267 1.267v8.052h-0.111c-1.486 0-1.889 0.622-1.889 2.055v4.688c0 0.291 0.164 0.571 0.348 0.811l0.061 0.046c0.099 0.157 1.591 1.843 2.46 2.864l0.13 0.070v0.092c0 0.913 0.216 1.375 0.854 1.375h7.607c0.637-0 1.039-0.463 1.039-1.375v-0.067l-0.005-0.058c0.336-0.573 1.186-2.197 1.186-2.813l-0.040-8.008z"></path>
</svg>
