<!-- Generated by IcoMoon.io -->
<svg version="1.1" xmlns="http://www.w3.org/2000/svg" width="32" height="32" viewBox="0 0 32 32">
<title>vertical-waterfall-chart</title>
<path d="M3 28h3c0.552 0 1-0.448 1-1v-26c0-0.552-0.448-1-1-1h-3c-0.552 0-1 0.448-1 1v26c0 0.552 0.448 1 1 1zM11 10h3c0.552 0 1-0.448 1-1v-8c0-0.552-0.448-1-1-1h-3c-0.552 0-1 0.448-1 1v8c0 0.552 0.448 1 1 1zM26 28h3c0.552 0 1-0.448 1-1v-6c0-0.552-0.448-1-1-1h-3c-0.552 0-1 0.448-1 1v6c0 0.552 0.448 1 1 1zM18.5 20h3c0.552 0 1-0.448 1-1v-8c0-0.552-0.448-1-1-1h-3c-0.552 0-1 0.448-1 1v8c0 0.552 0.448 1 1 1zM31.125 30h-30.25c-0.483 0-0.875 0.392-0.875 0.875v0.25c0 0.483 0.392 0.875 0.875 0.875h30.25c0.483 0 0.875-0.392 0.875-0.875v-0.25c0-0.483-0.392-0.875-0.875-0.875z"></path>
</svg>
