<!-- Generated by IcoMoon.io -->
<svg version="1.1" xmlns="http://www.w3.org/2000/svg" width="32" height="32" viewBox="0 0 32 32">
<title>video-camera</title>
<path d="M30.658 7.904c-0.52-0.282-1.157-0.254-1.654 0.074l-7.106 4.689v-4.811c0-0.845-0.686-1.531-1.531-1.531h-18.348c-0.844 0-1.529 0.686-1.529 1.531v16.289c0 0.845 0.685 1.531 1.529 1.531h18.348c0.845 0 1.531-0.686 1.531-1.531v-4.813l7.106 4.689c0.27 0.177 0.578 0.267 0.891 0.267 0.261 0 0.523-0.064 0.762-0.192 0.523-0.282 0.851-0.827 0.851-1.422v-13.348c0-0.595-0.329-1.142-0.851-1.422z"></path>
</svg>
