<!-- Generated by IcoMoon.io -->
<svg version="1.1" xmlns="http://www.w3.org/2000/svg" width="32" height="32" viewBox="0 0 32 32">
<title>video-camera-slash</title>
<path d="M29.371 4.657c0.426 0.426 0.101 0.734-0.29 1.125l-23.971 23.97c-0.39 0.39-0.988 0.427-1.414 0l-2.092-2.091c-0.426-0.426-0.42-1.053-0.030-1.444l23.971-23.971c0.39-0.391 0.698-0.716 1.125-0.289l2.7 2.7zM15.793 6.5h-12.764c-0.844 0-1.529 0.686-1.529 1.531v12.762l14.293-14.293zM31.658 8.079c-0.52-0.282-1.107-0.254-1.603 0.073l-7.055 4.69v-4.811c0-0.434-0.229-0.748-0.518-1.027l-18.968 18.997h17.864c0.845 0 1.623-0.835 1.623-1.68v-4.813l7.059 4.689c0.27 0.177 0.555 0.267 0.868 0.267 0.261 0 0.502-0.064 0.742-0.192 0.522-0.282 0.83-0.827 0.83-1.422v-13.348c0.001-0.595-0.319-1.142-0.841-1.422z"></path>
</svg>
