<!-- Generated by IcoMoon.io -->
<svg version="1.1" xmlns="http://www.w3.org/2000/svg" width="32" height="32" viewBox="0 0 32 32">
<title>Vietnam-dong</title>
<path d="M7.455 28.135h16.245v3.865h-16.245v-3.865zM26.087 2.243h-2.387v-2.243h-4.82v2.243h-6.793v3.866h6.793v4.305c-1.487-1.693-3.248-2.539-5.284-2.539-2.219 0-4.054 0.803-5.506 2.41-1.453 1.607-2.178 3.954-2.178 7.042 0 3.019 0.747 5.372 2.239 7.058s3.285 2.53 5.377 2.53c1.030 0 2.050-0.255 3.062-0.763s1.889-1.284 2.633-2.324v2.676h4.477v-20.395h2.387v-3.866zM17.731 21.692c-0.777 0.944-1.721 1.416-2.83 1.416-1.396 0-2.482-0.629-3.26-1.887-0.537-0.869-0.806-2.276-0.806-4.22 0-1.806 0.386-3.165 1.158-4.073s1.729-1.364 2.873-1.364c1.178 0 2.145 0.46 2.899 1.381s1.132 2.427 1.132 4.52c0 1.875-0.388 3.285-1.166 4.227z"></path>
</svg>
