<!-- Generated by IcoMoon.io -->
<svg version="1.1" xmlns="http://www.w3.org/2000/svg" width="32" height="32" viewBox="0 0 32 32">
<title>violin</title>
<path d="M15.149 25.227c0 0-1.826-0.899-0.371-3.687s3.972-1.349 3.972-1.349c-0.436-0.915 1.268-1.087 3.22-3.018 1.776-1.758 0.212-4.568-0.776-5.977l4.747-4.909 0.633 0.633c-0.044 0.236 0.026 0.488 0.207 0.67 0.294 0.294 0.77 0.294 1.064 0s0.294-0.771 0-1.064c-0.174-0.175-0.412-0.243-0.639-0.21l-0.657-0.658 0.611-0.631 0.66 0.66c-0.038 0.231 0.031 0.476 0.209 0.654 0.294 0.293 0.77 0.293 1.064 0 0.294-0.295 0.294-0.771 0-1.064-0.178-0.178-0.423-0.247-0.654-0.209l-0.584-0.585 2.114-1.319-0.059-2.101-2.101-0.060-1.319 2.115-0.585-0.585c0.038-0.231-0.030-0.475-0.209-0.654-0.294-0.294-0.771-0.294-1.065 0s-0.294 0.771 0 1.065c0.178 0.178 0.424 0.247 0.655 0.208l0.66 0.661-0.633 0.612-0.657-0.657c0.032-0.226-0.036-0.465-0.209-0.639-0.294-0.294-0.771-0.293-1.065 0s-0.294 0.771 0 1.065c0.182 0.182 0.434 0.25 0.669 0.207l0.633 0.633-4.928 4.767c-1.448-1.001-4.096-2.401-5.802-0.713-1.952 1.932-2.14 3.633-3.050 3.188 0 0 1.394 2.512-1.409 3.94s-3.666-0.39-3.666-0.39-0.365 1.287-2.203 1.759c-1.831 0.47-7.027 2.979-0.231 9.892l-0.002 0.002c0.012 0.013 0.024 0.023 0.036 0.035 0.013 0.014 0.024 0.024 0.036 0.038l0.001-0.001c6.851 6.857 9.414 1.688 9.901-0.136 0.489-1.831 1.781-2.183 1.781-2.183zM14.218 14.379c0.125-0.124 0.328-0.124 0.452 0.001l1.924 1.924c0.125 0.125 0.125 0.327 0 0.452s-0.328 0.125-0.453 0l-1.924-1.925c-0.125-0.124-0.125-0.328 0.001-0.453zM8.415 24.826l-2.513 0.787-1.101 1.101c-0.15 0.15-0.393 0.15-0.542 0s-0.149-0.392 0-0.541l1.102-1.102 0.787-2.513c0-0.123 0.099-0.223 0.222-0.223l2.269 2.268c-0.001 0.123-0.1 0.224-0.223 0.224zM9.874 17.797c-0.351 0.679-0.722 1.319-1.378 1.692-0.155 0.088-0.5 0.258-0.87 0.258-0.103 0-0.207-0.013-0.309-0.044-0.253-0.077-0.447-0.248-0.577-0.509-0.16-0.32-0.011-0.892 0.221-1.136 0.057-0.059 0.229-0.241 0.45-0.206 0.218 0.035 0.322 0.256 0.397 0.417 0.045 0.096 0.005 0.213-0.091 0.259s-0.208 0.008-0.254-0.089c-0.032-0.068-0.085-0.181-0.12-0.208-0.002 0.006-0.039 0.023-0.105 0.092-0.143 0.149-0.231 0.547-0.155 0.698 0.082 0.165 0.195 0.267 0.345 0.313 0.229 0.070 0.558 0.003 0.878-0.18 0.566-0.321 0.89-0.885 1.227-1.534 0.251-0.485 0.672-1.296 1.418-1.35 0.3-0.021 0.559 0.065 0.714 0.238 0.094 0.104 0.195 0.289 0.143 0.576-0.018 0.104-0.12 0.174-0.223 0.155-0.105-0.019-0.174-0.119-0.155-0.224 0.020-0.108 0.002-0.192-0.050-0.252-0.075-0.083-0.226-0.125-0.401-0.113-0.531 0.039-0.89 0.731-1.104 1.143zM13.353 21.441c-0.649 0.337-1.213 0.662-1.535 1.227-0.182 0.321-0.249 0.649-0.179 0.878 0.046 0.15 0.148 0.263 0.313 0.345 0.152 0.076 0.55-0.013 0.698-0.155 0.085-0.081 0.092-0.118 0.092-0.119-0.018-0.017-0.137-0.073-0.202-0.104l0.158-0.351c0.167 0.078 0.389 0.181 0.424 0.4 0.036 0.22-0.146 0.393-0.207 0.451-0.173 0.166-0.511 0.288-0.808 0.288-0.12 0-0.235-0.021-0.328-0.067-0.261-0.13-0.431-0.323-0.509-0.577-0.145-0.473 0.1-0.983 0.212-1.18 0.373-0.656 1.014-1.026 1.693-1.378 0.413-0.215 1.104-0.573 1.143-1.105 0.012-0.177-0.030-0.326-0.113-0.401-0.059-0.053-0.145-0.070-0.252-0.050-0.107 0.017-0.205-0.050-0.223-0.155s0.050-0.205 0.155-0.224c0.289-0.052 0.473 0.049 0.577 0.142 0.173 0.156 0.261 0.416 0.239 0.715-0.054 0.747-0.865 1.166-1.349 1.418zM31.788 12.428l0.027-0.027c0.141-0.14 0.141-0.369 0-0.51s-0.369-0.14-0.51 0l-17.436 17.436c-0.141 0.14-0.141 0.369 0 0.51 0.070 0.070 0.163 0.105 0.255 0.105s0.184-0.035 0.255-0.105l2.195-2.195c0.538 0.336 1.254 0.273 1.721-0.194l13.299-13.299c0.468-0.468 0.53-1.184 0.195-1.722zM6.97 24.003c-0.149-0.149-0.393-0.149-0.542 0l-1.067 1.067-0.146 0.465c-0.001 0.124 0.099 0.224 0.223 0.224l0.464-0.145 1.068-1.068c0.149-0.149 0.149-0.392 0-0.541z"></path>
</svg>
