<!-- Generated by IcoMoon.io -->
<svg version="1.1" xmlns="http://www.w3.org/2000/svg" width="32" height="32" viewBox="0 0 32 32">
<title>vise</title>
<path d="M31.863 17.427c0-1.986-1.611-3.427-3.597-3.427h-3.266v-1h-3.176l-1.579-6.189c0 0-0.744-2.651-4.245-2.811v4.779c0 0 1.5 0.319 1.5 2.23v3.49h-4.5v-3.49c0-1.911 1-2.23 1-2.23v-4.779c-2 0.159-3.677 2.811-3.677 2.811l-1.011 6.19h-2.812v2.5h-3.5v-3.309c0.5-0.323 0.841-0.857 0.841-1.465 0-0.986-0.761-1.785-1.748-1.785s-1.865 0.8-1.865 1.785c0 0.643 0.272 1.205 0.772 1.52v3.254h-1v4.5h1v2.267c-0.5 0.315-0.753 0.877-0.753 1.519 0 0.986 0.848 1.786 1.835 1.786s1.734-0.8 1.734-1.786c0-0.607-0.317-1.142-0.817-1.464v-2.322h3.5v2h6.5v-1.5h4.5v1.5h2v2.895c0 0.046-0.218 0.105-0.209 0.105h-6.051c-0.556 0-1.239 0.48-1.239 1.035v1.174c0 0.555 0.684 1.291 1.239 1.291h15.386c0.545 0 1.172-0.576 1.189-1.117 0.002-0.007 0.186-0.16 0.186-0.174v-6.587c0-0.012-0.187 0.061-0.188 0.049 1.311-0.537 2.051-1.74 2.051-3.244zM6.5 18.5h-5v-2h5v2zM17.5 19h-4.5v-3h4.5v3z"></path>
</svg>
