<!-- Generated by IcoMoon.io -->
<svg version="1.1" xmlns="http://www.w3.org/2000/svg" width="32" height="32" viewBox="0 0 32 32">
<title>voice-recorder</title>
<path d="M23.073 0h-14.145c-1.341 0-2.428 1.087-2.428 2.428v27.572c0 1.34 1.087 2 2.428 2h14.145c1.341 0 2.428-0.66 2.428-2v-27.573c0-1.341-1.087-2.428-2.427-2.428zM15.999 29.669c-3.649 0-6.605-2.956-6.605-6.604s2.956-6.605 6.605-6.605c3.648 0 6.606 2.957 6.606 6.605s-2.958 6.605-6.606 6.605zM23.5 12.9c0 0.332-0.268 0.6-0.6 0.6h-13.8c-0.332 0-0.6-0.268-0.6-0.6v-10.3c0-0.332 0.268-0.6 0.6-0.6h13.8c0.331 0 0.6 0.268 0.6 0.6v10.3zM16 19.271c-2.095 0-3.793 1.698-3.793 3.793s1.698 3.793 3.793 3.793 3.793-1.698 3.793-3.793c0-2.095-1.698-3.793-3.793-3.793zM16 24.5c-0.828 0-1.5-0.672-1.5-1.5s0.672-1.5 1.5-1.5 1.5 0.672 1.5 1.5-0.672 1.5-1.5 1.5zM19.75 5.5c-1.242 0-2.25 1.008-2.25 2.25 0 0.264 0.053 0.514 0.137 0.75h-3.276c0.085-0.236 0.138-0.486 0.138-0.75 0-1.242-1.008-2.25-2.25-2.25s-2.25 1.008-2.25 2.25c0 0.979 0.628 1.802 1.5 2.113v0.137h8.5v-0.025c1.123-0.126 2-1.068 2-2.224 0-1.242-1.008-2.25-2.25-2.25zM12.25 8.5c-0.414 0-0.75-0.336-0.75-0.75s0.336-0.75 0.75-0.75 0.75 0.336 0.75 0.75-0.336 0.75-0.75 0.75zM19.75 8.5c-0.414 0-0.75-0.336-0.75-0.75s0.336-0.75 0.75-0.75 0.75 0.336 0.75 0.75-0.336 0.75-0.75 0.75z"></path>
</svg>
