<!-- Generated by IcoMoon.io -->
<svg version="1.1" xmlns="http://www.w3.org/2000/svg" width="32" height="32" viewBox="0 0 32 32">
<title>volleyball</title>
<path d="M21.947 23.393c7.439-6.634 7.896-14.13 7.901-14.205 0.012-0.268 0.11-0.505 0.276-0.671-1.404-2.646-3.625-4.849-6.125-6.352 0 0.003 0 0.007 0 0.010 0 0.385-0.412 9.415-8.408 17.691 1.717 1.342 3.836 2.614 6.355 3.527zM31.217 11.053c-0.548 2.7-2.235 7.954-7.366 12.932 1.584 0.421 3.305 0.698 5.177 0.765 0.109 0.004 0.21 0.041 0.302 0.099 1.686-2.535 2.671-5.576 2.671-8.849 0-1.727-0.277-3.389-0.783-4.947zM9.934 13.613c0.55 0.895 1.958 2.975 4.31 5.104 0.040-0.062 0.084-0.121 0.135-0.172 7.632-7.724 8.021-16.26 8.025-16.346 0.011-0.288 0.113-0.55 0.269-0.74-2.032-0.933-4.29-1.458-6.672-1.458-0.198 0-0.396 0.008-0.593 0.015 0.094 0.112 0.156 0.252 0.172 0.408 0.028 0.274 0.597 6.657-5.646 13.19zM22.055 25.276c-0.127-0.017-0.247-0.073-0.352-0.157-8.161-2.898-12.349-9.409-13.203-10.856-1.273-0.331-2.418-0.265-3.491 0.328-0.452 0.25-0.859 0.573-1.232 0.932 0.407 1.644 3.819 13.421 18.317 15.233 0.022 0.003 0.043 0.010 0.064 0.015 2.311-0.965 4.344-2.456 5.956-4.323-2.172-0.156-4.154-0.573-5.948-1.169-0.037 0.002-0.074 0.003-0.11-0.003zM2.631 16.889c-1.249 1.824-1.815 3.848-1.823 3.878-0.011 0.042-0.028 0.081-0.045 0.119 2.066 6.447 8.105 11.114 15.238 11.114 1.018 0 2.013-0.099 2.979-0.282-11.251-2.665-15.239-11.552-16.348-14.829zM13.547 4.654c0.688-2.413 0.544-4.046 0.54-4.078-0.018-0.173 0.027-0.337 0.113-0.473-4.752 0.532-8.876 3.144-11.437 6.907 2.666-1.458 6.662-3.017 10.784-2.356zM4.279 13.221c1.377-0.761 2.884-0.944 4.485-0.556 2.231-2.312 3.537-4.606 4.296-6.565-4.96-0.668-9.868 2.277-11.764 3.587-0.833 1.937-1.296 4.070-1.296 6.312 0 0.75 0.056 1.488 0.156 2.21 0.749-1.658 2.064-3.85 4.122-4.989z"></path>
</svg>
