<!-- Generated by IcoMoon.io -->
<svg version="1.1" xmlns="http://www.w3.org/2000/svg" width="32" height="32" viewBox="0 0 32 32">
<title>voltmeter</title>
<path d="M26.5 1.756c0-0.97-0.786-1.756-1.756-1.756h-16.988c-0.97 0-1.756 0.786-1.756 1.756v28.488c0 0.97 0.786 1.756 1.756 1.756h16.988c0.97 0 1.756-0.786 1.756-1.756v-28.488zM16.371 28.942c-2.927 0-5.3-2.373-5.3-5.3s2.373-5.3 5.3-5.3 5.3 2.373 5.3 5.3c0 2.927-2.373 5.3-5.3 5.3zM23 13.359c0 0.251 0.081 0.641-0.17 0.641h-3.239c-0.344-2-1.653-2.644-3.219-2.644-0.285 0-0.559-0.007-0.823 0.060l-2.177-4.121-1.162 0.605 2.155 4.144c-0.598 0.457-1.034 0.956-1.212 1.956h-3.24c-0.251 0-0.412-0.39-0.412-0.641v-9.134c0-0.251 0.161-0.224 0.412-0.224h12.918c0.252 0 0.17-0.026 0.17 0.224v9.134zM13.405 26.003l-0.821-2.193 6.755-2.529 0.821 2.193-6.755 2.529z"></path>
</svg>
