<!-- Generated by IcoMoon.io -->
<svg version="1.1" xmlns="http://www.w3.org/2000/svg" width="32" height="32" viewBox="0 0 32 32">
<title>volume-off</title>
<path d="M28.173 18.69l-2.69-2.69 2.689-2.689c0.434-0.434 0.372-1.2-0.062-1.636l-0.786-0.786c-0.434-0.434-1.2-0.496-1.635-0.062l-2.689 2.689-2.689-2.689c-0.434-0.434-1.201-0.373-1.636 0.062l-0.785 0.786c-0.434 0.434-0.497 1.2-0.063 1.635l2.69 2.69-2.689 2.689c-0.434 0.434-0.372 1.201 0.062 1.636l0.786 0.785c0.434 0.434 1.2 0.497 1.635 0.062l2.689-2.689 2.689 2.689c0.434 0.434 1.201 0.372 1.636-0.062l0.785-0.785c0.434-0.435 0.497-1.201 0.063-1.635zM13.883 4.511c-0.441-0.207-0.909-0.141-1.284 0.17l-7.617 6.326c-0.040-0.002-0.077-0.007-0.118-0.007h-3.607c-0.695 0-1.257 0.307-1.257 0.771v7.959c0 0.463 0.563 0.77 1.257 0.77h3.608c0.052 0 0.099-0.005 0.149-0.009l7.638 6.327c0.375 0.311 0.791 0.377 1.232 0.169s0.617-0.65 0.617-1.137v-20.202c0-0.487-0.177-0.93-0.617-1.138z"></path>
</svg>
