<!-- Generated by IcoMoon.io -->
<svg version="1.1" xmlns="http://www.w3.org/2000/svg" width="32" height="32" viewBox="0 0 32 32">
<title>volume-up</title>
<path d="M13.883 4.511c-0.441-0.207-0.909-0.141-1.284 0.17l-7.617 6.326c-0.040-0.002-0.077-0.007-0.118-0.007h-3.607c-0.695 0-1.257 0.307-1.257 0.771v7.959c0 0.463 0.563 0.77 1.257 0.77h3.608c0.052 0 0.099-0.005 0.149-0.009l7.638 6.327c0.375 0.311 0.791 0.377 1.232 0.169s0.617-0.65 0.617-1.137v-20.202c0-0.487-0.177-0.93-0.617-1.138zM20.761 2.874c-0.684-0.091-1.314 0.384-1.41 1.067s0.383 1.315 1.067 1.409c5.035 0.697 8.832 5.060 8.832 10.15 0 5.181-3.875 9.555-9.012 10.173-0.686 0.082-1.175 0.705-1.092 1.39 0.076 0.635 0.616 1.101 1.239 1.101 0.050 0 0.1-0.003 0.151-0.009 6.393-0.769 11.214-6.209 11.214-12.655 0-6.332-4.724-11.76-10.989-12.627zM26.978 15.501c0-4.641-3.625-8.57-8.251-8.943-0.689-0.049-1.291 0.457-1.346 1.146s0.457 1.291 1.145 1.347c3.337 0.269 5.952 3.102 5.952 6.45 0 3.407-2.666 6.243-6.069 6.455-0.689 0.043-1.212 0.637-1.169 1.326 0.041 0.662 0.591 1.172 1.247 1.172 0.026 0 0.052-0.001 0.079-0.003 4.716-0.294 8.412-4.226 8.412-8.95zM22.114 15.501c0-2.82-2.294-5.114-5.114-5.114-0.691 0-1.25 0.559-1.25 1.25s0.559 1.25 1.25 1.25c1.442 0 2.614 1.173 2.614 2.614s-1.173 2.614-2.614 2.614c-0.691 0-1.25 0.559-1.25 1.25s0.559 1.25 1.25 1.25c2.82 0 5.114-2.294 5.114-5.114z"></path>
</svg>
