<!-- Generated by IcoMoon.io -->
<svg version="1.1" xmlns="http://www.w3.org/2000/svg" width="32" height="32" viewBox="0 0 32 32">
<title>waistcoat</title>
<path d="M24.97 8.534c-0.545-3.128-0.032-7.666-0.032-7.666l-3.871-0.869c0 0-0.654 8.057-5.067 10.999-4.412-2.941-5.066-10.999-5.066-10.999l-3.871 0.869c0 0 0.513 4.537-0.032 7.666-0.603 3.465-3.071 4.149-3.071 4.149l1.387 16.524 8.616 2.791 2.039-3.417 2.039 3.417 8.615-2.791 1.387-16.524c0 0-2.468-0.684-3.071-4.149zM16 25.353c-0.482 0-0.871-0.39-0.871-0.871s0.389-0.872 0.871-0.872 0.872 0.39 0.872 0.872c0 0.481-0.39 0.871-0.872 0.871zM16 22.002c-0.482 0-0.871-0.39-0.871-0.872s0.389-0.872 0.871-0.872 0.872 0.39 0.872 0.872-0.39 0.872-0.872 0.872zM16 18.649c-0.482 0-0.871-0.39-0.871-0.872s0.389-0.871 0.871-0.871 0.872 0.39 0.872 0.871c0 0.482-0.39 0.872-0.872 0.872zM16 15.297c-0.482 0-0.871-0.39-0.871-0.871s0.389-0.871 0.871-0.871 0.872 0.39 0.872 0.871c0 0.48-0.39 0.871-0.872 0.871zM24.668 15.055h-4.878c-0.348 0-0.629-0.281-0.629-0.629s0.282-0.629 0.629-0.629h4.878c0.348 0 0.629 0.281 0.629 0.629s-0.282 0.629-0.629 0.629z"></path>
</svg>
