<!-- Generated by IcoMoon.io -->
<svg version="1.1" xmlns="http://www.w3.org/2000/svg" width="32" height="32" viewBox="0 0 32 32">
<title>washer</title>
<path d="M8.1 5h-0.1v-2.5h0.1c-0.95 0-1.9 0.3-2.75 0.7l1 2.050c0.55-0.25 1.15-0.25 1.75-0.25zM13.8 4.2c-0.85-0.8-1.9-1.3-3.050-1.5l-0.35 2.15c0.7 0.15 1.4 0.45 1.95 0.95l1.45-1.6zM5.15 6.2l-1.65-1.4c-0.75 0.9-1.25 1.95-1.4 3.1l2.15 0.3c0.15-0.75 0.45-1.45 0.9-2zM27.3 7.9c-0.15-1.15-0.6-2.25-1.4-3.1l-1.65 1.4c0.5 0.55 0.8 1.25 0.9 2l2.15-0.3zM19 4.85l-0.35-2.15c-1.15 0.2-2.2 0.7-3.050 1.5l1.5 1.6c0.5-0.45 1.2-0.8 1.9-0.95zM23.050 5.35l1-2.050c-0.85-0.45-1.8-0.8-2.75-0.8h-0.3v2.5h0.3c0.6 0 1.2 0.050 1.75 0.35zM28.6 13.3c-3.85-2.3-7.6-3.85-13.1-4.050v-0.6c0-0.55 0.25-1.1 0.5-1.6l-1.4-1.050-1.7 1.050c0.25 0.5 0.1 1.050 0.1 1.6v0.6c-4.5 0.25-8.7 1.85-12.55 4.15-0.2 0.15-0.4 1.1 0.4 1.6v0l9.1 9.7c1.5-0.55 3.15-0.9 4.8-0.9s3.25 0.25 4.7 0.75l9.3-10.1c0.35-0.6 0.050-0.95-0.15-1.15zM15.5 19h-1.9v-2.5h1.9v2.5zM15.5 15h-2.5v-4h2.5v4zM31.65 16.75v0l-0.6-2.25-10 10.65 2.3 0.45c0.1 0 0.2 0 0.35-0.2l3-3.2c0 0 0.050 0.050 0.050 0.050l0.65 0.6-4.9 5.25c-0.2 0.2-0.15 0.5 0 0.7l0.3 0.3c0.2 0.2 0.5 0.15 0.7 0l6.65-7.1c0.2-0.2 0.15-0.5 0-0.7l-0.3-0.3c0 0-0.050-0.050-0.050-0.050s-0.050-0.050-0.050-0.050l-0.9-0.85c0 0-0.050-0.050-0.050-0.050l2.8-2.95c0.050-0.1 0.050-0.2 0.050-0.3z"></path>
</svg>
