<!-- Generated by IcoMoon.io -->
<svg version="1.1" xmlns="http://www.w3.org/2000/svg" width="32" height="32" viewBox="0 0 32 32">
<title>washing-machine</title>
<path d="M16 25.2c3.977 0 7.2-3.224 7.2-7.2s-3.224-7.2-7.2-7.2-7.2 3.223-7.2 7.2 3.223 7.2 7.2 7.2zM18 19c3.579 0 4.48-4.579 4.48-1s-2.901 6.48-6.48 6.48-6.48-2.901-6.48-6.48 4.902 1 8.48 1zM25 0h-12.5v5.5h14.5v-3.5c0-1.105-0.895-2-2-2zM16.635 3.385c-0.352 0-0.635-0.284-0.635-0.635s0.284-0.635 0.635-0.635c0.351 0 0.634 0.284 0.634 0.635s-0.284 0.635-0.634 0.635zM18.75 3.385c-0.351 0-0.635-0.284-0.635-0.635s0.284-0.635 0.635-0.635 0.635 0.284 0.635 0.635-0.285 0.635-0.635 0.635zM20.865 3.385c-0.351 0-0.634-0.284-0.634-0.635s0.284-0.635 0.634-0.635c0.352 0 0.635 0.284 0.635 0.635s-0.284 0.635-0.635 0.635zM24.25 4c-0.691 0-1.25-0.559-1.25-1.25s0.559-1.25 1.25-1.25 1.25 0.559 1.25 1.25-0.559 1.25-1.25 1.25zM12 0h-5c-1.104 0-2 0.895-2 2v3.5h7v-5.5zM5 30c0 1.105 0.896 2 2 2h18c1.105 0 2-0.895 2-2v-24h-22v24zM16 9c4.971 0 9 4.029 9 9s-4.029 9-9 9-9-4.029-9-9 4.029-9 9-9z"></path>
</svg>
