<!-- Generated by IcoMoon.io -->
<svg version="1.1" xmlns="http://www.w3.org/2000/svg" width="32" height="32" viewBox="0 0 32 32">
<title>Waterpolo</title>
<path d="M21.166 8.5c0 2.025-1.642 3.666-3.666 3.666s-3.666-1.642-3.666-3.666c0-2.025 1.642-3.667 3.666-3.667s3.666 1.642 3.666 3.667zM7 6.75c0 1.519-1.231 2.75-2.75 2.75s-2.75-1.231-2.75-2.75c0-1.519 1.231-2.75 2.75-2.75s2.75 1.231 2.75 2.75zM31.55 23.979c-0.074-0.080-7.518-7.843-16.403-0.655 2.13-2.361 3.038-4.923 3.372-6.131 2.023-0.165 4.678 0.078 7.215 1.707 0.293 0.188 0.62 0.277 0.945 0.277 0.576 0 1.14-0.284 1.474-0.804 0.522-0.814 0.286-1.896-0.527-2.418-6.184-3.97-12.738-1.694-13.747-1.304-2.928 0.777-5.134 0.695-6.383-0.236-1.181-0.881-1.242-2.341-1.244-2.433-0.010-0.958-0.79-1.732-1.75-1.732-0.966 0-1.75 0.784-1.75 1.75 0 1.185 0.545 3.608 2.588 5.172 2.107 1.614 5.168 1.928 9.098 0.947-0.725 1.525-2.038 3.502-4.337 4.881-0.787 0.472-1.060 1.464-0.661 2.273-0.767 0.056-1.566 0.030-2.37-0.137-2.163-0.45-3.993-1.81-5.439-4.043-0.225-0.348-0.691-0.446-1.037-0.221-0.347 0.225-0.447 0.689-0.222 1.037 1.675 2.585 3.829 4.165 6.404 4.698 0.676 0.14 1.344 0.2 1.993 0.2 3.824 0 6.993-2.079 7.148-2.181 0.021-0.014 0.041-0.029 0.060-0.045 7.837-6.456 14.209 0.139 14.478 0.425 0.283 0.302 0.758 0.317 1.059 0.035s0.318-0.758 0.035-1.061z"></path>
</svg>
