<!-- Generated by IcoMoon.io -->
<svg version="1.1" xmlns="http://www.w3.org/2000/svg" width="32" height="32" viewBox="0 0 32 32">
<title>watermelon</title>
<path d="M21.050 22.85c6-3.3 8.35-10.65 5.6-16.8-0.25-0.5-0.85-0.7-1.35-0.45l-21.1 11.65c-0.5 0.25-0.65 0.9-0.35 1.35 3.75 5.65 11.2 7.55 17.2 4.25zM23.050 8.8c0 0 1.2 0.35 1.45 0.9 0.25 0.4 0.1 0.9-0.35 1.15-0.4 0.25-0.9 0.1-1.15-0.35-0.3-0.55 0.050-1.7 0.050-1.7zM21.6 13.95c0 0 1.2 0.35 1.45 0.9 0.25 0.4 0.1 0.9-0.35 1.15-0.4 0.25-0.9 0.1-1.15-0.35-0.3-0.55 0.050-1.7 0.050-1.7zM15.6 12.9c0 0 1.2 0.35 1.45 0.9 0.25 0.4 0.1 0.9-0.35 1.15-0.4 0.25-0.9 0.1-1.15-0.35-0.3-0.55 0.050-1.7 0.050-1.7zM18.9 18.85c0 0 1.2 0.35 1.45 0.9 0.25 0.4 0.1 0.9-0.35 1.15-0.4 0.25-0.9 0.1-1.15-0.35-0.3-0.5 0.050-1.65 0.050-1.7zM13.25 18.55c0 0 1.2 0.35 1.45 0.9 0.25 0.4 0.1 0.9-0.35 1.15-0.4 0.25-0.9 0.1-1.15-0.35-0.3-0.5 0.050-1.7 0.050-1.7zM8.15 17c0 0 1.2 0.35 1.45 0.9 0.25 0.4 0.1 0.9-0.35 1.15-0.4 0.25-0.9 0.1-1.15-0.35-0.3-0.5 0.050-1.65 0.050-1.7zM29.2 3.5l-1.2 0.65c-0.35 0.2-0.45 0.6-0.3 0.95 3.35 6.85 0.8 15.25-6 19s-15.25 1.4-19.25-5.15c-0.2-0.3-0.6-0.45-0.95-0.25l-1.2 0.65c-0.35 0.2-0.5 0.65-0.25 1 4.8 7.85 14.95 10.6 23 6.15s11.15-14.5 7.1-22.7c-0.15-0.4-0.6-0.5-0.95-0.3z"></path>
</svg>
