<!-- Generated by IcoMoon.io -->
<svg version="1.1" xmlns="http://www.w3.org/2000/svg" width="32" height="32" viewBox="0 0 32 32">
<title>water</title>
<path d="M23.4 22.45v-7.45c0.6-0.15 1.050-0.7 1.050-1.35v-1.55c0-3.25-1.95-6.1-4.7-7.3v-2.9c0-1.050-0.85-1.9-1.9-1.9h-3.7c-1.050 0-1.9 0.85-1.9 1.9v2.9c-2.75 1.2-4.7 4-4.7 7.3v1.55c0 0.75 0.6 1.35 1.3 1.4v7.2c-0.85 0.55-1.45 1.55-1.45 2.65v4c0 1.75 1.4 3.15 3.15 3.15h10.85c1.75 0 3.15-1.4 3.15-3.15v-4c0-1-0.45-1.9-1.15-2.45zM9.85 10.2c0.7-1.6 1.95-2.9 3.55-3.65 0.5-0.25 1.1-0.050 1.35 0.45 0.2 0.45 0.050 0.95-0.35 1.15-1.3 0.65-2.3 1.7-2.9 3-0.2 0.4-0.65 0.6-1.1 0.4-0.55-0.25-0.8-0.85-0.55-1.35zM18.2 20v0c0 1.2-1 2.2-2.2 2.2-1.25 0-2.2-1-2.2-2.2-0.050-1.7 2.2-3.95 2.2-3.95v0c0 0 2.2 2.15 2.2 3.85 0 0.050 0 0.050 0 0.1 0 0 0 0 0 0s0 0 0 0z"></path>
</svg>
