<!-- Generated by IcoMoon.io -->
<svg version="1.1" xmlns="http://www.w3.org/2000/svg" width="32" height="32" viewBox="0 0 32 32">
<title>webcam</title>
<path d="M25.099 30.28c0 0.003-0.001 0.006-0.001 0.009s0.001 0.006 0.001 0.009v-0.019zM6.385 30.299c0-0.003 0.001-0.006 0.001-0.009s-0.001-0.006-0.001-0.009v0.019zM19.755 13.443c0-2.216-1.797-4.013-4.012-4.013-2.216 0-4.013 1.797-4.013 4.012s1.797 4.012 4.013 4.012c2.215 0 4.012-1.796 4.012-4.012zM13.202 13.443c0-1.402 1.136-2.539 2.54-2.539 1.402 0 2.54 1.136 2.54 2.539s-1.137 2.539-2.54 2.539c-1.403 0-2.54-1.136-2.54-2.539zM17.5 26.647c6.5-0.761 11.65-6.381 11.65-13.203 0-7.343-6.009-13.295-13.353-13.295-7.342 0-13.427 5.952-13.427 13.295 0 6.823 5.13 12.442 11.63 13.203v1.998c0 0.038 0.216-0.145 0.219 0.355h-6.292c-0.849 0-1.537 0.652-1.542 1.5 0.005 0.848 0.694 1.5 1.543 1.5h15.629c0.849 0 1.537-0.651 1.543-1.5-0.005-0.848-0.693-1.5-1.543-1.5h-6.292c0.003-0.5 0.236-0.317 0.236-0.355v-1.998zM15.742 1.948c0.898 0 1.626 0.728 1.626 1.625s-0.729 1.626-1.626 1.626c-0.899 0-1.626-0.728-1.626-1.625s0.728-1.625 1.626-1.625zM8.883 13.443c0-3.787 3.070-6.859 6.859-6.859s6.86 3.071 6.86 6.859c0 3.789-3.072 6.859-6.86 6.859s-6.859-3.070-6.859-6.858z"></path>
</svg>
