<!-- Generated by IcoMoon.io -->
<svg version="1.1" xmlns="http://www.w3.org/2000/svg" width="32" height="32" viewBox="0 0 32 32">
<title>wet-floor</title>
<path d="M15.719 22.964c-0.11-0.072-0.232-0.108-0.363-0.108s-0.253 0.036-0.367 0.108-0.203 0.171-0.27 0.297c-0.067 0.126-0.101 0.266-0.101 0.421s0.033 0.296 0.101 0.424c0.066 0.128 0.156 0.229 0.27 0.301s0.236 0.11 0.367 0.11c0.132 0 0.253-0.037 0.363-0.11s0.198-0.173 0.262-0.301c0.065-0.128 0.097-0.269 0.097-0.424s-0.032-0.294-0.098-0.421c-0.065-0.125-0.152-0.225-0.262-0.297zM19.155 22.964c-0.11-0.072-0.232-0.108-0.363-0.108s-0.253 0.036-0.366 0.108c-0.113 0.072-0.203 0.171-0.27 0.297s-0.1 0.266-0.1 0.421 0.033 0.296 0.1 0.424c0.067 0.128 0.157 0.229 0.27 0.301s0.235 0.11 0.366 0.11c0.132 0 0.253-0.037 0.363-0.11s0.198-0.173 0.262-0.301 0.097-0.269 0.097-0.424-0.032-0.294-0.097-0.421c-0.064-0.125-0.152-0.225-0.262-0.297zM24.072 0h-16.147c-0.99 0-1.925 0.808-1.925 1.799v28.407c0 0.991 0.934 1.794 1.925 1.794h2.1c0.991 0 1.975-0.803 1.975-1.794v-3.206h8v3.206c0 0.991 0.981 1.794 1.972 1.794h2.1c0.991 0 1.928-0.803 1.928-1.794v-28.407c0-0.991-0.938-1.799-1.928-1.799zM18.5 7.5v-0.5h2.5v0.5h-1v3h-0.5v-3h-1zM20.5 4.282c0 0.396-0.322 0.718-0.718 0.718h-7.563c-0.397 0-0.719-0.322-0.719-0.718v-1.063c0-0.397 0.322-0.719 0.719-0.719h7.563c0.396 0 0.718 0.322 0.718 0.719v1.063zM17.5 8.5v0.5h-1.5v1h2v0.5h-2.5v-3.5h2.5v0.5h-2v1h1.5zM10.5 23h-1v0.5h1v0.5h-1v1h-0.5v-2.5h1.5v0.5zM10.435 7h0.796l0.575 2.7 0.561-2.7h0.729l0.575 2.7 0.565-2.7h0.763l-0.969 3.5h-0.768l-0.544-2.536-0.553 2.536h-0.772l-0.96-3.5zM14.108 13.691c0 0.585-0.474 1.059-1.059 1.059s-1.059-0.474-1.059-1.059 0.474-1.059 1.059-1.059c0.585 0 1.059 0.474 1.059 1.059zM13.5 25h-2v-2.5h0.5v2h1.5v0.5zM16.576 24.408c-0.122 0.218-0.291 0.39-0.506 0.514s-0.456 0.188-0.721 0.188c-0.263 0-0.502-0.063-0.716-0.188s-0.383-0.296-0.506-0.514-0.184-0.462-0.184-0.73c0-0.269 0.062-0.511 0.184-0.726s0.291-0.384 0.504-0.506c0.213-0.122 0.453-0.183 0.718-0.183s0.505 0.062 0.721 0.186c0.215 0.124 0.384 0.294 0.506 0.509s0.183 0.456 0.183 0.721c0 0.268-0.061 0.511-0.183 0.73zM20.011 24.408c-0.122 0.218-0.291 0.39-0.506 0.514s-0.455 0.188-0.721 0.188c-0.263 0-0.502-0.063-0.716-0.188-0.214-0.125-0.383-0.296-0.506-0.514s-0.184-0.462-0.184-0.73c0-0.269 0.061-0.511 0.184-0.726s0.291-0.384 0.504-0.506c0.213-0.122 0.453-0.183 0.718-0.183s0.506 0.062 0.721 0.186 0.384 0.294 0.506 0.509c0.123 0.215 0.184 0.456 0.184 0.721 0 0.268-0.061 0.511-0.184 0.73zM20.106 19.18l-2.148-1.050-1.495 0.596c-0.037 0.015-0.075 0.025-0.113 0.032-0.168 0.068-0.649 0.104-1.094-0.288l-1.858-1.838c-0.001-0.001-0.002-0.003-0.003-0.003l-0.409 1.005 0.156 1.722c0.017 0.273-0.191 0.509-0.465 0.526s-0.509-0.192-0.527-0.465l-0.172-1.649c-0.035-0.259 0.009-0.325 0.1-0.57l0.643-1.545c0.421-0.42 1.652-1.168 1.698-1.176l1.319-0.277 0.435-1.556c0.081-0.261 0.36-0.408 0.622-0.326s0.407 0.361 0.326 0.623l-0.501 1.789c-0.021 0.069-0.057 0.129-0.102 0.18-0.072 0.106-0.186 0.184-0.322 0.209l-0.964 0.204 1.208 1.195 0.331-0.5c0.090-0.134 0.212-0.231 0.345-0.287l1.953-1.239c0.3-0.197 0.703-0.113 0.898 0.188s0.113 0.703-0.188 0.899l-1.921 1.219c0.146-0.020 0.31-0.022 0.433 0.050 0.064 0.009 2.368 1.163 2.368 1.163 0.324 0.153 0.463 0.54 0.311 0.864s-0.54 0.463-0.864 0.311zM22.442 25l-0.387-0.5h-0.555v0.5h-0.5v-2.5h1.035c0.345 0 0.613-0.023 0.801 0.146s0.282 0.355 0.282 0.667c0 0.213-0.041 0.368-0.121 0.519s-0.198 0.216-0.352 0.299l0.547 0.869h-0.75zM22.035 22.844h-0.502v0.89h0.502c0.145 0 0.256-0.038 0.335-0.116s0.119-0.189 0.119-0.336c0-0.144-0.040-0.253-0.119-0.327s-0.192-0.111-0.335-0.111z"></path>
</svg>
