<!-- Generated by IcoMoon.io -->
<svg version="1.1" xmlns="http://www.w3.org/2000/svg" width="32" height="32" viewBox="0 0 32 32">
<title>wheelbarrow</title>
<path d="M28.21 18.12c-1.351-0.023-2.541 0.691-3.192 1.77l-0.491-0.103c0.625-1.369 3.445-7.532 4.201-8.902 0.811-1.472-0.125-1.921-1.187-1.938-0.951-0.017-14.677-0.251-17.527-0.3l-0.412-1.639-3.11-0.053c-0.166-0.22-0.425-0.367-0.722-0.372l-4.825-0.082c-0.513-0.008-0.936 0.4-0.945 0.913s0.4 0.936 0.912 0.945l4.827 0.083c0.279 0.005 0.527-0.116 0.701-0.307l2.238 0.039 1.985 7.897c0.486 2.128 1.386 6.052 1.534 6.625 0.299 1.155 1.154 1.959 2.178 2.050 0.053 0.005 0.105 0.007 0.158 0.008 1.029 0.017 1.961-0.68 2.516-1.896 0.167-0.367 0.774-1.779 1.359-3.144l6.166 1.291c-0.050 0.23-0.079 0.468-0.083 0.712-0.034 2.020 1.575 3.684 3.594 3.719s3.684-1.575 3.719-3.594-1.575-3.684-3.594-3.718zM15.976 22.364c-0.367 0.803-0.927 1.252-1.498 1.203-0.52-0.046-0.967-0.505-1.139-1.169-0.094-0.36-0.508-2.149-0.919-3.941l4.811 1.007c-0.552 1.289-1.102 2.566-1.255 2.901zM28.122 23.309c-0.847-0.015-1.521-0.713-1.507-1.559s0.712-1.522 1.559-1.508c0.847 0.014 1.521 0.712 1.507 1.559s-0.712 1.521-1.559 1.508z"></path>
</svg>
