<!-- Generated by IcoMoon.io -->
<svg version="1.1" xmlns="http://www.w3.org/2000/svg" width="32" height="32" viewBox="0 0 32 32">
<title>whistle</title>
<path d="M26.921 8.111c1.016 0 2.032-1.016 2.032-1.016 0.509-0.508 1.564-0.508 1.564-0.508-1.991-1.269-3.088-0.509-3.088-0.509-1.524 1.524-2.032 1.016-2.032 1.016l-5.079-2.54c-3.047-0.508-5.079 1.016-5.079 1.016l-15.239 16.584 6.603 3.734 15.746-15.746c2.54-3.048 4.572-2.031 4.572-2.031zM18.035 13.012l-5.588-2.902 3.041-3.345 5.588 2.902-3.041 3.345zM31.492 7.604c-0.976-1.016-2.54 0.508-2.54 0.508-0.508 1.015-2.032 0.508-2.032 0.508-1.015 0-2.54 1.015-2.54 1.015l-16.762 16.762 1.983 1.151c5.031-4.944 11.223-4.707 11.223-4.707s4.064 0.509 6.604-1.523c2.54-2.032 2.54-8.127 2.54-8.127 0-1.015 0.977-1.976 0.977-1.976 1.994-2.485 0.547-3.611 0.547-3.611zM30.962 9.528c-0.122 0.402-0.439 0.663-0.707 0.582s-0.387-0.474-0.265-0.877c0.122-0.402 0.439-0.663 0.706-0.582 0.269 0.082 0.387 0.474 0.265 0.877z"></path>
</svg>
