<!-- Generated by IcoMoon.io -->
<svg version="1.1" xmlns="http://www.w3.org/2000/svg" width="32" height="32" viewBox="0 0 32 32">
<title>whisk</title>
<path d="M7.050 12.050c-1.25 0.5-2.45 1.3-3.5 2.35-3.9 4.050-3.75 10.5 0.25 14.35 4.050 3.9 10.5 3.75 14.35-0.25 1-1.050 1.75-2.25 2.2-3.55v0c0 0 1.55-3.85 2.1-13.65 1.1 0.35 2.35 0.1 3.2-0.8l4.75-4.95c1.2-1.2 1.15-3.2-0.1-4.35-1.2-1.2-3.2-1.15-4.35 0.1l-4.75 4.95c-0.85 0.9-1.050 2.15-0.65 3.2-9.75 0.9-13.5 2.6-13.5 2.6v0zM5.9 25.4c0.45-2.85 1.85-5.7 4.050-8s5-3.85 7.85-4.35l-11.9 12.35zM19.2 14.050c-0.4 2.95-1.8 5.9-4.1 8.25s-5.2 3.95-8.1 4.45l12.2-12.7zM18.65 24.3c-0.4 1.1-1 2.050-1.8 2.9-2.65 2.75-6.7 3.25-9.85 1.55 3.45-0.55 6.8-2.35 9.45-5.15 1.5-1.55 2.7-3.3 3.5-5.2-0.45 3.15-0.95 4.9-1.15 5.55l-0.15 0.35zM29 2.45c0.4 0.4 0.4 1.050 0.050 1.45-0.4 0.4-1.050 0.4-1.45 0.050-0.4-0.4-0.4-1.050-0.050-1.45 0.4-0.45 1.050-0.45 1.45-0.050zM7.75 13.8l0.3-0.1c0.65-0.25 2.55-0.85 6.1-1.5-2 0.9-3.85 2.25-5.5 3.9-2.7 2.8-4.35 6.25-4.8 9.7-1.95-3.1-1.6-7.3 1.050-10.1 0.8-0.8 1.75-1.45 2.85-1.9z"></path>
</svg>
