<!-- Generated by IcoMoon.io -->
<svg version="1.1" xmlns="http://www.w3.org/2000/svg" width="32" height="32" viewBox="0 0 32 32">
<title>widescreen-heater</title>
<path d="M31.2 9c-4.45-2.9-9.2-4.5-15.2-4.5v0 0 0 0c-5.5 0-10.5 1.6-14.95 4.45-0.2 0.15-0.7 1 0.2 1.5v0l4.9 9.15c0.15 0.25 0.75 1.050 1.75 0.9-0.2-2.25 0.25-4.55 1.3-6.65l-0.7-0.3c0 0-0.5-0.4-0.1-0.9 0 0 0.15-0.2 0.35-0.4l3.65-3.25c0.35-0.3 0.65-0.2 0.65 0.3l-0.050 4.65c0 0.5-0.050 0.75-0.1 0.85-0.1 0.7-0.75 0.5-0.75 0.5l-0.8-0.35c-0.8 1.55-1.2 3.25-1.15 4.9 1.25-0.35 2.65-0.55 4.050-0.7 0 0 0-0.1 0-0.1 0 0.5 0 0.9 0.050 1.4 0 0 0 0 0 0 0.2 3 1.15 4.5 3 6.6 0 0 0 0 0 0 0.2 0.2 0.5 0.3 0.8 0.3 0.7 0 1.25-0.55 1.25-1.2 0-0.35-0.4-0.7-0.4-0.9v0.25c0 0 0 0 0 0-0.050 0-0.050-0.15-0.1-0.2-0.25-0.25-0.75-1-0.85-1.1-0.4-0.6-0.75-1.25-0.95-1.85s-0.35-1.25-0.4-1.9c0-0.15 0-0.35 0-0.55 0 0 0 0 0 0 0-0.25 0-0.5 0-0.75 1.35 0.050 2.75 0.2 4.050 0.45 0-1.9 0.45-3.85 1.35-5.6l-0.7-0.3c0 0-0.5-0.4-0.1-0.9 0 0 0.15-0.25 0.35-0.4l3.65-3.25c0.35-0.3 0.65-0.2 0.65 0.3l-0.050 4.6c0 0.5-0.050 0.75-0.1 0.85-0.1 0.7-0.75 0.5-0.75 0.5l-0.8-0.35c-0.85 1.65-1.2 3.45-1.1 5.2 0.25 0.1 0.8 0.2 0.8 0.3v0c2 0.6 2.15-0.5 2.35-0.8l5-9.25c0.85-0.5 0.15-1.35-0.050-1.5zM19.5 13.95c0 0.5-0.050 0.75-0.1 0.85-0.1 0.7-0.75 0.5-0.75 0.5l-0.8-0.35c-0.7 1.3-1.050 2.7-1.1 4.1-0.2 0-0.4 0-0.6 0-0.6 0-1.25 0.050-1.85 0.1 0.050-1.75 0.5-3.55 1.35-5.2l-0.7-0.3c0 0-0.5-0.4-0.1-0.9 0 0 0.15-0.25 0.35-0.4l3.65-3.25c0.35-0.3 0.65-0.2 0.65 0.3v4.55zM11 27.1c0.2 0.2 0.5 0.3 0.8 0.3 0.7 0 1.15-0.55 1.15-1.25 0-0.35 0-0.55-0.5-0.8v0.15h0.15c-0.050 0-0.050-0.15-0.1-0.2-0.25-0.25-0.8-1-0.85-1.1-0.95-1.3-1.65-2.55-1.7-4.3-0.65 0.15-1.5 0.35-2 0.55v0c0 0.1-0.2 0.15-0.35 0.2 0.25 2.65 1.35 4.45 3.25 6.5 0.050-0.050 0.15-0.050 0.15-0.050zM26 25.3c0 0-0.25 0-0.25 0-0.050-0.050-0.2-0.050-0.2-0.1-0.25-0.25-0.8-0.95-0.9-1.050-0.5-0.7-0.85-1.4-1.1-2.15-0.15-0.6-0.25-1.2-0.3-1.85-0.75-0.25-1.6-0.3-2.45-0.5 0 0.55 0.050 0.8 0.1 1.8v0c0.3 2.5 1.25 3.85 2.95 5.8 0 0 0-0.1 0-0.1 0.2 0.2 0.5 0.25 0.8 0.25 0.7 0 1.5-0.55 1.5-1.25 0-0.25-0.15-0.6-0.15-0.85v0z"></path>
</svg>
