<!-- Generated by IcoMoon.io -->
<svg version="1.1" xmlns="http://www.w3.org/2000/svg" width="32" height="32" viewBox="0 0 32 32">
<title>wifi</title>
<path d="M2.89 0.5l0.007 0 0.007-0.001zM9 7c0.604 0 1-0.5 1.364-0.973 2.033-1.801 4.707-2.896 7.636-2.896s5.602 1.095 7.636 2.896c0.364 0.473 0.761 0.973 1.364 0.973 0.657 0 1-0.5 1-1.131 0-0.396-0.060-0.88-0.358-1.096-2.489-2.429-5.889-3.928-9.642-3.928s-7.154 1.499-9.643 3.928c-0.357 0.727-0.357 1.227-0.357 1.227 0 0.5 0.5 1 1 1zM23.476 10.369c0.657 0 1.191-0.533 1.191-1.191 0-0.39-0.166-0.678-0.273-1.156-1.657-1.598-3.908-2.586-6.393-2.586s-4.736 0.988-6.393 2.586c-0.107 0.478-0.297 0.778-0.297 1.181 0 0.658 0.533 1.191 1.191 1.191 0.5 0 1-0.393 1.171-0.997 1.178-0.973 2.682-1.563 4.329-1.563 1.636 0 3.131 0.582 4.306 1.543 0.095 0.563 0.581 0.993 1.171 0.993zM19.905 12.512c0 1.184-0.959 2.143-2.143 2.143s-2.143-0.959-2.143-2.143c0-1.184 0.959-2.143 2.143-2.143s2.143 0.959 2.143 2.143zM29.294 18h-25.294v-16.405c0-0.603-0.399-1.090-1-1.094-0.601 0.004-1 0.492-1 1.094v16.561c-1 0.37-2 1.37-2 2.55v6.59c0 1.494 1.212 2.705 2.705 2.705h26.589c1.494 0 2.706-1.211 2.706-2.706v-6.589c0-1.494-1.212-2.706-2.706-2.706zM8 24.75c0 0.415-0.336 0.75-0.75 0.75h-1.5c-0.414 0-0.75-0.335-0.75-0.75v-1.5c0-0.415 0.336-0.75 0.75-0.75h1.5c0.414 0 0.75 0.335 0.75 0.75v1.5zM13 24.75c0 0.415-0.336 0.75-0.75 0.75h-1.5c-0.414 0-0.75-0.335-0.75-0.75v-1.5c0-0.415 0.336-0.75 0.75-0.75h1.5c0.414 0 0.75 0.335 0.75 0.75v1.5zM18 24.75c0 0.415-0.336 0.75-0.75 0.75h-1.5c-0.414 0-0.75-0.335-0.75-0.75v-1.5c0-0.415 0.336-0.75 0.75-0.75h1.5c0.414 0 0.75 0.335 0.75 0.75v1.5zM23 24.75c0 0.415-0.336 0.75-0.75 0.75h-1.5c-0.414 0-0.75-0.335-0.75-0.75v-1.5c0-0.415 0.336-0.75 0.75-0.75h1.5c0.414 0 0.75 0.335 0.75 0.75v1.5zM28 24.75c0 0.415-0.336 0.75-0.75 0.75h-1.5c-0.414 0-0.75-0.335-0.75-0.75v-1.5c0-0.415 0.336-0.75 0.75-0.75h1.5c0.414 0 0.75 0.335 0.75 0.75v1.5z"></path>
</svg>
