<!-- Generated by IcoMoon.io -->
<svg version="1.1" xmlns="http://www.w3.org/2000/svg" width="32" height="32" viewBox="0 0 32 32">
<title>wifi2</title>
<path d="M31.159 11.299c-4.204-4.132-9.402-6.435-15.299-6.412-5.901 0.024-10.71 2.364-14.883 6.537-0.028 0.028-0.055 0.056-0.083 0.085l-0.066 0.068c-0.304 0.307-0.318 0.819-0.012 1.125l2.014 2.014c0.149 0.149 0.339 0.188 0.549 0.187 0.208-0.001 0.393-0.127 0.54-0.274 0.002-0.003 0.005-0.005 0.007-0.007l0.088-0.036c0.020-0.021 0.054-0.028 0.074-0.050 6.766-6.864 17.079-7.121 23.958-0.096 0.302 0.308 0.831 0.328 1.136 0.023l2.012-2.014c0.149-0.148 0.209-0.371 0.209-0.581s-0.097-0.421-0.247-0.569zM15.586 13.515c-3.608 0.241-5.29 1.386-8.287 4.229-0.032 0.030-0.061 0.062-0.090 0.094l-0.061 0.063c-0.301 0.309-0.313 0.817-0.009 1.122l1.756 1.756c0.149 0.149 0.382 0.23 0.593 0.228 0.206-0.003 0.431-0.088 0.578-0.233 0.004-0.003 0.007-0.008 0.011-0.011 0.027-0.028 0.039-0.069 0.064-0.098 0.012-0.013 0.018-0.033 0.031-0.047 3.072-3.071 7.661-3.742 11.552 0.177 0.302 0.304 0.817 0.31 1.119 0.008l2.309-2.309c0.149-0.149 0.21-0.373 0.209-0.584s-0.096-0.425-0.25-0.57c-2.287-2.149-5.352-4.101-9.525-3.823zM18.613 24.36c0 1.521-1.233 2.754-2.754 2.754s-2.754-1.233-2.754-2.754c0-1.521 1.233-2.754 2.754-2.754s2.754 1.233 2.754 2.754z"></path>
</svg>
