<!-- Generated by IcoMoon.io -->
<svg version="1.1" xmlns="http://www.w3.org/2000/svg" width="32" height="32" viewBox="0 0 32 32">
<title>window-close</title>
<path d="M31 4.5h-30c-0.552 0-1 0.448-1 1v21.5c0 0.552 0.448 1 1 1h30c0.552 0 1-0.448 1-1v-21.5c0-0.552-0.448-1-1-1zM29 24.518c0 0.266-0.215 0.482-0.482 0.482h-25.037c-0.266 0-0.482-0.215-0.482-0.482v-13.037c0-0.266 0.216-0.482 0.482-0.482h25.037c0.266 0 0.482 0.216 0.482 0.482v13.037zM21.087 14.087l-1.174-1.174c-0.412-0.412-0.762-0.412-1.174 0l-2.739 2.732-2.739-2.732c-0.412-0.412-0.762-0.412-1.174 0l-1.174 1.174c-0.412 0.412-0.412 0.762 0 1.174l2.732 2.739-2.732 2.739c-0.412 0.412-0.412 0.762 0 1.174l1.174 1.174c0.412 0.412 0.762 0.412 1.174 0l2.739-2.733 2.739 2.732c0.412 0.412 0.762 0.412 1.174 0l1.174-1.174c0.412-0.412 0.412-0.762 0-1.174l-2.732-2.739 2.732-2.739c0.412-0.412 0.412-0.761 0-1.174z"></path>
</svg>
