<!-- Generated by IcoMoon.io -->
<svg version="1.1" xmlns="http://www.w3.org/2000/svg" width="32" height="32" viewBox="0 0 32 32">
<title>wind-gauge</title>
<path d="M17.723 8.5h4.277c0.044 0 0.086 0.024 0.128 0.018 0.506 2.226 2.492 3.904 4.872 3.904 2.761 0 5-2.23 5-4.992s-2.239-4.996-5-4.996c-2.465 0-4.508 1.756-4.92 4.104-0.027-0.003-0.052-0.037-0.080-0.037h-4.277c-0.346-0.5-0.985-1-1.723-1s-1.376 0.5-1.723 1h-4.277c-0.027 0-0.053 0.037-0.080 0.039-0.412-2.347-2.455-4.117-4.92-4.117-2.761 0-5 2.247-5 5.008s2.239 5.004 5 5.004c2.379 0 4.366-1.692 4.872-3.918 0.043 0.005 0.085-0.017 0.129-0.017h4.277c0.175 0.5 0.422 0.611 0.723 0.785v8.715h-12.5c-0.552 0-1 0.511-1 1.063v9.5c0 0.552 0.448 0.938 1 0.938h27c0.552 0 1-0.386 1-0.938v-9.5c0-0.552-0.448-1.063-1-1.063h-12.5v-8.715c0.3-0.175 0.548-0.285 0.723-0.785zM5 10.438c-1.655 0-3-1.345-3-3s1.345-3 3-3 3 1.345 3 3-1.345 3-3 3zM10 26.063c-1.104 0-2-0.895-2-2s0.896-2 2-2 2 0.895 2 2-0.896 2-2 2zM22 22.063c1.105 0 2 0.895 2 2s-0.895 2-2 2-2-0.895-2-2 0.895-2 2-2zM18 24.063c0 1.105-0.895 2-2 2s-2-0.895-2-2 0.896-2 2-2 2 0.895 2 2z"></path>
</svg>
