<!-- Generated by IcoMoon.io -->
<svg version="1.1" xmlns="http://www.w3.org/2000/svg" width="32" height="32" viewBox="0 0 32 32">
<title>wind-vane</title>
<path d="M31.372 0.682c-0.162-0.162-0.398-0.226-0.619-0.166l-7.576 2.030c-0.111 0.030-0.209 0.088-0.287 0.166-0.102 0.102-0.169 0.237-0.184 0.386-0.027 0.264 0.11 0.517 0.348 0.637l2.697 1.368-9.814 9.815-3.517-1.278c-0.275-0.275-0.655-0.209-0.93 0.067l-10.47 10.469c-0.275 0.275-0.345 0.652-0.070 0.927l4.663 1.675 1.49 4.479c0.275 0.275 0.712 0.265 0.987-0.010l10.469-10.469c0.275-0.275 0.285-0.712 0.009-0.987l-1.155-3.525 9.677-9.678 1.224 2.412c0.12 0.237 0.374 0.375 0.637 0.348 0.149-0.015 0.285-0.083 0.386-0.184 0.078-0.078 0.136-0.176 0.166-0.287l2.030-7.577c0.061-0.22-0.003-0.456-0.165-0.618z"></path>
</svg>
