<!-- Generated by IcoMoon.io -->
<svg version="1.1" xmlns="http://www.w3.org/2000/svg" width="32" height="32" viewBox="0 0 32 32">
<title>windy</title>
<path d="M25.43 8.156c0.326-0.521 0.518-1.134 0.518-1.794 0-1.867-1.514-3.381-3.381-3.381-1.017 0-1.927 0.451-2.546 1.162-0.828-2.299-3.023-3.946-5.608-3.946-3.296 0-5.967 2.671-5.967 5.967 0 0.078 0.009 0.154 0.011 0.231-2.306 0.681-4.24 2.812-4.24 5.338 0 2.79 1.979 4.862 4.479 5.268 0.067 0 0.415 0 0.957 0-0.055-0.311-0.088-0.631-0.088-0.961 0-2.889 2.351-5.239 5.24-5.239 2.888 0 5.24 2.351 5.24 5.239 0 0.058-0.008 0.114-0.009 0.173 0.925-1.488 2.57-2.482 4.447-2.482 1.649 0 3.121 0.768 4.082 1.962 0.763-0.745 1.236-1.765 1.236-2.966 0-2.501-1.881-4.529-4.372-4.57zM14.84 20.024c2.026-0.131 3.724-1.738 3.724-3.79 0-2.139-1.741-3.871-3.88-3.871s-3.881 1.671-3.881 3.81c0 0.695 0.175 1.326 0.481 1.826h-8.124c-0.531 0-0.963 0.468-0.963 1s0.431 1 0.963 1h11.552c0.044 0 0.086 0.030 0.127 0.024zM12.729 16.178c0-1.078 0.877-1.918 1.955-1.918s1.954 0.896 1.954 1.974c0 0.988-0.739 1.732-1.691 1.863l-0.717-0.098c-0.858 0-1.501-0.901-1.501-1.822zM24.136 15.202c-2.139 0-3.88 1.722-3.88 3.862 0 0.713 0.197 1.436 0.534 1.936h-8.002c-0.531 0-0.963 0.468-0.963 1s0.431 1 0.963 1h11.553c0.069 0 0.135-0.026 0.199-0.040 1.951-0.203 3.477-1.875 3.477-3.878 0-2.14-1.74-3.88-3.88-3.88zM24.136 21.038c-1.078 0-1.954-0.877-1.954-1.955s0.877-1.955 1.954-1.955c1.078 0 1.955 0.877 1.955 1.955s-0.877 1.955-1.955 1.955zM18.564 24h-11.553c-0.532 0-0.963 0.468-0.963 1s0.431 1 0.963 1h8.136c-0.329 0.5-0.522 1.127-0.522 1.822 0 2.139 1.74 3.843 3.88 3.843s3.881-1.722 3.881-3.862c0-2.139-1.683-3.803-3.822-3.803zM18.505 29.701c-1.078 0-1.954-0.802-1.954-1.881 0-0.921 0.642-1.822 1.5-1.822l0.74-0.105c0.942 0.14 1.669 0.909 1.669 1.889 0 1.078-0.877 1.918-1.954 1.918z"></path>
</svg>
