<!-- Generated by IcoMoon.io -->
<svg version="1.1" xmlns="http://www.w3.org/2000/svg" width="32" height="32" viewBox="0 0 32 32">
<title>window-restore</title>
<path d="M31 0h-22c-0.552 0-1 0.448-1 1v7.5h-7c-0.552 0-1 0.448-1 1v21.5c0 0.552 0.448 1 1 1h22c0.552 0 1-0.448 1-1v-7.5h7c0.552 0 1-0.448 1-1v-21.5c0-0.552-0.448-1-1-1zM21 28.518c0 0.266-0.216 0.482-0.482 0.482h-17.037c-0.265 0-0.482-0.215-0.482-0.482v-13.037c0-0.266 0.216-0.482 0.482-0.482h17.037c0.265 0 0.482 0.216 0.482 0.482v13.037zM29 20.018c0 0.266-0.216 0.482-0.482 0.482h-4.518v-11c0-0.552-0.448-1-1-1h-12v-1.518c0-0.266 0.216-0.481 0.482-0.481h17.037c0.265 0 0.482 0.215 0.482 0.481v13.037z"></path>
</svg>
