<!-- Generated by IcoMoon.io -->
<svg version="1.1" xmlns="http://www.w3.org/2000/svg" width="32" height="32" viewBox="0 0 32 32">
<title>winter-cap</title>
<path d="M7.538 12.005c0.119 0 0.231 0.046 0.314 0.13l2.506 2.506 2.507-2.506c0.084-0.084 0.197-0.13 0.314-0.13s0.232 0.046 0.314 0.13l2.506 2.506 2.506-2.506c0.084-0.084 0.197-0.13 0.314-0.13s0.23 0.046 0.314 0.13l2.505 2.506 2.508-2.507c0.174-0.172 0.455-0.173 0.628 0.001l2.264 2.264v-0.042c0-0.771-0.088-1.52-0.239-2.246l-2.34-2.341-2.506 2.506c-0 0.001-0 0.001-0.001 0.002-0.087 0.086-0.201 0.13-0.314 0.13-0.114 0-0.227-0.043-0.314-0.13l-2.506-2.507-2.506 2.506c0 0.001 0 0.001-0.001 0.002-0.087 0.086-0.2 0.13-0.314 0.13-0.062 0-0.121-0.014-0.178-0.040-0.049-0.021-0.096-0.050-0.136-0.090-0.001-0.001-0.001-0.001-0.001-0.002l-2.505-2.506-2.505 2.506c-0.001 0.001-0.001 0.001-0.001 0.002-0.087 0.086-0.201 0.13-0.315 0.13-0.062 0-0.121-0.014-0.178-0.040-0.050-0.021-0.095-0.050-0.136-0.090 0-0.001 0-0.001-0.001-0.002l-2.505-2.506-2.339 2.339c-0.151 0.727-0.239 1.476-0.239 2.248v0.041l2.263-2.264c0.083-0.084 0.197-0.13 0.314-0.13zM7.538 8.697c0.119 0 0.231 0.047 0.314 0.13l2.506 2.507 2.507-2.507c0.083-0.084 0.197-0.13 0.314-0.13s0.232 0.047 0.314 0.13l2.506 2.507 2.506-2.507c0.084-0.084 0.197-0.13 0.314-0.13s0.23 0.047 0.314 0.13l2.506 2.507 2.507-2.507c0.084-0.084 0.196-0.13 0.314-0.13 0.117 0 0.231 0.047 0.314 0.13l1.492 1.492c-1.238-3.138-3.864-5.575-7.129-6.543 0.035-0.188 0.055-0.383 0.055-0.582 0-1.766-1.431-3.196-3.195-3.196s-3.195 1.429-3.195 3.196c0 0.199 0.021 0.393 0.056 0.582-3.264 0.968-5.89 3.405-7.127 6.543l1.491-1.492c0.083-0.084 0.197-0.13 0.314-0.13zM27.040 27.636v-12.004c-0.024-0.016-0.052-0.027-0.073-0.048l-2.506-2.506-2.508 2.507c-0.087 0.086-0.201 0.13-0.314 0.13-0.114 0-0.227-0.043-0.314-0.13l-2.506-2.506-2.506 2.505c0 0 0 0.001-0.001 0.002-0.035 0.036-0.078 0.059-0.122 0.081-0.113 0.055-0.243 0.064-0.36 0.017-0.054-0.021-0.104-0.054-0.147-0.098l-2.507-2.507-2.505 2.505c-0.001 0.001-0.001 0.001-0.001 0.001-0.034 0.035-0.076 0.057-0.118 0.078-0.063 0.031-0.128 0.052-0.197 0.052-0.114 0-0.228-0.043-0.315-0.13l-2.506-2.507-2.505 2.506c-0.021 0.021-0.048 0.031-0.072 0.047v12.005c-0.574 0.448-0.949 1.137-0.949 1.921 0 1.35 1.095 2.444 2.445 2.444 1.349 0 2.444-1.094 2.444-2.444 0-0.75-0.345-1.412-0.876-1.86v-2.561c0-4.405 3.572-7.977 7.976-7.977s7.976 3.572 7.976 7.977v2.561c-0.532 0.448-0.875 1.111-0.875 1.861 0 1.35 1.094 2.444 2.445 2.444 1.349 0 2.444-1.094 2.444-2.444 0.002-0.784-0.375-1.474-0.948-1.921z"></path>
</svg>
