<!-- Generated by IcoMoon.io -->
<svg version="1.1" xmlns="http://www.w3.org/2000/svg" width="32" height="32" viewBox="0 0 32 32">
<title>women-socks</title>
<path d="M13.111 2.579c-0.446-1.19-0.764-1.948-0.959-1.808-0.449 0.323-2.11 1.462-3.324 2.316-1.381 0.971-4.052 1.93-4.506 2.127-0.232 0.1 0.151 0.844 0.769 1.86 1.085-0.347 4.965-1.728 8.020-4.495zM15.892 20.791l0.669-0.293c4.338-1.966 3.436-6.13 0.615-9.473-1.595-1.891-2.809-5.050-3.666-7.367-2.96 2.558-6.455 3.89-7.835 4.349 1.351 2.129 3.151 4.834 2.96 5.707-0.517 2.354-2.232 6.217-4.519 8.443 1.554 0.369 3.273 1.348 4.413 3.688 0.129 0.265 0.018 0.584-0.246 0.713-0.075 0.037-0.155 0.054-0.233 0.054-0.197 0-0.388-0.11-0.481-0.3-1.179-2.42-3.038-3.136-4.508-3.281-0.173 0.118-0.346 0.228-0.523 0.323-4.454 2.407-2.433 5.439 1.375 5.439 1.797 0 5.097-0.203 6.117-1.648 1.996-2.829 2.421-5.143 5.863-6.354zM25.556 5.030c-0.445-1.191-0.764-1.948-0.959-1.808-0.45 0.322-2.11 1.462-3.324 2.316-1.382 0.971-4.052 1.931-4.507 2.127-0.232 0.1 0.151 0.844 0.77 1.86 1.084-0.348 4.966-1.729 8.020-4.495zM29.622 13.476c-1.596-1.89-2.808-5.050-3.666-7.367-2.959 2.557-6.455 3.89-7.835 4.349 1.351 2.129 3.151 4.834 2.96 5.707-0.517 2.353-2.232 6.217-4.52 8.443 1.553 0.369 3.273 1.348 4.413 3.688 0.129 0.265 0.018 0.584-0.246 0.713-0.075 0.037-0.155 0.054-0.233 0.054-0.198 0-0.387-0.11-0.48-0.3-1.177-2.421-3.038-3.136-4.508-3.281-0.173 0.118-0.347 0.228-0.524 0.323-4.454 2.407-2.434 5.439 1.375 5.439 1.796 0 5.096-0.203 6.117-1.648 1.995-2.83 2.421-5.144 5.863-6.355l0.669-0.293c4.338-1.965 3.437-6.129 0.616-9.472z"></path>
</svg>
