<!-- Generated by IcoMoon.io -->
<svg version="1.1" xmlns="http://www.w3.org/2000/svg" width="32" height="32" viewBox="0 0 32 32">
<title>women-long-coat</title>
<path d="M13.079 2.474c0.053 0.093 0.066 0.204 0.033 0.306l-0.416 1.327 3.305 2.784 3.304-2.784-0.416-1.327c-0.032-0.103-0.020-0.213 0.033-0.306s0.144-0.159 0.249-0.183l1.627-0.367-0.331-1.573-0.802-0.294c-0.378-0.157-0.815 0.011-0.994 0.38-0.291 0.6-2.664 5.077-2.664 5.077h-0.011c0 0-2.374-4.478-2.665-5.077-0.178-0.369-0.614-0.536-0.993-0.38l-0.802 0.294-0.331 1.573 1.627 0.366c0.104 0.023 0.194 0.090 0.248 0.183zM30.587 18.219l-6.157-16.008c-0.047-0.26-0.221-0.474-0.465-0.575l-2.648-0.972 0.31 1.473c0.044 0.205-0.087 0.407-0.291 0.454l-1.59 0.357 0.368 1.173c0.047 0.147-0 0.309-0.118 0.409l-3.579 3.016v22.052c0 0.227-0.183 0.41-0.41 0.41-0.226 0-0.409-0.183-0.409-0.41v-22.041l-3.592-3.026c-0.117-0.099-0.165-0.261-0.118-0.409l0.368-1.173-1.589-0.357c-0.205-0.046-0.335-0.248-0.291-0.454l0.31-1.473-2.649 0.972c-0.244 0.101-0.418 0.315-0.466 0.575l-6.157 16.007c-0.073 0.404 0.18 0.795 0.58 0.891l2.76 1.113c0.061 0.015 0.122 0.021 0.183 0.021 0.144 0 0.284-0.040 0.409-0.118 0.178-0.111 0.301-0.285 0.345-0.491l3.752-10.204-1.89 21.794c0 0.427 0.348 0.773 0.774 0.773h15.35c0.426 0 0.773-0.346 0.773-0.773l-1.89-21.794 3.751 10.204c0.045 0.206 0.168 0.38 0.345 0.491 0.126 0.078 0.266 0.118 0.409 0.118 0.061 0 0.122-0.007 0.183-0.021l2.761-1.113c0.399-0.096 0.654-0.487 0.58-0.891zM13.819 16.41h-3.508c-0.226 0-0.409-0.183-0.409-0.41s0.182-0.409 0.409-0.409h3.508c0.226 0 0.409 0.184 0.409 0.409s-0.184 0.41-0.409 0.41zM21.689 16.41h-3.508c-0.227 0-0.41-0.183-0.41-0.41s0.183-0.409 0.41-0.409h3.508c0.227 0 0.41 0.184 0.41 0.409s-0.183 0.41-0.41 0.41z"></path>
</svg>
