<!-- Generated by IcoMoon.io -->
<svg version="1.1" xmlns="http://www.w3.org/2000/svg" width="32" height="32" viewBox="0 0 32 32">
<title>women-bag</title>
<path d="M16.003 17.433c-1.44 0-2.606 1.163-2.606 2.603 0 1.438 1.166 2.603 2.606 2.603 1.437 0 2.601-1.166 2.601-2.603 0-1.441-1.163-2.603-2.601-2.603zM3.697 14.553c0.311 0.132 5.371 2.485 8.904 4.131 0.54-1.351 1.86-2.309 3.402-2.309 1.54 0 2.858 0.958 3.396 2.309 3.534-1.645 8.594-3.998 8.904-4.13 0.596-0.252 0.402-0.952 0.402-0.952s-0.36-2.248-0.495-3.006c-0.105-0.589-0.718-0.568-0.718-0.568h-3.317v-1.851c0-4.508-3.667-8.176-8.175-8.176s-8.176 3.668-8.176 8.176v1.851h-3.317c0 0-0.612-0.021-0.717 0.568-0.135 0.759-0.496 3.006-0.496 3.006s-0.192 0.7 0.404 0.952zM10.47 8.176c0-3.049 2.481-5.53 5.53-5.53s5.53 2.481 5.53 5.53v1.851h-11.060v-1.851zM31.497 31.024c0 0-2.307-14.22-2.405-14.741-0.091-0.48-0.519-0.271-0.519-0.271l-8.918 4.142c-0.063 1.965-1.674 3.544-3.652 3.544-1.981 0-3.595-1.58-3.658-3.544l-8.918-4.142c0 0-0.428-0.209-0.519 0.271-0.098 0.52-2.405 14.742-2.405 14.742s-0.208 0.975 0.708 0.975c1.039 0 14.418 0 14.418 0h0.744c0 0 13.378 0 14.418 0 0.916 0 0.708-0.976 0.708-0.976z"></path>
</svg>
