<!-- Generated by IcoMoon.io -->
<svg version="1.1" xmlns="http://www.w3.org/2000/svg" width="32" height="32" viewBox="0 0 32 32">
<title>women-shoe</title>
<path d="M31.253 7.12c-0.445-0.834-1.18-1.965-1.866-2.607-0.357-0.336-0.665-0.445-0.942-0.404-0.473 0.069-0.825 0.596-1.245 1.14-1.978 2.559-2.902 3.571-4.567 5.535-2.823 3.334-5.729 7.178-9.588 9.33-1.456 0.814-3.952 1.424-5.668 1.102-1.493-0.278-8.857 4.55-7.112 5.84 0.57 0.419 1.639 0.419 2.303 0.483 2.801 0.27 5.78 0.451 8.595 0.318 2.579-0.122 5.194-0.796 6.947-2.818 1.078-1.244 1.604-2.774 2.534-4.093 0.784-1.111 1.826-2.096 2.924-2.892 1.833-1.328 1.808 0.793 1.876 2.273 0.045 0.973 0.319 5.896 0.419 7.152h1.62c-0.044-0.831-0.073-5.837 0.667-8.192 0.66-2.101 2.287-3.68 3.119-5.69 0.866-2.093 1.077-4.425-0.017-6.476z"></path>
</svg>
