<!-- Generated by IcoMoon.io -->
<svg version="1.1" xmlns="http://www.w3.org/2000/svg" width="32" height="32" viewBox="0 0 32 32">
<title>women-track-suit</title>
<path d="M10.781 15.308v1.212h10.437v-1.213c0-0.587 0.16-2.449 0.792-3.932 0.674-1.582 1.462-3.169 0.214-5.782-0.605-1.268-0.84-2.876-0.84-2.876v-2.168c0.001-0.303-0.255-0.55-0.571-0.55-0.314 0-0.57 0.246-0.57 0.549v2.606c0 2.257-1.901 4.087-4.243 4.087-2.344 0-4.244-1.829-4.244-4.087v-2.605c0-0.303-0.255-0.549-0.57-0.549s-0.571 0.246-0.571 0.549v2.167c0 0-0.234 1.609-0.84 2.876-1.248 2.612-0.459 4.199 0.214 5.782 0.632 1.484 0.792 3.345 0.792 3.933zM23.075 22.288h-14.149c-0.591 2.718 0.166 7.008 1.152 9.209 0.119 0.265 0.286 0.503 0.584 0.503h4.089c0.473 0 0.613-0.407 0.665-0.672l0.583-3.771h0.002l0.583 3.771c0.052 0.264 0.192 0.672 0.665 0.672h4.090c0.299 0 0.465-0.238 0.584-0.503 0.986-2.201 1.744-6.492 1.152-9.209zM17.27 18.463h-6.628c0 0.006-0.873 1.471-1.389 2.761h13.493c-0.516-1.289-1.389-2.755-1.389-2.761h-4.087z"></path>
</svg>
