<!-- Generated by IcoMoon.io -->
<svg version="1.1" xmlns="http://www.w3.org/2000/svg" width="32" height="32" viewBox="0 0 32 32">
<title>women-suit</title>
<path d="M25.15 5.816l-1.175-3.513c-0.343-1.081-1.398-1.736-2.485-1.612l-2.832-0.692c0.047 0.194 0.099 0.396 0.075 0.603-0.172 1.436-1.224 2.099-2.733 2.099-1.51-0.001-2.561-0.663-2.733-2.099-0.025-0.207 0.027-0.408 0.074-0.603l-2.832 0.692c-1.085-0.123-2.142 0.531-2.484 1.612l-1.175 3.513c-0.141 0.446-0.139 0.902-0.023 1.322l3.729 1.181c0.172-0.141 0.324-0.309 0.451-0.497 0.114 1.572 0.156 3.075 0.036 4.101-0.149 1.262-0.877 1.953-1.56 3.402-0.332 0.704-0.159 1.4 0.52 1.4 0.039 0 0.093 0 0.146 0h11.748c0.034 0 0.075 0 0.101 0 0.678 0 0.851-0.697 0.52-1.4-0.683-1.45-1.41-2.14-1.559-3.402-0.121-1.025-0.078-2.528 0.035-4.101 0.128 0.188 0.279 0.355 0.451 0.496l3.73-1.181c0.116-0.42 0.117-0.876-0.024-1.322zM15.999 12.627c-0.388 0-0.704-0.315-0.704-0.704 0-0.387 0.316-0.703 0.704-0.703 0.389 0 0.704 0.315 0.704 0.703 0 0.389-0.314 0.704-0.704 0.704zM15.999 9.207c-0.388 0-0.704-0.315-0.704-0.704s0.316-0.703 0.704-0.703c0.389 0 0.704 0.314 0.704 0.703s-0.314 0.704-0.704 0.704zM15.999 5.787c-0.388 0-0.704-0.314-0.704-0.703s0.316-0.703 0.704-0.703c0.389 0 0.704 0.314 0.704 0.703s-0.314 0.703-0.704 0.703zM22.396 17.988h-12.749c-0.015 0.045-0.034 0.093-0.046 0.137-0.796 2.857-0.216 4.782 0.734 13.336 0.034 0.308 0.293 0.539 0.602 0.539h6.611c0.256 0 0.485-0.162 0.57-0.402l0.427-3.754 0.427 3.754c0.086 0.241 0.316 0.402 0.571 0.402h1.557c0.31 0 0.57-0.232 0.604-0.54 0.949-8.554 1.447-10.198 0.734-13.336-0.011-0.044-0.029-0.091-0.041-0.137z"></path>
</svg>
