<!-- Generated by IcoMoon.io -->
<svg version="1.1" xmlns="http://www.w3.org/2000/svg" width="32" height="32" viewBox="0 0 32 32">
<title>women-coat</title>
<path d="M12.873 0.513c-0.21-0.432-0.72-0.628-1.164-0.446l-0.448 0.165-0.341 5.744 4.799-1.917c-0.71-0.817-2.572-2.98-2.846-3.546zM20.733 0.231l-0.442-0.163c-0.444-0.183-0.954 0.012-1.163 0.446-0.275 0.566-2.141 2.728-2.854 3.545l4.802 1.918-0.341-5.745zM31.802 17.831l-5.927-15.241c-0.055-0.304-0.26-0.556-0.545-0.673l-3.786-1.389 0.358 6.024c0.009 0.136-0.053 0.265-0.163 0.345-0.069 0.050-0.149 0.074-0.232 0.074-0.050 0-0.099-0.010-0.147-0.029l-5.363-2.141-5.362 2.142c-0.048 0.019-0.098 0.029-0.147 0.029-0.082 0-0.163-0.026-0.232-0.074-0.11-0.080-0.171-0.209-0.163-0.345l0.357-6.021-3.78 1.387c-0.285 0.117-0.489 0.37-0.545 0.673l-5.926 15.24c-0.086 0.473 0.212 0.931 0.679 1.044l3.232 1.304c0.071 0.017 0.143 0.026 0.215 0.026 0.168 0 0.333-0.047 0.479-0.139 0.209-0.131 0.353-0.334 0.405-0.575l3.108-8.443-2.214 20.044c0 0.5 0.407 0.907 0.906 0.907h8.517v-13.581c0-0.262 0.213-0.475 0.474-0.475s0.476 0.212 0.476 0.475v13.581h8.516c0.499 0 0.906-0.407 0.906-0.907l-2.214-20.044 3.108 8.442c0.052 0.241 0.196 0.445 0.405 0.575 0.145 0.091 0.311 0.139 0.479 0.139 0.072 0 0.144-0.009 0.215-0.026l3.233-1.304c0.467-0.113 0.764-0.572 0.678-1.044zM16 15.228c-0.396 0-0.718-0.321-0.718-0.717s0.322-0.717 0.718-0.717c0.397 0 0.718 0.321 0.718 0.717s-0.32 0.717-0.718 0.717zM16 11.74c-0.396 0-0.718-0.321-0.718-0.717s0.322-0.717 0.718-0.717c0.397 0 0.718 0.321 0.718 0.717s-0.32 0.717-0.718 0.717zM16 8.252c-0.396 0-0.718-0.322-0.718-0.718s0.322-0.717 0.718-0.717c0.397 0 0.718 0.321 0.718 0.717s-0.32 0.718-0.718 0.718z"></path>
</svg>
