<!-- Generated by IcoMoon.io -->
<svg version="1.1" xmlns="http://www.w3.org/2000/svg" width="32" height="32" viewBox="0 0 32 32">
<title>women-wallet</title>
<path d="M3.372 13.625c-0.058-0.27-0.091-0.549-0.091-0.835 0-2.16 1.754-3.92 3.922-3.92h17.595c2.171 0 3.921 1.76 3.921 3.92 0 0.287-0.032 0.566-0.091 0.837 0.921-0.8 1.504-1.979 1.504-3.296 0-2.4-1.945-4.355-4.357-4.355h-5.979l-1.081-1.332c0.897-0.375 1.486-1.241 1.486-2.22 0-1.335-1.087-2.422-2.421-2.422-0.68 0-1.318 0.286-1.777 0.791-0.461-0.505-1.099-0.791-1.778-0.791-1.336 0-2.423 1.087-2.423 2.422 0 0.979 0.589 1.846 1.486 2.22l-1.082 1.333h-5.979c-2.409 0-4.357 1.955-4.357 4.355 0 1.317 0.584 2.495 1.503 3.295zM17.779 1.538c0.485 0.002 0.881 0.399 0.881 0.885 0 0.485-0.395 0.881-0.881 0.881-0.486-0.001-0.883-0.397-0.884-0.881 0.001-0.486 0.398-0.883 0.884-0.885zM14.223 1.539c0.486 0 0.882 0.396 0.883 0.883-0.001 0.485-0.398 0.881-0.883 0.881-0.488-0.001-0.883-0.397-0.883-0.881 0.001-0.487 0.396-0.883 0.883-0.883zM16.001 4.050c0.107 0.115 0.921 1.078 1.636 1.926h-3.269c0.713-0.848 1.526-1.81 1.633-1.926zM30.201 24.971c-0.764-2.608-1.197-3.213-1.631-4.573-0.516-1.617-0.966-3.535-0.933-6.282 0.041-3.329-1.78-4.089-3.706-4.089h-15.861c-1.927 0-3.747 0.761-3.707 4.089 0.033 2.747-0.417 4.663-0.933 6.282-0.434 1.359-0.867 1.964-1.631 4.572-1.198 4.093 1.801 7.029 3.728 7.029h20.948c1.926 0 4.925-2.936 3.727-7.029z"></path>
</svg>
