<!-- Generated by IcoMoon.io -->
<svg version="1.1" xmlns="http://www.w3.org/2000/svg" width="32" height="32" viewBox="0 0 32 32">
<title>women-robe</title>
<path d="M9.045 31.363c0 0.352 0.286 0.637 0.637 0.637h3.296v-20.050h-2.655l-1.279 19.413zM15.122 7.969c0.040-0.030 0.090-0.067 0.132-0.097-4.123-3.372-4.311-5.934-4.054-7.17l-1.756 0.644c-0.201 0.083-0.345 0.26-0.384 0.473l-5.066 13.177c-0.061 0.332 0.148 0.655 0.477 0.733l2.271 0.916c0.050 0.012 0.1 0.018 0.152 0.018 0.118 0 0.234-0.033 0.335-0.097 0.147-0.092 0.248-0.235 0.285-0.404l3.088-8.4-0.22 3.328h2.61c0.062-1.587 0.808-2.152 2.131-3.122zM15.93 7.364c5.495-4.228 3.916-6.968 3.881-7.024l-0.796-0.292c-0.311-0.129-0.671 0.009-0.818 0.313-0.239 0.493-2.193 5.301-2.193 5.301h-0.008c0 0-1.954-4.808-2.195-5.301-0.146-0.304-0.506-0.442-0.818-0.313l-0.794 0.292c-0.053 0.093-1.526 2.796 3.742 7.024zM13.8 11.95v20.050h8.518c0.352 0 0.637-0.286 0.637-0.637l-1.28-19.413h-7.874zM22.939 1.821c-0.039-0.214-0.181-0.391-0.383-0.473l-1.748-0.641c0.274 1.278 0.063 3.966-4.561 7.452-0.229 0.172-0.442 0.329-0.639 0.473-1.242 0.911-1.745 1.293-1.798 2.46h7.809l-0.22-3.328 3.088 8.4c0.037 0.169 0.138 0.313 0.285 0.404 0.103 0.064 0.219 0.097 0.337 0.097 0.049 0 0.101-0.006 0.151-0.018l2.272-0.916c0.328-0.079 0.538-0.402 0.477-0.733l-5.068-13.177z"></path>
</svg>
