<!-- Generated by IcoMoon.io -->
<svg version="1.1" xmlns="http://www.w3.org/2000/svg" width="32" height="32" viewBox="0 0 32 32">
<title>won</title>
<path d="M32 14.784v-2.887h-2.509l1.921-8.462h-4.774l-1.738 8.462h-3.999l-1.984-8.462h-5.639l-2.104 8.462h-3.993l-1.736-8.462h-4.855l1.888 8.462h-2.477v2.887h3.122l0.24 1.075h-3.361v2.888h4.005l2.191 9.819h5.142l2.437-9.819h4.459l2.445 9.819h5.030l2.228-9.819h4.063v-2.888h-3.408l0.244-1.075h3.164zM16 9.777l0.527 2.119h-1.053l0.526-2.119zM7.771 14.784h2.684l-0.268 1.075h-2.196l-0.221-1.075zM8.985 20.698l-0.4-1.95h0.885l-0.485 1.95zM14.491 15.859l0.267-1.075h2.489l0.267 1.075h-3.024zM23.032 20.989l-0.526-2.242h0.986l-0.46 2.242zM24.086 15.859h-2.256l-0.253-1.075h2.729l-0.221 1.075z"></path>
</svg>
