<!-- Generated by IcoMoon.io -->
<svg version="1.1" xmlns="http://www.w3.org/2000/svg" width="32" height="32" viewBox="0 0 32 32">
<title>workflow</title>
<path d="M27 20.090v-0.351l1.868-3.239h-1.868v-5.181l4.677-4.678c0.285-0.285 0.285-0.747 0-1.032l-5.161-5.161c-0.285-0.285-0.747-0.285-1.032 0l-4.552 4.552h-0.825l-3.107-1.832v1.832h-5.109c-0.527-2.776-2.963-4.875-5.891-4.875-3.313 0-6 2.687-6 6 0 2.972 2.163 5.433 5 5.91v0.197l-1.942 3.268h1.942v4.5h-4c-0.552 0-1 0.448-1 1v10c0 0.552 0.448 1 1 1h10c0.552 0 1-0.448 1-1v-10c0-0.552-0.448-1-1-1h-4v-4.5h1.868l-1.868-3.145v-0.32c2.552-0.429 4.553-2.466 4.929-5.035h5.071v1.978l3.354-1.978h0.328l4.319 4.319v5.181h-1.942l1.942 3.366v0.224c-2.837 0.477-5 2.939-5 5.91 0 3.314 2.686 6 6 6s6-2.686 6-6c0-2.972-2.163-5.433-5-5.91z"></path>
</svg>
