<!-- Generated by IcoMoon.io -->
<svg version="1.1" xmlns="http://www.w3.org/2000/svg" width="32" height="32" viewBox="0 0 32 32">
<title>wrench</title>
<path d="M26.89 1.873c-2.89-3.373-5.28-0.679-5.28-0.679l-5.387 5.388c-1.027-0.264-2.157 0-2.957 0.8l-0.546 0.546c-1.208 1.208-1.2 3.173 0.014 4.389l1.715 1.714-0.788 0.789-2.626-2.626c-0.274-0.274-0.72-0.274-0.993 0l-0.802 0.801c-0.274 0.274-0.274 0.72 0.001 0.995l0.143 0.143-1.104 1.104c-0.575 0.575-0.575 1.507 0 2.082s1.506 0.575 2.082 0l1.105-1.105 0.502 0.503c0.969 1.355 0.297 2.879-0.422 3.902l-7.045 7.018c-0.929 0.928-0.929 2.435-0.001 3.363 0.929 0.929 2.434 0.929 3.364 0l14.989-14.963c0.927-0.929 0.927-2.434 0-3.364-0.062-0.062-0.127-0.119-0.195-0.172l0.051-0.050-3.338-3.338 3.348-3.156c0.055-0.055 0.108 0.043 0.161 0.043h1.119v1h1.204l0.001 1.5h1.295v0.5h1.5v0.272l0.378 0.389 1.494-1.5c0.394-1.977-1.513-4.572-2.983-6.287zM8.239 28.569l-0.88 0.881c-0.376 0.375-0.985 0.375-1.361 0s-0.377-0.985 0-1.361l0.88-0.881c0.375-0.376 0.985-0.376 1.362 0s0.376 0.985-0.001 1.361z"></path>
</svg>
