<!-- Generated by IcoMoon.io -->
<svg version="1.1" xmlns="http://www.w3.org/2000/svg" width="32" height="32" viewBox="0 0 32 32">
<title>wrench2</title>
<path d="M26.561 12.896l-5.574-2.217 1.131-5.891 5.356-2.935c-1.427-0.89-3.108-1.413-4.914-1.413-5.142 0-9.31 4.168-9.31 9.309 0 1.058 0.184 2.070 0.51 3.017l-13.176 13.175c-0.18 0.18-0.179 0.473 0 0.654l4.571 4.57c0.181 0.18 0.473 0.18 0.654 0l12.932-12.933c1.166 0.526 2.457 0.826 3.82 0.826 5.059 0 9.167-4.037 9.298-9.066l-5.297 2.902zM5.536 27.368c-0.637 0-1.154-0.517-1.154-1.154s0.516-1.154 1.154-1.154c0.638 0 1.155 0.517 1.155 1.154s-0.516 1.154-1.155 1.154z"></path>
</svg>
