<!-- Generated by IcoMoon.io -->
<svg version="1.1" xmlns="http://www.w3.org/2000/svg" width="32" height="32" viewBox="0 0 32 32">
<title>x-double-tap4</title>
<path d="M17.087 3.53c-4.677 0-8.482 3.804-8.482 8.481 0 0.439 0.357 0.796 0.796 0.796s0.797-0.357 0.797-0.796c0-3.799 3.090-6.888 6.888-6.888s6.889 3.090 6.889 6.888c0 0.439 0.357 0.796 0.797 0.796s0.797-0.357 0.797-0.796c0-4.676-3.805-8.481-8.482-8.481zM17.087 0.364c-6.423 0-11.649 5.225-11.649 11.647 0 0.439 0.357 0.796 0.797 0.796s0.797-0.357 0.797-0.796c0-5.545 4.511-10.055 10.055-10.055s10.055 4.511 10.055 10.055c0 0.439 0.357 0.796 0.797 0.796 0.439 0 0.797-0.357 0.797-0.796 0-6.422-5.226-11.647-11.648-11.647zM22.227 12.823c-0.261 0-0.727 0.078-0.727 0.225v6.726c0 0.288-0.212 0.523-0.5 0.523s-0.5-0.235-0.5-0.523v-8.829c0-0.569-0.672-0.978-1.258-0.978-0.261 0-0.742 0.077-0.742 0.225v9.582c0 0.288-0.212 0.523-0.5 0.523s-0.5-0.235-0.5-0.523v-10.998c0-0.567-0.666-0.976-1.25-0.976s-1.25 0.409-1.25 0.976v10.998c0 0.288-0.211 0.523-0.5 0.523s-0.5-0.235-0.5-0.523v-8.868c-0.5-0.148-0.465-0.225-0.726-0.225-0.698-0.001-1.274 0.568-1.274 1.266v12.922l-1.658-5.204c-0.168-0.523-0.666-0.876-1.218-0.876-0.132 0-0.27 0.020-0.397 0.061-0.664 0.214-1.034 0.93-0.821 1.594l2.1 6.719c0.048 0.148 0.124 0.288 0.229 0.415 0.193 0.279 1.698 2.175 2.302 2.884l-0.039 0.070v0.092c0 0.912 0.52 1.375 1.158 1.375h7.607c0.638 0 0.735-0.463 0.735-1.375v-0.067l0.165-0.058c0.335-0.573 1.335-2.197 1.335-2.813v-13.596c0-0.699-0.576-1.267-1.273-1.267z"></path>
</svg>
