<!-- Generated by IcoMoon.io -->
<svg version="1.1" xmlns="http://www.w3.org/2000/svg" width="32" height="32" viewBox="0 0 32 32">
<title>x-double-tap3</title>
<path d="M17.042 3.223c-4.677 0-8.482 3.804-8.482 8.482 0 0.439 0.357 0.796 0.797 0.796s0.796-0.357 0.796-0.796c0-3.799 3.091-6.888 6.889-6.888s6.888 3.090 6.888 6.888c0 0.439 0.357 0.796 0.797 0.796 0.439 0 0.796-0.357 0.796-0.796 0-4.676-3.805-8.482-8.481-8.482zM17.042 0.26c-6.311 0-11.445 5.134-11.445 11.444 0 0.439 0.357 0.796 0.796 0.796s0.796-0.357 0.796-0.796c0-5.433 4.42-9.851 9.852-9.851 5.431 0 9.852 4.419 9.852 9.851 0 0.439 0.358 0.796 0.796 0.796 0.44 0 0.797-0.357 0.797-0.796 0-6.311-5.134-11.444-11.445-11.444zM22.225 12.823c-0.256 0-0.225 0.079-0.725 0.226v6.726c0 0.288-0.212 0.523-0.5 0.523s-0.5-0.235-0.5-0.523v-8.829c0-0.568-0.672-0.977-1.258-0.977-0.261 0-0.242 0.077-0.742 0.225v9.582c0 0.288-0.212 0.523-0.5 0.523s-0.5-0.235-0.5-0.523v-10.998c0-0.567-0.666-0.976-1.25-0.976s-0.75 0.409-1.25 0.976v10.998c0 0.288-0.211 0.523-0.499 0.523s-0.501-0.235-0.501-0.523v-8.868c0-0.148-0.465-0.225-0.726-0.225-0.698 0-1.274 0.568-1.274 1.267v7.93l-0.231 0.014c-1.502 0.001-1.769 0.729-1.769 2.162v4.687c0 0.291 0.168 0.571 0.352 0.811l0.063 0.046c0.098 0.157 1.587 1.843 2.457 2.864l0.128 0.070v0.092c0 0.912 0.222 1.375 0.861 1.375h7.607c0.639 0 1.032-0.463 1.032-1.375v-0.067l-0.085-0.058c0.335-0.573 1.085-2.197 1.085-2.813v-13.596c0-0.699-0.576-1.268-1.275-1.268z"></path>
</svg>
