<!-- Generated by IcoMoon.io -->
<svg version="1.1" xmlns="http://www.w3.org/2000/svg" width="32" height="32" viewBox="0 0 32 32">
<title>x-double-tap2</title>
<path d="M16.301 3.124c-4.453 0-8.075 3.623-8.075 8.075 0 0.438 0.357 0.796 0.796 0.796s0.796-0.357 0.796-0.796c0-3.575 2.908-6.482 6.482-6.482s6.483 2.908 6.483 6.482c0 0.438 0.357 0.796 0.796 0.796s0.796-0.357 0.796-0.796c-0.001-4.452-3.623-8.075-8.076-8.075zM16.301 0.5c-5.9 0-10.7 4.8-10.7 10.699 0 0.438 0.357 0.796 0.797 0.796s0.796-0.357 0.796-0.796c0-5.021 4.085-9.107 9.107-9.107s9.107 4.085 9.107 9.107c0 0.438 0.357 0.796 0.797 0.796s0.796-0.357 0.796-0.796c-0.001-5.899-4.8-10.699-10.7-10.699zM22.292 18.479c-0.256 0-0.292 0.079-0.792 0.226v0.948c0 0.288-0.212 0.523-0.5 0.523s-0.5-0.235-0.5-0.523v-8.83c0-0.568-0.673-0.977-1.258-0.977-0.257 0-0.242 0.079-0.742 0.225v9.582c0 0.288-0.211 0.523-0.5 0.523s-0.5-0.235-0.5-0.523v-10.998c0-0.567-0.665-0.976-1.249-0.976-0.585 0-0.751 0.409-1.251 0.976v10.998c0 0.288-0.211 0.523-0.499 0.523s-0.501-0.235-0.501-0.523v-8.867c0-0.146-0.469-0.226-0.726-0.226-0.698 0-1.274 0.568-1.274 1.267v7.919l-0.219 0.024c-1.514 0.003-1.781 0.73-1.781 2.163v4.686c0 0.291 0.149 0.572 0.334 0.811l0.054 0.046c0.098 0.157 1.601 1.843 2.471 2.864l0.141 0.070v0.091c0 0.913 0.187 1.498 0.825 1.498h7.607c0.639 0 1.068-0.585 1.068-1.498v-0.067l-0.019-0.058c0.334-0.573 1.177-2.197 1.177-2.813l-0.070-8.008c-0.094-0.624-0.668-1.077-1.297-1.077z"></path>
</svg>
