<!-- Generated by IcoMoon.io -->
<svg version="1.1" xmlns="http://www.w3.org/2000/svg" width="32" height="32" viewBox="0 0 32 32">
<title>x-double-tap</title>
<path d="M14.329 4.91c2.734 0 4.96 2.225 4.96 4.96 0 0.439 0.357 0.796 0.796 0.796 0.44 0 0.797-0.357 0.797-0.796 0-3.613-2.939-6.553-6.552-6.553s-6.553 2.939-6.553 6.553c0 0.439 0.357 0.796 0.796 0.796s0.796-0.357 0.796-0.796c-0.001-2.735 2.225-4.96 4.96-4.96zM14.329 0.541c-5.144 0-9.329 4.184-9.329 9.329 0 0.439 0.357 0.796 0.796 0.796s0.796-0.357 0.796-0.796c0-4.266 3.471-7.736 7.737-7.736s7.736 3.471 7.736 7.736c0 0.439 0.358 0.796 0.796 0.796s0.797-0.357 0.797-0.796c-0.001-5.144-4.186-9.329-9.329-9.329zM21.743 18.602c-0.261 0-0.243 0.078-0.743 0.224v0.948c0 0.288-0.212 0.523-0.5 0.523s-0.5-0.235-0.5-0.523v-1.082c0-0.567-0.672-0.977-1.258-0.977-0.257 0-0.242 0.079-0.742 0.224v1.834c0 0.288-0.211 0.523-0.5 0.523s-0.5-0.234-0.5-0.523v-10.998c0-0.567-0.665-0.976-1.25-0.976s-1.25 0.409-1.25 0.976v10.998c0 0.288-0.212 0.523-0.501 0.523s-0.499-0.235-0.499-0.523v-8.868c0-0.146-0.47-0.226-0.726-0.226-0.698 0.001-1.274 0.569-1.274 1.267v8.052h-0.239c-1.486 0-1.761 0.622-1.761 2.055v4.687c0 0.291 0.1 0.572 0.284 0.811l0.030 0.046c0.099 0.157 1.637 1.843 2.508 2.864l0.178 0.070v0.092c0 0.913 0.088 1.375 0.726 1.375h7.607c0.638-0 1.166-0.463 1.166-1.375v-0.067l-0.069-0.058c0.335-0.573 1.154-2.198 1.154-2.813l-0.056-8.008c-0.096-0.623-0.657-1.076-1.285-1.076z"></path>
</svg>
