<!-- Generated by IcoMoon.io -->
<svg version="1.1" xmlns="http://www.w3.org/2000/svg" width="32" height="32" viewBox="0 0 32 32">
<title>x-drag-up2</title>
<path d="M26.951 12.416c-0.578-0.927-1.456-2.341-1.503-2.433-0.096-0.205-0.426-0.22-0.537-0.012-0.044 0.085-0.928 1.509-1.509 2.444-0.067 0.106-0.073 0.276-0.018 0.377 0.056 0.099 0.162 0.208 0.288 0.208h0.829c0 0 0 5.209 0 5.447s0.194 0.052 0.194 0.052h0.952c0 0 0.354 0.25 0.354-0.084s0-5.416 0-5.416h0.665c0.127 0 0.239-0.119 0.297-0.22 0.053-0.095 0.049-0.256-0.012-0.364zM19.726 12.823c-0.261 0-0.226 0.078-0.726 0.226v6.726c0 0.288-0.212 0.523-0.5 0.523s-0.5-0.235-0.5-0.523v-8.829c0-0.568-0.672-0.977-1.257-0.977-0.261 0-0.243 0.077-0.743 0.225v9.582c0 0.288-0.211 0.523-0.5 0.523s-0.5-0.235-0.5-0.523v-10.998c0-0.567-0.666-0.976-1.25-0.976s-1.25 0.409-1.25 0.976v10.998c0 0.288-0.211 0.523-0.501 0.523-0.288 0-0.499-0.235-0.499-0.523v-8.868c0-0.148-0.466-0.225-0.726-0.225-0.698 0-1.274 0.568-1.274 1.267v7.93l-0.232 0.014c-1.502 0.001-1.768 0.729-1.768 2.162v4.687c0 0.291 0.116 0.571 0.3 0.811l0.037 0.046c0.098 0.157 1.626 1.843 2.496 2.864l0.166 0.070v0.092c0 0.912 0.118 1.375 0.757 1.375h7.607c0.639 0 1.136-0.463 1.136-1.375v-0.067l-0.085-0.058c0.334-0.573 1.085-2.197 1.085-2.813v-13.596c0-0.699-0.576-1.268-1.274-1.268z"></path>
</svg>
