<!-- Generated by IcoMoon.io -->
<svg version="1.1" xmlns="http://www.w3.org/2000/svg" width="32" height="32" viewBox="0 0 32 32">
<title>x-drag-up</title>
<path d="M25.614 10.538c-0.577-0.927-1.456-2.341-1.503-2.433-0.096-0.205-0.427-0.221-0.537-0.013-0.045 0.085-0.928 1.509-1.509 2.445-0.066 0.105-0.073 0.215-0.018 0.315s0.163 0.148 0.287 0.148h0.666c0 0 0 5.331 0 5.569s0.358 0.431 0.358 0.431h0.952c0 0 0.19-0.128 0.19-0.462s0-5.538 0-5.538h0.829c0.127 0 0.239-0.059 0.298-0.159 0.052-0.095 0.049-0.195-0.012-0.303zM21.322 18.602c-0.262 0-0.322 0.078-0.822 0.225v0.948c0 0.288-0.212 0.523-0.5 0.523s-0.5-0.235-0.5-0.523v-8.83c0-0.568-0.672-0.977-1.258-0.977-0.261 0-0.242 0.077-0.742 0.225v9.582c0 0.288-0.211 0.523-0.5 0.523s-0.5-0.235-0.5-0.523v-10.998c0-0.567-0.665-0.976-1.25-0.976s-0.75 0.409-1.25 0.975v10.998c0 0.288-0.211 0.523-0.5 0.523s-0.5-0.235-0.5-0.523v-8.868c0-0.146-0.469-0.225-0.726-0.225-0.698 0.001-1.274 0.569-1.274 1.267v7.928l-0.229 0.017c-1.504 0.002-1.771 0.73-1.771 2.163v4.687c0 0.291 0.178 0.571 0.363 0.811l0.069 0.045c0.099 0.157 1.579 1.843 2.45 2.864l0.119 0.070v0.091c0 0.913 0.245 1.375 0.883 1.375h7.607c0.637 0 1.009-0.462 1.009-1.375v-0.067l0.011-0.058c0.335-0.573 1.193-2.197 1.193-2.813l-0.078-8.008c-0.095-0.624-0.677-1.077-1.304-1.077z"></path>
</svg>
