<!-- Generated by IcoMoon.io -->
<svg version="1.1" xmlns="http://www.w3.org/2000/svg" width="32" height="32" viewBox="0 0 32 32">
<title>x-drag-down3</title>
<path d="M27.443 15.736c-0.055-0.101-0.108-0.236-0.232-0.236h-0.711c0 0 0-5.154 0-5.392 0-0.239-0.368-0.108-0.368-0.108h-0.952c0 0-0.18-0.195-0.18 0.139s-0 5.361-0 5.361h-0.839c-0.128 0-0.24 0.147-0.298 0.248-0.052 0.095-0.049 0.245 0.012 0.353 0.578 0.927 1.456 2.36 1.503 2.451 0.095 0.206 0.425 0.231 0.536 0.023 0.046-0.085 0.927-1.543 1.509-2.479 0.068-0.105 0.075-0.26 0.020-0.36zM20.227 12.823c-0.258 0-0.227 0.079-0.727 0.226v6.726c0 0.288-0.212 0.523-0.5 0.523-0.288 0-0.5-0.235-0.5-0.523v-8.829c0-0.568-0.672-0.977-1.257-0.977-0.258 0-0.243 0.079-0.743 0.225v9.582c0 0.288-0.212 0.523-0.5 0.523s-0.501-0.235-0.501-0.523v-10.998c0-0.567-0.665-0.976-1.249-0.976-0.585 0-1.251 0.409-1.251 0.976v10.998c0 0.288-0.211 0.523-0.5 0.523s-0.5-0.235-0.5-0.523v-8.868c0-0.148-0.466-0.225-0.726-0.225-0.698 0-1.274 0.568-1.274 1.267v7.932l-0.234 0.012c-1.499 0.001-1.766 0.729-1.766 2.162v4.687c0 0.291 0.106 0.571 0.29 0.811l0.031 0.046c0.1 0.157 1.633 1.843 2.504 2.864l0.175 0.070v0.092c0 0.912 0.098 1.375 0.737 1.375h7.607c0.639 0 1.155-0.463 1.155-1.375v-0.067l-0.085-0.058c0.334-0.573 1.085-2.197 1.085-2.813v-13.596c0-0.699-0.575-1.268-1.273-1.268z"></path>
</svg>
