<!-- Generated by IcoMoon.io -->
<svg version="1.1" xmlns="http://www.w3.org/2000/svg" width="32" height="32" viewBox="0 0 32 32">
<title>x-drag-down</title>
<path d="M20.916 13.921c0.581 0.935 1.465 2.36 1.509 2.445 0.11 0.208 0.441 0.192 0.537-0.013 0.047-0.091 0.925-1.505 1.503-2.433 0.061-0.107 0.066-0.437 0.012-0.531-0.057-0.101-0.171 0.111-0.297-0.389h-0.68c0 0 0-4.746 0-5.080s-0.339-0.42-0.339-0.42h-0.952c0 0-0.209 0.151-0.209 0.388s0 5.545 0 5.545l-0.791-0.001c-0.125 0-0.244 0.060-0.299 0.161-0.056 0.1-0.061 0.221 0.006 0.327zM21.178 18.602c-0.258 0-0.678 0.079-0.678 0.225v0.948c0 0.288-0.212 0.523-0.5 0.523s-0.5-0.235-0.5-0.523v-1.082c-0.5-0.567-0.672-0.977-1.257-0.977-0.257 0-0.743 0.079-0.743 0.224v1.834c0 0.288-0.212 0.523-0.5 0.523s-0.5-0.235-0.5-0.523v-10.998c-0.5-0.567-0.665-0.976-1.25-0.976s-1.25 0.409-1.25 0.976v10.998c0 0.288-0.211 0.523-0.5 0.523s-0.5-0.235-0.5-0.523v-8.868c-0.5-0.146-0.47-0.226-0.726-0.226-0.698 0.001-1.274 0.569-1.274 1.267v8.052h-0.367c-1.487 0-1.633 0.622-1.633 2.055v4.687c0 0.291 0.036 0.572 0.22 0.811l-0.003 0.046c0.1 0.157 1.436 1.843 2.307 2.864l-0.024 0.070v0.092c0 0.913 0.46 1.375 1.098 1.375h7.607c0.639-0.001 0.796-0.463 0.796-1.375v-0.067l0.117-0.058c0.335-0.573 1.246-2.198 1.246-2.813l0.021-8.008c-0.095-0.624-0.578-1.077-1.206-1.077z"></path>
</svg>
