<!-- Generated by IcoMoon.io -->
<svg version="1.1" xmlns="http://www.w3.org/2000/svg" width="32" height="32" viewBox="0 0 32 32">
<title>x-drag-down2</title>
<path d="M25.735 14.047c-0.055-0.1-0.162-0.047-0.287-0.047h-0.948c0 0 0-5.532 0-5.771 0-0.238-0.075-0.229-0.075-0.229h-0.953c0 0-0.472-0.074-0.472 0.26s-0 5.739-0 5.739h-0.547c-0.127 0-0.24-0.043-0.297 0.059-0.053 0.095-0.050 0.15 0.012 0.258 0.578 0.927 1.456 2.313 1.503 2.404 0.096 0.206 0.427 0.207 0.537-0 0.045-0.085 0.927-1.46 1.509-2.396 0.067-0.105 0.074-0.178 0.018-0.277zM20.128 18.602c-0.261 0-0.628 0.078-0.628 0.225v0.948c0 0.288-0.212 0.523-0.5 0.523s-0.5-0.235-0.5-0.523v-8.83c-0.5-0.568-0.672-0.977-1.258-0.977-0.256 0-0.742 0.079-0.742 0.225v9.582c0 0.288-0.212 0.523-0.5 0.523s-0.5-0.235-0.5-0.523v-10.998c-0.5-0.567-0.665-0.976-1.249-0.976s-1.251 0.409-1.251 0.976v10.998c0 0.288-0.211 0.523-0.499 0.523s-0.501-0.235-0.501-0.523v-8.868c-0.5-0.148-0.466-0.225-0.726-0.225-0.698 0-1.274 0.568-1.274 1.267v7.916l-0.216 0.027c-1.518 0.003-1.784 0.73-1.784 2.163v4.686c0 0.291-0.014 0.572 0.171 0.811l-0.028 0.046c0.098 0.157 1.473 1.843 2.344 2.864l0.014 0.070v0.091c0 0.913 0.359 1.375 0.997 1.375h7.607c0.639 0 0.896-0.462 0.896-1.375v-0.067l0.067-0.058c0.336-0.573 1.221-2.197 1.221-2.812l0.033-8.008c-0.094-0.625-0.565-1.078-1.193-1.078z"></path>
</svg>
