<!-- Generated by IcoMoon.io -->
<svg version="1.1" xmlns="http://www.w3.org/2000/svg" width="32" height="32" viewBox="0 0 32 32">
<title>x-flick-right3</title>
<path d="M26.482 7.607c-0.041-0.104-0.576-1.835-0.926-2.971-0.044-0.127-0.134-0.209-0.249-0.234-0.123-0.027-0.259 0.021-0.352 0.122l-0.563 0.647c-0.854-0.665-2.825-1.837-6.107-1.837-4.481 0-6.526 2.189-6.61 2.282-0.281 0.309-0.259 0.785 0.049 1.070 0.306 0.284 0.788 0.264 1.074-0.040 0.069-0.073 1.723-1.788 5.487-1.788 2.795 0 4.425 0.946 5.107 1.462l-0.576 0.663c-0.088 0.103-0.116 0.234-0.073 0.351 0.043 0.116 0.148 0.197 0.282 0.218 1.184 0.19 2.985 0.482 3.087 0.505 0.25 0.056 0.473-0.226 0.371-0.45zM23.451 14.232c-0.242-0.089-0.506-0.1-0.753-0.034l-2.301 6.32c-0.096 0.264-0.404 0.41-0.671 0.314-0.131-0.048-0.237-0.145-0.295-0.271s-0.065-0.268-0.017-0.4l3.020-8.296c0.070-0.579-0.273-1.14-0.823-1.341-0.242-0.088-0.506-0.098-0.752-0.034l-3.277 9.005c-0.096 0.264-0.407 0.41-0.672 0.313-0.131-0.047-0.236-0.143-0.295-0.27s-0.065-0.268-0.017-0.401l3.761-10.333c0.069-0.579-0.274-1.139-0.823-1.34-0.543-0.197-1.178 0.019-1.491 0.495l-3.761 10.336c-0.097 0.264-0.406 0.408-0.671 0.313-0.271-0.099-0.411-0.399-0.313-0.671l3.033-8.334c-0.148-0.211-0.353-0.368-0.598-0.457-0.645-0.235-1.392 0.12-1.623 0.757l-2.719 7.469-0.236-0.088c-0.333-0.12-0.618-0.18-0.861-0.18-0.676 0-1.103 0.451-1.525 1.611l-1.604 4.404c-0.099 0.273-0.104 0.57-0.013 0.86l0.011 0.052c0.039 0.181 0.797 2.251 1.265 3.51l0.033 0.086-0.032 0.086c-0.147 0.405-0.193 0.762-0.132 1.030 0.066 0.283 0.251 0.476 0.566 0.591l7.149 2.602c0.126 0.044 0.245 0.067 0.355 0.067 0.532 0.001 0.849-0.561 1.020-1.032l0.023-0.064 0.052-0.043c0.511-0.424 1.884-1.653 2.095-2.232l4.65-12.775c0.116-0.319 0.101-0.662-0.043-0.969s-0.396-0.539-0.715-0.655z"></path>
</svg>
