<!-- Generated by IcoMoon.io -->
<svg version="1.1" xmlns="http://www.w3.org/2000/svg" width="32" height="32" viewBox="0 0 32 32">
<title>x-flick-left2</title>
<path d="M7.468 7.492c0.683-0.516 2.312-1.462 5.108-1.462 3.764 0 5.418 1.715 5.483 1.783 0.151 0.165 0.356 0.249 0.563 0.249 0.183 0 0.367-0.066 0.512-0.199 0.311-0.283 0.334-0.765 0.051-1.076-0.085-0.093-2.13-2.281-6.61-2.281-3.282 0-5.252 1.173-6.106 1.838l-0.563-0.648c-0.094-0.101-0.231-0.149-0.354-0.122-0.114 0.024-0.205 0.107-0.248 0.234-0.35 1.137-0.886 2.867-0.926 2.971-0.101 0.225 0.121 0.508 0.371 0.45 0.101-0.023 1.903-0.316 3.087-0.505 0.133-0.021 0.239-0.102 0.281-0.219 0.044-0.117 0.015-0.248-0.073-0.351l-0.577-0.663zM25.794 27.030l-0.029-0.061 0.006-0.067c0.061-0.661 0.163-2.5-0.097-3.058l-3.402-7.249c-0.338-0.509-1.026-0.71-1.585-0.45-0.236 0.11-0.427 0.285-0.555 0.508l0.4 0.86c0.122 0.262 0.008 0.573-0.253 0.695-0.252 0.117-0.576 0-0.695-0.253l-3.732-8.002c-0.352-0.448-1.008-0.61-1.53-0.365-0.232 0.108-0.427 0.287-0.555 0.508l4.050 8.684c0.122 0.262 0.008 0.574-0.253 0.696-0.256 0.119-0.578-0.001-0.695-0.254l-4.648-9.967c-0.352-0.447-1.005-0.607-1.529-0.364-0.53 0.248-0.823 0.835-0.704 1.405l4.648 9.968c0.122 0.262 0.008 0.573-0.253 0.695-0.256 0.119-0.576 0-0.695-0.253l-3.748-8.037c-0.072-0.012-0.143-0.018-0.215-0.018-0.184 0-0.364 0.040-0.531 0.118-0.633 0.295-0.908 1.050-0.613 1.683l3.361 7.206-0.235 0.102c-0.652 0.305-0.988 0.651-1.063 1.096-0.066 0.388 0.055 0.883 0.39 1.602l1.982 4.248c0.122 0.264 0.329 0.477 0.598 0.616l0.045 0.030c0.156 0.102 2.155 1.028 3.376 1.587l0.084 0.038 0.038 0.083c0.2 0.43 0.543 0.942 1.040 0.942 0.129 0 0.268-0.035 0.413-0.102l6.895-3.215c0.302-0.142 0.47-0.351 0.511-0.637 0.039-0.274-0.037-0.625-0.22-1.017z"></path>
</svg>
