<!-- Generated by IcoMoon.io -->
<svg version="1.1" xmlns="http://www.w3.org/2000/svg" width="32" height="32" viewBox="0 0 32 32">
<title>x-flick-left4</title>
<path d="M10.063 5.998c0.043-0.117 0.014-0.247-0.073-0.35l-0.576-0.663c0.682-0.516 2.313-1.462 5.109-1.462 3.763 0 5.418 1.715 5.483 1.784 0.15 0.165 0.357 0.248 0.564 0.248 0.182 0 0.366-0.066 0.512-0.198 0.312-0.283 0.334-0.765 0.052-1.076-0.085-0.094-2.13-2.281-6.61-2.281-3.283 0-5.253 1.172-6.107 1.837l-0.563-0.647c-0.093-0.102-0.229-0.149-0.353-0.123-0.114 0.025-0.205 0.107-0.249 0.235-0.349 1.137-0.884 2.868-0.926 2.971-0.101 0.224 0.121 0.507 0.372 0.45 0.101-0.024 1.902-0.316 3.087-0.505 0.134-0.021 0.239-0.103 0.281-0.218zM26.269 26.967l-0.029-0.061 0.006-0.067c0.061-0.662 0.163-2.501-0.096-3.058l-5.746-12.322c-0.285-0.612-1.066-0.902-1.683-0.613-0.237 0.11-0.427 0.284-0.555 0.508l2.842 6.095c0.059 0.127 0.066 0.268 0.018 0.4s-0.144 0.236-0.271 0.296c-0.251 0.118-0.576 0-0.695-0.253l-3.732-8.003c-0.353-0.448-1.006-0.608-1.53-0.364-0.236 0.111-0.427 0.284-0.556 0.507l4.049 8.685c0.059 0.126 0.066 0.268 0.017 0.399-0.047 0.131-0.143 0.237-0.27 0.296-0.258 0.12-0.578 0-0.696-0.253l-4.648-9.967c-0.352-0.448-1.006-0.608-1.529-0.364-0.53 0.247-0.823 0.835-0.704 1.405l4.649 9.968c0.121 0.261 0.009 0.573-0.253 0.695-0.255 0.12-0.578 0-0.696-0.253l-3.748-8.037c-0.254-0.043-0.512-0.009-0.747 0.1-0.633 0.295-0.907 1.050-0.613 1.684l5.461 11.711-3.675-4.029c-0.238-0.256-0.576-0.404-0.927-0.404-0.321 0-0.627 0.12-0.861 0.338-0.511 0.475-0.541 1.279-0.066 1.79l4.743 5.201c0.103 0.111 0.232 0.204 0.379 0.276 0.236 0.142 2.159 1.034 3.4 1.602l0.084 0.038 0.038 0.084c0.2 0.43 0.543 0.942 1.038 0.942 0.13 0 0.269-0.034 0.414-0.102l6.894-3.215c0.579-0.27 0.677-0.826 0.291-1.652z"></path>
</svg>
