<!-- Generated by IcoMoon.io -->
<svg version="1.1" xmlns="http://www.w3.org/2000/svg" width="32" height="32" viewBox="0 0 32 32">
<title>x-flick-right2</title>
<path d="M25.875 8.118c-0.043-0.104-0.576-1.834-0.927-2.971-0.044-0.127-0.134-0.21-0.248-0.234-0.123-0.027-0.259 0.021-0.353 0.122l-0.563 0.648c-0.855-0.665-2.825-1.838-6.107-1.838-4.48 0-6.526 2.188-6.61 2.281-0.281 0.309-0.259 0.785 0.049 1.070s0.788 0.264 1.075-0.040c0.068-0.073 1.722-1.788 5.486-1.788 2.796 0 4.425 0.945 5.107 1.462l-0.576 0.663c-0.088 0.103-0.116 0.234-0.073 0.351 0.042 0.116 0.148 0.198 0.282 0.219 1.183 0.19 2.985 0.482 3.087 0.505 0.25 0.056 0.473-0.226 0.372-0.45zM21.52 10.522c-0.241-0.088-0.505-0.1-0.752-0.034l-3.277 9.004c-0.097 0.265-0.41 0.409-0.671 0.313-0.271-0.099-0.411-0.399-0.313-0.67l3.761-10.335c0.069-0.578-0.274-1.138-0.823-1.338-0.544-0.198-1.179 0.019-1.491 0.495l-3.761 10.335c-0.098 0.265-0.405 0.409-0.671 0.313-0.271-0.098-0.411-0.399-0.313-0.67l3.033-8.334c-0.148-0.209-0.357-0.37-0.598-0.457-0.645-0.236-1.391 0.119-1.623 0.756l-2.71 7.444-0.217-0.055c-0.36-0.128-0.646-0.188-0.889-0.188-0.684 0-1.098 0.437-1.525 1.611l-1.602 4.404c-0.099 0.273-0.104 0.57-0.013 0.859l0.011 0.052c0.038 0.182 0.797 2.252 1.264 3.51l0.032 0.085-0.031 0.086c-0.148 0.406-0.194 0.762-0.131 1.030 0.065 0.283 0.249 0.477 0.565 0.591l7.149 2.602c0.125 0.045 0.243 0.068 0.354 0.068 0.532 0 0.849-0.561 1.020-1.032l0.023-0.064 0.052-0.043c0.512-0.424 1.885-1.652 2.095-2.23l2.72-7.532c0.125-0.619-0.213-1.224-0.802-1.438-0.242-0.088-0.506-0.099-0.752-0.035l-0.324 0.89c-0.096 0.264-0.407 0.41-0.671 0.313-0.132-0.047-0.236-0.143-0.296-0.27-0.058-0.127-0.065-0.27-0.017-0.401l3.020-8.297c0.069-0.581-0.274-1.141-0.824-1.341z"></path>
</svg>
