<!-- Generated by IcoMoon.io -->
<svg version="1.1" xmlns="http://www.w3.org/2000/svg" width="32" height="32" viewBox="0 0 32 32">
<title>x-flick-right</title>
<path d="M26.605 19.183c0.555-0.712 1.53-2.349 1.53-5.061 0-3.707-1.824-5.411-1.902-5.482-0.145-0.133-0.329-0.198-0.512-0.198-0.207 0-0.414 0.084-0.564 0.249-0.283 0.312-0.261 0.793 0.050 1.076 0.052 0.050 1.405 1.364 1.405 4.356 0 2.226-0.748 3.522-1.155 4.063l-0.431-0.375c-0.084-0.072-0.189-0.095-0.285-0.059-0.094 0.034-0.161 0.12-0.177 0.229-0.155 0.963-0.392 2.428-0.411 2.511-0.046 0.203 0.183 0.384 0.366 0.302 0.084-0.034 1.492-0.469 2.418-0.753 0.102-0.035 0.17-0.109 0.189-0.203 0.021-0.1-0.017-0.211-0.099-0.287l-0.422-0.365zM21.428 19.662c-0.24-0.087-0.501-0.099-0.746-0.036l-0.331 0.907c-0.096 0.264-0.404 0.41-0.67 0.313-0.204-0.074-0.339-0.264-0.342-0.483-0.005-0.061 0.004-0.134 0.029-0.203l0.371-1.017c0.070-0.579-0.274-1.14-0.824-1.34-0.24-0.087-0.5-0.099-0.746-0.035l-0.633 1.74c-0.096 0.264-0.404 0.409-0.671 0.313-0.204-0.075-0.339-0.264-0.343-0.483-0.004-0.064 0.006-0.137 0.032-0.206l3.761-10.332c0.069-0.579-0.274-1.139-0.824-1.339-0.537-0.196-1.165 0.016-1.48 0.482l-3.773 10.364c-0.098 0.264-0.407 0.409-0.671 0.313-0.202-0.073-0.34-0.267-0.342-0.484-0.006-0.060 0.004-0.133 0.028-0.201l3.034-8.334c-0.149-0.211-0.354-0.368-0.598-0.457-0.645-0.235-1.393 0.119-1.623 0.757l-2.719 7.469-0.236-0.088c-0.332-0.12-0.618-0.18-0.861-0.18-0.676 0-1.104 0.452-1.526 1.611l-1.604 4.404c-0.099 0.273-0.104 0.57-0.013 0.858l0.011 0.052c0.039 0.182 0.798 2.252 1.266 3.511l0.032 0.086-0.032 0.087c-0.148 0.405-0.194 0.761-0.131 1.030 0.066 0.283 0.25 0.476 0.566 0.591l7.149 2.602c0.126 0.045 0.245 0.067 0.354 0.067 0.533 0 0.849-0.561 1.020-1.031l0.023-0.064 0.052-0.043c0.511-0.424 1.883-1.652 2.093-2.23l2.721-7.532c0.124-0.619-0.213-1.224-0.803-1.439z"></path>
</svg>
