<!-- Generated by IcoMoon.io -->
<svg version="1.1" xmlns="http://www.w3.org/2000/svg" width="32" height="32" viewBox="0 0 32 32">
<title>x-flick-left3</title>
<path d="M8.691 7.644l-0.576-0.662c0.684-0.517 2.313-1.462 5.108-1.462 3.763 0 5.418 1.715 5.483 1.783 0.149 0.166 0.357 0.25 0.563 0.25 0.183 0 0.367-0.066 0.512-0.199 0.312-0.283 0.335-0.765 0.052-1.075-0.085-0.093-2.13-2.281-6.61-2.281-3.281 0-5.251 1.172-6.107 1.837l-0.563-0.647c-0.094-0.101-0.231-0.149-0.353-0.122-0.114 0.024-0.205 0.106-0.248 0.234-0.35 1.137-0.885 2.867-0.926 2.971-0.101 0.225 0.122 0.507 0.372 0.45 0.101-0.023 1.903-0.316 3.086-0.505 0.134-0.021 0.239-0.102 0.281-0.218 0.044-0.117 0.015-0.248-0.073-0.351zM25.991 27.030l-0.029-0.061 0.006-0.067c0.061-0.661 0.163-2.5-0.096-3.058l-5.745-12.322c-0.285-0.613-1.066-0.902-1.683-0.614-0.233 0.108-0.428 0.287-0.558 0.508l2.843 6.096c0.121 0.262 0.008 0.574-0.253 0.695-0.256 0.119-0.576 0-0.695-0.253l-3.732-8.002c-0.352-0.449-1.008-0.61-1.53-0.365-0.232 0.108-0.426 0.286-0.556 0.507l4.051 8.685c0.059 0.126 0.066 0.268 0.017 0.399-0.049 0.132-0.144 0.237-0.271 0.296-0.254 0.118-0.576 0-0.695-0.253l-4.648-9.967c-0.352-0.447-1.004-0.607-1.53-0.364-0.53 0.248-0.823 0.835-0.704 1.405l4.648 9.968c0.059 0.127 0.065 0.27 0.017 0.401s-0.145 0.235-0.271 0.294c-0.248 0.117-0.575 0-0.694-0.254l-3.748-8.036c-0.072-0.012-0.143-0.018-0.216-0.018-0.184 0-0.363 0.040-0.531 0.118-0.633 0.296-0.908 1.050-0.613 1.683l3.366 7.22-0.252 0.094c-0.639 0.3-0.975 0.646-1.050 1.091-0.066 0.387 0.055 0.882 0.39 1.602l1.981 4.248c0.123 0.263 0.329 0.476 0.598 0.616l0.044 0.029c0.156 0.101 2.155 1.028 3.376 1.587l0.083 0.038 0.039 0.082c0.2 0.43 0.543 0.942 1.039 0.942 0.13 0 0.268-0.035 0.414-0.102l6.895-3.215c0.581-0.27 0.677-0.826 0.291-1.652z"></path>
</svg>
