<!-- Generated by IcoMoon.io -->
<svg version="1.1" xmlns="http://www.w3.org/2000/svg" width="32" height="32" viewBox="0 0 32 32">
<title>x-flick-right4</title>
<path d="M27.533 6.474c-0.041-0.104-0.576-1.835-0.927-2.971-0.044-0.127-0.134-0.209-0.248-0.235-0.123-0.026-0.259 0.022-0.353 0.123l-0.564 0.647c-0.855-0.665-2.824-1.837-6.106-1.837-4.48 0-6.524 2.188-6.61 2.282-0.281 0.309-0.259 0.785 0.047 1.070 0.308 0.284 0.79 0.264 1.075-0.040 0.069-0.074 1.723-1.788 5.487-1.788 2.796 0 4.425 0.946 5.108 1.462l-0.576 0.662c-0.090 0.103-0.117 0.234-0.073 0.35 0.042 0.116 0.146 0.198 0.282 0.219 1.183 0.19 2.985 0.482 3.087 0.505 0.25 0.056 0.471-0.226 0.37-0.45zM24.34 14.231c-0.242-0.088-0.506-0.1-0.752-0.034l-2.301 6.32c-0.095 0.263-0.406 0.409-0.671 0.313-0.271-0.098-0.411-0.399-0.313-0.671l3.020-8.297c0.069-0.579-0.274-1.139-0.824-1.34-0.242-0.088-0.505-0.1-0.752-0.034l-3.278 9.004c-0.096 0.264-0.407 0.41-0.671 0.313-0.271-0.099-0.411-0.4-0.313-0.671l3.761-10.335c0.069-0.578-0.275-1.139-0.824-1.338-0.544-0.198-1.178 0.019-1.491 0.495l-3.761 10.335c-0.097 0.265-0.406 0.41-0.671 0.313-0.271-0.098-0.412-0.399-0.313-0.67l3.033-8.334c-0.148-0.209-0.357-0.369-0.599-0.457-0.646-0.233-1.39 0.12-1.622 0.757l-4.421 12.143 0.251-5.447c0.012-0.336-0.107-0.552-0.338-0.8-0.229-0.246-0.542-0.296-0.88-0.296-0.001 0-0.002 0-0.002 0-0.731 0-1.286 0.428-1.312 1.111l-0.323 6.979c-0.005 0.152 0.019 0.282 0.073 0.436 0.067 0.271 0.796 2.247 1.27 3.523l0.033 0.079-0.032 0.082c-0.312 0.858-0.166 1.401 0.434 1.62l7.149 2.6c0.125 0.046 0.244 0.068 0.354 0.068 0.532 0 0.849-0.561 1.020-1.032l0.023-0.064 0.052-0.043c0.511-0.425 1.884-1.653 2.095-2.231l4.649-12.776c0.116-0.319 0.101-0.662-0.042-0.969s-0.396-0.539-0.714-0.655z"></path>
</svg>
