<!-- Generated by IcoMoon.io -->
<svg version="1.1" xmlns="http://www.w3.org/2000/svg" width="32" height="32" viewBox="0 0 32 32">
<title>x-flick-left</title>
<path d="M7.327 17.758c-0.096-0.035-0.201-0.012-0.285 0.060l-0.431 0.375c-0.407-0.541-1.157-1.837-1.157-4.063 0-2.992 1.353-4.306 1.407-4.355 0.311-0.284 0.334-0.765 0.050-1.076s-0.766-0.334-1.076-0.050c-0.077 0.072-1.902 1.776-1.902 5.482 0 2.712 0.976 4.349 1.529 5.061l-0.419 0.366c-0.082 0.076-0.121 0.186-0.099 0.287 0.021 0.093 0.088 0.167 0.191 0.203 0.926 0.285 2.333 0.72 2.419 0.753 0.181 0.082 0.412-0.099 0.365-0.302-0.019-0.082-0.256-1.547-0.411-2.511-0.017-0.11-0.083-0.195-0.178-0.23zM26.701 27.030l-0.029-0.061 0.007-0.067c0.061-0.662 0.163-2.5-0.096-3.058l-3.404-7.248c-0.337-0.509-1.026-0.71-1.584-0.449-0.236 0.11-0.427 0.284-0.555 0.507l0.401 0.86c0.104 0.224 0.036 0.486-0.165 0.636-0.015 0.014-0.045 0.038-0.085 0.058-0.061 0.029-0.113 0.035-0.146 0.041l-0.081 0.006c-0.131 0-0.254-0.047-0.348-0.131-0.052-0.048-0.093-0.104-0.123-0.166l-0.457-0.982c-0.352-0.448-1.008-0.61-1.53-0.364-0.236 0.11-0.427 0.284-0.556 0.507l0.776 1.663c0.122 0.262 0.008 0.562-0.253 0.684-0.064 0.030-0.131 0.038-0.201 0.038-0.001 0-0.001 0-0.002 0-0.168 0-0.311-0.056-0.412-0.174-0.024-0.027-0.058-0.059-0.081-0.112l-4.648-9.963c-0.352-0.447-1.005-0.607-1.53-0.363-0.53 0.248-0.822 0.835-0.703 1.406l4.647 9.967c0.092 0.197 0.053 0.425-0.097 0.582-0.050 0.051-0.101 0.087-0.157 0.114-0.047 0.023-0.101 0.038-0.158 0.045l-0.052 0.004c-0.213 0-0.399-0.119-0.485-0.302l-3.749-8.037c-0.070-0.012-0.143-0.018-0.214-0.018-0.184 0-0.364 0.040-0.532 0.118-0.306 0.143-0.538 0.397-0.655 0.714s-0.101 0.662 0.042 0.969l3.361 7.206-0.235 0.102c-0.652 0.305-0.988 0.651-1.063 1.096-0.066 0.389 0.055 0.883 0.39 1.602l1.98 4.248c0.123 0.264 0.33 0.477 0.598 0.616l0.044 0.029c0.155 0.101 2.156 1.028 3.377 1.587l0.084 0.038 0.038 0.083c0.2 0.43 0.543 0.942 1.039 0.942 0.129 0 0.268-0.035 0.414-0.102l6.893-3.215c0.303-0.142 0.471-0.351 0.512-0.637 0.038-0.273-0.038-0.625-0.221-1.015z"></path>
</svg>
