<!-- Generated by IcoMoon.io -->
<svg version="1.1" xmlns="http://www.w3.org/2000/svg" width="32" height="32" viewBox="0 0 32 32">
<title>x-free-drag</title>
<path d="M19.826 18.602c-0.261 0-0.326 0.078-0.826 0.224v0.948c0 0.288-0.212 0.523-0.5 0.523s-0.5-0.235-0.5-0.523v-1.082c0-0.567-0.672-0.977-1.258-0.977-0.261 0-0.242 0.078-0.742 0.224v1.834c0 0.288-0.211 0.523-0.5 0.523s-0.5-0.235-0.5-0.523v-10.998c0-0.567-0.665-0.976-1.25-0.976-0.584 0-0.75 0.409-1.25 0.976v10.998c0 0.288-0.211 0.523-0.5 0.523s-0.5-0.235-0.5-0.523v-8.868c0-0.146-0.47-0.226-0.726-0.226-0.698 0.001-1.274 0.569-1.274 1.267v8.052h-0.072c-1.486 0-1.928 0.622-1.928 2.055v4.687c0 0.291 0.183 0.572 0.367 0.811l0.072 0.046c0.099 0.157 1.575 1.843 2.446 2.864l0.116 0.070v0.092c0 0.913 0.254 1.375 0.892 1.375h7.608c0.637 0 1-0.462 1-1.375v-0.067l0.015-0.058c0.336-0.573 1.195-2.197 1.195-2.813l-0.078-8.008c-0.095-0.625-0.678-1.078-1.306-1.078zM27.567 11.514c-0.076-0.041-1.357-0.834-2.198-1.357-0.095-0.060-0.204-0.066-0.294-0.017-0.090 0.050-0.144 0.103-0.144 0.216l0.001 0.643h-1.933v-1.5h0.881c0.114 0 0.218-0.134 0.268-0.226 0.047-0.085 0.044-0.222-0.012-0.319-0.52-0.833-1.309-2.122-1.351-2.205-0.085-0.184-0.383-0.207-0.482-0.019-0.041 0.076-0.834 1.352-1.357 2.192-0.060 0.095-0.066 0.274-0.016 0.363s0.145 0.213 0.259 0.213h0.809v1.5h-2v-0.591c0-0.114 0.011-0.216-0.080-0.268-0.084-0.047-0.149-0.044-0.245 0.011-0.832 0.52-2.086 1.309-2.168 1.351-0.184 0.085-0.189 0.382-0.002 0.48 0.076 0.040 1.361 0.835 2.202 1.357 0.094 0.062 0.133 0.066 0.222 0.018 0.090-0.050 0.072-0.101 0.072-0.214v-0.643h2v1.5h-0.801c-0.114 0-0.216 0.133-0.267 0.225-0.048 0.085-0.045 0.222 0.011 0.319 0.519 0.832 1.308 2.122 1.351 2.204 0.085 0.184 0.381 0.208 0.481 0.021 0.040-0.076 0.835-1.352 1.356-2.193 0.062-0.095 0.067-0.203 0.018-0.292s-0.247-0.143-0.36-0.143l-0.789 0.002v-1.642h1.933l0.001 0.634c0.003 0.114 0.062 0.195 0.154 0.246 0.085 0.046 0.186 0.033 0.282-0.023 0.833-0.52 2.104-1.315 2.187-1.357 0.183-0.085 0.198-0.388 0.011-0.487z"></path>
</svg>
