<!-- Generated by IcoMoon.io -->
<svg version="1.1" xmlns="http://www.w3.org/2000/svg" width="32" height="32" viewBox="0 0 32 32">
<title>x-free-drag3</title>
<path d="M16.227 12.823c-0.258 0-0.227 0.079-0.726 0.226v6.726c0 0.288-0.211 0.523-0.501 0.523-0.287 0-0.499-0.235-0.499-0.523v-8.829c0-0.568-0.672-0.977-1.257-0.977-0.258 0-0.243 0.079-0.743 0.225v9.582c0 0.288-0.211 0.523-0.499 0.523s-0.501-0.235-0.501-0.523v-10.998c0-0.567-0.665-0.976-1.249-0.976-0.585 0-1.251 0.409-1.251 0.976v10.998c0 0.288-0.211 0.523-0.5 0.523s-0.5-0.235-0.5-0.523v-8.868c0-0.148-0.466-0.225-0.726-0.225-0.698 0-1.274 0.568-1.274 1.267v7.932l-0.234 0.012c-1.499 0.001-1.766 0.729-1.766 2.162v4.687c0 0.291 0.106 0.571 0.29 0.811l0.032 0.046c0.099 0.157 1.633 1.843 2.503 2.864l0.175 0.070v0.092c0 0.912 0.098 1.375 0.737 1.375h7.607c0.639 0 1.155-0.463 1.155-1.375v-0.067l-0.085-0.058c0.334-0.573 1.085-2.197 1.085-2.813v-13.596c0-0.699-0.575-1.268-1.273-1.268zM29.866 13.826c-0.076-0.040-1.357-0.835-2.198-1.357-0.094-0.062-0.204-0.066-0.294-0.018-0.090 0.050-0.145 0.197-0.145 0.309l0.002 0.739h-1.732v-2h0.68c0.114 0 0.217 0.021 0.268-0.069 0.047-0.085 0.044-0.144-0.011-0.241-0.52-0.832-1.308-2.083-1.352-2.165-0.085-0.184-0.381-0.188-0.48-0.001-0.041 0.076-0.835 1.362-1.357 2.203-0.061 0.094-0.067 0.123-0.017 0.213s0.056 0.062 0.17 0.062h0.599v2h-1.552l-0.001-0.729c-0.003-0.114-0.063-0.242-0.154-0.293-0.085-0.047-0.186-0.056-0.282-0.001-0.833 0.52-2.105 1.303-2.187 1.345-0.184 0.085-0.198 0.379-0.011 0.479 0.076 0.041 1.357 0.832 2.198 1.354 0.094 0.060 0.204 0.066 0.294 0.016s0.145-0.258 0.145-0.371l-0.002-0.799h1.552v2h-0.501c-0.114 0-0.217 0.040-0.268 0.131-0.047 0.084-0.044 0.174 0.012 0.27 0.52 0.834 1.308 2.099 1.352 2.181 0.085 0.183 0.382 0.195 0.481 0.008 0.041-0.076 0.834-1.358 1.357-2.198 0.061-0.095 0.066-0.181 0.017-0.271-0.050-0.090-0.146-0.121-0.259-0.121h-0.689v-2h1.5v0.902c0 0.114 0.179 0.217 0.27 0.268 0.084 0.048 0.244 0.044 0.34-0.011 0.833-0.52 2.134-1.308 2.215-1.351 0.184-0.086 0.227-0.382 0.040-0.482z"></path>
</svg>
