<!-- Generated by IcoMoon.io -->
<svg version="1.1" xmlns="http://www.w3.org/2000/svg" width="32" height="32" viewBox="0 0 32 32">
<title>x-free-drag2</title>
<path d="M20.239 18.602c-0.261 0-0.239 0.078-0.739 0.225v0.948c0 0.288-0.212 0.523-0.5 0.523s-0.5-0.235-0.5-0.523v-8.83c0-0.568-0.672-0.977-1.258-0.977-0.261 0-0.242 0.077-0.742 0.225v9.582c0 0.288-0.212 0.523-0.5 0.523s-0.5-0.235-0.5-0.523v-10.998c0-0.567-0.665-0.976-1.249-0.976s-1.251 0.409-1.251 0.976v10.998c0 0.288-0.212 0.523-0.5 0.523s-0.5-0.235-0.5-0.523v-8.868c0-0.146-0.47-0.226-0.726-0.226-0.698 0-1.274 0.568-1.274 1.267v7.919l-0.22 0.024c-1.514 0.003-1.78 0.73-1.78 2.164v4.686c0 0.291 0.097 0.572 0.281 0.811l0.028 0.046c0.098 0.157 1.639 1.843 2.51 2.864l0.18 0.070v0.091c0 0.913 0.082 1.375 0.72 1.375h7.607c0.639 0 1.173-0.462 1.173-1.375v-0.067l-0.072-0.058c0.335-0.573 1.152-2.197 1.152-2.812l-0.057-8.008c-0.095-0.625-0.656-1.078-1.284-1.078zM30.843 13.136c-0.076-0.040-1.356-0.834-2.197-1.357-0.095-0.060-0.308-0.066-0.398-0.017-0.090 0.050-0.247 0.146-0.247 0.259v0.479h-1.5v-1.5h0.656c0.114 0 0.218-0.073 0.269-0.165 0.047-0.085 0.044-0.191-0.012-0.287-0.52-0.833-1.309-2.107-1.352-2.19-0.085-0.184-0.382-0.199-0.482-0.012-0.041 0.076-0.834 1.355-1.357 2.197-0.061 0.095-0.066 0.214-0.017 0.303s0.145 0.153 0.259 0.153h0.534v1.5h-1.5v-0.469c0-0.114-0.102-0.216-0.192-0.268-0.084-0.047-0.205-0.044-0.302 0.011-0.833 0.52-2.114 1.309-2.196 1.351-0.184 0.085-0.203 0.382-0.017 0.48 0.076 0.040 1.354 0.835 2.195 1.357 0.095 0.062 0.203 0.066 0.293 0.018s0.144-0.162 0.144-0.275l-0.001-0.705h1.576v2h-0.525c-0.114 0-0.216-0.055-0.268 0.036-0.048 0.084-0.044 0.127 0.011 0.224 0.52 0.833 1.308 2.075 1.351 2.157 0.085 0.184 0.382 0.184 0.481-0.003 0.041-0.076 0.835-1.364 1.357-2.205 0.061-0.094 0.066-0.208 0.017-0.297-0.050-0.089-0.135-0.146-0.248-0.146l-0.677-0.002v-1.764h1.5v0.712c0 0.114 0.167 0.217 0.259 0.268 0.085 0.047 0.238 0.044 0.334-0.011 0.834-0.52 2.13-1.309 2.213-1.351 0.183-0.085 0.224-0.382 0.037-0.482z"></path>
</svg>
