<!-- Generated by IcoMoon.io -->
<svg version="1.1" xmlns="http://www.w3.org/2000/svg" width="32" height="32" viewBox="0 0 32 32">
<title>x-horizontal-scroll</title>
<path d="M21.726 18.602c-0.261 0-0.726 0.078-0.726 0.224v0.948c0 0.288-0.212 0.523-0.5 0.523s-0.5-0.235-0.5-0.523v-1.082c0-0.567-0.672-0.977-1.257-0.977-0.261 0-0.743 0.078-0.743 0.224v1.834c0 0.288-0.212 0.523-0.5 0.523s-0.5-0.235-0.5-0.523v-10.998c0-0.567-0.665-0.976-1.249-0.976s-1.251 0.409-1.251 0.976v10.998c0 0.288-0.211 0.523-0.5 0.523s-0.5-0.235-0.5-0.523v-8.868c-0.5-0.146-0.47-0.226-0.726-0.226-0.698 0.001-1.274 0.569-1.274 1.267v8.052h-0.273c-1.486 0-1.727 0.622-1.727 2.055v4.687c0 0.291 0.083 0.572 0.268 0.811l0.021 0.046c0.099 0.157 1.4 1.843 2.271 2.864l-0.059 0.070v0.092c0 0.913 0.553 1.375 1.192 1.375h7.607c0.638-0 1.2-0.463 1.2-1.375v-0.067l-0.086-0.058c0.335-0.573 1.145-2.198 1.145-2.813l-0.053-8.008c-0.095-0.624-0.652-1.077-1.28-1.077zM29.366 11.514c-0.076-0.040-1.357-0.835-2.198-1.357-0.094-0.061-0.204-0.066-0.294-0.017s-0.144 0.102-0.144 0.216l0.002 0.643h-4.732v-0.591c0-0.114-0.090-0.217-0.181-0.268-0.084-0.046-0.198-0.044-0.296 0.011-0.833 0.52-2.111 1.309-2.194 1.351-0.184 0.085-0.201 0.382-0.014 0.481 0.076 0.041 1.355 0.835 2.195 1.357 0.095 0.060 0.23 0.066 0.319 0.017 0.090-0.050 0.17-0.146 0.17-0.259v-0.598h4.5v0.589c0 0.114 0.178 0.217 0.27 0.268 0.085 0.047 0.244 0.044 0.34-0.011 0.832-0.52 2.134-1.309 2.216-1.351 0.184-0.085 0.227-0.382 0.040-0.481z"></path>
</svg>
