<!-- Generated by IcoMoon.io -->
<svg version="1.1" xmlns="http://www.w3.org/2000/svg" width="32" height="32" viewBox="0 0 32 32">
<title>x-horizontal-scroll2</title>
<path d="M18.937 18.602c-0.593 0-1.217 0.421-1.341 1l-0.596 2.302v-10.671c0-0.698-0.584-1.266-1.283-1.266-0.249 0-0.217 0.075-0.717 0.213v9.594c0 0.289-0.212 0.523-0.5 0.523s-0.5-0.235-0.5-0.523v-10.883c0-0.609-0.603-1.091-1.241-1.091-0.699 0-1.259 0.569-1.259 1.267v10.707c0 0.289-0.211 0.523-0.5 0.523s-0.5-0.235-0.5-0.523v-8.889c0-0.133-0.464-0.204-0.709-0.204-0.697 0-1.291 0.569-1.291 1.267v7.93l-0.232 0.015c-1.501 0.002-1.768 0.73-1.768 2.162v4.688c0 0.291 0.185 0.572 0.37 0.811l0.072 0.046c0.099 0.157 1.574 1.843 2.445 2.864l0.114 0.070v0.092c0 0.913 0.258 1.375 0.896 1.375h7.607c0.639 0 0.997-0.462 0.997-1.375v-0.067l0.017-0.058c0.335-0.573 1.197-2.197 1.197-2.813l-0.024-8.008c-0.095-0.623-0.623-1.076-1.252-1.076zM30.866 12.908c-0.076-0.040-1.357-0.834-2.197-1.357-0.094-0.060-0.204-0.066-0.294-0.017-0.090 0.050-0.145 0.156-0.145 0.268l0.002 0.697h-4.732v-0.697c0-0.114-0.089-0.216-0.18-0.268-0.084-0.047-0.199-0.044-0.296 0.011-0.832 0.52-2.111 1.309-2.193 1.351-0.184 0.085-0.202 0.382-0.015 0.48 0.076 0.040 1.355 0.835 2.196 1.357 0.095 0.062 0.203 0.066 0.293 0.018s0.143-0.049 0.143-0.162l-0.002-0.591h4.785l0.001 0.581c0.003 0.114 0.062 0.168 0.154 0.22 0.085 0.047 0.186 0.020 0.282-0.036 0.833-0.52 2.104-1.322 2.187-1.364 0.184-0.085 0.198-0.394 0.011-0.493z"></path>
</svg>
