<!-- Generated by IcoMoon.io -->
<svg version="1.1" xmlns="http://www.w3.org/2000/svg" width="32" height="32" viewBox="0 0 32 32">
<title>x-horizontal-scroll3</title>
<path d="M18.727 12.823c-0.258 0-0.227 0.079-0.727 0.226v6.726c0 0.288-0.211 0.523-0.5 0.523s-0.5-0.235-0.5-0.523v-8.829c0-0.568-0.672-0.977-1.257-0.977-0.257 0-0.243 0.079-0.743 0.225v9.582c0 0.288-0.211 0.523-0.5 0.523s-0.5-0.235-0.5-0.523v-10.998c-0.133-0.567-0.665-0.976-1.25-0.976s-1.25 0.409-1.25 0.976v10.998c0 0.288-0.212 0.523-0.5 0.523s-0.5-0.235-0.5-0.523v-8.868c0-0.146-0.47-0.225-0.726-0.225-0.698 0-1.274 0.568-1.274 1.267v7.93l-0.232 0.014c-1.501 0.002-1.768 0.73-1.768 2.163v4.687c0 0.291 0.097 0.572 0.282 0.811l0.027 0.046c0.099 0.157 1.64 1.843 2.511 2.864l0.18 0.070v0.092c0 0.912 0.082 1.375 0.72 1.375h7.607c0.639 0 1.173-0.463 1.173-1.375v-0.067l-0.086-0.058c0.336-0.573 1.086-2.197 1.086-2.813v-13.596c0-0.699-0.575-1.268-1.273-1.268zM31.178 9.495c-0.076-0.040-1.357-0.834-2.198-1.357-0.095-0.060-0.226-0.066-0.315-0.017-0.090 0.051-0.166 0.146-0.166 0.259v0.62h-4.5v-0.611c0-0.114-0.183-0.217-0.274-0.268-0.085-0.047-0.245-0.044-0.343 0.011-0.833 0.52-2.134 1.308-2.216 1.351-0.184 0.085-0.213 0.382-0.027 0.481 0.076 0.040 1.349 0.835 2.19 1.357 0.095 0.062 0.201 0.066 0.291 0.018 0.090-0.050 0.142-0.092 0.142-0.205l-0.002-0.633h4.741v0.57c0 0.114 0.085 0.217 0.176 0.268 0.086 0.047 0.198 0.044 0.294-0.011 0.833-0.52 2.11-1.309 2.192-1.351 0.183-0.086 0.203-0.383 0.015-0.482z"></path>
</svg>
