<!-- Generated by IcoMoon.io -->
<svg version="1.1" xmlns="http://www.w3.org/2000/svg" width="32" height="32" viewBox="0 0 32 32">
<title>x-pinch</title>
<path d="M30.905 12.5c-0.333 0-2.405 0-2.405 0v-0.646c0-0.127-0.101-0.241-0.201-0.297-0.095-0.053-0.224-0.050-0.33 0.012-0.927 0.578-2.349 1.456-2.441 1.503-0.205 0.095-0.224 0.425-0.017 0.536 0.085 0.045 1.509 0.928 2.444 1.509 0.106 0.068 0.226 0.074 0.326 0.018s0.16-0.204 0.16-0.329l-0.002-0.807c0 0 2.259 0 2.498 0s0.064-0.175 0.064-0.175v-0.952c0 0 0.239-0.373-0.095-0.373zM21.011 11.575c-0.105-0.066-0.227-0.073-0.328-0.018-0.099 0.055-0.159 0.107-0.159 0.232l0.001 0.712c0 0-2.261 0-2.498 0s-0.526 0.367-0.526 0.367v0.953c0 0 0.224 0.181 0.558 0.181s2.467 0 2.467 0l0.001 0.796c0.004 0.127 0.070 0.261 0.169 0.318 0.095 0.053 0.208 0.060 0.315-0.002 0.927-0.578 2.342-1.45 2.433-1.498 0.206-0.095 0.221-0.422 0.014-0.534-0.085-0.045-1.509-0.925-2.445-1.507zM16.761 18.602c-0.593 0-1.129 0.421-1.252 1l-0.508 2.31v-10.678c0-0.698-0.584-1.266-1.283-1.266-0.253 0-0.217 0.073-0.717 0.213v9.594c0 0.289-0.212 0.523-0.5 0.523s-0.5-0.235-0.5-0.523v-10.883c0-0.609-0.604-1.091-1.241-1.091-0.698 0-1.259 0.569-1.259 1.267v10.707c0 0.289-0.211 0.523-0.501 0.523s-0.499-0.235-0.499-0.523v-8.889c-0.5-0.133-0.463-0.203-0.709-0.203-0.698 0-1.291 0.569-1.291 1.267v7.93l-0.231 0.015c-1.502 0.002-1.769 0.73-1.769 2.162v4.688c0 0.291 0.098 0.571 0.282 0.811l0.028 0.046c0.099 0.157 1.639 1.843 2.51 2.864l0.18 0.070v0.092c0 0.913 0.082 1.375 0.721 1.375h7.606c0.639-0.001 1.173-0.463 1.173-1.375v-0.067l-0.072-0.058c0.335-0.573 1.152-2.198 1.152-2.813l-0.047-8.008c-0.095-0.624-0.645-1.076-1.273-1.076z"></path>
</svg>
