<!-- Generated by IcoMoon.io -->
<svg version="1.1" xmlns="http://www.w3.org/2000/svg" width="32" height="32" viewBox="0 0 32 32">
<title>x-pinch-37</title>
<path d="M30.215 9.5c-0.334 0-3.215 0-3.215 0v-0.928c0-0.127 0.051-0.241-0.052-0.298-0.094-0.053-0.146-0.050-0.253 0.012-0.927 0.577-2.312 1.454-2.403 1.502-0.204 0.095-0.206 0.425 0.002 0.536 0.084 0.046 1.517 0.928 2.453 1.51 0.105 0.068 0.111 0.073 0.211 0.018 0.101-0.055 0.043-0.061 0.043-0.186v-0.666c0 0 3.008 0 3.247 0 0.238 0 0.253-0.458 0.253-0.458v-0.952c0 0 0.049-0.090-0.285-0.090zM19.813 8.29c-0.105-0.068-0.226-0.073-0.327-0.018-0.1 0.055-0.16 0.249-0.16 0.374l0 0.854c0 0-2.768 0-3.006 0s-0.32 0.082-0.32 0.082v0.951c0 0 0.017 0.466 0.352 0.466 0.334 0 3.148 0 3.148 0v0.553c0 0.127-0.017 0.241 0.084 0.297 0.096 0.053 0.165 0.050 0.272-0.012 0.926-0.578 2.32-1.454 2.41-1.502 0.205-0.095 0.211-0.426 0.003-0.536-0.085-0.046-1.52-0.928-2.456-1.51zM14.226 12.823c-0.261 0-0.226 0.078-0.726 0.224v6.727c0 0.288-0.212 0.523-0.5 0.523s-0.5-0.235-0.5-0.523v-8.83c0-0.568-0.671-0.976-1.257-0.976-0.261 0-0.243 0.077-0.743 0.225v9.582c0 0.288-0.211 0.523-0.5 0.523s-0.5-0.235-0.5-0.523v-10.997c0-0.568-0.665-0.976-1.25-0.976s-1.25 0.408-1.25 0.976v10.998c0 0.288-0.212 0.523-0.5 0.523s-0.5-0.235-0.5-0.523v-8.868c0-0.146-0.469-0.225-0.726-0.225-0.699 0-1.274 0.568-1.274 1.267v8.052h-0.204c-1.486 0-1.796 0.622-1.796 2.055v4.688c0 0.29 0.118 0.57 0.303 0.811l0.038 0.046c0.099 0.157 1.624 1.843 2.494 2.864l0.165 0.070v0.092c0 0.912 0.123 1.375 0.761 1.375h7.607c0.639 0 1.131-0.463 1.131-1.375v-0.067l-0.085-0.058c0.335-0.573 1.085-2.197 1.085-2.813v-13.595c0-0.699-0.575-1.268-1.274-1.268z"></path>
</svg>
