<!-- Generated by IcoMoon.io -->
<svg version="1.1" xmlns="http://www.w3.org/2000/svg" width="32" height="32" viewBox="0 0 32 32">
<title>X-ray-of-bone</title>
<path d="M19.738 11.255c0.846 0 1.665 0.358 2.238 0.988 0.75 0.822 1.258 1.53 2.467 1.543 0.448 0.005 3.052 0.004 4.921 0.002v-10.777c0-0.643-0.519-1.167-1.162-1.167h-6v1.385c0 0.795-0.646 1.442-1.442 1.442h-9.518c-0.795 0-1.442-0.647-1.442-1.442v-1.385h-5.995c-0.643 0-1.165 0.523-1.165 1.167v17.34c1.368-0.724 2.266-1.197 2.742-1.456 1.14-0.614 1.266-1.502 1.596-2.661 0.229-0.788 0.773-1.459 1.498-1.843 1.487-0.787 3.332-0.221 4.118 1.263 0.332 0.626 0.277 1.168 0.332 1.83 0.117 1.445 1.526 1.674 2.13 2.816 0.787 1.484 0.22 3.332-1.265 4.119-1.132 0.599-2.124 0.304-3.204-0.198-0.191-0.090-0.389-0.136-0.584-0.149-0.818-0.049-1.648 0.487-2.344 0.857-0.52 0.276-2.882 1.517-5.019 2.645v3.261c0 0.642 0.523 1.167 1.165 1.167h24.398c0.642 0 1.162-0.526 1.162-1.167v-10.662c-2.477-0.014-5.738 0.003-6.406 0.409-0.125 0.079-0.248 0.172-0.364 0.279-0.401 0.386-0.651 0.874-1.125 1.208-0.508 0.348-1.117 0.537-1.73 0.537-1.683 0-3.049-1.368-3.049-3.047 0-0.989 0.725-1.71 0.654-2.704-0.064-0.883-0.654-1.669-0.654-2.555 0-1.68 1.366-3.045 3.050-3.045zM14.72 14.95c-0.232 0.3-0.787 0.299-1.018 0.027-0.418-0.476-0.47-1.124-0.858-1.607-0.422-0.531-0.347-0.399-0.913-0.731-0.507-0.302 0.014-1.020 0.534-1.232 1.951-0.796 3.646 1.72 2.255 3.544zM11.241 3.687h9.519c0.253 0 0.458-0.205 0.458-0.458v-2.77c0-0.253-0.206-0.459-0.458-0.459h-9.519c-0.252 0-0.459 0.205-0.459 0.459v2.771c0 0.252 0.207 0.458 0.459 0.458z"></path>
</svg>
