<!-- Generated by IcoMoon.io -->
<svg version="1.1" xmlns="http://www.w3.org/2000/svg" width="32" height="32" viewBox="0 0 32 32">
<title>x-rotate</title>
<path d="M29.77 27.030l-0.029-0.061 0.006-0.067c0.061-0.661 0.163-2.5-0.096-3.058l-3.402-7.249c-0.339-0.509-1.027-0.71-1.586-0.449-0.236 0.11-0.427 0.284-0.556 0.508l0.401 0.858c0.122 0.262 0.009 0.573-0.253 0.695-0.256 0.12-0.576 0-0.695-0.252l-0.457-0.982c-0.354-0.448-1.007-0.609-1.53-0.364-0.237 0.11-0.427 0.285-0.556 0.508l0.776 1.663c0.059 0.127 0.066 0.269 0.017 0.401s-0.145 0.236-0.271 0.295c-0.25 0.117-0.575 0-0.695-0.253l-0.873-1.873c-0.353-0.448-1.006-0.608-1.53-0.364-0.233 0.108-0.427 0.286-0.556 0.508l1.192 2.555c0.059 0.127 0.066 0.268 0.018 0.399s-0.143 0.237-0.271 0.296c-0.255 0.119-0.578-0-0.695-0.254l-3.431-7.355c-0.351-0.448-1.007-0.608-1.53-0.364-0.307 0.143-0.54 0.397-0.655 0.714s-0.101 0.662 0.043 0.969l5.461 11.711-3.675-4.029c-0.238-0.256-0.576-0.404-0.927-0.404-0.32 0-0.627 0.12-0.861 0.338-0.511 0.475-0.542 1.278-0.066 1.791l4.744 5.201c0.104 0.111 0.232 0.204 0.38 0.275 0.236 0.143 2.16 1.035 3.4 1.602l0.083 0.038 0.040 0.083c0.2 0.43 0.543 0.942 1.038 0.942 0.13 0 0.268-0.034 0.413-0.102l6.895-3.215c0.579-0.27 0.677-0.826 0.292-1.653zM9.408 16.982c-0.075 0.069-1.44 1.169-2.339 1.89-0.101 0.081-0.152 0.198-0.131 0.317 0.021 0.116 0.106 0.214 0.228 0.258l0.74 0.259c-0.484 0.904-1.427 1.483-2.46 1.483-1.54 0-2.795-1.253-2.795-2.793s1.254-2.793 2.795-2.793c0.42 0 0.761-0.341 0.761-0.761s-0.341-0.762-0.761-0.762c-2.381 0-4.319 1.937-4.319 4.317s1.938 4.317 4.319 4.317c1.673 0 3.207-0.98 3.913-2.497l0.762 0.267c0.127 0.040 0.262 0.014 0.354-0.066 0.084-0.075 0.12-0.188 0.097-0.314-0.248-1.116-0.626-2.817-0.64-2.924-0.021-0.235-0.342-0.366-0.524-0.199z"></path>
</svg>
