<!-- Generated by IcoMoon.io -->
<svg version="1.1" xmlns="http://www.w3.org/2000/svg" width="32" height="32" viewBox="0 0 32 32">
<title>x-tap2</title>
<path d="M21.239 18.602c-0.261 0-0.239 0.078-0.739 0.225v0.948c0 0.288-0.212 0.523-0.5 0.523s-0.5-0.235-0.5-0.523v-8.83c0-0.568-0.672-0.977-1.258-0.977-0.261 0-0.242 0.077-0.742 0.225v9.582c0 0.288-0.212 0.523-0.5 0.523s-0.5-0.235-0.5-0.523v-10.998c0-0.567-0.665-0.976-1.249-0.976s-1.251 0.409-1.251 0.976v10.998c0 0.288-0.212 0.523-0.5 0.523s-0.5-0.235-0.5-0.523v-8.868c0-0.146-0.47-0.226-0.726-0.226-0.698 0-1.274 0.568-1.274 1.267v7.919l-0.22 0.024c-1.514 0.003-1.78 0.73-1.78 2.164v4.686c0 0.291 0.097 0.572 0.281 0.811l0.028 0.046c0.098 0.157 1.639 1.843 2.51 2.864l0.18 0.070v0.091c0 0.913 0.082 1.375 0.72 1.375h7.607c0.639 0 1.173-0.462 1.173-1.375v-0.067l-0.072-0.058c0.335-0.573 1.152-2.197 1.152-2.812l-0.057-8.008c-0.095-0.625-0.656-1.078-1.284-1.078zM15.425 3.301c-4.453 0-8.075 3.622-8.075 8.075 0 0.439 0.357 0.796 0.796 0.796s0.796-0.357 0.796-0.796c0-3.574 2.909-6.482 6.483-6.482s6.483 2.908 6.483 6.482c0 0.439 0.357 0.796 0.796 0.796s0.796-0.357 0.796-0.796c-0.001-4.452-3.623-8.075-8.076-8.075z"></path>
</svg>
