<!-- Generated by IcoMoon.io -->
<svg version="1.1" xmlns="http://www.w3.org/2000/svg" width="32" height="32" viewBox="0 0 32 32">
<title>x-tap3</title>
<path d="M16.982 2.743c-4.677 0-8.482 3.805-8.482 8.482 0 0.44 0.357 0.796 0.797 0.796s0.796-0.357 0.796-0.796c0-3.799 3.091-6.888 6.889-6.888s6.889 3.090 6.889 6.888c0 0.44 0.358 0.796 0.796 0.796 0.439 0 0.797-0.357 0.797-0.796 0-4.676-3.805-8.482-8.482-8.482zM22.226 12.823c-0.257 0-0.226 0.079-0.726 0.226v6.726c0 0.288-0.212 0.523-0.5 0.523s-0.5-0.235-0.5-0.523v-8.829c0-0.568-0.672-0.977-1.258-0.977-0.261 0-0.242 0.077-0.742 0.225v9.582c0 0.288-0.212 0.523-0.5 0.523s-0.5-0.235-0.5-0.523v-10.998c0-0.567-0.666-0.976-1.25-0.976-0.585 0-1.25 0.409-1.25 0.976v10.998c0 0.288-0.211 0.523-0.5 0.523s-0.5-0.235-0.5-0.523v-8.868c0-0.146-0.469-0.225-0.726-0.225-0.698 0-1.274 0.568-1.274 1.267v7.93l-0.231 0.014c-1.502 0.002-1.769 0.73-1.769 2.163v4.687c0 0.291 0.137 0.572 0.322 0.811l0.047 0.046c0.098 0.157 1.61 1.843 2.481 2.864l0.15 0.070v0.092c0 0.912 0.162 1.375 0.8 1.375h7.607c0.638-0.001 1.091-0.463 1.091-1.375v-0.067l-0.085-0.058c0.334-0.573 1.085-2.198 1.085-2.813v-13.596c0-0.699-0.575-1.268-1.274-1.268z"></path>
</svg>
