<!-- Generated by IcoMoon.io -->
<svg version="1.1" xmlns="http://www.w3.org/2000/svg" width="32" height="32" viewBox="0 0 32 32">
<title>x-tap</title>
<path d="M13.819 4.968c2.736 0 4.96 2.225 4.96 4.96 0 0.439 0.357 0.796 0.797 0.796 0.439 0 0.796-0.357 0.796-0.796 0-3.613-2.939-6.552-6.553-6.552s-6.552 2.939-6.552 6.552c0 0.439 0.357 0.796 0.797 0.796s0.796-0.357 0.796-0.796c-0.001-2.735 2.223-4.96 4.958-4.96zM22.505 19.679c-0.095-0.625-0.639-1.077-1.266-1.077-0.257 0-0.739 0.079-0.739 0.225v0.948c0 0.288-0.212 0.523-0.5 0.523s-0.5-0.235-0.5-0.523v-1.082c0-0.567-0.672-0.977-1.258-0.977-0.261 0-0.242 0.078-0.742 0.224v1.834c0 0.288-0.212 0.523-0.5 0.523s-0.5-0.235-0.5-0.523v-10.997c0-0.568-0.666-0.976-1.25-0.976-0.585 0-1.25 0.409-1.25 0.976v10.998c0 0.288-0.212 0.523-0.5 0.523s-0.5-0.235-0.5-0.523v-8.868c0-0.146-0.469-0.226-0.726-0.226-0.698 0.001-1.274 0.569-1.274 1.267v8.052h-0.248c-1.486 0-1.752 0.622-1.752 2.055v4.687c0 0.291 0.095 0.571 0.28 0.811l0.027 0.045c0.098 0.157 1.64 1.843 2.511 2.866l0.181 0.070v0.092c0 0.913 0.078 1.375 0.717 1.375h7.607c0.638-0 1.175-0.463 1.175-1.375v-0.067l-0.073-0.058c0.335-0.573 1.151-2.198 1.151-2.813l-0.073-8.007z"></path>
</svg>
