<!-- Generated by IcoMoon.io -->
<svg version="1.1" xmlns="http://www.w3.org/2000/svg" width="32" height="32" viewBox="0 0 32 32">
<title>x-tap4</title>
<path d="M15.649 3.095c-4.677 0-8.482 3.805-8.482 8.482 0 0.44 0.357 0.797 0.796 0.797s0.797-0.357 0.797-0.797c0-3.798 3.091-6.888 6.889-6.888s6.888 3.091 6.888 6.888c0 0.44 0.357 0.797 0.797 0.797s0.797-0.357 0.797-0.797c0-4.676-3.805-8.482-8.481-8.482zM20.727 12.823c-0.261 0-0.227 0.078-0.727 0.225v6.726c0 0.288-0.212 0.523-0.5 0.523s-0.5-0.235-0.5-0.523v-8.829c0-0.568-0.672-0.977-1.257-0.977-0.257 0-0.243 0.079-0.743 0.225v9.582c0 0.288-0.212 0.523-0.5 0.523s-0.5-0.235-0.5-0.523v-10.998c0-0.567-0.666-0.976-1.251-0.976s-1.249 0.409-1.249 0.976v10.998c0 0.288-0.212 0.523-0.501 0.523-0.287 0-0.499-0.235-0.499-0.523v-8.868c0-0.148-0.466-0.225-0.726-0.225-0.699-0.001-1.274 0.568-1.274 1.266v12.922l-1.627-5.204c-0.168-0.523-0.652-0.876-1.202-0.876-0.133 0-0.263 0.020-0.389 0.061-0.665 0.214-1.031 0.93-0.817 1.594l2.102 6.719c0.047 0.147 0.124 0.288 0.23 0.416 0.193 0.279 1.918 2.175 2.522 2.884l0.18 0.070v0.092c0 0.912 0.081 1.375 0.719 1.375h7.608c0.638-0.001 1.173-0.463 1.173-1.375v-0.067l-0.085-0.058c0.335-0.573 1.085-2.197 1.085-2.813v-13.596c0-0.699-0.575-1.267-1.273-1.267z"></path>
</svg>
