<!-- Generated by IcoMoon.io -->
<svg version="1.1" xmlns="http://www.w3.org/2000/svg" width="32" height="32" viewBox="0 0 32 32">
<title>x-touch-n-hold</title>
<path d="M17.792 18.479c-0.256 0-0.292 0.079-0.792 0.226v0.948c0 0.288-0.212 0.523-0.501 0.523-0.287 0-0.499-0.235-0.499-0.523v-8.83c0-0.568-0.673-0.977-1.258-0.977-0.257 0-0.242 0.079-0.742 0.225v9.582c0 0.288-0.211 0.523-0.5 0.523s-0.5-0.235-0.5-0.523v-10.998c0-0.567-0.665-0.976-1.249-0.976s-0.751 0.409-1.251 0.976v10.998c0 0.288-0.211 0.523-0.499 0.523s-0.501-0.235-0.501-0.523v-8.867c0-0.146-0.469-0.226-0.726-0.226-0.698 0-1.274 0.568-1.274 1.267v7.919l-0.219 0.024c-1.514 0.003-1.781 0.73-1.781 2.163v4.686c0 0.291 0.149 0.572 0.334 0.811l0.053 0.046c0.098 0.157 1.601 1.843 2.471 2.864l0.142 0.070v0.091c0 0.913 0.187 1.498 0.825 1.498h7.607c0.639 0 1.068-0.585 1.068-1.498v-0.067l-0.018-0.058c0.334-0.573 1.177-2.197 1.177-2.813l-0.070-8.008c-0.093-0.624-0.668-1.077-1.297-1.077zM11.596 3.497c-4.453 0-8.076 3.622-8.076 8.075 0 0.439 0.357 0.796 0.797 0.796s0.796-0.357 0.796-0.796c0-3.575 2.909-6.482 6.483-6.482s6.483 2.907 6.483 6.482c0 0.439 0.358 0.796 0.796 0.796s0.796-0.357 0.796-0.796c-0-4.452-3.622-8.075-8.075-8.075zM24.767 13.688c-2.333 0-4.231 1.899-4.231 4.233s1.898 4.232 4.231 4.232c2.334 0 4.233-1.899 4.233-4.232 0-2.334-1.898-4.232-4.233-4.232zM24.767 20.628c-1.492 0-2.709-1.215-2.709-2.709s1.216-2.709 2.709-2.709c1.494 0 2.709 1.215 2.709 2.709s-1.215 2.709-2.709 2.709zM26.186 17.5h-1.186v-1.125c0-0.281-0.22-0.508-0.5-0.508s-0.5 0.228-0.5 0.508v2.125h2.186c0.28 0 0.508-0.219 0.508-0.5s-0.227-0.5-0.508-0.5z"></path>
</svg>
