<!-- Generated by IcoMoon.io -->
<svg version="1.1" xmlns="http://www.w3.org/2000/svg" width="32" height="32" viewBox="0 0 32 32">
<title>x-vertical-scroll2</title>
<path d="M18.726 13.059c-0.256 0-0.226 0.079-0.726 0.225v6.726c0 0.289-0.212 0.523-0.5 0.523s-0.5-0.235-0.5-0.523v-8.829c0-0.568-0.673-0.977-1.257-0.977-0.261 0-0.243 0.077-0.743 0.225v9.582c0 0.289-0.211 0.523-0.5 0.523s-0.5-0.235-0.5-0.523v-10.998c0-0.567-0.665-0.976-1.249-0.976s-0.751 0.409-1.251 0.976v10.998c0 0.289-0.211 0.523-0.5 0.523s-0.5-0.235-0.5-0.523v-8.867c0-0.148-0.466-0.226-0.726-0.226-0.698 0-1.274 0.569-1.274 1.267v12.922l-1.569-5.204c-0.168-0.524-0.623-0.877-1.175-0.877-0.131 0-0.247 0.020-0.374 0.061-0.665 0.215-1.024 0.93-0.81 1.595l2.106 6.718c0.048 0.149 0.128 0.288 0.232 0.416 0.192 0.279 1.863 2.175 2.466 2.884l0.124 0.070v0.092c0 0.913 0.196 1.14 0.834 1.14h7.607c0.637 0 1.059-0.227 1.059-1.14v-0.067l-0.085-0.058c0.335-0.573 1.085-2.197 1.085-2.813v-13.596c0-0.698-0.576-1.267-1.274-1.267zM28 9.452v0.548h-4.5v-0.538c0-0.114-0.060-0.217-0.151-0.268-0.085-0.047-0.184-0.044-0.282 0.011-0.832 0.52-2.103 1.309-2.185 1.351-0.184 0.085-0.198 0.381-0.012 0.48 0.076 0.040 1.357 0.835 2.198 1.357 0.095 0.062 0.204 0.066 0.294 0.018 0.090-0.050 0.145-0.128 0.145-0.241l-0.002-0.67h4.494v0.643c0 0.114 0.208 0.217 0.299 0.268 0.085 0.047 0.259 0.044 0.355-0.011 0.833-0.52 2.141-1.309 2.224-1.351 0.184-0.085 0.215-0.382 0.029-0.48-0.076-0.041-1.347-0.835-2.188-1.357-0.095-0.059-0.345-0.066-0.434-0.017-0.090 0.050-0.285 0.146-0.285 0.258z"></path>
</svg>
