<!-- Generated by IcoMoon.io -->
<svg version="1.1" xmlns="http://www.w3.org/2000/svg" width="32" height="32" viewBox="0 0 32 32">
<title>x-vertical-scroll</title>
<path d="M22.186 18.602c-0.262 0-0.686 0.078-0.686 0.224v0.948c0 0.288-0.212 0.523-0.5 0.523s-0.5-0.235-0.5-0.523v-1.082c0-0.567-0.672-0.977-1.258-0.977-0.26 0-0.742 0.078-0.742 0.224v1.834c0 0.288-0.212 0.523-0.5 0.523-0.289 0-0.5-0.235-0.5-0.523v-10.998c0-0.567-0.665-0.976-1.25-0.976s-1.25 0.409-1.25 0.976v10.998c0 0.288-0.211 0.523-0.5 0.523s-0.5-0.235-0.5-0.523v-8.868c-0.5-0.146-0.47-0.226-0.726-0.226-0.698 0.001-1.274 0.569-1.274 1.267v8.052h-0.352c-1.486 0-1.648 0.622-1.648 2.055v4.687c0 0.291 0.044 0.572 0.227 0.811l0.001 0.046c0.099 0.157 1.431 1.843 2.301 2.864l-0.030 0.070v0.092c0 0.913 0.474 1.375 1.113 1.375h7.607c0.638-0 0.78-0.463 0.78-1.375v-0.067l0.125-0.058c0.335-0.573 1.25-2.198 1.25-2.813l0.019-8.008c-0.095-0.624-0.581-1.077-1.207-1.077zM26.149 14.141l-0.649 0.001v-4.642h0.601c0.113 0 0.217-0.134 0.268-0.226 0.047-0.085 0.044-0.222-0.012-0.319-0.52-0.833-1.309-2.122-1.352-2.205-0.085-0.184-0.383-0.207-0.481-0.019-0.041 0.076-0.834 1.352-1.357 2.192-0.061 0.095-0.066 0.274-0.017 0.363 0.050 0.090 0.146 0.213 0.259 0.213h0.59v4.5h-0.581c-0.114 0-0.217 0.133-0.268 0.225-0.048 0.085-0.044 0.222 0.011 0.319 0.52 0.832 1.308 2.122 1.352 2.204 0.085 0.184 0.381 0.208 0.48 0.021 0.040-0.076 0.835-1.352 1.357-2.193 0.061-0.095 0.085-0.203 0.037-0.292-0.049-0.091-0.127-0.142-0.239-0.142z"></path>
</svg>
