<!-- Generated by IcoMoon.io -->
<svg version="1.1" xmlns="http://www.w3.org/2000/svg" width="32" height="32" viewBox="0 0 32 32">
<title>x-zoom-out</title>
<path d="M5.832 12.396c-0.094-0.205-0.425-0.221-0.535-0.013-0.046 0.085-0.928 1.509-1.51 2.445-0.067 0.105-0.074 0.32-0.018 0.419s0.162 0.252 0.288 0.252h0.944c0 0 0 2.582 0 2.82s0.079 0.18 0.079 0.18h0.952c0 0 0.469 0.122 0.469-0.212s0-2.788 0-2.788h0.55c0.128 0 0.24-0.163 0.297-0.264 0.053-0.095 0.051-0.254-0.011-0.361-0.579-0.927-1.455-2.388-1.504-2.479zM7.162 23.651l-0.662 0.001c0 0 0-2.768 0-3.006s-0.463-0.145-0.463-0.145h-0.952c0 0-0.085-0.157-0.085 0.177s0 2.823 0 2.823h-0.934c-0.127 0-0.24 0.145-0.298 0.247-0.053 0.094-0.049 0.244 0.014 0.352 0.577 0.927 1.454 2.361 1.502 2.452 0.096 0.205 0.425 0.23 0.536 0.023 0.045-0.085 0.928-1.505 1.51-2.44 0.067-0.105 0.125-0.225 0.069-0.325-0.054-0.101-0.111-0.159-0.236-0.159zM27.357 27.030l-0.029-0.061 0.006-0.067c0.061-0.661 0.163-2.5-0.097-3.058l-3.402-7.249c-0.338-0.509-1.029-0.71-1.584-0.449-0.238 0.11-0.428 0.284-0.558 0.508l0.401 0.859c0.121 0.262 0.008 0.573-0.254 0.695-0.255 0.119-0.576 0-0.695-0.252l-0.457-0.982c-0.352-0.448-1.006-0.609-1.53-0.364-0.236 0.11-0.427 0.285-0.556 0.508l0.776 1.663c0.059 0.126 0.066 0.268 0.018 0.4s-0.144 0.236-0.271 0.296c-0.253 0.117-0.576 0-0.695-0.253l-0.874-1.873c-0.352-0.448-1.006-0.609-1.529-0.364-0.232 0.108-0.427 0.286-0.556 0.508l1.191 2.555c0.059 0.127 0.066 0.268 0.017 0.4-0.047 0.131-0.143 0.236-0.27 0.296-0.256 0.119-0.578 0-0.695-0.253l-3.43-7.355c-0.352-0.448-1.006-0.608-1.53-0.364-0.306 0.143-0.539 0.397-0.655 0.714s-0.101 0.662 0.042 0.969l5.461 11.712-3.675-4.029c-0.238-0.256-0.575-0.404-0.927-0.404-0.32 0-0.627 0.12-0.862 0.338-0.511 0.475-0.541 1.278-0.066 1.791l4.744 5.201c0.104 0.111 0.232 0.204 0.379 0.275 0.237 0.143 2.159 1.035 3.4 1.602l0.084 0.038 0.039 0.083c0.202 0.427 0.544 0.94 1.041 0.94 0.13 0 0.268-0.034 0.413-0.102l6.895-3.215c0.578-0.27 0.675-0.826 0.291-1.653z"></path>
</svg>
