<!-- Generated by IcoMoon.io -->
<svg version="1.1" xmlns="http://www.w3.org/2000/svg" width="32" height="32" viewBox="0 0 32 32">
<title>x-zoom-in</title>
<path d="M7.298 15.524l-0.798 0.001c0 0 0-2.768 0-3.005s-0.193-0.52-0.193-0.52h-0.952c0 0-0.354 0.217-0.354 0.551s0 2.975 0 2.975l-0.71 0.001c-0.127 0.004-0.217 0.069-0.276 0.171-0.053 0.094-0.038 0.207 0.025 0.314 0.577 0.927 1.46 2.341 1.508 2.433 0.095 0.206 0.428 0.221 0.539 0.013 0.045-0.084 0.928-1.509 1.511-2.445 0.066-0.105 0.058-0.227 0.003-0.327s-0.177-0.161-0.301-0.161zM6.101 20.521c-0.096-0.205-0.426-0.221-0.536-0.013-0.046 0.085-0.928 1.509-1.51 2.445-0.067 0.105-0.074 0.227-0.018 0.327s0.116 0.16 0.242 0.16l0.721-0c0 0 0 2.768 0 3.006s0.348 0.055 0.348 0.055h0.952c0 0 0.199 0.248 0.199-0.085s0-2.915 0-2.915h0.819c0.127 0 0.24-0.1 0.298-0.201 0.053-0.095 0.048-0.222-0.013-0.329-0.577-0.927-1.455-2.356-1.502-2.448zM27.626 27.030l-0.029-0.061 0.006-0.067c0.061-0.661 0.163-2.5-0.096-3.058l-3.402-7.249c-0.339-0.509-1.027-0.71-1.585-0.449-0.233 0.108-0.427 0.286-0.555 0.508l0.399 0.859c0.059 0.126 0.066 0.268 0.017 0.4s-0.143 0.236-0.27 0.295c-0.257 0.119-0.576 0-0.695-0.253l-0.456-0.98c-0.353-0.448-1.008-0.609-1.531-0.364-0.236 0.11-0.427 0.285-0.555 0.507l0.775 1.663c0.059 0.127 0.066 0.27 0.017 0.401-0.047 0.131-0.144 0.236-0.27 0.294-0.251 0.118-0.576 0-0.695-0.253l-0.874-1.873c-0.353-0.448-1.006-0.609-1.53-0.364-0.232 0.108-0.426 0.286-0.556 0.508l1.191 2.555c0.059 0.127 0.066 0.268 0.018 0.4-0.049 0.131-0.145 0.237-0.271 0.296-0.253 0.119-0.576 0-0.695-0.253l-3.429-7.355c-0.352-0.448-1.005-0.608-1.531-0.364-0.306 0.143-0.539 0.397-0.655 0.714s-0.101 0.662 0.043 0.969l5.461 11.712-3.675-4.029c-0.238-0.256-0.576-0.404-0.927-0.404-0.32 0-0.626 0.12-0.861 0.338-0.511 0.475-0.542 1.278-0.067 1.791l4.745 5.201c0.104 0.111 0.232 0.204 0.379 0.275 0.237 0.143 2.16 1.035 3.401 1.602l0.083 0.038 0.039 0.083c0.201 0.43 0.544 0.942 1.040 0.942 0.129 0 0.268-0.034 0.413-0.102l6.895-3.215c0.578-0.27 0.676-0.826 0.291-1.653z"></path>
</svg>
