<!-- Generated by IcoMoon.io -->
<svg version="1.1" xmlns="http://www.w3.org/2000/svg" width="32" height="32" viewBox="0 0 32 32">
<title>xylophone</title>
<path d="M30.925 8.704h-4.375c-0.593 0-1.076 0.482-1.076 1.076v0.778h-1.966v-0.778c0-0.594-0.482-1.076-1.075-1.076h-4.375c-0.593 0-1.076 0.482-1.076 1.076v0.778h-1.963v-0.778c0-0.594-0.483-1.076-1.076-1.076h-4.375c-0.594 0-1.075 0.482-1.075 1.076v0.778h-1.965v-0.778c0-0.594-0.484-1.076-1.077-1.076h-4.375c-0.594 0-1.077 0.482-1.077 1.076v19.983c0 0.594 0.482 1.076 1.075 1.076h4.375c0.593 0 1.077-0.483 1.077-1.076v-1.98l1.965-0.482v0.258c0 0.593 0.482 1.074 1.075 1.074h4.375c0.594 0 1.076-0.482 1.076-1.074v-1.861l1.964-0.483v0.137c0 0.595 0.483 1.076 1.076 1.076h4.375c0.593 0 1.075-0.482 1.075-1.076v-1.739l1.966-0.483v0.017c0 0.594 0.483 1.075 1.075 1.075h4.375c0.593 0 1.075-0.482 1.075-1.075v-13.368c0.001-0.594-0.481-1.076-1.074-1.076zM3.262 28.834c-0.578 0-1.046-0.468-1.046-1.047 0-0.578 0.469-1.048 1.046-1.048 0.58 0 1.049 0.47 1.049 1.048s-0.469 1.047-1.049 1.047zM3.262 12.793c-0.578 0-1.046-0.469-1.046-1.047s0.469-1.047 1.046-1.047c0.58 0 1.049 0.469 1.049 1.047s-0.469 1.047-1.049 1.047zM8.492 24.852l-1.965 0.483v-12.399h1.965v11.915zM11.754 26.629c-0.576 0-1.045-0.469-1.045-1.047 0-0.579 0.469-1.047 1.045-1.047 0.581 0 1.050 0.468 1.050 1.047-0.001 0.578-0.469 1.047-1.050 1.047zM11.754 12.793c-0.576 0-1.045-0.469-1.045-1.047s0.469-1.047 1.045-1.047c0.581 0 1.050 0.469 1.050 1.047s-0.469 1.047-1.050 1.047zM16.982 22.767l-1.963 0.482v-10.313h1.963v9.832zM20.246 24.425c-0.579 0-1.049-0.469-1.049-1.048s0.469-1.047 1.049-1.047c0.578 0 1.046 0.469 1.046 1.047 0 0.579-0.468 1.048-1.047 1.048zM20.246 12.793c-0.579 0-1.049-0.469-1.049-1.047s0.469-1.047 1.049-1.047c0.578 0 1.046 0.469 1.046 1.047s-0.468 1.047-1.047 1.047zM25.474 20.681l-1.966 0.483v-8.228h1.966v7.745zM28.738 22.219c-0.579 0-1.047-0.469-1.047-1.048 0-0.577 0.468-1.047 1.047-1.047s1.047 0.47 1.047 1.047c-0 0.579-0.468 1.048-1.047 1.048zM28.738 12.793c-0.579 0-1.047-0.469-1.047-1.047s0.468-1.047 1.047-1.047c0.579 0 1.047 0.469 1.047 1.047s-0.468 1.047-1.047 1.047zM4.373 6.721c1.197 0 2.21-0.762 2.599-1.824l22.477-0c0.527 0 0.957-0.427 0.956-0.955 0.002-0.527-0.427-0.955-0.956-0.954l-22.477-0.001c-0.39-1.062-1.403-1.825-2.599-1.825-1.535 0-2.779 1.245-2.779 2.779s1.244 2.779 2.779 2.78z"></path>
</svg>
