<!-- Generated by IcoMoon.io -->
<svg version="1.1" xmlns="http://www.w3.org/2000/svg" width="32" height="32" viewBox="0 0 32 32">
<title>ymbolic-cancer-ribbon</title>
<path d="M29.619 25.427c-0.055-0.017-3.799-1.214-8.008-3.945-1.313 1.561-2.857 3.032-4.444 4.366 4.366 3.437 8.654 5.744 8.928 5.89l0.496 0.263 3.732-6.354-0.705-0.22zM20.387 20.651c0.357-0.415 0.698-0.837 1.018-1.264 1.965-2.617 2.915-5.241 3.305-6.572 2.035-6.936-3.323-10.981-3.378-11.021l-0.010 0.011c-1.369-1.107-3.132-1.803-5.265-1.805h-0.116c-2.133 0.002-3.896 0.698-5.266 1.805l-0.009-0.011c-0.055 0.040-5.413 4.085-3.379 11.021 0.391 1.331 1.34 3.954 3.306 6.572 0.322 0.428 0.663 0.85 1.021 1.266-4.678 3.32-9.174 4.755-9.235 4.774l-0.704 0.22 3.732 6.354 0.495-0.262c0.016-0.009 0.052-0.029 0.093-0.050 0.011-0.006 0.024-0.014 0.036-0.020 0.049-0.026 0.109-0.059 0.183-0.099 0.006-0.003 0.011-0.006 0.017-0.009 0.087-0.049 0.189-0.105 0.306-0.171 0.002-0.001 0.004-0.002 0.006-0.003 0.117-0.066 0.25-0.142 0.394-0.224 0.002-0.001 0.003-0.001 0.004-0.002 1.772-1.018 5.505-3.288 9.057-6.253 1.558-1.3 3.081-2.732 4.387-4.255zM15.999 16.895c-0.157-0.165-0.314-0.331-0.468-0.501-2.769-3.055-5.716-6.564-5.965-9.159-0.014-0.153-0.024-0.295-0.033-0.44 1.007-1.31 3.539-2.268 6.463-2.268l0.074 0.005 0.017-0.003c2.558 0 5.378 0.964 6.377 2.265-0.009 0.144-0.018 0.288-0.032 0.441-0.25 2.595-3.196 6.105-5.965 9.16-0.154 0.17-0.311 0.337-0.468 0.501z"></path>
</svg>
