<!-- Generated by IcoMoon.io -->
<svg version="1.1" xmlns="http://www.w3.org/2000/svg" width="32" height="32" viewBox="0 0 32 32">
<title>zoom-out-map</title>
<path d="M21.317 12.858c0.273 0.274 0.718 0.274 0.991 0l5.386-5.386 1.749 1.749c0.507 0.508 1.311 0.357 1.436-0.539l0.817-7.324c0.053-0.275 0.023-0.513-0.073-0.701l0.012-0.011c-0.031-0.052-0.068-0.099-0.109-0.141-0.009-0.012-0.020-0.021-0.032-0.031s-0.020-0.023-0.032-0.032c-0.042-0.040-0.089-0.078-0.14-0.107l-0.011 0.011c-0.188-0.095-0.427-0.126-0.702-0.071l-7.324 0.816c-0.896 0.123-1.046 0.929-0.539 1.437l1.749 1.748-5.387 5.387c-0.273 0.273-0.273 0.716 0 0.99l2.209 2.208zM10.686 19.073c-0.274-0.273-0.718-0.273-0.991 0l-5.386 5.386-1.749-1.748c-0.507-0.507-1.312-0.358-1.437 0.539l-0.817 7.324c-0.053 0.276-0.023 0.514 0.073 0.702l-0.011 0.011c0.030 0.052 0.067 0.099 0.107 0.142 0.010 0.012 0.022 0.021 0.031 0.032s0.020 0.023 0.031 0.032c0.042 0.040 0.090 0.078 0.141 0.108l0.011-0.011c0.188 0.095 0.427 0.125 0.701 0.071l7.324-0.817c0.897-0.124 1.046-0.93 0.539-1.437l-1.75-1.748 5.387-5.386c0.274-0.273 0.274-0.717 0-0.991l-2.207-2.208zM31.696 30.573l-0.817-7.323c-0.125-0.896-0.93-1.046-1.436-0.539l-1.749 1.748-5.387-5.387c-0.273-0.274-0.718-0.274-0.991 0l-2.208 2.208c-0.274 0.274-0.274 0.718 0 0.991l5.386 5.386-1.748 1.748c-0.508 0.508-0.358 1.313 0.538 1.437l7.324 0.817c0.274 0.055 0.514 0.024 0.702-0.071l0.011 0.011c0.052-0.029 0.099-0.068 0.14-0.108 0.012-0.010 0.022-0.021 0.032-0.032s0.022-0.021 0.032-0.032c0.041-0.043 0.078-0.090 0.109-0.142l-0.012-0.011c0.096-0.189 0.127-0.427 0.073-0.703zM7.508 4.272l1.748-1.748c0.507-0.507 0.358-1.313-0.539-1.437l-7.325-0.817c-0.274-0.054-0.513-0.024-0.701 0.071l-0.012-0.011c-0.051 0.029-0.099 0.067-0.141 0.107-0.011 0.010-0.021 0.022-0.031 0.032-0.011 0.011-0.022 0.021-0.032 0.032-0.040 0.043-0.078 0.090-0.107 0.141l0.011 0.011c-0.095 0.188-0.126 0.426-0.073 0.701l0.817 7.324c0.125 0.896 0.929 1.046 1.437 0.539l1.749-1.748 5.387 5.387c0.274 0.274 0.717 0.274 0.991 0l2.209-2.208c0.274-0.274 0.274-0.717 0-0.99l-5.386-5.388z"></path>
</svg>
