<!-- Generated by IcoMoon.io -->
<svg version="1.1" xmlns="http://www.w3.org/2000/svg" width="32" height="32" viewBox="0 0 32 32">
<title>zoom-in-map</title>
<path d="M19.655 11.863c0.029 0.050 0.063 0.093 0.102 0.133 0.009 0.011 0.020 0.020 0.029 0.030s0.020 0.021 0.029 0.030c0.041 0.038 0.085 0.073 0.134 0.101l0.010-0.011c0.177 0.089 0.402 0.119 0.66 0.068l6.889-0.767c0.843-0.117 0.983-0.875 0.507-1.352l-1.645-1.645 5.066-5.067c0.258-0.257 0.258-0.675 0-0.931l-2.076-2.077c-0.258-0.258-0.675-0.258-0.933 0l-5.067 5.066-1.645-1.644c-0.477-0.478-1.235-0.337-1.352 0.506l-0.767 6.888c-0.051 0.259-0.023 0.484 0.067 0.661l-0.011 0.011zM11.995 20.111c-0.028-0.049-0.063-0.093-0.101-0.134-0.009-0.011-0.020-0.020-0.030-0.029s-0.020-0.021-0.030-0.030c-0.040-0.038-0.084-0.073-0.133-0.102l-0.011 0.011c-0.177-0.090-0.402-0.119-0.661-0.067l-6.888 0.768c-0.844 0.117-0.984 0.875-0.507 1.352l1.644 1.645-5.066 5.066c-0.257 0.257-0.257 0.674 0 0.931l2.077 2.077c0.257 0.258 0.675 0.257 0.931 0l5.066-5.066 1.645 1.644c0.477 0.477 1.235 0.337 1.351-0.506l0.768-6.89c0.052-0.259 0.022-0.483-0.068-0.66l0.011-0.010zM26.37 23.524l1.645-1.645c0.477-0.477 0.337-1.235-0.507-1.352l-6.889-0.767c-0.259-0.052-0.483-0.022-0.66 0.067l-0.011-0.011c-0.049 0.029-0.093 0.063-0.134 0.101-0.010 0.009-0.018 0.020-0.029 0.029-0.009 0.011-0.020 0.020-0.029 0.030-0.038 0.041-0.073 0.084-0.102 0.134l0.011 0.011c-0.090 0.177-0.118 0.401-0.067 0.66l0.767 6.889c0.117 0.844 0.875 0.983 1.352 0.506l1.645-1.644 5.066 5.067c0.258 0.258 0.675 0.258 0.931 0l2.077-2.077c0.258-0.258 0.258-0.674 0-0.931l-5.066-5.067zM11.284 4.303c-0.117-0.844-0.874-0.984-1.351-0.507l-1.645 1.645-5.067-5.066c-0.257-0.258-0.674-0.258-0.931 0l-2.076 2.077c-0.258 0.257-0.258 0.674 0 0.931l5.066 5.066-1.645 1.645c-0.477 0.477-0.337 1.235 0.507 1.351l6.889 0.768c0.258 0.051 0.482 0.022 0.659-0.068l0.011 0.011c0.050-0.029 0.093-0.063 0.133-0.102 0.011-0.009 0.020-0.020 0.030-0.029 0.009-0.011 0.020-0.020 0.030-0.031 0.039-0.040 0.073-0.084 0.101-0.133l-0.011-0.011c0.089-0.178 0.118-0.402 0.067-0.661l-0.768-6.888z"></path>
</svg>
