<?xml version="1.0" standalone="no"?>
<!DOCTYPE svg PUBLIC "-//W3C//DTD SVG 1.1//EN" "http://www.w3.org/Graphics/SVG/1.1/DTD/svg11.dtd" >
<svg xmlns="http://www.w3.org/2000/svg">
<metadata>Generated by IcoMoon</metadata>
<defs>
<font id="icomoon" horiz-adv-x="1024">
<font-face units-per-em="1024" ascent="960" descent="-64" />
<missing-glyph horiz-adv-x="1024" />
<glyph unicode="&#x20;" horiz-adv-x="512" d="" />
<glyph unicode="&#xe900;" glyph-name="chart_along-stacked-chart" d="M32 736h176c17.664 0 32 14.336 32 32v160c0 17.664-14.336 32-32 32h-176c-17.664 0-32-14.336-32-32v-160c0-17.664 14.336-32 32-32zM336 560h-304c-17.664 0-32-14.336-32-32v-160c0-17.664 14.336-32 32-32h304c17.664 0 32 14.336 32 32v160c0 17.664-14.336 32-32 32zM288 160h-256c-17.664 0-32-14.336-32-32v-160c0-17.664 14.336-32 32-32h256c17.664 0 32 14.336 32 32v160c0 17.664-14.336 32-32 32zM560 160h-144c-17.664 0-32-14.336-32-32v-160c0-17.664 14.336-32 32-32h144c17.664 0 32 14.336 32 32v160c0 17.664-14.336 32-32 32zM992 160h-304c-17.664 0-32-14.336-32-32v-160c0-17.664 14.336-32 32-32h304c17.664 0 32 14.336 32 32v160c0 17.664-14.336 32-32 32zM432 368c0-17.664 14.336-32 32-32h208c17.664 0 32 14.336 32 32v160c0 17.664-14.336 32-32 32h-208c-17.664 0-32-14.336-32-32v-160zM768 368c0-17.664 14.336-32 32-32h112c17.664 0 32 14.336 32 32v160c0 17.664-14.336 32-32 32h-112c-17.664 0-32-14.336-32-32v-160zM336 736h64c17.664 0 32 14.336 32 32v160c0 17.664-14.336 32-32 32h-64c-17.664 0-32-14.336-32-32v-160c0-17.664 14.336-32 32-32zM512 736h224c17.664 0 32 14.336 32 32v160c0 17.664-14.336 32-32 32h-224c-17.664 0-32-14.336-32-32v-160c0-17.664 14.336-32 32-32z" />
<glyph unicode="&#xe901;" glyph-name="chart_area-chart" d="M688 464l320 272v208l-320-415.824-272 48.16-288-271.664 288 207.328zM688 320.176l320 175.824v192l-320-272-272 48-288-207.328 288 143.664zM592 64h416v384l-320-175.824-272 80.16-288-143.664v-144.672h160zM992 0h-928v932c0 15.456-12.544 28-28 28h-8c-15.456 0-28-12.544-28-28v-968c0-15.456 12.544-28 28-28h964c17.664 0 32 14.336 32 32s-14.336 32-32 32z" />
<glyph unicode="&#xe902;" glyph-name="chart_bar-chart" d="M160 304h-128c-17.664 0-32-14.336-32-32v-304c0-17.664 14.336-32 32-32h128c17.664 0 32 14.336 32 32v304c0 17.664-14.336 32-32 32zM432 624h-128c-17.664 0-32-14.336-32-32v-624c0-17.664 14.336-32 32-32h128c17.664 0 32 14.336 32 32v624c0 17.664-14.336 32-32 32zM720 464h-128c-17.664 0-32-14.336-32-32v-464c0-17.664 14.336-32 32-32h128c17.664 0 32 14.336 32 32v464c0 17.664-14.336 32-32 32zM992 960h-128c-17.664 0-32-14.336-32-32v-960c0-17.664 14.336-32 32-32h128c17.664 0 32 14.336 32 32v960c0 17.664-14.336 32-32 32z" />
<glyph unicode="&#xe903;" glyph-name="chart_bubble-chart" d="M992 0h-928v932c0 15.456-12.528 28-28 28h-8c-15.472 0-28-12.544-28-28v-968c0-15.456 12.528-28 28-28h964c17.664 0 32 14.336 32 32s-14.336 32-32 32zM1008 712c0-128.13-103.87-232-232-232s-232 103.87-232 232c0 128.13 103.87 232 232 232s232-103.87 232-232zM592 360c0-92.784-75.216-168-168-168s-168 75.216-168 168c0 92.784 75.216 168 168 168s168-75.216 168-168zM960 200c0-75.111-60.889-136-136-136s-136 60.889-136 136c0 75.111 60.889 136 136 136s136-60.889 136-136zM352 704c0-61.856-50.144-112-112-112s-112 50.144-112 112c0 61.856 50.144 112 112 112s112-50.144 112-112zM272 136c0-39.765-32.235-72-72-72s-72 32.235-72 72c0 39.765 32.235 72 72 72s72-32.235 72-72z" />
<glyph unicode="&#xe904;" glyph-name="chart_business-objects-experience" d="M160 192h-128c-17.664 0-32-14.336-32-32v-192c0-17.664 14.336-32 32-32h128c17.664 0 32 14.336 32 32v192c0 17.664-14.336 32-32 32zM432 368h-128c-17.664 0-32-14.336-32-32v-368c0-17.664 14.336-32 32-32h128c17.664 0 32 14.336 32 32v368c0 17.664-14.336 32-32 32zM720 272h-128c-17.664 0-32-14.336-32-32v-272c0-17.664 14.336-32 32-32h128c17.664 0 32 14.336 32 32v272c0 17.664-14.336 32-32 32zM992 448h-128c-17.664 0-32-14.336-32-32v-448c0-17.664 14.336-32 32-32h128c17.664 0 32 14.336 32 32v448c0 17.664-14.336 32-32 32zM896 688c0 13.552-3.68 26.112-9.632 37.296l132.112 179.024c13.072 11.872 14.032 32.128 2.144 45.2-11.872 13.072-32.128 14.032-45.2 2.144l-137.968-186.96c-6.88 1.936-13.968 3.296-21.456 3.296-18.64 0-35.568-6.64-49.152-17.328l-79.488 42.928c0.176 2.144 0.64 4.208 0.64 6.4 0 44.176-35.808 80-80 80s-80-35.824-80-80c0-11.472 2.496-22.32 6.848-32.176l-140.16-192.912c-3.536 0.48-7.024 1.088-10.688 1.088-20.352 0-38.736-7.84-52.848-20.352l-92.096 43.072c0.368 3.072 0.944 6.096 0.944 9.28 0 44.176-35.808 80-80 80s-80-35.824-80-80c0-8.992 1.808-17.472 4.544-25.536l-79.024-90.704c-13.072-11.888-14.032-32.128-2.144-45.2 11.872-13.072 32.128-14.048 45.2-2.16l78.944 90.608c9.952-4.432 20.88-7.008 32.48-7.008 17.664 0 33.856 5.92 47.088 15.616l97.12-45.44c0-0.736-0.208-1.424-0.208-2.176 0-44.176 35.808-80 80-80s80 35.824 80 80c0 17.472-5.76 33.52-15.264 46.672l132.416 182.272c8.432-3.008 17.376-4.944 26.848-4.944 18.656 0 35.6 6.656 49.2 17.344l79.456-42.912c-0.192-2.144-0.656-4.224-0.656-6.432 0-44.176 35.808-80 80-80s80 35.824 80 80z" />
<glyph unicode="&#xe905;" glyph-name="chart_chart-axis" d="M1011.488 76.256l-148.112 105.984c-5.872 5.84-15.376 5.296-15.376-5.296 0-4.192 0-39.232 0-80.944h-647.312l588.192 588.208c3.36 3.36 5.84 7.184 7.6 11.168 31.6-31.6 59.568-59.568 64.224-64.224 11.248-11.248 14.64-1.12 14.64 7.152 0 0 22.144 168.96 22.144 187.056 0 18.128-6.592 15.088-14.912 15.104l-179.68-29.776c-8.304-0.016-14.624-7.12-7.12-14.624 2.912-2.912 26.912-26.912 55.712-55.712-4-1.728-7.808-4.224-11.168-7.584l-580.32-580.304v631.536c41.712 0 77.472 0 83.712 0 15.904 0 11.152 7.552 5.296 13.408 0 0-103.808 133.136-116.624 145.936-12.816 12.832-15.328 6.56-21.216 0.704l-105.984-146.976c-5.84-5.872-5.296-13.072 5.296-13.072 4.352 0 41.808 0 85.52 0v-726.4c0-6.656 3.248-12.656 8.448-17.216 4.56-5.152 10.528-8.384 17.152-8.384h726.4c0-43.664 0-81.808 0-88.288 0-15.904 9.568-11.152 15.424-5.296 0 0 135.12 103.808 147.92 116.624 12.832 12.816 6 15.328 0.144 21.216z" />
<glyph unicode="&#xe906;" glyph-name="chart_chart-table-view" d="M32 960c-17.664 0-32-14.336-32-32v-384c0-17.664 14.336-32 32-32s32 14.336 32 32v384c0 17.664-14.336 32-32 32zM32 448c-17.664 0-32-14.336-32-32v-160c0-17.664 14.336-32 32-32s32 14.336 32 32v160c0 17.664-14.336 32-32 32zM32 160c-17.664 0-32-14.336-32-32v-160c0-17.664 14.336-32 32-32s32 14.336 32 32v160c0 17.664-14.336 32-32 32zM160 896h576c17.664 0 32 14.336 32 32s-14.336 32-32 32h-576c-17.664 0-32-14.336-32-32s14.336-32 32-32zM995.008 832h-838c-16.016 0-29.008-12.992-29.008-29.008v-6c0-16 12.992-28.992 29.008-28.992h838c16 0 28.992 12.992 28.992 28.992v6c0 16.016-12.992 29.008-28.992 29.008zM995.008 448h-838c-16.016 0-29.008-12.992-29.008-29.008v-6c0-5.152 1.456-9.936 3.824-14.128-2.368-4.464-3.824-9.472-3.824-14.864v-160c0-5.392 1.456-10.4 3.824-14.864-2.368-4.192-3.824-8.976-3.824-14.144v-6c0-5.152 1.456-9.936 3.824-14.128-2.368-4.464-3.824-9.472-3.824-14.864v-160c0-5.392 1.456-10.4 3.824-14.864-2.368-4.192-3.824-8.976-3.824-14.144v-6c0-16 12.992-28.992 29.008-28.992h838c16 0 28.992 12.992 28.992 28.992v6c0 5.152-1.456 9.936-3.824 14.128 2.368 4.48 3.824 9.488 3.824 14.88v160c0 5.392-1.456 10.4-3.824 14.864 2.368 4.192 3.824 8.976 3.824 14.128v6c0 5.152-1.456 9.936-3.824 14.128 2.368 4.48 3.824 9.488 3.824 14.88v160c0 5.392-1.456 10.4-3.824 14.864 2.368 4.192 3.824 8.976 3.824 14.128v6c0 16.016-12.992 29.008-28.992 29.008zM960 384v-160h-144v160h144zM752 384v-160h-144v160h144zM544 384v-160h-144v160h144zM336 384v-160h-144v160h144zM192 0v160h144v-160h-144zM400 0v160h144v-160h-144zM608 0v160h144v-160h-144zM816 0v160h144v-160h-144zM160 640h448c17.664 0 32 14.336 32 32s-14.336 32-32 32h-448c-17.664 0-32-14.336-32-32s14.336-32 32-32zM160 512h272c17.664 0 32 14.336 32 32s-14.336 32-32 32h-272c-17.664 0-32-14.336-32-32s14.336-32 32-32z" />
<glyph unicode="&#xe907;" glyph-name="chart_Chart-Tree-Map" d="M416 960h-384c-17.664 0-32-14.336-32-32v-960c0-17.664 14.336-32 32-32h384c17.664 0 32 14.336 32 32v960c0 17.664-14.336 32-32 32zM992 960h-448c-17.664 0-32-14.336-32-32v-384c0-17.664 14.336-32 32-32h448c17.664 0 32 14.336 32 32v384c0 17.664-14.336 32-32 32zM704 448h-160c-17.664 0-32-14.336-32-32v-448c0-17.664 14.336-32 32-32h160c17.664 0 32 14.336 32 32v448c0 17.664-14.336 32-32 32zM992 448h-160c-17.664 0-32-14.336-32-32v-160c0-17.664 14.336-32 32-32h160c17.664 0 32 14.336 32 32v160c0 17.664-14.336 32-32 32zM992 160h-160c-17.664 0-32-14.336-32-32v-160c0-17.664 14.336-32 32-32h160c17.664 0 32 14.336 32 32v160c0 17.664-14.336 32-32 32z" />
<glyph unicode="&#xe908;" glyph-name="chart_choropleth-chart" d="M432 944l-320-32-112 26 32-74-16-144 16-144 64-16 32-64-32-16 16-80 80-128 16-320 96 96 80 112 80 96-64 64-144 112-96 48-16 48 64 32c0 0 96 16 112 16s96 16 96 16l32-64 16 80 32 32 16 192-80 112zM992 560l-64 32 48 16 48 6-16 346-144-48-160 16h-96l48-48c0 0 16-32-16-32s-96 0-96 0l32-32v-32l48 32 32-16-16-32-64-32-16-80-16-16-16-48v-80h64l-16 80 96 32 80 16 48 32 32-32 32-16v-32l-16-16-64-16-96-16-48-32-80-32h-32l-16-144 80-96 96-32 64-64v-96l32-64 80-32 64 96 80 176-16 128-16 112-16 48 64-24-32 72z" />
<glyph unicode="&#xe909;" glyph-name="chart_column-chart-dual-axis" d="M176 64h128c17.664 0 32 14.336 32 32v320c0 17.664-14.336 32-32 32h-128c-17.664 0-32-14.336-32-32v-320c0-17.664 14.336-32 32-32zM448 64h128c17.664 0 32 14.336 32 32v528c0 17.664-14.336 32-32 32h-128c-17.664 0-32-14.336-32-32v-528c0-17.664 14.336-32 32-32zM720 64h128c17.664 0 32 14.336 32 32v752c0 17.664-14.336 32-32 32h-128c-17.664 0-32-14.336-32-32v-752c0-17.664 14.336-32 32-32zM994 960h-4c-16.56 0-30-13.424-30-30v-930h-896v930c0 16.576-13.44 30-30 30h-4c-16.56 0-30-13.424-30-30v-964.016c0-16.56 13.44-29.984 30-29.984h964.032c16.528 0 29.968 13.424 29.968 30v964c0 16.576-13.44 30-30 30z" />
<glyph unicode="&#xe90a;" glyph-name="chart_crossed-line-chart" d="M1022.064 341.92l-81.248 228.928 76.576 231.872c7.568 15.968 0.752 35.040-15.232 42.608-15.952 7.584-35.040 0.752-42.608-15.2l-53.392-161.648-91.184 256.896c-5.328 16.848-23.312 26.192-40.16 20.864-5.008-1.584-9.248-4.368-12.736-7.824-4.352-3.072-8.096-7.152-10.528-12.32l-107.024-351.2-101.552 270.48c-5.328 16.848-23.312 26.192-40.16 20.864-5.008-1.584-9.248-4.368-12.736-7.824-4.352-3.072-8.096-7.152-10.528-12.32l-106.336-342.016-86.256 197.296c-0.096 0.32-0.272 0.576-0.368 0.88-0.208 0.56-0.48 1.088-0.704 1.632-0.592 1.424-1.184 2.816-1.952 4.096-0.176 0.32-0.416 0.576-0.608 0.88-0.928 1.44-1.888 2.832-3.008 4.096-0.272 0.288-0.56 0.512-0.832 0.8-1.136 1.2-2.336 2.336-3.632 3.328-0.464 0.368-1.008 0.656-1.52 0.992-1.2 0.816-2.4 1.616-3.696 2.272-0.624 0.304-1.296 0.512-1.936 0.784-1.312 0.544-2.608 1.072-3.984 1.44-0.176 0.048-0.336 0.128-0.496 0.176-0.624 0.16-1.264 0.16-1.888 0.288-1.248 0.24-2.464 0.464-3.744 0.56-1.088 0.080-2.16 0.016-3.232-0.016-0.96-0.032-1.92-0.032-2.896-0.16-1.376-0.176-2.704-0.496-4.048-0.848-0.528-0.144-1.072-0.16-1.616-0.336-0.16-0.048-0.288-0.128-0.416-0.176-1.456-0.48-2.832-1.12-4.192-1.808-0.528-0.272-1.088-0.464-1.616-0.752-1.36-0.784-2.624-1.712-3.856-2.672-0.384-0.304-0.816-0.56-1.184-0.864-1.312-1.12-2.48-2.4-3.6-3.728-0.208-0.24-0.432-0.432-0.608-0.672-1.056-1.344-1.968-2.816-2.816-4.336-0.176-0.304-0.368-0.56-0.528-0.864-0.672-1.312-1.168-2.72-1.664-4.16-0.208-0.592-0.464-1.152-0.64-1.744-0.080-0.304-0.24-0.56-0.32-0.864l-92.368-294.272-70.016 168.048c-5.328 16.848-23.312 26.192-40.16 20.864-16.864-5.328-26.208-23.312-20.88-40.16l101.376-243.312-102.736-327.2c-4.336-17.12 6.048-34.528 23.168-38.864 17.136-4.336 34.544 6.048 38.88 23.168l78.88 251.216 83.536-200.496c5.328-16.848 23.312-26.192 40.16-20.864 5.008 1.584 9.248 4.368 12.752 7.824 4.336 3.072 8.080 7.152 10.512 12.304l94.688 304.624 97.888-223.888c3.68-11.648 13.456-19.568 24.672-21.664 3.056-4.24 7.056-7.872 12.128-10.272 15.968-7.584 35.056-0.752 42.624 15.2l90 295.328 86.576-230.592c5.328-16.848 23.312-26.192 40.16-20.864 5.008 1.584 9.248 4.368 12.752 7.824 4.336 3.072 8.080 7.152 10.512 12.304l107.648 325.888 52.944-149.152c5.328-16.848 23.312-26.192 40.16-20.864 16.832 5.344 26.176 23.328 20.848 40.192zM252.992 117.296l-81.808 196.352 90.224 287.328 82.976-189.76-91.392-293.92zM520.352 167.552l-108.336 247.808 101.52 326.576 100.384-267.408-93.568-306.976zM767.264 247.952l-86.224 229.648 103.936 341.024 88.448-249.216-106.16-321.456z" />
<glyph unicode="&#xe90b;" glyph-name="chart_donut-chart" d="M968.784 679.216c-1.248-1.056-2.512-2.112-3.968-2.992l-216.192-130.624c12.432-30.080 19.376-63.024 19.376-97.6 0-57.088-18.928-109.648-50.512-152.224l182.112-182.112c77.44 89.712 124.4 206.512 124.4 334.336 0 83.232-19.984 161.728-55.216 231.216zM512 192c-141.376 0-256 114.608-256 256 0 130.528 97.76 238 224 253.792v257.12c-267.84-16.544-480-238.896-480-510.912 0-282.768 229.232-512 512-512 131.904 0 252.144 49.904 342.912 131.84l-181.536 181.52c-44.048-35.824-100.176-57.36-161.376-57.36zM716.784 601.152l214.944 129.872c1.712 1.024 3.504 1.84 5.312 2.512-86.368 128.288-229.312 215.264-393.040 225.376v-257.12c70.624-8.832 132.144-46.384 172.784-100.64z" />
<glyph unicode="&#xe90c;" glyph-name="chart_filter-analytics" d="M192 528h-160c-17.664 0-32-14.336-32-32v-528c0-17.664 14.336-32 32-32h160c17.664 0 32 14.336 32 32v528c0 17.664-14.336 32-32 32zM992 960h-160c-17.664 0-32-14.336-32-32v-960c0-17.664 14.336-32 32-32h160c17.664 0 32 14.336 32 32v960c0 17.664-14.336 32-32 32zM592 768h-160c-17.664 0-32-14.336-32-32v-768c0-17.664 14.336-32 32-32h160c17.664 0 32 14.336 32 32v768c0 17.664-14.336 32-32 32zM576 32c0-26.512-37.488-48-64-48s-64 21.488-64 48v640c0 26.512 37.488 48 64 48s64-21.488 64-48v-640z" />
<glyph unicode="&#xe90d;" glyph-name="chart_full-stacked-chart" d="M160 704h176c17.664 0 32 14.336 32 32v128c0 17.664-14.336 32-32 32h-176c-17.664 0-32-14.336-32-32v-128c0-17.664 14.336-32 32-32zM160 384h304c17.664 0 32 14.336 32 32v128c0 17.664-14.336 32-32 32h-304c-17.664 0-32-14.336-32-32v-128c0-17.664 14.336-32 32-32zM160 64h256c17.664 0 32 14.336 32 32v128c0 17.664-14.336 32-32 32h-256c-17.664 0-32-14.336-32-32v-128c0-17.664 14.336-32 32-32zM544 256c-17.664 0-32-14.336-32-32v-128c0-17.664 14.336-32 32-32h144c17.664 0 32 14.336 32 32v128c0 17.664-14.336 32-32 32h-144zM976 256h-160c-17.664 0-32-14.336-32-32v-128c0-17.664 14.336-32 32-32h160c17.664 0 32 14.336 32 32v128c0 17.664-14.336 32-32 32zM560 416c0-17.664 14.336-32 32-32h208c17.664 0 32 14.336 32 32v128c0 17.664-14.336 32-32 32h-208c-17.664 0-32-14.336-32-32v-128zM1008 544c0 17.664-14.336 32-32 32h-48c-17.664 0-32-14.336-32-32v-128c0-17.664 14.336-32 32-32h48c17.664 0 32 14.336 32 32v128zM464 704h64c17.664 0 32 14.336 32 32v128c0 17.664-14.336 32-32 32h-64c-17.664 0-32-14.336-32-32v-128c0-17.664 14.336-32 32-32zM640 704h336c17.664 0 32 14.336 32 32v128c0 17.664-14.336 32-32 32h-336c-17.664 0-32-14.336-32-32v-128c0-17.664 14.336-32 32-32zM992 0h-928v932c0 15.456-12.528 28-28 28h-8c-15.472 0-28-12.544-28-28v-968c0-15.456 12.528-28 28-28h964c17.664 0 32 14.336 32 32s-14.336 32-32 32z" />
<glyph unicode="&#xe90e;" glyph-name="chart_full-stacked-column-chart" d="M160 64h128c17.664 0 32 14.336 32 32v176c0 17.664-14.336 32-32 32h-128c-17.664 0-32-14.336-32-32v-176c0-17.664 14.336-32 32-32zM480 64h128c17.664 0 32 14.336 32 32v304c0 17.664-14.336 32-32 32h-128c-17.664 0-32-14.336-32-32v-304c0-17.664 14.336-32 32-32zM800 64h128c17.664 0 32 14.336 32 32v256c0 17.664-14.336 32-32 32h-128c-17.664 0-32-14.336-32-32v-256c0-17.664 14.336-32 32-32zM800 448h128c17.664 0 32 14.336 32 32v144c0 17.664-14.336 32-32 32h-128c-17.664 0-32-14.336-32-32v-144c0-17.664 14.336-32 32-32zM800 720h128c17.664 0 32 14.336 32 32v160c0 17.664-14.336 32-32 32h-128c-17.664 0-32-14.336-32-32v-160c0-17.664 14.336-32 32-32zM480 496h128c17.664 0 32 14.336 32 32v208c0 17.664-14.336 32-32 32h-128c-17.664 0-32-14.336-32-32v-208c0-17.664 14.336-32 32-32zM480 832h128c17.664 0 32 14.336 32 32v48c0 17.664-14.336 32-32 32h-128c-17.664 0-32-14.336-32-32v-48c0-17.664 14.336-32 32-32zM160 368h128c17.664 0 32 14.336 32 32v64c0 17.664-14.336 32-32 32h-128c-17.664 0-32-14.336-32-32v-64c0-17.664 14.336-32 32-32zM160 544h128c17.664 0 32 14.336 32 32v336c0 17.664-14.336 32-32 32h-128c-17.664 0-32-14.336-32-32v-336c0-17.664 14.336-32 32-32zM992 0h-928v932c0 15.456-12.528 28-28 28h-8c-15.472 0-28-12.544-28-28v-968c0-15.456 12.528-28 28-28h964c17.664 0 32 14.336 32 32s-14.336 32-32 32z" />
<glyph unicode="&#xe90f;" glyph-name="chart_geographic-bubble-chart" d="M256 200c0 37.488-28.544 67.856-63.792 67.984l6.768-135.232c32.016 3.728 57.024 32.224 57.024 67.248zM416 776c0-37.555-28.654-68-64-68s-64 30.445-64 68c0 37.555 28.654 68 64 68s64-30.445 64-68zM432 944l-320-32-112 26 32-74-16-144 16-144 64-16 32-64-32-16 16-80 43.552-69.664c11.552 3.632 23.776 5.664 36.448 5.664 70.688 0 128-60.896 128-136 0-71.392-51.808-129.824-117.632-135.44l5.632-112.56 96 96 80 112 80 96-64 64-144 112-96 48-16 48 64 32c0 0 96 16 112 16s96 16 96 16l32-64 16 80 32 32 16 192-80 112zM352 640c-70.688 0-128 60.896-128 136s57.312 136 128 136 128-60.896 128-136-57.312-136-128-136zM192 132c-35.344 0-64 30.448-64 68s28.656 68 64 68c0.064 0 0.128-0.016 0.208-0.016l-0.208 4.016-36.448 58.336c-52.928-16.688-91.552-68.688-91.552-130.336 0-75.104 57.312-136 128-136 3.504 0 6.944 0.272 10.368 0.56l-3.408 68.192c-2.32-0.272-4.576-0.752-6.96-0.752zM912 360c0-37.555-28.654-68-64-68s-64 30.445-64 68c0 37.555 28.654 68 64 68s64-30.445 64-68zM992 560l-64 32 48 16 48 6-16 346-144-48-160 16h-96l48-48c0 0 16-32-16-32s-96 0-96 0l32-32v-32l48 32 32-16-16-32-64-32-16-80-16-16-16-48v-80h64l-16 80 96 32 80 16 48 32 32-32 32-16v-32l-16-16-64-16-96-16-48-32-80-32h-32l-16-144 80-96 96-32 64-64v-96l32-64 80-32 64 96 80 176-16 128-16 112-16 48 64-24-32 72zM976 360c0-75.104-57.312-136-128-136s-128 60.896-128 136 57.312 136 128 136 128-60.896 128-136z" />
<glyph unicode="&#xe910;" glyph-name="chart_heatmap-chart" d="M272 960h-240c-17.664 0-32-14.336-32-32v-144c0-17.664 14.336-32 32-32h240c17.664 0 32 14.336 32 32v144c0 17.664-14.336 32-32 32zM624 960h-224c-17.664 0-32-14.336-32-32v-144c0-17.664 14.336-32 32-32h224c17.664 0 32 14.336 32 32v144c0 17.664-14.336 32-32 32zM992 960h-240c-17.664 0-32-14.336-32-32v-144c0-17.664 14.336-32 32-32h240c17.664 0 32 14.336 32 32v144c0 17.664-14.336 32-32 32zM272 688h-240c-17.664 0-32-14.336-32-32v-144c0-17.664 14.336-32 32-32h240c17.664 0 32 14.336 32 32v144c0 17.664-14.336 32-32 32zM624 688h-224c-17.664 0-32-14.336-32-32v-144c0-17.664 14.336-32 32-32h224c17.664 0 32 14.336 32 32v144c0 17.664-14.336 32-32 32zM992 688h-240c-17.664 0-32-14.336-32-32v-144c0-17.664 14.336-32 32-32h240c17.664 0 32 14.336 32 32v144c0 17.664-14.336 32-32 32zM272 416h-240c-17.664 0-32-14.336-32-32v-144c0-17.664 14.336-32 32-32h240c17.664 0 32 14.336 32 32v144c0 17.664-14.336 32-32 32zM624 416h-224c-17.664 0-32-14.336-32-32v-144c0-17.664 14.336-32 32-32h224c17.664 0 32 14.336 32 32v144c0 17.664-14.336 32-32 32zM992 416h-240c-17.664 0-32-14.336-32-32v-144c0-17.664 14.336-32 32-32h240c17.664 0 32 14.336 32 32v144c0 17.664-14.336 32-32 32zM272 144h-240c-17.664 0-32-14.336-32-32v-144c0-17.664 14.336-32 32-32h240c17.664 0 32 14.336 32 32v144c0 17.664-14.336 32-32 32zM624 144h-224c-17.664 0-32-14.336-32-32v-144c0-17.664 14.336-32 32-32h224c17.664 0 32 14.336 32 32v144c0 17.664-14.336 32-32 32zM992 144h-240c-17.664 0-32-14.336-32-32v-144c0-17.664 14.336-32 32-32h240c17.664 0 32 14.336 32 32v144c0 17.664-14.336 32-32 32z" />
<glyph unicode="&#xe911;" glyph-name="chart_horizontal-bar-chart" d="M160 704h512c17.664 0 32 14.336 32 32v128c0 17.664-14.336 32-32 32h-512c-17.664 0-32-14.336-32-32v-128c0-17.664 14.336-32 32-32zM992 544h-832c-17.664 0-32-14.336-32-32v-128c0-17.664 14.336-32 32-32h832c17.664 0 32 14.336 32 32v128c0 17.664-14.336 32-32 32zM816 192h-656c-17.664 0-32-14.336-32-32v-128c0-17.664 14.336-32 32-32h656c17.664 0 32 14.336 32 32v128c0 17.664-14.336 32-32 32zM36 960h-8c-15.472 0-28-12.544-28-28v-968c0-15.456 12.528-28 28-28h8c15.472 0 28 12.544 28 28v968c0 15.456-12.528 28-28 28z" />
<glyph unicode="&#xe912;" glyph-name="chart_horizontal-bar-chart-2" d="M160 736h192c17.664 0 32 14.336 32 32v96c0 17.664-14.336 32-32 32h-192c-17.664 0-32-14.336-32-32v-96c0-17.664 14.336-32 32-32zM160 512h512c17.664 0 32 14.336 32 32v96c0 17.664-14.336 32-32 32h-512c-17.664 0-32-14.336-32-32v-96c0-17.664 14.336-32 32-32zM992 160h-832c-17.664 0-32-14.336-32-32v-96c0-17.664 14.336-32 32-32h832c17.664 0 32 14.336 32 32v96c0 17.664-14.336 32-32 32zM160 224h320c17.664 0 32 14.336 32 32v96c0 17.664-14.336 32-32 32h-320c-17.664 0-32-14.336-32-32v-96c0-17.664 14.336-32 32-32zM36 960h-8c-15.472 0-28-12.544-28-28v-968c0-15.456 12.528-28 28-28h8c15.472 0 28 12.544 28 28v968c0 15.456-12.528 28-28 28z" />
<glyph unicode="&#xe913;" glyph-name="chart_horizontal-bullet-chart" d="M36 960h-8c-15.472 0-28-12.544-28-28v-968c0-15.456 12.528-28 28-28h8c15.472 0 28 12.544 28 28v968c0 15.456-12.528 28-28 28zM160 704h267.152l9.52 55.52-75.328 89.424 104.096 15.12 23.040 30.656c-2.72 0.752-5.52 1.28-8.48 1.28h-320c-17.664 0-32-14.336-32-32v-128c0-17.664 14.336-32 32-32zM160 352h587.152l9.52 55.52-75.328 89.424 104.096 15.12 23.664 31.936h-649.104c-17.664 0-32-14.336-32-32v-128c0-17.664 14.336-32 32-32zM593.456 160.064l23.648 31.936h-457.104c-17.664 0-32-14.336-32-32v-128c0-17.664 14.336-32 32-32h395.152l9.52 55.52-75.328 89.424 104.112 15.12zM468.672 759.52l-17.776-103.664 93.104 48.944 93.104-48.944-17.776 103.664 75.312 73.424-104.096 15.12-46.544 94.32-46.544-94.32-104.096-15.12zM1014.64 480.944l-104.096 15.12-46.544 94.32-46.544-94.32-104.096-15.12 75.312-73.424-17.776-103.664 93.104 48.944 93.104-48.944-17.776 103.664zM718.544 144.064l-46.544 94.32-46.544-94.32-104.096-15.12 75.312-73.424-17.776-103.664 93.104 48.944 93.104-48.944-17.776 103.664 75.312 73.424z" />
<glyph unicode="&#xe914;" glyph-name="chart_horizontal-stacked-chart" d="M160 704h112c17.664 0 32 14.336 32 32v128c0 17.664-14.336 32-32 32h-112c-17.664 0-32-14.336-32-32v-128c0-17.664 14.336-32 32-32zM160 384h304c17.664 0 32 14.336 32 32v128c0 17.664-14.336 32-32 32h-304c-17.664 0-32-14.336-32-32v-128c0-17.664 14.336-32 32-32zM160 64h192c17.664 0 32 14.336 32 32v128c0 17.664-14.336 32-32 32h-192c-17.664 0-32-14.336-32-32v-128c0-17.664 14.336-32 32-32zM480 256c-17.664 0-32-14.336-32-32v-128c0-17.664 14.336-32 32-32h112c17.664 0 32 14.336 32 32v128c0 17.664-14.336 32-32 32h-112zM720 256c-17.664 0-32-14.336-32-32v-128c0-17.664 14.336-32 32-32h160c17.664 0 32 14.336 32 32v128c0 17.664-14.336 32-32 32h-160zM592 576c-17.664 0-32-14.336-32-32v-128c0-17.664 14.336-32 32-32h176c17.664 0 32 14.336 32 32v128c0 17.664-14.336 32-32 32h-176zM896 384h80c17.664 0 32 14.336 32 32v128c0 17.664-14.336 32-32 32h-80c-17.664 0-32-14.336-32-32v-128c0-17.664 14.336-32 32-32zM400 704h64c17.664 0 32 14.336 32 32v128c0 17.664-14.336 32-32 32h-64c-17.664 0-32-14.336-32-32v-128c0-17.664 14.336-32 32-32zM576 704h160c17.664 0 32 14.336 32 32v128c0 17.664-14.336 32-32 32h-160c-17.664 0-32-14.336-32-32v-128c0-17.664 14.336-32 32-32zM992 0h-928v932c0 15.456-12.528 28-28 28h-8c-15.472 0-28-12.544-28-28v-968c0-15.456 12.528-28 28-28h964c17.664 0 32 14.336 32 32s-14.336 32-32 32z" />
<glyph unicode="&#xe915;" glyph-name="chart_horizontal-waterfall-chart" d="M992 896h-832c-17.664 0-32-14.336-32-32v-96c0-17.664 14.336-32 32-32h832c17.664 0 32 14.336 32 32v96c0 17.664-14.336 32-32 32zM992 640h-256c-17.664 0-32-14.336-32-32v-96c0-17.664 14.336-32 32-32h256c17.664 0 32 14.336 32 32v96c0 17.664-14.336 32-32 32zM352 160h-192c-17.664 0-32-14.336-32-32v-96c0-17.664 14.336-32 32-32h192c17.664 0 32 14.336 32 32v96c0 17.664-14.336 32-32 32zM672 400h-256c-17.664 0-32-14.336-32-32v-96c0-17.664 14.336-32 32-32h256c17.664 0 32 14.336 32 32v96c0 17.664-14.336 32-32 32zM36 960h-8c-15.472 0-28-12.544-28-28v-968c0-15.456 12.528-28 28-28h8c15.472 0 28 12.544 28 28v968c0 15.456-12.528 28-28 28z" />
<glyph unicode="&#xe916;" glyph-name="chart_legend" d="M962 960h-900c-16.56 0-30-13.424-30-30v-964.016c0-16.56 13.44-29.984 30-29.984h900.032c16.528 0 29.968 13.424 29.968 30v964c0 16.576-13.44 30-30 30zM96 896h832v-896h-832v896zM264 832c-57.44 0-104-46.56-104-104s46.56-104 104-104 104 46.56 104 104-46.56 104-104 104zM264 665.6c-34.464 0-62.4 27.936-62.4 62.4s27.936 62.4 62.4 62.4 62.4-27.936 62.4-62.4-27.936-62.4-62.4-62.4zM368 168c0-57.438-46.562-104-104-104s-104 46.562-104 104c0 57.438 46.562 104 104 104s104-46.562 104-104zM264 560c-57.44 0-104-46.56-104-104s46.56-104 104-104 104 46.56 104 104-46.56 104-104 104zM272 394.4c-2.24-0.48-4.768-0.8-8-0.8-34.464 0-62.4 27.936-62.4 62.4s27.936 62.4 62.4 62.4c3.232 0 5.76-0.32 8-0.8v-123.2zM519.648 693.264c-0.048-0.464-0.032-0.928-0.080-1.376-0.704-21.888 23.84-25.552 41.104-23.872 22.544 2.208 44.032 6.96 63.76 18.688 4.544 2.704 10.576 7.92 17.056 13.648 3.152-16.896 12.352-26.768 48.56-28.96 63.808-3.888 122.832 29.776 171.456 67.536 49.744 38.64-27.552 57.6-59.024 33.136-18-13.984-35.536-26.336-56-36.768-23.008-11.712-14.416 19.104-16.624 32.624-2.56 15.84-29.136 18.448-40.88 16.384-22.096-3.888-43.6-8.080-62.816-20.608-4.096-2.672-9.024-6.88-14.32-11.488-0.688 6.352-1.6 12.768-3.008 19.36-5.344 25.216-50.56 16.928-65.52 9.776-39.872-19.024-82.032-40.48-106.96-78.24-24.096-36.56 58.128-33.984 83.296-9.84zM802.48 500.064c-18-13.984-35.536-26.336-56-36.768-23.008-11.712-14.416 19.104-16.624 32.624-2.56 15.84-29.136 18.448-40.88 16.384-22.096-3.888-43.6-8.080-62.816-20.608-4.096-2.672-9.024-6.88-14.32-11.488-0.688 6.352-1.6 12.768-3.008 19.36-5.344 25.216-50.56 16.928-65.52 9.776-39.872-19.024-82.032-40.48-106.96-78.24-24.144-36.576 58.096-34 83.248-9.856-0.048-0.464-0.032-0.928-0.080-1.376-0.704-21.888 23.84-25.552 41.104-23.872 22.544 2.208 44.032 6.96 63.76 18.688 4.544 2.704 10.576 7.92 17.056 13.648 3.152-16.896 12.352-26.768 48.56-28.96 63.808-3.888 122.832 29.776 171.456 67.536 49.808 38.64-27.488 57.6-58.976 33.152zM802.48 196.064c-18-13.984-35.536-26.336-56-36.768-23.008-11.712-14.416 19.104-16.624 32.624-2.56 15.84-29.136 18.448-40.88 16.384-22.096-3.888-43.6-8.080-62.816-20.608-4.096-2.672-9.024-6.88-14.32-11.488-0.688 6.352-1.6 12.768-3.008 19.36-5.344 25.216-50.56 16.928-65.52 9.776-39.872-19.024-82.032-40.48-106.96-78.24-24.144-36.576 58.096-34 83.248-9.856-0.048-0.464-0.032-0.928-0.080-1.376-0.704-21.888 23.84-25.552 41.104-23.872 22.544 2.208 44.032 6.96 63.76 18.688 4.544 2.704 10.576 7.92 17.056 13.648 3.152-16.896 12.352-26.768 48.56-28.96 63.808-3.888 122.832 29.776 171.456 67.536 49.808 38.64-27.488 57.6-58.976 33.152z" />
<glyph unicode="&#xe917;" glyph-name="chart_line-chart" d="M993.008 0h-929.008v930c0 16.576-13.44 30-30 30h-4c-16.56 0-30-13.424-30-30v-964.016c0-16.56 13.44-29.984 30-29.984h963.024c17.104 0 30.976 13.888 30.976 30.992v2c0 17.12-13.872 31.008-30.992 31.008zM160 352c7.824 0 15.664 2.848 21.824 8.608l225.824 210.752 253.696-89.536c12.864-4.544 27.136-0.464 35.648 10.176l320 400c11.040 13.808 8.816 33.936-5.008 44.976-13.76 11.024-33.92 8.816-44.976-4.992l-305.792-382.24-250.56 88.432c-11.216 3.968-23.76 1.36-32.48-6.784l-240-224c-12.928-12.048-13.632-32.304-1.568-45.232 6.304-6.752 14.848-10.16 23.392-10.16zM160.032 208c6.096 0 12.272 1.728 17.712 5.376l227.568 151.712 257.664-75.792c10.064-2.944 20.88-0.816 29.008 5.712l320 256c13.808 11.040 16.048 31.168 5.008 44.976-11.008 13.808-31.184 16.048-44.976 4.992l-306.992-245.568-256 75.296c-9.088 2.672-18.912 1.184-26.784-4.080l-240-160c-14.704-9.808-18.672-29.664-8.88-44.368 6.192-9.264 16.32-14.256 26.672-14.256zM160.016 64c3.952 0 7.968 0.736 11.872 2.304l230.608 92.256 262.176-61.68c6.896-1.616 14.064-0.928 20.448 1.968l320 144c16.128 7.248 23.312 26.192 16.064 42.32-7.264 16.128-26.272 23.312-42.32 16.048l-310.112-139.552-261.44 61.52c-6.416 1.504-13.088 1.008-19.216-1.44l-240-96c-16.4-6.56-24.384-25.184-17.824-41.6 5.024-12.544 17.040-20.144 29.744-20.144z" />
<glyph unicode="&#xe918;" glyph-name="chart_line-chart-dual-axis" d="M994 960h-4c-16.56 0-30-13.424-30-30v-930h-896v930c0 16.576-13.44 30-30 30h-4c-16.56 0-30-13.424-30-30v-964.016c0-16.56 13.44-29.984 30-29.984h964.032c16.528 0 29.968 13.424 29.968 30v964c0 16.576-13.44 30-30 30zM160 352c7.824 0 15.664 2.848 21.824 8.608l193.824 210.752 221.696-89.536c12.864-4.544 27.136-0.464 35.648 10.176l256 400c11.040 13.808 8.816 33.936-5.008 44.976-13.76 11.024-33.92 8.816-44.976-4.992l-241.792-382.24-218.56 88.432c-11.216 3.968-23.76 1.36-32.48-6.784l-208-224c-12.928-12.048-13.632-32.304-1.568-45.232 6.304-6.752 14.848-10.16 23.392-10.16zM160.032 208c6.096 0 12.272 1.728 17.712 5.376l195.568 151.712 225.664-75.792c10.064-2.944 20.88-0.816 29.008 5.712l256 256c13.808 11.040 16.048 31.168 5.008 44.976-11.008 13.808-31.184 16.048-44.976 4.992l-242.992-245.568-224 75.296c-9.088 2.672-18.912 1.184-26.784-4.080l-208-160c-14.704-9.808-18.672-29.664-8.88-44.368 6.192-9.264 16.32-14.256 26.672-14.256zM160.016 64c3.952 0 7.968 0.736 11.872 2.304l198.608 92.256 230.176-61.68c6.896-1.616 14.064-0.928 20.448 1.968l256 144c16.128 7.248 23.312 26.192 16.064 42.32-7.264 16.128-26.272 23.312-42.32 16.048l-246.112-139.552-229.44 61.52c-6.416 1.504-13.088 1.008-19.216-1.44l-208-96c-16.4-6.56-24.384-25.184-17.824-41.6 5.024-12.544 17.040-20.144 29.744-20.144z" />
<glyph unicode="&#xe919;" glyph-name="chart_line-charts" d="M53.264 264.080l118 168.896 75.136-68.176c6.112-8.16 15.488-12.784 25.984-12.8 10.208 0.112 19.728 5.088 25.664 13.392l127.456 242.448 105.264-140.848c5.392-12.128 17.968-19.68 30.976-18.96 13.264 0.72 24.688 9.552 28.736 22.208l94.304 230.672 84.256-196.96c3.536-13.648 15.6-23.376 29.68-23.952 0.416 0 0.864 0 1.28 0 13.568 0 25.728 8.592 30.224 21.488l101.008 322.416 31.392-40.608c7.024-16.224 25.84-23.68 42.080-16.672 16.224 7.008 23.68 25.856 16.672 42.080l-64 116c-5.248 12.096-17.488 19.856-30.544 19.28-13.184-0.48-24.72-9.008-29.056-21.456l-93.312-300.256-85.488 201.76c-3.584 13.792-15.84 23.552-30.080 23.952-14.144 0.416-27.040-8.672-31.376-22.24l-102.4-256-93.888 115.248c-4.672 10.496-14.592 17.68-26.016 18.832-11.312 1.136-22.592-3.888-29.264-13.232l-134.592-252.416-69.76 61.024c-5.36 7.152-13.488 11.744-22.4 12.64-8.944 0.944-17.776-1.968-24.464-7.92l-144-192c-13.216-11.728-14.4-31.968-2.656-45.168 11.744-13.232 31.984-14.416 45.184-2.672zM957.376 348.704c-5.248 12.096-17.488 19.856-30.544 19.28-13.184-0.48-24.72-9.008-29.056-21.456l-93.312-268.256-85.488 329.76c-3.584 13.792-15.84 23.552-30.080 23.952-14.144 0.416-27.040-8.672-31.376-22.24l-102.4-320-93.888 211.248c-4.672 10.496-14.592 17.68-26.016 18.832-11.312 1.136-22.592-3.888-29.264-13.232l-134.592-188.416-69.76 93.024c-5.36 7.152-13.488 11.744-22.4 12.64-8.944 0.944-17.776-1.968-24.464-7.92l-144-128c-13.216-11.728-14.4-31.968-2.656-45.168 11.728-13.216 31.984-14.4 45.168-2.656l118 104.896 75.152-100.192c6.112-8.16 15.488-12.784 25.984-12.8 10.208 0.112 19.728 5.088 25.664 13.392l127.456 178.448 105.264-236.848c5.392-12.128 17.968-19.68 30.976-18.96 13.264 0.72 24.688 9.552 28.736 22.208l94.304 294.672 84.256-324.96c3.536-13.648 15.6-23.376 29.68-23.952 0.416 0 0.864 0 1.28 0 13.568 0 25.728 8.592 30.224 21.488l101.008 290.416 31.392-72.608c7.024-16.224 25.84-23.68 42.080-16.672 16.224 7.008 23.68 25.856 16.672 42.080l-64 148z" />
<glyph unicode="&#xe91a;" glyph-name="chart_line-chart-time-axis" d="M551.008 789.376c22.96 46.672 61.968 83.984 109.824 104.8-12.4 28.848-41.056 49.056-74.464 49.056-44.752 0-81.024-36.288-81.024-81.040-0.016-32.032 18.656-59.664 45.664-72.816zM955.6 789.76c27.968 14.304 46.24 44.224 44.016 77.552-2.96 44.656-41.552 78.448-86.208 75.488-32-2.112-58.32-22.56-69.648-50.368 48.096-19.84 87.904-56.288 111.84-102.672zM550.88 676.992c0-46.304 15.984-88.864 42.656-122.56l-43.568-43.568c-10.56-10.56-10.56-27.664 0-38.208 10.544-10.56 27.648-10.56 38.192 0l44.384 44.368c32.56-23.648 72.592-37.632 115.904-37.632 45.296 0 87.008 15.28 120.32 40.912l47.664-47.664c10.56-10.56 27.648-10.56 38.208 0 10.56 10.544 10.56 27.648 0 38.208l-47.888 47.888c24.672 32.96 39.264 73.888 39.264 118.24 0 109.104-88.448 197.568-197.568 197.568-109.12 0.016-197.568-88.448-197.568-197.552zM748.432 825.168c81.824 0 148.176-66.336 148.176-148.176s-66.352-148.176-148.176-148.176-148.176 66.336-148.176 148.176c0.016 81.824 66.352 148.176 148.176 148.176zM741.36 651.264l50.48-46.608c7.904-7.152 19.904-6.544 27.072 1.36 7.152 7.904 6.688 20.096-1.216 27.248l-49.696 45.488v98.56c0 10.656-5.344 19.296-16 19.296s-16-8.64-16-19.296v-100.32c0-5.104-2.064-9.712 1.184-13.168 0.416-4.656 0.432-9.184 4.176-12.56zM1021.376 200.704l-64 148c-5.248 12.096-17.488 19.856-30.544 19.28-13.184-0.48-24.72-9.008-29.056-21.456l-93.312-268.256-85.488 329.76c-3.584 13.792-15.84 23.552-30.080 23.952-14.144 0.416-27.040-8.672-31.376-22.24l-102.4-320-93.888 211.248c-4.672 10.496-14.592 17.68-26.016 18.832-11.312 1.136-22.592-3.888-29.264-13.232l-134.592-188.416-69.76 93.024c-5.36 7.152-13.488 11.744-22.4 12.64-8.944 0.944-17.776-1.968-24.464-7.92l-144-128c-13.216-11.728-14.4-31.968-2.656-45.168 11.728-13.216 31.984-14.4 45.168-2.656l118 104.896 75.152-100.192c6.112-8.16 15.488-12.784 25.984-12.8 10.208 0.112 19.728 5.088 25.664 13.392l127.456 178.448 105.264-236.848c5.392-12.128 17.968-19.68 30.976-18.96 13.264 0.72 24.688 9.552 28.736 22.208l94.304 294.672 84.256-324.96c3.536-13.648 15.6-23.376 29.68-23.952 0.416 0 0.864 0 1.28 0 13.568 0 25.728 8.592 30.224 21.488l101.008 290.416 31.392-72.608c7.024-16.224 25.84-23.68 42.080-16.672 16.224 7.024 23.68 25.856 16.672 42.080z" />
<glyph unicode="&#xe91b;" glyph-name="chart_multiple-bar-chart" d="M464.144 544h-448.288c-8.768 0-15.856-7.088-15.856-15.856v-1.392c0-8.752 7.088-14.752 15.856-14.752h448.288c8.768 0 15.856 6.544 15.856 15.296 0 8.768-7.088 16.704-15.856 16.704zM559.856 512h448.288c8.768 0 15.856 6.544 15.856 15.296 0 8.768-7.088 16.704-15.856 16.704h-448.288c-8.768 0-15.856-7.088-15.856-15.856v-1.392c0-8.752 7.088-14.752 15.856-14.752zM464.144-32h-448.288c-8.768 0-15.856-7.088-15.856-15.856v-1.392c0-8.752 7.088-14.752 15.856-14.752h448.288c8.768 0 15.856 6.544 15.856 15.296 0 8.768-7.088 16.704-15.856 16.704zM1008.144-32h-448.288c-8.768 0-15.856-7.088-15.856-15.856v-1.392c0-8.752 7.088-14.752 15.856-14.752h448.288c8.768 0 15.856 6.544 15.856 15.296 0 8.768-7.088 16.704-15.856 16.704zM64 560h32c17.664 0 32 14.336 32 32v112c0 17.664-14.336 32-32 32h-32c-17.664 0-32-14.336-32-32v-112c0-17.664 14.336-32 32-32zM224 560h32c17.664 0 32 14.336 32 32v336c0 17.664-14.336 32-32 32h-32c-17.664 0-32-14.336-32-32v-336c0-17.664 14.336-32 32-32zM384 560h32c17.664 0 32 14.336 32 32v224c0 17.664-14.336 32-32 32h-32c-17.664 0-32-14.336-32-32v-224c0-17.664 14.336-32 32-32zM96-16c17.664 0 32 14.336 32 32v112c0 17.664-14.336 32-32 32h-32c-17.664 0-32-14.336-32-32v-112c0-17.664 14.336-32 32-32h32zM256-16c17.664 0 32 14.336 32 32v336c0 17.664-14.336 32-32 32h-32c-17.664 0-32-14.336-32-32v-336c0-17.664 14.336-32 32-32h32zM416-16c17.664 0 32 14.336 32 32v224c0 17.664-14.336 32-32 32h-32c-17.664 0-32-14.336-32-32v-224c0-17.664 14.336-32 32-32h32zM608 560h32c17.664 0 32 14.336 32 32v112c0 17.664-14.336 32-32 32h-32c-17.664 0-32-14.336-32-32v-112c0-17.664 14.336-32 32-32zM768 560h32c17.664 0 32 14.336 32 32v336c0 17.664-14.336 32-32 32h-32c-17.664 0-32-14.336-32-32v-336c0-17.664 14.336-32 32-32zM928 560h32c17.664 0 32 14.336 32 32v224c0 17.664-14.336 32-32 32h-32c-17.664 0-32-14.336-32-32v-224c0-17.664 14.336-32 32-32zM624 160c-17.664 0-32-14.336-32-32v-112c0-17.664 14.336-32 32-32h32c17.664 0 32 14.336 32 32v112c0 17.664-14.336 32-32 32h-32zM784 384c-17.664 0-32-14.336-32-32v-336c0-17.664 14.336-32 32-32h32c17.664 0 32 14.336 32 32v336c0 17.664-14.336 32-32 32h-32zM944 272c-17.664 0-32-14.336-32-32v-224c0-17.664 14.336-32 32-32h32c17.664 0 32 14.336 32 32v224c0 17.664-14.336 32-32 32h-32z" />
<glyph unicode="&#xe91c;" glyph-name="chart_multiple-line-chart" d="M464.144 544h-432.144v400.144c0 8.768-6.544 15.856-15.296 15.856-8.768 0-16.704-7.088-16.704-15.856v-417.392c0-8.752 7.088-14.752 15.856-14.752h448.288c8.768 0 15.856 6.544 15.856 15.296 0 8.768-7.088 16.704-15.856 16.704zM559.856 512h448.288c8.768 0 15.856 6.544 15.856 15.296 0 8.768-7.088 16.704-15.856 16.704h-432.144v400.144c0 8.768-6.544 15.856-15.296 15.856-8.768 0-16.704-7.088-16.704-15.856v-417.392c0-8.752 7.088-14.752 15.856-14.752zM464.144-32h-432.144v400.144c0 8.768-6.544 15.856-15.296 15.856-8.768 0-16.704-7.088-16.704-15.856v-417.392c0-8.752 7.088-14.752 15.856-14.752h448.288c8.768 0 15.856 6.544 15.856 15.296 0 8.768-7.088 16.704-15.856 16.704zM1008.144-32h-432.144v400.144c0 8.768-6.544 15.856-15.296 15.856-8.768 0-16.704-7.088-16.704-15.856v-417.392c0-8.752 7.088-14.752 15.856-14.752h448.288c8.768 0 15.856 6.544 15.856 15.296 0 8.768-7.088 16.704-15.856 16.704zM96.96 756.864l111.776 69.856 207.392-118.512c4.992-2.864 10.464-4.208 15.84-4.208 11.104 0 21.904 5.792 27.808 16.128 8.768 15.344 3.44 34.896-11.904 43.664l-224 128c-10.24 5.856-22.848 5.616-32.832-0.656l-128-80c-14.992-9.376-19.536-29.12-10.176-44.096 9.392-15.008 29.152-19.552 44.096-10.176zM444.608 653.408l-224 96c-10.512 4.512-22.64 3.056-31.808-3.808l-128-96c-14.144-10.608-17.008-30.672-6.384-44.8 10.592-14.144 30.624-17.008 44.8-6.4l113.2 84.896 206.992-88.704c4.096-1.76 8.368-2.592 12.576-2.592 12.416 0 24.24 7.264 29.424 19.408 6.96 16.24-0.56 35.040-16.8 42zM604.352 742.736l47.104-36.64-55.36-98.416c-8.672-15.408-3.2-34.912 12.208-43.584 4.96-2.768 10.352-4.096 15.664-4.096 11.184 0 22.048 5.872 27.92 16.32l50.656 90.064 45.808-35.632c5.76-4.48 12.688-6.752 19.648-6.752 5.792 0 11.616 1.568 16.768 4.752l208 128c15.056 9.264 19.744 28.976 10.48 44.016s-29.008 19.744-44.016 10.48l-189.104-116.368-35.84 27.888 54.688 97.232 194.24 44.816c17.216 3.984 27.952 21.152 23.984 38.368-4 17.232-21.248 28-38.4 24l-208-48c-8.768-2.016-16.288-7.648-20.688-15.488l-56.928-101.184-39.552 30.752c-13.92 10.864-34.048 8.352-44.912-5.616-10.832-13.952-8.32-34.048 5.632-44.912zM457.872 210.816c-10.384 14.288-30.384 17.456-44.704 7.056l-46.752-34-84.048 122.256c-5.76 8.384-15.184 13.52-25.36 13.856-10.224 0.352-19.888-4.192-26.176-12.208l-55.248-70.32-69.216 100.672c-10 14.56-29.936 18.24-44.496 8.24s-18.256-29.936-8.256-44.496l80.528-117.136-79.312-100.96c-10.928-13.904-8.512-34.016 5.392-44.944 13.872-10.896 34-8.512 44.928 5.392l66.992 85.248 57.488-83.616c4.896-7.104 12.448-11.952 20.976-13.408 1.776-0.304 3.6-0.448 5.392-0.448 6.72 0 13.312 2.112 18.832 6.112l76.080 55.328 54.72-79.584c6.192-9.008 16.208-13.856 26.4-13.856 6.256 0 12.56 1.824 18.096 5.632 14.56 10 18.256 29.936 8.256 44.496l-55.664 80.992 48.128 35.008c14.256 10.384 17.44 30.4 7.024 44.688zM263.744 109.2l-50.192 73.008 40.72 51.808 60.352-87.792-50.88-37.024zM998.624 358.624c-12.496 12.496-32.752 12.496-45.248 0l-78.88-78.864-47.648 73.632c-6.048 9.344-16.592 14.96-27.664 14.608-11.12-0.288-21.312-6.32-26.896-15.968l-86.56-149.52-58.864 5.344c-17.648 1.616-33.152-11.376-34.768-28.976-1.6-17.6 11.376-33.168 28.992-34.768l29.296-2.672-54.096-93.44c-8.864-15.296-3.648-34.864 11.664-43.728 5.040-2.928 10.56-4.32 16-4.32 11.040 0 21.792 5.728 27.712 15.984l68.976 119.12 76.448-6.96c0.992-0.048 1.936-0.096 2.912-0.096 8.448 0 16.592 3.344 22.624 9.376l41.152 41.152 85.36-131.92c9.6-14.832 29.408-19.088 44.256-9.488 14.832 9.6 19.072 29.408 9.472 44.256l-92.8 143.424 88.56 88.576c12.496 12.496 12.496 32.752 0 45.248zM787.968 193.232l-31.968 2.912 45.52 78.624 26.704-41.28-40.256-40.256z" />
<glyph unicode="&#xe91d;" glyph-name="chart_multiple-pie-chart" d="M240 957.632v-191.328l167.648 86.928c-33.856 59.072-71.648 99.968-167.648 104.4zM257.024 710.224l122.88-142.448c40.864 38 66.448 92.208 66.448 152.416 0 28.336-5.68 55.328-15.92 79.936l-173.408-89.904zM211.6 512.080c45.408 0 89.328 14.576 123.52 39.216l-127.12 146.096v230.48c-96-6.736-201.344-97.12-201.344-207.68 0-114.928 90.032-208.112 204.944-208.112zM816 957.632v-191.328l167.648 86.928c-33.856 59.072-71.648 99.968-167.648 104.4zM955.904 567.776c40.864 38 66.448 92.208 66.448 152.416 0 28.336-5.68 55.328-15.92 79.936l-173.408-89.904 122.88-142.448zM787.6 512.080c45.408 0 89.328 14.576 123.52 39.216l-127.12 146.096v230.48c-96-6.72-201.344-97.104-201.344-207.664 0-114.944 90.032-208.128 204.944-208.128zM407.648 277.232c-33.856 59.072-71.648 99.968-167.648 104.4v-191.328l167.648 86.928zM257.024 134.224l122.88-142.448c40.864 38 66.448 92.208 66.448 152.416 0 28.336-5.68 55.328-15.92 79.936l-173.408-89.904zM208 351.872c-96-6.72-201.344-97.104-201.344-207.664 0-114.944 90.032-208.112 204.944-208.112 45.408 0 89.328 14.576 123.52 39.216l-127.12 146.080v230.48zM816 381.632v-191.328l167.648 86.928c-33.856 59.072-71.648 99.968-167.648 104.4zM833.024 134.224l122.88-142.448c40.864 38 66.448 92.208 66.448 152.416 0 28.336-5.68 55.328-15.92 79.936l-173.408-89.904zM784 351.872c-96-6.72-201.344-97.104-201.344-207.664 0-114.944 90.032-208.112 204.944-208.112 45.408 0 89.328 14.576 123.52 39.216l-127.12 146.080v230.48z" />
<glyph unicode="&#xe91e;" glyph-name="chart_multiple-radar-chart" d="M454.496 859.072l-208 92.448c-4.144 1.84-8.864 1.84-13.008 0l-208-92.448c-5.76-2.56-9.488-8.304-9.488-14.624v-248.912c0-6.32 3.728-12.048 9.504-14.624l208-92.448c2.064-0.928 4.288-1.376 6.496-1.376s4.432 0.464 6.496 1.376l208 92.448c5.776 2.576 9.504 8.32 9.504 14.64v248.896c0 6.32-3.728 12.064-9.504 14.624zM432 605.952l-192-85.328-192 85.328v228.096l192 85.328 192-85.328v-228.096zM96 816l16-160 128-48 144 32-80 96-64 96zM998.496 859.072l-208 92.448c-4.144 1.84-8.864 1.84-13.008 0l-208-92.448c-5.76-2.56-9.488-8.304-9.488-14.624v-248.912c0-6.32 3.728-12.048 9.504-14.624l208-92.448c2.064-0.928 4.288-1.376 6.496-1.376s4.432 0.464 6.496 1.376l208 92.448c5.776 2.576 9.504 8.32 9.504 14.64v248.896c0 6.32-3.728 12.064-9.504 14.624zM976 605.952l-192-85.328-192 85.328v228.096l192 85.328 192-85.328v-228.096zM454.496 315.072l-208 92.448c-4.144 1.84-8.864 1.84-13.008 0l-208-92.448c-5.76-2.56-9.488-8.304-9.488-14.624v-248.912c0-6.32 3.728-12.048 9.504-14.624l208-92.448c2.064-0.928 4.288-1.376 6.496-1.376s4.432 0.464 6.496 1.376l208 92.448c5.776 2.576 9.504 8.32 9.504 14.64v248.896c0 6.32-3.728 12.064-9.504 14.624zM432 61.952l-192-85.328-192 85.328v228.096l192 85.328 192-85.328v-228.096zM998.496 315.072l-208 92.448c-4.144 1.84-8.864 1.84-13.008 0l-208-92.448c-5.76-2.56-9.488-8.304-9.488-14.624v-248.912c0-6.32 3.728-12.048 9.504-14.624l208-92.448c2.064-0.928 4.288-1.376 6.496-1.376s4.432 0.464 6.496 1.376l208 92.448c5.776 2.576 9.504 8.32 9.504 14.64v248.896c0 6.32-3.728 12.064-9.504 14.624zM976 61.952l-192-85.328-192 85.328v228.096l192 85.328 192-85.328v-228.096zM688 800l-64-160 160 48 144-48-112 112-32 128zM208 208l-144-128 176-64 160 64-112 112-48 112zM672 224l-17.328-90.672 129.328-101.328 128 80 32 160-160-32z" />
<glyph unicode="&#xe91f;" glyph-name="chart_org-chart" d="M892.448 288h-76.448v135.104c0 0.304-0.080 0.592-0.096 0.896 0.016 0.304 0.096 0.592 0.096 0.896v14.224c0 13.744-11.136 24.88-24.896 24.88h-247.104v128h105.232c74.32 0 134.768 60.448 134.768 134.752v98.496c0 74.304-60.448 134.752-134.768 134.752h-274.464c-74.32 0-134.768-60.448-134.768-134.752v-98.48c0-74.32 60.448-134.768 134.768-134.768h105.232v-128h-247.104c-13.76 0-24.896-11.136-24.896-24.896v-14.224c0-0.304 0.080-0.592 0.096-0.896-0.016-0.288-0.096-0.576-0.096-0.88v-135.104h-76.448c-72.544 0-131.552-59.008-131.552-131.552v-88.896c0-72.544 59.008-131.552 131.552-131.552h232.912c72.528 0 131.536 59.008 131.536 131.552v88.896c0 72.544-59.008 131.552-131.552 131.552h-92.448v112h480v-112h-92.448c-72.544 0-131.552-59.008-131.552-131.552v-88.896c0-72.544 59.008-131.552 131.552-131.552h232.896c72.544 0 131.552 59.008 131.552 131.552v88.896c0 72.544-59.008 131.552-131.552 131.552zM304 726.752v98.496c0 39.008 31.744 70.752 70.768 70.752h274.464c39.024 0 70.768-31.744 70.768-70.752v-98.48c0-39.024-31.744-70.768-70.768-70.768h-274.464c-39.024 0-70.768 31.744-70.768 70.752zM432 156.448v-88.896c0-37.248-30.304-67.552-67.552-67.552h-232.896c-37.248 0-67.552 30.304-67.552 67.552v88.896c0 37.248 30.304 67.552 67.552 67.552h232.896c37.248 0 67.552-30.304 67.552-67.552zM960 67.552c0-37.248-30.304-67.552-67.552-67.552h-232.896c-37.248 0-67.552 30.304-67.552 67.552v88.896c0 37.248 30.304 67.552 67.552 67.552h232.88c37.264 0 67.568-30.304 67.568-67.552v-88.896z" />
<glyph unicode="&#xe920;" glyph-name="chart_overview-chart" d="M944 624h-96c-52.944 0-96-43.056-96-96v-21.776l-96-19.2v8.976c0 32.256-16.032 60.784-40.496 78.192l30.672 81.808h73.824c52.944 0 96 43.056 96 96v96c0 52.944-43.056 96-96 96h-96c-52.944 0-96-43.056-96-96v-96c0-37.696 21.888-70.304 53.584-86l-27.76-74h-89.824c-0.88 0-1.744-0.112-2.624-0.128l-124.544 124.544c9.552 14.912 15.168 32.592 15.168 51.584v96c0 52.944-43.056 96-96 96h-96c-52.944 0-96-43.056-96-96v-96c0-52.944 43.056-96 96-96h96c10.448 0 20.496 1.728 29.92 4.832l111.664-111.664c-18.192-17.488-29.584-42-29.584-69.168v-27.2l-80.064-35.584c-0.656 52.368-43.408 94.784-95.936 94.784h-96c-52.944 0-96-43.056-96-96v-96c0-52.944 43.056-96 96-96h96c52.944 0 96 43.056 96 96v27.2l80.064 35.584c0.432-34 18.624-63.712 45.712-80.432l-62.896-94.352h-30.88c-52.944 0-96-43.056-96-96v-96c0-52.944 43.056-96 96-96h96c52.944 0 96 43.056 96 96v96c0 49.104-37.072 89.648-84.688 95.28l53.808 80.72h78.88c9.008 0 17.68 1.328 25.952 3.664l71.776-92.288c-11.12-15.664-17.728-34.736-17.728-55.376v-96c0-52.944 43.056-96 96-96h96c52.944 0 96 43.056 96 96v96c0 52.944-43.056 96-96 96h-96c-9.008 0-17.68-1.328-25.952-3.664l-71.776 92.288c11.12 15.664 17.728 34.736 17.728 55.376v21.776l96 19.2v-8.976c0-52.944 43.056-96 96-96h96c52.944 0 96 43.056 96 96v96c0 52.944-43.056 96-96 96zM160 736c-17.648 0-32 14.352-32 32v96c0 17.648 14.352 32 32 32h96c17.648 0 32-14.352 32-32v-96c0-6.032-1.776-11.632-4.688-16.448-6.56-0.976-12.88-3.872-17.936-8.928-1.888-1.888-3.376-3.984-4.688-6.16-1.552-0.224-3.088-0.464-4.688-0.464h-96zM592 848c0 17.648 14.352 32 32 32h96c17.648 0 32-14.352 32-32v-96c0-17.648-14.352-32-32-32h-96c-17.648 0-32 14.352-32 32v96zM192 304h-96c-17.648 0-32 14.352-32 32v96c0 17.648 14.352 32 32 32h96c17.648 0 32-14.352 32-32v-48.544c0-0.016 0-0.048 0-0.080v-47.376c0-17.648-14.352-32-32-32zM448 128v-96c0-17.648-14.352-32-32-32h-96c-17.648 0-32 14.352-32 32v96c0 17.648 14.352 32 32 32h96c17.648 0 32-14.352 32-32zM464 368c-17.648 0-32 14.352-32 32v48.544c0 0.016 0 0.048 0 0.080v47.376c0 17.648 14.352 32 32 32h96c17.648 0 32-14.352 32-32v-47.792c0-0.016 0-0.032 0-0.048v-48.16c0-6.048-1.776-11.648-4.704-16.48-5.28-0.784-10.432-2.752-14.944-6.272-3.2-2.496-5.728-5.504-7.696-8.784-1.536-0.224-3.056-0.464-4.656-0.464h-96zM832 192c17.648 0 32-14.352 32-32v-96c0-17.648-14.352-32-32-32h-96c-17.648 0-32 14.352-32 32v96c0 6.176 1.84 11.904 4.88 16.8 5.2 0.8 10.32 2.48 14.768 5.952 3.2 2.496 5.728 5.504 7.696 8.784 1.536 0.224 3.056 0.464 4.656 0.464h96zM976 432c0-17.648-14.352-32-32-32h-96c-17.648 0-32 14.352-32 32v47.792c0 0.016 0 0.032 0 0.048v48.16c0 17.648 14.352 32 32 32h96c17.648 0 32-14.352 32-32v-96z" />
<glyph unicode="&#xe921;" glyph-name="chart_pie-chart" d="M560 526.464l378.784 196.416c-76.496 133.488-218.784 225.856-378.784 235.872v-432.288zM596.16 399.824l277.584-321.824c92.336 85.856 150.16 208.336 150.16 344.352 0 64-12.848 125.008-36 180.608l-391.744-203.136zM458.16 386.592c-5.568 6.464-10.16 34.848-10.16 35.76v469.2c-224-15.184-436.256-219.376-436.256-469.2 0-259.68 212.784-470.208 472.48-470.208 102.512 0 196.144 32.912 273.408 88.592l-299.472 345.856z" />
<glyph unicode="&#xe922;" glyph-name="chart_pipeline-analysis" d="M88 912c13.248 0 24 10.736 24 24s-10.752 24-24 24h-48c-0.688 0-1.328-0.144-2-0.208-0.672 0.048-1.312 0.208-2 0.208h-8c-15.472 0-28-12.544-28-28v-968c0-15.456 12.528-28 28-28h8c0.688 0 1.328 0.16 2 0.208 0.672-0.064 1.312-0.208 2-0.208h48c13.248 0 24 10.736 24 24s-10.752 24-24 24h-24v144h24c13.248 0 24 10.736 24 24s-10.752 24-24 24h-24v144h24c13.248 0 24 10.736 24 24s-10.752 24-24 24h-24v160h24c13.248 0 24 10.736 24 24s-10.752 24-24 24h-24v144h24c13.248 0 24 10.736 24 24s-10.752 24-24 24h-24v144h24zM354.672 576h506.656l56.304 144h-619.264zM511.040 176h193.92l56.288 144h-306.496zM435.984 368h344.032l62.544 160h-469.12zM223.312 912l56.304-144h656.768l56.304 144zM586.112-16h43.776l56.304 144h-156.384z" />
<glyph unicode="&#xe923;" glyph-name="chart_radar-chart" d="M974.128 719.12l-448 220.4c-8.912 4.384-19.344 4.384-28.256 0l-448-220.4c-10.928-5.392-17.872-16.512-17.872-28.72v-501.632c0-12.192 6.944-23.328 17.872-28.704l448-220.384c4.448-2.192 9.296-3.296 14.128-3.296s9.664 1.088 14.128 3.296l448 220.384c10.928 5.376 17.872 16.512 17.872 28.704v501.632c0 12.208-6.944 23.328-17.872 28.72zM928 208.688l-416-204.64-416 204.64v461.792l416 204.672 416-204.672v-461.792zM556.8 528c0-24.742-20.058-44.8-44.8-44.8s-44.8 20.058-44.8 44.8c0 24.742 20.058 44.8 44.8 44.8s44.8-20.058 44.8-44.8zM316.8 592c0-24.742-20.058-44.8-44.8-44.8s-44.8 20.058-44.8 44.8c0 24.742 20.058 44.8 44.8 44.8s44.8-20.058 44.8-44.8zM908.8 608c0-24.742-20.058-44.8-44.8-44.8s-44.8 20.058-44.8 44.8c0 24.742 20.058 44.8 44.8 44.8s44.8-20.058 44.8-44.8zM780.8 288c0-24.742-20.058-44.8-44.8-44.8s-44.8 20.058-44.8 44.8c0 24.742 20.058 44.8 44.8 44.8s44.8-20.058 44.8-44.8zM556.8 112c0-24.742-20.058-44.8-44.8-44.8s-44.8 20.058-44.8 44.8c0 24.742 20.058 44.8 44.8 44.8s44.8-20.058 44.8-44.8zM512 448c-44.192 0-80 35.824-80 80 0 7.152 1.232 13.952 3.008 20.528l-86 22.944c-9.12-34.176-39.968-59.472-77.008-59.472-7.296 0-14.256 1.296-20.976 3.12l-54.064-198.256c33.952-9.248 59.040-39.984 59.040-76.864 0-10.032-2.064-19.552-5.44-28.4l186.88-71.184c11.488 30.096 40.416 51.584 74.56 51.584 25.536 0 47.984-12.176 62.64-30.784l98.72 77.568c-10.704 13.6-17.36 30.56-17.36 49.216 0 44.176 35.808 80 80 80 10.496 0 20.48-2.144 29.664-5.824l68.656 171.664c-24.128 9.664-42.352 30.672-48.224 56.464l-196.224-44.592c1.312-5.712 2.128-11.616 2.128-17.712 0-44.176-35.808-80-80-80zM220.8 240c0-24.742-20.058-44.8-44.8-44.8s-44.8 20.058-44.8 44.8c0 24.742 20.058 44.8 44.8 44.8s44.8-20.058 44.8-44.8z" />
<glyph unicode="&#xe924;" glyph-name="chart_scatter-chart" d="M993.008 0h-929.008v930c0 16.576-13.44 30-30 30h-4c-16.56 0-30-13.424-30-30v-964.016c0-16.544 13.44-29.984 30-29.984h963.024c17.104 0 30.976 13.872 30.976 30.992v2c0 17.136-13.872 31.008-30.992 31.008zM993.008 528h-401.008v402c0 16.576-13.44 30-30 30h-4c-16.56 0-30-13.424-30-30v-402h-400.992c-17.136 0-31.008-13.872-31.008-31.008v-2c0-17.12 13.872-30.992 31.008-30.992h400.992v-402c0-16.56 13.44-30 30-30h4c16.56 0 30 13.44 30 30v402h401.008c17.12 0 30.992 13.872 30.992 30.992v2c0 17.136-13.872 31.008-30.992 31.008zM178.432 827.216l5.584-3.216-5.568-3.216c-11.488-6.624-15.424-21.296-8.784-32.784s21.296-15.408 32.768-8.784l5.568 3.216v-6.432c0-13.264 10.736-24 24-24s24 10.736 24 24v6.432l5.584-3.216c11.488-6.64 26.16-2.704 32.8 8.784 6.624 11.488 2.688 26.144-8.8 32.784l-5.584 3.216 5.6 3.232c11.472 6.624 15.408 21.296 8.784 32.784s-21.296 15.408-32.784 8.784l-5.6-3.248v6.448c0 13.264-10.736 24-24 24s-24-10.736-24-24v-6.432l-5.568 3.216c-11.472 6.64-26.16 2.704-32.784-8.784s-2.672-26.16 8.784-32.784zM354.432 635.216l5.584-3.216-5.568-3.216c-11.488-6.624-15.424-21.296-8.784-32.784s21.296-15.408 32.768-8.784l5.568 3.216v-6.432c0-13.264 10.736-24 24-24s24 10.736 24 24v6.432l5.584-3.216c11.488-6.64 26.16-2.704 32.8 8.784 6.624 11.488 2.688 26.144-8.8 32.784l-5.584 3.216 5.6 3.232c11.472 6.624 15.408 21.296 8.784 32.784s-21.296 15.408-32.784 8.784l-5.6-3.248v6.448c0 13.264-10.736 24-24 24s-24-10.736-24-24v-6.432l-5.568 3.216c-11.472 6.64-26.16 2.704-32.784-8.784s-2.672-26.16 8.784-32.784zM658.432 859.216l5.584-3.216-5.568-3.216c-11.488-6.624-15.424-21.296-8.784-32.784s21.296-15.408 32.768-8.784l5.568 3.216v-6.432c0-13.264 10.736-24 24-24s24 10.736 24 24v6.432l5.584-3.216c11.488-6.64 26.16-2.704 32.8 8.784 6.624 11.488 2.688 26.144-8.8 32.784l-5.584 3.216 5.6 3.232c11.472 6.624 15.408 21.296 8.784 32.784s-21.296 15.408-32.784 8.784l-5.6-3.248v6.448c0 13.264-10.736 24-24 24s-24-10.736-24-24v-6.432l-5.568 3.216c-11.472 6.64-26.16 2.704-32.784-8.784s-2.672-26.16 8.784-32.784zM898.432 683.216l5.584-3.216-5.568-3.216c-11.488-6.624-15.424-21.296-8.784-32.784s21.296-15.408 32.768-8.784l5.568 3.216v-6.432c0-13.264 10.736-24 24-24s24 10.736 24 24v6.432l5.584-3.216c11.488-6.64 26.16-2.704 32.8 8.784 6.624 11.488 2.688 26.144-8.8 32.784l-5.584 3.216 5.6 3.232c11.472 6.624 15.408 21.296 8.784 32.784s-21.296 15.408-32.784 8.784l-5.6-3.248v6.448c0 13.264-10.736 24-24 24s-24-10.736-24-24v-6.432l-5.568 3.216c-11.472 6.64-26.16 2.704-32.784-8.784s-2.672-26.16 8.784-32.784zM904 432c-13.264 0-24-10.752-24-24v-6.432l-5.568 3.216c-11.472 6.624-26.16 2.688-32.784-8.784-6.624-11.504-2.688-26.16 8.784-32.784l5.584-3.216-5.568-3.216c-11.488-6.624-15.424-21.296-8.784-32.784s21.296-15.408 32.768-8.784l5.568 3.216v-6.432c0-13.248 10.736-24 24-24s24 10.752 24 24v6.432l5.584-3.216c11.488-6.64 26.16-2.72 32.8 8.784 6.624 11.472 2.688 26.144-8.8 32.784l-5.584 3.216 5.584 3.216c11.472 6.624 15.408 21.296 8.784 32.784s-21.296 15.408-32.784 8.784l-5.584-3.232v6.448c0 13.248-10.736 24-24 24zM728 240c-13.264 0-24-10.752-24-24v-6.432l-5.568 3.216c-11.472 6.624-26.16 2.688-32.784-8.784-6.624-11.504-2.688-26.16 8.784-32.784l5.584-3.216-5.568-3.216c-11.488-6.624-15.424-21.296-8.784-32.784s21.296-15.408 32.768-8.784l5.568 3.216v-6.432c0-13.248 10.736-24 24-24s24 10.752 24 24v6.432l5.584-3.216c11.488-6.64 26.16-2.72 32.8 8.784 6.624 11.472 2.688 26.144-8.8 32.784l-5.584 3.216 5.584 3.216c11.472 6.624 15.408 21.296 8.784 32.784s-21.296 15.408-32.784 8.784l-5.584-3.232v6.448c0 13.248-10.736 24-24 24zM296 432c-13.264 0-24-10.752-24-24v-6.432l-5.568 3.216c-11.472 6.624-26.16 2.688-32.784-8.784-6.624-11.504-2.688-26.16 8.784-32.784l5.584-3.216-5.568-3.216c-11.488-6.624-15.424-21.296-8.784-32.784s21.296-15.408 32.768-8.784l5.568 3.216v-6.432c0-13.248 10.736-24 24-24s24 10.752 24 24v6.432l5.584-3.216c11.488-6.64 26.16-2.72 32.8 8.784 6.624 11.472 2.688 26.144-8.8 32.784l-5.584 3.216 5.584 3.216c11.472 6.624 15.408 21.296 8.784 32.784s-21.296 15.408-32.784 8.784l-5.584-3.232v6.448c0 13.248-10.736 24-24 24zM424 304c-13.264 0-24-10.752-24-24v-6.432l-5.568 3.216c-11.472 6.624-26.16 2.688-32.784-8.784-6.624-11.504-2.688-26.16 8.784-32.784l5.584-3.216-5.568-3.216c-11.488-6.624-15.424-21.296-8.784-32.784s21.296-15.408 32.768-8.784l5.568 3.216v-6.432c0-13.248 10.736-24 24-24s24 10.752 24 24v6.432l5.584-3.216c11.488-6.64 26.16-2.72 32.8 8.784 6.624 11.472 2.688 26.144-8.8 32.784l-5.584 3.216 5.584 3.216c11.472 6.624 15.408 21.296 8.784 32.784s-21.296 15.408-32.784 8.784l-5.584-3.232v6.448c0 13.248-10.736 24-24 24z" />
<glyph unicode="&#xe925;" glyph-name="chart_stovertical-stacked-chartve" d="M160 64h128c17.664 0 32 14.336 32 32v112c0 17.664-14.336 32-32 32h-128c-17.664 0-32-14.336-32-32v-112c0-17.664 14.336-32 32-32zM480 64h128c17.664 0 32 14.336 32 32v304c0 17.664-14.336 32-32 32h-128c-17.664 0-32-14.336-32-32v-304c0-17.664 14.336-32 32-32zM800 64h128c17.664 0 32 14.336 32 32v192c0 17.664-14.336 32-32 32h-128c-17.664 0-32-14.336-32-32v-192c0-17.664 14.336-32 32-32zM800 384h128c17.664 0 32 14.336 32 32v112c0 17.664-14.336 32-32 32h-128c-17.664 0-32-14.336-32-32v-112c0-17.664 14.336-32 32-32zM800 624h128c17.664 0 32 14.336 32 32v160c0 17.664-14.336 32-32 32h-128c-17.664 0-32-14.336-32-32v-160c0-17.664 14.336-32 32-32zM480 496h128c17.664 0 32 14.336 32 32v176c0 17.664-14.336 32-32 32h-128c-17.664 0-32-14.336-32-32v-176c0-17.664 14.336-32 32-32zM480 800h128c17.664 0 32 14.336 32 32v80c0 17.664-14.336 32-32 32h-128c-17.664 0-32-14.336-32-32v-80c0-17.664 14.336-32 32-32zM160 304h128c17.664 0 32 14.336 32 32v64c0 17.664-14.336 32-32 32h-128c-17.664 0-32-14.336-32-32v-64c0-17.664 14.336-32 32-32zM160 480h128c17.664 0 32 14.336 32 32v160c0 17.664-14.336 32-32 32h-128c-17.664 0-32-14.336-32-32v-160c0-17.664 14.336-32 32-32zM996 0h-932v928c0 17.664-14.336 32-32 32s-32-14.336-32-32v-964c0-15.472 12.528-28 28-28h968c15.472 0 28 12.528 28 28v8c0 15.472-12.528 28-28 28z" />
<glyph unicode="&#xe926;" glyph-name="chart_table-chart" d="M32 768c-17.664 0-32-14.336-32-32v-144c0-17.664 14.336-32 32-32s32 14.336 32 32v144c0 17.664-14.336 32-32 32zM32 496c-17.664 0-32-14.336-32-32v-160c0-17.664 14.336-32 32-32s32 14.336 32 32v160c0 17.664-14.336 32-32 32zM32 208c-17.664 0-32-14.336-32-32v-144c0-17.664 14.336-32 32-32s32 14.336 32 32v144c0 17.664-14.336 32-32 32zM224 896h144c17.664 0 32 14.336 32 32s-14.336 32-32 32h-144c-17.664 0-32-14.336-32-32s14.336-32 32-32zM496 896h160c17.664 0 32 14.336 32 32s-14.336 32-32 32h-160c-17.664 0-32-14.336-32-32s14.336-32 32-32zM784 896h144c17.664 0 32 14.336 32 32s-14.336 32-32 32h-144c-17.664 0-32-14.336-32-32s14.336-32 32-32zM1024 802.992c0 16.016-12.992 29.008-28.992 29.008h-838c-16.016 0-29.008-12.992-29.008-29.008v-6c0-5.152 1.456-9.936 3.824-14.128-2.368-4.464-3.824-9.472-3.824-14.864v-208c0-5.392 1.456-10.4 3.824-14.864-2.368-4.192-3.824-8.976-3.824-14.144v-6c0-5.152 1.456-9.936 3.824-14.128-2.368-4.464-3.824-9.472-3.824-14.864v-208c0-9.152 3.904-17.36 10.064-23.2-6.112-5.312-10.064-13.072-10.064-21.808v-6c0-5.152 1.456-9.936 3.824-14.144-2.368-4.448-3.824-9.456-3.824-14.848v-208c0-5.392 1.456-10.4 3.824-14.864-2.368-4.192-3.824-8.976-3.824-14.144v-6c0-16 12.992-28.992 29.008-28.992h838c16 0 28.992 12.992 28.992 28.992v6c0 5.152-1.456 9.936-3.824 14.144 2.368 4.464 3.824 9.472 3.824 14.864v208c0 5.392-1.456 10.4-3.824 14.864 2.368 4.192 3.824 8.976 3.824 14.128v6c0 8.736-3.952 16.48-10.064 21.792 6.16 5.856 10.064 14.064 10.064 23.216v208c0 5.392-1.456 10.4-3.824 14.864 2.368 4.192 3.824 8.976 3.824 14.128v6c0 5.152-1.456 9.936-3.824 14.128 2.368 4.48 3.824 9.488 3.824 14.88v208c0 5.392-1.456 10.4-3.824 14.864 2.368 4.192 3.824 8.976 3.824 14.128v6zM964.432 272h-216.864c2.752 4.72 4.432 10.144 4.432 16v208h208v-208c0-5.856 1.68-11.28 4.432-16zM192 288v208h208v-208c0-5.856 1.68-11.28 4.432-16h-216.864c2.752 4.72 4.432 10.144 4.432 16zM464 288v208h224v-208c0-5.856 1.68-11.28 4.432-16h-232.864c2.752 4.72 4.432 10.144 4.432 16zM960 768v-208h-208v208h208zM688 768v-208h-224v208h224zM400 768v-208h-208v208h208zM192 0v208h208v-208h-208zM464 0v208h224v-208h-224zM752 0v208h208v-208h-208z" />
<glyph unicode="&#xe927;" glyph-name="chart_tag-cloud-chart" d="M847.856 613.2c0.016 0.944 0.144 1.856 0.144 2.8 0 75.104-60.896 136-136 136-30.16 0-57.92-9.936-80.464-26.544-46.672 82.64-135.184 138.544-236.864 138.544-150.224 0-272-121.776-272-272 0-22.176 2.96-43.632 7.952-64.272-72.592-2.848-130.624-62.432-130.624-135.728 0-75.104 60.896-136 136-136 2.704 0 5.344 0.256 8 0.4v-0.4h96v-208l228.8 208h363.2v0.672c4.416-0.336 8.832-0.672 13.328-0.672 98.688 0 178.672 79.984 178.672 178.656 0 97.824-78.64 177.168-176.144 178.544z" />
<glyph unicode="&#xe928;" glyph-name="chart_temperature" d="M512 526.864v267.728c0 91.36-74.064 165.408-165.408 165.408h-5.184c-91.344 0-165.408-74.048-165.408-165.408v-262.864c-93.328-55.904-156-157.712-156-274.416 0-176.736 143.264-320 320-320s320 143.264 320 320c0 113.36-59.088 212.704-148 269.552zM345.744 37.296c-121.504 0-220 98.528-220 220.016 0 89.488 53.536 166.368 130.256 200.736v341.36c0 44.512 36.080 80.592 80.576 80.592h14.848c44.496 0 80.576-36.080 80.576-80.592v-339.664c78.624-33.568 133.76-111.552 133.76-202.416 0-121.504-98.528-220.032-220.016-220.032zM384 396.4v187.408c0 22.192-14.992 40.192-33.488 40.192h-13.024c-18.48 0-33.488-18-33.488-40.192v-186.384c-59.744-16.64-103.664-71.344-103.664-136.4 0-78.272 63.456-141.712 141.696-141.712 78.272 0 141.728 63.456 141.728 141.712 0 63.648-41.984 117.488-99.76 135.376zM680 816h304c22.096 0 40 17.904 40 40s-17.904 40-40 40h-304c-22.096 0-40-17.904-40-40s17.904-40 40-40zM680 688h144c22.096 0 40 17.904 40 40s-17.904 40-40 40h-144c-22.096 0-40-17.904-40-40s17.904-40 40-40zM984 640h-304c-22.096 0-40-17.904-40-40s17.904-40 40-40h304c22.096 0 40 17.904 40 40s-17.904 40-40 40zM824 512h-144c-22.096 0-40-17.904-40-40s17.904-40 40-40h144c22.096 0 40 17.904 40 40s-17.904 40-40 40z" />
<glyph unicode="&#xe929;" glyph-name="chart_tools-opportunity" d="M512 960c-282.768 0-512-229.232-512-512 0-154.144 68.224-292.288 176-386.144 54.976-47.856 120.192-84.176 192-105.184 15.696-4.592 31.696-8.448 48-11.552 31.104-5.904 63.168-9.12 96-9.12s64.896 3.216 96 9.12c16.304 3.088 32.304 6.96 48 11.552 71.808 21.008 137.024 57.328 192 105.184 107.776 93.856 176 232 176 386.144 0 282.768-229.232 512-512 512zM848 196.256v331.744c0 17.664-14.336 32-32 32h-128c-17.664 0-32-14.336-32-32v-474.48c-15.584-5.68-31.632-10.368-48-14.208v344.688c0 17.664-14.336 32-32 32h-128c-17.664 0-32-14.336-32-32v-344.688c-16.368 3.824-32.416 8.512-48 14.208v186.48c0 17.664-14.336 32-32 32h-128c-17.664 0-32-14.336-32-32v-43.744c-40.496 53.968-68.128 118.064-78.816 187.744h158.816c162.032 0 298.064 128.224 307.056 288 33.104 0 59.392 0 64.656 0 15.904 0 11.152 7.552 5.296 13.408 0 0-103.808 133.136-116.624 145.936-12.816 12.832-15.328 6.56-21.216 0.704l-105.984-146.976c-5.84-5.872-5.296-13.072 5.296-13.072 4.144 0 38.176 0 79.040 0-8.8-107.296-91.952-192-201.52-192-3.152 0-16-0.128-16 0h-162.496c16.352 216.912 197.408 387.84 418.496 387.84 231.872 0 419.84-187.968 419.84-419.84 0-94.448-31.2-181.616-83.84-251.744zM256 384c-1.28 0 0-0.016 0 0v0z" />
<glyph unicode="&#xe92a;" glyph-name="chart_trip-report" d="M864 720h-144v128c0 35.344-28.656 64-64 64h-288c-35.344 0-64-28.656-64-64v-128h-144c-88.368 0-160-71.648-160-160v-416c0-88.352 71.632-160 160-160h704c88.368 0 160 71.648 160 160v416c0 88.352-71.632 160-160 160zM721.056 488.336l-193.056-100.096v220.32c80-5.104 154.080-52.192 193.056-120.224zM368 803.216c0 24.736 20.048 44.784 44.8 44.784h198.4c24.752 0 44.8-20.048 44.8-44.784v-83.216h-288v83.216zM490.32 95.536c-132.368 0-243.424 107.296-243.424 239.664 0 127.296 105.104 231.392 217.104 239.12v-239.12c0-0.48 7.584-14.944 10.4-18.24l153.952-176.288c-39.376-28.352-85.792-45.136-138.032-45.136zM691.44 159.664l-141.456 164.016 199.648 103.552c11.808-28.336 18.352-59.456 18.352-92.048 0-69.344-29.472-131.744-76.544-175.52z" />
<glyph unicode="&#xe92b;" glyph-name="chart_upstacked-chart" d="M192 176h-160c-17.664 0-32-14.336-32-32v-176c0-17.664 14.336-32 32-32h160c17.664 0 32 14.336 32 32v176c0 17.664-14.336 32-32 32zM592 304h-160c-17.664 0-32-14.336-32-32v-304c0-17.664 14.336-32 32-32h160c17.664 0 32 14.336 32 32v304c0 17.664-14.336 32-32 32zM992 256h-160c-17.664 0-32-14.336-32-32v-256c0-17.664 14.336-32 32-32h160c17.664 0 32 14.336 32 32v256c0 17.664-14.336 32-32 32zM992 528h-160c-17.664 0-32-14.336-32-32v-144c0-17.664 14.336-32 32-32h160c17.664 0 32 14.336 32 32v144c0 17.664-14.336 32-32 32zM992 960h-160c-17.664 0-32-14.336-32-32v-304c0-17.664 14.336-32 32-32h160c17.664 0 32 14.336 32 32v304c0 17.664-14.336 32-32 32zM592 640h-160c-17.664 0-32-14.336-32-32v-208c0-17.664 14.336-32 32-32h160c17.664 0 32 14.336 32 32v208c0 17.664-14.336 32-32 32zM592 880h-160c-17.664 0-32-14.336-32-32v-112c0-17.664 14.336-32 32-32h160c17.664 0 32 14.336 32 32v112c0 17.664-14.336 32-32 32zM192 368h-160c-17.664 0-32-14.336-32-32v-64c0-17.664 14.336-32 32-32h160c17.664 0 32 14.336 32 32v64c0 17.664-14.336 32-32 32zM192 704h-160c-17.664 0-32-14.336-32-32v-224c0-17.664 14.336-32 32-32h160c17.664 0 32 14.336 32 32v224c0 17.664-14.336 32-32 32z" />
<glyph unicode="&#xe92c;" glyph-name="chart_vertical-bar-chart" d="M96 64h128c17.664 0 32 14.336 32 32v512c0 17.664-14.336 32-32 32h-128c-17.664 0-32-14.336-32-32v-512c0-17.664 14.336-32 32-32zM448 64h128c17.664 0 32 14.336 32 32v832c0 17.664-14.336 32-32 32h-128c-17.664 0-32-14.336-32-32v-832c0-17.664 14.336-32 32-32zM800 64h128c17.664 0 32 14.336 32 32v656c0 17.664-14.336 32-32 32h-128c-17.664 0-32-14.336-32-32v-656c0-17.664 14.336-32 32-32zM996 0h-968c-15.472 0-28-12.528-28-28v-8c0-15.472 12.528-28 28-28h968c15.472 0 28 12.528 28 28v8c0 15.472-12.528 28-28 28z" />
<glyph unicode="&#xe92d;" glyph-name="chart_vertical-bar-chart-2" d="M96 64h96c17.664 0 32 14.336 32 32v192c0 17.664-14.336 32-32 32h-96c-17.664 0-32-14.336-32-32v-192c0-17.664 14.336-32 32-32zM320 64h96c17.664 0 32 14.336 32 32v512c0 17.664-14.336 32-32 32h-96c-17.664 0-32-14.336-32-32v-512c0-17.664 14.336-32 32-32zM832 64h96c17.664 0 32 14.336 32 32v832c0 17.664-14.336 32-32 32h-96c-17.664 0-32-14.336-32-32v-832c0-17.664 14.336-32 32-32zM608 64h96c17.664 0 32 14.336 32 32v320c0 17.664-14.336 32-32 32h-96c-17.664 0-32-14.336-32-32v-320c0-17.664 14.336-32 32-32zM996 0h-968c-15.472 0-28-12.528-28-28v-8c0-15.472 12.528-28 28-28h968c15.472 0 28 12.528 28 28v8c0 15.472-12.528 28-28 28z" />
<glyph unicode="&#xe92e;" glyph-name="chart_vertical-bullet-chart" d="M996 0h-968c-15.472 0-28-12.528-28-28v-8c0-15.472 12.528-28 28-28h968c15.472 0 28 12.528 28 28v8c0 15.472-12.528 28-28 28zM91.312 64h128c17.696 0 36.688 18.992 36.688 36.688v267.152l-57.872 9.536-90.576-75.344-15.712 104.096-28.608 23.024c-0.752-2.72 0.768-5.52 0.768-8.464v-320c0-17.696 9.664-36.688 27.312-36.688zM446.192 726.128l-30.192 23.648v-649.088c0-17.696 9.664-36.688 27.312-36.688h128c17.696 0 36.688 18.992 36.688 36.688v587.152l-57.872 9.536-90.576-75.344-13.36 104.096zM798.192 534.128l-30.192 23.648v-457.088c0-17.696 9.664-36.688 27.312-36.688h128c17.696 0 36.688 18.992 36.688 36.688v395.152l-57.872 9.536-90.576-75.344-13.36 104.096zM122.368 334.032l73.408 75.344 103.696-17.776-48.976 93.088 48.976 93.088-103.696-17.776-73.408 75.312-15.12-104.096-94.304-46.528 94.304-46.56zM474.368 654.032l73.408 75.344 103.696-17.776-48.976 93.088 48.976 93.088-103.696-17.776-73.408 75.312-15.12-104.096-94.304-46.528 94.304-46.56zM826.368 462.032l73.408 75.344 103.696-17.776-48.976 93.088 48.976 93.088-103.696-17.776-73.408 75.312-15.12-104.096-94.304-46.528 94.304-46.56z" />
<glyph unicode="&#xe92f;" glyph-name="chart_vertical-waterfall-chart" d="M96 64h96c17.664 0 32 14.336 32 32v832c0 17.664-14.336 32-32 32h-96c-17.664 0-32-14.336-32-32v-832c0-17.664 14.336-32 32-32zM352 640h96c17.664 0 32 14.336 32 32v256c0 17.664-14.336 32-32 32h-96c-17.664 0-32-14.336-32-32v-256c0-17.664 14.336-32 32-32zM832 64h96c17.664 0 32 14.336 32 32v192c0 17.664-14.336 32-32 32h-96c-17.664 0-32-14.336-32-32v-192c0-17.664 14.336-32 32-32zM592 320h96c17.664 0 32 14.336 32 32v256c0 17.664-14.336 32-32 32h-96c-17.664 0-32-14.336-32-32v-256c0-17.664 14.336-32 32-32zM996 0h-968c-15.472 0-28-12.528-28-28v-8c0-15.472 12.528-28 28-28h968c15.472 0 28 12.528 28 28v8c0 15.472-12.528 28-28 28z" />
</font>
</defs>
</svg>
