<?xml version="1.0" standalone="no"?>
<!DOCTYPE svg PUBLIC "-//W3C//DTD SVG 1.1//EN" "http://www.w3.org/Graphics/SVG/1.1/DTD/svg11.dtd" >
<svg xmlns="http://www.w3.org/2000/svg">
<metadata>Generated by IcoMoon</metadata>
<defs>
<font id="iconfont-food" horiz-adv-x="1024">
<font-face units-per-em="1024" ascent="960" descent="-64" />
<missing-glyph horiz-adv-x="1024" />
<glyph unicode="&#x20;" horiz-adv-x="512" d="" />
<glyph unicode="&#xe900;" glyph-name="food_apple" d="M894.4 486.4c-22.4 112-120 195.2-236.8 195.2-28.8 0-54.4-6.4-80-17.6-6.4-1.6-14.4-3.2-20.8-4.8-6.4 30.4-16 59.2-30.4 86.4 56-17.6 201.6-43.2 240 145.6-180.8 75.2-240-64-257.6-118.4-24 33.6-54.4 64-91.2 86.4-6.4 4.8-16 8-24 8-20.8 0-38.4-17.6-38.4-38.4 0-16 9.6-28.8 22.4-35.2 51.2-32 86.4-81.6 99.2-137.6-9.6 1.6-19.2 3.2-27.2 6.4-24 11.2-51.2 17.6-80 17.6-116.8 0-214.4-83.2-236.8-195.2-17.6-72-8-164.8 28.8-257.6 64-161.6 195.2-260.8 300.8-241.6v0c0 0 48 28.8 105.6 1.6 1.6 0 4.8-1.6 4.8-1.6 100.8-19.2 233.6 81.6 297.6 241.6 35.2 92.8 41.6 185.6 24 259.2zM376 531.2c-52.8-14.4-92.8-57.6-100.8-112 0 0 0 0 0 0-3.2-14.4-14.4-24-28.8-24-16 0-30.4 12.8-30.4 30.4 0 1.6 0 3.2 0 3.2s0 0 0 0c11.2 78.4 68.8 140.8 144 161.6 0 0 0 0 0 0 3.2 1.6 6.4 1.6 9.6 1.6 16 0 30.4-12.8 30.4-30.4 1.6-16-9.6-28.8-24-30.4z" />
<glyph unicode="&#xe901;" glyph-name="food_asparagus" d="M244.8 635.2c4.8-4.8 11.2-4.8 14.4 0l52.8 57.6c6.4 8 17.6 8 25.6 0l51.2-57.6c4.8-4.8 11.2-4.8 14.4 0l49.6 56c1.6 1.6 4.8 3.2 6.4 4.8-6.4 51.2-24 96-43.2 134.4-1.6-1.6-1.6-1.6-3.2-3.2l-78.4-72c-3.2-3.2-6.4-4.8-11.2-4.8s-8 1.6-11.2 4.8l-75.2 70.4c-19.2-38.4-36.8-83.2-44.8-131.2 1.6-1.6 3.2-1.6 4.8-4.8l48-54.4zM329.6 811.2l60.8 56c1.6 1.6 1.6 1.6 3.2 1.6-33.6 54.4-67.2 84.8-67.2 84.8s-33.6-35.2-67.2-89.6l57.6-54.4c3.2-1.6 9.6-1.6 12.8 1.6zM542.4 750.4c-4.8 0-8 1.6-11.2 4.8l-43.2 41.6c14.4-36.8 24-76.8 25.6-121.6l17.6 19.2c6.4 8 17.6 8 25.6 0l51.2-57.6c4.8-4.8 11.2-4.8 14.4 0l49.6 56c1.6 1.6 4.8 3.2 6.4 4.8-6.4 51.2-24 96-43.2 134.4-1.6-1.6-1.6-1.6-3.2-3.2l-78.4-72c-3.2-4.8-8-6.4-11.2-6.4zM548.8 811.2l60.8 56c1.6 1.6 1.6 1.6 3.2 1.6-33.6 54.4-67.2 84.8-67.2 84.8s-33.6-33.6-67.2-88l57.6-54.4c3.2-3.2 9.6-3.2 12.8 0zM758.4 750.4c-4.8 0-8 1.6-11.2 4.8l-43.2 41.6c14.4-36.8 24-76.8 25.6-121.6l17.6 19.2c6.4 8 17.6 8 25.6 0l51.2-57.6c4.8-4.8 11.2-4.8 14.4 0l49.6 56c1.6 1.6 4.8 3.2 6.4 4.8-6.4 51.2-24 96-43.2 134.4-1.6-1.6-1.6-1.6-3.2-3.2l-78.4-72c-3.2-4.8-8-6.4-11.2-6.4zM764.8 811.2l60.8 56c1.6 1.6 1.6 1.6 3.2 1.6-33.6 54.4-67.2 84.8-67.2 84.8s-33.6-35.2-67.2-89.6l57.6-52.8c3.2-3.2 9.6-3.2 12.8 0zM848 268.8h-20.8v203.2c38.4 28.8 67.2 83.2 70.4 164.8l-56-60.8c-3.2-3.2-8-6.4-12.8-6.4v0c-4.8 0-9.6 1.6-12.8 6.4l-51.2 57.6c-4.8 4.8-11.2 4.8-14.4 0l-24-27.2c-6.4-51.2-22.4-91.2-46.4-121.6 3.2-3.2 8-8 12.8-11.2v-204.8h-83.2v203.2c38.4 28.8 67.2 83.2 70.4 164.8l-52.8-60.8c-3.2-3.2-8-6.4-12.8-6.4v0c-4.8 0-9.6 1.6-12.8 6.4l-51.2 57.6c-4.8 4.8-11.2 4.8-14.4 0l-24-27.2c-6.4-51.2-22.4-91.2-46.4-121.6 3.2-3.2 8-8 12.8-11.2v-204.8h-86.4v203.2c38.4 28.8 67.2 83.2 70.4 164.8l-54.4-60.8c-3.2-3.2-8-6.4-12.8-6.4v0c-4.8 0-9.6 1.6-12.8 6.4l-51.2 57.6c-4.8 4.8-11.2 4.8-14.4 0l-52.8-57.6c-6.4-8-19.2-8-25.6 0l-49.6 57.6c3.2-76.8 33.6-131.2 70.4-160v-206.4c-1.6 0-3.2 0-4.8-1.6l-67.2 54.4c-16 12.8-38.4 9.6-51.2-6.4s-9.6-38.4 6.4-51.2l41.6-32-43.2-33.6c-16-12.8-19.2-35.2-6.4-51.2s35.2-19.2 51.2-6.4l68.8 52.8c1.6 0 3.2-1.6 4.8-1.6v-206.4c0-25.6 20.8-44.8 44.8-44.8h43.2c25.6 0 44.8 20.8 44.8 44.8v208h86.4v-204.8c0-25.6 20.8-44.8 44.8-44.8h43.2c25.6 0 44.8 20.8 44.8 44.8v204.8h83.2v-204.8c0-25.6 20.8-44.8 44.8-44.8h43.2c25.6 0 44.8 20.8 44.8 44.8v204.8h20.8c20.8 0 38.4 17.6 38.4 38.4v0c0 20.8-17.6 38.4-38.4 38.4z" />
<glyph unicode="&#xe902;" glyph-name="food_aubergine" d="M915.2 820.8v0c-25.6 22.4 6.4 72 6.4 72v0l4.8 9.6c6.4 9.6 3.2 25.6-8 32s-25.6 3.2-33.6-8l-4.8-9.6c-1.6-3.2-32-49.6-62.4-35.2v0c-129.6 72-212.8-43.2-214.4-43.2l-8-11.2 9.6-11.2c0 0 14.4-16 38.4-32 19.2-12.8 49.6-25.6 83.2-25.6-24-57.6-3.2-113.6-1.6-116.8l4.8-12.8 14.4 1.6c3.2 0 62.4 6.4 104 52.8 16-32 40-52.8 59.2-64 24-14.4 43.2-19.2 44.8-20.8l12.8-3.2 6.4 12.8c-1.6 1.6 65.6 126.4-56 212.8zM849.6 614.4c-48-32-158.4-48-158.4-48s-35.2 89.6-28.8 160c-32 1.6-46.4 20.8-64 32-120-140.8-304-236.8-374.4-267.2-110.4-36.8-188.8-140.8-188.8-262.4 0-152 123.2-276.8 276.8-276.8 376 0 545.6 384 611.2 614.4-4.8 3.2-51.2 17.6-73.6 48zM288 361.6c-40-17.6-70.4-46.4-94.4-83.2-12.8-20.8-33.6-11.2-33.6-11.2-19.2 6.4-25.6 32-17.6 46.4 25.6 44.8 68.8 84.8 118.4 100.8 32 9.6 40-19.2 40-19.2 6.4-16 0-28.8-12.8-33.6z" />
<glyph unicode="&#xe903;" glyph-name="food_avocado" d="M900.8 852.8c-8 1.6-16 1.6-24-1.6-17.6-4.8-36.8-14.4-56-24-62.4 204.8-248 100.8-248 100.8s48-182.4 214.4-123.2c-25.6-17.6-48-40-65.6-62.4-75.2 41.6-169.6 25.6-227.2-41.6-3.2-3.2-20.8-20.8-46.4-38.4-19.2-12.8-41.6-20.8-65.6-24-83.2-8-158.4-48-211.2-112-115.2-137.6-94.4-344 46.4-462.4 14.4-11.2 28.8-22.4 43.2-30.4 11.2-11.2 24-20.8 36.8-30.4 150.4-105.6 356.8-72 457.6 73.6 46.4 67.2 65.6 148.8 52.8 232-3.2 19.2-1.6 40 4.8 60.8s27.2 65.6 33.6 76.8c49.6 80 24 190.4-56 246.4l-6.4 4.8c30.4 33.6 76.8 75.2 112 86.4 14.4 1.6 25.6 12.8 28.8 25.6 6.4 19.2-4.8 38.4-24 43.2zM228.8 476.8c41.6 49.6 99.2 78.4 161.6 84.8 35.2 3.2 70.4 16 100.8 36.8 36.8 25.6 60.8 52.8 60.8 52.8 38.4 46.4 107.2 52.8 152 14.4l19.2-16c43.2-36.8 54.4-102.4 20.8-147.2-4.8-6.4-38.4-59.2-49.6-91.2-11.2-28.8-17.6-60.8-14.4-92.8 3.2-60.8-14.4-123.2-56-172.8-88-104-246.4-115.2-355.2-24-112 91.2-128 251.2-40 355.2zM784 694.4c0 0-1.6 0 0 0-1.6 1.6-1.6 1.6-1.6 1.6 1.6 0 1.6-1.6 1.6-1.6zM337.6 208c59.2-49.6 148.8-41.6 198.4 17.6s59.2 168-1.6 217.6c-59.2 49.6-164.8 22.4-214.4-36.8s-41.6-148.8 17.6-198.4zM376 398.4c24 9.6 51.2 16 78.4 11.2 32-4.8 25.6-28.8 25.6-28.8-3.2-14.4-17.6-17.6-30.4-16-19.2 1.6-36.8 0-54.4-8-22.4-9.6-35.2 6.4-35.2 6.4-8 9.6-1.6 27.2 16 35.2z" />
<glyph unicode="&#xe904;" glyph-name="food_bacon" d="M910.4 723.2c-1.6 0-1.6 0-3.2 0-20.8 0-36.8 4.8-52.8 9.6-24 8-51.2 14.4-97.6 8-46.4-8-68.8-22.4-89.6-38.4-20.8-14.4-40-27.2-83.2-35.2s-65.6 0-89.6 6.4c-24 8-51.2 14.4-97.6 8-46.4-8-68.8-22.4-89.6-38.4-20.8-14.4-40-27.2-83.2-35.2-43.2-6.4-65.6 0-89.6 6.4-19.2 6.4-40 11.2-72 9.6l-28.8-3.2c-9.6-1.6-17.6-11.2-16-20.8l67.2-419.2c1.6-9.6 11.2-16 20.8-14.4l27.2 4.8c27.2 1.6 46.4-3.2 65.6-9.6 24-8 51.2-14.4 97.6-8 46.4 8 68.8 22.4 89.6 38.4 20.8 14.4 40 27.2 83.2 35.2 43.2 6.4 65.6 0 89.6-6.4 24-8 51.2-14.4 97.6-8 46.4 8 68.8 22.4 89.6 38.4 20.8 14.4 40 27.2 83.2 35.2 43.2 6.4 65.6 0 89.6-6.4 16-4.8 33.6-9.6 57.6-11.2 1.6 0 1.6 0 3.2 0l28.8 3.2c9.6 1.6 17.6 11.2 16 20.8l-67.2 419.2c-1.6 9.6-11.2 16-20.8 14.4l-25.6-3.2zM712 420.8c-20.8-14.4-40-27.2-83.2-35.2-43.2-6.4-65.6 0-89.6 6.4-24 8-51.2 14.4-97.6 8-46.4-8-68.8-22.4-89.6-38.4-20.8-14.4-40-27.2-83.2-35.2-44.8-8-67.2-1.6-91.2 4.8-14.4 3.2-28.8 8-46.4 9.6-8 0-14.4 6.4-16 14.4l-3.2 16c-1.6 11.2 8 22.4 20.8 20.8 11.2-1.6 22.4-4.8 33.6-8 25.6-8 51.2-16 96-8 46.4 8 68.8 22.4 89.6 38.4 20.8 14.4 40 27.2 83.2 35.2 43.2 6.4 65.6 0 89.6-6.4 24-8 51.2-14.4 97.6-8 46.4 8 68.8 22.4 89.6 38.4 20.8 14.4 40 27.2 83.2 35.2 44.8 8 67.2 1.6 91.2-4.8 11.2-3.2 22.4-6.4 36.8-8 8-1.6 14.4-6.4 16-14.4l1.6-11.2c1.6-12.8-9.6-24-22.4-20.8-6.4 1.6-12.8 3.2-19.2 6.4-25.6 8-51.2 16-96 8-48-12.8-70.4-28.8-91.2-43.2zM683.2 596.8c-20.8-14.4-40-27.2-83.2-35.2-43.2-6.4-65.6 0-89.6 6.4-24 8-51.2 14.4-97.6 8-46.4-8-68.8-22.4-89.6-38.4-20.8-14.4-40-27.2-83.2-35.2-44.8-8-67.2-1.6-92.8 4.8-14.4 3.2-28.8 8-46.4 9.6-8 0-14.4 6.4-16 14.4l-3.2 19.2c-1.6 11.2 8 22.4 20.8 20.8 11.2-1.6 22.4-4.8 33.6-8 25.6-8 51.2-16 96-9.6 46.4 8 68.8 22.4 89.6 38.4 20.8 14.4 40 27.2 83.2 35.2 43.2 6.4 65.6 0 89.6-6.4 24-8 51.2-14.4 97.6-8 46.4 8 68.8 22.4 89.6 38.4 20.8 14.4 40 27.2 83.2 35.2 44.8 8 68.8 1.6 92.8-4.8 11.2-3.2 22.4-6.4 36.8-8 8-1.6 14.4-6.4 14.4-14.4l3.2-19.2c1.6-12.8-9.6-24-22.4-20.8-6.4 1.6-12.8 3.2-19.2 6.4-25.6 8-51.2 16-96 9.6-48-9.6-68.8-24-91.2-38.4zM132.8 241.6c-1.6 11.2 8 22.4 20.8 20.8 11.2-1.6 22.4-4.8 32-8 25.6-8 51.2-16 96-8 46.4 8 68.8 22.4 89.6 38.4 20.8 14.4 40 27.2 83.2 35.2 43.2 6.4 65.6 0 89.6-6.4 24-8 51.2-14.4 97.6-8 46.4 8 68.8 22.4 89.6 38.4 20.8 14.4 40 27.2 83.2 35.2 44.8 8 67.2 1.6 91.2-4.8 11.2-3.2 22.4-6.4 36.8-8 8-1.6 14.4-6.4 16-14.4v0c1.6-12.8-9.6-24-22.4-20.8-6.4 1.6-12.8 3.2-19.2 6.4-25.6 8-51.2 16-96 8-46.4-8-68.8-22.4-89.6-38.4-20.8-14.4-40-27.2-83.2-35.2-43.2-6.4-65.6 0-89.6 6.4-24 8-51.2 14.4-97.6 8-46.4-8-68.8-22.4-89.6-38.4-20.8-14.4-40-27.2-83.2-35.2-44.8-8-67.2-1.6-91.2 6.4-14.4 3.2-28.8 8-48 9.6-8-3.2-14.4 3.2-16 12.8v0z" />
<glyph unicode="&#xe905;" glyph-name="food_baguette" d="M1000 636.8c0 0 0 0 0 0-40 76.8-142.4 116.8-273.6 118.4 38.4-35.2 68.8-78.4 89.6-126.4 9.6-22.4-3.2-46.4-25.6-52.8-19.2-4.8-36.8 6.4-46.4 24-32 59.2-72 118.4-137.6 145.6-56-9.6-123.2-25.6-182.4-48 65.6-38.4 108.8-99.2 128-168 6.4-22.4-3.2-49.6-25.6-56-19.2-4.8-46.4 4.8-54.4 22.4-51.2 108.8-137.6 164.8-139.2 164.8-54.4-27.2-113.6-67.2-155.2-100.8 51.2-30.4 89.6-75.2 108.8-131.2 8-20.8-1.6-44.8-22.4-54.4-17.6-6.4-38.4 0-46.4 17.6-22.4 46.4-59.2 84.8-105.6 107.2-78.4-81.6-115.2-169.6-96-243.2 0 0 0 0 0 0 1.6-4.8 3.2-11.2 4.8-16v0c0 0 0 0 0 0 8-19.2 19.2-38.4 35.2-52.8h1.6c46.4-43.2 123.2-57.6 195.2-30.4l641.6 246.4c72 27.2 118.4 89.6 124.8 153.6h1.6c1.6 22.4-1.6 43.2-9.6 62.4-6.4 6.4-8 12.8-11.2 17.6z" />
<glyph unicode="&#xe906;" glyph-name="food_banana" d="M257.6 308.8c179.2 4.8 406.4 19.2 537.6 315.2 0 0-267.2-246.4-729.6-60.8 0 0-8 3.2-11.2 4.8-24 4.8-49.6-11.2-52.8-35.2-6.4-48 96-204.8 256-224zM952 664v196.8c0 14.4-12.8 27.2-27.2 27.2h-36.8c-14.4 0-27.2-12.8-27.2-27.2v-224c-171.2-460.8-673.6-387.2-769.6-369.6-14.4 1.6-25.6 1.6-28.8 1.6-32-8-41.6-32-41.6-56s24-54.4 28.8-56c382.4-304 763.2-43.2 763.2-43.2 340.8 216 171.2 502.4 139.2 550.4zM785.6 182.4c-115.2-92.8-267.2-116.8-436.8-96-36.8 4.8-36.8 56 6.4 48 152-25.6 291.2 4.8 396.8 88 11.2 9.6 27.2 8 36.8-3.2 9.6-9.6 8-27.2-3.2-36.8zM865.6 240c-9.6-9.6-24-8-33.6 1.6l-3.2 3.2c-8 9.6-8 24 1.6 32 33.6 30.4 62.4 68.8 86.4 112 8 12.8 25.6 16 36.8 4.8 8-8 9.6-19.2 4.8-27.2-25.6-49.6-56-92.8-92.8-126.4z" />
<glyph unicode="&#xe907;" glyph-name="food_beans" d="M64 278.4c-4.8-142.4 129.6-270.4 307.2-288s334.4 80 360 219.2c0 0 0 0 0 0 1.6 4.8 1.6 9.6 1.6 16 1.6 20.8 1.6 41.6-1.6 60.8h-1.6c-12.8 57.6-49.6 100.8-97.6 105.6l-30.4 3.2c-17.6 1.6-35.2 0-52.8-3.2-40-9.6-86.4-14.4-136-8-49.6 4.8-96 17.6-132.8 35.2-16 8-33.6 12.8-51.2 14.4l-30.4 3.2c-48 4.8-94.4-30.4-116.8-83.2h-1.6c-8-19.2-12.8-38.4-14.4-59.2-1.6-4.8-1.6-11.2-1.6-16 0 0 0 0 0 0zM387.2 323.2c49.6-4.8 86.4-25.6 84.8-46.4s-43.2-33.6-92.8-28.8-86.4 25.6-84.8 46.4c3.2 19.2 43.2 33.6 92.8 28.8zM897.6 747.2c-121.6 89.6-281.6 83.2-363.2-12.8 0 0 0 0 0 0-3.2-3.2-6.4-6.4-8-11.2-11.2-14.4-19.2-30.4-25.6-48v0c-17.6-49.6-9.6-97.6 24-123.2l20.8-16c12.8-9.6 25.6-16 41.6-19.2 33.6-9.6 68.8-27.2 104-52.8s60.8-54.4 80-84.8c8-12.8 19.2-24 30.4-33.6l20.8-16c33.6-24 83.2-17.6 124.8 12.8v0c14.4 11.2 27.2 24 38.4 38.4 3.2 3.2 4.8 8 8 11.2 0 0 0 0 0 0 65.6 110.4 25.6 264-96 355.2zM801.6 494.4c-11.2-14.4-46.4-8-78.4 16s-48 54.4-36.8 70.4 46.4 8 78.4-16c30.4-24 48-56 36.8-70.4zM321.6 564.8c81.6 91.2 94.4 214.4 30.4 280 0 0 0 0 0 0-1.6 3.2-4.8 4.8-8 6.4-9.6 9.6-20.8 16-33.6 22.4v0c-35.2 14.4-73.6 11.2-96-14.4l-14.4-16c-8-9.6-14.4-19.2-19.2-30.4-11.2-25.6-27.2-52.8-51.2-78.4-22.4-25.6-48-46.4-72-59.2-11.2-6.4-20.8-14.4-28.8-22.4l-14.4-16c-22.4-24-22.4-62.4-3.2-96v0c6.4-11.2 16-20.8 25.6-30.4 3.2-1.6 4.8-4.8 8-6.4 0 0 0 0 0 0 75.2-56 196.8-30.4 276.8 60.8zM161.6 707.2c20.8 24 46.4 35.2 57.6 27.2 9.6-9.6 1.6-35.2-20.8-59.2-20.8-24-46.4-35.2-57.6-27.2-9.6 9.6 0 36.8 20.8 59.2z" />
<glyph unicode="&#xe908;" glyph-name="food_biscuit" d="M856 555.2c0 44.8-22.4 84.8-59.2 107.2 35.2 22.4 59.2 62.4 59.2 107.2 0 70.4-57.6 126.4-126.4 126.4-46.4 0-86.4-24-108.8-60.8-22.4 36.8-62.4 60.8-108.8 60.8s-86.4-24-108.8-60.8c-22.4 36.8-62.4 60.8-108.8 60.8-70.4 0-126.4-57.6-126.4-126.4 0-44.8 22.4-84.8 59.2-107.2-35.2-22.4-59.2-62.4-59.2-107.2s22.4-84.8 59.2-107.2c-35.2-22.4-59.2-62.4-59.2-107.2s22.4-84.8 59.2-107.2c-35.2-22.4-59.2-62.4-59.2-107.2 0-70.4 57.6-126.4 126.4-126.4 44.8 0 86.4 24 108.8 60.8 22.4-36.8 62.4-60.8 108.8-60.8s86.4 24 108.8 60.8c22.4-36.8 62.4-60.8 108.8-60.8 70.4 0 126.4 57.6 126.4 126.4 0 44.8-22.4 84.8-59.2 107.2 35.2 22.4 59.2 62.4 59.2 107.2s-22.4 84.8-59.2 107.2c36.8 24 59.2 64 59.2 107.2zM403.2 179.2c-22.4 0-41.6 19.2-41.6 41.6s19.2 41.6 41.6 41.6c22.4 0 41.6-19.2 41.6-41.6 0-24-17.6-41.6-41.6-41.6zM403.2 408c-22.4 0-41.6 19.2-41.6 41.6s19.2 41.6 41.6 41.6c22.4 0 41.6-19.2 41.6-41.6s-17.6-41.6-41.6-41.6zM403.2 636.8c-22.4 0-41.6 19.2-41.6 41.6s19.2 41.6 41.6 41.6c22.4 0 41.6-19.2 41.6-41.6s-17.6-41.6-41.6-41.6zM614.4 179.2c-22.4 0-41.6 19.2-41.6 41.6s19.2 41.6 41.6 41.6c22.4 0 41.6-19.2 41.6-41.6 0-24-19.2-41.6-41.6-41.6zM614.4 408c-22.4 0-41.6 19.2-41.6 41.6s19.2 41.6 41.6 41.6c22.4 0 41.6-19.2 41.6-41.6s-19.2-41.6-41.6-41.6zM614.4 636.8c-22.4 0-41.6 19.2-41.6 41.6s19.2 41.6 41.6 41.6c22.4 0 41.6-19.2 41.6-41.6s-19.2-41.6-41.6-41.6z" />
<glyph unicode="&#xe909;" glyph-name="food_blueberries" d="M382.4 643.2c81.6-27.2 145.6-84.8 182.4-158.4 72 51.2 163.2 70.4 254.4 46.4 6.4-1.6 12.8-3.2 19.2-6.4 22.4 49.6 27.2 108.8 9.6 164.8-24 78.4-84.8 136-156.8 158.4v0c-22.4 8-28.8 30.4-30.4 38.4 0 1.6 0 1.6 0 3.2 0 0 0 0 0 0v0c-1.6 6.4-4.8 11.2-11.2 14.4 0 0-17.6 9.6-30.4-6.4l-16-24c-1.6-1.6-6.4-4.8-6.4-4.8-9.6 1.6-16 11.2-16 11.2v0l-9.6 14.4c-12.8 19.2-52.8 30.4-62.4-19.2v-17.6c0 0 0-9.6-6.4-12.8 0 0-8-1.6-9.6-1.6l-27.2 11.2c-19.2 4.8-28.8-11.2-28.8-11.2-3.2-4.8-3.2-11.2-1.6-16v0c0 0 0 0 0 0s0-1.6 0-1.6v0c0 0 0 0 0 0s0-1.6 0-1.6c3.2-9.6 8-35.2-3.2-51.2v0c-27.2-36.8-44.8-81.6-49.6-129.6zM467.2 713.6c20.8 25.6 49.6 46.4 81.6 57.6 38.4 12.8 46.4-17.6 46.4-17.6 4.8-17.6-9.6-30.4-25.6-36.8-22.4-8-41.6-22.4-57.6-41.6-20.8-24-43.2-12.8-43.2-12.8-14.4 8-17.6 32-1.6 51.2zM352 604.8c-140.8 36.8-283.2-48-320-188.8s48-283.2 188.8-320c140.8-36.8 283.2 48 320 188.8s-48 284.8-188.8 320zM315.2 331.2l-6.4-3.2c-11.2-6.4-19.2-17.6-19.2-30.4v-6.4c-3.2-32-41.6-48-65.6-27.2l-4.8 4.8c-9.6 8-22.4 12.8-35.2 9.6l-8-3.2c-32-8-59.2 24-44.8 54.4l3.2 6.4c4.8 11.2 4.8 25.6-3.2 36.8l-3.2 4.8c-17.6 27.2 4.8 64 38.4 60.8h6.4c12.8-1.6 25.6 3.2 33.6 14.4l4.8 4.8c20.8 25.6 62.4 14.4 68.8-17.6l1.6-6.4c3.2-12.8 11.2-24 24-28.8l6.4-3.2c28.8-12.8 32-54.4 3.2-70.4zM283.2 358.4c0-33.579-27.221-60.8-60.8-60.8s-60.8 27.221-60.8 60.8c0 33.579 27.221 60.8 60.8 60.8s60.8-27.221 60.8-60.8zM803.2 489.6c-80 20.8-160 1.6-220.8-43.2 19.2-54.4 22.4-113.6 8-174.4-16-59.2-48-110.4-91.2-148.8 32-68.8 92.8-123.2 172.8-144 140.8-36.8 283.2 48 320 188.8 36.8 142.4-48 284.8-188.8 321.6zM880 134.4l-6.4-3.2c-11.2-6.4-19.2-17.6-19.2-30.4v-6.4c-3.2-32-41.6-48-65.6-27.2l-4.8 4.8c-9.6 8-22.4 12.8-35.2 9.6l-6.4-1.6c-32-8-59.2 24-44.8 54.4l3.2 6.4c4.8 11.2 4.8 25.6-3.2 36.8l-3.2 4.8c-17.6 27.2 4.8 64 38.4 60.8h6.4c12.8-1.6 25.6 3.2 33.6 14.4l4.8 4.8c20.8 25.6 62.4 14.4 68.8-17.6l1.6-6.4c3.2-12.8 11.2-24 24-28.8l6.4-3.2c27.2-12.8 30.4-56 1.6-72zM848 163.2c0-33.579-27.221-60.8-60.8-60.8s-60.8 27.221-60.8 60.8c0 33.579 27.221 60.8 60.8 60.8s60.8-27.221 60.8-60.8z" />
<glyph unicode="&#xe90a;" glyph-name="food_boiled-egg" d="M348.8 584v0c14.4-1.6 27.2 8 27.2 22.4 1.6 84.8 54.4 166.4 140.8 208 11.2 4.8 16 19.2 12.8 30.4v0c-4.8 14.4-20.8 19.2-33.6 12.8-100.8-49.6-163.2-147.2-166.4-249.6 0-11.2 8-22.4 19.2-24zM827.2 432c4.8 20.8-3.2 41.6-17.6 52.8 9.6 67.2 1.6 120 0 124.8-20.8 137.6-72 235.2-152 294.4-64 46.4-126.4 49.6-144 49.6-1.6 0-1.6 0-3.2 0-11.2 0-70.4-3.2-136-46.4-60.8-40-136-124.8-161.6-299.2-1.6-6.4-8-57.6 0-121.6-14.4-12.8-22.4-32-17.6-52.8 27.2-108.8 96-222.4 257.6-252.8v-11.2c0 0 0-54.4-56-67.2v0c-56-17.6-100.8-59.2-121.6-113.6-8-22.4 8-46.4 32-46.4h404.8c24 0 40 24 32 46.4-20.8 54.4-65.6 96-121.6 113.6v0c-54.4 12.8-56 67.2-56 67.2v0 8c91.2 12.8 217.6 64 260.8 254.4zM270.4 600c40 297.6 241.6 297.6 241.6 297.6s0 0 1.6 0c17.6 0 198.4-6.4 241.6-297.6 0 0 6.4-44.8 0-102.4-188.8 0-345.6 3.2-484.8 3.2-8 56 0 99.2 0 99.2zM361.6 312c-4.8-4.8-11.2-9.6-19.2-9.6-6.4 0-11.2 1.6-16 6.4-30.4 25.6-51.2 59.2-59.2 99.2-1.6 6.4 0 14.4 4.8 19.2 3.2 4.8 9.6 9.6 16 9.6 1.6 0 3.2 0 4.8 0 0 0 0 0 0 0h345.6c11.2 0 22.4-9.6 22.4-22.4 0-11.2-9.6-22.4-22.4-22.4h-318.4c8-20.8 20.8-38.4 38.4-52.8 9.6-3.2 9.6-17.6 3.2-27.2z" />
<glyph unicode="&#xe90b;" glyph-name="food_bread" d="M1020.8 600c0 0 0 0 0 0-11.2 131.2-164.8 235.2-353.6 235.2-11.2 0-188.8 0-204.8 0-27.2 0-64 1.6-97.6 0 0 0 0 0 0 0-3.2 0-6.4 0-9.6 0-188.8 0-342.4-104-353.6-235.2 0 0 0 0 0 0 0-46.4 9.6-70.4 9.6-70.4 8-22.4 22.4-43.2 38.4-57.6 30.4-27.2 48-68.8 48-110.4v-220.8c0-46.4 36.8-83.2 81.6-83.2h664c44.8 0 81.6 36.8 81.6 83.2v208c4.8 46.4 17.6 48 48 91.2 9.6 16 60.8 86.4 48 160zM649.6 561.6c-3.2-14.4-22.4-44.8-25.6-48-41.6-38.4-65.6-92.8-65.6-150.4v-220.8c0-16-12.8-28.8-27.2-28.8h-352c-14.4 0-27.2 12.8-27.2 28.8v220.8c0 57.6-24 113.6-65.6 150.4-9.6 9.6-19.2 20.8-24 35.2v0c-1.6 3.2-4.8 19.2-4.8 48 9.6 100.8 142.4 182.4 299.2 182.4 155.2 0 289.6-81.6 299.2-184-1.6-6.4-3.2-19.2-6.4-33.6zM366.4 648l4.8 6.4c4.8 6.4 1.6 16-4.8 20.8l-48 28.8c-6.4 4.8-16 1.6-20.8-4.8l-4.8-6.4c-4.8-6.4-1.6-16 4.8-20.8l46.4-27.2c8-4.8 17.6-3.2 22.4 3.2zM512 403.2c-4.8 6.4-12.8 9.6-20.8 4.8l-46.4-27.2c-6.4-4.8-9.6-12.8-4.8-20.8l3.2-6.4c4.8-6.4 12.8-9.6 20.8-4.8l46.4 27.2c6.4 4.8 9.6 12.8 4.8 20.8l-3.2 6.4zM219.2 606.4l-4.8 6.4c-4.8 6.4-14.4 8-20.8 3.2l-44.8-30.4c-6.4-4.8-8-14.4-3.2-20.8l4.8-4.8c4.8-6.4 14.4-8 20.8-3.2l44.8 30.4c6.4 3.2 8 12.8 3.2 19.2zM284.8 280l-6.4 3.2c-6.4 4.8-16 1.6-20.8-4.8l-27.2-46.4c-4.8-6.4-1.6-16 4.8-20.8l6.4-3.2c6.4-4.8 16-1.6 20.8 4.8l27.2 46.4c4.8 6.4 3.2 16-4.8 20.8zM281.6 406.4l-1.6 8c-1.6 8-9.6 12.8-17.6 11.2l-51.2-9.6c-8-1.6-12.8-9.6-11.2-17.6l1.6-8c1.6-8 9.6-12.8 17.6-11.2l52.8 9.6c6.4 3.2 11.2 9.6 9.6 17.6zM564.8 625.6l-54.4-1.6c-8 0-14.4-8-14.4-16v-8c0-8 8-14.4 16-14.4l52.8 1.6c8 0 14.4 8 14.4 16v8c0 8-6.4 14.4-14.4 14.4zM444.8 492.8l1.6 8c1.6 8-3.2 16-11.2 17.6l-52.8 9.6c-8 1.6-16-3.2-17.6-11.2l-1.6-8c-1.6-8 3.2-16 11.2-17.6l52.8-11.2c8-1.6 16 4.8 17.6 12.8zM465.6 257.6l-52.8 11.2c-8 1.6-16-3.2-17.6-11.2l-1.6-8c-1.6-8 3.2-16 11.2-17.6l52.8-11.2c8-1.6 16 3.2 17.6 11.2l1.6 8c3.2 9.6-3.2 16-11.2 17.6z" />
<glyph unicode="&#xe90c;" glyph-name="food_broccoli" d="M950.4 585.6c0 0 0 0 0 0 0 1.6 0 1.6 0 0-20.8 27.2-51.2 43.2-81.6 48-22.4 3.2-40 24-41.6 46.4-1.6 25.6-11.2 49.6-27.2 72 0 0 0 0 0 0s0 0 0 0c-32 41.6-84.8 56-132.8 43.2-22.4-6.4-46.4 4.8-57.6 27.2-6.4 11.2-12.8 22.4-20.8 33.6 0 0 0 0 0 0s0 0 0 0c-62.4 78.4-177.6 91.2-257.6 28.8-40-32-64-78.4-67.2-128-1.6-24-22.4-43.2-46.4-44.8-36.8-1.6-73.6-14.4-104-40-80-62.4-92.8-176-28.8-256 0 0 0 0 0 0s0 0 0 0c48-60.8 126.4-81.6 196.8-60.8 1.6-1.6 1.6-3.2 3.2-3.2 65.6-67.2 142.4-179.2 140.8-336 0-25.6 19.2-44.8 44.8-44.8h108.8c25.6 0 44.8 20.8 44.8 44.8-4.8 158.4 104 291.2 172.8 360 1.6 1.6 3.2 3.2 4.8 6.4 3.2 0 8-1.6 11.2-1.6 40-12.8 84.8-4.8 120 22.4 54.4 44.8 62.4 126.4 17.6 182.4zM198.4 576c-17.6-12.8-33.6-28.8-43.2-48-12.8-25.6-36.8-19.2-36.8-19.2-14.4 3.2-22.4 24-11.2 43.2 14.4 27.2 35.2 52.8 60.8 68.8 32 19.2 44.8-6.4 44.8-6.4 8-14.4-1.6-30.4-14.4-38.4zM467.2 611.2c40 25.6 56-8 56-8 9.6-17.6-3.2-36.8-19.2-48-22.4-16-41.6-36.8-54.4-60.8-16-32-44.8-24-44.8-24-17.6 3.2-27.2 30.4-14.4 54.4 19.2 36.8 44.8 67.2 76.8 86.4zM334.4 795.2c12.8 27.2 33.6 51.2 60.8 68.8 32 19.2 44.8-6.4 44.8-6.4 8-14.4-3.2-30.4-14.4-38.4-17.6-12.8-33.6-28.8-43.2-48-12.8-25.6-36.8-19.2-36.8-19.2-14.4 1.6-22.4 22.4-11.2 43.2zM513.6 129.6l-32 92.8c30.4-9.6 60.8-12.8 92.8-9.6l-32-83.2c-6.4-12.8-24-12.8-28.8 0z" />
<glyph unicode="&#xe90d;" glyph-name="food_cabbage" d="M209.6 785.6c54.4-11.2 99.2-49.6 116.8-100.8 1.6-4.8 6.4-8 11.2-9.6 83.2-11.2 147.2-83.2 147.2-168 0-4.8 0-11.2 0-16 0-8 4.8-14.4 11.2-16 0 0 0 0 0 0 1.6 0 4.8 0 6.4 0 0 0 0 0 0 0 6.4 1.6 12.8 8 11.2 16 0 4.8 0 11.2 0 16 0 86.4 70.4 150.4 153.6 161.6 4.8 0 9.6 4.8 11.2 9.6 3.2 8 6.4 17.6 11.2 25.6 3.2 6.4 1.6 14.4-4.8 19.2-35.2 24-83.2 46.4-129.6 46.4-11.2 0-22.4-1.6-33.6-3.2-6.4-1.6-12.8 3.2-16 9.6-25.6 64-88 110.4-161.6 110.4-59.2 0-112-30.4-144-76.8-4.8-11.2 0-22.4 9.6-24zM931.2 697.6c-24 25.6-57.6 41.6-96 41.6-62.4 0-115.2-44.8-128-105.6-1.6-6.4-8-12.8-14.4-12.8 0 0 0 0 0 0-78.4 0-142.4-64-142.4-142.4 0-22.4 4.8-43.2 14.4-62.4 8-12.8 24-28.8 11.2-40 0 0-9.6-8-27.2 4.8-14.4 11.2-32 16-51.2 14.4-36.8-3.2-65.6-32-70.4-68.8-1.6-20.8 3.2-41.6 16-56 4.8-6.4 6.4-16 0-24-8-9.6-22.4-11.2-30.4-1.6-17.6 22.4-27.2 51.2-24 81.6 3.2 33.6 44.8 81.6 43.2 81.6 11.2 20.8 17.6 44.8 17.6 68.8 0 78.4-64 142.4-142.4 142.4 0 0 0 0 0 0-8 0-14.4 4.8-14.4 12.8-11.2 59.2-64 105.6-128 105.6-38.4 0-72-16-96-41.6 0 0 83.2-40 17.6-244.8-4.8-24-6.4-51.2-6.4-78.4 0-220.8 161.6-372.8 384-372.8 12.8 0 59.2 0 72 0 222.4 0 384 152 384 374.4 0 27.2-3.2 52.8-8 78.4-65.6 203.2 19.2 244.8 19.2 244.8zM550.4 808c1.6-3.2 4.8-6.4 8-6.4 20.8 1.6 86.4 1.6 158.4-56 3.2-1.6 6.4-3.2 9.6 0 8 4.8 24 16 46.4 22.4 6.4 1.6 8 9.6 3.2 12.8-68.8 62.4-158.4 92.8-257.6 88-6.4 0-9.6-9.6-4.8-14.4 14.4-12.8 32-30.4 36.8-46.4z" />
<glyph unicode="&#xe90e;" glyph-name="food_cake" d="M152 291.2c65.6 0 120 54.4 120 120 0-65.6 54.4-120 120-120s120 54.4 120 120c0-65.6 54.4-120 120-120s120 54.4 120 120c0-65.6 54.4-120 120-120s120 54.4 120 120-54.4 120-120 120h-283.2c0 0 0 1.6 0 1.6v129.6c0 19.2-16 33.6-33.6 33.6h-80c-19.2 0-33.6-16-33.6-33.6v-129.6c0 0 0-1.6 0-1.6h-288c-65.6 0-120-54.4-120-120s52.8-120 118.4-120zM513.6 716.8c46.4 0 83.2 41.6 83.2 86.4 1.6 48-46.4 116.8-70.4 148.8-4.8 6.4-14.4 4.8-17.6-3.2-4.8-12.8-14.4-32-33.6-56v0c-3.2-3.2-6.4-6.4-9.6-11.2-9.6-12.8-25.6-35.2-32-51.2-3.2-9.6-4.8-19.2-3.2-28.8 0-43.2 35.2-84.8 83.2-84.8zM945.6 36.8v200c-19.2-6.4-38.4-11.2-59.2-11.2-46.4 0-99.2 19.2-129.6 49.6-30.4-30.4-73.6-49.6-120-49.6s-89.6 19.2-120 49.6c-30.4-30.4-73.6-49.6-120-49.6s-89.6 19.2-120 49.6c-30.4-30.4-83.2-49.6-129.6-49.6-20.8 0-40 3.2-59.2 11.2v-200c-22.4-19.2-41.6-48-41.6-75.2 0-8 1.6-16 3.2-22.4h934.4c1.6 8 3.2 14.4 3.2 22.4-1.6 27.2-19.2 56-41.6 75.2z" />
<glyph unicode="&#xe90f;" glyph-name="food_can" d="M785.6 624l-68.8 68.8c-1.6 1.6-3.2 1.6-4.8 3.2 17.6 3.2 32 19.2 32 38.4 0 20.8-17.6 38.4-38.4 38.4h-19.2l16 68.8c12.8 51.2-19.2 102.4-70.4 113.6-51.2 12.8-102.4-19.2-113.6-70.4l-17.6-72c-4.8-12.8-4.8-27.2-1.6-40h-179.2c-20.8 0-38.4-17.6-38.4-38.4 0-19.2 12.8-35.2 32-38.4-1.6-1.6-3.2-1.6-4.8-3.2l-70.4-68.8c-11.2-11.2-16-25.6-16-40v-520c0-14.4 6.4-28.8 16-40l68.8-68.8c11.2-11.2 25.6-16 40-16h328c14.4 0 28.8 6.4 40 16l68.8 68.8c11.2 11.2 16 25.6 16 40v520c1.6 14.4-4.8 28.8-14.4 40zM569.6 875.2c4.8 20.8 27.2 35.2 48 30.4s35.2-27.2 30.4-48l-1.6-9.6-78.4 19.2 1.6 8zM552 800l1.6 8 78.4-19.2-1.6-8c0-3.2-1.6-4.8-3.2-8h-72c-3.2 8-4.8 17.6-3.2 27.2zM320 552c0 0 0 1.6 0 1.6 0 1.6 0 3.2 0 4.8 0 0 0 0 0 1.6 1.6 6.4 4.8 12.8 9.6 17.6l54.4 56c14.4 14.4 36.8 14.4 51.2 0s14.4-36.8 0-51.2l-43.2-44.8v-64c0-19.2-16-35.2-35.2-35.2s-35.2 16-35.2 35.2v78.4zM750.4 324.8l-475.2-144v144l475.2 144v-144z" />
<glyph unicode="&#xe910;" glyph-name="food_candy" d="M612.8 947.2c-225.6 0-411.2-184-411.2-411.2 0-84.8 25.6-163.2 70.4-228.8-1.6-1.6-3.2-3.2-4.8-4.8l-246.4-246.4c-24-24-24-64 0-88v0c24-24 64-24 88 0l248 248c0 0 1.6 1.6 1.6 1.6 70.4-56 158.4-89.6 256-89.6 225.6-1.6 409.6 182.4 409.6 409.6s-184 409.6-411.2 409.6zM824 232c-44.8-19.2-92.8-28.8-140.8-28.8-83.2 0-166.4 28.8-233.6 86.4-123.2 105.6-136 289.6-32 412.8 94.4 108.8 265.6 113.6 363.2 0 8-9.6 19.2-25.6 24-36.8 35.2-75.2 22.4-163.2-27.2-222.4-65.6-76.8-187.2-76.8-252.8 6.4-3.2 4.8-6.4 8-8 12.8-27.2 54.4-20.8 120 16 161.6 41.6 48 113.6 54.4 161.6 12.8 41.6-35.2 44.8-96 11.2-137.6-14.4-17.6-43.2-30.4-76.8-25.6-14.4 1.6-30.4 24-19.2 43.2 0 0 8 12.8 25.6 9.6 4.8-1.6 9.6 0 14.4 0 4.8 1.6 8 4.8 11.2 8 14.4 17.6 12.8 43.2-4.8 59.2-24 20.8-60.8 17.6-83.2-6.4-22.4-25.6-32-67.2-12.8-99.2 20.8-33.6 57.6-49.6 94.4-44.8 28.8 3.2 57.6 20.8 76.8 43.2 36.8 41.6 44.8 102.4 19.2 156.8-3.2 8-12.8 20.8-17.6 27.2-75.2 81.6-204.8 78.4-275.2-4.8-84.8-99.2-73.6-248 25.6-332.8 60.8-52.8 139.2-78.4 220.8-72 80 6.4 153.6 43.2 206.4 104 28.8 33.6 51.2 70.4 65.6 110.4-14.4-100.8-72-187.2-152-243.2z" />
<glyph unicode="&#xe911;" glyph-name="food_can-food" d="M846.4 32v728c20.8 1.6 38.4 19.2 38.4 40v9.6c0 22.4-17.6 40-40 40h-438.4c-1.6 1.6-3.2 3.2-4.8 3.2l-136 94.4c-19.2 12.8-46.4 8-60.8-11.2-12.8-19.2-8-46.4 11.2-60.8l36.8-25.6h-84.8c-20.8 0-40-17.6-40-40v-9.6c0-19.2 12.8-33.6 30.4-38.4v-729.6c-16-4.8-28.8-20.8-28.8-38.4v-11.2c0-17.6 12.8-33.6 28.8-38.4v-3.2h688v1.6c22.4 0 40 17.6 40 40v11.2c0 20.8-17.6 38.4-40 38.4zM232 358.4v315.2c0 17.6 16 33.6 35.2 28.8 16-3.2 24-19.2 24-36.8v-307.2h83.2c0 72 59.2 131.2 131.2 131.2s131.2-59.2 131.2-131.2h139.2v-326.4h-544v326.4zM595.2 358.4c0-50.368-40.832-91.2-91.2-91.2s-91.2 40.832-91.2 91.2c0 50.368 40.832 91.2 91.2 91.2s91.2-40.832 91.2-91.2zM296 92.8c4.8 0 8 1.6 11.2 4.8s4.8 6.4 4.8 11.2v30.4h30.4c4.8 0 8 1.6 11.2 4.8s4.8 6.4 4.8 11.2c0 4.8-1.6 8-4.8 11.2s-6.4 4.8-11.2 4.8h-30.4v14.4h44.8c4.8 0 8 1.6 11.2 4.8s4.8 6.4 4.8 11.2c0 4.8-1.6 8-4.8 11.2s-6.4 4.8-11.2 4.8h-60.8c-4.8 0-8-1.6-11.2-4.8s-4.8-6.4-4.8-11.2v-89.6c0-4.8 1.6-8 4.8-11.2 3.2-6.4 6.4-8 11.2-8zM436.8 96c16 0 28.8 4.8 40 16s16 24 16 40c0 16-4.8 28.8-16 40s-24 16-40 16c-16 0-28.8-4.8-40-16s-16-24-16-40c0-16 4.8-28.8 16-40 11.2-9.6 24-16 40-16zM417.6 174.4c4.8 4.8 12.8 8 19.2 8 8 0 14.4-3.2 19.2-8s8-12.8 8-20.8c0-8-3.2-14.4-8-20.8-4.8-4.8-12.8-8-19.2-8-8 0-14.4 3.2-19.2 8s-8 12.8-8 20.8c-1.6 8 1.6 14.4 8 20.8zM523.2 193.6c-11.2-11.2-16-24-16-40s4.8-28.8 16-40c11.2-11.2 24-16 40-16s28.8 4.8 40 16c11.2 11.2 16 24 16 40s-4.8 28.8-16 40c-11.2 11.2-24 16-40 16-16 1.6-28.8-4.8-40-16zM590.4 153.6c0-8-3.2-14.4-8-20.8-4.8-4.8-12.8-8-19.2-8-8 0-14.4 3.2-19.2 8s-8 12.8-8 20.8c0 8 3.2 14.4 8 20.8 4.8 4.8 12.8 8 19.2 8 8 0 14.4-3.2 19.2-8 6.4-6.4 8-12.8 8-20.8zM649.6 92.8h25.6c16 0 30.4 6.4 43.2 17.6 11.2 11.2 17.6 25.6 17.6 43.2 0 16-6.4 30.4-17.6 43.2-11.2 11.2-25.6 17.6-43.2 17.6h-25.6c-4.8 0-8-1.6-11.2-4.8s-4.8-6.4-4.8-11.2v-89.6c0-4.8 1.6-8 4.8-11.2s6.4-4.8 11.2-4.8zM664 184h14.4c16 0 30.4-12.8 30.4-30.4 0-16-12.8-30.4-30.4-30.4 0 0 0 0 0 0h-14.4v60.8z" />
<glyph unicode="&#xe912;" glyph-name="food_carrot" d="M604.8 688c41.6-35.2 99.2-86.4 142.4-139.2h209.6c32 0 56 25.6 56 57.6 0 28.8-20.8 51.2-48 56v0l-116.8 20.8 43.2 76.8c11.2 20.8 11.2 49.6-6.4 67.2s-48 20.8-64 9.6v0l-80-43.2-22.4 118.4c-4.8 27.2-28.8 46.4-56 46.4v0c-32 0-57.6-25.6-57.6-56v-214.4zM744 275.2c40 52.8 43.2 123.2 11.2 179.2v1.6c-24 44.8-67.2 92.8-108.8 131.2-40 41.6-86.4 83.2-131.2 107.2v-1.6c-56 32-124.8 30.4-177.6-9.6-3.2-3.2-17.6-16-25.6-30.4l144-144c12.8-12.8 12.8-33.6 0-46.4s-33.6-12.8-46.4 0l-132.8 132.8-70.4-115.2 110.4-110.4c12.8-12.8 12.8-33.6 0-46.4s-33.6-12.8-46.4 0l-99.2 99.2-80-128 75.2-75.2c12.8-12.8 12.8-33.6 0-46.4s-33.6-12.8-46.4 0l-64 64-14.4-22.4c-60.8-83.2-52.8-177.6 1.6-230.4v0l3.2-3.2c52.8-52.8 145.6-62.4 228.8-3.2l435.2 268.8c19.2 12.8 30.4 24 33.6 28.8z" />
<glyph unicode="&#xe913;" glyph-name="food_cereals" d="M270.4 640c0-46.4 36.8-83.2 83.2-83.2s83.2 36.8 83.2 83.2-36.8 83.2-83.2 83.2-83.2-38.4-83.2-83.2zM379.2 640c0-14.4-11.2-25.6-25.6-25.6s-25.6 11.2-25.6 25.6c0 14.4 11.2 25.6 25.6 25.6s25.6-11.2 25.6-25.6zM270.4 750.4c46.4 0 83.2 36.8 83.2 83.2s-36.8 83.2-83.2 83.2-83.2-36.8-83.2-83.2 38.4-83.2 83.2-83.2zM270.4 859.2c14.4 0 25.6-11.2 25.6-25.6s-11.2-25.6-25.6-25.6c-14.4 0-25.6 11.2-25.6 25.6s11.2 25.6 25.6 25.6zM614.4 619.2c46.4 0 83.2 36.8 83.2 83.2s-36.8 83.2-83.2 83.2c-46.4 0-83.2-36.8-83.2-83.2s38.4-83.2 83.2-83.2zM614.4 728c14.4 0 25.6-11.2 25.6-25.6s-11.2-25.6-25.6-25.6-25.6 11.2-25.6 25.6c0 14.4 12.8 25.6 25.6 25.6zM971.2 459.2h-163.2l193.6 273.6c9.6 14.4 6.4 35.2-8 44.8s-35.2 6.4-44.8-8l-220.8-310.4h-115.2c1.6 4.8 1.6 11.2 1.6 16 0 46.4-36.8 83.2-83.2 83.2s-83.2-36.8-83.2-83.2c0-6.4 0-11.2 1.6-16h-224c0 1.6 0 4.8 0 6.4 0 46.4-36.8 83.2-83.2 83.2s-83.2-36.8-83.2-81.6c0-1.6 0-4.8 0-6.4h-12.8c-20.8 0-36.8-22.4-36.8-46.4s16-46.4 36.8-46.4h11.2c6.4-49.6 33.6-177.6 163.2-291.2h-1.6v-24c0-17.6 14.4-38.4 30.4-38.4h510.4c16 0 33.6 20.8 33.6 38.4v20.8c123.2 123.2 152 244.8 158.4 294.4h19.2c20.8 0 36.8 22.4 36.8 46.4 0 22.4-17.6 44.8-36.8 44.8zM116.8 467.2c0 14.4 11.2 25.6 25.6 25.6s25.6-11.2 25.6-25.6c0-3.2 0-4.8-1.6-6.4h-49.6c0 1.6 0 3.2 0 6.4zM238.4 206.4c-3.2-12.8-17.6-20.8-30.4-16-3.2 1.6-6.4 1.6-8 4.8 0 0 0 0 0 0s0 0 0 0c-1.6 1.6-3.2 3.2-3.2 4.8-36.8 36.8-60.8 84.8-68.8 137.6-1.6 4.8-1.6 9.6 0 12.8 3.2 12.8 17.6 20.8 30.4 16 9.6-3.2 17.6-12.8 17.6-22.4 6.4-41.6 25.6-81.6 56-113.6 1.6-1.6 3.2-1.6 3.2-3.2v0 0c3.2-4.8 4.8-12.8 3.2-20.8zM505.6 476.8c0 14.4 11.2 25.6 25.6 25.6s25.6-11.2 25.6-25.6c0-6.4-1.6-12.8-6.4-16h-38.4c-3.2 3.2-6.4 9.6-6.4 16zM408 129.6v0c-16 0-32 4.8-44.8 17.6s-17.6 28.8-17.6 44.8v0 57.6h57.6c16 0 32-4.8 44.8-17.6s17.6-28.8 17.6-44.8v-57.6h-57.6zM569.6 230.4l-40-41.6-40 41.6c-11.2 11.2-19.2 27.2-19.2 44.8s8 33.6 19.2 44.8v0l40 41.6 40-41.6c11.2-11.2 19.2-27.2 19.2-44.8s-6.4-33.6-19.2-44.8zM710.4 192v0c0-16-4.8-32-17.6-44.8s-28.8-17.6-44.8-17.6v0h-57.6v57.6c0 16 4.8 32 17.6 44.8s28.8 17.6 44.8 17.6v0h57.6v-57.6z" />
<glyph unicode="&#xe914;" glyph-name="food_cheese" d="M296 369.6c0-32.695-26.505-59.2-59.2-59.2s-59.2 26.505-59.2 59.2c0 32.695 26.505 59.2 59.2 59.2s59.2-26.505 59.2-59.2zM518.4 243.2c0-53.903-43.697-97.6-97.6-97.6s-97.6 43.697-97.6 97.6c0 53.903 43.697 97.6 97.6 97.6s97.6-43.697 97.6-97.6zM846.4 390.4c0-21.208-17.192-38.4-38.4-38.4s-38.4 17.192-38.4 38.4c0 21.208 17.192 38.4 38.4 38.4s38.4-17.192 38.4-38.4zM953.6 524.8c1.6 73.6-22.4 259.2-291.2 340.8-33.6 9.6-68.8 16-97.6-4.8l-56-38.4c3.2-8 4.8-17.6 4.8-27.2 0-38.4-30.4-68.8-68.8-68.8-19.2 0-36.8 8-49.6 20.8l-288-193.6c-17.6-12.8-30.4-30.4-36.8-51.2-4.8-8-6.4-19.2-6.4-32v-369.6c0-44.8 35.2-80 80-80h408l4.8 16c12.8 38.4 48 64 88 64s75.2-25.6 88-64l4.8-16h139.2c44.8 0 80 35.2 80 80v414.4c-1.6 3.2-3.2 6.4-3.2 9.6zM875.2 70.4h-104c-22.4 48-72 80-126.4 80s-104-32-126.4-80h-376c-17.6 0-32 14.4-32 32v368c0 9.6 4.8 19.2 11.2 24h428.8c8-44.8 44.8-78.4 91.2-78.4s84.8 33.6 91.2 78.4h171.2v-209.6c-3.2 0-6.4 1.6-9.6 1.6-30.4 0-54.4-24-54.4-54.4s24-54.4 54.4-54.4c3.2 0 6.4 0 9.6 1.6v-75.2c1.6-19.2-11.2-33.6-28.8-33.6z" />
<glyph unicode="&#xe915;" glyph-name="food_chef" d="M803.2 750.4c-30.4 0-59.2-8-84.8-20.8-22.4 94.4-108.8 163.2-209.6 158.4-94.4-4.8-171.2-72-190.4-161.6-25.6 12.8-52.8 20.8-83.2 20.8-100.8 0-182.4-81.6-182.4-182.4 0-86.4 60.8-158.4 140.8-177.6l32-174.4h113.6l-12.8 129.6c-1.6 16 11.2 32 27.2 33.6s32-11.2 33.6-27.2l12.8-136h88v211.2c0 17.6 14.4 30.4 30.4 30.4 17.6 0 30.4-14.4 30.4-30.4v-212.8h88l14.4 136c1.6 16 17.6 28.8 33.6 27.2s28.8-17.6 27.2-33.6l-14.4-129.6h113.6l33.6 177.6c80 19.2 140.8 91.2 140.8 177.6 0 102.4-81.6 184-182.4 184zM235.2 156.8l12.8-70.4c0-43.2 35.2-80 80-80h380.8c43.2 0 80 35.2 80 80l12.8 70.4h-566.4z" />
<glyph unicode="&#xe916;" glyph-name="food_cherries" d="M1000 345.6v0c-24 64-81.6 108.8-148.8 108.8-6.4 0-35.2-4.8-64-8-68.8 129.6-174.4 230.4-300.8 297.6 60.8 11.2 121.6 54.4 148.8 169.6-190.4 86.4-267.2-48-292.8-115.2-35.2 11.2-70.4 17.6-108.8 24l3.2 3.2c12.8 12.8 11.2 35.2-3.2 46.4l-8 6.4c-12.8 12.8-35.2 11.2-46.4-3.2l-84.8-96c-12.8-12.8-11.2-35.2 3.2-46.4l8-6.4c12.8-12.8 35.2-11.2 46.4 3.2l4.8 6.4c86.4-73.6 128-174.4 128-275.2 0 0 0 0 0 0s0 0 0 0 0 0 0 0c-41.6 0-89.6 9.6-99.2 9.6-120 0-160-115.2-160-115.2s-25.6-52.8-9.6-164.8c0-3.2 1.6-12.8 1.6-12.8 20.8-126.4 132.8-222.4 268.8-222.4 134.4 0 246.4 97.6 268.8 222.4 0 0 1.6 8 1.6 12.8 16 112-9.6 164.8-9.6 164.8v0c-25.6 67.2-86.4 115.2-160 115.2-4.8 0-19.2-1.6-36.8-4.8-1.6 105.6-41.6 212.8-124.8 294.4 209.6-27.2 387.2-140.8 491.2-313.6-24 3.2-44.8 6.4-49.6 6.4-35.2 0-67.2-12.8-92.8-32 11.2-16 19.2-32 27.2-51.2 6.4-12.8 28.8-73.6 12.8-185.6 0-3.2-1.6-12.8-1.6-12.8-6.4-41.6-22.4-78.4-43.2-112 46.4-52.8 115.2-86.4 192-86.4 126.4 0 230.4 89.6 249.6 208 0 0 1.6 8 1.6 11.2 11.2 102.4-12.8 153.6-12.8 153.6zM115.2 281.6c-4.8-11.2-17.6-16-28.8-11.2s-17.6 20.8-12.8 33.6c19.2 41.6 51.2 75.2 91.2 96 12.8 6.4 28.8 0 35.2-11.2 4.8-11.2 1.6-24-9.6-28.8-33.6-16-59.2-43.2-75.2-78.4z" />
<glyph unicode="&#xe917;" glyph-name="food_chili" d="M944 697.6c27.2 43.2 38.4 97.6 24 150.4-1.6 4.8-3.2 9.6-8 14.4-9.6 9.6-24 8-33.6-1.6-6.4-6.4-8-17.6-4.8-25.6 11.2-40 3.2-81.6-20.8-115.2l-20.8 11.2c-112 59.2-172.8-41.6-174.4-41.6l-4.8-9.6 8-8c0 0 12.8-12.8 30.4-22.4 16-8 40-16 67.2-14.4-14.4-46.4 4.8-88 4.8-91.2l4.8-9.6 11.2 1.6c1.6 0 48 9.6 78.4 48 14.4-24 33.6-38.4 49.6-46.4 19.2-9.6 35.2-12.8 35.2-12.8l11.2-1.6 4.8 9.6c0 0 46.4 105.6-62.4 164.8zM961.6 488c-3.2 1.6-8 3.2-12.8 6.4-17.6 9.6-33.6 22.4-48 36.8-35.2-30.4-75.2-38.4-80-40l-28.8-4.8-11.2 25.6c-1.6 4.8-17.6 41.6-12.8 88-19.2 1.6-38.4 8-57.6 17.6-11.2 6.4-20.8 12.8-28.8 19.2-54.4-19.2-99.2-59.2-123.2-112-185.6-374.4-499.2-244.8-499.2-244.8-4.8 1.6-9.6 3.2-16 3.2-19.2 0-35.2-16-35.2-35.2 0-11.2 4.8-19.2 12.8-25.6 214.4-280 587.2-174.4 587.2-174.4 219.2 59.2 312 230.4 340.8 299.2 3.2 8 8 17.6 9.6 27.2 0 1.6 0 1.6 0 1.6v0c4.8 19.2 8 38.4 8 59.2 1.6 19.2-1.6 36.8-4.8 52.8zM310.4 110.4c-33.6-1.6-65.6 8-94.4 27.2-8 6.4-11.2 17.6-4.8 25.6 4.8 6.4 16 8 22.4 3.2 22.4-16 49.6-24 76.8-22.4 8 0 16-4.8 17.6-14.4 0-9.6-8-19.2-17.6-19.2zM865.6 305.6c-104-179.2-273.6-227.2-470.4-203.2-28.8 3.2-25.6 41.6 8 35.2 177.6-28.8 336 35.2 428.8 187.2 8 11.2 24 6.4 24 6.4 11.2-4.8 14.4-16 9.6-25.6z" />
<glyph unicode="&#xe918;" glyph-name="food_chocolate" d="M803.2 752c-6.4-1.6-12.8-1.6-19.2-1.6-30.4 0-59.2 9.6-83.2 27.2v-126.4l-40-16v187.2c-11.2 20.8-19.2 44.8-19.2 70.4 0 4.8 0 9.6 1.6 14.4h-481.6v-918.4h700.8v675.2c-30.4 20.8-51.2 51.2-59.2 88zM347.2 227.2h-112v-187.2l-40-16v238.4h174.4l-22.4-35.2zM347.2 532.8h-112v-187.2l-40-16v238.4h174.4l-22.4-35.2zM347.2 838.4h-112v-187.2l-40-16v238.4h174.4l-22.4-35.2zM580.8 227.2h-112v-187.2l-40-16v238.4h174.4l-22.4-35.2zM580.8 532.8h-112v-187.2l-40-16v238.4h174.4l-22.4-35.2zM580.8 838.4h-112v-187.2l-40-16v238.4h174.4l-22.4-35.2zM814.4 227.2h-112v-187.2l-40-16v238.4h174.4l-22.4-35.2zM814.4 532.8h-112v-187.2l-40-16v238.4h174.4l-22.4-35.2z" />
<glyph unicode="&#xe919;" glyph-name="food_cocktail" d="M249.6 857.6c-24-4.8-44.8-14.4-64-27.2-11.2-8-12.8-22.4-3.2-32l56-56c12.8-12.8 35.2-3.2 35.2 14.4v80c0 12.8-11.2 22.4-24 20.8zM129.6 694.4h75.2c19.2 0 28.8 22.4 14.4 35.2l-52.8 52.8c-9.6 9.6-25.6 8-32-3.2-11.2-17.6-20.8-38.4-25.6-59.2-3.2-12.8 8-25.6 20.8-25.6zM208 672h-80c-12.8 0-22.4-11.2-20.8-24 4.8-24 12.8-46.4 25.6-65.6 6.4-11.2 22.4-12.8 32-3.2l56 56c14.4 14.4 4.8 36.8-12.8 36.8zM331.2 745.6l54.4 54.4c9.6 9.6 8 25.6-3.2 33.6-17.6 11.2-38.4 20.8-60.8 24-12.8 3.2-25.6-8-25.6-20.8v-75.2c0-19.2 22.4-28.8 35.2-16zM361.6 694.4h78.4c12.8 0 24 12.8 20.8 25.6-4.8 22.4-14.4 43.2-27.2 62.4-8 11.2-22.4 11.2-32 3.2l-54.4-54.4c-12.8-14.4-3.2-36.8 14.4-36.8zM238.4 620.8l-57.6-57.6c-9.6-9.6-8-24 3.2-32 19.2-12.8 41.6-22.4 65.6-27.2 12.8-3.2 25.6 8 25.6 20.8v81.6c-1.6 17.6-24 27.2-36.8 14.4zM993.6 571.2c38.4 40 25.6 91.2-40 91.2h-102.4l105.6 132.8c12.8 16 9.6 38.4-6.4 51.2s-38.4 9.6-51.2-6.4l-142.4-177.6h-196.8c0 6.4 0 11.2 0 17.6 0 152-123.2 276.8-276.8 276.8s-275.2-123.2-275.2-276.8c0-152 123.2-276.8 276.8-276.8 46.4 0 89.6 11.2 128 32l188.8-251.2v-128l-112-41.6c0 0 0 0-1.6 0v0 0c-16-3.2-28.8-19.2-28.8-36.8 0-20.8 17.6-38.4 38.4-38.4h305.6c20.8 0 38.4 17.6 38.4 38.4 0 17.6-12.8 33.6-28.8 36.8v0 0c0 0 0 0-1.6 0l-112 41.6v128l294.4 387.2zM921.6 592l-65.6-81.6h-126.4l65.6 81.6h126.4zM636.8 510.4h-193.6l-65.6 81.6h324.8l-65.6-81.6zM284.8 465.6c-118.4 0-214.4 96-214.4 214.4s96 216 214.4 216 214.4-96 214.4-214.4c0-6.4 0-11.2-1.6-17.6h-153.6c-38.4 0-67.2-57.6-40-91.2l68.8-86.4c-27.2-14.4-56-20.8-88-20.8z" />
<glyph unicode="&#xe91a;" glyph-name="food_coconut" d="M880 702.4c-17.6 20.8-40 40-68.8 57.6l84.8 131.2c8 12.8 4.8 30.4-8 38.4s-30.4 4.8-38.4-8l-88-136c-67.2 28.8-152 48-244.8 48-166.4 0-312-57.6-371.2-132.8-49.6-72-80-160-80-254.4 0-248 200-448 448-448s448 200 448 448c-1.6 94.4-32 184-81.6 256zM408 88v0c-4.8-16-22.4-22.4-36.8-16-121.6 54.4-216 174.4-248 316.8-3.2 16 6.4 30.4 22.4 32 14.4 1.6 27.2-6.4 30.4-20.8 33.6-150.4 131.2-240 217.6-278.4 12.8-4.8 19.2-19.2 14.4-33.6zM438.4 187.2c-4.8-14.4-22.4-22.4-40-16-52.8 20.8-94.4 59.2-123.2 107.2-9.6 16-3.2 35.2 9.6 41.6s28.8 1.6 36.8-11.2c24-40 59.2-70.4 100.8-88 12.8-4.8 20.8-19.2 16-33.6zM512 438.4c-187.2 0-337.6 76.8-337.6 171.2s152 171.2 337.6 171.2c83.2 0 158.4-14.4 217.6-40l-16-25.6c-51.2 22.4-121.6 36.8-201.6 36.8-161.6 0-284.8-59.2-284.8-139.2s121.6-139.2 284.8-139.2 284.8 59.2 284.8 139.2c0 25.6-12.8 49.6-35.2 68.8l19.2 30.4c43.2-28.8 70.4-64 70.4-104-1.6-92.8-152-169.6-339.2-169.6zM748.8 612.8c0-22.4-28.8-48-76.8-65.6l60.8 94.4c11.2-8 16-17.6 16-28.8zM601.6 540.8c-3.2-4.8-3.2-8-4.8-12.8-25.6-4.8-54.4-6.4-86.4-6.4-136 0-236.8 48-236.8 92.8s100.8 92.8 236.8 92.8c70.4 0 132.8-12.8 176-32l-84.8-134.4z" />
<glyph unicode="&#xe91b;" glyph-name="food_coffee" d="M900.8 721.6c-1.6 64-51.2 100.8-113.6 108.8v0c-33.6 3.2-32 43.2-32 43.2 0 17.6-14.4 32-32 32l-420.8 32c-17.6 0-32-14.4-32-32 0 0 0-72-32-75.2v0c-62.4-8-112-46.4-113.6-108.8 0 0 0-30.4 0-30.4 0-8 6.4-16 16-16h745.6c9.6 0 16 6.4 16 16-1.6 0-1.6 30.4-1.6 30.4zM364.8 371.2c24 56 81.6 96 147.2 96s123.2-40 147.2-96h156.8l40 243.2c0 1.6 0 3.2 0 4.8h-689.6c0-1.6 0-3.2 0-4.8l41.6-243.2h156.8zM659.2 246.4c-25.6-54.4-81.6-92.8-147.2-92.8s-121.6 38.4-147.2 92.8h-137.6l36.8-214.4c8-43.2 44.8-73.6 89.6-73.6h318.4c44.8 0 81.6 30.4 89.6 73.6l35.2 214.4h-137.6zM585.6 384c8 1.6 9.6 11.2 1.6 16-32 19.2-76.8 20.8-118.4 0-57.6-27.2-88-86.4-72-134.4 1.6-3.2 4.8-4.8 8-4.8 83.2-4.8 108.8 108.8 180.8 123.2zM620.8 350.4c-75.2 1.6-102.4-96-164.8-120-8-3.2-8-12.8 0-16 28.8-9.6 65.6-8 99.2 8 52.8 25.6 83.2 75.2 75.2 120-3.2 4.8-6.4 8-9.6 8z" />
<glyph unicode="&#xe91c;" glyph-name="food_corn" d="M808 769.6c-160-128-228.8-243.2-248-337.6 17.6 1.6 35.2 1.6 52.8 0 142.4-14.4 248-147.2 248-147.2 25.6-27.2 36.8-62.4 36.8-102.4 0-4.8-3.2-11.2-6.4-14.4-12.8-12.8-33.6-4.8-35.2 14.4-1.6 25.6-11.2 51.2-28.8 70.4-3.2 4.8-257.6 369.6-657.6-102.4-17.6-20.8-1.6-43.2 22.4-27.2 110.4 70.4 216 65.6 347.2-126.4 3.2-4.8 86.4-115.2 220.8-1.6 3.2-6.4 6.4-11.2 11.2-16l17.6-17.6c20.8-20.8 52.8-20.8 73.6-1.6l140.8 137.6c20.8 20.8 20.8 52.8 1.6 73.6l-17.6 17.6c-6.4 6.4-12.8 11.2-20.8 12.8 43.2 67.2 41.6 139.2-1.6 184-3.2 3.2-8 8-12.8 11.2-187.2 137.6-190.4 243.2-116.8 350.4 16 22.4-4.8 40-27.2 22.4zM425.6 406.4c33.6 12.8 64 20.8 92.8 22.4 3.2 28.8 11.2 59.2 24 91.2-27.2 33.6-57.6 65.6-88 97.6-6.4 8-16 6.4-22.4 0-30.4-35.2-64-67.2-100.8-96-6.4-6.4-8-16-1.6-22.4 30.4-32 62.4-62.4 96-92.8zM297.6 478.4c-4.8 6.4-14.4 6.4-20.8 1.6-24-16-48-32-73.6-44.8-4.8-3.2-8-8-8-14.4-9.6 14.4-19.2 27.2-28.8 41.6 3.2 0 6.4 0 11.2 1.6 24 12.8 48 27.2 70.4 41.6 8 4.8 9.6 16 3.2 24-14.4 16-27.2 32-41.6 49.6-4.8 6.4-14.4 8-20.8 3.2-19.2-14.4-38.4-27.2-59.2-38.4-3.2-1.6-4.8-4.8-6.4-8-8 12.8-14.4 25.6-20.8 38.4 3.2 0 6.4 0 9.6 1.6 17.6 11.2 35.2 22.4 52.8 35.2 6.4 4.8 8 14.4 3.2 22.4-12.8 17.6-25.6 35.2-38.4 52.8-4.8 8-16 9.6-22.4 3.2-12.8-9.6-25.6-19.2-40-28.8 0 0-1.6 0-1.6-1.6-4.8 14.4-8 27.2-11.2 41.6 3.2 0 6.4 1.6 8 3.2 8 6.4 17.6 12.8 25.6 19.2 8 4.8 9.6 12.8 4.8 19.2-11.2 19.2-24 38.4-33.6 57.6-3.2 4.8-6.4 8-9.6 8 3.2 19.2 11.2 36.8 20.8 52.8 14.4-30.4 32-59.2 48-88 4.8-8 17.6-9.6 24-3.2 14.4 14.4 30.4 28.8 43.2 44.8 6.4 6.4 4.8 19.2-3.2 24-25.6 17.6-54.4 33.6-83.2 49.6 14.4 9.6 33.6 16 52.8 19.2 1.6-3.2 3.2-6.4 8-8 17.6-11.2 35.2-22.4 52.8-33.6 6.4-4.8 16-3.2 20.8 3.2 6.4 8 11.2 16 17.6 24 1.6 3.2 3.2 4.8 3.2 8 12.8-3.2 27.2-6.4 40-11.2 0 0-1.6-1.6-1.6-1.6-8-12.8-17.6-25.6-27.2-38.4-4.8-6.4-3.2-17.6 3.2-22.4 17.6-12.8 36.8-27.2 54.4-40 6.4-4.8 17.6-4.8 22.4 3.2 12.8 16 24 33.6 35.2 51.2 1.6 3.2 3.2 6.4 1.6 9.6 12.8-6.4 25.6-14.4 38.4-20.8-3.2-1.6-6.4-3.2-8-6.4-12.8-20.8-25.6-40-40-59.2-4.8-6.4-3.2-16 3.2-20.8 17.6-14.4 33.6-28.8 51.2-44.8 6.4-6.4 17.6-4.8 24 1.6 16 22.4 30.4 44.8 44.8 68.8 1.6 3.2 3.2 6.4 1.6 11.2 12.8-9.6 27.2-19.2 40-30.4-4.8 0-11.2-1.6-14.4-8-14.4-25.6-30.4-49.6-48-72-4.8-6.4-4.8-14.4 1.6-20.8 28.8-28.8 57.6-60.8 84.8-91.2 24 43.2 57.6 89.6 104 139.2-104 97.6-216 174.4-318.4 217.6-128 52.8-232 49.6-292.8-9.6s-67.2-163.2-16-292.8c40-104 113.6-217.6 209.6-323.2 49.6 44.8 97.6 78.4 140.8 99.2-32 30.4-62.4 59.2-91.2 89.6zM304 731.2c6.4 6.4 4.8 17.6-1.6 22.4-17.6 14.4-36.8 28.8-56 41.6-6.4 4.8-16 3.2-20.8-3.2-19.2-22.4-40-43.2-62.4-62.4-6.4-4.8-6.4-14.4-3.2-20.8 12.8-19.2 25.6-38.4 40-56 4.8-8 16-8 22.4-3.2 30.4 25.6 57.6 52.8 81.6 81.6zM243.2 598.4c14.4-17.6 28.8-35.2 43.2-51.2 4.8-6.4 14.4-6.4 20.8-1.6 36.8 28.8 70.4 62.4 100.8 97.6 4.8 6.4 4.8 16-1.6 20.8-17.6 16-33.6 32-51.2 46.4-6.4 4.8-16 4.8-22.4-1.6-27.2-32-57.6-60.8-89.6-88-4.8-6.4-6.4-16 0-22.4z" />
<glyph unicode="&#xe91d;" glyph-name="food_croissant" d="M174.4 448c0 0-97.6 104-56 176-248-243.2-11.2-366.4-11.2-366.4s184-99.2 281.6-70.4c11.2 3.2 16 16 16 16-28.8 4.8-230.4 244.8-230.4 244.8zM28.8 275.2l-19.2-86.4c-20.8-65.6 9.6-140.8 73.6-172.8s137.6-8 169.6 51.2v0l51.2 76.8c-89.6 6.4-241.6 67.2-275.2 131.2zM811.2 614.4c0 0 41.6 264-302.4 208 83.2-8 108.8-148.8 108.8-148.8s73.6-304 60.8-332.8c0 0 12.8-3.2 22.4 3.2 81.6 64 110.4 270.4 110.4 270.4zM924.8 652.8v0l-80 35.2c32-65.6-9.6-224-56-299.2l91.2-3.2c67.2-9.6 129.6 35.2 142.4 105.6 11.2 70.4-32 139.2-97.6 161.6zM552 729.6c-41.6 83.2-161.6 107.2-267.2 52.8s-158.4-164.8-116.8-246.4c4.8-9.6 17.6-25.6 17.6-25.6l214.4-251.2c59.2-70.4 97.6-56 163.2-25.6 104 49.6 88 91.2 76.8 145.6l-75.2 321.6c-4.8 9.6-8 19.2-12.8 28.8zM273.6 656c-16-24-22.4-52.8-19.2-83.2 1.6-9.6-4.8-17.6-14.4-17.6-9.6-1.6-20.8 8-20.8 19.2-4.8 36.8 3.2 72 22.4 100.8 6.4 9.6 19.2 11.2 27.2 4.8s9.6-16 4.8-24z" />
<glyph unicode="&#xe91e;" glyph-name="food_cucumber" d="M996.8 553.6c12.8 56 16 120-12.8 164.8-4.8 8-11.2 16-17.6 22.4 3.2 3.2 16 22.4 16 22.4 11.2 22.4 3.2 49.6-17.6 60.8-1.6 0-1.6 1.6-3.2 1.6-11.2 32-36.8 57.6-68.8 70.4s-70.4 11.2-100.8-4.8c0 0 0 1.6 0 1.6-3.2 20.8-14.4 36.8-30.4 44.8-6.4 3.2-16 4.8-24 6.4-33.6 0-65.6-25.6-72-57.6-1.6-19.2 1.6-38.4 12.8-54.4 6.4-9.6 16-17.6 25.6-22.4-12.8-8-28.8-12.8-48-17.6-12.8-3.2-24-4.8-33.6-6.4 12.8 27.2 19.2 57.6 12.8 84.8-6.4 32-30.4 65.6-67.2 65.6-22.4 0-44.8-11.2-59.2-33.6-25.6-36.8-22.4-91.2 8-124.8 6.4-8 16-14.4 25.6-20.8-24-19.2-51.2-30.4-76.8-28.8s-51.2 16-64 36.8c-4.8 9.6-16 12.8-25.6 11.2-14.4-3.2-22.4-20.8-14.4-33.6 19.2-35.2 59.2-59.2 102.4-60.8 9.6 0 19.2 0 28.8 1.6 35.2 6.4 68.8 25.6 96 54.4 0 0 0 0 1.6 1.6v0c22.4-3.2 46.4-1.6 75.2 6.4 38.4 9.6 67.2 24 88 43.2 11.2 9.6 19.2 22.4 25.6 33.6 3.2 3.2 8 4.8 11.2 8 9.6 9.6 16 14.4 22.4 17.6 19.2 11.2 44.8 12.8 65.6 4.8 16-6.4 30.4-19.2 38.4-35.2-4.8-3.2-8-8-11.2-12.8 0 0-11.2-17.6-12.8-20.8-46.4 12.8-99.2 4.8-142.4-25.6-28.8-19.2-48-46.4-59.2-76.8v0c0 0 0 0 0 0-4.8 1.6-11.2 3.2-17.6 3.2-25.6-1.6-44.8-22.4-43.2-46.4 0-16 11.2-30.4 24-38.4-3.2-6.4-4.8-11.2-6.4-12.8-12.8-27.2-27.2-52.8-44.8-76.8-8 4.8-16 8-25.6 6.4-25.6-1.6-44.8-22.4-43.2-46.4 0-9.6 4.8-19.2 11.2-27.2-14.4-14.4-30.4-27.2-48-40-22.4-14.4-44.8-27.2-68.8-38.4-6.4 19.2-24 33.6-44.8 32-25.6-1.6-44.8-22.4-43.2-46.4 0-4.8 1.6-9.6 3.2-14.4-22.4-6.4-46.4-9.6-70.4-12.8-1.6 0-22.4-1.6-46.4-3.2 0 1.6 0 3.2 0 4.8-1.6 25.6-22.4 44.8-46.4 43.2-25.6-1.6-44.8-22.4-43.2-46.4 0-3.2 0-6.4 1.6-9.6-20.8-4.8-43.2-12.8-62.4-27.2-75.2-52.8-97.6-161.6-40-235.2 25.6-33.6 70.4-51.2 116.8-60.8 4.8-20.8 24-35.2 46.4-33.6 17.6 0 32 11.2 38.4 25.6 32 0 60.8 1.6 76.8 4.8v0c14.4 1.6 30.4 3.2 44.8 6.4 6.4-17.6 24-28.8 43.2-28.8 25.6 1.6 44.8 22.4 43.2 46.4 0 0 0 0 0 0 60.8 17.6 118.4 40 172.8 70.4 8-9.6 22.4-16 36.8-16 25.6 1.6 44.8 22.4 43.2 46.4 0 4.8-1.6 9.6-3.2 14.4 48 35.2 91.2 73.6 129.6 118.4 8-4.8 17.6-8 27.2-8 25.6 1.6 44.8 22.4 43.2 46.4 0 12.8-6.4 22.4-14.4 30.4 27.2 36.8 49.6 76.8 70.4 118.4v0c4.8 8 11.2 20.8 17.6 35.2 3.2 0 4.8 0 8 0 25.6 1.6 44.8 22.4 43.2 46.4-1.6 19.2-11.2 33.6-24 41.6zM576 795.2c-9.6 3.2-16 9.6-22.4 16-16 17.6-17.6 49.6-4.8 68.8 4.8 8 11.2 12.8 17.6 12.8 1.6 0 1.6 0 3.2 0 9.6 0 19.2-12.8 22.4-28.8 4.8-22.4-1.6-46.4-16-68.8zM745.6 857.6c-6.4-4.8-12.8-6.4-19.2-4.8-3.2 0-8 3.2-11.2 8s-4.8 11.2-4.8 17.6c1.6 9.6 11.2 19.2 22.4 20.8 1.6 0 3.2 0 4.8 0 3.2 0 4.8 0 4.8 0 1.6 0 4.8-4.8 6.4-12.8 1.6-11.2 0-20.8-3.2-28.8zM336 219.2c-36.8-16-78.4-17.6-116.8-8-12.8 3.2-19.2 16-16 25.6s14.4 16 24 12.8c32-8 65.6-6.4 96 6.4 9.6 3.2 20.8 0 25.6-9.6 3.2-9.6-1.6-22.4-12.8-27.2zM784 622.4c-38.4-179.2-169.6-296-348.8-374.4-32-14.4-51.2 27.2-12.8 41.6 164.8 64 278.4 184 315.2 342.4 3.2 11.2 14.4 19.2 27.2 17.6s22.4-14.4 19.2-27.2z" />
<glyph unicode="&#xe91f;" glyph-name="food_cupcake" d="M492.8 280v0 0h-331.2l73.6-211.2c19.2-72 76.8-118.4 150.4-118.4h217.6c73.6 0 131.2 46.4 150.4 118.4l73.6 211.2h-334.4zM348.8 32c-12.8-3.2-27.2 6.4-30.4 19.2l-38.4 145.6c-3.2 14.4 4.8 30.4 20.8 32v0c12.8 3.2 27.2-6.4 30.4-19.2l38.4-145.6c3.2-14.4-6.4-28.8-20.8-32zM492.8 30.4c-14.4 0-27.2 11.2-27.2 27.2v147.2c0 14.4 11.2 27.2 27.2 27.2 14.4 0 27.2-11.2 27.2-27.2v-147.2c0-14.4-12.8-27.2-27.2-27.2zM705.6 196.8l-38.4-145.6c-3.2-12.8-17.6-22.4-30.4-19.2-16 3.2-24 17.6-20.8 32l38.4 145.6c3.2 12.8 17.6 22.4 30.4 19.2 16-1.6 25.6-16 20.8-32zM819.2 526.4c0 0 6.4 25.6 6.4 40 0 52.8-43.2 96-96 96-3.2 0-6.4 0-9.6 0 4.8 67.2-38.4 102.4-88 131.2-99.2 73.6-56 152-56 152-240-60.8-281.6-211.2-288-284.8-4.8 1.6-9.6 1.6-16 1.6-52.8 0-96-43.2-96-96 0-14.4 3.2-27.2 8-40-60.8 0-92.8-51.2-92.8-104s43.2-104 97.6-104h628.8c52.8 0 97.6 49.6 97.6 104s-35.2 107.2-96 104zM190.4 401.6c-16 0-30.4 12.8-30.4 30.4 0 16 12.8 30.4 30.4 30.4s30.4-12.8 30.4-30.4c0-17.6-12.8-30.4-30.4-30.4zM276.8 545.6c-16 0-30.4 12.8-30.4 30.4 0 16 12.8 30.4 30.4 30.4s30.4-12.8 30.4-30.4c0-16-14.4-30.4-30.4-30.4zM483.2 755.2c-17.6-16-32-35.2-40-57.6-11.2-30.4-36.8-25.6-36.8-25.6-16 1.6-27.2 22.4-19.2 46.4 11.2 32 30.4 60.8 56 81.6 32 25.6 49.6-1.6 49.6-1.6 11.2-14.4 1.6-32-9.6-43.2z" />
<glyph unicode="&#xe920;" glyph-name="food_cutlery" d="M409.6 323.2c6.4 60.8 36.8 110.4 48 124.8 32 33.6 51.2 78.4 51.2 128l-32 336c0 25.6-20.8 48-48 48h-22.4v-284.8c0-14.4-11.2-27.2-27.2-27.2h-1.6c-14.4 0-27.2 11.2-27.2 27.2v284.8h-67.2v-284.8c0-14.4-11.2-27.2-27.2-27.2h-1.6c-14.4 0-27.2 11.2-27.2 27.2v284.8h-27.2c-25.6 0-48-20.8-48-48l-24-334.4c0-46.4 17.6-89.6 44.8-123.2v0c0 0 48-64 51.2-142.4v0l-19.2-268.8c0-4.8 1.6-9.6 1.6-14.4 9.6-52.8 56-91.2 110.4-91.2s100.8 40 110.4 91.2c1.6 4.8 1.6 9.6 1.6 14.4 0 0 0 20.8-1.6 27.2l-17.6 252.8zM907.2 672c0 142.4-108.8 288-249.6 288h-19.2c-22.4 0-41.6-17.6-41.6-40 0 0 4.8-259.2 14.4-500.8v0c0 0 1.6-174.4-1.6-225.6l-11.2-160c0-4.8 0-8 1.6-12.8 9.6-46.4 51.2-83.2 100.8-83.2s91.2 35.2 100.8 83.2c1.6 4.8 1.6 8 1.6 12.8l-22.4 312c1.6 44.8 43.2 48 43.2 48h16c36.8 0 67.2 33.6 67.2 70.4v208z" />
<glyph unicode="&#xe921;" glyph-name="food_doughnut" d="M1014.4 507.2c0 1.6 0 1.6 0 1.6-6.4 212.8-230.4 380.8-504 380.8-278.4 0-504-176-504-390.4 0 0 0-1.6 0-3.2s0-3.2 0-4.8c0-6.4 1.6-136 1.6-136 0-192 225.6-348.8 504-348.8s504 156.8 504 348.8c0 0 0 131.2 0 136 0 6.4-1.6 11.2-1.6 16zM824 632l40 20.8c12.8 6.4 28.8 3.2 33.6-8 6.4-11.2 0-25.6-14.4-32l-38.4-20.8c-12.8-6.4-28.8-3.2-33.6 8s0 24 12.8 32zM750.4 460.8l14.4 43.2c4.8 14.4 19.2 22.4 30.4 19.2 11.2-4.8 17.6-19.2 12.8-33.6l-14.4-43.2c-4.8-14.4-19.2-22.4-30.4-19.2-12.8 3.2-17.6 19.2-12.8 33.6zM617.6 788.8c4.8 11.2 16 17.6 28.8 12.8l52.8-19.2c11.2-4.8 17.6-16 12.8-28.8-4.8-11.2-16-17.6-28.8-12.8l-52.8 19.2c-11.2 4.8-17.6 17.6-12.8 28.8zM384 798.4l33.6 27.2c11.2 9.6 27.2 9.6 35.2 0s4.8-24-6.4-33.6l-33.6-27.2c-11.2-9.6-27.2-9.6-35.2 0-8 8-4.8 24 6.4 33.6zM510.4 667.2c76.8 0 139.2-43.2 139.2-96s-62.4-96-139.2-96-139.2 43.2-139.2 96c0 52.8 62.4 96 139.2 96zM606.4 368c-4.8-11.2-16-17.6-28.8-12.8l-52.8 19.2c-11.2 4.8-17.6 16-12.8 28.8 4.8 11.2 16 17.6 28.8 12.8l52.8-19.2c11.2-6.4 16-17.6 12.8-28.8zM288 492.8c12.8-1.6 20.8-16 17.6-30.4l-8-44.8c-3.2-14.4-14.4-25.6-27.2-22.4-12.8 1.6-20.8 16-17.6 30.4l8 44.8c3.2 14.4 14.4 24 27.2 22.4zM203.2 643.2l40 20.8c12.8 6.4 28.8 3.2 33.6-8 6.4-11.2 0-25.6-14.4-32l-38.4-20.8c-12.8-6.4-28.8-3.2-33.6 8-6.4 9.6 0 24 12.8 32zM939.2 355.2c0-68.8-41.6-134.4-115.2-185.6-83.2-59.2-193.6-89.6-313.6-89.6s-230.4 32-313.6 88c-75.2 51.2-115.2 118.4-115.2 185.6v0 0c0 12.8 0 33.6 0 54.4 6.4 4.8 12.8 11.2 20.8 19.2 0 0 35.2 43.2 54.4-60.8 0 0 17.6-120 121.6-120 0 0 41.6 8 67.2 41.6 0 0 28.8 35.2 76.8-9.6 0 0 75.2-72 129.6-80 0 0 83.2-19.2 132.8 64 0 0 43.2 78.4 72 84.8 0 0 51.2 19.2 51.2-56 0 0 1.6-46.4 32-46.4 0 0 36.8-4.8 52.8 94.4 0 0 8 75.2 30.4 75.2 0 0 6.4 3.2 19.2-8-3.2-25.6-3.2-51.2-3.2-51.2z" />
<glyph unicode="&#xe922;" glyph-name="food_eggs" d="M1009.6 468.8c-57.6 340.8-265.6 328-265.6 328s-204.8 14.4-267.2-328c0 0-52.8-352 267.2-371.2 320 19.2 265.6 371.2 265.6 371.2zM753.6 672c-89.6-44.8-150.4-132.8-152-225.6 0-16-14.4-28.8-30.4-28.8-1.6 0-3.2 0-4.8 0-14.4 3.2-25.6 16-25.6 32 3.2 115.2 76.8 224 187.2 278.4 4.8 1.6 9.6 3.2 12.8 3.2 12.8 0 24-8 27.2-19.2v0c8-16 0-32-14.4-40zM488 184c-92.8 115.2-68.8 283.2-67.2 289.6v1.6c9.6 54.4 24 99.2 40 137.6-267.2 185.6-396.8 36.8-396.8 36.8s-145.6-126.4 43.2-395.2c0 0 185.6-248 398.4-88-6.4 4.8-12.8 11.2-17.6 17.6zM204.8 283.2c-1.6-1.6-1.6-1.6-3.2-3.2-11.2-8-27.2-6.4-38.4 3.2-75.2 80-99.2 201.6-62.4 310.4 1.6 4.8 3.2 8 6.4 11.2 8 8 20.8 11.2 30.4 6.4v0c12.8-6.4 20.8-20.8 16-35.2-28.8-89.6-9.6-188.8 51.2-252.8 11.2-11.2 11.2-28.8 0-40z" />
<glyph unicode="&#xe923;" glyph-name="food_fish" d="M948.8 673.6l-179.2 91.2c-59.2 20.8-113.6 28.8-160 27.2-22.4 54.4-83.2 83.2-139.2 62.4 0 0-204.8-54.4-214.4-60.8 32-27.2 65.6-73.6 89.6-124.8-25.6-30.4-38.4-52.8-38.4-52.8l-88-171.2c-70.4 110.4-219.2 62.4-219.2 62.4s11.2-185.6 174.4-182.4c-54.4-41.6-110.4-120-35.2-248 118.4 41.6 144 115.2 139.2 176l174.4-89.6c8-3.2 56-24 123.2-28.8-14.4-49.6-30.4-100.8-25.6-99.2l105.6 3.2c49.6 1.6 94.4 40 99.2 94.4l6.4 40c52.8 27.2 105.6 70.4 155.2 139.2l92.8 179.2c32 65.6 4.8 147.2-60.8 182.4zM806.4 552c-25.6-9.6-52.8 4.8-62.4 30.4s4.8 52.8 30.4 62.4 52.8-4.8 62.4-30.4c8-25.6-4.8-52.8-30.4-62.4z" />
<glyph unicode="&#xe924;" glyph-name="food_fried-egg" d="M523.2 675.2c-116.8 0-212.8-94.4-212.8-212.8 0-116.8 94.4-212.8 212.8-212.8 116.8 1.6 212.8 96 212.8 214.4 0 116.8-96 211.2-212.8 211.2zM499.2 539.2c-24-16-43.2-36.8-56-62.4-17.6-33.6-46.4-25.6-46.4-25.6-19.2 3.2-28.8 32-16 57.6 17.6 35.2 44.8 67.2 78.4 89.6 41.6 25.6 59.2-8 59.2-8 11.2-20.8-3.2-40-19.2-51.2zM1001.6 544v0c-38.4 81.6-104 126.4-179.2 126.4-1.6 0-4.8 0-6.4 0h-1.6c-41.6 0-72 59.2-72 59.2l-1.6 1.6c-6.4 14.4-70.4 136-206.4 136-38.4 0-76.8-9.6-118.4-28.8-27.2-12.8-51.2-33.6-76.8-65.6-17.6-22.4-43.2-32-65.6-25.6-41.6 12.8-88 8-126.4-14.4-59.2-33.6-94.4-102.4-88-174.4 0-8 1.6-14.4 3.2-22.4 1.6-6.4 6.4-32-9.6-52.8l-1.6-3.2c-9.6-17.6-60.8-105.6-52.8-168 16-108.8 120-188.8 248-188.8 14.4 0 30.4 1.6 44.8 3.2h3.2c0 0 19.2 4.8 41.6 4.8 20.8 0 36.8-4.8 43.2-11.2l19.2-20.8c43.2-49.6 91.2-73.6 145.6-73.6 35.2 0 72 11.2 110.4 33.6 43.2 24 76.8 62.4 96 108.8 9.6 24 33.6 40 59.2 40 33.6 1.6 65.6 11.2 96 27.2 105.6 62.4 147.2 200 96 308.8zM136 556.8c-1.6 3.2-1.6 8-1.6 11.2-3.2 41.6 16 83.2 51.2 104 20.8 12.8 44.8 14.4 67.2 8 12.8-3.2 24-6.4 36.8-6.4 41.6 0 81.6 20.8 108.8 56 17.6 22.4 33.6 36.8 49.6 44.8 30.4 14.4 59.2 22.4 86.4 22.4 94.4 0 139.2-91.2 142.4-96 4.8-11.2 51.2-102.4 137.6-102.4h8c46.4 0 88-30.4 112-83.2l1.6-1.6c35.2-76.8 6.4-171.2-65.6-212.8-19.2-11.2-40-17.6-62.4-17.6-54.4-1.6-102.4-35.2-123.2-84.8-14.4-32-36.8-57.6-65.6-75.2-65.6-36.8-115.2-30.4-164.8 25.6l-19.2 22.4c-20.8 24-54.4 36.8-97.6 36.8-27.2 0-51.2-4.8-57.6-6.4-11.2-1.6-22.4-1.6-33.6-1.6-91.2 0-164.8 52.8-176 126.4 0 25.6 25.6 84.8 44.8 116.8 33.6 44.8 25.6 94.4 20.8 113.6z" />
<glyph unicode="&#xe925;" glyph-name="food_fries" d="M880 561.6v219.2c0 33.6-27.2 60.8-60.8 60.8h-68.8v43.2c0 33.6-27.2 60.8-60.8 60.8h-76.8c-33.6 0-60.8-27.2-60.8-60.8v-89.6h-73.6v64c0 33.6-27.2 60.8-60.8 60.8h-76.8c-33.6 0-60.8-27.2-60.8-60.8v-44.8h-68.8c-33.6 0-60.8-27.2-60.8-60.8v-193.6h-51.2l99.2-496c24-100.8 35.2-115.2 144-115.2h340.8c108.8 0 118.4 12.8 144 115.2l99.2 496h-46.4zM811.2 772.8v-211.2h-59.2v211.2h59.2zM622.4 876.8h59.2v-395.2c-14.4-25.6-35.2-48-59.2-65.6v460.8zM553.6 726.4v-342.4c-12.8-3.2-27.2-4.8-41.6-4.8-11.2 0-20.8 1.6-30.4 3.2v344h72zM350.4 851.2h59.2v-441.6c-24 14.4-44.8 35.2-59.2 59.2v382.4zM220.8 745.6h59.2v-185.6h-59.2v185.6zM788.8 136h-176c-14.4-36.8-52.8-62.4-96-62.4s-81.6 25.6-96 62.4h-185.6l-12.8 68.8h198.4c14.4 36.8 52.8 64 96 64 44.8 0 81.6-27.2 96-64h188.8l-12.8-68.8z" />
<glyph unicode="&#xe926;" glyph-name="food_garlic" d="M1008 312c-12.8 219.2-417.6 280-422.4 531.2 0 0 0 0 0 0 0 17.6 0 32 0 41.6 0 8-3.2 14.4-9.6 19.2l-22.4 17.6c-6.4 4.8-17.6 4.8-22.4-1.6l-35.2-36.8c-4.8-4.8-12.8-8-19.2-8h-16c-12.8 0-22.4-9.6-22.4-22.4v-16c-11.2-244.8-409.6-307.2-422.4-524.8-8-128 107.2-232 238.4-232 22.4 0 44.8 3.2 67.2 9.6 0 0 0 0 0 0-78.4 44.8-129.6 128-129.6 224 0 60.8 41.6 177.6 156.8 244.8 9.6 4.8 19.2-6.4 12.8-14.4-91.2-108.8-110.4-182.4-105.6-249.6 8-107.2 83.2-196.8 182.4-227.2l-22.4-22.4c-9.6-9.6-9.6-27.2 0-36.8 4.8-4.8 11.2-8 17.6-8s12.8 3.2 17.6 8l33.6 33.6v-44.8c0-14.4 11.2-25.6 25.6-25.6s25.6 11.2 25.6 25.6v46.4l35.2-35.2c4.8-4.8 11.2-8 17.6-8s12.8 3.2 17.6 8c9.6 9.6 9.6 27.2 0 36.8l-22.4 22.4c105.6 32 182.4 129.6 182.4 246.4 0 60.8-38.4 155.2-104 228.8-8 8 1.6 20.8 12.8 16 94.4-51.2 156.8-182.4 156.8-244.8 0-96-52.8-180.8-131.2-224 20.8-6.4 44.8-9.6 67.2-9.6 132.8 0 248 104 240 232zM427.2 440c-30.4-28.8-51.2-65.6-59.2-105.6 0-1.6 0-3.2-1.6-4.8 0 0 0 0 0 0v0c-1.6-6.4-8-12.8-14.4-14.4-12.8-4.8-25.6 3.2-28.8 14.4-1.6 3.2-1.6 6.4-1.6 8 0 0 0 0 0 0s0 0 0 0c0 1.6 0 3.2 1.6 4.8 9.6 51.2 36.8 96 73.6 129.6 3.2 3.2 6.4 6.4 11.2 8 12.8 4.8 25.6-3.2 28.8-14.4 1.6-8-1.6-19.2-9.6-25.6z" />
<glyph unicode="&#xe927;" glyph-name="food_gingerbread" d="M179.2 148.8c-41.6-41.6-49.6-107.2-16-153.6 43.2-60.8 129.6-67.2 180.8-16l19.2 19.2-166.4 166.4-17.6-16zM185.6 321.6v236.8h-16c-57.6 0-108.8-40-118.4-96-14.4-75.2 43.2-140.8 116.8-140.8h17.6zM827.2 164.8l-168-168 17.6-17.6c41.6-41.6 107.2-49.6 153.6-16 60.8 43.2 67.2 129.6 16 180.8l-19.2 20.8zM729.6 260.8c-22.4 22.4-6.4 60.8 25.6 60.8h43.2v236.8h-139.2c48 41.6 76.8 102.4 76.8 169.6 0 124.8-100.8 225.6-225.6 225.6s-225.6-100.8-225.6-225.6c0-67.2 30.4-128 76.8-169.6h-139.2v-236.8h41.6c32 0 48-38.4 25.6-60.8l-65.6-67.2 168-168 60.8 60.8c32 32 84.8 32 116.8 0l62.4-62.4 166.4 168-68.8 68.8zM598.4 784c16 0 28.8-12.8 28.8-28.8s-12.8-28.8-28.8-28.8c-16 0-28.8 12.8-28.8 28.8s12.8 28.8 28.8 28.8zM512 638.4c20.8 0 40 8 56 20.8 6.4 4.8 14.4 6.4 22.4 1.6v0c11.2-6.4 12.8-22.4 3.2-30.4-22.4-19.2-49.6-30.4-80-30.4s-59.2 11.2-80 30.4c-9.6 8-8 24 3.2 30.4 6.4 4.8 16 3.2 22.4-1.6 12.8-12.8 32-20.8 52.8-20.8zM425.6 784c16 0 28.8-12.8 28.8-28.8s-12.8-28.8-28.8-28.8c-16 0-28.8 12.8-28.8 28.8-1.6 16 12.8 28.8 28.8 28.8zM512 268.8c-19.2 0-33.6 14.4-33.6 33.6s14.4 33.6 33.6 33.6c19.2 0 33.6-14.4 33.6-33.6s-14.4-33.6-33.6-33.6zM512 419.2c-19.2 0-33.6 14.4-33.6 33.6s14.4 33.6 33.6 33.6c19.2 0 33.6-14.4 33.6-33.6s-14.4-33.6-33.6-33.6zM974.4 462.4c-11.2 56-62.4 96-118.4 96h-16v-236.8h19.2c70.4 0 128 67.2 115.2 140.8z" />
<glyph unicode="&#xe928;" glyph-name="food_glass" d="M868.8 608c-16 78.4-67.2 228.8-92.8 280h-528c-25.6-51.2-78.4-201.6-92.8-280 0 0-62.4-334.4 324.8-372.8v-123.2l-180.8-40c0 0-1.6 0-1.6 0v0 0c-22.4-3.2-40-16-40-32 0-17.6 22.4-33.6 51.2-33.6h409.6c27.2 0 51.2 14.4 51.2 33.6 0 16-17.6 28.8-40 32v0 0c0 0-1.6 0-1.6 0l-182.4 40v121.6c385.6 40 323.2 374.4 323.2 374.4zM358.4 635.2c-19.2-73.6-9.6-147.2 27.2-206.4 9.6-14.4 3.2-35.2-12.8-46.4-1.6-1.6-3.2-1.6-4.8-3.2-16-8-35.2-3.2-43.2 11.2-43.2 68.8-54.4 156.8-35.2 244.8h-64c16 60.8 43.2 140.8 64 192h448c20.8-51.2 48-131.2 64-192h-443.2z" />
<glyph unicode="&#xe929;" glyph-name="food_grapes" d="M372.8 360c-33.6-8-72-6.4-105.6 11.2-8-8-14.4-16-20.8-27.2-32-56-12.8-126.4 43.2-158.4s126.4-12.8 158.4 43.2c6.4 11.2 9.6 20.8 12.8 32-6.4 3.2-12.8 4.8-19.2 9.6-35.2 20.8-59.2 54.4-68.8 89.6zM233.6 564.8c-32-56-12.8-126.4 43.2-158.4 28.8-16 60.8-19.2 89.6-11.2-1.6 28.8 4.8 56 19.2 83.2 14.4 25.6 36.8 46.4 60.8 59.2-8 28.8-27.2 54.4-54.4 70.4-56 32-126.4 12.8-158.4-43.2zM480 550.4c36.8 9.6 76.8 4.8 112-14.4 4.8-3.2 11.2-6.4 16-9.6 11.2 9.6 20.8 19.2 27.2 32 22.4 40 19.2 86.4-4.8 121.6 24 19.2 43.2 43.2 57.6 68.8 48-49.6 172.8-142.4 308.8 14.4-108.8 140.8-219.2 99.2-281.6 56 11.2 44.8 6.4 104-11.2 124.8-11.2 14.4-33.6 14.4-46.4 0-9.6-11.2-6.4-25.6-6.4-40 11.2-94.4-28.8-131.2-75.2-180.8-54.4 22.4-116.8 1.6-145.6-49.6-6.4-12.8-11.2-25.6-14.4-40 33.6-20.8 54.4-49.6 64-83.2zM755.2 401.6c16 9.6 30.4 24 40 41.6 32 56 12.8 126.4-43.2 158.4-20.8 11.2-43.2 16-65.6 14.4 0-25.6-6.4-51.2-19.2-75.2-6.4-11.2-20.8-28.8-32-40 20.8-25.6 32-56 35.2-88 27.2 4.8 56 0 84.8-11.2zM211.2 219.2c-22.4 43.2-22.4 97.6 3.2 142.4 4.8 8 11.2 16 17.6 24-9.6 11.2-19.2 20.8-32 27.2-56 32-126.4 12.8-158.4-43.2s-12.8-126.4 43.2-158.4c25.6-14.4 54.4-17.6 81.6-12.8 8 3.2 14.4 4.8 22.4 8s16 8 22.4 12.8zM289.6 652.8c30.4 9.6 64 9.6 96-3.2 3.2 14.4 8 27.2 16 40 14.4 24 33.6 43.2 54.4 56-9.6 19.2-25.6 36.8-46.4 48-56 32-126.4 12.8-158.4-43.2-8-12.8-12.8-27.2-14.4-41.6 24-14.4 41.6-33.6 52.8-56zM750.4 363.2c-25.6 14.4-56 19.2-83.2 12.8-3.2-16-8-32-17.6-48-17.6-30.4-43.2-52.8-73.6-64 0-41.6 20.8-80 59.2-102.4 56-32 126.4-12.8 158.4 43.2s12.8 128-43.2 158.4zM512 236.8c-6.4 3.2-12.8 6.4-19.2 8-3.2-9.6-6.4-17.6-11.2-27.2-30.4-52.8-86.4-80-144-76.8-1.6-43.2 19.2-84.8 59.2-107.2 56-32 126.4-12.8 158.4 43.2 33.6 56 12.8 128-43.2 160zM300.8 142.4c-9.6 3.2-19.2 8-28.8 12.8s-17.6 11.2-25.6 17.6c-16 3.2-32 3.2-48 0-6.4-3.2-14.4-4.8-22.4-6.4-22.4-9.6-41.6-25.6-54.4-49.6-32-56-12.8-126.4 43.2-158.4s126.4-12.8 158.4 43.2c4.8 9.6 9.6 19.2 11.2 28.8-24 32-36.8 72-33.6 112zM203.2 582.4c14.4 24 33.6 43.2 56 56-9.6 17.6-25.6 33.6-44.8 44.8-56 32-126.4 12.8-158.4-43.2s-12.8-128 43.2-160c28.8-16 60.8-19.2 89.6-11.2-11.2 38.4-6.4 78.4 14.4 113.6zM574.4 504c-56 32-126.4 12.8-158.4-43.2s-12.8-126.4 43.2-158.4 126.4-12.8 158.4 43.2c33.6 56 12.8 128-43.2 158.4zM531.2 433.6c-9.6 0-17.6-3.2-25.6-8-6.4-4.8-17.6-4.8-24 3.2s-6.4 24 4.8 32c11.2 8 24 12.8 38.4 12.8s24-12.8 24-22.4c-1.6-11.2-9.6-17.6-17.6-17.6z" />
<glyph unicode="&#xe92a;" glyph-name="food_hamburger" d="M209.6 460.8c36.8 0 56-14.4 72-25.6 11.2-8 17.6-12.8 32-12.8s20.8 4.8 32 12.8c14.4 11.2 35.2 25.6 72 25.6s56-14.4 72-25.6c11.2-8 17.6-12.8 32-12.8s20.8 4.8 32 12.8c14.4 11.2 35.2 25.6 72 25.6s56-14.4 72-25.6c11.2-8 17.6-12.8 32-12.8s20.8 4.8 32 12.8c14.4 11.2 35.2 25.6 72 25.6s56-14.4 72-25.6c6.4-4.8 11.2-8 17.6-11.2 9.6-3.2 14.4-11.2 14.4-20.8v-22.4c0-14.4-12.8-24-25.6-20.8-20.8 4.8-35.2 14.4-44.8 22.4-11.2 8-17.6 12.8-32 12.8s-20.8-4.8-32-12.8c-14.4-11.2-35.2-25.6-72-25.6s-56 14.4-72 25.6c-11.2 8-17.6 12.8-32 12.8s-20.8-4.8-32-12.8c-14.4-11.2-35.2-25.6-72-25.6s-56 14.4-72 25.6c-11.2 8-17.6 12.8-32 12.8s-20.8-4.8-32-12.8c-14.4-11.2-35.2-25.6-72-25.6s-56 14.4-72 25.6c-11.2 8-17.6 12.8-32 12.8s-20.8-4.8-32-12.8c-11.2-8-24-17.6-44.8-22.4-12.8-3.2-25.6 8-25.6 20.8v22.4c0 9.6 6.4 17.6 14.4 20.8 6.4 1.6 11.2 6.4 17.6 11.2 11.2 11.2 32 25.6 68.8 25.6zM97.6 132.8c-1.6-6.4-1.6-12.8-1.6-20.8 0-41.6 44.8-88 83.2-88h683.2c38.4 0 83.2 46.4 83.2 88 0 6.4-1.6 14.4-3.2 20.8h-844.8zM851.2 334.4h-440l-67.2-67.2c-19.2-19.2-49.6-19.2-68.8 0l-67.2 67.2h-35.2c-41.6 0-76.8-33.6-76.8-76.8 0-41.6 33.6-76.8 76.8-76.8h680c41.6 0 76.8 33.6 76.8 76.8-1.6 41.6-36.8 76.8-78.4 76.8zM512 870.4c-225.6 0-412.8-147.2-438.4-332.8 0 0 0-3.2 0-4.8 0-20.8 20.8-40 46.4-40h782.4c25.6 0 46.4 17.6 46.4 40 0 1.6 0 4.8 0 4.8-24 187.2-211.2 332.8-436.8 332.8zM265.6 665.6c-6.4-9.6-19.2-12.8-28.8-6.4s-12.8 19.2-6.4 28.8c8 14.4 38.4 20.8 38.4 20.8s6.4-28.8-3.2-43.2zM398.4 612.8c-6.4-9.6-19.2-12.8-28.8-6.4s-12.8 19.2-6.4 28.8c8 14.4 38.4 20.8 38.4 20.8s6.4-30.4-3.2-43.2zM398.4 756.8c-6.4-9.6-19.2-12.8-28.8-6.4s-12.8 19.2-6.4 28.8c8 14.4 38.4 20.8 38.4 20.8s6.4-30.4-3.2-43.2zM539.2 708.8c-11.2-3.2-22.4 4.8-25.6 16-4.8 16 12.8 41.6 12.8 41.6s25.6-16 28.8-32c3.2-11.2-3.2-22.4-16-25.6z" />
<glyph unicode="&#xe92b;" glyph-name="food_honey" d="M595.2 672c9.6-16 30.4-19.2 46.4-9.6v0c16 9.6 19.2 30.4 9.6 46.4l-36.8 57.6 206.4 136c14.4 9.6 17.6 28.8 8 43.2v0c-9.6 14.4-28.8 17.6-43.2 8l-203.2-136-38.4 60.8c-9.6 16-30.4 19.2-46.4 9.6v0c-16-9.6-19.2-30.4-9.6-46.4l107.2-169.6zM803.2 491.2c38.4 30.4 54.4 81.6 28.8 134.4-17.6 35.2-57.6 57.6-100.8 57.6h-22.4v-56h22.4c16 0 32-8 41.6-20.8 28.8-41.6-4.8-84.8-46.4-84.8v0-44.8c44.8-27.2 76.8-62.4 96-100.8h-216c0 0-75.2 11.2-76.8 97.6v38.4c0 38.4 57.6 73.6 59.2 75.2 0 0 0 0 0 0v0c11.2 11.2 12.8 27.2 4.8 41.6l-44.8 70.4-96 152c-9.6 16-30.4 19.2-46.4 9.6v0c-16-9.6-19.2-30.4-9.6-46.4l96-150.4-22.4-12.8-76.8 121.6c-9.6 16-30.4 19.2-46.4 9.6v0c-16-9.6-19.2-30.4-9.6-46.4l76.8-120c0 0 30.4-51.2 30.4-105.6v-43.2c0 0-14.4-92.8-99.2-92.8v0c-9.6-12.8-25.6-40-28.8-49.6 0 0 0 0 0-1.6-3.2-6.4-4.8-14.4-6.4-20.8-3.2-20.8 3.2-38.4 8-48l88-171.2c6.4-11.2 0-24-12.8-28.8s-28.8 0-33.6 11.2l-86.4 168c-11.2 17.6-12.8 33.6-12.8 43.2-1.6 35.2 8 68.8 30.4 97.6h-83.2c17.6 40 51.2 75.2 96 100.8v44.8h-6.4c-14.4 0-28.8 6.4-38.4 17.6-32 41.6 0 88 44.8 88h24v56h-30.4c-43.2 0-83.2-22.4-100.8-57.6-25.6-52.8-9.6-104 28.8-134.4-60.8-51.2-94.4-115.2-94.4-184 0-28.8 6.4-56 17.6-83.2v0 0 0c1.6-4.8 4.8-9.6 6.4-14.4l75.2-163.2c38.4-83.2 126.4-108.8 224-108.8h121.6c97.6 0 185.6 25.6 224 108.8l72 163.2c1.6 4.8 4.8 9.6 6.4 14.4v0 0 0c11.2 27.2 17.6 54.4 17.6 83.2 1.6 68.8-33.6 134.4-92.8 185.6z" />
<glyph unicode="&#xe92c;" glyph-name="food_hotdog" d="M996.8 737.6c-25.6 44.8-76.8 65.6-120 59.2-6.4 11.2-14.4 20.8-24 28.8-44.8 38.4-108.8 44.8-164.8 17.6-14.4-6.4-25.6-14.4-38.4-24-136-120-305.6-200-483.2-230.4-14.4-3.2-28.8-6.4-43.2-14.4-56-27.2-91.2-81.6-89.6-139.2 0-11.2 3.2-24 6.4-35.2-30.4-25.6-46.4-70.4-33.6-121.6 12.8-52.8 73.6-104 142.4-91.2 0-1.6 0-1.6 0-3.2 3.2-41.6 25.6-81.6 60.8-110.4 36.8-30.4 84.8-43.2 131.2-38.4 118.4 14.4 232 46.4 337.6 97.6s203.2 118.4 288 201.6c33.6 32 52.8 78.4 52.8 126.4 0 43.2-16 84.8-44.8 113.6 51.2 48 48 115.2 22.4 163.2zM958.4 462.4c0-30.4-12.8-60.8-33.6-81.6-80-78.4-171.2-142.4-272-190.4s-206.4-78.4-318.4-91.2c-30.4-3.2-60.8 4.8-84.8 25.6-22.4 17.6-36.8 43.2-38.4 67.2-3.2 40 16 76.8 49.6 94.4 8 3.2 17.6 6.4 25.6 8 97.6 11.2 190.4 38.4 278.4 80s166.4 97.6 236.8 166.4c6.4 6.4 14.4 11.2 22.4 16 33.6 16 75.2 8 104-19.2 20.8-20.8 30.4-46.4 30.4-75.2zM182.4 371.2c-3.2 9.6 1.6 20.8 11.2 25.6 3.2 1.6 4.8 1.6 8 1.6 16 0 30.4-3.2 41.6-6.4 16-4.8 28.8-8 51.2 0 1.6 1.6 4.8 1.6 6.4 3.2 16 8 22.4 17.6 32 30.4 9.6 16 20.8 33.6 49.6 46.4 1.6 1.6 3.2 1.6 6.4 3.2 32 14.4 54.4 9.6 73.6 6.4 17.6-3.2 28.8-6.4 51.2 4.8 20.8 9.6 27.2 20.8 35.2 36.8 9.6 17.6 19.2 38.4 51.2 54.4 1.6 1.6 4.8 1.6 6.4 3.2 27.2 12.8 49.6 11.2 67.2 9.6 14.4-1.6 27.2-3.2 43.2 4.8 1.6 1.6 4.8 1.6 6.4 3.2 20.8 11.2 25.6 24 32 40 4.8 11.2 9.6 24 20.8 36.8 1.6 1.6 4.8 3.2 6.4 4.8 9.6 4.8 20.8 1.6 27.2-8 4.8-8 4.8-17.6-1.6-25.6s-9.6-16-12.8-24c-8-19.2-17.6-40-49.6-59.2-3.2-1.6-6.4-3.2-9.6-4.8-27.2-12.8-48-11.2-67.2-9.6-16 1.6-27.2 3.2-44.8-4.8-1.6 0-3.2-1.6-3.2-1.6-20.8-11.2-25.6-20.8-33.6-36.8-11.2-20.8-22.4-41.6-56-57.6s-57.6-11.2-76.8-8c-17.6 3.2-28.8 6.4-49.6-3.2-1.6 0-3.2-1.6-4.8-1.6-17.6-8-24-19.2-32-32-9.6-16-20.8-33.6-49.6-46.4-3.2-1.6-6.4-3.2-9.6-4.8-35.2-12.8-57.6-6.4-78.4-1.6-9.6 3.2-17.6 4.8-27.2 4.8-9.6 1.6-17.6 6.4-20.8 16zM92.8 424c-1.6 4.8-1.6 8-1.6 12.8-1.6 35.2 20.8 68.8 57.6 86.4 9.6 4.8 19.2 8 27.2 9.6 188.8 32 368 116.8 512 244.8 8 6.4 16 11.2 24 16 35.2 17.6 76.8 12.8 102.4-9.6 3.2-3.2 6.4-6.4 8-9.6-211.2-172.8-460.8-292.8-729.6-350.4z" />
<glyph unicode="&#xe92d;" glyph-name="food_icecream" d="M489.6 777.6l16 8c27.2 12.8 54.4 19.2 84.8 19.2 22.4 0 44.8-4.8 65.6-11.2-6.4 88-80 158.4-171.2 158.4s-164.8-72-169.6-163.2c24 9.6 49.6 16 75.2 16 36.8 0 70.4-9.6 99.2-27.2zM812.8 532.8h-25.6c3.2 14.4 6.4 30.4 6.4 46.4 0 102.4-83.2 185.6-185.6 185.6-28.8 0-57.6-6.4-81.6-19.2 51.2-38.4 83.2-99.2 83.2-166.4 0-16-1.6-32-4.8-46.4h-48c3.2 14.4 6.4 30.4 6.4 46.4 0 102.4-83.2 185.6-185.6 185.6s-185.6-83.2-185.6-185.6c0-16 1.6-32 6.4-46.4h-6.4c-20.8 0-36.8-16-36.8-36.8s16-36.8 36.8-36.8h620.8c20.8 0 36.8 16 36.8 36.8 1.6 19.2-16 36.8-36.8 36.8zM264 638.4c0 0 0 0 0 0 0 1.6 1.6 3.2 1.6 3.2 17.6 28.8 41.6 51.2 72 65.6 1.6 1.6 4.8 1.6 8 1.6 8 0 14.4-6.4 14.4-14.4 0-6.4-4.8-12.8-9.6-14.4-24-11.2-44.8-28.8-59.2-52.8 0-1.6-1.6-1.6-1.6-3.2v0 0c-3.2-3.2-6.4-6.4-12.8-6.4-8 0-14.4 6.4-14.4 14.4 0 1.6 1.6 4.8 1.6 6.4 0 0 0 0 0 0zM289.6 417.6h-65.6l30.4-59.2 190.4-366.4c12.8-25.6 40-40 68.8-40 30.4 0 56 16 68.8 40l190.4 366.4 30.4 59.2h-513.6zM483.2 6.4c8-9.6 19.2-14.4 30.4-14.4 0 0 0 0 0 0-11.2 0-22.4 4.8-30.4 14.4zM563.2 41.6l-51.2 33.6-48-33.6-11.2 20.8 38.4 25.6-68.8 46.4-6.4-3.2-28.8 56 35.2-24 68.8 46.4-68.8 46.4-52.8-35.2-11.2 20.8 43.2 28.8-89.6 65.6-22.4 41.6h1.6l131.2-91.2 68.8 46.4-65.6 44.8h41.6l44.8-30.4 44.8 30.4h41.6l-65.6-44.8 68.8-46.4 136 91.2-22.4-43.2-91.2-62.4 44.8-30.4-11.2-20.8-54.4 36.8-68.8-46.4 68.8-46.4 38.4 27.2-32-60.8-8 4.8-68.8-46.4 40-27.2-9.6-20.8zM582.4 260.8l-68.8 46.4-68.8-46.4 68.8-48zM513.6 185.6l-68.8-46.4 68.8-48 68.8 48z" />
<glyph unicode="&#xe92e;" glyph-name="food_ice-water" d="M864 894.4l-176 19.2c-12.8 1.6-24-3.2-32-12.8-3.2-3.2-4.8-6.4-6.4-9.6l-73.6-169.6h-352c-52.8 0-94.4-43.2-94.4-94.4v-195.2c0-44.8 16-96 16-96s76.8-241.6 81.6-254.4c16-51.2 32-97.6 128-97.6h251.2c100.8 0 116.8 49.6 132.8 100.8 4.8 12.8 75.2 233.6 80 251.2v0c6.4 17.6 16 52.8 16 97.6v195.2c0 51.2-41.6 92.8-92.8 92.8h-88l52.8 120 150.4-17.6c19.2-1.6 36.8 11.2 38.4 30.4s-12.8 36.8-32 40zM248 529.6l-4.8-72h-44.8v168c0 14.4 11.2 25.6 25.6 25.6h321.6l-48-107.2c-3.2 11.2-9.6 20.8-17.6 30.4-16 17.6-36.8 28.8-60.8 30.4l-78.4 6.4c-1.6 0-4.8 0-6.4 0v0c-44.8 0-83.2-35.2-86.4-81.6zM328 416c-16 1.6-28.8 16-27.2 32l6.4 78.4c1.6 16 14.4 27.2 28.8 27.2 0 0 1.6 0 1.6 0l78.4-6.4c16-1.6 28.8-16 27.2-32l-6.4-78.4c-1.6-16-14.4-27.2-28.8-27.2 0 0-1.6 0-1.6 0l-78.4 6.4zM518.4 278.4l-24-73.6c-4.8-16-20.8-24-36.8-19.2l-73.6 22.4c-16 4.8-24 20.8-19.2 36.8l24 73.6c4.8 16 20.8 24 36.8 19.2l73.6-24c16-3.2 24-19.2 19.2-35.2zM675.2 385.6l-64-44.8c-4.8-3.2-11.2-4.8-17.6-4.8-9.6 0-19.2 4.8-24 12.8l-44.8 64c-3.2 4.8-4.8 8-4.8 12.8l12.8 27.2 64 44.8c4.8 3.2 11.2 4.8 17.6 4.8 9.6 0 19.2-4.8 24-12.8l44.8-64c9.6-12.8 6.4-30.4-8-40zM740.8 652.8c12.8 0 24-11.2 24-24v-171.2h-32c0 1.6-1.6 1.6-1.6 3.2l-44.8 64c-16 24-43.2 36.8-72 36.8v0c-12.8 0-24-3.2-35.2-8l43.2 99.2h118.4z" />
<glyph unicode="&#xe92f;" glyph-name="food_knife" d="M8 198.4c0 0 1.6 80 110.4 161.6l446.4 291.2 140.8-217.6c-176-124.8-361.6-206.4-603.2-252.8l-11.2-54.4c216 33.6 419.2 97.6 644.8 262.4l46.4-72c0 0-388.8-272-780.8-267.2l6.4 148.8zM700.8 526.4l145.6 94.4c36.8-20.8 84.8-20.8 123.2 4.8 54.4 36.8 70.4 110.4 35.2 166.4s-112 72-166.4 35.2l-233.6-152 96-148.8zM875.2 708.8c-9.6 16-6.4 36.8 9.6 46.4s36.8 6.4 46.4-9.6c9.6-16 6.4-36.8-9.6-46.4-16-11.2-36.8-6.4-46.4 9.6z" />
<glyph unicode="&#xe930;" glyph-name="food_lemon" d="M923.2 651.2l-49.6 11.2c-30.4 6.4-94.4 56-94.4 56-99.2 75.2-241.6 89.6-382.4 33.6s-235.2-168-256-291.2c0 0-12.8-75.2-30.4-100.8l-28.8-41.6c-16-30.4-1.6-64 28.8-73.6l48-11.2c25.6-6.4 73.6-40 86.4-49.6 99.2-76.8 249.6-97.6 392-41.6s240 174.4 259.2 299.2c3.2 14.4 14.4 72 28.8 94.4l27.2 41.6c16 28.8 3.2 62.4-28.8 73.6zM384 592c-48-40-81.6-94.4-96-155.2-4.8-19.2-22.4-32-41.6-28.8s-33.6 25.6-28.8 49.6c17.6 73.6 59.2 140.8 116.8 190.4 19.2 16 44.8 12.8 56-3.2 12.8-19.2 8-40-6.4-52.8z" />
<glyph unicode="&#xe931;" glyph-name="food_lime" d="M387.2 760c-36.8-8-72-22.4-102.4-41.6-17.6-11.2-19.2-36.8-4.8-51.2l88-88c20.8-20.8 57.6-6.4 57.6 24v124.8c0 20.8-19.2 36.8-38.4 32zM196.8 502.4h118.4c30.4 0 44.8 36.8 24 57.6l-83.2 81.6c-14.4 14.4-40 12.8-51.2-4.8-19.2-28.8-32-60.8-40-96-4.8-19.2 11.2-38.4 32-38.4zM320 467.2h-124.8c-20.8 0-36.8-19.2-33.6-38.4 6.4-36.8 20.8-72 41.6-104 11.2-17.6 36.8-19.2 51.2-4.8l89.6 89.6c20.8 20.8 6.4 57.6-24 57.6zM518.4 584l84.8 84.8c16 16 12.8 40-6.4 52.8-28.8 19.2-62.4 32-97.6 40-20.8 4.8-40-12.8-40-33.6v-120c1.6-30.4 38.4-44.8 59.2-24zM566.4 502.4h123.2c20.8 0 36.8 19.2 33.6 40-8 36.8-22.4 70.4-43.2 99.2-11.2 17.6-36.8 19.2-51.2 4.8l-86.4-86.4c-20.8-22.4-6.4-57.6 24-57.6zM369.6 385.6l-91.2-91.2c-14.4-14.4-12.8-40 4.8-51.2 30.4-20.8 65.6-36.8 104-43.2 20.8-4.8 40 12.8 40 33.6v129.6c-1.6 28.8-36.8 43.2-57.6 22.4zM692.8 467.2h-131.2c-30.4 0-44.8-36.8-24-57.6l92.8-92.8c14.4-14.4 40-12.8 51.2 4.8 20.8 32 36.8 67.2 43.2 107.2 4.8 19.2-11.2 38.4-32 38.4zM500.8 200c36.8 8 70.4 22.4 100.8 41.6 17.6 11.2 19.2 36.8 4.8 51.2l-88 88c-20.8 20.8-57.6 6.4-57.6-24v-123.2c0-22.4 19.2-38.4 40-33.6zM958.4 326.4c70.4 339.2-312 515.2-312 515.2-59.2 33.6-129.6 54.4-203.2 54.4-228.8 0-416-185.6-416-416 0-233.6 142.4-326.4 172.8-350.4 59.2-44.8 366.4-284.8 681.6 30.4 44.8-12.8 94.4 8 113.6 49.6 20.8 44.8 3.2 94.4-36.8 116.8zM102.4 480c0 188.8 153.6 342.4 342.4 342.4s342.4-153.6 342.4-342.4-153.6-342.4-342.4-342.4c-190.4 0-342.4 153.6-342.4 342.4z" />
<glyph unicode="&#xe932;" glyph-name="food_macaron" d="M963.2 563.2v4.8c0 25.6-20.8 46.4-44.8 48-33.6 92.8-116.8 163.2-217.6 174.4v0c-212.8 25.6-376 0-376 0-100.8-11.2-184-80-217.6-172.8-25.6-1.6-44.8-22.4-44.8-48v-4.8c0-27.2 22.4-48 48-48h22.4c-11.2-20.8-19.2-43.2-19.2-68.8s6.4-48 19.2-68.8h-22.4c-27.2 0-48-22.4-48-48v-4.8c0-25.6 20.8-46.4 44.8-48 33.6-92.8 116.8-163.2 217.6-174.4 0 0 161.6-25.6 376 0v0c100.8 11.2 185.6 81.6 217.6 174.4 25.6 1.6 44.8 22.4 44.8 48v4.8c0 27.2-22.4 48-48 48h-22.4c11.2 20.8 19.2 43.2 19.2 68.8s-6.4 48-19.2 68.8h22.4c27.2-1.6 48 20.8 48 46.4zM204.8 646.4c0 3.2 1.6 4.8 3.2 8 0 0 0 0 0 0s0 0 0 0c1.6 1.6 1.6 3.2 3.2 4.8 30.4 38.4 72 65.6 116.8 78.4 3.2 1.6 8 1.6 12.8 1.6 12.8-1.6 20.8-12.8 19.2-25.6-1.6-9.6-9.6-17.6-17.6-19.2-36.8-11.2-70.4-33.6-96-64-1.6-1.6-1.6-3.2-3.2-3.2 0 0 0 0 0 0v0c-4.8-4.8-11.2-8-19.2-6.4-12.8 3.2-20.8 12.8-19.2 25.6zM252.8 377.6c-32 0-59.2 22.4-67.2 51.2h654.4c-8-30.4-35.2-51.2-67.2-51.2h-520zM840 464h-654.4c8 30.4 35.2 51.2 67.2 51.2h521.6c32 0 59.2-22.4 65.6-51.2z" />
<glyph unicode="&#xe933;" glyph-name="food_meat" d="M1001.6 180.8c33.6 51.2 20.8 120-30.4 153.6-46.4 30.4-107.2 22.4-144-17.6l-41.6 27.2c68.8 160 16 353.6-134.4 454.4 0 0-84.8 52.8-86.4 54.4-116.8 78.4-300.8 43.2-432-89.6-144-145.6-169.6-353.6-57.6-464 8-8 22.4-19.2 20.8-19.2l140.8-96c137.6-92.8 315.2-81.6 438.4 17.6l49.6-33.6c-28.8-49.6-12.8-113.6 35.2-147.2 51.2-33.6 120-20.8 153.6 30.4 16 24 22.4 54.4 16 83.2 28.8 4.8 54.4 20.8 72 46.4zM91.2 507.2c8 68.8 44.8 139.2 100.8 196.8 51.2 51.2 115.2 88 177.6 100.8 56 11.2 108.8 3.2 145.6-20.8v0c6.4-4.8 14.4-9.6 20.8-16 35.2-35.2 49.6-88 43.2-148.8-8-68.8-44.8-139.2-100.8-196.8-51.2-51.2-115.2-88-177.6-100.8-56-11.2-108.8-3.2-145.6 20.8-6.4 4.8-14.4 9.6-20.8 16-35.2 35.2-51.2 88-43.2 148.8zM862.4 145.6c14.4-17.6 16-43.2 3.2-62.4-16-24-48-30.4-72-14.4s-30.4 48-14.4 72c1.6 3.2 4.8 6.4 9.6 9.6 6.4 6.4 11.2 14.4 9.6 24 0 9.6-4.8 17.6-12.8 22.4l-25.6 17.6 35.2 52.8 24-16c6.4-4.8 16-6.4 24-3.2 8 1.6 16 8 19.2 16 1.6 3.2 3.2 4.8 4.8 8 16 24 48 30.4 72 14.4s30.4-48 14.4-72c-12.8-19.2-36.8-27.2-59.2-20.8-12.8 3.2-25.6-1.6-33.6-11.2-8-12.8-6.4-27.2 1.6-36.8zM422.4 476.8c76.8 78.4 100.8 179.2 52.8 227.2-30.4 30.4-80 30.4-132.8 9.6l16-100.8c8 0 14.4-1.6 19.2-6.4 14.4-14.4 8-44.8-16-67.2-22.4-24-52.8-30.4-67.2-16s-8 44.8 16 67.2c3.2 3.2 6.4 4.8 8 8l-16 96c-19.2-11.2-36.8-27.2-54.4-44.8-76.8-78.4-100.8-179.2-52.8-227.2s148.8-24 227.2 54.4z" />
<glyph unicode="&#xe934;" glyph-name="food_milk" d="M758.4 902.4c0 0 0 0 0 0s0 0 0 0v0zM265.6 902.4v0c0 0 0 0 0 0s0 0 0 0zM297.6 822.4h430.4c0 0 27.2 62.4 27.2 64 0 0 1.6 11.2 1.6 16 0 33.6-25.6 57.6-59.2 57.6h-368c-33.6 0-64-24-64-57.6 0-6.4 3.2-11.2 4.8-17.6l27.2-62.4zM788.8 556.8l-62.4 142.4v78.4h-430.4v-78.4l-62.4-142.4c-3.2-8-22.4-56-22.4-120v-350.4c0-84.8 72-150.4 155.2-150.4h291.2c84.8 0 152 67.2 152 150.4v350.4c1.6 65.6-16 112-20.8 120zM286.4 529.6l35.2 92.8c6.4 16 25.6 25.6 41.6 19.2s25.6-24 19.2-41.6l-35.2-92.8c-6.4-16-25.6-25.6-41.6-19.2v0c-17.6 6.4-25.6 25.6-19.2 41.6zM444.8 196.8c0-6.4-1.6-11.2-6.4-14.4-4.8-4.8-9.6-6.4-16-6.4s-11.2 1.6-16 6.4c-4.8 4.8-6.4 9.6-6.4 14.4v75.2c0 3.2-1.6 4.8-3.2 8-1.6 1.6-4.8 3.2-8 3.2s-4.8-1.6-8-3.2c-1.6-1.6-3.2-4.8-3.2-8v-75.2c0-6.4-1.6-11.2-6.4-14.4-4.8-4.8-9.6-6.4-16-6.4s-11.2 1.6-16 6.4c-4.8 4.8-6.4 9.6-6.4 14.4v75.2c0 3.2-1.6 4.8-3.2 8-1.6 1.6-4.8 3.2-8 3.2s-4.8-1.6-8-3.2c-1.6-1.6-3.2-4.8-3.2-8v-75.2c0-6.4-1.6-11.2-6.4-14.4-4.8-4.8-9.6-6.4-16-6.4s-11.2 1.6-16 6.4c-4.8 4.8-6.4 9.6-6.4 14.4v107.2c0 6.4 1.6 11.2 6.4 14.4 4.8 4.8 9.6 6.4 16 6.4 4.8 0 8-1.6 12.8-3.2 6.4 3.2 12.8 3.2 20.8 3.2 12.8 0 22.4-3.2 32-11.2 9.6 6.4 20.8 11.2 32 11.2 14.4 0 27.2-4.8 38.4-16s16-22.4 16-38.4v-73.6zM515.2 196.8c0-6.4-1.6-11.2-6.4-14.4-4.8-4.8-9.6-6.4-16-6.4s-11.2 1.6-16 6.4c-4.8 4.8-6.4 9.6-6.4 14.4v107.2c0 6.4 1.6 11.2 6.4 14.4 4.8 4.8 9.6 6.4 16 6.4s11.2-1.6 16-6.4c4.8-4.8 6.4-9.6 6.4-14.4v-107.2zM508.8 353.6c-4.8-4.8-9.6-6.4-16-6.4s-11.2 1.6-16 6.4c-4.8 4.8-6.4 9.6-6.4 14.4 0 6.4 1.6 11.2 6.4 14.4 4.8 4.8 9.6 6.4 16 6.4s11.2-1.6 16-6.4c4.8-4.8 6.4-9.6 6.4-14.4s-1.6-9.6-6.4-14.4zM585.6 196.8c0-6.4-1.6-11.2-6.4-14.4-4.8-4.8-9.6-6.4-16-6.4s-11.2 1.6-16 6.4c-4.8 4.8-6.4 9.6-6.4 14.4v128c0 6.4 1.6 11.2 6.4 14.4 4.8 4.8 9.6 6.4 16 6.4s11.2-1.6 16-6.4c4.8-4.8 6.4-9.6 6.4-14.4v-128zM736 212.8c4.8-4.8 6.4-9.6 6.4-16s-1.6-11.2-6.4-14.4c-4.8-4.8-9.6-6.4-16-6.4s-11.2 1.6-16 6.4l-27.2 35.2-24-30.4c-1.6-1.6-1.6-3.2-3.2-4.8-4.8-4.8-9.6-6.4-16-6.4s-11.2 1.6-16 6.4c-4.8 4.8-6.4 9.6-6.4 14.4v128c0 6.4 1.6 11.2 6.4 14.4 4.8 4.8 9.6 6.4 16 6.4s11.2-1.6 16-6.4c4.8-4.8 6.4-9.6 6.4-14.4v-67.2l49.6 60.8c4.8 4.8 9.6 6.4 16 6.4s11.2-1.6 16-6.4c4.8-4.8 6.4-9.6 6.4-14.4 0-6.4-1.6-11.2-6.4-14.4l-32-38.4 30.4-38.4z" />
<glyph unicode="&#xe935;" glyph-name="food_muffin" d="M832 617.6c-32 140.8-160 249.6-315.2 249.6-1.6 0-6.4 0-8 0-155.2 0-284.8-108.8-316.8-249.6-60.8-11.2-107.2-64-107.2-128 0-72 59.2-131.2 131.2-131.2 28.8 0 56 9.6 76.8 25.6 14.4-46.4 57.6-78.4 108.8-78.4s96 33.6 110.4 81.6c14.4-46.4 59.2-81.6 110.4-81.6s94.4 33.6 108.8 78.4c20.8-16 48-25.6 76.8-25.6 72 0 131.2 59.2 131.2 131.2-1.6 64-46.4 116.8-107.2 128zM436.8 750.4c-38.4-17.6-72-46.4-92.8-84.8 0-1.6-1.6-3.2-3.2-4.8 0 0 0 0 0 0v0c-4.8-6.4-11.2-9.6-19.2-9.6-12.8 0-24 11.2-24 24 0 3.2 0 6.4 1.6 9.6 0 0 0 0 0 0s0 0 0 0c0 1.6 1.6 3.2 3.2 4.8 27.2 46.4 67.2 81.6 113.6 104 3.2 1.6 8 3.2 12.8 3.2 12.8 0 24-11.2 24-24 0-9.6-6.4-19.2-16-22.4zM808 315.2c-22.4 0-43.2 4.8-62.4 12.8-4.8-6.4-9.6-12.8-16-19.2l-38.4-172.8c-3.2-14.4-17.6-24-32-20.8v0c-14.4 3.2-24 17.6-20.8 32l27.2 120c-14.4-4.8-28.8-6.4-43.2-6.4-30.4 0-59.2 9.6-83.2 25.6v-147.2c0-14.4-12.8-27.2-27.2-27.2s-27.2 12.8-27.2 27.2v147.2c-24-16-52.8-25.6-83.2-25.6-14.4 0-28.8 1.6-43.2 6.4l27.2-120c3.2-14.4-6.4-28.8-20.8-32s-28.8 6.4-32 20.8l-38.4 172.8c-4.8 6.4-11.2 12.8-16 19.2-19.2-8-40-12.8-62.4-12.8-6.4 0-12.8 0-19.2 1.6l48-152c19.2-83.2 80-134.4 155.2-134.4h224c75.2 0 134.4 52.8 155.2 134.4l48 152c-6.4-1.6-12.8-1.6-19.2-1.6z" />
<glyph unicode="&#xe936;" glyph-name="food_mushrooms" d="M224 292.8v-104c0-60.8 49.6-112 112-112h41.6c60.8 0 112 49.6 112 112v104c-113.6-19.2-196.8-12.8-265.6 0zM816 612.8c-131.2 32-273.6-30.4-294.4-168-24-155.2 350.4-316.8 481.6-124.8 62.4 92.8-56 259.2-187.2 292.8zM748.8 548.8c-1.6-8-9.6-14.4-17.6-14.4-35.2-6.4-67.2-24-92.8-49.6-1.6-1.6-14.4-8-20.8-6.4-11.2 3.2-17.6 14.4-14.4 24 14.4 43.2 99.2 76.8 131.2 72 11.2-3.2 17.6-16 14.4-25.6zM675.2 656c-52.8 89.6-176 182.4-321.6 182.4-187.2 0-364.8-137.6-347.2-331.2 12.8-137.6 273.6-222.4 488-166.4-46.4 48-51.2 270.4 180.8 315.2zM267.2 705.6c-44.8-20.8-83.2-54.4-107.2-97.6-4.8-8-16-16-25.6-16-14.4 0-28.8 12.8-27.2 27.2 1.6 30.4 73.6 105.6 128 131.2 4.8 3.2 22.4 8 27.2 8 16 0 24-12.8 24-27.2-1.6-12.8-9.6-22.4-19.2-25.6zM603.2 164.8c-11.2-43.2 16-86.4 59.2-97.6l30.4-8c43.2-11.2 86.4 16 97.6 59.2l17.6 73.6c-80 0-128 16-185.6 49.6l-19.2-76.8z" />
<glyph unicode="&#xe937;" glyph-name="food_noodles" d="M966.4 699.2l-416-3.2c-1.6 32-14.4 49.6-24 62.4-8 9.6-11.2 16-12.8 27.2l400 60.8c22.4 3.2 38.4 24 33.6 46.4-3.2 22.4-24 38.4-46.4 33.6l-380.8-64c-1.6 17.6-16 32-33.6 32-19.2 0-33.6-16-33.6-33.6v-9.6l-73.6-12.8v4.8c0 19.2-16 33.6-33.6 33.6-19.2 0-33.6-16-33.6-33.6v-16l-73.6-12.8v17.6c0 19.2-16 33.6-33.6 33.6-19.2 0-33.6-16-33.6-33.6v-28.8l-80-12.8c-22.4-3.2-38.4-19.2-33.6-41.6 3.2-22.4 24-32 46.4-27.2l81.6 12.8c3.2-4.8 6.4-9.6 9.6-12.8 8-9.6 11.2-16 12.8-27.2h-41.6c-22.4 0-41.6-12.8-41.6-35.2s17.6-35.2 41.6-35.2h9.6c-3.2-8-4.8-19.2-4.8-30.4 0-35.2 14.4-54.4 24-67.2 8-11.2 12.8-16 12.8-30.4s-4.8-19.2-12.8-30.4c-9.6-14.4-24-32-24-67.2 0-1.6 0-4.8 0-6.4h-153.6v-40c0-161.6 121.6-294.4 276.8-308.8v-68.8h374.4v68.8c155.2 14.4 276.8 148.8 276.8 308.8v40h-432c0 1.6 0 3.2 0 6.4 0 14.4 4.8 19.2 12.8 30.4 9.6 14.4 24 32 24 67.2s-14.4 54.4-24 67.2c-8 11.2-12.8 16-12.8 30.4 0 12.8 3.2 19.2 11.2 28.8l441.6-3.2c22.4 0 41.6 17.6 41.6 41.6-1.6 19.2-19.2 38.4-41.6 38.4zM315.2 753.6c4.8-14.4 12.8-25.6 19.2-33.6 8-9.6 11.2-16 12.8-27.2h-81.6c0 22.4-8 38.4-14.4 51.2l64 9.6zM273.6 128c-6.4-8-17.6-9.6-27.2-3.2-70.4 41.6-126.4 108.8-156.8 192-4.8 12.8 4.8 28.8 20.8 28.8 9.6 0 17.6-6.4 20.8-14.4 30.4-83.2 84.8-137.6 139.2-168 9.6-8 12.8-24 3.2-35.2zM334.4 462.4c-9.6-14.4-24-32-24-67.2 0-1.6 0-4.8 0-6.4h-80c0 1.6 0 3.2 0 6.4 0 14.4 4.8 19.2 12.8 30.4 9.6 14.4 24 32 24 67.2s-14.4 54.4-24 67.2c-8 11.2-12.8 16-12.8 30.4s4.8 19.2 12.8 30.4h72c-3.2-8-4.8-17.6-4.8-30.4 0-35.2 14.4-54.4 24-67.2 8-11.2 12.8-16 12.8-30.4-1.6-12.8-4.8-19.2-12.8-30.4zM452.8 776c3.2-27.2 14.4-43.2 24-54.4 6.4-9.6 11.2-14.4 12.8-25.6h-80c-1.6 32-14.4 49.6-24 62.4-1.6 1.6-3.2 4.8-4.8 6.4l72 11.2zM476.8 462.4c-9.6-14.4-24-32-24-67.2 0-1.6 0-4.8 0-6.4h-80c0 1.6 0 3.2 0 6.4 0 14.4 4.8 19.2 12.8 30.4 9.6 14.4 24 32 24 67.2s-14.4 54.4-24 67.2c-8 11.2-12.8 16-12.8 30.4s3.2 19.2 11.2 28.8h73.6c-1.6-8-3.2-17.6-3.2-28.8 0-35.2 14.4-54.4 24-67.2 8-11.2 12.8-16 12.8-30.4-3.2-12.8-6.4-19.2-14.4-30.4z" />
<glyph unicode="&#xe938;" glyph-name="food_oat" d="M459.2 731.2c-12.8 0-24-11.2-24-24v-81.6h-51.2v196.8c0 12.8-11.2 24-24 24s-24-11.2-24-24v-196.8h-52.8v200c0 12.8-11.2 24-24 24s-24-11.2-24-24v-198.4h-56v81.6c0 12.8-11.2 24-24 24s-24-11.2-24-24v-465.6c0-76.8 57.6-140.8 131.2-150.4v-108.8c0-25.6 20.8-44.8 44.8-44.8 25.6 0 44.8 20.8 44.8 44.8v107.2c70.4 12.8 124.8 75.2 124.8 150.4v465.6c4.8 12.8-4.8 24-17.6 24zM342.4 548.8v0c11.2-9.6 17.6-25.6 17.6-41.6s-6.4-30.4-17.6-41.6l-38.4-36.8-38.4 38.4c-11.2 9.6-17.6 25.6-17.6 41.6s6.4 30.4 17.6 41.6v0l38.4 38.4 38.4-40zM276.8 414.4c11.2-11.2 17.6-27.2 16-41.6v-54.4h-54.4c-14.4 0-30.4 4.8-41.6 16s-17.6 27.2-16 41.6v0 54.4h54.4c14.4 0 30.4-4.8 41.6-16zM198.4 195.2c-11.2 11.2-17.6 27.2-16 41.6v0 54.4h54.4c14.4 0 30.4-4.8 41.6-16s17.6-27.2 16-41.6v-54.4h-54.4c-14.4-1.6-30.4 3.2-41.6 16zM433.6 236.8v0c0-14.4-4.8-30.4-16-41.6s-27.2-17.6-41.6-16v0h-54.4v54.4c0 14.4 4.8 30.4 16 41.6s27.2 17.6 41.6 16v0h54.4v-54.4zM433.6 376v0c0-14.4-4.8-30.4-16-41.6s-27.2-17.6-41.6-16v0h-54.4v54.4c0 14.4 4.8 30.4 16 41.6s27.2 17.6 41.6 16v0h54.4v-54.4zM857.6 870.4c-12.8 0-24-11.2-24-24v-108.8h-51.2v193.6c0 12.8-11.2 24-24 24-11.2 0-22.4-11.2-22.4-24v-193.6h-52.8v195.2c0 12.8-11.2 24-24 24s-24-11.2-24-24v-195.2h-56v110.4c0 12.8-11.2 24-24 24s-24-11.2-24-24v-609.6c0-76.8 57.6-140.8 131.2-150.4v-104c0-25.6 20.8-44.8 44.8-44.8 25.6 0 44.8 20.8 44.8 44.8v104c70.4 12.8 124.8 75.2 124.8 150.4v609.6c3.2 12.8-6.4 22.4-19.2 22.4zM638.4 156.8v0c-14.4 0-30.4 4.8-41.6 16s-17.6 27.2-16 41.6v0 54.4h54.4c14.4 0 30.4-4.8 41.6-16s17.6-27.2 16-41.6v-54.4h-54.4zM638.4 296v0c-14.4 0-30.4 4.8-41.6 16s-17.6 27.2-16 41.6v0 54.4h54.4c14.4 0 30.4-4.8 41.6-16s17.6-27.2 16-41.6v-54.4h-54.4zM638.4 436.8v0c-14.4 0-30.4 4.8-41.6 16s-17.6 27.2-16 41.6v0 54.4h54.4c14.4 0 30.4-4.8 41.6-16s17.6-27.2 16-41.6v-54.4h-54.4zM702.4 547.2l-38.4 38.4c-11.2 9.6-17.6 25.6-17.6 41.6s6.4 30.4 17.6 41.6v0l38.4 38.4 38.4-38.4c11.2-9.6 17.6-25.6 17.6-41.6s-6.4-30.4-17.6-41.6l-38.4-38.4zM832 216v0c0-14.4-4.8-30.4-16-41.6s-27.2-17.6-41.6-16v0h-54.4v54.4c0 14.4 4.8 30.4 16 41.6s27.2 17.6 41.6 16v0h54.4v-54.4zM832 355.2v0c0-14.4-4.8-30.4-16-41.6s-27.2-17.6-41.6-16v0h-54.4v54.4c0 14.4 4.8 30.4 16 41.6s27.2 17.6 41.6 16v0h54.4v-54.4zM832 494.4v0c0-14.4-4.8-30.4-16-41.6s-27.2-17.6-41.6-16v0h-54.4v54.4c0 14.4 4.8 30.4 16 41.6s27.2 17.6 41.6 16v0h54.4v-54.4z" />
<glyph unicode="&#xe939;" glyph-name="food_onion" d="M912 396.8c0 132.8-83.2 248-204.8 308.8v0c0 0 0 0-1.6 0-9.6 4.8-19.2 9.6-30.4 12.8 0 0 0 0-1.6 0-62.4 30.4-73.6 54.4-73.6 54.4-17.6 25.6-4.8 73.6 9.6 110.4 4.8 14.4-11.2 25.6-22.4 16-4.8-4.8-9.6-8-14.4-12.8-22.4-22.4-60.8-19.2-80 8s-41.6 48-60.8 60.8c-11.2 8-27.2-1.6-22.4-16 41.6-150.4 6.4-168 6.4-168-46.4-38.4-131.2-84.8-131.2-84.8h1.6c-105.6-62.4-174.4-168-174.4-289.6 0-148.8 105.6-276.8 254.4-328-9.6-17.6-16-35.2-17.6-52.8 0-1.6 0-4.8 0-6.4 0 0 0 0 0 0v0c0-9.6 1.6-17.6 8-24 0 0 19.2-17.6 43.2-3.2l35.2 24c3.2 1.6 6.4 3.2 9.6 3.2v0c11.2 0 16-16 16-16v0l6.4-22.4c9.6-28.8 57.6-59.2 88 0l6.4 22.4c0 0 3.2 11.2 12.8 14.4h8c1.6 0 3.2-1.6 6.4-1.6l35.2-25.6c24-14.4 41.6 3.2 41.6 3.2 6.4 6.4 9.6 14.4 8 24v0c0 0 0 0 0 0 0 1.6 0 3.2 0 4.8-1.6 17.6-8 36.8-17.6 54.4 150.4 52.8 256 180.8 256 329.6zM558.4 644.8c3.2 1.6 6.4 3.2 9.6 3.2 8 0 16-4.8 20.8-12.8 65.6-142.4 65.6-307.2 0-449.6-3.2-8-11.2-12.8-20.8-12.8-3.2 0-6.4 1.6-9.6 3.2-11.2 4.8-14.4 17.6-9.6 28.8 60.8 131.2 60.8 281.6 0 412.8-4.8 9.6 0 22.4 9.6 27.2zM433.6 635.2c3.2 8 11.2 12.8 20.8 12.8 3.2 0 6.4-1.6 9.6-3.2 11.2-4.8 14.4-17.6 9.6-28.8-60.8-131.2-60.8-281.6 0-412.8 4.8-11.2 0-24-9.6-28.8-3.2-1.6-6.4-3.2-9.6-3.2-8 0-16 4.8-20.8 12.8-67.2 144-67.2 307.2 0 451.2zM336 200c9.6-8 11.2-20.8 4.8-30.4-4.8-6.4-11.2-9.6-19.2-9.6-4.8 0-9.6 1.6-14.4 4.8-70.4 59.2-112 145.6-112 238.4s40 179.2 112 238.4c3.2 3.2 9.6 4.8 14.4 4.8 6.4 0 14.4-3.2 17.6-9.6 6.4-9.6 4.8-22.4-4.8-30.4-60.8-51.2-96-124.8-96-204.8s36.8-152 97.6-201.6zM508.8-51.2c1.6 0 1.6 0 0 0 1.6 0 0 0 0 0zM708.8 164.8c-3.2-3.2-9.6-4.8-14.4-4.8-6.4 0-14.4 3.2-17.6 9.6-6.4 9.6-4.8 22.4 3.2 30.4 60.8 51.2 96 124.8 96 204.8s-35.2 153.6-96 204.8c-9.6 8-11.2 20.8-3.2 30.4 4.8 6.4 11.2 9.6 17.6 9.6 4.8 0 9.6-1.6 14.4-4.8 70.4-59.2 112-145.6 112-238.4 0-96-41.6-182.4-112-241.6z" />
<glyph unicode="&#xe93a;" glyph-name="food_orange" d="M558.4 739.2v41.6c60.8-27.2 203.2-67.2 270.4 121.6-147.2 88-230.4 9.6-270.4-51.2v49.6c0 25.6-20.8 46.4-46.4 46.4v0c-25.6 0-46.4-20.8-46.4-46.4v-161.6c-196.8-22.4-350.4-190.4-350.4-393.6 0-219.2 177.6-396.8 396.8-396.8s396.8 177.6 396.8 396.8c0 203.2-153.6 371.2-350.4 393.6zM387.2 368c20.8 0 38.4-17.6 38.4-38.4s-17.6-38.4-38.4-38.4c-20.8 0-38.4 17.6-38.4 38.4s16 38.4 38.4 38.4zM268.8 241.6c-20.8 0-38.4 17.6-38.4 38.4s17.6 38.4 38.4 38.4c20.8 0 38.4-17.6 38.4-38.4s-16-38.4-38.4-38.4zM268.8 384c-20.8 0-38.4 17.6-38.4 38.4s17.6 38.4 38.4 38.4c20.8 0 38.4-17.6 38.4-38.4 1.6-20.8-16-38.4-38.4-38.4zM348.8 136c-11.2 0-19.2 9.6-19.2 19.2 0 11.2 9.6 19.2 19.2 19.2 11.2 0 19.2-9.6 19.2-19.2 1.6-11.2-8-19.2-19.2-19.2zM406.4 203.2c-11.2 0-19.2 9.6-19.2 19.2 0 11.2 9.6 19.2 19.2 19.2 11.2 0 19.2-9.6 19.2-19.2 1.6-11.2-8-19.2-19.2-19.2z" />
<glyph unicode="&#xe93b;" glyph-name="food_pasta" d="M336 603.2c16 0 27.2 12.8 27.2 27.2v249.6c0 16-12.8 27.2-27.2 27.2-16 0-27.2-12.8-27.2-27.2v-249.6c0-16 12.8-27.2 27.2-27.2zM203.2 870.4l-24-1.6c-19.2 0-36.8-16-36.8-36.8v-16h60.8v54.4zM203.2 774.4h-60.8v-51.2h60.8zM179.2 625.6l24-1.6v57.6h-60.8v-20.8c0-19.2 17.6-35.2 36.8-35.2zM576 636.8c0 0 48 36.8 108.8 38.4l204.8-14.4c3.2 0 8 0 11.2 1.6 40 8 70.4 43.2 70.4 84.8s-30.4 76.8-70.4 84.8c-4.8 0-8 0-12.8 0 0 0-16 0-20.8-1.6l-192-12.8c-46.4 4.8-83.2 27.2-96 36.8-25.6 24-60.8 38.4-97.6 38.4l-89.6-8v-68.8h40c20.8 0 20.8-20.8 20.8-20.8 0-11.2-9.6-20.8-20.8-20.8h-41.6v-51.2h41.6c20.8 0 20.8-20.8 20.8-20.8 0-11.2-9.6-20.8-20.8-20.8h-41.6v-70.4l89.6-8c54.4 0 96 33.6 96 33.6zM896 180.8c-1.6 6.4-4.8 12.8-8 19.2 22.4 35.2 33.6 76.8 33.6 120 0 124.8-102.4 225.6-228.8 225.6h-1.6c-110.4 0-201.6-78.4-222.4-182.4h-76.8c-14.4 54.4-57.6 97.6-112 110.4 0 1.6 0 3.2 0 6.4v406.4c0 16-12.8 27.2-27.2 27.2-16 0-27.2-12.8-27.2-27.2v-406.4c0-1.6 0-1.6 0-3.2-73.6-9.6-131.2-73.6-131.2-150.4 0-38.4 14.4-73.6 38.4-99.2-8-14.4-14.4-28.8-20.8-44.8h-102.4c22.4-137.6 67.2-198.4 112-198.4h771.2c44.8 0 96 81.6 121.6 196.8h-118.4zM692.8 496v0c99.2 0 179.2-80 180.8-177.6 0-24-4.8-48-12.8-68.8-9.6 12.8-19.2 25.6-30.4 35.2 1.6 9.6 3.2 20.8 3.2 32 0 76.8-62.4 139.2-139.2 139.2-60.8 0-112-40-131.2-94.4h-43.2c19.2 76.8 89.6 134.4 172.8 134.4zM641.6 363.2h-32c16 30.4 48 49.6 83.2 49.6 52.8 0 94.4-41.6 94.4-94.4-41.6 27.2-91.2 44.8-145.6 44.8zM137.6 326.4c0 60.8 49.6 108.8 108.8 108.8 48 0 88-30.4 102.4-73.6-11.2 0-24-1.6-35.2-4.8v0c-3.2 6.4-8 12.8-12.8 19.2-14.4 16-36.8 24-57.6 24-17.6 0-35.2-8-48-20.8-24-22.4-30.4-59.2-16-88l1.6-3.2c-8-8-16-16-24-25.6-11.2 17.6-19.2 40-19.2 64zM214.4 315.2c-3.2 12.8 0 25.6 9.6 35.2 6.4 6.4 14.4 9.6 22.4 9.6 9.6 0 19.2-3.2 27.2-11.2 0-1.6 1.6-1.6 1.6-3.2-22.4-8-43.2-17.6-60.8-30.4zM366.4 310.4h275.2c88 0 164.8-52.8 198.4-129.6h-43.2c-35.2 54.4-96 89.6-166.4 89.6h-248c-68.8 0-131.2-35.2-166.4-89.6h-48c33.6 76.8 110.4 129.6 198.4 129.6zM724.8 180.8h-438.4c25.6 22.4 59.2 36.8 94.4 36.8h248c38.4 0 70.4-14.4 96-36.8zM155.2 30.4c-3.2-4.8-9.6-8-16-8-4.8 0-9.6 1.6-14.4 4.8-27.2 22.4-44.8 51.2-51.2 86.4-1.6 6.4 0 12.8 3.2 17.6s8 8 12.8 9.6c11.2 1.6 20.8-4.8 22.4-14.4 4.8-27.2 19.2-49.6 40-67.2 9.6-9.6 11.2-20.8 3.2-28.8z" />
<glyph unicode="&#xe93c;" glyph-name="food_peach" d="M910.4 483.2c-14.4 107.2-108.8 193.6-228.8 203.2-28.8 3.2-57.6-1.6-83.2-9.6-9.6-1.6-33.6-4.8-33.6-6.4 3.2 46.4-3.2 92.8-22.4 136 60.8-44.8 224-142.4 316.8 22.4-230.4 166.4-313.6 56-334.4 12.8-16 27.2-35.2 51.2-59.2 72-6.4 6.4-12.8 9.6-20.8 11.2-19.2 3.2-38.4-11.2-41.6-30.4-1.6-14.4 4.8-28.8 16-36.8 51.2-44.8 76.8-112 73.6-177.6-8 1.6-17.6 4.8-24 8-24 12.8-51.2 20.8-81.6 24-120 9.6-227.2-59.2-259.2-163.2-80-268.8 124.8-441.6 204.8-480v0c0 0 96-46.4 128-86.4 11.2-12.8 30.4-16 43.2-4.8 22.4 19.2 62.4 41.6 126.4 60.8 83.2 22.4 326.4 224 280 444.8zM342.4 600c-46.4-9.6-83.2-44.8-94.4-91.2 0 0 0 0 0 0-3.2-11.2-14.4-20.8-27.2-19.2-14.4 1.6-25.6 12.8-24 27.2 0 1.6 0 1.6 0 3.2 0 0 0 0 0 0 14.4 67.2 68.8 118.4 134.4 129.6 0 0 0 0 0 0 3.2 0 6.4 1.6 8 1.6 14.4-1.6 25.6-12.8 24-27.2 1.6-12.8-9.6-22.4-20.8-24zM508.8 577.6c-60.8-100.8-96-230.4-33.6-348.8 4.8-9.6 0-19.2-9.6-22.4 0 0 0 0 0 0-11.2-3.2-25.6 1.6-30.4 11.2-75.2 139.2-30.4 275.2 38.4 382.4 6.4 8 16 12.8 25.6 9.6 12.8-6.4 17.6-20.8 9.6-32z" />
<glyph unicode="&#xe93d;" glyph-name="food_pear" d="M846.4 192c0 64-30.4 121.6-80 166.4v0c-65.6 56-73.6 160-73.6 160 0 75.2-62.4 137.6-137.6 137.6h-3.2c-9.6 40-25.6 76.8-48 112 46.4-17.6 244.8-76.8 294.4 164.8-228.8 96-291.2-108.8-302.4-153.6-12.8 19.2-28.8 36.8-44.8 52.8-6.4 8-16 12.8-25.6 16-24 4.8-48-11.2-52.8-35.2-3.2-17.6 3.2-35.2 17.6-46.4 33.6-32 56-70.4 68.8-112-70.4-4.8-128-64-128-136 0 0-6.4-102.4-73.6-160v0c-49.6-44.8-80-102.4-80-166.4 0 0-6.4-158.4 139.2-230.4v0c25.6-14.4 56-24 89.6-24h211.2c32 0 62.4 8 89.6 24v0c145.6 56 139.2 230.4 139.2 230.4zM412.8 256c-17.6-12.8-30.4-30.4-38.4-51.2-8-19.2-27.2-32-51.2-27.2s-44.8 40-32 70.4c11.2 30.4 32 56 57.6 75.2s64 9.6 75.2-12.8c11.2-19.2 4.8-41.6-11.2-54.4zM465.6 510.4c-20.8 0-38.4 19.2-38.4 41.6s17.6 41.6 38.4 41.6c20.8 0 38.4-19.2 38.4-41.6s-16-41.6-38.4-41.6z" />
<glyph unicode="&#xe93e;" glyph-name="food_pepper" d="M345.6 80l-75.2 398.4v3.2c0 3.2-3.2 27.2-3.2 43.2 0 78.4 36.8 148.8 96 193.6-24 8-51.2 9.6-78.4 8-115.2-11.2-200-113.6-188.8-228.8 1.6-12.8 3.2-25.6 6.4-36.8v0l112-392c11.2-65.6 73.6-113.6 140.8-107.2 16 1.6 30.4 6.4 44.8 12.8 0 0 0 0 0 0-32 27.2-51.2 65.6-54.4 105.6zM740.8 724.8c-27.2 3.2-54.4 0-78.4-8 57.6-44.8 96-115.2 96-193.6 0-14.4-3.2-40-3.2-43.2v-3.2l-76.8-396.8c-3.2-41.6-22.4-78.4-52.8-107.2 0 0 0 0 0 0 14.4-6.4 28.8-11.2 44.8-12.8 68.8-6.4 129.6 41.6 140.8 107.2v0l112 392c3.2 12.8 6.4 24 6.4 36.8 11.2 116.8-73.6 219.2-188.8 228.8zM510.4 771.2c38.4 0 75.2-11.2 105.6-28.8 11.2 6.4 20.8 11.2 33.6 14.4-46.4 19.2-57.6 59.2-59.2 83.2v19.2c0 0 0 0 0 0v0 0c0 41.6-35.2 76.8-76.8 76.8s-76.8-35.2-76.8-76.8v-19.2c-1.6-25.6-12.8-65.6-62.4-83.2 9.6-3.2 19.2-8 28.8-14.4 32 19.2 68.8 28.8 107.2 28.8zM643.2 80l75.2 400c1.6 12.8 3.2 25.6 3.2 38.4 0 115.2-94.4 209.6-209.6 209.6s-209.6-94.4-209.6-209.6c0-12.8 3.2-38.4 3.2-38.4l75.2-400c6.4-67.2 62.4-120 131.2-120s124.8 52.8 131.2 120v0zM470.4 614.4c-28.8-16-51.2-40-62.4-72-3.2-9.6-14.4-14.4-25.6-11.2s-17.6 17.6-12.8 28.8c14.4 36.8 41.6 67.2 76.8 86.4 11.2 6.4 25.6 1.6 30.4-8 6.4-8 3.2-19.2-6.4-24z" />
<glyph unicode="&#xe93f;" glyph-name="food_pickles" d="M803.2 864c0 1.6 0 3.2 0 3.2 0 35.2-28.8 64-64 64h-449.6c-35.2 0-64-28.8-64-64-1.6 0-1.6-3.2-1.6-3.2 0-11.2 0-22.4-1.6-32h582.4c-1.6 9.6-1.6 20.8-1.6 32zM916.8 652.8c0 32-24 57.6-56 59.2v0c0 0-41.6 4.8-54.4 68.8h-585.6c-12.8-64-54.4-68.8-54.4-68.8-32 0-59.2-25.6-59.2-59.2 0-28.8 20.8-52.8 48-57.6v-505.6c0-68.8 60.8-124.8 137.6-124.8h441.6c75.2 0 137.6 56 137.6 124.8v505.6c25.6 4.8 44.8 28.8 44.8 57.6zM275.2 616c12.8-9.6 28.8-22.4 60.8-22.4 30.4 0 48 12.8 60.8 22.4 9.6 8 14.4 11.2 27.2 11.2s17.6-3.2 27.2-11.2c12.8-9.6 28.8-22.4 60.8-22.4 30.4 0 48 12.8 60.8 22.4 9.6 8 14.4 11.2 27.2 11.2s17.6-3.2 27.2-11.2c12.8-9.6 28.8-22.4 60.8-22.4 30.4 0 48 12.8 60.8 22.4 9.6 8 14.4 11.2 27.2 11.2s17.6-3.2 27.2-11.2c3.2-1.6 6.4-4.8 9.6-6.4v-118.4h-545.6v-257.6c0-11.2-9.6-19.2-19.2-19.2h-9.6c-11.2 0-19.2 9.6-19.2 19.2v257.6c0 0-1.6 123.2 0 123.2 9.6 8 17.6 11.2 30.4 11.2 11.2 1.6 16-1.6 25.6-9.6zM363.2 364.8c-1.6 0-3.2 0-4.8 0l6.4 43.2c4.8 30.4 33.6 52.8 64 48s52.8-33.6 48-64l-1.6-11.2c-1.6 0-1.6 0-3.2 0-8 0-14.4-6.4-14.4-14.4s6.4-14.4 14.4-14.4l-16-105.6c-4.8-30.4-33.6-52.8-64-48s-52.8 33.6-48 64l11.2 75.2c1.6-1.6 4.8-3.2 8-3.2 8 0 14.4 6.4 14.4 14.4 0 9.6-6.4 16-14.4 16zM366.4 161.6c33.6 0 62.4-27.2 62.4-62.4 0-33.6-27.2-62.4-62.4-62.4s-62.4 28.8-62.4 62.4c0 33.6 28.8 62.4 62.4 62.4zM624 206.4c1.6 0 3.2 0 4.8 0l8-73.6c3.2-30.4-19.2-59.2-49.6-62.4s-59.2 19.2-62.4 49.6l-4.8 49.6c0 0 1.6 0 1.6 0 8 0 14.4 6.4 14.4 14.4s-6.4 14.4-14.4 14.4c-1.6 0-3.2 0-4.8-1.6l-11.2 97.6c-3.2 30.4 19.2 59.2 49.6 62.4s59.2-19.2 62.4-49.6l8-72c0 0-1.6 0-1.6 0-8 0-14.4-6.4-14.4-14.4-1.6-8 4.8-14.4 14.4-14.4zM798.4 425.6l-25.6-75.2c-3.2-8-11.2-12.8-20.8-9.6l-75.2 25.6c-8 3.2-12.8 11.2-9.6 20.8l25.6 75.2c3.2 8 11.2 12.8 20.8 9.6l75.2-25.6c8-4.8 12.8-12.8 9.6-20.8zM795.2 185.6c0-33.6-27.2-62.4-62.4-62.4-33.6 0-62.4 27.2-62.4 62.4 0 33.6 27.2 62.4 62.4 62.4 35.2-1.6 62.4-28.8 62.4-62.4zM408 248c0-7.953-6.447-14.4-14.4-14.4s-14.4 6.447-14.4 14.4c0 7.953 6.447 14.4 14.4 14.4s14.4-6.447 14.4-14.4zM592 302.4c0-7.953-6.447-14.4-14.4-14.4s-14.4 6.447-14.4 14.4c0 7.953 6.447 14.4 14.4 14.4s14.4-6.447 14.4-14.4zM608 132.8c0-7.953-6.447-14.4-14.4-14.4s-14.4 6.447-14.4 14.4c0 7.953 6.447 14.4 14.4 14.4s14.4-6.447 14.4-14.4z" />
<glyph unicode="&#xe940;" glyph-name="food_pie" d="M851.2 220.8c-16 0-22.4-4.8-35.2-12.8-16-11.2-38.4-25.6-78.4-25.6s-62.4 14.4-78.4 25.6c-12.8 8-19.2 12.8-35.2 12.8s-22.4-4.8-35.2-12.8c-16-11.2-38.4-25.6-78.4-25.6s-62.4 14.4-78.4 25.6c-12.8 8-19.2 12.8-35.2 12.8s-22.4-4.8-35.2-12.8c-16-11.2-38.4-25.6-78.4-25.6s-62.4 14.4-78.4 25.6c-12.8 8-19.2 12.8-35.2 12.8s-19.2-3.2-30.4-12.8c-9.6-6.4-20.8-14.4-36.8-19.2 27.2-59.2 68.8-152 131.2-152h563.2c62.4 0 97.6 92.8 128 152-16 4.8-27.2 12.8-36.8 19.2-12.8 9.6-19.2 12.8-36.8 12.8zM969.6 376h-19.2c0 0-30.4 1.6-59.2 57.6v0c-65.6 123.2-208 208-372.8 208s-307.2-84.8-372.8-208v0c-28.8-56-59.2-57.6-59.2-57.6h-30.4c-27.2 0-51.2-28.8-51.2-62.4v-8c0-32 19.2-59.2 44.8-62.4 9.6 1.6 16 8 25.6 16 16 14.4 40 33.6 81.6 33.6s65.6-19.2 81.6-33.6c12.8-11.2 19.2-17.6 36.8-17.6s24 6.4 36.8 17.6c16 14.4 40 33.6 81.6 33.6s65.6-19.2 81.6-33.6c12.8-11.2 19.2-17.6 36.8-17.6s24 6.4 36.8 17.6c16 14.4 40 33.6 81.6 33.6s65.6-19.2 81.6-33.6c12.8-11.2 19.2-17.6 36.8-17.6s24 6.4 36.8 17.6c16 14.4 40 33.6 81.6 33.6s65.6-19.2 81.6-33.6c9.6-8 16-12.8 25.6-16 25.6 3.2 44.8 30.4 44.8 62.4v8c1.6 33.6-22.4 62.4-49.6 62.4zM356.8 472c-16-14.4-36.8-19.2-46.4-8s-6.4 32 9.6 46.4c20.8 20.8 67.2 28.8 68.8 28.8-1.6-1.6-11.2-48-32-67.2zM513.6 452.8c-17.6 0-32 14.4-32 32-1.6 24 32 57.6 32 57.6s33.6-33.6 32-57.6c0-17.6-14.4-32-32-32zM718.4 464c-9.6-11.2-30.4-8-46.4 8-22.4 19.2-32 65.6-32 67.2 0 0 48-8 68.8-28.8 14.4-14.4 19.2-35.2 9.6-46.4zM419.2 704c20.8 0 41.6 0 60.8 0-73.6 64 73.6 128 0 190.4-20.8 0-41.6 0-60.8 0 73.6-62.4-73.6-126.4 0-190.4zM550.4 704c20.8 0 41.6 0 60.8 0-49.6 46.4 49.6 92.8 0 140.8-20.8 0-41.6 0-60.8 0 49.6-48-48-94.4 0-140.8z" />
<glyph unicode="&#xe941;" glyph-name="food_pineapple" d="M776 516.8c41.6-4.8 89.6-12.8 134.4-30.4 0 0-27.2 75.2-132.8 132.8 38.4 19.2 115.2 40 193.6 20.8 0 0-75.2 64-160 76.8 59.2 32 105.6 32 169.6 44.8 0 0-73.6 75.2-164.8 44.8 12.8 96-75.2 153.6-75.2 153.6-1.6-65.6 6.4-112-12.8-174.4-28.8 80-105.6 142.4-105.6 142.4 33.6-75.2 27.2-153.6 16-195.2-76.8 92.8-155.2 105.6-155.2 105.6 24-43.2 41.6-86.4 52.8-126.4-110.4 20.8-228.8-17.6-304-108.8l-116.8-142.4c-112-134.4-91.2-337.6 44.8-449.6v0c136-112 339.2-94.4 449.6 41.6l116.8 142.4c76.8 91.2 91.2 216 49.6 321.6zM590.4 436.8l-14.4-1.6c-6.4 0-11.2 1.6-16 4.8s-8 9.6-8 16l-3.2 27.2-27.2-3.2c-11.2-1.6-24 8-24 20.8l-1.6 12.8c0 6.4 1.6 11.2 4.8 16s9.6 8 14.4 8l62.4 6.4c11.2 1.6 24-8 24-20.8l6.4-62.4c3.2-12.8-6.4-24-17.6-24zM305.6 560l62.4 6.4c11.2 1.6 24-8 24-20.8l6.4-62.4c1.6-12.8-8-24-20.8-24l-12.8-1.6c-11.2-1.6-24 8-24 20.8l-3.2 27.2-27.2-3.2c-6.4 0-11.2 1.6-16 4.8s-8 9.6-8 16l-1.6 12.8c0 6.4 1.6 11.2 4.8 16 4.8 4.8 9.6 8 16 8zM241.6 291.2l-12.8-1.6c-11.2-1.6-24 8-24 20.8l-3.2 27.2-27.2-1.6c-6.4 0-11.2 1.6-16 4.8s-8 9.6-8 16l-1.6 11.2c0 6.4 1.6 11.2 4.8 16s9.6 8 14.4 8l62.4 6.4c11.2 1.6 24-8 24-20.8l6.4-62.4c0-6.4-1.6-11.2-4.8-16s-8-6.4-14.4-8zM304 89.6l-12.8-1.6c-6.4 0-11.2 1.6-16 4.8s-8 9.6-8 16l-3.2 27.2-27.2-3.2c-11.2-1.6-24 8-24 20.8l-1.6 12.8c0 6.4 1.6 11.2 4.8 16s9.6 8 14.4 8l62.4 6.4c11.2 1.6 24-8 24-20.8l6.4-62.4c1.6-12.8-8-24-19.2-24zM446.4 262.4l-12.8-1.6c-6.4 0-11.2 1.6-16 4.8s-8 9.6-8 16l-3.2 27.2-27.2-3.2c-11.2-1.6-24 8-24 20.8l-1.6 12.8c0 6.4 1.6 11.2 4.8 16s9.6 8 16 8l62.4 6.4c11.2 1.6 24-8 24-20.8l6.4-62.4c0-6.4-1.6-11.2-4.8-16-4.8-4.8-9.6-8-16-8zM513.6 67.2l-12.8-1.6c-6.4 0-11.2 1.6-16 4.8s-8 9.6-8 16l-3.2 27.2-27.2-3.2c-11.2-1.6-24 8-24 20.8l-1.6 12.8c0 6.4 1.6 11.2 4.8 16s9.6 8 14.4 8l62.4 6.4c11.2 1.6 24-8 24-20.8l6.4-62.4c0-6.4-1.6-11.2-4.8-16s-8-8-14.4-8zM651.2 233.6l-12.8-1.6c-6.4 0-11.2 1.6-16 4.8s-8 9.6-8 16l-3.2 27.2-27.2-3.2c-11.2-1.6-24 8-24 20.8l-1.6 12.8c-1.6 12.8 8 24 20.8 24l62.4 6.4c11.2 1.6 24-8 24-20.8l6.4-62.4c0-6.4-1.6-11.2-4.8-16-4.8-4.8-9.6-8-16-8z" />
<glyph unicode="&#xe942;" glyph-name="food_pint" d="M248 566.4c44.8 0 81.6 35.2 81.6 78.4 0 3.2 0 6.4 0 9.6 16 1.6 30.4 6.4 44.8 11.2 8-19.2 27.2-32 48-32h286.4c0 0 76.8 19.2 76.8 92.8 0 51.2-43.2 92.8-96 92.8-17.6 0-35.2-4.8-48-12.8 0 3.2 0 6.4 0 9.6 0 59.2-49.6 107.2-110.4 107.2-33.6 0-64-14.4-84.8-38.4-27.2 43.2-76.8 73.6-134.4 73.6-86.4 0-156.8-67.2-158.4-150.4-43.2-6.4-76.8-43.2-76.8-86.4 0-48 40-88 89.6-88 8-38.4 41.6-67.2 81.6-67.2zM792 556.8h-14.4v52.8c-25.6-17.6-56-30.4-89.6-30.4h-275.2c-16 0-32 4.8-46.4 12.8-16-52.8-65.6-91.2-123.2-91.2-22.4 0-44.8 6.4-64 17.6v-428.8h99.2v329.6c0 16 14.4 30.4 30.4 30.4s30.4-12.8 30.4-30.4v-329.6h108.8v329.6c0 16 14.4 30.4 30.4 30.4s30.4-12.8 30.4-30.4v-329.6h107.2v329.6c0 16 14.4 30.4 30.4 30.4s30.4-12.8 30.4-30.4v-329.6h99.2v22.4h14.4c83.2 0 153.6 70.4 153.6 153.6v142.4c1.6 84.8-67.2 148.8-152 148.8zM868.8 267.2c0-40-36.8-76.8-76.8-76.8h-14.4v289.6h14.4c40 0 76.8-30.4 76.8-70.4v-142.4zM286.4-64h384c56 0 102.4 44.8 107.2 99.2h-598.4c4.8-54.4 51.2-99.2 107.2-99.2z" />
<glyph unicode="&#xe943;" glyph-name="food_pizza" d="M702.4 780.8c-65.6 27.2-96 27.2-96 27.2v0c-4.8 0-11.2 1.6-16 1.6-54.4 0-97.6-32-97.6-72 0-4.8 0-9.6 1.6-14.4l-435.2-310.4c-46.4-35.2-51.2-76.8-51.2-96v-44.8c0-54.4 40-99.2 91.2-99.2h203.2v-36.8c0-27.2 20.8-49.6 46.4-49.6s46.4 22.4 46.4 49.6v36.8h529.6c49.6 0 91.2 44.8 91.2 99.2v84.8c0 1.6 0 3.2 0 4.8 3.2 73.6-8 312-313.6 419.2zM302.4 233.6h-203.2c-19.2 0-35.2 17.6-35.2 40v67.2h238.4v-107.2zM715.2 523.2c32 0 59.2-22.4 59.2-48 0-27.2-25.6-48-59.2-48-32 0-59.2 22.4-59.2 48 0 27.2 27.2 48 59.2 48zM585.6 657.6c25.6 0 46.4-17.6 46.4-38.4s-20.8-38.4-46.4-38.4c-25.6 0-46.4 17.6-46.4 38.4s20.8 38.4 46.4 38.4zM334.4 505.6c0 36.8 36.8 65.6 81.6 65.6s81.6-30.4 81.6-65.6c0-36.8-36.8-65.6-81.6-65.6s-81.6 28.8-81.6 65.6zM960 273.6c0-22.4-16-40-35.2-40h-529.6v107.2h105.6v-33.6c0-27.2 20.8-49.6 46.4-49.6s46.4 22.4 46.4 49.6v33.6h366.4v-67.2z" />
<glyph unicode="&#xe944;" glyph-name="food_pot" d="M825.6 712h-147.2c-3.2 70.4-62.4 128-134.4 128h-73.6c-72 0-131.2-56-134.4-128h-147.2c-40 0-120-108.8-118.4-116.8h873.6c1.6 8-80 116.8-118.4 116.8zM470.4 776h73.6c36.8 0 60.8-28.8 64-64h-203.2c4.8 36.8 27.2 64 65.6 64zM980.8 441.6h-75.2v12.8l33.6 99.2h-864l33.6-99.2c0-1.6 0-12.8 0-12.8h-65.6c-24 0-44.8-20.8-44.8-44.8s20.8-44.8 44.8-44.8h65.6v-224c0-38.4 32-70.4 70.4-70.4h654.4c38.4 0 70.4 32 70.4 70.4v224h75.2c24 0 44.8 20.8 44.8 44.8 1.6 24-19.2 44.8-43.2 44.8zM260.8 160c0-14.4-11.2-25.6-25.6-25.6s-25.6 11.2-25.6 25.6v256c0 0 0 1.6 0 1.6l-16 48c-4.8 12.8 3.2 27.2 16 32s27.2-3.2 32-16l17.6-52.8c1.6-3.2 1.6-8 1.6-11.2 0-1.6 0-1.6 0-3.2v-254.4z" />
<glyph unicode="&#xe945;" glyph-name="food_potato" d="M865.6 544c-36.8-9.6-75.2-9.6-112 0-14.4 3.2-24 19.2-19.2 32s16 19.2 28.8 16c28.8-8 59.2-8 88-1.6-20.8 51.2-52.8 105.6-99.2 161.6 0 0-60.8 99.2-209.6 134.4-142.4 32-276.8-62.4-294.4-182.4 0-3.2-1.6-11.2-1.6-11.2-6.4-81.6-80-230.4-88-246.4 0 0-17.6-46.4-20.8-72-25.6-171.2 118.4-334.4 320-364.8 203.2-30.4 384 84.8 412.8 254.4 6.4 36.8 35.2 145.6-4.8 280zM460.8 348.8c-22.4-6.4-44.8-6.4-67.2 0-35.2 9.6-25.6 36.8-25.6 36.8 6.4 14.4 24 11.2 36.8 9.6 14.4-3.2 32-3.2 46.4 1.6 24 9.6 33.6-11.2 33.6-11.2 8-14.4-1.6-32-24-36.8zM654.4 483.2c24 9.6 33.6-11.2 33.6-11.2 6.4-12.8-3.2-30.4-24-35.2-22.4-6.4-44.8-6.4-67.2 0-35.2 9.6-25.6 36.8-25.6 36.8 6.4 14.4 24 11.2 36.8 9.6 14.4-4.8 33.6-4.8 46.4 0zM512 640c6.4 14.4 24 11.2 36.8 9.6 14.4-3.2 32-3.2 46.4 1.6 24 9.6 33.6-11.2 33.6-11.2 6.4-12.8-3.2-30.4-24-35.2-22.4-6.4-44.8-6.4-67.2 0-35.2 9.6-25.6 35.2-25.6 35.2zM668.8 139.2c-46.4-14.4-94.4-14.4-140.8 1.6-14.4 4.8-22.4 20.8-16 32 4.8 12.8 17.6 17.6 30.4 12.8 36.8-12.8 78.4-14.4 115.2-1.6 11.2 3.2 24-1.6 28.8-14.4 4.8-9.6-1.6-25.6-17.6-30.4zM766.4 294.4c-22.4-6.4-44.8-6.4-67.2 0-35.2 9.6-25.6 36.8-25.6 36.8 6.4 14.4 24 11.2 36.8 9.6 14.4-3.2 32-3.2 46.4 1.6 24 9.6 33.6-11.2 33.6-11.2 8-14.4-1.6-32-24-36.8z" />
<glyph unicode="&#xe946;" glyph-name="food_pretzel" d="M315.2 296c-52.8 27.2-168 118.4-171.2 227.2-1.6 48 14.4 92.8 48 129.6 36.8 40 89.6 64 144 64 17.6 0 35.2-3.2 51.2-6.4 16 30.4 43.2 70.4 86.4 99.2-41.6 20.8-88 32-137.6 32-176 0-318.4-142.4-318.4-315.2 0-126.4 89.6-260.8 204.8-312l92.8 81.6zM300.8 801.6c9.6 0 16-6.4 16-16s-6.4-16-16-16c-9.6 0-16 6.4-16 16 0 8 6.4 16 16 16zM179.2 747.2c9.6 0 16-6.4 16-16s-6.4-16-16-16c-9.6 0-16 6.4-16 16s6.4 16 16 16zM99.2 625.6c-9.6 0-16 6.4-16 16s6.4 16 16 16c9.6 0 16-6.4 16-16s-8-16-16-16zM712 288l86.4-75.2c116.8 51.2 208 185.6 208 312 0 174.4-142.4 315.2-318.4 315.2s-318.4-142.4-318.4-315.2c0-64 19.2-126.4 54.4-177.6l-192-180.8c-12.8-11.2-19.2-27.2-20.8-44.8 0-17.6 6.4-33.6 17.6-46.4s27.2-19.2 43.2-19.2c14.4 0 28.8 6.4 40 16l70.4 65.6c36.8-11.2 76.8-17.6 116.8-17.6 48 0 94.4 8 136 24l76.8-72c11.2-9.6 25.6-16 40-16 16 0 32 6.4 43.2 19.2s17.6 28.8 17.6 46.4c0 17.6-8 33.6-20.8 44.8l-171.2 158.4c-12.8-20.8-40-54.4-86.4-84.8-11.2-1.6-24-1.6-36.8-1.6-3.2 0-4.8 0-8 0l38.4 35.2c80 60.8 124.8 152 124.8 251.2 0 52.8-12.8 104-36.8 147.2-28.8-16-65.6-49.6-91.2-115.2 1.6-11.2 3.2-20.8 3.2-32 0-27.2-6.4-52.8-16-76.8-11.2 24-16 51.2-16 76.8 0 105.6 86.4 192 192 192 54.4 0 107.2-22.4 144-64 33.6-35.2 49.6-81.6 48-129.6-3.2-108.8-115.2-206.4-168-235.2zM600 542.4c9.6 0 16-6.4 16-16s-6.4-16-16-16c-9.6 0-16 6.4-16 16s6.4 16 16 16zM505.6 684.8c-9.6 0-16 6.4-16 16s6.4 16 16 16c9.6 0 16-6.4 16-16 0-8-6.4-16-16-16zM632 769.6c-9.6 0-16 6.4-16 16s6.4 16 16 16c9.6 0 16-6.4 16-16s-8-16-16-16zM752 763.2c-9.6 0-16 6.4-16 16s6.4 16 16 16c9.6 0 16-6.4 16-16 0-8-8-16-16-16z" />
</font>
</defs>
</svg>
