<?xml version="1.0" standalone="no"?>
<!DOCTYPE svg PUBLIC "-//W3C//DTD SVG 1.1//EN" "http://www.w3.org/Graphics/SVG/1.1/DTD/svg11.dtd" >
<svg xmlns="http://www.w3.org/2000/svg">
<metadata>Generated by IcoMoon</metadata>
<defs>
<font id="icomoon" horiz-adv-x="1024">
<font-face units-per-em="1024" ascent="960" descent="-64" />
<missing-glyph horiz-adv-x="1024" />
<glyph unicode="&#x20;" horiz-adv-x="512" d="" />
<glyph unicode="&#xe900;" glyph-name="keycap_keycap-Alt" d="M224.368 864h575.248c21.776 0 41.808-7.312 57.936-19.504l112.976 92.416c-20.992 14.112-46.688 23.088-74.528 23.088h-768c-25.664 0-49.504-7.616-69.536-19.84l101.216-101.232c17.136 15.52 39.776 25.072 64.688 25.072zM995.184 915.76l-115.504-94.496c10.304-15.344 16.32-33.792 16.32-53.632v-559.248c0-23.664-8.56-45.312-22.72-62.080l129.808-159.328c13.2 19.76 20.912 45.328 20.912 77.024v784c0 23.728-10.816 47.936-28.816 67.76zM799.632 112h-575.264c-22.288 0-42.72 7.632-59.024 20.32l-124.288-167.76c22.848-19.104 53.328-28.56 86.944-28.56h768c32.784 0 62.576 9.008 85.216 27.168l-132.368 162.464c-14.416-8.608-31.216-13.632-49.216-13.632zM128 208.368v559.264c0 16.672 4.256 32.368 11.696 46.032l-106.528 106.544c-20.544-20.592-33.168-46.64-33.168-72.208v-784c0-30.528 7.216-55.312 19.52-74.768l123.792 167.136c-9.648 15.008-15.312 32.832-15.312 52zM386.656 496l-69.184-224h53.056l16.128 64h64.848l17.472-64h55.088l-70.224 224h-67.184zM394.064 368l13.44 50.144c3.68 12.848 7.040 29.856 10.4 45.856h0.672c3.36-16 7.392-32.688 11.424-45.856l14.112-50.144h-50.048zM528 512h64v-240h-64v240zM704 400v32h-32v47.152l-48-11.2v-35.952h-32v-32h32v-69.696c0-22.72 0.944-38.208 10.336-47.76 8.064-8.24 19.968-13.84 36.432-13.84 14.432 0 25.6 1.648 32.32 4.288l-0.816 37.872c-3.68-0.656-6.224-1.312-12.624-1.312-15.44 0-17.664 8.896-17.664 28.32v62.128h32.016zM776 616c0 13.264-10.752 24-24 24h-93.664l-128.896 136.48c-4.512 4.8-10.832 7.52-17.44 7.52h-96c-13.248 0-24-10.736-24-24s10.752-24 24-24h85.664l128.896-136.48c4.512-4.8 10.832-7.52 17.44-7.52h104c13.248 0 24 10.736 24 24zM752 784h-96c-13.248 0-24-10.736-24-24s10.752-24 24-24h96c13.248 0 24 10.736 24 24s-10.752 24-24 24z" />
<glyph unicode="&#xe901;" glyph-name="keycap_keycap-asterisk" d="M224.368 864h575.248c21.776 0 41.808-7.312 57.952-19.504l112.96 92.416c-21.008 14.112-46.688 23.088-74.528 23.088h-768c-25.664 0-49.504-7.616-69.536-19.84l101.232-101.232c17.104 15.52 39.76 25.072 64.672 25.072zM995.2 915.76l-115.504-94.496c10.288-15.344 16.304-33.792 16.304-53.632v-559.248c0-23.664-8.56-45.312-22.704-62.080l129.808-159.328c13.184 19.76 20.896 45.328 20.896 77.024v784c0 23.728-10.816 47.936-28.8 67.76zM799.632 112h-575.264c-22.272 0-42.72 7.632-59.040 20.32l-124.256-167.76c22.832-19.104 53.312-28.56 86.928-28.56h768c32.768 0 62.576 9.008 85.216 27.168l-132.368 162.464c-14.416-8.608-31.216-13.632-49.216-13.632zM128 208.368v559.264c0 16.672 4.24 32.368 11.696 46.032l-106.528 106.544c-20.544-20.592-33.168-46.64-33.168-72.208v-784c0-30.528 7.216-55.312 19.52-74.768l123.808 167.136c-9.664 15.008-15.328 32.832-15.328 52zM640 497.456v63.344l-102.72-20.064-1.136 1.888 68.864 79.648-56.432 32.528-36.592-94.8h-1.296l-35.824 94.8-56.96-32.576 67.84-79.312-1.6-1.408-100.144 19.296v-63.344l96 18.192v-1.264l-65.28-78.384 56.624-32.624 37.92 96.592 1.68 0.624 36.672-97.216 57.040 32.624-69.696 77.136 1.648 1.872z" />
<glyph unicode="&#xe902;" glyph-name="keycap_keycap-Back-space" d="M354.288 528.944c13.44 10.672 23.504 25.728 23.504 44.864 0 27.296-25.776 45.488-41.776 52.080v0.624c16 8.784 34.4 26.352 34.4 45.184 0 19.136-11.424 33.568-26.448 41.408-15.68 9.104-30.528 11.92-60.304 11.92-24.336 0-59.664-1.888-59.664-4.384v-207.68c0-1.568 25.12-3.136 49.136-3.136 42.88-0.016 65.456 6.88 81.152 19.12zM272 688.944c0 0.624 6.736 1.264 17.296 1.264 22.096 0 32.8-8.32 32.8-24.32 0-15.68-15.504-25.888-41.104-25.888h-8.992v48.944zM272 608h9.632c24.32 0 43.84-10.672 43.84-32 0-22.272-16.016-32-38.096-32-8.336 0-15.376 0-15.376 0v64zM479.376 528l2.88-16h43.84c-1.6 8.464 1.904 22.592 1.904 37.328v53.328c0 36.080-18.72 66.192-70.88 66.192-28.496 0-50.976-7.536-61.856-13.488l8.432-30.736c10.256 6.272 29.52 11.616 45.52 11.616 24 0 30.784-11.616 30.784-19.76v-2.192c-64 0.32-94.4-18.816-94.4-58.672 0-24.464 17.6-46.752 49.28-46.752 18.56 0 33.296 3.136 43.536 19.136h0.96zM480 567.84c0-2.832-2.080-5.648-2.72-8.16-3.2-9.728-14-17.568-26.16-17.568-10.88 0-17.904 5.968-17.904 18.192 0 18.512 14.784 24.464 46.784 24.16v-16.624zM663.712 515.76l-5.776 35.136c-7.344-2.816-16.32-4.704-27.84-4.704-23.68 0-42.88 14.736-42.88 42.976-0.336 25.104 16.32 42.992 41.92 42.992 12.8 0 21.456-2.192 27.2-4.704l7.68 35.44c-10.256 3.76-24.336 5.968-37.12 5.968-58.256 0-89.632-36.704-89.632-81.568 0-48.32 32.336-78.432 82.912-78.432 18.576 0 34.88 3.136 43.536 6.896zM672 736v-224h48v48l14.096 15.056 39.36-63.056h59.856l-64.016 94.592 56.016 65.408h-58.576l-31.68-45.808c-3.84-5.952-7.68-18.192-11.216-18.192h-3.84v128h-48zM200.656 286.112c-14.4 0-32.976 6.272-41.936 11.616l-8.624-34.192c11.84-6.272 30.080-10.672 50.56-10.672 44.816 0 67.84 21.024 67.84 49.568-0.32 22.592-12.784 37.328-42.56 47.376-19.2 6.592-25.28 10.352-25.28 17.568 0 7.84 6.72 12.56 18.56 12.56 13.44 0 26.896-5.024 33.936-8.784l8.624 32.944c-9.6 4.704-25.904 8.784-44.16 8.784-38.736 0-63.68-21.648-63.68-50.192-0.336-18.192 12.16-35.456 44.464-46.112 18.256-5.968 23.056-9.728 23.056-17.568 0.016-7.872-6.080-12.896-20.8-12.896zM336 192v80h-4.784c7.024-16 21.744-18.512 40.64-18.512 34.896 0 71.040 25.888 71.040 81.728 0 48.944-30.72 75.84-64.976 75.84-22.72 0-40.64-11.056-52.16-27.056h-0.64l-2.24 32h-42.24c0.64-16 7.36-37.968 7.36-58.032v-165.968h48zM336 342.896c0 2.832-2.384 5.968-1.744 8.48 3.2 14.112 14.016 24.16 27.76 24.16 21.76 0 32.304-18.512 32.304-42.992 0-26.032-12.832-43.296-33.952-43.296-14.080 0-22.736 9.712-25.936 22.592-0.656 2.832 1.568 6.272 1.568 10.048v21.008zM449.584 299.616c0-24.464 17.616-46.752 49.296-46.752 18.56 0 33.312 3.136 43.552 19.136h0.96l2.88-16h43.856c-1.632 8.464 1.872 22.592 1.872 37.328v53.328c0 36.080-18.72 66.192-70.88 66.192-28.496 0-50.976-7.536-61.84-13.488l8.432-30.736c10.24 6.272 29.504 11.616 45.504 11.616 24 0 30.784-11.616 30.784-19.76v-2.192c-64 0.304-94.416-18.832-94.416-58.672zM544 328.464v-16.624c0-2.832-2.064-5.648-2.72-8.16-3.184-9.728-14-17.568-26.16-17.568-10.88 0-17.888 5.968-17.888 18.192 0 18.512 14.768 24.48 46.768 24.16zM684.192 252.864c18.56 0 34.88 3.136 43.536 6.912l-5.776 35.136c-7.344-2.816-16.32-4.704-27.84-4.704-23.68 0-42.88 14.736-42.88 42.976-0.336 25.104 16.32 42.992 41.92 42.992 12.8 0 21.456-2.192 27.2-4.704l7.68 35.44c-10.256 3.76-24.336 5.968-37.12 5.968-58.256 0-89.632-36.704-89.632-81.568 0-48.336 32.336-78.448 82.912-78.448zM874.912 337.568c0 37.968-19.2 75.92-69.776 75.92-54.4 0-79.040-43.296-79.040-82.192 0-48 30.4-78.272 83.552-78.272 21.12 0 40.64 3.056 56.64 9.328l-6.384 32.272c-13.12-4.080-26.576-5.040-43.216-5.040-22.72 0-42.56 14.416-44.176 30.416h100.832c0.608 0 1.568 9.408 1.568 17.568zM772.16 352c1.28 16 9.632 31.056 30.096 31.056 22.4 0 27.536-15.056 27.536-31.056h-57.632zM224.368 864h575.248c21.776 0 41.808-7.312 57.936-19.504l112.976 92.416c-20.992 14.112-46.688 23.088-74.528 23.088h-768c-25.664 0-49.504-7.616-69.536-19.84l101.216-101.232c17.136 15.52 39.776 25.072 64.688 25.072zM995.184 915.76l-115.504-94.496c10.304-15.344 16.32-33.792 16.32-53.632v-559.248c0-23.664-8.56-45.312-22.72-62.080l129.808-159.328c13.2 19.76 20.912 45.328 20.912 77.024v784c0 23.728-10.816 47.936-28.816 67.76zM799.632 112h-575.264c-22.288 0-42.72 7.632-59.024 20.32l-124.288-167.76c22.848-19.104 53.328-28.56 86.944-28.56h768c32.784 0 62.576 9.008 85.216 27.168l-132.368 162.464c-14.416-8.608-31.216-13.632-49.216-13.632zM128 208.368v559.264c0 16.672 4.256 32.368 11.696 46.032l-106.528 106.544c-20.544-20.592-33.168-46.64-33.168-72.208v-784c0-30.528 7.216-55.312 19.52-74.768l123.792 167.136c-9.648 15.008-15.312 32.832-15.312 52z" />
<glyph unicode="&#xe903;" glyph-name="keycap_keycap-Caps-Lock" d="M224.368 864h575.248c21.776 0 41.808-7.312 57.952-19.504l112.96 92.416c-21.008 14.112-46.688 23.088-74.528 23.088h-768c-25.664 0-49.504-7.616-69.536-19.84l101.232-101.232c17.104 15.52 39.76 25.072 64.672 25.072zM995.2 915.76l-115.504-94.496c10.288-15.344 16.304-33.792 16.304-53.632v-559.248c0-23.664-8.56-45.312-22.704-62.080l129.808-159.328c13.184 19.76 20.896 45.328 20.896 77.024v784c0 23.728-10.816 47.936-28.8 67.76zM799.632 112h-575.264c-22.272 0-42.72 7.632-59.040 20.32l-124.256-167.76c22.832-19.104 53.312-28.56 86.928-28.56h768c32.768 0 62.576 9.008 85.216 27.168l-132.368 162.464c-14.416-8.608-31.216-13.632-49.216-13.632zM128 208.368v559.264c0 16.672 4.24 32.368 11.696 46.032l-106.528 106.544c-20.544-20.592-33.168-46.64-33.168-72.208v-784c0-30.528 7.216-55.312 19.52-74.768l123.808 167.136c-9.664 15.008-15.328 32.832-15.328 52zM204 614.592c0-60.24 38.4-105.728 112.992-105.728 26.24 0 46.4 4.704 55.36 9.104l-7.36 37.328c-9.6-3.76-25.92-6.912-40.656-6.912-43.536 0-69.136 26.672-69.136 69.008 0 47.056 30.080 69.968 68.816 69.968 17.28 0 31.040-3.76 40.976-7.84l9.92 37.968c-8.64 4.4-27.84 9.408-53.136 9.408-65.28 0-117.776-40.16-117.776-112.304zM372.704 555.616c0-24.464 19.168-46.752 50.848-46.752 18.56 0 34.864 3.136 45.104 19.136h0.96l2.88-16h43.856c-1.6 8.464-4.352 22.592-4.352 37.328v53.328c0 36.080-15.584 66.192-67.76 66.192-28.48 0-49.392-7.536-60.288-13.488l9.232-30.736c10.24 6.272 26.768 11.616 42.768 11.616 24 0 28.048-11.616 28.048-19.76v-2.192c-48 0.304-91.296-18.832-91.296-58.672zM464 584.464v-16.624c0-2.832 1.040-5.648 0.4-8.16-3.2-9.728-12.432-17.568-24.592-17.568-10.88 0-20.24 5.968-20.24 18.192 0.016 18.512 28.432 24.48 44.432 24.16zM697.472 590.736c0 48.944-30.72 76.080-64.976 76.080-22.72 0-40.656-10.816-52.176-26.816h-0.64l-2.24 32h-42.24c0.64-16 8.8-37.968 8.8-58.032v-165.968h48v80h-6.224c7.040-16 21.76-18.512 40.656-18.512 34.88 0 71.040 25.408 71.040 81.248zM614.576 545.264c-14.080 0-21.84 9.712-25.040 22.592-0.64 2.816 2.464 6.256 2.464 10.032v21.008c0 2.832-3.104 5.968-2.464 8.48 3.2 14.112 13.648 24.16 27.408 24.16 21.76 0 32.112-18.512 32.112-42.992-0.016-26.032-13.36-43.28-34.48-43.28zM753.456 542.112c-14.4 0-32.976 6.272-41.936 11.616l-8.64-34.192c11.84-6.272 30.080-10.672 50.576-10.672 44.816 0 67.856 21.024 67.856 49.568-0.32 22.592-12.8 37.328-42.56 47.376-19.216 6.592-25.296 10.352-25.296 17.568 0 7.84 6.72 12.56 18.56 12.56 13.44 0 26.896-5.024 33.936-8.784l8.64 32.944c-9.6 4.704-25.92 8.784-44.176 8.784-38.72 0-63.68-21.648-63.68-50.192-0.32-18.192 12.16-35.456 44.48-46.112 18.24-5.968 23.040-9.728 23.040-17.568 0-7.872-6.080-12.896-20.8-12.896zM352 304h-80v160h-48v-208h128zM440.192 252.544c41.936 0 82.576 25.728 82.576 81.888 0 46.112-32 78.432-80.016 78.432-50.256 0-83.536-31.68-83.536-81.248 0-49.584 35.2-79.072 80.976-79.072zM441.472 378.976c22.080 0 31.040-23.216 31.040-46.112 0-27.6-12.16-46.112-31.040-46.112-20.8 0-32 19.76-32 46.112-0.016 22.592 8.624 46.112 32 46.112zM620.672 376.16c12.8 0 21.44-2.192 27.2-4.704l7.68 35.44c-10.24 3.76-24.336 5.968-37.136 5.968-58.256 0-89.616-36.704-89.616-81.568 0-48.32 32.336-78.432 82.896-78.432 18.56 0 34.88 3.136 43.536 6.912l-5.76 35.136c-7.36-2.816-16.32-4.704-27.84-4.704-23.68 0-42.896 14.736-42.896 42.976-0.32 25.088 16.32 42.976 41.936 42.976zM720 304l9.856 15.056 35.136-63.056h59.856l-64.016 94.592 56 65.408h-58.576l-31.68-45.808c-3.84-5.968-7.68-18.192-11.2-18.192h4.624v128h-48v-224h48v48z" />
<glyph unicode="&#xe904;" glyph-name="keycap_keycap-Cmd" d="M224.368 864h575.248c21.776 0 41.808-7.312 57.952-19.504l112.96 92.416c-21.008 14.112-46.688 23.088-74.528 23.088h-768c-25.664 0-49.504-7.616-69.536-19.84l101.232-101.216c17.104 15.504 39.76 25.056 64.672 25.056zM995.2 915.744l-115.504-94.496c10.288-15.328 16.304-33.776 16.304-53.616v-559.248c0-23.664-8.56-45.312-22.704-62.080l129.808-159.328c13.184 19.776 20.896 45.344 20.896 77.024v784c0 23.728-10.816 47.936-28.8 67.744zM799.632 112h-575.264c-22.272 0-42.72 7.632-59.040 20.32l-124.256-167.76c22.832-19.104 53.312-28.56 86.928-28.56h768c32.768 0 62.576 9.008 85.216 27.152l-132.368 162.464c-14.416-8.592-31.216-13.616-49.216-13.616zM128 208.368v559.264c0 16.688 4.24 32.368 11.696 46.032l-106.528 106.544c-20.544-20.576-33.168-46.64-33.168-72.208v-784c0-30.528 7.216-55.312 19.52-74.768l123.808 167.136c-9.664 15.008-15.328 32.832-15.328 52zM640 608h48c0 0 1.456-28.688 1.456-30.24 0-30.48 24.8-52.080 55.28-52.080s55.264 26.672 55.264 57.168c0 30.464-24.8 57.152-55.28 57.152h-24.72v48h24.72c30.48 0 55.28 25.904 55.28 56.368 0 30.48-24.8 55.824-55.28 55.824s-55.28-26.96-55.28-57.44c0.016-1.536-1.44-22.752-1.44-22.752h-48c0 0-1.456 21.488-1.456 23.040 0 30.48-24.8 56.496-55.28 56.496s-55.264-25.28-55.264-55.776 24.8-55.76 55.28-55.76h24.72v-48h-24.72c-30.48 0-55.28-25.088-55.28-55.568 0-30.496 25.632-55.424 56.112-55.424 29.744 0 55.888 20.448 55.888 49.76 0-0.016 0-0.128 0-0.128v29.36zM744.72 771.904c15.248 0 27.648-10.72 27.648-25.952s-12.4-25.952-27.648-25.952h-24.72c0 0-2.912 21.472-2.912 23.040 0 15.248 12.4 28.864 27.632 28.864zM720 608h24.72c15.248 0 27.648-10.496 27.648-25.744s-12.4-25.744-27.648-25.744-27.632 6.032-27.632 21.264c0 1.568 2.912 30.224 2.912 30.224zM640 688h48v-48h-48v48zM583.28 720c-15.248 0-27.648 11.328-27.648 26.56s12.4 27.104 27.648 27.104c14.672 0 26.576-14.368 27.456-29.040-0.080-0.096-0.192-1.936-0.304-8.976l-2.432-15.648h-24.72zM583.28 553.312c-15.248 0-27.648 12.112-27.648 27.344 0 15.248 12.4 27.344 27.648 27.344h24.72c0 0 2.912-28.656 2.912-30.24 0-15.232-12.4-24.448-27.632-24.448zM610.88 743.2c0-0.096 0.032-0.192 0.032-0.304 0-0.32-0.016-0.080-0.032 0.304zM638.448 579.904c0-0.384-0.096-0.736-0.112-1.12 0.032 0.128 0.080 0.576 0.112 1.12zM638.448 579.904c0 0.336 0.096 0.64 0.096 0.976 0 0.928-0.032-0.048-0.096-0.976zM331.712 447.36c17.296 0 31.040-3.76 40.976-7.84l9.92 37.968c-8.64 4.4-27.84 9.408-53.136 9.408-65.296 0-117.776-40.16-117.776-112.32 0-60.24 38.4-105.728 112.992-105.728 26.24 0 46.4 4.704 55.36 9.104l-7.36 37.328c-9.6-3.76-25.92-6.912-40.656-6.912-43.536 0-69.136 26.672-69.136 69.008 0 47.088 30.096 69.984 68.816 69.984zM624 272v90.352c0 45.808-19.904 66.512-49.984 66.512-11.52 0-19.712-3.92-28.352-8.944-7.36-4.384-12.992-3.92-18.752-19.92h-0.64c-6.72 16-22.72 25.088-42.896 25.088-26.88 0-40.656-9.088-47.36-25.088h-0.96l-2.24 32h-40.976c0.64-16 8.16-36.384 8.16-55.536v-104.464h48v89.408c0 3.76-3.44 8.16-1.824 11.92 2.88 7.84 4.592 17.264 17.072 17.264 15.36 0 16.752-13.184 16.752-32.624v-85.968h48v89.728c0 3.76 4.096 8.784 5.376 12.24 3.2 9.088 9.792 16.624 20.992 16.624 15.68 0 21.632-12.864 21.632-35.136v-83.456h48zM710.256 265.248c20.16 0 39.056 6.752 48.976 22.752h0.64l2.24-16h43.216c-0.656 10.352-5.328 28.544-5.328 45.808v178.192h-48v-80h2.736c-7.040 0-22.080 15.056-41.296 15.056-37.44 0-70.416-32.544-70.096-84.304 0.016-47.696 29.776-81.504 66.912-81.504zM726.256 392.464c15.040 0 23.92-10.672 26.784-23.536 0.336-2.496-1.040-5.952-1.040-8.464v-20.080c0-4.080 1.376-7.536 0.4-10.976-2.88-13.488-13.232-22.912-27.312-22.912-20.16 0-32.864 16.32-32.864 42.352 0 24.16 11.952 43.616 34.032 43.616z" />
<glyph unicode="&#xe905;" glyph-name="keycap_keycap-Ctrl" d="M224.368 864h575.248c21.776 0 41.808-7.312 57.936-19.504l112.976 92.416c-20.992 14.112-46.688 23.088-74.528 23.088h-768c-25.664 0-49.504-7.616-69.536-19.84l101.216-101.232c17.136 15.52 39.776 25.072 64.688 25.072zM995.184 915.76l-115.504-94.496c10.304-15.344 16.32-33.792 16.32-53.632v-559.248c0-23.664-8.56-45.312-22.72-62.080l129.808-159.328c13.2 19.76 20.912 45.328 20.912 77.024v784c0 23.728-10.816 47.936-28.816 67.76zM799.632 112h-575.264c-22.288 0-42.72 7.632-59.024 20.32l-124.288-167.76c22.848-19.104 53.328-28.56 86.944-28.56h768c32.784 0 62.576 9.008 85.216 27.168l-132.368 162.464c-14.416-8.608-31.216-13.632-49.216-13.632zM128 208.368v559.264c0 16.672 4.256 32.368 11.696 46.032l-106.528 106.544c-20.544-20.592-33.168-46.64-33.168-72.208v-784c0-30.528 7.216-55.312 19.52-74.768l123.792 167.136c-9.648 15.008-15.312 32.832-15.312 52zM403.776 456.096c18.16 0 32.592-3.952 43.008-8.24l10.416 39.856c-9.072 4.624-29.232 9.888-55.76 9.888-68.528 0-123.632-42.16-123.632-117.904 0-63.232 40.32-110.992 118.592-110.992 27.536 0 48.704 4.944 58.112 9.552l-7.728 39.2c-10.064-3.952-27.2-7.248-42.656-7.248-45.68 0-72.56 28-72.56 72.448 0 49.408 31.568 73.44 72.208 73.44zM560 400v32h-32v47.152l-48-11.2v-35.952h-32v-32h32v-69.696c0-22.72 3.056-38.208 12.464-47.76 8.064-8.24 21.008-13.84 37.472-13.84 14.432 0 26.128 1.648 32.848 4.288l-0.528 37.872c-3.696-0.656-8.224-1.312-14.592-1.312-15.472 0-19.664 8.896-19.664 28.32v62.128h32zM624 272v81.68c0 3.952 1.936 7.904 2.624 11.2 3.344 15.472 14.464 25.36 33.28 25.36 5.696 0 12.096-0.656 12.096-1.328v47.104c0 0.656-3.568-1.040-8.288-1.040-15.776 0-33.472-2.976-41.856-34.976h-1.344l-1.664 32h-44.016c0.672-16 1.168-28.272 1.168-51.984v-108.016h48zM688 512h48v-240h-48v240zM740.512 634.368l-115.312 128.944-1.344 1.184c-1.984 2.192-4.624 3.184-7.232 3.024-2.592 0.16-5.248-0.832-7.232-3.024l-16.8-18.592c-0.912-1.008-1.584-2.16-2.032-3.376l-97.808-108.16c-3.712-4.096-3.712-10.752 0-14.864l16.816-18.608c3.696-4.096 9.712-4.096 13.44 0l93.632 103.536 93.632-103.536c3.712-4.096 9.744-4.096 13.456 0l16.816 18.608c3.68 4.112 3.68 10.768-0.032 14.864z" />
<glyph unicode="&#xe906;" glyph-name="keycap_keycap-Del" d="M224.368 864h575.248c21.776 0 41.808-7.312 57.952-19.504l112.96 92.416c-21.008 14.112-46.688 23.088-74.528 23.088h-768c-25.664 0-49.504-7.616-69.536-19.84l101.232-101.232c17.104 15.52 39.76 25.072 64.672 25.072zM995.2 915.76l-115.504-94.496c10.288-15.344 16.304-33.792 16.304-53.632v-559.248c0-23.664-8.56-45.312-22.704-62.080l129.808-159.328c13.184 19.76 20.896 45.328 20.896 77.024v784c0 23.728-10.816 47.936-28.8 67.76zM799.632 112h-575.264c-22.272 0-42.72 7.632-59.040 20.32l-124.256-167.76c22.832-19.104 53.312-28.56 86.928-28.56h768c32.768 0 62.576 9.008 85.216 27.168l-132.368 162.464c-14.416-8.608-31.216-13.632-49.216-13.632zM128 208.368v559.264c0 16.672 4.24 32.368 11.696 46.032l-106.528 106.544c-20.544-20.592-33.168-46.64-33.168-72.208v-784c0-30.528 7.216-55.312 19.52-74.768l123.808 167.136c-9.664 15.008-15.328 32.832-15.328 52zM461.056 471.92c-21.84 16.128-47.296 23.712-90.288 23.712-25.872 0-50.768-1.648-66.768-4.608v-218.032c0-1.648 29.152-3.296 55.68-3.296 44.336 0 79.408 9.216 103.264 28.656 21.824 18.112 37.008 47.424 37.008 89.92 0.016 39.184-15.376 66.512-38.896 83.648zM369.072 308.896c-6.384 0-17.072 0-17.072 0.992v145.248c0 0.992 11.024 1.984 22.448 1.984 44 0 71.552-24.368 71.216-70.48 0-53.056-30.224-78.080-76.592-77.744zM661.328 356.032c0 39.856-20.16 80.496-73.232 80.496-57.104 0-82.976-45.040-82.976-85.888 0-50.384 31.92-81.968 87.68-81.968 22.176 0 42.672 3.312 59.456 9.904l-6.72 33.936c-13.776-4.288-27.888-6.864-45.344-6.864-23.856 0-44.672 14.352-46.352 30.352h105.824c0.656 0 1.664 11.472 1.664 20.032zM553.488 368c1.344 16 10.080 32.608 31.584 32.608 23.52 0 28.896-16.608 28.896-32.608h-60.48zM672 512h48v-240h-48v240zM729.232 714.688l-69.872 69.312c-6.064 7.776-14.192 16-24.048 16h-156.592c-17.664 0-46.72-16-46.72-48v-128c0-17.664 29.056-48 46.736-48h156.592c9.856 0 19.168 12.544 25.232 20.32l68.672 76c9.024 11.568 9.024 30.8 0 42.368zM614.672 643.312l-22.624-22.624-44.688 44.688-44.688-44.688-22.624 22.624 44.688 44.688-44.688 44.688 22.624 22.624 44.688-44.688 44.688 44.688 22.624-22.624-44.672-44.688 44.672-44.688z" />
<glyph unicode="&#xe907;" glyph-name="keycap_keycap-down" d="M224.368 864h575.248c21.776 0 41.808-7.312 57.952-19.504l112.96 92.416c-21.008 14.112-46.688 23.088-74.528 23.088h-768c-25.664 0-49.504-7.616-69.536-19.84l101.232-101.232c17.104 15.52 39.76 25.072 64.672 25.072zM995.2 915.76l-115.504-94.496c10.288-15.344 16.304-33.792 16.304-53.632v-559.248c0-23.664-8.56-45.312-22.704-62.080l129.808-159.328c13.184 19.76 20.896 45.328 20.896 77.024v784c0 23.728-10.816 47.936-28.8 67.76zM799.632 112h-575.264c-22.272 0-42.72 7.632-59.040 20.32l-124.256-167.76c22.832-19.104 53.312-28.56 86.928-28.56h768c32.768 0 62.576 9.008 85.216 27.168l-132.368 162.464c-14.416-8.608-31.216-13.632-49.216-13.632zM128 208.368v559.264c0 16.672 4.24 32.368 11.696 46.032l-106.528 106.544c-20.544-20.592-33.168-46.64-33.168-72.208v-784c0-30.528 7.216-55.312 19.52-74.768l123.808 167.136c-9.664 15.008-15.328 32.832-15.328 52zM688.976 613.648l-153.088-153.104-153.088 153.104c-6.080 6.064-15.92 6.064-22 0l-27.488-27.504c-6.064-6.064-6.064-15.92 0-21.984l159.936-159.92c0.752-1.824 1.856-3.52 3.328-5.008l27.488-27.488c3.248-3.248 7.568-4.704 11.824-4.48 4.256-0.224 8.576 1.232 11.824 4.48l2.192 1.744 188.544 190.672c6.064 6.064 6.064 15.92 0 21.984l-27.488 27.504c-6.064 6.064-15.92 6.064-21.984 0z" />
<glyph unicode="&#xe908;" glyph-name="keycap_keycap-End" d="M400 528v32h-128v-208h144v32h-96v64h80v32h-80v48zM576 352v90.976c0 45.184-23.824 63.68-55.84 63.68-25.904 0-41.728-10.672-48.128-26.672h-0.976l-2.256 32h-42.24c0.656-16 5.44-36.384 5.44-55.536v-104.448h48v88.464c0 4.384-1.104 9.104 0.176 11.92 3.2 8.784 10.464 17.888 23.904 17.888 17.616 0 23.92-13.488 23.92-33.264v-85.008h48zM704 576v-80h-2.224c-7.024 0-22.080 15.056-41.28 15.056-37.44 0-70.4-30.896-70.096-82.672 0-47.68 29.76-82.592 66.896-82.592 20.176 0 39.040 6.192 48.992 22.192h0.624l2.256-16h43.2c-0.656 10.368-0.368 28.56-0.368 45.824v178.192h-48zM704 420.384c0-4.080-1.104-7.536-2.064-10.976-2.896-13.488-14.48-22.912-28.56-22.912-20.176 0-33.504 16.32-33.504 42.352 0 24.16 11.44 43.616 33.536 43.616 15.024 0 26.336-10.672 29.2-23.536 0.336-2.496 1.392-5.952 1.392-8.464v-20.080zM224.368 864h575.248c21.776 0 41.808-7.312 57.936-19.504l112.976 92.416c-20.992 14.112-46.688 23.088-74.528 23.088h-768c-25.664 0-49.504-7.616-69.536-19.84l101.216-101.232c17.136 15.52 39.776 25.072 64.688 25.072zM995.184 915.76l-115.504-94.496c10.304-15.344 16.32-33.792 16.32-53.632v-559.248c0-23.664-8.56-45.312-22.72-62.080l129.808-159.328c13.2 19.76 20.912 45.328 20.912 77.024v784c0 23.728-10.816 47.936-28.816 67.76zM799.632 112h-575.264c-22.288 0-42.72 7.632-59.024 20.32l-124.288-167.76c22.848-19.104 53.328-28.56 86.944-28.56h768c32.784 0 62.576 9.008 85.216 27.168l-132.368 162.464c-14.416-8.608-31.216-13.632-49.216-13.632zM128 208.368v559.264c0 16.672 4.256 32.368 11.696 46.032l-106.528 106.544c-20.544-20.592-33.168-46.64-33.168-72.208v-784c0-30.528 7.216-55.312 19.52-74.768l123.792 167.136c-9.648 15.008-15.312 32.832-15.312 52z" />
<glyph unicode="&#xe909;" glyph-name="keycap_keycap-Enter" d="M320 448v32h-144v-208h144v32h-80v64h80v32h-80v48zM480 272v90.976c0 45.184-21.264 63.68-53.264 63.68-25.936 0-39.2-10.672-45.616-26.672h-0.96l-2.24 32h-42.24c0.64-15.984 0.32-36.368 0.32-55.52v-104.464h48v88.464c0 4.384 1.44 9.104 2.72 11.92 3.216 8.784 9.2 17.888 22.656 17.888 17.6 0 22.624-13.488 22.624-33.264v-85.008h48zM592 384v48h-32v37.328l-48-10.672v-26.656h-16v-48h16v-56.464c0-21.648 5.104-36.384 14.080-45.488 7.68-7.84 21.136-13.184 36.832-13.184 13.744 0 25.44 1.568 31.824 4.080l-0.24 36.080c-3.52-0.624-8.784-1.248-14.864-1.248-14.736 0-19.648 8.464-19.648 26.976v49.248h32.016zM746.272 353.568c0 37.968-19.2 75.92-69.76 75.92-54.4 0-79.056-43.296-79.056-82.192 0-48 30.4-78.272 83.536-78.272 21.12 0 40.656 3.056 56.656 9.328l-6.4 32.272c-13.12-4.080-26.56-5.040-43.2-5.040-22.768 0-42.608 14.416-44.208 30.416h100.832c0.64 0 1.6 9.408 1.6 17.568zM643.536 368c1.28 16 9.6 31.056 30.096 31.056 22.384 0 27.52-15.056 27.52-31.056h-57.616zM800 272v77.808c0 3.76 4.336 7.52 4.976 10.672 3.2 14.736 13.68 24.16 31.6 24.16 5.424-0.016 11.424-0.64 11.424-1.28v44.864c0 0.624-2.064 2.032-6.544 2.032-15.040 0-30.56-14.272-38.56-30.272h-1.28l-1.616 32.016h-41.92c0.64-16-6.080-34.512-6.080-57.104v-102.896h48zM224.368 864h575.248c21.776 0 41.808-7.312 57.936-19.504l112.976 92.416c-20.992 14.112-46.688 23.088-74.528 23.088h-768c-25.664 0-49.504-7.616-69.536-19.84l101.216-101.232c17.136 15.52 39.776 25.072 64.688 25.072zM995.184 915.76l-115.504-94.496c10.304-15.344 16.32-33.792 16.32-53.632v-559.248c0-23.664-8.56-45.312-22.72-62.080l129.808-159.328c13.2 19.76 20.912 45.328 20.912 77.024v784c0 23.728-10.816 47.936-28.816 67.76zM799.632 112h-575.264c-22.288 0-42.72 7.632-59.024 20.32l-124.288-167.76c22.848-19.104 53.328-28.56 86.944-28.56h768c32.784 0 62.576 9.008 85.216 27.168l-132.368 162.464c-14.416-8.608-31.216-13.632-49.216-13.632zM128 208.368v559.264c0 16.672 4.256 32.368 11.696 46.032l-106.528 106.544c-20.544-20.592-33.168-46.64-33.168-72.208v-784c0-30.528 7.216-55.312 19.52-74.768l123.792 167.136c-9.648 15.008-15.312 32.832-15.312 52zM736 632v72c0 13.264-10.752 24-24 24s-24-10.736-24-24v-48h-328l38.4 28.8c10.592 7.952 12.752 23.008 4.8 33.6s-22.976 12.736-33.616 4.8l-96-72c-0.192-0.144-0.304-0.336-0.48-0.496-1.568-1.248-3.040-2.64-4.32-4.32-0.096-0.128-0.144-0.272-0.24-0.4-0.224-0.304-0.368-0.64-0.576-0.944-1.072-1.664-1.92-3.392-2.544-5.184-0.144-0.4-0.304-0.784-0.416-1.184-0.608-2.096-0.928-4.24-0.96-6.368 0-0.4 0.048-0.784 0.064-1.184 0.080-2.192 0.384-4.352 1.056-6.448 0.032-0.080 0.016-0.176 0.048-0.256 0.016-0.016 0.032-0.048 0.032-0.064 0.72-2.128 1.808-4.112 3.12-6 0.256-0.368 0.496-0.72 0.784-1.072 1.264-1.632 2.688-3.168 4.416-4.464l96-72c4.336-3.232 9.376-4.8 14.384-4.8 7.296 0 14.496 3.312 19.216 9.6 7.952 10.608 5.792 25.648-4.8 33.6l-38.352 28.784h351.984c13.248 0 24 10.736 24 24z" />
<glyph unicode="&#xe90a;" glyph-name="keycap_keycap-Esc" d="M224.368 864h575.248c21.776 0 41.808-7.312 57.952-19.504l112.96 92.416c-21.008 14.112-46.688 23.088-74.528 23.088h-768c-25.664 0-49.504-7.616-69.536-19.84l101.232-101.232c17.104 15.52 39.76 25.072 64.672 25.072zM995.2 915.76l-115.504-94.496c10.288-15.344 16.304-33.792 16.304-53.632v-559.248c0-23.664-8.56-45.312-22.704-62.080l129.808-159.328c13.184 19.76 20.896 45.328 20.896 77.024v784c0 23.728-10.816 47.936-28.8 67.76zM799.632 112h-575.264c-22.272 0-42.72 7.632-59.040 20.32l-124.256-167.76c22.832-19.104 53.312-28.56 86.928-28.56h768c32.768 0 62.576 9.008 85.216 27.168l-132.368 162.464c-14.416-8.608-31.216-13.632-49.216-13.632zM128 208.368v559.264c0 16.672 4.24 32.368 11.696 46.032l-106.528 106.544c-20.544-20.592-33.168-46.64-33.168-72.208v-784c0-30.528 7.216-55.312 19.52-74.768l123.808 167.136c-9.664 15.008-15.328 32.832-15.328 52zM432 560v48h-192v-288h192v48h-112v80h112v48h-112v64zM519.856 362.144c-20.16 0-46.144 8.784-58.688 16.24l-12.096-47.856c16.576-8.768 42.112-14.928 70.784-14.928 62.72 0 94.976 29.408 94.976 69.36-0.448 31.6-17.92 52.24-59.584 66.288-26.88 9.216-35.392 14.48-35.392 24.592 0 10.976 9.408 17.552 25.984 17.552 18.816 0 37.632-7.024 47.488-12.288l12.096 46.080c-13.44 6.592-36.288 12.304-61.824 12.304-54.208 0-89.152-30.288-89.152-70.24-0.448-25.456 17.024-49.6 62.272-64.528 25.536-8.336 32.256-13.616 32.256-24.576 0-10.976-8.528-18-29.12-18zM749.664 488.128c17.92 0 30.016-3.072 38.080-6.592l10.752 49.6c-14.336 5.264-34.048 8.336-51.968 8.336-81.536 0-125.44-51.36-125.44-114.128 0-67.6 45.248-109.744 116.032-109.744 25.984 0 48.832 4.384 60.928 9.664l-8.064 49.168c-10.304-3.952-22.848-6.592-38.976-6.592-33.152 0-60.032 20.64-60.032 60.144-0.432 35.12 22.848 60.144 58.688 60.144z" />
<glyph unicode="&#xe90b;" glyph-name="keycap_keycap-F1" d="M224.368 864h575.248c21.776 0 41.808-7.312 57.952-19.504l112.96 92.416c-21.008 14.112-46.688 23.088-74.528 23.088h-768c-25.664 0-49.504-7.616-69.536-19.84l101.232-101.232c17.104 15.52 39.76 25.072 64.672 25.072zM995.2 915.76l-115.504-94.496c10.288-15.344 16.304-33.792 16.304-53.632v-559.248c0-23.664-8.56-45.312-22.704-62.080l129.808-159.328c13.184 19.76 20.896 45.328 20.896 77.024v784c0 23.728-10.816 47.936-28.8 67.76zM799.632 112h-575.264c-22.272 0-42.72 7.632-59.040 20.32l-124.256-167.76c22.832-19.104 53.312-28.56 86.928-28.56h768c32.768 0 62.576 9.008 85.216 27.168l-132.368 162.464c-14.416-8.608-31.216-13.632-49.216-13.632zM128 208.368v559.264c0 16.672 4.24 32.368 11.696 46.032l-106.528 106.544c-20.544-20.592-33.168-46.64-33.168-72.208v-784c0-30.528 7.216-55.312 19.52-74.768l123.808 167.136c-9.664 15.008-15.328 32.832-15.328 52zM496 560v48h-192v-288h80v112h96v64h-96v64zM672 320v288h-62.336l-77.056-36.448 11.2-51.744 55.552 24.192h8.64v-224z" />
<glyph unicode="&#xe90c;" glyph-name="keycap_keycap-F2" d="M224.368 864h575.248c21.776 0 41.808-7.312 57.952-19.504l112.96 92.416c-21.008 14.112-46.688 23.088-74.528 23.088h-768c-25.664 0-49.504-7.616-69.536-19.84l101.232-101.232c17.104 15.52 39.76 25.072 64.672 25.072zM995.2 915.76l-115.504-94.496c10.288-15.344 16.304-33.792 16.304-53.632v-559.248c0-23.664-8.56-45.312-22.704-62.080l129.808-159.328c13.184 19.76 20.896 45.328 20.896 77.024v784c0 23.728-10.816 47.936-28.8 67.76zM799.632 112h-575.264c-22.272 0-42.72 7.632-59.040 20.32l-124.256-167.76c22.832-19.104 53.312-28.56 86.928-28.56h768c32.768 0 62.576 9.008 85.216 27.168l-132.368 162.464c-14.416-8.608-31.216-13.632-49.216-13.632zM128 208.368v559.264c0 16.672 4.24 32.368 11.696 46.032l-106.528 106.544c-20.544-20.592-33.168-46.64-33.168-72.208v-784c0-30.528 7.216-55.312 19.52-74.768l123.808 167.136c-9.664 15.008-15.328 32.832-15.328 52zM496 560v48h-192v-288h80v112h96v64h-96v64zM550.304 393.744l-38.304-33.36v-40.384h208v48h-112v7.744l27.936 21.952c42.112 36.88 78.032 75.056 78.032 122.912 0 51.792-36.016 89.552-101.888 89.552-39.424 0-73.328-13.168-95.296-29.408l19.328-47.84c15.232 11.408 37.216 23.696 62.304 23.696 33.6 0 47.616-18.432 47.616-41.696-0.88-33.376-32.112-65.424-95.728-121.168z" />
<glyph unicode="&#xe90d;" glyph-name="keycap_keycap-F3" d="M224.368 864h575.248c21.776 0 41.808-7.312 57.952-19.504l112.96 92.416c-21.008 14.112-46.688 23.088-74.528 23.088h-768c-25.664 0-49.504-7.616-69.536-19.84l101.232-101.232c17.104 15.52 39.76 25.072 64.672 25.072zM995.2 915.76l-115.504-94.496c10.288-15.344 16.304-33.792 16.304-53.632v-559.248c0-23.664-8.56-45.312-22.704-62.080l129.808-159.328c13.184 19.76 20.896 45.328 20.896 77.024v784c0 23.728-10.816 47.936-28.8 67.76zM799.632 112h-575.264c-22.272 0-42.72 7.632-59.040 20.32l-124.256-167.76c22.832-19.104 53.312-28.56 86.928-28.56h768c32.768 0 62.576 9.008 85.216 27.168l-132.368 162.464c-14.416-8.608-31.216-13.632-49.216-13.632zM128 208.368v559.264c0 16.672 4.24 32.368 11.696 46.032l-106.528 106.544c-20.544-20.592-33.168-46.64-33.168-72.208v-784c0-30.528 7.216-55.312 19.52-74.768l123.808 167.136c-9.664 15.008-15.328 32.832-15.328 52zM496 560v48h-192v-288h80v112h96v64h-96v64zM593.088 367.84c-27.776 0-55.552 11.408-67.648 17.568l-13.888-50.032c17.024-10.544 48.832-20.192 86.464-20.192 73.92 0 120.16 36.88 120.16 87.344 0 37.312-30.176 63.216-62.176 69.36v0.88c32 12.288 52.32 36 52.32 66.288 0 39.056-34.992 71.104-97.264 71.104-37.648 0-72.832-10.544-90.304-21.504l13.76-48.288c12.096 7.024 37.12 17.12 60.864 17.12 28.672 0 42.976-12.080 42.976-29.2 0-24.16-29.152-32.288-52-32.288h-26.352v-48h27.712c30.016 0 58.688-13.296 58.688-41.392 0-21.504-17.92-38.768-53.312-38.768z" />
<glyph unicode="&#xe90e;" glyph-name="keycap_keycap-F4" d="M224.368 864h575.248c21.776 0 41.808-7.312 57.936-19.504l112.976 92.416c-20.992 14.112-46.688 23.088-74.528 23.088h-768c-25.664 0-49.504-7.616-69.536-19.84l101.216-101.232c17.136 15.52 39.776 25.072 64.688 25.072zM995.184 915.76l-115.504-94.496c10.304-15.344 16.32-33.792 16.32-53.632v-559.248c0-23.664-8.56-45.312-22.72-62.080l129.808-159.328c13.2 19.76 20.912 45.328 20.912 77.024v784c0 23.728-10.816 47.936-28.816 67.76zM799.632 112h-575.264c-22.288 0-42.72 7.632-59.024 20.32l-124.288-167.76c22.848-19.104 53.328-28.56 86.944-28.56h768c32.784 0 62.576 9.008 85.216 27.168l-132.368 162.464c-14.416-8.608-31.216-13.632-49.216-13.632zM128 208.368v559.264c0 16.672 4.256 32.368 11.696 46.032l-106.528 106.544c-20.544-20.592-33.168-46.64-33.168-72.208v-784c0-30.528 7.216-55.312 19.52-74.768l123.792 167.136c-9.648 15.008-15.312 32.832-15.312 52zM496 560v48h-192v-288h80v112h96v64h-96v64zM704 320v64h32v48h-32v176h-88.976l-103.024-176.496v-47.504h128v-64h64zM576 432v6.96l35.216 65.12c9.84 18 13.696 23.92 23.104 55.92h1.776c-1.344-32 3.904-41.584 3.904-58.704v-69.296h-64z" />
<glyph unicode="&#xe90f;" glyph-name="keycap_keycap-F5" d="M224.368 864h575.248c21.776 0 41.808-7.312 57.936-19.504l112.976 92.416c-20.992 14.112-46.688 23.088-74.528 23.088h-768c-25.664 0-49.504-7.616-69.536-19.84l101.216-101.232c17.136 15.52 39.776 25.072 64.688 25.072zM995.184 915.76l-115.504-94.496c10.304-15.344 16.32-33.792 16.32-53.632v-559.248c0-23.664-8.56-45.312-22.72-62.080l129.808-159.328c13.2 19.76 20.912 45.328 20.912 77.024v784c0 23.728-10.816 47.936-28.816 67.76zM799.632 112h-575.264c-22.288 0-42.72 7.632-59.024 20.32l-124.288-167.76c22.848-19.104 53.328-28.56 86.944-28.56h768c32.784 0 62.576 9.008 85.216 27.168l-132.368 162.464c-14.416-8.608-31.216-13.632-49.216-13.632zM128 208.368v559.264c0 16.672 4.256 32.368 11.696 46.032l-106.528 106.544c-20.544-20.592-33.168-46.64-33.168-72.208v-784c0-30.528 7.216-55.312 19.52-74.768l123.792 167.136c-9.648 15.008-15.312 32.832-15.312 52zM496 560v48h-192v-288h80v112h96v64h-96v64zM591.296 367.408c-26.416 0-52.864 7.904-65.856 14.048l-12.096-50.032c16.128-8.336 45.696-16.24 81.088-16.24 78.4 0 125.008 46.976 125.008 100.080 0 33.36-13.456 57.056-35.408 71.552-20.592 14.48-48.832 20.64-76.592 20.64-7.184 0-12.56-3.232-18.832-4.096l6.272 40.64h109.12v64h-156.592l-19.28-151.024c12.096 1.76 23.312 1.968 39.44 1.968 58.24 0 81.968-18.336 81.968-47.728 0-30.304-30-43.808-58.24-43.808z" />
<glyph unicode="&#xe910;" glyph-name="keycap_keycap-F6" d="M224.368 864h575.248c21.776 0 41.808-7.312 57.936-19.504l112.976 92.416c-20.992 14.112-46.688 23.088-74.528 23.088h-768c-25.664 0-49.504-7.616-69.536-19.84l101.216-101.232c17.136 15.52 39.776 25.072 64.688 25.072zM995.184 915.76l-115.504-94.496c10.304-15.344 16.32-33.792 16.32-53.632v-559.248c0-23.664-8.56-45.312-22.72-62.080l129.808-159.328c13.2 19.76 20.912 45.328 20.912 77.024v784c0 23.728-10.816 47.936-28.816 67.76zM799.632 112h-575.264c-22.288 0-42.72 7.632-59.024 20.32l-124.288-167.76c22.848-19.104 53.328-28.56 86.944-28.56h768c32.784 0 62.576 9.008 85.216 27.168l-132.368 162.464c-14.416-8.608-31.216-13.632-49.216-13.632zM128 208.368v559.264c0 16.672 4.256 32.368 11.696 46.032l-106.528 106.544c-20.544-20.592-33.168-46.64-33.168-72.208v-784c0-30.528 7.216-55.312 19.52-74.768l123.792 167.136c-9.648 15.008-15.312 32.832-15.312 52zM496 560v48h-192v-288h80v112h96v64h-96v64zM675.216 560.752c10.752 0.896 12.784-2.4 28.784-2.832v51.36c-16 0.432-17.152 0.432-29.68-0.448-45.68-2.192-84.512-16.24-113.632-42.144-31.376-28.528-52.128-73.312-52.128-126.864 0-68.032 37.792-124.672 115.296-124.672 63.152 0 107.36 46.528 107.36 103.152 0 59.264-41.28 96.784-90.112 96.784-27.344 0.016-47.568-19.088-61.904-19.088h-1.344c7.616 32 36.864 59.936 97.36 64.752zM578.32 438.528c6.72 14.48 21.936 25.456 40.32 25.456 29.12 0 43.472-22.832 43.472-49.168 0-28.976-15.248-50.48-39.44-50.48-30.912 0-45.68 27.216-47.024 57.504-0.016 7.904 0.864 13.168 2.672 16.688z" />
<glyph unicode="&#xe911;" glyph-name="keycap_keycap-F7" d="M224.368 864h575.248c21.776 0 41.808-7.312 57.936-19.504l112.976 92.416c-20.992 14.112-46.688 23.088-74.528 23.088h-768c-25.664 0-49.504-7.616-69.536-19.84l101.216-101.232c17.136 15.52 39.776 25.072 64.688 25.072zM995.184 915.76l-115.504-94.496c10.304-15.344 16.32-33.792 16.32-53.632v-559.248c0-23.664-8.56-45.312-22.72-62.080l129.808-159.328c13.2 19.76 20.912 45.328 20.912 77.024v784c0 23.728-10.816 47.936-28.816 67.76zM799.632 112h-575.264c-22.288 0-42.72 7.632-59.024 20.32l-124.288-167.76c22.848-19.104 53.328-28.56 86.944-28.56h768c32.784 0 62.576 9.008 85.216 27.168l-132.368 162.464c-14.416-8.608-31.216-13.632-49.216-13.632zM128 208.368v559.264c0 16.672 4.256 32.368 11.696 46.032l-106.528 106.544c-20.544-20.592-33.168-46.64-33.168-72.208v-784c0-30.528 7.216-55.312 19.52-74.768l123.792 167.136c-9.648 15.008-15.312 32.832-15.312 52zM496 560v48h-192v-288h80v112h96v64h-96v64zM529.92 320h72.128l117.952 243.184v44.816h-208v-64h144v5.584z" />
<glyph unicode="&#xe912;" glyph-name="keycap_keycap-F8" d="M224.368 864h575.248c21.776 0 41.808-7.312 57.936-19.504l112.976 92.416c-20.992 14.112-46.688 23.088-74.528 23.088h-768c-25.664 0-49.504-7.616-69.536-19.84l101.216-101.232c17.136 15.52 39.776 25.072 64.688 25.072zM995.184 915.76l-115.504-94.496c10.304-15.344 16.32-33.792 16.32-53.632v-559.248c0-23.664-8.56-45.312-22.72-62.080l129.808-159.328c13.2 19.76 20.912 45.328 20.912 77.024v784c0 23.728-10.816 47.936-28.816 67.76zM799.632 112h-575.264c-22.288 0-42.72 7.632-59.024 20.32l-124.288-167.76c22.848-19.104 53.328-28.56 86.944-28.56h768c32.784 0 62.576 9.008 85.216 27.168l-132.368 162.464c-14.416-8.608-31.216-13.632-49.216-13.632zM128 208.368v559.264c0 16.672 4.256 32.368 11.696 46.032l-106.528 106.544c-20.544-20.592-33.168-46.64-33.168-72.208v-784c0-30.528 7.216-55.312 19.52-74.768l123.792 167.136c-9.648 15.008-15.312 32.832-15.312 52zM496 560v48h-192v-288h80v112h96v64h-96v64zM508.448 394.624c0-38.64 34.24-79.456 108.176-79.456 67.664 0 110.336 34.672 110.336 86.48 0 36.88-22.976 60.576-54.976 71.104v1.328c32 14.048 43.856 38.192 43.856 62.768 0 34.672-27.328 73.312-95.424 73.312-58.256 0-102.576-32.048-102.576-80.336 0-25.024 10.144-48.288 42.144-62.336v-1.328c-31.984-13.584-51.536-37.296-51.536-71.536zM618.192 564.944c25.072 0 35.376-17.568 35.376-35.12 0-18-13.872-32.048-29.568-36.432-23.296 7.024-41.216 19.312-41.216 38.64 0 17.984 12.096 32.912 35.408 32.912zM613.68 443.792c26.896-7.024 45.696-21.952 45.696-46.976 0-20.192-15.664-35.552-39.856-35.552-25.552 0-41.664 19.312-41.216 39.952 0.016 20.624 12.992 36.432 35.376 42.576z" />
<glyph unicode="&#xe913;" glyph-name="keycap_keycap-F9" d="M224.368 864h575.248c21.776 0 41.808-7.312 57.952-19.504l112.96 92.416c-21.008 14.112-46.688 23.088-74.528 23.088h-768c-25.664 0-49.504-7.616-69.536-19.84l101.232-101.232c17.104 15.52 39.76 25.072 64.672 25.072zM995.2 915.76l-115.504-94.496c10.288-15.344 16.304-33.792 16.304-53.632v-559.248c0-23.664-8.56-45.312-22.704-62.080l129.808-159.328c13.184 19.76 20.896 45.328 20.896 77.024v784c0 23.728-10.816 47.936-28.8 67.76zM799.632 112h-575.264c-22.272 0-42.72 7.632-59.040 20.32l-124.256-167.76c22.832-19.104 53.312-28.56 86.928-28.56h768c32.768 0 62.576 9.008 85.216 27.168l-132.368 162.464c-14.416-8.608-31.216-13.632-49.216-13.632zM128 208.368v559.264c0 16.672 4.24 32.368 11.696 46.032l-106.528 106.544c-20.544-20.592-33.168-46.64-33.168-72.208v-784c0-30.528 7.216-55.312 19.52-74.768l123.808 167.136c-9.664 15.008-15.328 32.832-15.328 52zM496 560v48h-192v-288h80v112h96v64h-96v64zM621.76 385.84c-15.68-10.528-40.176-16.24-60.768-17.552-13.456-0.88-17.008-0.88-33.008 0v-52.24c16-0.432 22.688-0.88 34.336 0 45.232 1.76 85.040 15.36 112.816 39.952 31.808 28.544 51.92 72 51.92 131.248 0 66.72-34.96 122.912-109.776 122.912-64.064 0-109.552-46.976-109.552-102.72 0-55.312 41.76-89.104 91.040-89.104 26.432 0 45.312 7.456 58.304 20.64l1.376-0.432c-5.344-21.536-17.872-39.968-36.688-52.704zM654.912 484.608c-6.272-10.096-19.264-18.88-37.632-18.88-27.776 0-41.216 21.072-41.216 45.664-0.448 29.84 16.576 50.032 39.872 50.032 30.912 0 42.56-29.856 42.56-60.144 0-8.32-1.344-12.72-3.584-16.672z" />
<glyph unicode="&#xe914;" glyph-name="keycap_keycap-F10" d="M224.368 864h575.248c21.776 0 41.808-7.312 57.952-19.504l112.96 92.416c-21.008 14.112-46.688 23.088-74.528 23.088h-768c-25.664 0-49.504-7.616-69.536-19.84l101.232-101.232c17.104 15.52 39.76 25.072 64.672 25.072zM995.2 915.76l-115.504-94.496c10.288-15.344 16.304-33.792 16.304-53.632v-559.248c0-23.664-8.56-45.312-22.704-62.080l129.808-159.328c13.184 19.76 20.896 45.328 20.896 77.024v784c0 23.728-10.816 47.936-28.8 67.76zM799.632 112h-575.264c-22.272 0-42.72 7.632-59.040 20.32l-124.256-167.76c22.832-19.104 53.312-28.56 86.928-28.56h768c32.768 0 62.576 9.008 85.216 27.168l-132.368 162.464c-14.416-8.608-31.216-13.632-49.216-13.632zM128 208.368v559.264c0 16.672 4.24 32.368 11.696 46.032l-106.528 106.544c-20.544-20.592-33.168-46.64-33.168-72.208v-784c0-30.528 7.216-55.312 19.52-74.768l123.808 167.136c-9.664 15.008-15.328 32.832-15.328 52zM384 560v48h-192v-288h80v112h96v64h-96v64zM560 320v288h-63.456l-77.056-36.448 11.2-51.744 55.552 24.192h-6.24v-224zM622 462.224c0.448-80.768 33.6-147.056 108.864-147.056 74.368 0 110.656 60.576 110.656 148.816 0 78.128-30.464 146.176-108.416 146.176-75.28 0-111.104-65.408-111.104-147.936zM773.408 463.104c0-64.976-14.336-97.44-40.768-97.44s-42.56 31.168-42.112 96.576c-0.448 66.288 16.576 97.44 41.664 97.44 27.344-0.016 41.216-33.36 41.216-96.576z" />
<glyph unicode="&#xe915;" glyph-name="keycap_keycap-F11" d="M224.368 864h575.248c21.776 0 41.808-7.312 57.952-19.504l112.96 92.416c-21.008 14.112-46.688 23.088-74.528 23.088h-768c-25.664 0-49.504-7.616-69.536-19.84l101.232-101.232c17.104 15.52 39.76 25.072 64.672 25.072zM995.2 915.76l-115.504-94.496c10.288-15.344 16.304-33.792 16.304-53.632v-559.248c0-23.664-8.56-45.312-22.704-62.080l129.808-159.328c13.184 19.76 20.896 45.328 20.896 77.024v784c0 23.728-10.816 47.936-28.8 67.76zM799.632 112h-575.264c-22.272 0-42.72 7.632-59.040 20.32l-124.256-167.76c22.832-19.104 53.312-28.56 86.928-28.56h768c32.768 0 62.576 9.008 85.216 27.168l-132.368 162.464c-14.416-8.608-31.216-13.632-49.216-13.632zM128 208.368v559.264c0 16.672 4.24 32.368 11.696 46.032l-106.528 106.544c-20.544-20.592-33.168-46.64-33.168-72.208v-784c0-30.528 7.216-55.312 19.52-74.768l123.808 167.136c-9.664 15.008-15.328 32.832-15.328 52zM384 560v48h-192v-288h80v112h96v64h-96v64zM560 320v288h-63.456l-77.056-36.448 11.2-51.744 55.552 24.192h-6.24v-224zM784 320v288h-61.216l-77.056-36.448 11.216-51.744 55.536 24.192h7.52v-224z" />
<glyph unicode="&#xe916;" glyph-name="keycap_keycap-F12" d="M224.368 864h575.248c21.776 0 41.808-7.312 57.952-19.504l112.96 92.416c-21.008 14.112-46.688 23.088-74.528 23.088h-768c-25.664 0-49.504-7.616-69.536-19.84l101.232-101.232c17.104 15.52 39.76 25.072 64.672 25.072zM995.2 915.76l-115.504-94.496c10.288-15.344 16.304-33.792 16.304-53.632v-559.248c0-23.664-8.56-45.312-22.704-62.080l129.808-159.328c13.184 19.76 20.896 45.328 20.896 77.024v784c0 23.728-10.816 47.936-28.8 67.76zM799.632 112h-575.264c-22.272 0-42.72 7.632-59.040 20.32l-124.256-167.76c22.832-19.104 53.312-28.56 86.928-28.56h768c32.768 0 62.576 9.008 85.216 27.168l-132.368 162.464c-14.416-8.608-31.216-13.632-49.216-13.632zM128 208.368v559.264c0 16.672 4.24 32.368 11.696 46.032l-106.528 106.544c-20.544-20.592-33.168-46.64-33.168-72.208v-784c0-30.528 7.216-55.312 19.52-74.768l123.808 167.136c-9.664 15.008-15.328 32.832-15.328 52zM384 560v48h-192v-288h80v112h96v64h-96v64zM560 320v288h-63.456l-77.056-36.448 11.2-51.744 55.552 24.192h-6.24v-224zM662.864 393.744l-38.864-33.36v-40.384h208v48h-112v7.744l28.496 21.952c42.112 36.88 78.32 75.056 78.32 122.912 0 51.792-35.888 89.552-101.744 89.552-39.424 0-73.264-13.168-95.216-29.408l19.36-47.84c15.232 11.408 37.232 23.696 62.336 23.696 33.6 0 47.344-18.432 47.344-41.696-0.896-33.376-32.416-65.424-96.032-121.168z" />
<glyph unicode="&#xe917;" glyph-name="keycap_keycap-F13" d="M224.368 864h575.248c21.776 0 41.808-7.312 57.952-19.504l112.96 92.416c-21.008 14.112-46.688 23.088-74.528 23.088h-768c-25.664 0-49.504-7.616-69.536-19.84l101.232-101.232c17.104 15.52 39.76 25.072 64.672 25.072zM995.2 915.76l-115.504-94.496c10.288-15.344 16.304-33.792 16.304-53.632v-559.248c0-23.664-8.56-45.312-22.704-62.080l129.808-159.328c13.184 19.76 20.896 45.328 20.896 77.024v784c0 23.728-10.816 47.936-28.8 67.76zM799.632 112h-575.264c-22.272 0-42.72 7.632-59.040 20.32l-124.256-167.76c22.832-19.104 53.312-28.56 86.928-28.56h768c32.768 0 62.576 9.008 85.216 27.168l-132.368 162.464c-14.416-8.608-31.216-13.632-49.216-13.632zM128 208.368v559.264c0 16.672 4.24 32.368 11.696 46.032l-106.528 106.544c-20.544-20.592-33.168-46.64-33.168-72.208v-784c0-30.528 7.216-55.312 19.52-74.768l123.808 167.136c-9.664 15.008-15.328 32.832-15.328 52zM384 560v48h-192v-288h80v112h96v64h-96v64zM560 320v288h-63.456l-77.056-36.448 11.2-51.744 55.552 24.192h-6.24v-224zM706.208 367.84c-27.776 0-55.552 11.408-67.648 17.568l-13.888-50.032c17.024-10.544 48.832-20.192 86.464-20.192 73.92 0 119.6 36.88 119.6 87.344 0 37.312-30.736 63.216-62.736 69.36v0.88c32 12.288 52.88 36 52.88 66.288 0 39.056-34.704 71.104-96.976 71.104-37.632 0-72.688-10.544-90.16-21.504l13.84-48.288c12.096 7.024 37.152 17.12 60.896 17.12 28.672 0 43.008-12.080 43.008-29.2 0-24.16-29.136-32.288-51.984-32.288h-27.504v-48h28.832c30.016 0 58.688-13.296 58.688-41.392 0-21.504-17.92-38.768-53.312-38.768z" />
<glyph unicode="&#xe918;" glyph-name="keycap_keycap-F14" d="M224.368 864h575.248c21.776 0 41.808-7.312 57.952-19.504l112.96 92.416c-21.008 14.112-46.688 23.088-74.528 23.088h-768c-25.664 0-49.504-7.616-69.536-19.84l101.232-101.232c17.104 15.52 39.76 25.072 64.672 25.072zM995.2 915.76l-115.504-94.496c10.288-15.344 16.304-33.792 16.304-53.632v-559.248c0-23.664-8.56-45.312-22.704-62.080l129.808-159.328c13.184 19.76 20.896 45.328 20.896 77.024v784c0 23.728-10.816 47.936-28.8 67.76zM799.632 112h-575.264c-22.272 0-42.72 7.632-59.040 20.32l-124.256-167.76c22.832-19.104 53.312-28.56 86.928-28.56h768c32.768 0 62.576 9.008 85.216 27.168l-132.368 162.464c-14.416-8.608-31.216-13.632-49.216-13.632zM128 208.368v559.264c0 16.672 4.24 32.368 11.696 46.032l-106.528 106.544c-20.544-20.592-33.168-46.64-33.168-72.208v-784c0-30.528 7.216-55.312 19.52-74.768l123.808 167.136c-9.664 15.008-15.328 32.832-15.328 52zM384 560v48h-192v-288h80v112h96v64h-96v64zM560 320v288h-63.456l-77.056-36.448 11.2-51.744 55.552 24.192h-6.24v-224zM816 320v64h32v48h-32v176h-87.84l-104.16-176.496v-47.504h128v-64h64zM688 432v6.96l35.76 65.12c9.856 18 14.256 23.92 23.664 55.92h1.792c-1.344-32 2.784-41.584 2.784-58.704v-69.296h-64z" />
<glyph unicode="&#xe919;" glyph-name="keycap_keycap-F15" d="M224.368 864h575.248c21.776 0 41.808-7.312 57.952-19.504l112.96 92.416c-21.008 14.112-46.688 23.088-74.528 23.088h-768c-25.664 0-49.504-7.616-69.536-19.84l101.232-101.232c17.104 15.52 39.76 25.072 64.672 25.072zM995.2 915.76l-115.504-94.496c10.288-15.344 16.304-33.792 16.304-53.632v-559.248c0-23.664-8.56-45.312-22.704-62.080l129.808-159.328c13.184 19.76 20.896 45.328 20.896 77.024v784c0 23.728-10.816 47.936-28.8 67.76zM799.632 112h-575.264c-22.272 0-42.72 7.632-59.040 20.32l-124.256-167.76c22.832-19.104 53.312-28.56 86.928-28.56h768c32.768 0 62.576 9.008 85.216 27.168l-132.368 162.464c-14.416-8.608-31.216-13.632-49.216-13.632zM128 208.368v559.264c0 16.672 4.24 32.368 11.696 46.032l-106.528 106.544c-20.544-20.592-33.168-46.64-33.168-72.208v-784c0-30.528 7.216-55.312 19.52-74.768l123.808 167.136c-9.664 15.008-15.328 32.832-15.328 52zM384 560v48h-192v-288h80v112h96v64h-96v64zM560 320v288h-63.456l-77.056-36.448 11.2-51.744 55.552 24.192h-6.24v-224zM704.416 367.408c-26.432 0-52.864 7.904-65.856 14.048l-12.096-50.032c16.128-8.336 45.696-16.24 81.088-16.24 78.4 0 124.992 46.976 124.992 100.080 0 33.36-13.44 57.056-35.392 71.552-20.608 14.48-48.832 20.64-76.608 20.64-7.168 0-12.544-3.232-18.816-4.096l6.272 40.64h108v64h-155.488l-19.264-151.024c12.096 1.76 23.296 1.968 39.424 1.968 58.24 0 81.984-18.336 81.984-47.728 0-30.304-30.016-43.808-58.24-43.808z" />
<glyph unicode="&#xe91a;" glyph-name="keycap_keycap-F16" d="M224.368 864h575.248c21.776 0 41.808-7.312 57.936-19.504l112.976 92.416c-20.992 14.112-46.688 23.088-74.528 23.088h-768c-25.664 0-49.504-7.616-69.536-19.84l101.216-101.232c17.136 15.52 39.776 25.072 64.688 25.072zM995.184 915.76l-115.504-94.496c10.304-15.344 16.32-33.792 16.32-53.632v-559.248c0-23.664-8.56-45.312-22.72-62.080l129.808-159.328c13.2 19.76 20.912 45.328 20.912 77.024v784c0 23.728-10.816 47.936-28.816 67.76zM799.632 112h-575.264c-22.288 0-42.72 7.632-59.024 20.32l-124.288-167.76c22.848-19.104 53.328-28.56 86.944-28.56h768c32.784 0 62.576 9.008 85.216 27.168l-132.368 162.464c-14.416-8.608-31.216-13.632-49.216-13.632zM128 208.368v559.264c0 16.672 4.256 32.368 11.696 46.032l-106.528 106.544c-20.544-20.592-33.168-46.64-33.168-72.208v-784c0-30.528 7.216-55.312 19.52-74.768l123.792 167.136c-9.648 15.008-15.312 32.832-15.312 52zM384 560v48h-192v-288h80v112h96v64h-96v64zM560 320v288h-63.456l-77.040-36.448 11.184-51.744 55.568 24.192h-6.256v-224zM787.76 560.752c10.752 0.896 12.24-2.4 28.24-2.832v51.36c-16 0.432-16.592 0.432-29.12-0.448-45.696-2.192-84.256-16.24-113.36-42.144-31.36-28.528-51.968-73.312-51.968-126.864 0-68.032 37.856-124.672 115.36-124.672 63.152 0 107.392 46.528 107.392 103.152 0 59.264-41.264 96.784-90.096 96.784-27.328 0.016-47.552-19.088-61.888-19.088h-1.344c7.616 32 36.304 59.936 96.784 64.752zM691.424 438.528c6.72 14.48 21.952 25.456 40.336 25.456 29.12 0 43.456-22.832 43.456-49.168 0-28.976-15.232-50.48-39.424-50.48-30.912 0-45.696 27.216-47.040 57.504-0.016 7.904 0.88 13.168 2.672 16.688z" />
<glyph unicode="&#xe91b;" glyph-name="keycap_keycap-F17" d="M224.368 864h575.248c21.776 0 41.808-7.312 57.936-19.504l112.976 92.416c-20.992 14.112-46.688 23.088-74.528 23.088h-768c-25.664 0-49.504-7.616-69.536-19.84l101.216-101.232c17.136 15.52 39.776 25.072 64.688 25.072zM995.184 915.76l-115.504-94.496c10.304-15.344 16.32-33.792 16.32-53.632v-559.248c0-23.664-8.56-45.312-22.72-62.080l129.808-159.328c13.2 19.76 20.912 45.328 20.912 77.024v784c0 23.728-10.816 47.936-28.816 67.76zM799.632 112h-575.264c-22.288 0-42.72 7.632-59.024 20.32l-124.288-167.76c22.848-19.104 53.328-28.56 86.944-28.56h768c32.784 0 62.576 9.008 85.216 27.168l-132.368 162.464c-14.416-8.608-31.216-13.632-49.216-13.632zM128 208.368v559.264c0 16.672 4.256 32.368 11.696 46.032l-106.528 106.544c-20.544-20.592-33.168-46.64-33.168-72.208v-784c0-30.528 7.216-55.312 19.52-74.768l123.792 167.136c-9.648 15.008-15.312 32.832-15.312 52zM384 560v48h-192v-288h80v112h96v64h-96v64zM560 320v288h-63.456l-77.040-36.448 11.184-51.744 55.568 24.192h-6.256v-224zM643.024 320h72.144l116.832 243.184v44.816h-208v-64h144v5.584z" />
<glyph unicode="&#xe91c;" glyph-name="keycap_keycap-F18" d="M224.368 864h575.248c21.776 0 41.808-7.312 57.936-19.504l112.976 92.416c-20.992 14.112-46.688 23.088-74.528 23.088h-768c-25.664 0-49.504-7.616-69.536-19.84l101.216-101.232c17.136 15.52 39.776 25.072 64.688 25.072zM995.184 915.76l-115.504-94.496c10.304-15.344 16.32-33.792 16.32-53.632v-559.248c0-23.664-8.56-45.312-22.72-62.080l129.808-159.328c13.2 19.76 20.912 45.328 20.912 77.024v784c0 23.728-10.816 47.936-28.816 67.76zM799.632 112h-575.264c-22.288 0-42.72 7.632-59.024 20.32l-124.288-167.76c22.848-19.104 53.328-28.56 86.944-28.56h768c32.784 0 62.576 9.008 85.216 27.168l-132.368 162.464c-14.416-8.608-31.216-13.632-49.216-13.632zM128 208.368v559.264c0 16.672 4.256 32.368 11.696 46.032l-106.528 106.544c-20.544-20.592-33.168-46.64-33.168-72.208v-784c0-30.528 7.216-55.312 19.52-74.768l123.792 167.136c-9.648 15.008-15.312 32.832-15.312 52zM384 560v48h-192v-288h80v112h96v64h-96v64zM560 320v288h-63.456l-77.040-36.448 11.184-51.744 55.568 24.192h-6.256v-224zM621.008 394.624c0-38.64 34.544-79.456 108.464-79.456 67.648 0 109.92 34.672 109.92 86.48 0 36.88-23.392 60.576-55.392 71.104v1.328c32 14.048 44.432 38.192 44.432 62.768 0 34.672-27.056 73.312-95.152 73.312-58.256 0-103.008-32.048-103.008-80.336 0-25.024 9.712-48.288 41.712-62.336v-1.328c-31.984-13.584-50.976-37.296-50.976-71.536zM731.296 564.944c25.072 0 35.392-17.568 35.392-35.12 0-18-13.888-32.048-29.568-36.432-23.312 7.024-41.216 19.312-41.216 38.64 0 17.984 12.096 32.912 35.392 32.912zM726.816 443.792c26.88-7.024 45.696-21.952 45.696-46.976 0-20.192-15.68-35.552-39.872-35.552-25.552 0-41.664 19.312-41.216 39.952 0 20.624 12.976 36.432 35.392 42.576z" />
<glyph unicode="&#xe91d;" glyph-name="keycap_keycap-F19" d="M224.368 864h575.248c21.776 0 41.808-7.312 57.936-19.504l112.976 92.416c-20.992 14.112-46.688 23.088-74.528 23.088h-768c-25.664 0-49.504-7.616-69.536-19.84l101.216-101.232c17.136 15.52 39.776 25.072 64.688 25.072zM995.184 915.76l-115.504-94.496c10.304-15.344 16.32-33.792 16.32-53.632v-559.248c0-23.664-8.56-45.312-22.72-62.080l129.808-159.328c13.2 19.76 20.912 45.328 20.912 77.024v784c0 23.728-10.816 47.936-28.816 67.76zM799.632 112h-575.264c-22.288 0-42.72 7.632-59.024 20.32l-124.288-167.76c22.848-19.104 53.328-28.56 86.944-28.56h768c32.784 0 62.576 9.008 85.216 27.168l-132.368 162.464c-14.416-8.608-31.216-13.632-49.216-13.632zM128 208.368v559.264c0 16.672 4.256 32.368 11.696 46.032l-106.528 106.544c-20.544-20.592-33.168-46.64-33.168-72.208v-784c0-30.528 7.216-55.312 19.52-74.768l123.792 167.136c-9.648 15.008-15.312 32.832-15.312 52zM384 560v48h-192v-288h80v112h96v64h-96v64zM560 320v288h-63.456l-77.040-36.448 11.184-51.744 55.568 24.192h-6.256v-224zM734.88 385.84c-15.664-10.528-40.72-16.24-61.328-17.552-13.44-0.88-17.552-0.88-33.552 0v-52.24c16-0.432 23.248-0.88 34.896 0 45.248 1.76 85.328 15.36 113.104 39.952 31.776 28.544 52.064 72 52.064 131.248 0 66.72-34.912 122.912-109.712 122.912-64.064 0-109.504-46.976-109.504-102.72 0-55.312 41.776-89.104 91.056-89.104 26.432 0 45.312 7.456 58.32 20.64l1.376-0.432c-5.376-21.536-17.92-39.968-36.72-52.704zM768.032 484.608c-6.288-10.096-19.264-18.88-37.632-18.88-27.776 0-41.216 21.072-41.216 45.664-0.448 29.84 16.56 50.032 39.872 50.032 30.912 0 42.56-29.856 42.56-60.144 0.016-8.32-1.328-12.72-3.584-16.672z" />
<glyph unicode="&#xe91e;" glyph-name="keycap_keycap-F20" d="M224.368 864h575.248c21.776 0 41.808-7.312 57.936-19.504l112.976 92.416c-20.992 14.112-46.688 23.088-74.528 23.088h-768c-25.664 0-49.504-7.616-69.536-19.84l101.216-101.232c17.136 15.52 39.776 25.072 64.688 25.072zM995.184 915.76l-115.504-94.496c10.304-15.344 16.32-33.792 16.32-53.632v-559.248c0-23.664-8.56-45.312-22.72-62.080l129.808-159.328c13.2 19.76 20.912 45.328 20.912 77.024v784c0 23.728-10.816 47.936-28.816 67.76zM799.632 112h-575.264c-22.288 0-42.72 7.632-59.024 20.32l-124.288-167.76c22.848-19.104 53.328-28.56 86.944-28.56h768c32.784 0 62.576 9.008 85.216 27.168l-132.368 162.464c-14.416-8.608-31.216-13.632-49.216-13.632zM128 208.368v559.264c0 16.672 4.256 32.368 11.696 46.032l-106.528 106.544c-20.544-20.592-33.168-46.64-33.168-72.208v-784c0-30.528 7.216-55.312 19.52-74.768l123.792 167.136c-9.648 15.008-15.312 32.832-15.312 52zM384 560v48h-192v-288h80v112h96v64h-96v64zM437.744 393.744l-37.744-33.36v-40.384h208v48h-112v7.744l27.376 21.952c42.128 36.88 77.744 75.056 77.744 122.912 0 51.792-36.16 89.552-102.016 89.552-39.424 0-73.408-13.168-95.36-29.408l19.296-47.84c15.232 11.408 37.2 23.696 62.288 23.696 33.616 0 47.888-18.432 47.888-41.696-0.88-33.376-31.856-65.424-95.472-121.168zM621.984 462.224c0.448-80.768 33.616-147.056 108.864-147.056 74.368 0 110.656 60.576 110.656 148.816 0 78.128-30.464 146.176-108.4 146.176-75.28 0-111.12-65.408-111.12-147.936zM773.408 463.104c0-64.976-14.336-97.44-40.768-97.44s-42.56 31.168-42.112 96.576c-0.448 66.288 16.56 97.44 41.664 97.44 27.344-0.016 41.216-33.36 41.216-96.576z" />
<glyph unicode="&#xe91f;" glyph-name="keycap_keycap-Fn" d="M224.368 864h575.248c21.776 0 41.808-7.312 57.936-19.504l112.976 92.416c-20.992 14.112-46.688 23.088-74.528 23.088h-768c-25.664 0-49.504-7.616-69.536-19.84l101.216-101.232c17.136 15.52 39.776 25.072 64.688 25.072zM995.184 915.76l-115.504-94.496c10.304-15.344 16.32-33.792 16.32-53.632v-559.248c0-23.664-8.56-45.312-22.72-62.080l129.808-159.328c13.2 19.76 20.912 45.328 20.912 77.024v784c0 23.728-10.816 47.936-28.816 67.76zM799.632 112h-575.264c-22.288 0-42.72 7.632-59.024 20.32l-124.288-167.76c22.848-19.104 53.328-28.56 86.944-28.56h768c32.784 0 62.576 9.008 85.216 27.168l-132.368 162.464c-14.416-8.608-31.216-13.632-49.216-13.632zM128 208.368v559.264c0 16.672 4.256 32.368 11.696 46.032l-106.528 106.544c-20.544-20.592-33.168-46.64-33.168-72.208v-784c0-30.528 7.216-55.312 19.52-74.768l123.792 167.136c-9.648 15.008-15.312 32.832-15.312 52zM496 560v48h-192v-288h80v112h96v64h-96v64zM720 320v127.296c0 63.216-34.432 95.568-79.248 95.568-36.288 0-59.536-30.864-68.496-30.864h-1.344l-3.12 16h-59.12c0.864-16 3.328-35.040 3.328-61.824v-146.176h64v123.792c0 6.144 2.176 12.72 3.952 16.672 4.48 12.288 19.2 25.024 38.016 25.024 24.656 0 38.032-18.88 38.032-46.528v-118.96h64z" />
<glyph unicode="&#xe920;" glyph-name="keycap_keycap-Home" d="M320 368v208h-48v-80h-80v80h-48v-208h48v96h80v-96zM329.92 443.616c0-49.568 35.2-79.056 80.992-79.056 41.92 0 82.56 25.728 82.56 81.888 0 46.112-32 78.432-80 78.432-50.256-0.016-83.552-31.712-83.552-81.264zM443.216 444.864c0-27.6-12.16-46.112-31.024-46.112-20.816 0-32.016 19.76-32.016 46.112 0 22.592 8.64 46.112 32.016 46.112 22.080 0 31.024-23.216 31.024-46.112zM736 368v90.352c0 45.808-22.704 66.512-52.784 66.512-11.536 0-21.104-3.92-29.76-8.944-7.344-4.384-14.4-3.92-20.144-19.92h-0.64c-6.72 16-22.736 25.088-42.896 25.088-26.864 0-40.656-9.088-47.376-25.088h-0.96l-2.24 32h-40.976c0.656-16-2.224-36.384-2.224-55.536v-104.464h48v89.408c0 3.76 1.776 8.16 3.376 11.92 2.88 7.84 10 17.264 22.464 17.264 15.376 0 22.16-13.184 22.16-32.624v-85.968h48v89.728c0 3.76 1.296 8.784 2.576 12.24 3.2 9.088 11.184 16.624 22.384 16.624 15.664 0 23.024-12.864 23.024-35.136v-83.456h48.016zM890.592 449.568c0 37.968-19.2 75.92-69.776 75.92-54.4 0-79.040-43.296-79.040-82.192 0-48 30.4-78.272 83.552-78.272 21.12 0 40.64 3.056 56.64 9.328l-6.384 32.272c-13.12-4.080-26.576-5.040-43.216-5.040-22.72 0-42.56 14.416-44.176 30.416h100.832c0.624 0 1.568 9.408 1.568 17.568zM787.84 464c1.28 16 9.632 31.056 30.096 31.056 22.4 0 27.536-15.056 27.536-31.056h-57.632zM224.368 864h575.248c21.776 0 41.808-7.312 57.936-19.504l112.976 92.416c-20.992 14.112-46.688 23.088-74.528 23.088h-768c-25.664 0-49.504-7.616-69.536-19.84l101.216-101.232c17.136 15.52 39.776 25.072 64.688 25.072zM995.184 915.76l-115.504-94.496c10.304-15.344 16.32-33.792 16.32-53.632v-559.248c0-23.664-8.56-45.312-22.72-62.080l129.808-159.328c13.2 19.76 20.912 45.328 20.912 77.024v784c0 23.728-10.816 47.936-28.816 67.76zM799.632 112h-575.264c-22.288 0-42.72 7.632-59.024 20.32l-124.288-167.76c22.848-19.104 53.328-28.56 86.944-28.56h768c32.784 0 62.576 9.008 85.216 27.168l-132.368 162.464c-14.416-8.608-31.216-13.632-49.216-13.632zM128 208.368v559.264c0 16.672 4.256 32.368 11.696 46.032l-106.528 106.544c-20.544-20.592-33.168-46.64-33.168-72.208v-784c0-30.528 7.216-55.312 19.52-74.768l123.792 167.136c-9.648 15.008-15.312 32.832-15.312 52z" />
<glyph unicode="&#xe921;" glyph-name="keycap_keycap-left" d="M224.368 864h575.248c21.776 0 41.808-7.312 57.952-19.504l112.96 92.416c-21.008 14.112-46.688 23.088-74.528 23.088h-768c-25.664 0-49.504-7.616-69.536-19.84l101.232-101.232c17.104 15.52 39.76 25.072 64.672 25.072zM995.2 915.76l-115.504-94.496c10.288-15.344 16.304-33.792 16.304-53.632v-559.248c0-23.664-8.56-45.312-22.704-62.080l129.808-159.328c13.184 19.76 20.896 45.328 20.896 77.024v784c0 23.728-10.816 47.936-28.8 67.76zM799.632 112h-575.264c-22.272 0-42.72 7.632-59.040 20.32l-124.256-167.76c22.832-19.104 53.312-28.56 86.928-28.56h768c32.768 0 62.576 9.008 85.216 27.168l-132.368 162.464c-14.416-8.608-31.216-13.632-49.216-13.632zM128 208.368v559.264c0 16.672 4.24 32.368 11.696 46.032l-106.528 106.544c-20.544-20.592-33.168-46.64-33.168-72.208v-784c0-30.528 7.216-55.312 19.52-74.768l123.808 167.136c-9.664 15.008-15.328 32.832-15.328 52zM583.712 654.72l-27.488 27.472c-6.064 6.080-15.92 6.080-21.984 0l-159.92-159.92c-1.824-0.752-3.52-1.856-5.008-3.328l-27.488-27.488c-3.248-3.248-4.704-7.568-4.48-11.824-0.224-4.256 1.232-8.576 4.48-11.824l1.744-2.192 190.672-188.56c6.064-6.080 15.92-6.080 21.984 0l27.488 27.472c6.080 6.064 6.080 15.904 0 22l-153.088 153.088 153.088 153.088c6.080 6.096 6.080 15.936 0 22.016z" />
<glyph unicode="&#xe922;" glyph-name="keycap_keycap-minus" d="M224.368 864h575.248c21.776 0 41.808-7.312 57.952-19.504l112.96 92.416c-21.008 14.112-46.688 23.088-74.528 23.088h-768c-25.664 0-49.504-7.616-69.536-19.84l101.232-101.232c17.104 15.52 39.76 25.072 64.672 25.072zM995.2 915.76l-115.504-94.496c10.288-15.344 16.304-33.792 16.304-53.632v-559.248c0-23.664-8.56-45.312-22.704-62.080l129.808-159.328c13.184 19.76 20.896 45.328 20.896 77.024v784c0 23.728-10.816 47.936-28.8 67.76zM799.632 112h-575.264c-22.272 0-42.72 7.632-59.040 20.32l-124.256-167.76c22.832-19.104 53.312-28.56 86.928-28.56h768c32.768 0 62.576 9.008 85.216 27.168l-132.368 162.464c-14.416-8.608-31.216-13.632-49.216-13.632zM128 208.368v559.264c0 16.672 4.24 32.368 11.696 46.032l-106.528 106.544c-20.544-20.592-33.168-46.64-33.168-72.208v-784c0-30.528 7.216-55.312 19.52-74.768l123.808 167.136c-9.664 15.008-15.328 32.832-15.328 52zM384 528h256v-64h-256v64z" />
<glyph unicode="&#xe923;" glyph-name="keycap_keycap-Num-Lk" d="M289.152 561.568l46.080-81.568h48.768v208h-48v-58.352c0-31.68 6.592-53.648 9.792-85.648h-0.96c-9.616 16-22.4 47.216-35.216 69.488l-44.8 74.512h-56.816v-208h48v63.68c0 34.512-2.304 64.32-3.584 92.24l0.112 0.32c10.56-24.8 23.808-52.080 36.624-74.672zM514.432 496h0.96l2.24-16h42.256c-0.64 12.864 0.112 29.184 0.112 49.264v110.736h-48v-97.888c0-3.76-1.504-7.536-2.784-10.352-3.2-7.536-9.152-16.624-22.608-16.624-16.96 0-22.608 13.488-22.608 35.76v89.104h-48v-96.624c0-47.376 20.576-69.664 52.272-69.664 28.144 0 40.064 22.288 46.16 22.288zM816 480v90.352c0 45.808-21.664 66.512-51.744 66.512-11.52 0-20.592-3.92-29.216-8.944-7.376-4.384-13.888-3.92-19.648-19.92h-0.64c-6.72 16-22.72 25.088-42.896 25.088-26.896 0-40.64-9.088-47.36-25.088h-0.976l-2.256 32h-40.944c0.656-16-4.32-36.384-4.32-55.536v-104.464h48v89.408c0 3.76 2.8 8.16 4.4 11.92 2.896 7.84 9.472 17.264 21.968 17.264 15.344 0 21.632-13.184 21.632-32.624v-85.968h48v89.728c0 3.76 2.336 8.784 3.632 12.24 3.184 9.088 10.656 16.624 21.856 16.624 15.68 0 22.512-12.864 22.512-35.136v-83.456h48zM512 272h-96v160h-48v-208h144zM560 272l16.080 15.056 41.392-63.056h59.84l-64 94.592 56 65.408h-58.56l-31.68-45.808c-3.856-5.952-7.696-18.192-11.232-18.192h-7.84v128h-48v-224h48v48zM224.368 864h575.248c21.776 0 41.808-7.312 57.936-19.504l112.976 92.416c-20.992 14.112-46.688 23.088-74.528 23.088h-768c-25.664 0-49.504-7.616-69.536-19.84l101.216-101.232c17.136 15.52 39.776 25.072 64.688 25.072zM995.184 915.76l-115.504-94.496c10.304-15.344 16.32-33.792 16.32-53.632v-559.248c0-23.664-8.56-45.312-22.72-62.080l129.808-159.328c13.2 19.76 20.912 45.328 20.912 77.024v784c0 23.728-10.816 47.936-28.816 67.76zM799.632 112h-575.264c-22.288 0-42.72 7.632-59.024 20.32l-124.288-167.76c22.848-19.104 53.328-28.56 86.944-28.56h768c32.784 0 62.576 9.008 85.216 27.168l-132.368 162.464c-14.416-8.608-31.216-13.632-49.216-13.632zM128 208.368v559.264c0 16.672 4.256 32.368 11.696 46.032l-106.528 106.544c-20.544-20.592-33.168-46.64-33.168-72.208v-784c0-30.528 7.216-55.312 19.52-74.768l123.792 167.136c-9.648 15.008-15.312 32.832-15.312 52z" />
<glyph unicode="&#xe924;" glyph-name="keycap_keycap-Opt" d="M224.368 864h575.248c21.776 0 41.808-7.312 57.952-19.504l112.96 92.416c-21.008 14.112-46.688 23.088-74.528 23.088h-768c-25.664 0-49.504-7.616-69.536-19.84l101.232-101.232c17.104 15.52 39.76 25.072 64.672 25.072zM995.2 915.76l-115.504-94.496c10.288-15.344 16.304-33.792 16.304-53.632v-559.248c0-23.664-8.56-45.312-22.704-62.080l129.808-159.328c13.184 19.76 20.896 45.328 20.896 77.024v784c0 23.728-10.816 47.936-28.8 67.76zM799.632 112h-575.264c-22.272 0-42.72 7.632-59.040 20.32l-124.256-167.76c22.832-19.104 53.312-28.56 86.928-28.56h768c32.768 0 62.576 9.008 85.216 27.168l-132.368 162.464c-14.416-8.608-31.216-13.632-49.216-13.632zM128 208.368v559.264c0 16.672 4.24 32.368 11.696 46.032l-106.528 106.544c-20.544-20.592-33.168-46.64-33.168-72.208v-784c0-30.528 7.216-55.312 19.52-74.768l123.808 167.136c-9.664 15.008-15.328 32.832-15.328 52zM257.312 381.344c0-63.232 39.312-112.976 106.496-112.976 66.176 0 111.2 44.128 111.2 116.928 0 61.264-37.968 112.304-107.504 112.304-66.848 0-110.192-49.728-110.192-116.256zM420.912 383.648c0-43.152-19.824-75.424-54.416-75.424-34.272 0-55.088 30.64-55.088 74.096 0 43.152 20.16 75.424 54.752 75.424 35.264 0 54.752-34.24 54.752-74.096zM544 208v80h-0.768c7.392-16 22.848-19.024 42.672-19.024 36.624 0 74.576 27.36 74.576 86 0 51.376-32.256 84.528-68.192 84.528-23.856 0-42.672-7.488-54.752-23.488h-0.672l-2.352 16h-44.336c0.656-16.016 5.824-31.904 5.824-52.976v-171.040h48zM544 363.232c0 2.976-0.384 6.256 0.288 8.896 3.36 14.816 15.76 25.36 30.208 25.36 22.848 0 34.416-19.44 34.416-45.12 0-27.328-13.184-45.44-35.36-45.44-14.784 0-25.872 10.208-29.232 23.712-0.656 2.944-0.32 6.576-0.32 10.528v22.064zM768 400v32h-32v47.152l-48-11.2v-35.952h-32v-32h32v-69.696c0-22.72 2.048-38.208 11.456-47.76 8.064-8.24 20.496-13.84 36.96-13.84 14.448 0 25.872 1.648 32.592 4.288l-0.672 37.872c-3.696-0.656-7.28-1.312-13.664-1.312-15.456 0-18.688 8.896-18.688 28.32v62.128h32.016zM752 640h-93.664l-128.896 136.48c-4.528 4.8-10.832 7.52-17.44 7.52h-96c-13.264 0-24-10.736-24-24s10.736-24 24-24h85.664l128.896-136.48c4.528-4.8 10.848-7.52 17.44-7.52h104c13.264 0 24 10.736 24 24s-10.736 24-24 24zM752 784h-96c-13.264 0-24-10.736-24-24s10.736-24 24-24h96c13.264 0 24 10.736 24 24s-10.736 24-24 24z" />
<glyph unicode="&#xe925;" glyph-name="keycap_keycap-Pause-Break" d="M192 571.616c0-0.64 10.096-0.944 16.496-0.944 28.816 0 53.36 6.912 70.016 22.272 12.8 11.92 19.792 29.488 19.792 50.192s-9.296 38.272-23.056 48.944c-14.4 11.296-35.536 16.944-65.632 16.944-29.76 0-49.632-1.888-65.632-4.384v-208.64h48v75.616zM192 671.056c0 0.944 10.096 1.888 20.016 1.888 24.336 0 38.016-11.616 38.016-31.056 0-21.648-15.904-34.512-41.808-34.512-7.056 0-16.224 0.32-16.224 1.264v62.416zM391.056 512h0.976l2.88-16h43.84c-1.6 8.464-6.752 22.592-6.752 37.328v53.328c0 36.080-14.368 66.192-66.56 66.192-28.464 0-48.8-7.536-59.68-13.488l9.536-30.736c10.256 6.272 25.712 11.616 41.728 11.616 24 0 26.992-11.616 26.992-19.76v-2.192c-48 0.32-90.080-18.816-90.080-58.672 0-24.464 19.76-46.752 51.456-46.752 18.544 0 35.424 3.136 45.664 19.136zM384 568.464v-16.624c0-2.832 2.256-5.648 1.632-8.16-3.216-9.728-11.84-17.568-24-17.568-10.896 0-21.152 5.968-21.152 18.192-0.016 18.512 27.52 24.48 43.52 24.16zM608 545.264v110.736h-48v-97.888c0-3.76-1.6-7.536-2.864-10.352-3.216-7.536-9.136-16.624-22.576-16.624-16.976 0-22.56 13.488-22.56 35.76v89.104h-48v-96.624c0-47.376 20.48-69.664 52.176-69.664 28.176 0 40.016 22.288 46.096 22.288h0.96l2.256-16h42.256c-0.672 12.864 0.256 29.184 0.256 49.264zM738.912 542.432c-0.336 22.592-12.816 37.328-42.56 47.376-19.216 6.592-25.296 10.352-25.296 17.568 0 7.84 6.72 12.56 18.56 12.56 13.456 0 26.896-5.024 33.92-8.784l8.656 32.944c-9.616 4.704-25.936 8.784-44.192 8.784-38.72 0-63.68-21.648-63.68-50.192-0.32-18.192 12.16-35.456 44.496-46.112 18.24-5.968 23.024-9.728 23.024-17.568s-6.064-12.864-20.8-12.864c-14.4 0-32.976 6.272-41.92 11.616l-8.656-34.192c11.84-6.272 30.096-10.672 50.576-10.672 44.816-0.032 67.872 20.992 67.872 49.536zM892.192 577.568c0 37.968-19.216 75.92-69.776 75.92-54.4 0-79.056-43.296-79.056-82.192 0-48 30.4-78.272 83.552-78.272 21.12 0 40.64 3.056 56.64 9.328l-6.384 32.272c-13.12-4.080-26.56-5.040-43.2-5.040-22.768 0-42.608 14.416-44.224 30.416h100.848c0.624 0 1.6 9.408 1.6 17.568zM789.44 592c1.28 16 9.616 31.056 30.096 31.056 22.4 0 27.536-15.056 27.536-31.056h-57.632zM290.928 256.944c13.44 10.672 23.168 25.728 23.168 44.864 0 27.296-26.096 45.488-42.096 52.080v0.624c16 8.784 34.752 26.352 34.752 45.184 0 19.136-11.28 33.568-26.336 41.408-15.68 9.104-30.768 11.92-60.512 11.92-24.336 0-59.904-1.888-59.904-4.384v-207.68c0-1.568 25.456-3.136 49.456-3.136 42.896-0.016 65.776 6.88 81.472 19.12zM208 416.944c0 0.624 7.040 1.264 17.616 1.264 22.080 0 32.992-8.32 32.992-24.32 0-15.68-15.376-25.888-40.976-25.888h-9.632v48.944zM208 336h10.272c24.336 0 43.84-10.672 43.84-32 0-22.272-16.336-32-38.416-32-8.32 0-15.68 0-15.68 0v64zM384 240v77.808c0 3.76-2.88 7.52-2.256 10.672 3.216 14.736 17.296 24.16 35.216 24.16 5.44-0.016-0.96-0.64 15.040-1.28v44.864c-16 0.624-9.28 2.032-13.744 2.032-15.056 0-37.744-14.272-45.744-30.272h-1.28l-1.616 32h-41.92c0.624-15.984 8.304-34.496 8.304-57.088v-102.896h48zM571.856 321.568c0 37.968-19.2 75.92-69.76 75.92-54.4 0-79.056-43.296-79.056-82.192 0-48 30.4-78.272 83.536-78.272 21.12 0 40.656 3.056 56.656 9.328l-6.4 32.272c-13.12-4.080-26.56-5.040-43.2-5.040-22.752 0-42.608 14.416-44.192 30.416h100.832c0.64 0 1.584 9.408 1.584 17.568zM469.12 336c1.28 16 9.6 31.056 30.096 31.056 22.384 0 27.52-15.056 27.52-31.056h-57.616zM577.44 283.616c0-24.464 17.52-46.752 49.2-46.752 18.56 0 33.216 3.136 43.456 19.136h0.976l2.88-16h43.84c-1.6 8.464 2.208 22.592 2.208 37.328v53.328c0 36.080-18.88 66.192-71.024 66.192-28.496 0-51.040-7.536-61.936-13.488l8.4-30.736c10.256 6.272 29.648 11.616 45.648 11.616 24 0 30.928-11.616 30.928-19.76v-2.192c-64.016 0.304-94.576-18.832-94.576-58.672zM672 312.464v-16.624c0-2.832-2.24-5.648-2.88-8.16-3.2-9.728-14.080-17.568-26.24-17.568-10.88 0-17.792 5.968-17.792 18.192 0 18.512 14.912 24.48 46.912 24.16zM224.368 864h575.248c21.776 0 41.808-7.312 57.936-19.504l112.976 92.416c-20.992 14.112-46.688 23.088-74.528 23.088h-768c-25.664 0-49.504-7.616-69.536-19.84l101.216-101.232c17.136 15.52 39.776 25.072 64.688 25.072zM995.184 915.76l-115.504-94.496c10.304-15.344 16.32-33.792 16.32-53.632v-526.672l-63.344 93.632 56 65.408h-58.56l-31.68-45.808c-3.856-5.952-7.696-18.192-11.216-18.192h-3.2v128h-48v-224h48v48l13.76 15.056 39.056-63.056h59.184v-31.632c0-23.664-8.56-45.312-22.72-62.080l129.808-159.328c13.2 19.776 20.912 45.344 20.912 77.040v784c0 23.728-10.816 47.936-28.816 67.76zM799.632 112h-575.264c-22.288 0-42.72 7.632-59.024 20.32l-124.288-167.76c22.848-19.104 53.328-28.56 86.944-28.56h768c32.784 0 62.576 9.008 85.216 27.168l-132.368 162.464c-14.416-8.608-31.216-13.632-49.216-13.632zM128 208.368v559.264c0 16.672 4.256 32.368 11.696 46.032l-106.528 106.544c-20.544-20.592-33.168-46.64-33.168-72.208v-784c0-30.528 7.216-55.312 19.52-74.768l123.792 167.136c-9.648 15.008-15.312 32.832-15.312 52z" />
<glyph unicode="&#xe926;" glyph-name="keycap_keycap-PgDn" d="M316.672 548.080c-14.4 11.296-32.256 16.944-62.336 16.944-29.76 0-62.336-1.888-62.336-4.384v-208.64h48v75.616c0-0.64 6.816-0.944 13.216-0.944 28.816 0 51.712 6.912 68.368 22.272 12.8 11.92 18.992 29.488 18.992 50.192s-10.144 38.272-23.904 48.944zM252.912 463.36c-7.056 0-12.912 0.32-12.912 1.264v62.432c0 0.944 6.816 1.888 16.736 1.888 24.336 0 38.096-11.616 38.096-31.056 0-21.648-16.016-34.528-41.92-34.528zM406 322.816c-18.256 0-36.208 5.968-46.128 11.616l-9.936-36.080c14.096-7.84 35.664-11.92 56.176-11.92 23.024 0 47.664 4.4 64.944 18.832 17.6 15.36 24.96 39.52 24.96 69.008v85.648c-0.016 22.896-2.064 36.080-1.424 52.080h-42.256l-1.6-32h-0.656c-8 16-21.44 25.248-42.88 25.248-38.4 0-71.056-29.568-71.056-78.816 0-44.24 27.536-76.736 66.256-76.736 17.936 0 32.976 18.32 42.256 18.32h3.344v-4.704c0-28.256-18.976-40.496-42-40.496zM448 420.384c0-4.080-1.984-9.088-3.264-12.544-3.2-11.296-13.952-19.456-26.448-19.456-20.464 0-32.416 17.888-32.416 40.784 0 27.92 14.192 43.616 31.792 43.616 13.456 0 24.32-8.464 27.808-21.008 0.656-2.528 2.528-5.664 2.528-8.8v-22.592zM580.896 565.008c-24.64 0-52.896-1.568-68.896-4.384v-207.68c16-1.568 33.040-3.136 58.336-3.136 42.256 0 78.304 8.784 101.008 27.296 20.816 17.264 36.592 45.184 36.592 85.648 0 37.328-15.184 63.376-37.6 79.68-20.8 15.36-48.48 22.576-89.44 22.576zM580.4 387.136c-6.080 0-4.4 0-20.4 0.944v138.352c16 0.944 14.656 1.888 25.536 1.888 41.936 0 68.176-23.216 67.84-67.136 0-50.512-28.8-74.368-72.976-74.048zM880 352v90.976c0 45.184-27.6 63.68-59.6 63.68-25.936 0.016-45.52-10.656-51.92-26.656h-0.96l-2.256 32h-42.256c0.656-16-3.008-36.384-3.008-55.536v-104.464h48v88.464c0 4.384 3.104 9.104 4.384 11.92 3.216 8.784 16.368 17.888 29.808 17.888 17.6 0 29.792-13.488 29.792-33.264v-85.008h48.016zM224.368 864h575.248c21.776 0 41.808-7.312 57.936-19.504l112.976 92.416c-20.992 14.112-46.688 23.088-74.528 23.088h-768c-25.664 0-49.504-7.616-69.536-19.84l101.216-101.232c17.136 15.52 39.776 25.072 64.688 25.072zM995.184 915.76l-115.504-94.496c10.304-15.344 16.32-33.792 16.32-53.632v-559.248c0-23.664-8.56-45.312-22.72-62.080l129.808-159.328c13.2 19.76 20.912 45.328 20.912 77.024v784c0 23.728-10.816 47.936-28.816 67.76zM799.632 112h-575.264c-22.288 0-42.72 7.632-59.024 20.32l-124.288-167.76c22.848-19.104 53.328-28.56 86.944-28.56h768c32.784 0 62.576 9.008 85.216 27.168l-132.368 162.464c-14.416-8.608-31.216-13.632-49.216-13.632zM128 208.368v559.264c0 16.672 4.256 32.368 11.696 46.032l-106.528 106.544c-20.544-20.592-33.168-46.64-33.168-72.208v-784c0-30.528 7.216-55.312 19.52-74.768l123.792 167.136c-9.648 15.008-15.312 32.832-15.312 52z" />
<glyph unicode="&#xe927;" glyph-name="keycap_keycap-PgUp" d="M301.632 548.080c-14.4 11.296-32.72 16.944-62.816 16.944-29.744 0-46.816-1.888-62.816-4.384v-208.64h48v75.616c0-0.64 7.296-0.944 13.696-0.944 28.8 0 51.952 6.912 68.608 22.272 12.816 11.92 19.104 29.488 19.104 50.192 0.016 20.704-10 38.272-23.776 48.944zM237.376 463.36c-7.040 0-13.376 0.32-13.376 1.264v62.432c0 0.944 7.296 1.888 17.2 1.888 24.336 0 38.096-11.616 38.096-31.056 0-21.648-16-34.528-41.92-34.528zM390.496 322.816c-18.256 0-35.968 5.968-45.888 11.616l-9.824-36.080c14.096-7.84 35.728-11.92 56.24-11.92 23.024 0 47.2 4.4 64.48 18.832 17.6 15.36 24.496 39.52 24.496 69.008v85.648c0 22.896-1.072 36.080-0.432 52.080h-42.256l-1.6-32h-0.656c-8 16-21.44 25.248-42.88 25.248-38.4 0-71.056-29.568-71.056-78.816 0-44.24 27.536-76.736 66.256-76.736 17.936 0 32.976 18.32 42.256 18.32h2.368v-4.704c0-28.256-18.464-40.496-41.504-40.496zM432 420.384c0-4.080-1.504-9.088-2.784-12.544-3.2-11.296-13.712-19.456-26.208-19.456-20.48 0-32.32 17.888-32.32 40.784 0 27.92 14.272 43.616 31.856 43.616 13.472 0 23.856-8.464 27.36-21.008 0.656-2.512 2.080-5.648 2.080-8.784v-22.608zM496 560v-114.512c0-67.456 31.808-96.944 86.256-96.944 56.32 0 89.744 31.056 89.744 96.32v115.136h-48v-118.272c0-37.328-14.72-54.912-40.32-54.912-24.976 0-39.68 18.512-39.68 54.912v118.272h-48zM752 288v80h0.816c7.024-16 21.744-18.512 40.64-18.512 34.896 0 71.040 25.888 71.040 81.728 0 48.944-30.72 75.84-64.976 75.84-22.72 0-40.64-11.056-52.16-27.056h-0.64l-2.24 32h-42.24c0.64-16 1.76-37.968 1.76-58.032v-165.968h48zM752 438.896c0 2.832 0.4 5.968 1.040 8.48 3.2 14.112 15.424 24.16 29.168 24.16 21.744 0 32.992-18.512 32.992-42.992 0-26.032-12.48-43.296-33.616-43.296-14.080 0-25.344 9.712-28.544 22.592-0.64 2.832-1.040 6.272-1.040 10.048v21.008zM224.368 864h575.248c21.776 0 41.808-7.312 57.936-19.504l112.976 92.416c-20.992 14.112-46.688 23.088-74.528 23.088h-768c-25.664 0-49.504-7.616-69.536-19.84l101.216-101.232c17.136 15.52 39.776 25.072 64.688 25.072zM995.184 915.76l-115.504-94.496c10.304-15.344 16.32-33.792 16.32-53.632v-559.248c0-23.664-8.56-45.312-22.72-62.080l129.808-159.328c13.2 19.76 20.912 45.328 20.912 77.024v784c0 23.728-10.816 47.936-28.816 67.76zM799.632 112h-575.264c-22.288 0-42.72 7.632-59.024 20.32l-124.288-167.76c22.848-19.104 53.328-28.56 86.944-28.56h768c32.784 0 62.576 9.008 85.216 27.168l-132.368 162.464c-14.416-8.608-31.216-13.632-49.216-13.632zM128 208.368v559.264c0 16.672 4.256 32.368 11.696 46.032l-106.528 106.544c-20.544-20.592-33.168-46.64-33.168-72.208v-784c0-30.528 7.216-55.312 19.52-74.768l123.792 167.136c-9.648 15.008-15.312 32.832-15.312 52z" />
<glyph unicode="&#xe928;" glyph-name="keycap_keycap-plus" d="M224.368 864h575.248c21.776 0 41.808-7.312 57.952-19.504l112.96 92.416c-21.008 14.112-46.688 23.088-74.528 23.088h-768c-25.664 0-49.504-7.616-69.536-19.84l101.232-101.232c17.104 15.52 39.76 25.072 64.672 25.072zM995.2 915.76l-115.504-94.496c10.288-15.344 16.304-33.792 16.304-53.632v-559.248c0-23.664-8.56-45.312-22.704-62.080l129.808-159.328c13.184 19.76 20.896 45.328 20.896 77.024v784c0 23.728-10.816 47.936-28.8 67.76zM799.632 112h-575.264c-22.272 0-42.72 7.632-59.040 20.32l-124.256-167.76c22.832-19.104 53.312-28.56 86.928-28.56h768c32.768 0 62.576 9.008 85.216 27.168l-132.368 162.464c-14.416-8.608-31.216-13.632-49.216-13.632zM128 208.368v559.264c0 16.672 4.24 32.368 11.696 46.032l-106.528 106.544c-20.544-20.592-33.168-46.64-33.168-72.208v-784c0-30.528 7.216-55.312 19.52-74.768l123.808 167.136c-9.664 15.008-15.328 32.832-15.328 52zM544 320v144h128v48h-128v144h-64v-144h-128v-48h128v-144z" />
<glyph unicode="&#xe929;" glyph-name="keycap_keycap-Prt-Sc" d="M229.312 581.008c-29.776 0-53.312-1.888-69.312-4.384v-208.624h48v75.616c16-0.64 13.776-0.944 20.192-0.944 28.8 0 55.2 6.912 71.856 22.272 12.8 11.92 20.736 29.488 20.736 50.192s-10.528 38.272-24.32 48.944c-14.4 11.28-37.088 16.928-67.152 16.928zM227.856 479.36c-7.040 0-3.856 0.32-19.856 1.264v62.432c16 0.944 13.776 1.888 23.68 1.888 24.336 0 38.096-11.616 38.096-31.056 0-21.648-16-34.528-41.92-34.528zM384 368v77.808c0 3.76-1.248 7.52-0.624 10.672 3.216 14.736 16.464 24.16 34.384 24.16 5.44-0.016 14.24-0.64 14.24-1.28v44.864c0 0.624-7.664 2.032-12.128 2.032-15.056 0-36.16-14.272-44.16-30.272h-1.28l-1.616 32h-41.92c0.64-15.984 5.104-34.496 5.104-57.088v-102.896h48zM528 480v48h-32v37.328l-48-10.672v-26.656h-16v-48h16v-56.464c0-21.648 6.080-36.384 15.040-45.488 7.68-7.84 21.616-13.184 37.296-13.184 13.744 0 25.68 1.568 32.080 4.080l-0.112 36.080c-3.52-0.624-9.664-1.248-15.744-1.248-14.736 0-20.56 8.464-20.56 26.976v49.248h32zM651.856 404.080c-20.8 0-40.976 6.592-54.080 13.184l-9.936-39.536c12.176-6.592 36.496-12.864 61.136-12.864 59.2 0 87.040 30.112 87.040 65.568 0 29.808-17.904 49.264-56 63.056-27.84 10.352-40 16.32-40 29.808 0 10.992 10.24 20.4 31.36 20.4s36.48-5.968 45.12-10.048l10.896 38.592c-12.816 5.648-30.736 10.672-55.056 10.672-50.896 0-81.632-27.616-81.632-63.68 0-30.736 23.376-50.192 59.216-62.432 25.936-9.088 36.176-16.624 36.176-29.808 0.016-13.824-11.824-22.912-34.24-22.912zM836.496 488.16c12.816 0 21.44-2.192 27.2-4.704l7.68 35.44c-10.24 3.76-24.336 5.968-37.136 5.968-58.256 0-89.616-36.704-89.616-81.568 0-48.32 32.336-78.432 82.896-78.432 18.56 0 34.896 3.136 43.536 6.912l-5.744 35.136c-7.376-2.816-16.336-4.704-27.84-4.704-23.68 0-42.912 14.736-42.912 42.976-0.304 25.088 16.336 42.976 41.936 42.976zM224.368 864h575.248c21.776 0 41.808-7.312 57.936-19.504l112.976 92.416c-20.992 14.112-46.688 23.088-74.528 23.088h-768c-25.664 0-49.504-7.616-69.536-19.84l101.216-101.232c17.136 15.52 39.776 25.072 64.688 25.072zM995.184 915.76l-115.504-94.496c10.304-15.344 16.32-33.792 16.32-53.632v-559.248c0-23.664-8.56-45.312-22.72-62.080l129.808-159.328c13.2 19.76 20.912 45.328 20.912 77.024v784c0 23.728-10.816 47.936-28.816 67.76zM799.632 112h-575.264c-22.288 0-42.72 7.632-59.024 20.32l-124.288-167.76c22.848-19.104 53.328-28.56 86.944-28.56h768c32.784 0 62.576 9.008 85.216 27.168l-132.368 162.464c-14.416-8.608-31.216-13.632-49.216-13.632zM128 208.368v559.264c0 16.672 4.256 32.368 11.696 46.032l-106.528 106.544c-20.544-20.592-33.168-46.64-33.168-72.208v-784c0-30.528 7.216-55.312 19.52-74.768l123.792 167.136c-9.648 15.008-15.312 32.832-15.312 52z" />
<glyph unicode="&#xe92a;" glyph-name="keycap_keycap-quotation" d="M224.368 864h575.248c21.776 0 41.808-7.312 57.952-19.504l112.96 92.416c-21.008 14.112-46.688 23.088-74.528 23.088h-768c-25.664 0-49.504-7.616-69.536-19.84l101.232-101.232c17.104 15.52 39.76 25.072 64.672 25.072zM995.2 915.76l-115.504-94.496c10.288-15.344 16.304-33.792 16.304-53.632v-559.248c0-23.664-8.56-45.312-22.704-62.080l129.808-159.328c13.184 19.76 20.896 45.328 20.896 77.024v784c0 23.728-10.816 47.936-28.8 67.76zM799.632 112h-575.264c-22.272 0-42.72 7.632-59.040 20.32l-124.256-167.76c22.832-19.104 53.312-28.56 86.928-28.56h768c32.768 0 62.576 9.008 85.216 27.168l-132.368 162.464c-14.416-8.608-31.216-13.632-49.216-13.632zM128 208.368v559.264c0 16.672 4.24 32.368 11.696 46.032l-106.528 106.544c-20.544-20.592-33.168-46.64-33.168-72.208v-784c0-30.528 7.216-55.312 19.52-74.768l123.808 167.136c-9.664 15.008-15.328 32.832-15.328 52zM421.952 498.224l63.616 3.952c6.272 38.624 17.472 81.2 31.36 118.512l-41.216-3.504c-20.608-32.928-39.872-75.952-53.76-118.96zM604.288 620.688l-41.216-3.504c-20.608-32.928-39.872-75.952-53.76-118.96l63.616 3.952c6.272 38.624 17.92 81.2 31.36 118.512z" />
<glyph unicode="&#xe92b;" glyph-name="keycap_keycap-right" d="M224.368 864h575.248c21.776 0 41.808-7.312 57.952-19.504l112.96 92.416c-21.008 14.112-46.688 23.088-74.528 23.088h-768c-25.664 0-49.504-7.616-69.536-19.84l101.232-101.232c17.104 15.52 39.76 25.072 64.672 25.072zM995.2 915.76l-115.504-94.496c10.288-15.344 16.304-33.792 16.304-53.632v-559.248c0-23.664-8.56-45.312-22.704-62.080l129.808-159.328c13.184 19.76 20.896 45.328 20.896 77.024v784c0 23.728-10.816 47.936-28.8 67.76zM799.632 112h-575.264c-22.272 0-42.72 7.632-59.040 20.32l-124.256-167.76c22.832-19.104 53.312-28.56 86.928-28.56h768c32.768 0 62.576 9.008 85.216 27.168l-132.368 162.464c-14.416-8.608-31.216-13.632-49.216-13.632zM128 208.368v559.264c0 16.672 4.24 32.368 11.696 46.032l-106.528 106.544c-20.544-20.592-33.168-46.64-33.168-72.208v-784c0-30.528 7.216-55.312 19.52-74.768l123.808 167.136c-9.664 15.008-15.328 32.832-15.328 52zM391.904 320.544l27.488-27.472c6.064-6.080 15.92-6.080 22 0l190.656 188.544 1.744 2.192c3.248 3.248 4.704 7.568 4.464 11.824 0.24 4.256-1.232 8.576-4.464 11.824l-27.488 27.488c-1.472 1.472-3.184 2.576-4.992 3.328l-159.936 159.92c-6.080 6.080-15.92 6.080-22 0l-27.488-27.472c-6.064-6.080-6.064-15.92 0-22l153.104-153.088-153.104-153.088c-6.048-6.096-6.048-15.936 0.016-22z" />
<glyph unicode="&#xe92c;" glyph-name="keycap_keycap-Shift" d="M224.368 864h575.248c21.776 0 41.808-7.312 57.936-19.504l112.976 92.416c-20.992 14.112-46.688 23.088-74.528 23.088h-768c-25.664 0-49.504-7.616-69.536-19.84l101.216-101.232c17.136 15.52 39.776 25.072 64.688 25.072zM995.184 915.76l-115.504-94.496c10.304-15.344 16.32-33.792 16.32-53.632v-559.248c0-23.664-8.56-45.312-22.72-62.080l129.808-159.328c13.2 19.76 20.912 45.328 20.912 77.024v784c0 23.728-10.816 47.936-28.816 67.76zM799.632 112h-575.264c-22.288 0-42.72 7.632-59.024 20.32l-124.288-167.76c22.848-19.104 53.328-28.56 86.944-28.56h768c32.784 0 62.576 9.008 85.216 27.168l-132.368 162.464c-14.416-8.608-31.216-13.632-49.216-13.632zM128 208.368v559.264c0 16.672 4.256 32.368 11.696 46.032l-106.528 106.544c-20.544-20.592-33.168-46.64-33.168-72.208v-784c0-30.528 7.216-55.312 19.52-74.768l123.792 167.136c-9.648 15.008-15.312 32.832-15.312 52zM281.776 308.080c-20.8 0-40.976 6.592-54.096 13.184l-9.904-39.536c12.16-6.592 36.464-12.864 61.12-12.864 59.216 0 87.056 30.112 87.056 65.568 0 29.808-17.936 49.264-56.016 63.056-27.856 10.352-40.016 16.32-40.016 29.808 0 10.992 10.256 20.4 31.376 20.4s36.48-5.968 45.12-10.048l10.88 38.592c-12.8 5.648-30.72 10.672-55.040 10.672-50.896 0-81.616-27.616-81.616-63.68 0-30.736 23.36-50.192 59.216-62.432 25.904-9.088 36.16-16.624 36.16-29.808 0.016-13.824-11.824-22.912-34.24-22.912zM528 272v89.728c0 46.112-23.424 67.136-54.48 67.136-8.96 0-18.112-5.792-25.136-9.568-7.696-4.080-13.968-3.296-19.088-19.296h2.704v96h-48v-224h48v90.976c0 3.456-1.36 7.536-0.080 10.672 3.536 8.464 10.768 16.624 23.584 16.624 18.224 0 24.496-13.808 24.496-33.888v-84.384h48zM575.856 492.24c-15.68 0-25.92-10.352-25.616-24.16-0.32-13.184 9.92-23.84 25.28-23.84 16 0 26.256 10.672 26.256 23.84-0.304 13.808-10.24 24.16-25.92 24.16zM544 432h64v-160h-64v160zM816 384v48h-48v37.328l-48-10.672v-26.656h-48v1.248c0 15.056 9.376 27.296 25.376 27.296 6.4 0 12.832-0.944 17.008-2.192l2.592 36.704c-6.72 1.888-14.72 3.136-25.616 3.136-14.064 0-33.2-4.080-45.36-15.376-14.096-12.544-22-32.928-22-51.456v0.64h-16v-48h16v-112h48v112h48v-56.464c0-21.648 8.4-36.384 17.36-45.488 7.68-7.84 22.768-13.184 38.448-13.184 13.744 0 26.272 1.568 32.672 4.080l0.176 36.080c-3.52-0.624-11.856-1.248-17.92-1.248-14.736-0.016-22.736 8.464-22.736 26.96v49.264h48zM640 688v-144c0-8.704 2.080-16 11.584-16h92.16c9.488 0 8.256 7.296 8.256 16v144h36.256c15.744 0 10.256 18.432 4.112 24.576l-83.568 85.184c-6.16 6.144-16.128 5.68-22.288-0.464l-83.568-84.48c-6.128-6.16-11.632-24.816 4.112-24.816h32.944z" />
<glyph unicode="&#xe92d;" glyph-name="keycap_keycap-slash" d="M224.368 864h575.248c21.776 0 41.808-7.312 57.952-19.504l112.96 92.416c-21.008 14.112-46.688 23.088-74.528 23.088h-768c-25.664 0-49.504-7.616-69.536-19.84l101.232-101.232c17.104 15.52 39.76 25.072 64.672 25.072zM995.2 915.76l-115.504-94.496c10.288-15.344 16.304-33.792 16.304-53.632v-559.248c0-23.664-8.56-45.312-22.704-62.080l129.808-159.328c13.184 19.76 20.896 45.328 20.896 77.024v784c0 23.728-10.816 47.936-28.8 67.76zM799.632 112h-575.264c-22.272 0-42.72 7.632-59.040 20.32l-124.256-167.76c22.832-19.104 53.312-28.56 86.928-28.56h768c32.768 0 62.576 9.008 85.216 27.168l-132.368 162.464c-14.416-8.608-31.216-13.632-49.216-13.632zM128 208.368v559.264c0 16.672 4.24 32.368 11.696 46.032l-106.528 106.544c-20.544-20.592-33.168-46.64-33.168-72.208v-784c0-30.528 7.216-55.312 19.52-74.768l123.808 167.136c-9.664 15.008-15.328 32.832-15.328 52zM484.048 304l123.264 400h-58.176l-123.248-400z" />
<glyph unicode="&#xe92e;" glyph-name="keycap_keycap-Tab" d="M224.368 864h575.248c21.776 0 41.808-7.312 57.936-19.504l112.976 92.416c-20.992 14.112-46.688 23.088-74.528 23.088h-768c-25.664 0-49.504-7.616-69.536-19.84l101.216-101.232c17.136 15.52 39.776 25.072 64.688 25.072zM995.184 915.76l-115.504-94.496c10.304-15.344 16.32-33.792 16.32-53.632v-559.248c0-23.664-8.56-45.312-22.72-62.080l129.808-159.328c13.2 19.76 20.912 45.328 20.912 77.024v784c0 23.728-10.816 47.936-28.816 67.76zM799.632 112h-575.264c-22.288 0-42.72 7.632-59.024 20.32l-124.288-167.76c22.848-19.104 53.328-28.56 86.944-28.56h768c32.784 0 62.576 9.008 85.216 27.168l-132.368 162.464c-14.416-8.608-31.216-13.632-49.216-13.632zM128 208.368v559.264c0 16.672 4.256 32.368 11.696 46.032l-106.528 106.544c-20.544-20.592-33.168-46.64-33.168-72.208v-784c0-30.528 7.216-55.312 19.52-74.768l123.792 167.136c-9.648 15.008-15.312 32.832-15.312 52zM368 272v176h64v48h-176v-48h64v-176zM414.576 317.776c0-25.68 19.296-49.472 52.544-49.472 19.504 0 35.776 3.696 46.528 19.696h1.008l3.008-16h46.032c-1.664 8.896-3.696 23.712-3.696 39.2v55.984c0 37.872-16.784 69.488-71.552 69.488-29.888 0-52.064-7.904-63.488-14.16l9.584-32.272c10.752 6.592 29.664 12.192 46.448 12.192 25.184 0 31.008-12.192 31.008-20.752v-2.304c-64 0.32-97.424-19.76-97.424-61.6zM512 348.080v-17.456c0-2.976-0.512-5.936-1.184-8.56-3.36-10.208-13.84-18.448-26.624-18.448-11.408 0-20.032 6.256-20.032 19.104 0 19.424 15.84 25.68 47.84 25.36zM628.912 288h0.688c11.744-16 30.224-22.832 49.376-22.832 37.632 0 75.248 30.592 75.248 88.56 0.336 49.392-28.56 83.168-67.856 83.168-22.848 0-40-4.896-49.728-20.896h3.36v96h-48v-191.92c0-18.112-7.76-37.552-8.432-48.080h43.344l2 16zM640 364.224c0 3.296-1.664 6.256-1.008 9.216 3.376 14.496 15.104 24.704 28.896 24.704 23.84 0 34.784-19.76 34.784-44.784 0-28.992-13.68-45.456-35.536-45.456-14.784 0-24.64 10.208-28.016 23.712-0.672 2.64 0.88 5.6 0.88 8.88v23.728zM638.896 677.296c1.568 1.248 3.040 2.64 4.32 4.32 0.096 0.128 0.144 0.272 0.24 0.4 0.224 0.304 0.368 0.64 0.576 0.944 1.072 1.664 1.92 3.392 2.544 5.184 0.144 0.4 0.304 0.784 0.416 1.184 0.608 2.096 0.928 4.24 0.96 6.368 0 0.4-0.048 0.784-0.064 1.184-0.080 2.192-0.384 4.352-1.056 6.448-0.032 0.080-0.016 0.176-0.048 0.256-0.016 0.016-0.032 0.048-0.032 0.064-0.72 2.128-1.808 4.112-3.12 6-0.256 0.368-0.496 0.72-0.784 1.072-1.264 1.632-2.688 3.168-4.416 4.464l-96 72c-4.336 3.232-9.376 4.8-14.384 4.8-7.296 0-14.496-3.312-19.216-9.6-7.952-10.608-5.792-25.648 4.8-33.6l38.384-28.8h-240.016c-13.248 0-24-10.736-24-24s16-24 32-24h232l-38.4-28.8c-10.592-7.952-12.752-23.008-4.8-33.6s22.976-12.736 33.616-4.8l96 72c0.176 0.16 0.288 0.352 0.48 0.512zM752 632v128c0 13.264-10.752 24-24 24s-24-10.736-24-24v-128c0-13.264 10.752-24 24-24s24 10.736 24 24z" />
<glyph unicode="&#xe92f;" glyph-name="keycap_keycap-up" d="M224.368 864h575.248c21.776 0 41.808-7.312 57.952-19.504l112.96 92.416c-21.008 14.112-46.688 23.088-74.528 23.088h-768c-25.664 0-49.504-7.616-69.536-19.84l101.232-101.232c17.104 15.52 39.76 25.072 64.672 25.072zM995.2 915.76l-115.504-94.496c10.288-15.344 16.304-33.792 16.304-53.632v-559.248c0-23.664-8.56-45.312-22.704-62.080l129.808-159.328c13.184 19.76 20.896 45.328 20.896 77.024v784c0 23.728-10.816 47.936-28.8 67.76zM799.632 112h-575.264c-22.272 0-42.72 7.632-59.040 20.32l-124.256-167.76c22.832-19.104 53.312-28.56 86.928-28.56h768c32.768 0 62.576 9.008 85.216 27.168l-132.368 162.464c-14.416-8.608-31.216-13.632-49.216-13.632zM128 208.368v559.264c0 16.672 4.24 32.368 11.696 46.032l-106.528 106.544c-20.544-20.592-33.168-46.64-33.168-72.208v-784c0-30.528 7.216-55.312 19.52-74.768l123.808 167.136c-9.664 15.008-15.328 32.832-15.328 52zM502.72 619.504c-3.264 3.248-7.568 4.704-11.84 4.48-4.24 0.224-8.576-1.232-11.824-4.48l-27.488-27.488c-1.472-1.472-2.576-3.184-3.328-5.008l-159.936-159.92c-6.064-6.064-6.064-15.92 0-21.984l27.488-27.504c6.080-6.064 15.92-6.064 21.984 0l153.088 153.104 153.104-153.104c6.080-6.064 15.936-6.064 22 0l27.488 27.504c6.064 6.064 6.064 15.92 0 21.984l-188.528 190.672-2.208 1.744z" />
<glyph unicode="&#xe930;" glyph-name="keycap_keycap-Window" d="M224.368 864h575.248c21.776 0 41.808-7.312 57.936-19.504l112.976 92.416c-20.992 14.112-46.688 23.088-74.528 23.088h-768c-25.664 0-49.504-7.616-69.536-19.84l101.216-101.232c17.136 15.52 39.776 25.072 64.688 25.072zM995.184 915.76l-115.504-94.496c10.304-15.344 16.32-33.792 16.32-53.632v-559.248c0-23.664-8.56-45.312-22.72-62.080l129.808-159.328c13.2 19.76 20.912 45.328 20.912 77.024v784c0 23.728-10.816 47.936-28.816 67.76zM799.632 112h-575.264c-22.288 0-42.72 7.632-59.024 20.32l-124.288-167.76c22.848-19.104 53.328-28.56 86.944-28.56h768c32.784 0 62.576 9.008 85.216 27.168l-132.368 162.464c-14.416-8.608-31.216-13.632-49.216-13.632zM128 208.368v559.264c0 16.672 4.256 32.368 11.696 46.032l-106.528 106.544c-20.544-20.592-33.168-46.64-33.168-72.208v-784c0-30.528 7.216-55.312 19.52-74.768l123.792 167.136c-9.648 15.008-15.312 32.832-15.312 52zM480 640l-224-48v-112h224zM752 704l-240-48v-176h240zM256 336l224-48v160h-224zM512 272l240-48v224h-240z" />
<glyph unicode="&#xe931;" glyph-name="keycap_keycap-open" d="M224.368 864h575.248c21.776 0 41.808-7.312 57.952-19.504l112.96 92.416c-21.008 14.112-46.688 23.088-74.528 23.088h-768c-25.664 0-49.504-7.616-69.536-19.84l101.232-101.232c17.104 15.52 39.76 25.072 64.672 25.072zM995.2 915.76l-115.504-94.496c10.288-15.344 16.304-33.792 16.304-53.632v-559.248c0-23.664-8.56-45.312-22.704-62.080l129.808-159.328c13.184 19.76 20.896 45.328 20.896 77.024v784c0 23.728-10.816 47.936-28.8 67.76zM799.632 112h-575.264c-22.272 0-42.72 7.632-59.040 20.32l-124.256-167.76c22.832-19.104 53.312-28.56 86.928-28.56h768c32.768 0 62.576 9.008 85.216 27.168l-132.368 162.464c-14.416-8.608-31.216-13.632-49.216-13.632zM128 208.368v559.264c0 16.672 4.24 32.368 11.696 46.032l-106.528 106.544c-20.544-20.592-33.168-46.64-33.168-72.208v-784c0-30.528 7.216-55.312 19.52-74.768l123.808 167.136c-9.664 15.008-15.328 32.832-15.328 52z" />
</font>
</defs>
</svg>
